<svg width="138" height="70" viewBox="0 0 138 70" fill="none" xmlns="http://www.w3.org/2000/svg">
<path d="M26.46 35.862C28.7858 29.4957 35.8321 26.2201 42.1985 28.5459C48.5649 30.8717 51.8404 37.9181 49.5146 44.2844" stroke="black" stroke-width="2" stroke-linecap="round" stroke-linejoin="round"/>
<path d="M116.528 34.3097C114.179 27.9516 107.916 24.4075 102.539 26.3936C97.1624 28.3797 94.7072 35.1439 97.0557 41.502" stroke="black" stroke-width="2" stroke-linecap="round" stroke-linejoin="round"/>
<ellipse cx="46.3881" cy="18.1733" rx="12.6406" ry="6.89486" transform="rotate(9.38454 46.3881 18.1733)" fill="var(--eyebrow-color)"/>
<ellipse cx="97.1228" cy="16.4722" rx="11" ry="6" transform="rotate(-18.3812 97.1228 16.4722)" fill="var(--eyebrow-color)"/>
<ellipse cx="77.792" cy="49.3096" rx="24" ry="15" fill="currentColor"/>
<path d="M81.4826 51.6871C82.0379 51.0285 83.509 49.9657 84.9298 49.8386C86.6253 49.6869 87.7593 50.3903 87.9198 52.3705C88.0507 53.9849 86.2985 55.6163 85.0089 55.9237M85.0089 55.9237C83.9772 56.1697 82.9626 55.9981 82.3409 55.9817M85.0089 55.9237C85.8926 56.4204 88.2281 56.6341 88.1128 59.2874C88.0189 61.4512 86.3766 61.7549 85.5122 61.822C84.6477 61.8891 83.0856 61.8296 81.5445 59.8503" stroke="black" stroke-width="2" stroke-linecap="round" stroke-linejoin="round"/>
<path d="M87.2247 38.3097C84.0247 37.9097 78.2251 38.0319 74.7251 38.8096C70.2251 39.8095 78.2251 47.8096 82.7251 46.8096C87.2251 45.8096 91.2247 38.8097 87.2247 38.3097Z" fill="black"/>
<ellipse cx="81.7246" cy="40.3096" rx="3" ry="1" fill="#D9D9D9"/>
</svg>
