<svg width="139" height="70" viewBox="0 0 139 70" fill="none" xmlns="http://www.w3.org/2000/svg">
<path d="M58.7028 33.8722C57.8544 39.0051 51.8876 42.2937 45.3755 41.2174C38.8633 40.1411 34.2719 35.1076 35.1202 29.9747C35.296 28.9111 35.6916 27.9267 36.2662 27.0438C37.3528 26.7693 55.7784 29.0889 58.2807 29.8419C58.7668 31.1287 58.9301 32.4969 58.7028 33.8722Z" fill="black"/>
<path d="M91.4767 30.776C92.2047 35.1808 97.2733 38.0115 102.798 37.0984C108.322 36.1854 112.21 31.8744 111.482 27.4696C111.336 26.5868 111.016 25.7673 110.553 25.0284C107.227 24.848 92.3746 28.3501 91.3953 29.4243C91.3758 29.8714 91.4019 30.3232 91.4767 30.776Z" fill="black"/>
<ellipse cx="47.228" cy="18.1733" rx="12.6406" ry="6.89486" transform="rotate(9.38454 47.228 18.1733)" fill="#FED2AB"/>
<ellipse cx="97.9636" cy="16.4722" rx="11" ry="6" transform="rotate(-18.3812 97.9636 16.4722)" fill="#FED2AB"/>
<ellipse cx="78.6328" cy="49.3096" rx="24" ry="15" fill="#FED2AB"/>
<path d="M88.1319 38.3097C84.9319 37.9097 79.1324 38.0319 75.6323 38.8096C71.1323 39.8095 79.1323 47.8096 83.6323 46.8096C88.1323 45.8096 92.1319 38.8097 88.1319 38.3097Z" fill="black"/>
<ellipse cx="82.6328" cy="40.3096" rx="3" ry="1" fill="#D9D9D9"/>
<path d="M82.6953 44.1846C83.7786 45.6012 85.3395 51.8346 83.9395 53.4346" stroke="black" stroke-width="2" stroke-linecap="round"/>
<path d="M69.8965 56.1428L73.7746 53.2354L77.4901 55.0472C80.9745 54.8761 88.1939 54.4217 89.1966 53.9735C90.1993 53.5253 91.5255 52.209 92.0632 51.6069L95.3004 53.8628" stroke="black" stroke-width="2" stroke-linecap="round" stroke-linejoin="round"/>
<path d="M3.25195 16.6846V35.1846M7.62695 16.9346V26.9346M12.002 16.9346V30.4346" stroke="black" stroke-width="2" stroke-linecap="round" stroke-linejoin="round"/>
</svg>
