<svg width="138" height="70" viewBox="0 0 138 70" fill="none" xmlns="http://www.w3.org/2000/svg">
<path d="M53.3888 32.7334C52.7105 36.8377 47.9393 39.4673 42.7322 38.6067C37.525 37.7461 33.8537 33.7213 34.532 29.6169C34.6725 28.7665 34.9888 27.9793 35.4484 27.2734C36.3171 27.0538 51.0505 28.9086 53.0513 29.5107C53.44 30.5397 53.5705 31.6337 53.3888 32.7334Z" fill="black"/>
<path d="M93.5416 28.8209C94.1237 32.3431 98.1765 34.6065 102.594 33.8764C107.011 33.1464 110.12 29.6993 109.538 26.1771C109.421 25.4713 109.165 24.816 108.795 24.2252C106.136 24.0809 94.2595 26.8812 93.4765 27.7401C93.4609 28.0977 93.4817 28.4589 93.5416 28.8209Z" fill="black"/>
<ellipse cx="46.5053" cy="18.1733" rx="12.6406" ry="6.89486" transform="rotate(9.38454 46.5053 18.1733)" fill="#FED2AB"/>
<ellipse cx="97.24" cy="16.4722" rx="11" ry="6" transform="rotate(-18.3812 97.24 16.4722)" fill="#FED2AB"/>
<path d="M54.1396 29.4346L30.3896 26.4346M92.8896 28.4346L112.89 23.3096" stroke="black" stroke-width="2" stroke-linecap="round" stroke-linejoin="round"/>
<ellipse cx="77.9092" cy="49.3096" rx="24" ry="15" fill="#FED2AB"/>
<path d="M87.4093 38.3097C84.2093 37.9097 78.4097 38.0319 74.9097 38.8096C70.4097 39.8095 78.4097 47.8096 82.9097 46.8096C87.4097 45.8096 91.4093 38.8097 87.4093 38.3097Z" fill="black"/>
<ellipse cx="81.9092" cy="40.3096" rx="3" ry="1" fill="#D9D9D9"/>
<path d="M81.9717 44.1846C83.055 45.6012 84.7896 49.4283 83.3896 51.0283" stroke="black" stroke-width="2" stroke-linecap="round"/>
<path d="M88.4089 52.1532C85.6793 51.1685 79.342 49.8392 78.7774 53.609C78.2129 57.3788 78.9941 59.5556 79.0868 60.0216" stroke="black" stroke-width="2" stroke-linecap="round" stroke-linejoin="round"/>
</svg>
