<svg width="138" height="70" viewBox="0 0 138 70" fill="none" xmlns="http://www.w3.org/2000/svg">
<ellipse cx="45.9784" cy="34.3097" rx="11.9512" ry="15.3523" transform="rotate(9.38454 45.9784 34.3097)" fill="black"/>
<ellipse cx="46.7039" cy="34.214" rx="4.13265" ry="5.30871" transform="rotate(9.38454 46.7039 34.214)" fill="white"/>
<ellipse cx="10.1385" cy="13.0236" rx="10.1385" ry="13.0236" transform="matrix(-0.986616 0.16306 0.16306 0.986616 109.115 16.2141)" fill="black"/>
<ellipse cx="101.554" cy="31.314" rx="3.79148" ry="4.87045" transform="rotate(-8.16564 101.554 31.314)" fill="white"/>
<ellipse cx="46.7055" cy="18.0779" rx="12.6406" ry="6.89486" transform="rotate(9.38454 46.7055 18.0779)" fill="#FED2AB"/>
<ellipse cx="97.4402" cy="16.3768" rx="11" ry="6" transform="rotate(-18.3812 97.4402 16.3768)" fill="#FED2AB"/>
<ellipse cx="78.083" cy="49.3096" rx="24" ry="15" fill="#FED2AB"/>
<path d="M87.9542 37.9399C84.7542 37.5399 78.9546 37.662 75.4546 38.4397C70.9546 39.4396 78.9546 47.4397 83.4546 46.4397C87.9546 45.4397 91.9542 38.4399 87.9542 37.9399Z" fill="black"/>
<ellipse cx="82.4541" cy="39.9397" rx="3" ry="1" fill="#D9D9D9"/>
<path d="M95.0039 47.8923C89.7256 54.0389 72.1033 53.4333 67.9427 51.3297C68.2345 54.809 75.6423 62.4296 83.6923 61.3296C93.7548 59.9546 95.128 50.0173 95.0039 47.8923Z" fill="white"/>
<path d="M67.9427 51.3297L68.3939 50.4373C68.0706 50.2738 67.6841 50.298 67.3837 50.5006C67.0833 50.7031 66.9159 51.0523 66.9462 51.4133L67.9427 51.3297ZM95.0039 47.8923L96.0022 47.8341C95.9784 47.4271 95.71 47.0753 95.3238 46.9449C94.9376 46.8145 94.5108 46.9316 94.2453 47.2408L95.0039 47.8923ZM94.9918 44.4757C94.8997 43.9311 94.3836 43.5643 93.8391 43.6563C93.2945 43.7483 92.9277 44.2644 93.0197 44.809L94.9918 44.4757ZM99.6582 49.5059C100.204 49.4224 100.579 48.9121 100.495 48.3662C100.412 47.8203 99.9015 47.4454 99.3556 47.529L99.6582 49.5059ZM83.6923 61.3296L83.8277 62.3204L83.6923 61.3296ZM67.4915 52.2221C68.7004 52.8334 70.7331 53.2795 73.0741 53.5384C75.4522 53.8014 78.2679 53.8834 81.1174 53.7028C83.9636 53.5225 86.8758 53.0781 89.4343 52.2721C91.9762 51.4714 94.2695 50.2824 95.7626 48.5438L94.2453 47.2408C93.0991 48.5755 91.2103 49.6158 88.8334 50.3645C86.4733 51.108 83.7302 51.5332 80.9909 51.7068C78.2549 51.8802 75.5551 51.8006 73.2939 51.5505C70.9956 51.2963 69.2653 50.8779 68.3939 50.4373L67.4915 52.2221ZM93.0197 44.809C93.175 45.7274 93.4756 47.1356 94.4813 48.1991C95.5527 49.332 97.2195 49.8791 99.6582 49.5059L99.3556 47.529C97.3597 47.8344 96.4286 47.3474 95.9345 46.8249C95.3746 46.2329 95.1419 45.3642 94.9918 44.4757L93.0197 44.809ZM66.9462 51.4133C67.0417 52.552 67.6835 53.8597 68.5854 55.1021C69.5081 56.3732 70.7832 57.6865 72.3027 58.8427C75.3265 61.1435 79.4525 62.9183 83.8277 62.3204L83.5569 60.3388C79.8822 60.841 76.2793 59.3554 73.5137 57.2511C72.1385 56.2046 71.0039 55.0292 70.2039 53.9272C69.3832 52.7967 68.9896 51.8471 68.9392 51.2461L66.9462 51.4133ZM83.8277 62.3204C89.2308 61.5821 92.3388 58.5169 94.047 55.3692C95.7268 52.2737 96.0744 49.0711 96.0022 47.8341L94.0056 47.9506C94.0574 48.8385 93.7805 51.667 92.2892 54.4152C90.8262 57.1111 88.2164 59.7021 83.5569 60.3388L83.8277 62.3204Z" fill="black"/>
<path d="M74.2549 55.7673C77.8799 56.9548 86.0924 58.3173 89.9424 54.2673" stroke="black" stroke-width="2" stroke-linecap="round" stroke-linejoin="round"/>
<path d="M78.1299 54.3923L78.0049 60.1423M83.0049 53.3923L83.5049 61.2048M87.3799 52.0173L89.1924 59.3923" stroke="black" stroke-width="2" stroke-linecap="round" stroke-linejoin="round"/>
<path d="M68.9951 48.1917C68.6897 49.9987 67.9285 52.7454 63.494 52.0668" stroke="black" stroke-width="2" stroke-linecap="round"/>
</svg>
