<svg width="139" height="71" viewBox="0 0 139 71" fill="none" xmlns="http://www.w3.org/2000/svg">
<ellipse cx="45.8924" cy="34.4515" rx="11.9512" ry="15.3523" transform="rotate(9.38454 45.8924 34.4515)" fill="black"/>
<ellipse cx="46.6196" cy="18.2197" rx="12.6406" ry="6.89486" transform="rotate(9.38454 46.6196 18.2197)" fill="#FED2AB"/>
<ellipse cx="97.3552" cy="16.5186" rx="11" ry="6" transform="rotate(-18.3812 97.3552 16.5186)" fill="#FED2AB"/>
<path d="M108.939 27.0424C106.606 27.2924 99.2191 30.608 97.6191 34.808C101.731 32.5755 106.319 31.6269 110.623 33.4046" stroke="black" stroke-width="2" stroke-linecap="round" stroke-linejoin="round"/>
<path d="M45.6734 28.1722C45.7697 27.6201 46.5623 27.6201 46.6586 28.1722L46.7665 28.791C47.2012 31.284 49.1535 33.2363 51.6465 33.671L52.2653 33.7789C52.8174 33.8752 52.8174 34.6678 52.2653 34.7641L51.6465 34.872C49.1535 35.3067 47.2012 37.2589 46.7665 39.752L46.6586 40.3708C46.5623 40.9229 45.7697 40.9229 45.6734 40.3708L45.5655 39.752C45.1308 37.2589 43.1786 35.3067 40.6855 34.872L40.0667 34.7641C39.5146 34.6678 39.5146 33.8752 40.0667 33.7789L40.6855 33.671C43.1786 33.2363 45.1308 31.284 45.5655 28.791L45.6734 28.1722Z" fill="white"/>
<ellipse cx="77.998" cy="49.356" rx="24" ry="15" fill="#FED2AB"/>
<path d="M86.5216 37.3566C83.3216 36.9566 77.522 37.0788 74.022 37.8565C69.522 38.8564 77.522 46.8564 82.022 45.8564C86.522 44.8564 90.5216 37.8566 86.5216 37.3566Z" fill="black"/>
<ellipse cx="81.0225" cy="39.3564" rx="3" ry="1" fill="#D9D9D9"/>
<path d="M91.794 50.8135C91.6185 50.5881 91.3549 50.4486 91.0699 50.4301C90.7848 50.4116 90.5054 50.5159 90.3022 50.7166C90.1871 50.8304 89.8981 51.0132 89.3972 51.1972C88.9202 51.3724 88.3333 51.5188 87.7081 51.61C86.4104 51.7993 85.1704 51.7201 84.4587 51.3809C84.1691 51.2428 83.8308 51.2521 83.5492 51.4058C83.1136 51.6437 82.4838 51.8193 81.7162 51.9236C80.961 52.0261 80.1356 52.0514 79.3517 52.0283C78.569 52.0053 77.8488 51.9348 77.3104 51.8536C77.0398 51.8128 76.8283 51.7712 76.6844 51.7354C76.6361 51.7234 76.6017 51.7136 76.5792 51.7066C76.24 51.514 75.8132 51.5346 75.4917 51.7721C74.7382 52.3286 74.3265 53.3258 74.2147 54.3134C74.0983 55.3425 74.2803 56.5359 74.9068 57.6503C76.1976 59.9463 79.1701 61.6129 84.4236 61.2979L84.4429 61.2966C88.8943 60.9435 91.2864 59.0025 92.2536 56.6654C92.7213 55.5356 92.8275 54.373 92.7182 53.3641C92.6111 52.3749 92.2863 51.4455 91.794 50.8135ZM76.5537 51.6981C76.5366 51.6919 76.5391 51.6916 76.555 51.6986C76.5546 51.6984 76.5542 51.6983 76.5537 51.6981Z" fill="#BE3737" stroke="black" stroke-width="2" stroke-linejoin="round"/>
<path d="M91.5581 55.5032C91.2634 57.8001 88.9902 59.9803 84.3336 60.2998C78.9373 60.7007 76.114 58.6781 75.4373 56.337C74.4945 54.3553 91.0279 53.5198 91.5581 55.5032Z" fill="#DB6060"/>
<path d="M81.9183 45.3564C82.3662 45.8107 84.4912 48.5704 83.4287 50.3748M83.4287 50.3748C80.4912 52.8692 72.8662 50.8525 71.9287 49.048M83.4287 50.3748C85.7412 51.9139 91.3037 50.4279 91.7412 47.7212" stroke="black" stroke-width="2" stroke-linecap="round"/>
</svg>
