<svg width="139" height="71" viewBox="0 0 139 71" fill="none" xmlns="http://www.w3.org/2000/svg">
<ellipse cx="46.4461" cy="34.4515" rx="11.9512" ry="15.3523" transform="rotate(9.38454 46.4461 34.4515)" fill="black"/>
<ellipse cx="50.1126" cy="32.7795" rx="3.79148" ry="4.87045" transform="rotate(9.38454 50.1126 32.7795)" fill="white"/>
<ellipse cx="10.1385" cy="13.0236" rx="10.1385" ry="13.0236" transform="matrix(-0.986616 0.16306 0.16306 0.986616 109.583 16.356)" fill="black"/>
<ellipse cx="102.022" cy="31.4559" rx="3.79148" ry="4.87045" transform="rotate(-8.16564 102.022 31.4559)" fill="white"/>
<ellipse cx="47.1733" cy="18.2197" rx="12.6406" ry="6.89486" transform="rotate(9.38454 47.1733 18.2197)" fill="var(--eyebrow-color)"/>
<ellipse cx="97.908" cy="16.5186" rx="11" ry="6" transform="rotate(-18.3812 97.908 16.5186)" fill="var(--eyebrow-color)"/>
<ellipse cx="78.5771" cy="49.356" rx="24" ry="15" fill="currentColor"/>
<path d="M88.0773 38.3561C84.8773 37.9561 79.0777 38.0783 75.5776 38.856C71.0776 39.8559 79.0776 47.856 83.5776 46.856C88.0776 45.856 92.0773 38.8561 88.0773 38.3561Z" fill="black"/>
<ellipse cx="82.5771" cy="40.356" rx="3" ry="1" fill="#D9D9D9"/>
<path d="M75.1497 55.8986C79.3104 58.0022 86.1638 58.6407 91.4421 52.4942M89.4081 48.9941C89.7135 50.8011 91.433 54.2455 95.8675 53.5669" stroke="black" stroke-width="2" stroke-linecap="round"/>
</svg>
