<svg width="139" height="71" viewBox="0 0 139 71" fill="none" xmlns="http://www.w3.org/2000/svg">
<ellipse cx="49.1825" cy="32.3815" rx="11.9512" ry="15.3523" transform="rotate(9.38454 49.1825 32.3815)" fill="black"/>
<ellipse cx="55.8489" cy="30.7094" rx="3.79148" ry="4.87045" transform="rotate(9.38454 55.8489 30.7094)" fill="white"/>
<ellipse cx="10.1385" cy="13.0236" rx="10.1385" ry="13.0236" transform="matrix(-0.986616 0.16306 0.16306 0.986616 102.323 14.2861)" fill="black"/>
<ellipse cx="89.7622" cy="28.3861" rx="3.79148" ry="4.87045" transform="rotate(-8.16564 89.7622 28.3861)" fill="white"/>
<ellipse cx="49.9096" cy="17.4438" rx="12.6406" ry="6.89486" transform="rotate(9.38454 49.9096 17.4438)" fill="var(--eyebrow-color)"/>
<ellipse cx="90.6482" cy="15.743" rx="11" ry="6" transform="rotate(-18.3812 90.6482 15.743)" fill="var(--eyebrow-color)"/>
<ellipse cx="78.0518" cy="49.2852" rx="24" ry="15" fill="currentColor"/>
<path d="M87.8175 38.286C84.6175 37.886 78.8179 38.0082 75.3179 38.7859C70.8179 39.7858 78.8179 47.7859 83.3179 46.7859C87.8179 45.7859 91.8175 38.786 87.8175 38.286Z" fill="black"/>
<ellipse cx="82.3174" cy="40.2859" rx="3" ry="1" fill="#D9D9D9"/>
<path d="M88.8838 57.9219C88.8838 60.8044 88.1071 63.3685 86.904 65.1826C85.696 67.0041 84.1384 67.9717 82.5557 67.9717C80.9729 67.9717 79.4153 67.0041 78.2073 65.1826C77.0042 63.3685 76.2275 60.8044 76.2275 57.9219C76.2275 55.0394 77.0042 52.4753 78.2073 50.6612C79.4153 48.8396 80.9729 47.8721 82.5557 47.8721C84.1384 47.8721 85.696 48.8396 86.904 50.6612C88.1071 52.4753 88.8838 55.0394 88.8838 57.9219Z" fill="#DB6060" stroke="black" stroke-width="2"/>
</svg>
