<svg width="139" height="71" viewBox="0 0 139 71" fill="none" xmlns="http://www.w3.org/2000/svg">
<path d="M57.8086 30.8774L26.5586 24.3774C27.5586 26.6274 31.6086 33.7774 40.8086 39.3774C50.0086 44.9774 56.5586 35.6274 57.8086 30.8774Z" fill="black"/>
<path d="M26.5586 24.3774L26.7622 23.3984C26.395 23.322 26.0158 23.4576 25.7803 23.7496C25.5447 24.0415 25.4924 24.4408 25.6448 24.7836L26.5586 24.3774ZM57.8086 30.8774L58.7757 31.1319C58.8455 30.8667 58.8033 30.5844 58.6589 30.3512C58.5146 30.118 58.2808 29.9543 58.0122 29.8984L57.8086 30.8774ZM40.8086 39.3774L40.2886 40.2316L40.8086 39.3774ZM26.355 25.3565L57.605 31.8565L58.0122 29.8984L26.7622 23.3984L26.355 25.3565ZM56.8415 30.6229C56.2661 32.8096 54.4295 36.1321 51.6858 38.2117C50.33 39.2394 48.7854 39.9394 47.0859 40.0834C45.3954 40.2266 43.4703 39.8269 41.3285 38.5232L40.2886 40.2316C42.7469 41.7279 45.0905 42.2596 47.2547 42.0762C49.4099 41.8936 51.306 41.0092 52.8939 39.8056C56.0377 37.4228 58.1011 33.6953 58.7757 31.1319L56.8415 30.6229ZM41.3285 38.5232C32.3371 33.0502 28.408 26.0763 27.4724 23.9713L25.6448 24.7836C26.7092 27.1785 30.8801 34.5047 40.2886 40.2316L41.3285 38.5232Z" fill="black"/>
<path d="M87.1614 28.6554L113.891 22.6099C113.035 24.7026 109.571 31.3527 101.702 36.5611C93.833 41.7696 88.2306 33.0733 87.1614 28.6554Z" fill="black"/>
<path d="M113.891 22.6099L113.67 21.6345C114.034 21.5523 114.413 21.6791 114.654 21.9636C114.895 22.2482 114.957 22.6431 114.816 22.9882L113.891 22.6099ZM87.1614 28.6554L86.1895 28.8906C86.1265 28.6303 86.1705 28.3556 86.3117 28.1281C86.453 27.9005 86.6796 27.7391 86.9408 27.6801L87.1614 28.6554ZM101.702 36.5611L102.254 37.395L101.702 36.5611ZM114.111 23.5852L87.382 29.6308L86.9408 27.6801L113.67 21.6345L114.111 23.5852ZM88.1333 28.4202C88.6263 30.457 90.1951 33.5321 92.5178 35.4465C93.6636 36.3909 94.9515 37.0196 96.3524 37.1487C97.7413 37.2766 99.3432 36.9233 101.15 35.7273L102.254 37.395C100.126 38.8032 98.0772 39.316 96.169 39.1402C94.2729 38.9656 92.6178 38.1207 91.2458 36.9898C88.5327 34.7537 86.7657 31.2717 86.1895 28.8906L88.1333 28.4202ZM101.15 35.7273C108.811 30.6566 112.165 24.1894 112.965 22.2315L114.816 22.9882C113.906 25.2157 110.331 32.0487 102.254 37.395L101.15 35.7273Z" fill="black"/>
<ellipse cx="46.7582" cy="18.1482" rx="12.6406" ry="6.89486" transform="rotate(9.38454 46.7582 18.1482)" fill="#FED2AB"/>
<ellipse cx="97.4929" cy="16.4471" rx="11" ry="6" transform="rotate(-18.3812 97.4929 16.4471)" fill="#FED2AB"/>
<ellipse cx="78.2188" cy="49.2852" rx="24" ry="15" fill="#FED2AB"/>
<path d="M87.6612 38.2846C84.4612 37.8846 78.6617 38.0068 75.1616 38.7845C70.6616 39.7844 78.6616 47.7844 83.1616 46.7844C87.6616 45.7844 91.6612 38.7846 87.6612 38.2846Z" fill="black"/>
<ellipse cx="82.1621" cy="40.2844" rx="3" ry="1" fill="#D9D9D9"/>
<path d="M90.1422 50.1944C84.8638 56.3409 81.6406 57.4443 73.1407 56.4443C80.3906 62.6943 88.3768 60.6196 91.891 58.3194C98.7661 53.8193 92.7664 47.8193 90.1422 50.1944Z" fill="#DB6060" stroke="black" stroke-width="2" stroke-linecap="round" stroke-linejoin="round"/>
<path d="M83.6406 45.6943C83.974 47.361 85.7656 50.5693 83.8906 54.9443" stroke="black" stroke-width="2" stroke-linecap="round" stroke-linejoin="round"/>
</svg>
