<svg width="139" height="71" viewBox="0 0 139 71" fill="none" xmlns="http://www.w3.org/2000/svg">
<path d="M50.2717 41.8417L50.2724 41.8408C52.5905 38.8234 54.2524 36.1027 55.1971 33.6765C56.1409 31.2525 56.4025 29.0327 55.7813 27.0867C55.0445 24.7784 53.6936 22.9138 51.9121 21.8043C50.1146 20.6847 47.9422 20.3767 45.6981 21.093C44.2175 21.5656 43.2944 22.379 42.4139 23.6328C40.9696 23.1207 39.7459 22.9929 38.2653 23.4654C36.0212 24.1817 34.429 25.6914 33.6125 27.6454C32.8034 29.5818 32.7825 31.8843 33.5193 34.1926C34.1404 36.1386 35.6397 37.7963 37.8134 39.2253C39.989 40.6555 42.9198 41.9102 46.5574 43.0266L46.5584 43.0269C47.2245 43.2306 47.9368 43.2262 48.6003 43.0144C49.2638 42.8026 49.8469 42.3935 50.2717 41.8417Z" fill="#DF5050" stroke="black" stroke-width="2"/>
<circle cx="38.744" cy="31.7107" r="1.46684" transform="rotate(-5.53272 38.744 31.7107)" fill="white"/>
<path d="M40.8379 34.4421C42.323 35.7269 43.936 36.9282 47.2988 38.4594" stroke="white" stroke-width="2" stroke-linecap="round"/>
<path d="M100.268 38.2613L100.267 38.2606C97.7028 36.1183 95.7518 34.0997 94.4712 32.1912C93.1919 30.2845 92.5292 28.4074 92.6923 26.5858C92.8838 24.4467 93.6931 22.5644 95.0296 21.2509C96.3797 19.924 98.2151 19.2332 100.307 19.4206C101.667 19.5423 102.623 20.0569 103.604 20.935C104.726 20.245 105.759 19.9087 107.119 20.0304C109.211 20.2177 110.894 21.2236 111.987 22.7691C113.069 24.2992 113.531 26.2954 113.339 28.4344C113.176 30.256 112.191 31.9856 110.593 33.6347C108.994 35.2854 106.715 36.9252 103.811 38.578L103.81 38.5785C103.258 38.8923 102.623 39.0301 101.989 38.9734C101.356 38.9168 100.756 38.6683 100.268 38.2613Z" fill="#DF5050" stroke="black" stroke-width="2"/>
<circle cx="1.28569" cy="1.28569" r="1.28569" transform="matrix(-0.992431 0.1228 0.1228 0.992431 109.873 25.6794)" fill="white"/>
<path d="M107.482 29.8503C106.457 31.2331 105.307 32.5688 102.723 34.521" stroke="white" stroke-width="2" stroke-linecap="round"/>
<ellipse cx="47.1098" cy="11.1504" rx="12.6406" ry="6.89486" transform="rotate(9.38454 47.1098 11.1504)" fill="var(--eyebrow-color)"/>
<ellipse cx="97.8455" cy="9.44929" rx="11" ry="6" transform="rotate(-18.3812 97.8455 9.44929)" fill="var(--eyebrow-color)"/>
<ellipse cx="78.4912" cy="49.2852" rx="24" ry="15" fill="currentColor"/>
<path d="M87.0148 37.2858C83.8148 36.8858 78.0152 37.008 74.5151 37.7857C70.0151 38.7856 78.0151 46.7856 82.5151 45.7856C87.0151 44.7856 91.0148 37.7858 87.0148 37.2858Z" fill="black"/>
<ellipse cx="81.5156" cy="39.2856" rx="3" ry="1" fill="#D9D9D9"/>
<path d="M92.2872 50.7427C92.1116 50.5173 91.8481 50.3778 91.563 50.3593C91.278 50.3408 90.9986 50.4451 90.7954 50.6458C90.6802 50.7596 90.3913 50.9424 89.8904 51.1264C89.4134 51.3016 88.8265 51.448 88.2013 51.5392C86.9036 51.7285 85.6636 51.6493 84.9519 51.3101C84.6622 51.172 84.324 51.1813 84.0423 51.335C83.6068 51.5729 82.9769 51.7485 82.2093 51.8528C81.4542 51.9553 80.6288 51.9806 79.8448 51.9575C79.0621 51.9345 78.3419 51.864 77.8035 51.7828C77.533 51.742 77.3215 51.7004 77.1776 51.6646C77.1293 51.6526 77.0949 51.6428 77.0724 51.6358C76.7332 51.4432 76.3063 51.4638 75.9849 51.7013C75.2313 52.2578 74.8197 53.255 74.7079 54.2426C74.5914 55.2717 74.7735 56.4651 75.4 57.5795C76.6907 59.8755 79.6632 61.5421 84.9168 61.2271L84.936 61.2258C89.3875 60.8727 91.7796 58.9317 92.7468 56.5946C93.2144 55.4647 93.3206 54.3022 93.2114 53.2933C93.1043 52.3041 92.7794 51.3747 92.2872 50.7427ZM77.0469 51.6273C77.0297 51.6211 77.0323 51.6208 77.0482 51.6278C77.0477 51.6276 77.0473 51.6275 77.0469 51.6273Z" fill="#BE3737" stroke="black" stroke-width="2" stroke-linejoin="round"/>
<path d="M92.0513 55.4324C91.7565 57.7293 89.4833 59.9095 84.8267 60.229C79.4304 60.6299 76.6072 58.6073 75.9304 56.2662C74.9877 54.2845 91.5211 53.449 92.0513 55.4324Z" fill="#DB6060"/>
<path d="M82.4114 45.2856C82.8594 45.7399 84.9844 48.4996 83.9219 50.304M83.9219 50.304C80.9844 52.7984 73.3594 50.7817 72.4219 48.9772M83.9219 50.304C86.2344 51.8431 91.7969 50.3571 92.2344 47.6504" stroke="black" stroke-width="2" stroke-linecap="round"/>
</svg>
