<svg width="139" height="71" viewBox="0 0 139 71" fill="none" xmlns="http://www.w3.org/2000/svg">
<path d="M45.6748 30.8411C45.0162 32.2471 41.6498 33.5536 40.5498 30.4036C39.1748 26.4661 44.3598 24.8413 47.1723 26.6538C49.5872 28.21 52.0113 34.2671 44.3968 37.0601C37.5809 39.5602 32.0582 29.5589 37.7068 23.6852C42.3946 18.8106 49.4024 21.3448 51.7061 24.9348C55.5161 30.8723 54.4585 39.2477 43.146 40.8102" stroke="black" stroke-width="2" stroke-linecap="round" stroke-linejoin="round"/>
<path d="M103.189 25.8841C104.639 25.6532 107.437 27.5874 105.544 30.1141C103.177 33.2725 99.1722 30.0881 99.114 26.9338C99.0639 24.2255 102.542 19.1258 108.743 23.5869C114.294 27.5801 109.352 37.1864 101.768 35.8909C95.4736 34.8157 93.773 28.0062 95.3777 24.3073C98.0318 18.1898 105.162 14.5785 112.345 22.5763" stroke="black" stroke-width="2" stroke-linecap="round" stroke-linejoin="round"/>
<ellipse cx="47.3784" cy="11.1526" rx="12.6406" ry="6.89486" transform="rotate(9.38454 47.3784 11.1526)" fill="#FED2AB"/>
<ellipse cx="98.114" cy="9.45149" rx="11" ry="6" transform="rotate(-18.3812 98.114 9.45149)" fill="#FED2AB"/>
<ellipse cx="78.5742" cy="49.2874" rx="24" ry="15" fill="#FED2AB"/>
<path d="M88.0743 38.2875C84.8743 37.8875 79.0748 38.0097 75.5747 38.7874C71.0747 39.7873 79.0747 47.7874 83.5747 46.7874C88.0747 45.7874 92.0743 38.7875 88.0743 38.2875Z" fill="black"/>
<ellipse cx="82.5742" cy="40.2874" rx="3" ry="1" fill="#D9D9D9"/>
<path d="M83.4707 46.2874C84.7461 47.0687 86.7461 50.0744 84.3711 54.2607" stroke="black" stroke-width="2" stroke-linecap="round"/>
<path d="M70.8184 56.0063L74.7621 53.1886L78.4351 55.0851C81.9225 54.9939 89.1505 54.7051 90.1632 54.28C91.1758 53.8549 92.5319 52.5694 93.0833 51.9798L96.2679 54.3093" stroke="black" stroke-width="2" stroke-linecap="round" stroke-linejoin="round"/>
</svg>
