<svg width="139" height="70" viewBox="0 0 139 70" fill="none" xmlns="http://www.w3.org/2000/svg">
<ellipse cx="46.7846" cy="18.1733" rx="12.6406" ry="6.89486" transform="rotate(9.38454 46.7846 18.1733)" fill="var(--eyebrow-color)"/>
<ellipse cx="97.5193" cy="16.4722" rx="11" ry="6" transform="rotate(-18.3812 97.5193 16.4722)" fill="var(--eyebrow-color)"/>
<path d="M57.7653 36.1865C56.3827 44.5519 49.9828 50.4609 43.4707 49.3846C36.9585 48.3083 32.8002 40.6544 34.1828 32.289C34.4692 30.5556 34.9712 28.9276 35.6449 27.4454C36.7774 26.8924 55.2766 28.7673 57.7445 29.7283C58.1084 31.7548 58.1357 33.9451 57.7653 36.1865Z" fill="black"/>
<ellipse cx="51.4964" cy="35.4062" rx="3.79148" ry="4.87045" transform="rotate(16.235 51.4964 35.4062)" fill="white"/>
<path d="M91.2295 32.2979C92.4024 39.3944 97.8315 44.4071 103.356 43.4941C108.88 42.581 112.408 36.0881 111.235 28.9916C111 27.5694 110.594 26.2308 110.051 25.007C106.653 24.3923 91.9035 28.5174 91.0139 30.1342C91.0381 30.8454 91.109 31.5685 91.2295 32.2979Z" fill="black"/>
<ellipse cx="98.1058" cy="33.9666" rx="3.79148" ry="4.87045" transform="rotate(-17.6727 98.1058 33.9666)" fill="white"/>
<ellipse cx="78.1885" cy="49.3096" rx="24" ry="15" fill="currentColor"/>
<path d="M87.6056 38.1425C84.4056 37.7425 78.606 37.8647 75.1059 38.6424C70.6059 39.6423 78.606 47.6423 83.106 46.6423C87.606 45.6423 91.6056 38.6425 87.6056 38.1425Z" fill="black"/>
<ellipse cx="82.1064" cy="40.1423" rx="3" ry="1" fill="#D9D9D9"/>
<mask id="path-10-outside-1_1498_1846" maskUnits="userSpaceOnUse" x="68.1006" y="48.5173" width="29" height="15" fill="black">
<rect fill="white" x="68.1006" y="48.5173" width="29" height="15"/>
<path d="M90.0498 50.9536C89.1123 49.8912 73.5477 50.8909 72.4873 52.641C71.427 54.391 69.7333 57.7659 70.1715 60.0159C70.6096 62.2659 93.0485 61.3911 94.1123 57.2036C93.7783 55.3923 90.9873 52.0159 90.0498 50.9536Z"/>
</mask>
<path d="M90.0498 50.9536C89.1123 49.8912 73.5477 50.8909 72.4873 52.641C71.427 54.391 69.7333 57.7659 70.1715 60.0159C70.6096 62.2659 93.0485 61.3911 94.1123 57.2036C93.7783 55.3923 90.9873 52.0159 90.0498 50.9536Z" fill="#C33B3B"/>
<path d="M72.4873 52.641L70.7768 51.6046L70.7768 51.6046L72.4873 52.641ZM90.0498 50.9536L88.5502 52.2769L90.0498 50.9536ZM94.1123 57.2036L96.0507 57.6961C96.1218 57.4164 96.1315 57.1247 96.0791 56.841L94.1123 57.2036ZM70.1715 60.0159L72.1346 59.6337L70.1715 60.0159ZM74.1978 53.6774C74.0177 53.9746 73.8186 54.0724 73.8759 54.0382C73.9011 54.0231 73.9957 53.9733 74.1927 53.9015C74.5843 53.7588 75.1707 53.6038 75.9376 53.4511C77.4576 53.1484 79.4489 52.9005 81.4763 52.7361C83.5003 52.5719 85.4988 52.4958 87.024 52.5226C87.7936 52.5362 88.3934 52.5753 88.7979 52.6308C89.0045 52.6591 89.1034 52.6842 89.1257 52.6911C89.243 52.7269 88.8851 52.6564 88.5502 52.2769L91.5494 49.6302C91.0973 49.1179 90.508 48.9308 90.2937 48.8654C89.9846 48.771 89.6519 48.7104 89.3411 48.6678C88.7108 48.5814 87.9326 48.538 87.0945 48.5233C85.4046 48.4935 83.2699 48.5775 81.1529 48.7492C79.0395 48.9206 76.8822 49.1844 75.1563 49.5281C74.3003 49.6986 73.4894 49.9005 72.8231 50.1433C72.4912 50.2643 72.1418 50.4144 71.8221 50.6057C71.5344 50.7778 71.0894 51.0886 70.7768 51.6046L74.1978 53.6774ZM88.5502 52.2769C88.9881 52.773 89.8732 53.827 90.6781 54.9577C91.0807 55.5232 91.443 56.0797 91.716 56.576C92.0072 57.1055 92.1207 57.4318 92.1455 57.5663L96.0791 56.841C95.937 56.0698 95.5763 55.2948 95.221 54.6486C94.8474 53.9692 94.3907 53.2756 93.9366 52.6378C93.0282 51.3618 92.049 50.1964 91.5494 49.6302L88.5502 52.2769ZM92.1739 56.7112C92.2417 56.4442 92.3571 56.5578 91.7839 56.8941C91.2767 57.1917 90.4945 57.505 89.4428 57.8008C87.3558 58.3878 84.5792 58.8051 81.7488 59.0301C78.9257 59.2546 76.1545 59.2795 74.1019 59.1206C73.0615 59.04 72.2936 58.9184 71.8192 58.7862C71.5735 58.7178 71.5112 58.6745 71.5494 58.6981C71.5739 58.7131 71.6747 58.7774 71.7906 58.912C71.913 59.054 72.0687 59.295 72.1346 59.6337L68.2083 60.3982C68.3942 61.3529 69.0809 61.8755 69.4523 62.1042C69.8678 62.3601 70.3336 62.5247 70.7455 62.6394C71.5863 62.8737 72.6516 63.0202 73.7931 63.1086C76.1042 63.2876 79.0914 63.254 82.0658 63.0175C85.0328 62.7817 88.0928 62.3357 90.5259 61.6513C91.7343 61.3114 92.8831 60.8869 93.8084 60.344C94.6677 59.8397 95.717 59.0099 96.0507 57.6961L92.1739 56.7112ZM72.1346 59.6337C72.0253 59.0726 72.1702 58.103 72.6414 56.8399C73.0853 55.6497 73.7089 54.4843 74.1978 53.6774L70.7768 51.6046C70.2054 52.5477 69.452 53.9448 68.8936 55.442C68.3623 56.8664 67.8795 58.7093 68.2083 60.3982L72.1346 59.6337Z" fill="black" mask="url(#path-10-outside-1_1498_1846)"/>
<path d="M90.0344 50.9535C89.0969 49.8912 73.5323 50.8909 72.4719 52.6409C72.0933 53.2658 71.6339 54.0979 71.2197 55.0119C74.1221 54.7048 87.4971 52.9861 91.6236 52.894C90.9855 52.0607 90.3823 51.3478 90.0344 50.9535Z" fill="white"/>
<path d="M83.9502 60.815C91.7158 59.9386 93.8174 58.4236 94.1064 57.1579C94.0283 56.783 93.8643 56.4157 93.7158 56.1032C90.305 54.8407 76.8027 57.2012 70.2079 58.1941C70.1159 58.7392 69.8936 59.661 70.2272 60.1993C70.7372 60.7779 74.4714 61.8849 83.9502 60.815Z" fill="white"/>
</svg>
