<svg width="1646" height="267" viewBox="0 0 1646 267" fill="none" xmlns="http://www.w3.org/2000/svg">
  <path d="M1669.52 47H0.220703V189.809H1669.52V47Z" fill="none"/>
  <path d="M1669.52 148.182H0.220703V281.735H1669.52V148.182Z" fill="none"/>
  <path d="M1669.52 35.9854H0.220703V59.4387H1669.52V35.9854Z" fill="none"/>
  <path d="M1669.52 59.4443H0.220703V67.5526H1669.52V59.4443Z" fill="none"/>
  <path d="M1669.52 163.035H0.220703V173.322H1669.52V163.035Z" fill="none"/>
  <path d="M183.963 266.584C183.963 202.169 237.576 149.945 303.713 149.945C369.85 149.945 423.458 202.169 423.458 266.584H183.963Z" fill="#34541C"/>
  <path d="M414.754 266.584C414.754 237.056 439.328 213.12 469.643 213.12C499.959 213.12 524.533 237.056 524.533 266.584H414.754Z" fill="#34541C"/>
  <path d="M493.977 266.584C493.977 226.53 527.313 194.056 568.435 194.056C609.558 194.056 642.9 226.53 642.9 266.584H493.977Z" fill="#34541C"/>
  <path d="M64.1523 266.584C64.1523 222.961 100.459 187.592 145.249 187.592C190.039 187.592 226.346 222.961 226.346 266.584H64.1523Z" fill="#34541C"/>
  <path d="M187.131 266.583C187.131 204.928 240.293 154.945 305.85 154.945C371.408 154.945 424.569 204.928 424.569 266.583H187.131Z" fill="#213510"/>
  <path d="M415.963 266.583C415.963 238.321 440.331 215.412 470.39 215.412C500.449 215.412 524.817 238.321 524.817 266.583H415.963Z" fill="#213510"/>
  <path d="M494.518 266.584C494.518 228.247 527.569 197.168 568.346 197.168C609.123 197.168 642.181 228.247 642.181 266.584H494.518Z" fill="#213510"/>
  <path d="M66.043 266.584C66.043 225.052 101.854 191.363 146.025 191.363C190.196 191.363 226.007 225.031 226.007 266.584H66.043Z" fill="#213510"/>
  <path d="M520.893 138.356C520.424 140.234 516.512 149.92 514.254 148.016C511.707 145.878 514.466 137.07 515.369 133.132C515.782 131.384 518.713 120.781 520.213 121.761C523.033 123.582 522.024 133.817 520.893 138.356Z" fill="#556E21"/>
  <path d="M508.691 172.72C504.929 173.903 499.489 176.87 498.179 180.766C496.753 184.978 504.149 184.278 506.217 183.878C510.319 183.038 515.397 179.687 516.205 175.334C517.035 170.852 511.01 171.988 508.691 172.72Z" fill="#556E21"/>
  <path d="M517.966 133.854C512.705 156.679 498.587 174.748 475.991 187.644C459.866 196.852 441.763 203.103 424.262 209.147C421.605 210.063 418.954 210.983 416.308 211.907C397.497 218.49 376.178 225.955 358.576 238.639C348.191 246.04 339.824 255.614 334.152 266.584H335.451C341.039 255.962 349.2 246.69 359.29 239.5C376.752 226.914 397.982 219.481 416.698 212.923C419.34 212 421.99 211.082 424.646 210.169C442.204 204.104 460.357 197.833 476.582 188.573C499.434 175.515 513.758 157.182 519.081 134.103L517.966 133.854Z" fill="#556E21"/>
  <path d="M504.762 149.572C504.595 153.458 502.962 160.114 498.587 161.737C494.329 163.294 494.958 155.689 495.192 153.956C495.716 150.086 497.506 143.41 501.034 141.469C504.461 139.591 504.84 147.85 504.762 149.572Z" fill="#556E21"/>
  <path d="M495.51 173.85L496.624 174.115C498.567 166.918 500.023 159.615 500.983 152.249L499.824 152.119C498.875 159.44 497.435 166.698 495.51 173.85Z" fill="#556E21"/>
  <path d="M475.712 178.327C474.291 182.026 469.932 186.109 465.234 186.404C460.675 186.716 461.037 181.792 462.503 179.256C464.515 175.785 468.366 171.708 472.848 171.049C477.685 170.333 476.548 176.154 475.712 178.327Z" fill="#556E21"/>
  <path d="M460.569 196.385C464.164 190.456 467.257 184.905 470.044 179.406L468.985 178.944C466.198 184.417 463.133 189.947 459.549 195.851L460.569 196.385Z" fill="#556E21"/>
  <path d="M418.527 202.605C415.846 206.075 410.874 209.011 406.142 208.876C401.683 208.747 401.154 204.431 403.3 201.614C405.992 198.086 411.103 195.337 415.824 195.472C420.255 195.612 420.651 199.84 418.527 202.605Z" fill="#556E21"/>
  <path d="M401.07 218.485C404.196 213.552 407.691 208.411 411.76 202.756L410.79 202.154C406.71 207.824 403.199 212.986 400.066 217.935L401.07 218.485Z" fill="#556E21"/>
  <path d="M359.948 226.178C358.493 229.861 355.004 234.743 350.472 235.204C345.79 235.682 345.456 229.602 346.303 226.691C347.535 222.629 351.319 218.178 356.208 218.064C360.94 217.95 361.146 223.138 359.948 226.178Z" fill="#556E21"/>
  <path d="M347.82 247.79L348.974 247.95C350.088 240.825 351.765 233.785 353.99 226.889L352.876 226.572C350.635 233.52 348.946 240.612 347.82 247.79Z" fill="#556E21"/>
  <path d="M484.87 183.209C492.502 182.219 500.04 180.679 507.416 178.602L507.07 177.564C499.754 179.627 492.275 181.155 484.703 182.135L484.87 183.209Z" fill="#556E21"/>
  <path d="M460.419 205.096C455.96 204.961 447.56 205.646 445.509 208.971C443.603 212.052 452.755 213.36 455.035 213.469C459.494 213.692 467.732 212.908 469.699 209.365C471.505 206.113 462.715 205.168 460.419 205.096Z" fill="#556E21"/>
  <path d="M428.971 208.462C439.561 209.006 448.852 209.354 457.396 209.525V208.441C448.863 208.27 439.561 207.922 429.01 207.403L428.971 208.462Z" fill="#556E21"/>
  <path d="M401.163 227.527C396.833 227.258 388.662 227.839 386.594 231.719C384.621 235.428 394.291 236.419 396.42 236.502C400.801 236.678 409.24 235.802 411.023 232.352C412.729 229.047 403.716 227.683 401.163 227.527Z" fill="#556E21"/>
  <path d="M370.838 231.911C379.159 231.822 388.161 231.911 398.36 232.16V231.07C388.149 230.816 379.131 230.733 370.793 230.821L370.838 231.911Z" fill="#556E21"/>
  <path d="M361.286 263.886C361.843 259.503 355.266 258.984 352.061 259.674C348.288 260.483 344.175 263.01 342.971 266.584H360.249C360.791 265.761 361.144 264.842 361.286 263.886Z" fill="#556E21"/>
  <path d="M319.002 150.194C319.002 150.194 336.174 134.751 340.89 141.775C345.605 148.799 324.052 151.076 319.002 150.194Z" fill="#556E21"/>
  <path d="M327.392 132.167L325.402 131.711L237.717 266.584H240.008L327.392 132.167Z" fill="#556E21"/>
  <path d="M335.461 128.92C330.891 132.271 326.198 134.445 324.988 133.776C323.779 133.106 326.499 129.843 331.075 126.513C335.651 123.182 340.338 120.988 341.548 121.657C342.757 122.327 340.037 125.569 335.461 128.92Z" fill="#556E21"/>
  <path d="M302.2 170.446L301.33 169.212L321.925 162.483L322.8 163.718L302.2 170.446Z" fill="#556E21"/>
  <path d="M329.056 126.324C329.526 122.017 328.578 118.4 326.939 118.245C325.301 118.091 323.592 121.457 323.123 125.764C322.654 130.071 323.602 133.688 325.24 133.842C326.879 133.997 328.587 130.631 329.056 126.324Z" fill="#556E21"/>
  <path d="M313.602 152.907L312.727 151.673L333.327 144.944L334.202 146.174L313.602 152.907Z" fill="#556E21"/>
  <path d="M310.984 148.182C310.984 148.182 315.744 129.88 304.295 133.194C292.847 136.509 306.218 146.828 310.984 148.182Z" fill="#556E21"/>
  <path d="M312.248 152.43L304.289 139.134L306.318 138.559L314.283 151.849L312.248 152.43Z" fill="#556E21"/>
  <path d="M307.6 167.733C307.6 167.733 324.778 152.29 329.487 159.314C334.197 166.338 312.638 168.631 307.6 167.733Z" fill="#556E21"/>
  <path d="M299.58 165.72C299.58 165.72 304.339 147.419 292.891 150.739C281.443 154.059 294.836 164.367 299.58 165.72Z" fill="#556E21"/>
  <path d="M300.844 169.969L292.885 156.679L294.914 156.098L302.878 169.394L300.844 169.969Z" fill="#556E21"/>
  <path d="M302.504 187.312C302.504 187.312 319.682 171.868 324.392 178.892C329.101 185.916 307.548 188.209 302.504 187.312Z" fill="#556E21"/>
  <path d="M287.93 192.375L287.088 191.135L318.512 181.206L319.359 182.446L287.93 192.375Z" fill="#556E21"/>
  <path d="M281.136 180.822C281.136 180.822 285.896 162.525 274.448 165.84C262.999 169.155 276.371 179.468 281.136 180.822Z" fill="#556E21"/>
  <path d="M286.593 191.898L274.654 172.175L276.678 171.594L288.622 191.317L286.593 191.898Z" fill="#556E21"/>
  <path d="M290.609 208.316C290.609 208.316 313.311 194.704 315.813 202.267C318.316 209.831 295.252 209.815 290.609 208.316Z" fill="#556E21"/>
  <path d="M274.983 212.145L274.381 210.838L310.766 202.449L311.368 203.757L274.983 212.145Z" fill="#556E21"/>
  <path d="M267.759 201.328C267.759 201.328 265.858 181.859 255.759 186.746C245.659 191.633 262.598 200.747 267.759 201.328Z" fill="#556E21"/>
  <path d="M273.801 211.678L256.93 189.553L258.892 188.873L275.758 210.998L273.801 211.678Z" fill="#556E21"/>
  <path d="M279.229 225.856C279.229 225.856 301.93 212.244 304.427 219.807C306.924 227.371 283.849 227.361 279.229 225.856Z" fill="#556E21"/>
  <path d="M263.579 229.685L262.977 228.377L299.361 219.994L299.963 221.296L263.579 229.685Z" fill="#556E21"/>
  <path d="M256.377 218.868C256.377 218.868 254.476 199.399 244.377 204.286C234.277 209.173 251.193 218.287 256.377 218.868Z" fill="#556E21"/>
  <path d="M262.397 229.218L245.531 207.093L247.488 206.413L264.354 228.538L262.397 229.218Z" fill="#556E21"/>
  <path d="M264.973 247.779C264.973 247.779 287.674 234.172 290.177 241.73C292.679 249.289 269.593 249.283 264.973 247.779Z" fill="#556E21"/>
  <path d="M249.327 251.608L248.725 250.305L285.11 241.917L285.711 243.224L249.327 251.608Z" fill="#556E21"/>
  <path d="M242.118 240.823C242.118 240.823 240.212 221.353 230.118 226.24C220.024 231.127 236.94 240.216 242.118 240.823Z" fill="#556E21"/>
  <path d="M248.139 251.146L231.273 229.021L233.235 228.336L250.101 250.466L248.139 251.146Z" fill="#556E21"/>
  <path d="M282.624 261.516C280.394 254.772 264.108 262.699 256.957 266.584H279.932C282.178 265.381 283.365 263.731 282.624 261.516Z" fill="#556E21"/>
  <path d="M277.434 263.134L276.832 261.827L256.188 266.584H262.458L277.434 263.134Z" fill="#556E21"/>
  <path d="M227.283 260.436C227.283 260.436 225.087 238.01 213.46 243.639C201.834 249.267 221.314 259.767 227.283 260.436Z" fill="#556E21"/>
  <path d="M216.892 246.14L214.93 246.819L229.995 266.584H232.476L216.892 246.14Z" fill="#556E21"/>
  <path d="M193.912 262.388C191.354 263.622 190.072 265.059 189.721 266.585H205.65C203.176 262.403 199.447 259.706 193.912 262.388Z" fill="#556E21"/>
  <path d="M187.001 108.418C187.096 110.659 186.477 120.661 183.953 120.817C181.428 120.972 181.4 112.029 181.389 109.347C181.389 106.815 181.534 97.4879 183.395 96.9432C185.485 96.3311 186.895 105.876 187.001 108.418Z" fill="#556E21"/>
  <path d="M184.711 107.267H183.635C184.672 149.286 166.58 193.195 134.029 227.687C126.231 235.945 117.677 243.556 108.463 250.435V251.727C117.966 244.684 126.778 236.868 134.793 228.372C167.544 193.698 185.731 149.556 184.711 107.267Z" fill="#556E21"/>
  <path d="M176.579 128.556C177.693 131.804 178.357 137.572 175.609 141.292C172.861 145.011 170.503 138.698 170.135 137.427C169.205 134.185 169.021 129.049 171.189 125.428C173.513 121.548 176.183 127.42 176.579 128.556Z" fill="#556E21"/>
  <path d="M177.856 152.835C176.602 146.273 175.069 139.684 173.291 133.257L174.333 133.008C176.117 139.461 177.677 146.07 178.915 152.659L177.856 152.835Z" fill="#556E21"/>
  <path d="M164.884 166.79C165.313 170.136 164.684 176.714 160.827 179.271C156.97 181.829 155.855 175.059 155.704 173.093C155.442 169.809 156.134 164.097 159.567 161.426C163.212 158.593 164.645 164.933 164.884 166.79Z" fill="#556E21"/>
  <path d="M161.754 192.188H160.678C160.834 184.806 160.678 177.439 160.188 170.291L161.263 170.229C161.743 177.393 161.91 184.795 161.754 192.188Z" fill="#556E21"/>
  <path d="M133.633 214.127C133.131 217.556 130.378 224.813 125.829 225.42C121.281 226.027 121.889 218.676 122.485 215.885C123.171 212.654 125.395 206.268 129.731 205.412C134.201 204.509 134.04 211.341 133.633 214.127Z" fill="#556E21"/>
  <path d="M122.877 239.951L121.84 239.686C124.242 231.573 126.26 223.418 127.843 215.46L128.902 215.642C127.302 223.63 125.284 231.811 122.877 239.951Z" fill="#556E21"/>
  <path d="M187.676 144.062C185.039 147.777 182.286 153.467 182.793 157.654C183.351 162.26 188.713 157.529 190.206 155.693C193.289 151.901 195.395 145.51 194.515 141.23C193.629 136.82 188.852 142.397 187.676 144.062Z" fill="#556E21"/>
  <path d="M173.881 167.007L173.123 166.296C178.719 161.134 183.769 155.485 188.205 149.426L189.092 149.991C184.619 156.103 179.525 161.801 173.881 167.007Z" fill="#556E21"/>
  <path d="M164.958 202.952C161.028 205.11 155.884 209.629 155.226 214.184C154.501 219.158 160.755 217.815 163.77 216.368C168.096 214.292 173.062 208.856 173.43 204.062C173.797 199.269 167.722 201.458 164.958 202.952Z" fill="#556E21"/>
  <path d="M142.83 218.946L142.484 218.001C149.904 215.619 157.056 212.566 163.837 208.887L164.394 209.753C157.547 213.467 150.324 216.546 142.83 218.946Z" fill="#556E21"/>
  <path d="M130.697 259.446C132.525 254.258 126.238 253.449 122.621 253.703C118.374 254.004 111.568 256.37 109.573 261.127C108.519 263.648 109.484 265.453 111.217 266.584H123.022C126.394 265.152 129.532 262.714 130.697 259.446Z" fill="#556E21"/>
</svg>
