<svg width="1648" height="665" viewBox="0 0 1648 665" fill="none" xmlns="http://www.w3.org/2000/svg">
  <path d="M1663.05 -51.1719H-27.0195V664.644H1663.05V-51.1719Z" fill="url(#paint0_linear_1358_14214)"/>
  <path d="M255.373 202.156C255.373 201.61 255.373 201.047 255.373 200.501C255.373 183.795 243.678 170.248 229.238 170.248C224.012 170.255 218.938 172.001 214.814 175.21C208.727 164.078 198.025 156.684 185.801 156.684C171.923 156.684 159.964 166.245 154.588 179.99C149.969 175.555 143.821 173.068 137.418 173.043C134.663 173.046 131.928 173.516 129.33 174.433C127.88 171.824 125.775 169.638 123.222 168.092C120.669 166.546 117.757 165.692 114.773 165.616C111.955 165.682 109.197 166.448 106.748 167.846C104.299 169.243 102.237 171.228 100.747 173.622C98.5069 173.234 96.2378 173.041 93.9648 173.043C80.8642 173.043 69.5666 179.412 64.1908 188.608C61.6039 187.018 58.6263 186.176 55.5894 186.177C46.8392 186.177 39.5611 193.058 38.1055 202.106L255.373 202.156Z" fill="#D6FFFF"/>
  <path d="M539.73 251.928C539.73 251.465 539.73 250.985 539.73 250.506C539.73 236.379 549.655 224.933 561.829 224.933C566.253 224.952 570.544 226.448 574.02 229.184C579.164 219.772 588.212 213.536 598.534 213.536C610.278 213.536 620.368 221.608 625 233.237C628.898 229.481 634.093 227.372 639.506 227.348C641.833 227.354 644.143 227.751 646.338 228.522C647.477 226.334 649.18 224.49 651.271 223.181C653.362 221.872 655.764 221.145 658.23 221.076C660.696 221.007 663.136 221.598 665.296 222.788C667.457 223.978 669.261 225.723 670.521 227.844C672.411 227.517 674.326 227.351 676.244 227.348C687.31 227.348 696.871 232.74 701.37 240.581C703.561 239.24 706.08 238.53 708.648 238.53C712.308 238.654 715.805 240.077 718.511 242.544C721.218 245.011 722.958 248.361 723.419 251.994L539.73 251.928Z" fill="#F0FFFF"/>
  <path d="M304.468 197.425C302.935 193.781 300.361 190.671 297.069 188.484C293.776 186.297 289.911 185.131 285.959 185.131C282.006 185.131 278.141 186.297 274.849 188.484C271.556 190.671 268.982 193.781 267.449 197.425H304.468Z" fill="#D6FFFF"/>
  <path d="M1122.44 338.057C1119.66 334.276 1115.57 331.673 1110.96 330.762C1113.98 327.356 1115.65 322.959 1115.64 318.406C1115.64 314.196 1114.21 310.111 1111.61 306.807C1109 303.503 1105.35 301.173 1101.26 300.192C1097.16 299.21 1092.86 299.634 1089.04 301.396C1085.21 303.158 1082.09 306.154 1080.18 309.904C1076.51 308.214 1072.51 307.339 1068.47 307.34C1063.9 307.343 1059.4 308.446 1055.36 310.557C1051.31 312.667 1047.83 315.723 1045.21 319.464C1043.15 318.765 1041 318.407 1038.83 318.406C1034.83 318.403 1030.92 319.589 1027.59 321.813C1024.28 319.587 1020.37 318.4 1016.38 318.406C1015.27 318.421 1014.16 318.526 1013.07 318.72V318.406C1012.92 313.13 1010.72 308.12 1006.93 304.442C1003.15 300.763 998.078 298.706 992.8 298.706C987.522 298.706 982.451 300.763 978.666 304.442C974.881 308.12 972.679 313.13 972.529 318.406C972.529 318.505 972.529 318.588 972.529 318.67C969.684 318.187 966.769 318.323 963.982 319.069C961.195 319.815 958.601 321.154 956.379 322.995C954.157 324.835 952.358 327.134 951.106 329.733C949.854 332.333 949.177 335.172 949.123 338.057H1122.44Z" fill="#F0FFFF"/>
  <path d="M1038.66 82.1827C1039.04 81.299 1039.24 80.3484 1039.24 79.3872C1039.24 70.1407 1021.05 62.6145 998.681 62.6145H996.498C997.944 59.4475 998.688 56.0058 998.681 52.5245C998.515 46.1093 995.85 40.0128 991.254 35.5342C986.657 31.0557 980.494 28.5493 974.077 28.5493C967.659 28.5493 961.496 31.0557 956.899 35.5342C952.303 40.0128 949.638 46.1093 949.472 52.5245C949.472 52.7891 949.472 53.0538 949.472 53.3019C947.828 52.7893 946.116 52.5272 944.394 52.5245C942.188 52.5245 940.004 52.9594 937.967 53.8044C935.93 54.6493 934.08 55.8878 932.522 57.4488C930.964 59.0098 929.729 60.8627 928.888 62.9014C928.047 64.9402 927.616 67.1248 927.621 69.3302C926.231 69.3302 924.842 69.3302 923.419 69.3302C904.298 69.3302 888.253 74.8219 884.002 82.1827H1038.66Z" fill="#D6FFFF"/>
  <path d="M1411.55 281.42C1405.66 275.201 1394.59 271.049 1382.02 271.049C1377.26 271.035 1372.52 271.664 1367.93 272.918C1366.73 268.625 1364.17 264.836 1360.64 262.122C1357.11 259.407 1352.78 257.914 1348.33 257.866C1345.07 257.879 1341.87 258.677 1338.99 260.191C1336.11 261.706 1333.64 263.893 1331.79 266.566C1329.7 261.325 1326.03 256.867 1321.28 253.815C1316.54 250.763 1310.96 249.269 1305.32 249.542C1299.68 249.815 1294.28 251.842 1289.85 255.339C1285.42 258.836 1282.2 263.629 1280.63 269.048C1274.06 266.056 1266.92 264.548 1259.7 264.631C1243.16 264.631 1229.4 271.843 1226.14 281.453L1411.55 281.42Z" fill="#D6FFFF"/>
  <path d="M1149.88 101.751C1148.73 96.2128 1145.71 91.2399 1141.32 87.6698C1136.94 84.0996 1131.45 82.1504 1125.8 82.1504C1120.14 82.1504 1114.66 84.0996 1110.27 87.6698C1105.89 91.2399 1102.86 96.2128 1101.71 101.751H1149.88Z" fill="#D6FFFF"/>
  <path d="M918.853 336.8C917.323 336.798 915.802 337.05 914.354 337.544C912.032 335.824 909.315 334.715 906.453 334.32C903.59 333.924 900.674 334.255 897.973 335.281C895.272 336.307 892.872 337.996 890.994 340.192C889.116 342.388 887.821 345.021 887.227 347.849H932.45C931.794 344.728 930.085 341.927 927.61 339.915C925.134 337.903 922.043 336.804 918.853 336.8Z" fill="#F0FFFF"/>
  <path d="M481.786 236.313C483.824 236.314 485.848 236.655 487.774 237.322C490.866 235.016 494.489 233.528 498.309 232.994C502.128 232.46 506.021 232.897 509.627 234.266C513.232 235.634 516.435 237.889 518.938 240.823C521.442 243.757 523.165 247.275 523.949 251.051H463.641C464.514 246.884 466.794 243.146 470.098 240.462C473.403 237.778 477.529 236.313 481.786 236.313Z" fill="#F0FFFF"/>
  <path d="M897.663 194.133C896.588 183.679 885.505 175.458 871.942 175.458C869.893 175.469 867.85 175.668 865.838 176.053C865.838 175.855 865.838 175.656 865.838 175.458C865.838 167.286 856.988 160.67 846.088 160.67C841.712 160.618 837.406 161.762 833.632 163.978C831.813 153.723 821.756 145.783 809.582 145.783C803.798 145.742 798.162 147.614 793.553 151.109C791.112 148.46 788.141 146.354 784.832 144.929C781.523 143.504 777.951 142.792 774.349 142.839C762.919 142.839 753.342 149.786 750.728 159.132C743.531 155.586 735.594 153.8 727.571 153.921C710.715 153.921 696.622 161.034 693.017 170.562C690.483 167.72 687.147 165.714 683.448 164.811C679.75 163.908 675.865 164.149 672.306 165.503C668.748 166.857 665.686 169.26 663.523 172.393C661.361 175.527 660.202 179.243 660.199 183.05C660.199 183.513 660.199 183.96 660.282 184.423C655.088 182.667 649.461 182.666 644.267 184.42C639.072 186.174 634.598 189.587 631.533 194.133H897.663Z" fill="#D6FFFF"/>
  <path d="M460.034 296.622C456.081 292.503 448.803 289.741 440.499 289.741C437.349 289.734 434.212 290.146 431.17 290.965C430.378 288.13 428.687 285.63 426.351 283.84C424.015 282.05 421.161 281.068 418.218 281.04C416.067 281.049 413.95 281.577 412.046 282.579C410.143 283.581 408.509 285.028 407.285 286.796C405.909 283.322 403.48 280.366 400.339 278.342C397.199 276.318 393.503 275.328 389.771 275.511C386.039 275.693 382.458 277.039 379.529 279.359C376.601 281.68 374.472 284.859 373.442 288.45C369.099 286.464 364.371 285.464 359.597 285.523C348.679 285.523 339.565 290.303 337.398 296.655L460.034 296.622Z" fill="#F0FFFF"/>
  <defs>
    <linearGradient id="paint0_linear_1358_14214" x1="818.016" y1="664.644" x2="818.016" y2="-51.1719" gradientUnits="userSpaceOnUse">
      <stop stop-color="white"/>
      <stop offset="1" stop-color="#87DDF4"/>
    </linearGradient>
  </defs>
</svg>
