<svg width="1648" height="533" viewBox="0 0 1648 533" fill="none" xmlns="http://www.w3.org/2000/svg">
  <path d="M1663.38 -65.5049H-11.8242V532.034H1663.38V-65.5049Z" fill="url(#paint0_linear_1358_6741)"/>
  <g style="mix-blend-mode:screen">
    <path d="M1448.09 230.153C1462.22 229.097 1473.2 210.675 1468.99 197.733C1464.78 184.792 1449.38 179.014 1435.28 182.332C1421.19 185.65 1408.46 195.538 1399.48 207.786C1416.24 165.264 1414.02 117.971 1393.64 82.3325C1380.94 60.1471 1357.47 41.4776 1330.46 47.6677C1307.16 53.082 1288.77 75.9608 1281.54 99.2357C1274.31 122.511 1271.39 142.154 1273.12 165.264C1275.45 149.12 1261.91 134.742 1245.93 136.393C1229.95 138.044 1216.22 154.815 1217.42 170.579C1211.89 152.983 1205.14 135.568 1193.56 121.916C1181.97 108.265 1164.78 98.691 1145.68 99.896C1126.59 101.101 1106.07 114.934 1100.06 134C1096.3 145.967 1098.41 158.397 1103.36 168.664C1108.31 178.932 1115.86 187.466 1123.35 195.852C1113.76 188.291 1100.24 188.407 1088.39 184.709C1076.54 181.012 1062.44 181.094 1050.22 187.515C1038.01 193.937 1028.37 207.555 1029.1 220.53C1006.4 196.743 967.045 189.48 931.819 193.425C921.717 194.547 910.69 197.436 903.51 205.541C896.329 213.646 896.379 228.106 905.623 230.88C887.019 231.507 868.333 234.478 849.73 235.105C841.146 235.386 830.433 237.037 826.422 245.241C823.121 252.141 826.802 259.453 831.242 264.57C837.336 271.429 844.749 276.989 853.039 280.92C861.329 284.851 870.325 287.071 879.492 287.449C957.075 291.411 1042.48 295.026 1121.2 277C1183.5 262.755 1235.52 287.614 1294.73 299.466C1353.94 311.318 1419.44 316.683 1478.22 287.053C1510.08 270.992 1542.25 271.14 1572.51 251.596C1581.17 246 1590.67 237.449 1589.69 227.925C1588.8 219.935 1580.18 215.693 1572.05 216.584C1563.91 217.476 1556.18 222.164 1548.84 226.72C1554.53 225.779 1548.84 219.935 1547.19 214.67C1545.54 209.404 1540.22 206.416 1534.64 206.069C1529.06 205.723 1523.28 207.39 1517.65 209.074C1493.98 216.353 1471.77 223.055 1448.09 230.153Z" fill="url(#paint1_linear_1358_6741)"/>
  </g>
  <g style="mix-blend-mode:screen">
    <path d="M508.147 232.959C519.136 232.052 527.668 215.974 524.403 204.683C521.137 193.392 509.148 188.357 498.188 191.246C487.229 194.135 477.329 202.801 470.356 213.448C483.375 176.357 481.668 135.089 465.81 104.039C455.939 84.6931 437.698 68.4006 416.692 73.8645C398.568 78.5855 384.328 98.625 378.65 118.863C372.972 139.1 370.765 156.35 372.104 176.505C372.531 173.215 372.29 169.858 371.399 166.687C370.508 163.515 368.991 160.61 366.96 158.189C364.93 155.767 362.438 153.891 359.67 152.701C356.903 151.511 353.932 151.037 350.979 151.316C338.549 152.752 327.898 167.377 328.811 181.144C324.515 165.792 319.263 150.589 310.246 138.688C301.228 126.786 287.886 118.417 273.013 119.473C258.141 120.53 242.195 132.679 237.531 149.186C234.943 159.279 235.863 170.098 240.106 179.46C243.96 188.44 249.829 195.868 255.655 203.181C248.197 196.578 237.752 196.677 228.47 193.458C218.676 189.862 208.014 190.746 198.798 195.918C189.31 201.53 181.808 213.382 182.367 224.706C164.729 204.023 134.131 197.651 106.71 201.084C98.8546 202.058 90.2784 204.584 84.6442 211.665C79.0101 218.747 79.0983 231.342 86.2918 233.768C71.8166 234.313 57.2825 236.905 42.822 237.449C36.1434 237.697 27.8172 239.1 24.7133 246.281C22.0948 252.306 24.9928 258.694 28.4498 263.151C33.1888 269.136 38.9543 273.988 45.402 277.417C51.8497 280.846 58.8472 282.782 65.9765 283.108C126.29 286.574 192.679 289.711 253.89 274.012C302.331 261.566 342.771 283.256 388.815 293.606C434.859 303.956 485.773 308.611 531.508 282.761C556.28 268.763 581.274 268.895 604.796 251.844C611.548 246.891 618.977 239.496 618.168 231.177C617.476 224.211 610.813 220.513 604.443 221.272C598.073 222.032 592.115 226.142 586.393 230.104C590.806 229.295 586.393 224.194 585.187 219.589C583.98 214.983 579.773 212.441 575.434 212.095C571.094 211.748 566.607 213.25 562.194 214.719L508.147 232.959Z" fill="url(#paint2_linear_1358_6741)"/>
  </g>
  <g style="mix-blend-mode:screen">
    <path d="M747.116 292.731C737.189 300.314 725.786 305.737 713.639 308.654C701.492 311.57 688.87 311.916 676.582 309.668C668.328 308.017 659.282 304.451 656.278 296.578C653.274 288.704 658.044 279.278 665.126 274.458C672.207 269.638 680.989 268.202 689.474 266.898C683.647 263.365 675.723 261.781 671.316 256.63C666.909 251.48 664.086 244.432 665.671 237.812C667.668 229.427 675.921 224.046 684.043 221.124C694.457 217.497 705.589 216.422 716.504 217.991C727.419 219.559 737.798 223.724 746.77 230.137C741.818 226.043 740.167 217.228 743.782 211.863C747.397 206.498 754 203.725 760.454 203.181C766.908 202.636 773.363 203.989 779.701 205.343C765.208 189.859 759.992 165.875 768.757 146.561C773.174 136.832 780.379 128.633 789.459 123.002C798.539 117.37 809.087 114.561 819.765 114.928C830.443 115.296 840.772 118.824 849.444 125.067C858.115 131.309 864.739 139.985 868.476 149.995C862.319 123.782 876.053 93.7223 900.714 82.9432C925.376 72.1641 957.136 81.4246 972.157 103.759C962.253 82.9762 975.557 59.8663 990.744 42.5669C1014.63 15.3798 1051.82 -0.71455 1087.64 3.98996C1123.46 8.69447 1156.44 35.6505 1164.86 70.86C1170.11 92.8639 1166 116.519 1155.95 136.789C1145.89 157.06 1130.26 174.178 1112.6 188.308C1127.46 199.599 1130.13 223.385 1121.2 239.843C1112.27 256.3 1095.09 266.749 1077.41 272.939C1055.87 280.267 1032.9 282.417 1010.38 279.213C987.854 276.01 966.402 267.544 947.76 254.501C923.56 276.802 886.188 286.112 853.669 280.681C847.067 279.575 839.902 277.38 836.733 271.487C817.932 290.387 793.006 305.211 767.998 314.62C762.237 316.799 755.849 318.713 750.022 316.716C744.195 314.719 743.419 297.65 747.116 292.731Z" fill="url(#paint3_linear_1358_6741)"/>
  </g>
  <defs>
    <linearGradient id="paint0_linear_1358_6741" x1="825.777" y1="486.177" x2="825.777" y2="-102.002" gradientUnits="userSpaceOnUse">
      <stop stop-color="#EEFEEE"/>
      <stop offset="0.18" stop-color="#E6FDEF"/>
      <stop offset="0.47" stop-color="#CFFAF1"/>
      <stop offset="0.48" stop-color="#CEFAF1"/>
      <stop offset="0.55" stop-color="#C4F7EE"/>
      <stop offset="0.66" stop-color="#A9EEE7"/>
      <stop offset="0.81" stop-color="#7DE0DB"/>
      <stop offset="0.99" stop-color="#40CDCA"/>
      <stop offset="1" stop-color="#3CCCC9"/>
    </linearGradient>
    <linearGradient id="paint1_linear_1358_6741" x1="1207.4" y1="64.9397" x2="1244.6" y2="330.646" gradientUnits="userSpaceOnUse">
      <stop stop-color="#E9FDF5"/>
      <stop offset="1"/>
    </linearGradient>
    <linearGradient id="paint2_linear_1358_6741" x1="321.029" y1="88.7429" x2="357.264" y2="319.398" gradientUnits="userSpaceOnUse">
      <stop stop-color="#E9FDF5"/>
      <stop offset="1"/>
    </linearGradient>
    <linearGradient id="paint3_linear_1358_6741" x1="911.246" y1="3.16461" x2="911.246" y2="317.624" gradientUnits="userSpaceOnUse">
      <stop stop-color="#E9FDF5"/>
      <stop offset="1"/>
    </linearGradient>
  </defs>
</svg>
