<svg width="71" height="39" viewBox="0 0 71 39" fill="none" xmlns="http://www.w3.org/2000/svg">
  <mask id="path-1-inside-1_24346_4860" fill="white">
    <path fill-rule="evenodd" clip-rule="evenodd" d="M5 8.67935C5 12.1472 6.99179 15.14 9.87096 16.5301C8.03196 20.4721 7 25.4203 7 31.552C7 32.6176 7.03117 33.6733 7.09233 34.7174H63.9077C63.9688 33.6733 64 32.6176 64 31.552C64 25.4203 62.968 20.4721 61.129 16.5301C64.0082 15.14 66 12.1472 66 8.67935C66 3.88588 62.1944 0 57.5 0C53.8944 0 50.8131 2.29237 49.5778 5.52766C45.4249 3.79633 40.6202 3.0633 35.5 3.0633C30.3799 3.0633 25.5751 3.79633 21.4222 5.52766C20.1869 2.29237 17.1056 0 13.5 0C8.80558 0 5 3.88588 5 8.67935Z"/>
  </mask>
  <path fill-rule="evenodd" clip-rule="evenodd" d="M5 8.67935C5 12.1472 6.99179 15.14 9.87096 16.5301C8.03196 20.4721 7 25.4203 7 31.552C7 32.6176 7.03117 33.6733 7.09233 34.7174H63.9077C63.9688 33.6733 64 32.6176 64 31.552C64 25.4203 62.968 20.4721 61.129 16.5301C64.0082 15.14 66 12.1472 66 8.67935C66 3.88588 62.1944 0 57.5 0C53.8944 0 50.8131 2.29237 49.5778 5.52766C45.4249 3.79633 40.6202 3.0633 35.5 3.0633C30.3799 3.0633 25.5751 3.79633 21.4222 5.52766C20.1869 2.29237 17.1056 0 13.5 0C8.80558 0 5 3.88588 5 8.67935Z" fill="#735C42"/>
  <path d="M9.87096 16.5301L10.7772 16.9529L11.1944 16.0587L10.3057 15.6296L9.87096 16.5301ZM7.09233 34.7174L6.09404 34.7759L6.14919 35.7174H7.09233V34.7174ZM63.9077 34.7174V35.7174H64.8508L64.906 34.7759L63.9077 34.7174ZM61.129 16.5301L60.6943 15.6296L59.8056 16.0586L60.2228 16.9529L61.129 16.5301ZM49.5778 5.52766L49.193 6.45066L50.1443 6.84728L50.512 5.88437L49.5778 5.52766ZM21.4222 5.52766L20.488 5.88437L20.8557 6.84728L21.807 6.45066L21.4222 5.52766ZM10.3057 15.6296C7.76684 14.4038 6 11.7576 6 8.67935H4C4 12.5369 6.21674 15.8763 9.43617 17.4307L10.3057 15.6296ZM8 31.552C8 25.5299 9.0137 20.733 10.7772 16.9529L8.96472 16.1074C7.05022 20.2111 6 25.3106 6 31.552H8ZM8.09062 34.6589C8.0306 33.6343 8 32.5981 8 31.552H6C6 32.6371 6.03174 33.7123 6.09404 34.7759L8.09062 34.6589ZM63.9077 33.7174H7.09233V35.7174H63.9077V33.7174ZM63 31.552C63 32.5981 62.9694 33.6343 62.9094 34.6589L64.906 34.7759C64.9683 33.7123 65 32.6371 65 31.552H63ZM60.2228 16.9529C61.9863 20.733 63 25.5299 63 31.552H65C65 25.3106 63.9498 20.2111 62.0353 16.1074L60.2228 16.9529ZM65 8.67935C65 11.7576 63.2332 14.4038 60.6943 15.6296L61.5638 17.4307C64.7833 15.8763 67 12.5369 67 8.67935H65ZM57.5 1C61.6226 1 65 4.41837 65 8.67935H67C67 3.35338 62.7663 -1 57.5 -1V1ZM50.512 5.88437C51.6081 3.01379 54.3328 1 57.5 1V-1C53.456 -1 50.0181 1.57096 48.6435 5.17094L50.512 5.88437ZM35.5 4.0633C40.5315 4.0633 45.1966 4.78457 49.193 6.45066L49.9626 4.60466C45.6533 2.80809 40.7088 2.0633 35.5 2.0633V4.0633ZM21.807 6.45066C25.8034 4.78457 30.4685 4.0633 35.5 4.0633V2.0633C30.2912 2.0633 25.3467 2.80809 21.0374 4.60466L21.807 6.45066ZM13.5 1C16.6672 1 19.3919 3.01379 20.488 5.88437L22.3565 5.17094C20.9819 1.57096 17.544 -1 13.5 -1V1ZM6 8.67935C6 4.41837 9.37745 1 13.5 1V-1C8.23371 -1 4 3.35338 4 8.67935H6Z" fill="#4B371F" mask="url(#path-1-inside-1_24346_4860)"/>
  <ellipse cx="23.5" cy="18.8906" rx="2.5" ry="2.55275" fill="black"/>
  <ellipse cx="47.5" cy="18.8906" rx="2.5" ry="2.55275" fill="black"/>
  <path d="M46.5 23.0771C46.5 29.2356 41.5694 34.2177 35.5 34.2177C29.4306 34.2177 24.5 29.2356 24.5 23.0771C24.5 21.5354 24.8086 20.4094 25.328 19.5765C25.8449 18.7476 26.5972 18.1661 27.5632 17.7571C29.5336 16.9228 32.3002 16.8379 35.5 16.8379C38.6998 16.8379 41.4664 16.9228 43.4368 17.7571C44.4028 18.1661 45.1551 18.7476 45.672 19.5765C46.1914 20.4094 46.5 21.5354 46.5 23.0771Z" fill="#B7956F" stroke="#4B371F"/>
  <path d="M39 20.2519C39 22.0377 37.433 23.4854 35.5 23.4854C33.567 23.4854 32 22.0377 32 20.2519C32 18.4661 33.567 18.3799 35.5 18.3799C37.433 18.3799 39 18.4661 39 20.2519Z" fill="black"/>
  <path d="M13.5 34.2065C13.5 35.0511 13.32 35.6654 13.0285 36.122C12.7378 36.5773 12.3106 36.9158 11.7467 37.1664C10.5895 37.6806 8.9415 37.7909 7 37.7909C5.0585 37.7909 3.41052 37.6806 2.25329 37.1664C1.68941 36.9158 1.2622 36.5773 0.97151 36.122C0.67998 35.6654 0.5 35.0511 0.5 34.2065C0.5 30.8418 3.38474 28.0693 7 28.0693C10.6153 28.0693 13.5 30.8418 13.5 34.2065Z" fill="#735C42" stroke="#4B371F"/>
  <path d="M70.5 34.2065C70.5 35.0511 70.32 35.6654 70.0285 36.122C69.7378 36.5773 69.3106 36.9158 68.7467 37.1664C67.5895 37.6806 65.9415 37.7909 64 37.7909C62.0585 37.7909 60.4105 37.6806 59.2533 37.1664C58.6894 36.9158 58.2622 36.5773 57.9715 36.122C57.68 35.6654 57.5 35.0511 57.5 34.2065C57.5 30.8418 60.3847 28.0693 64 28.0693C67.6153 28.0693 70.5 30.8418 70.5 34.2065Z" fill="#735C42" stroke="#4B371F"/>
</svg>
