<svg width="79" height="36" viewBox="0 0 79 36" fill="none" xmlns="http://www.w3.org/2000/svg">
  <path d="M66.6175 3.12695C59.5392 3.12695 56.5899 7.25489 56 9.31886C56.4424 14.3314 58.1235 24.7102 61.3087 26.1255C64.494 27.5408 66.1751 25.5358 66.6175 24.3563C69.8027 26.1255 71.1889 23.6192 71.4838 22.145C72.5161 23.3244 75.1115 24.6217 77.235 20.3758C79.8893 15.0685 75.4654 3.12695 66.6175 3.12695Z" fill="#B9BFBE" stroke="#4B371F" stroke-linecap="round"/>
  <path d="M61.5 19.4642L59.5 12.8271C61.8333 11.4656 66.9 9.86589 68.5 14.3587C70.1 18.8516 64.5 19.6344 61.5 19.4642Z" fill="#67696A" stroke="#4B371F" stroke-linecap="round"/>
  <path d="M11.8651 3.12695C18.6217 3.12695 21.437 7.07541 22 9.04965C21.5777 13.8442 19.973 23.7718 16.9326 25.1255C13.8921 26.4793 12.2874 24.5615 11.8651 23.4333C8.82467 25.1255 7.5015 22.7282 7.21998 21.3181C6.23465 22.4462 3.75723 23.6872 1.73026 19.6259C-0.803459 14.5493 3.4194 3.12695 11.8651 3.12695Z" fill="#B9BFBE" stroke="#4B371F" stroke-linecap="round"/>
  <path d="M17.3647 19.4642L19.3647 12.8271C17.0314 11.4656 11.9647 9.86589 10.3647 14.3587C8.76475 18.8516 14.3647 19.6344 17.3647 19.4642Z" fill="#67696A" stroke="#4B371F" stroke-linecap="round"/>
  <mask id="path-5-inside-1_24346_4915" fill="white">
    <path d="M39.5 0.0634766C23.7599 0.0634766 11 6.99094 11 28.5522C11 29.6178 11.0312 30.6735 11.0923 31.7176H67.9077C67.9688 30.6735 68 29.6178 68 28.5522C68 6.99094 55.2401 0.0634766 39.5 0.0634766Z"/>
  </mask>
  <path d="M39.5 0.0634766C23.7599 0.0634766 11 6.99094 11 28.5522C11 29.6178 11.0312 30.6735 11.0923 31.7176H67.9077C67.9688 30.6735 68 29.6178 68 28.5522C68 6.99094 55.2401 0.0634766 39.5 0.0634766Z" fill="#B9BFBE"/>
  <path d="M11.0923 31.7176L10.094 31.776L10.1492 32.7176H11.0923V31.7176ZM67.9077 31.7176V32.7176H68.8508L68.906 31.776L67.9077 31.7176ZM12 28.5522C12 17.9738 15.1225 11.1668 19.9988 6.98116C24.904 2.77072 31.7548 1.06348 39.5 1.06348V-0.936523C31.505 -0.936523 24.1059 0.819968 18.6961 5.46356C13.2575 10.1319 10 17.5693 10 28.5522H12ZM39.5 1.06348C47.2452 1.06348 54.096 2.77072 59.0012 6.98116C63.8775 11.1668 67 17.9738 67 28.5522H69C69 17.5693 65.7425 10.1319 60.3039 5.46356C54.8941 0.819968 47.495 -0.936523 39.5 -0.936523V1.06348ZM12.0906 31.6591C12.0306 30.6345 12 29.5983 12 28.5522H10C10 29.6373 10.0317 30.7125 10.094 31.776L12.0906 31.6591ZM67 28.5522C67 29.5983 66.9694 30.6345 66.9094 31.6591L68.906 31.776C68.9683 30.7125 69 29.6373 69 28.5522H67ZM11.0923 32.7176H67.9077V30.7176H11.0923V32.7176Z" fill="#4B371F" mask="url(#path-5-inside-1_24346_4915)"/>
  <ellipse cx="27.5" cy="15.8906" rx="2.5" ry="2.55275" fill="black"/>
  <ellipse cx="51.5" cy="15.8906" rx="2.5" ry="2.55275" fill="black"/>
  <path d="M46.5 25.5231C46.5 21.659 45.6733 18.1854 44.361 15.696C43.0367 13.1838 41.2935 11.7958 39.5 11.7958C37.7065 11.7958 35.9633 13.1838 34.639 15.696C33.3267 18.1854 32.5 21.659 32.5 25.5231C32.5 28.5384 33.3126 29.8634 34.4445 30.5092C35.0389 30.8483 35.7703 31.0307 36.6343 31.1239C37.4997 31.2172 38.4579 31.2178 39.5 31.2178C40.5421 31.2178 41.5003 31.2172 42.3657 31.1239C43.2297 31.0307 43.9611 30.8483 44.5555 30.5092C45.6874 29.8634 46.5 28.5384 46.5 25.5231Z" fill="#67696A" stroke="#4B371F"/>
  <path d="M17.5 31.2075C17.5 32.0521 17.32 32.6664 17.0285 33.123C16.7378 33.5782 16.3106 33.9168 15.7467 34.1673C14.5895 34.6816 12.9415 34.7919 11 34.7919C9.0585 34.7919 7.41052 34.6816 6.25329 34.1673C5.68941 33.9168 5.2622 33.5782 4.97151 33.123C4.67998 32.6664 4.5 32.0521 4.5 31.2075C4.5 27.8428 7.38474 25.0703 11 25.0703C14.6153 25.0703 17.5 27.8428 17.5 31.2075Z" fill="#B9BFBE" stroke="#4B371F"/>
  <path d="M74.5 31.2075C74.5 32.0521 74.32 32.6664 74.0285 33.123C73.7378 33.5782 73.3106 33.9168 72.7467 34.1673C71.5895 34.6816 69.9415 34.7919 68 34.7919C66.0585 34.7919 64.4105 34.6816 63.2533 34.1673C62.6894 33.9168 62.2622 33.5782 61.9715 33.123C61.68 32.6664 61.5 32.0521 61.5 31.2075C61.5 27.8428 64.3847 25.0703 68 25.0703C71.6153 25.0703 74.5 27.8428 74.5 31.2075Z" fill="#B9BFBE" stroke="#4B371F"/>
</svg>
