<svg width="71" height="38" viewBox="0 0 71 38" fill="none" xmlns="http://www.w3.org/2000/svg">
  <path d="M9.00604 12.3213C9.70197 15.6326 9.93426 15.832 13.1771 15.1505C16.42 14.4689 22.2442 9.67232 21.5483 6.36103C20.8524 3.04975 12.2002 1.68372 8.95729 2.36527C7.30857 4.24455 8.31012 9.01 9.00604 12.3213Z" fill="white" stroke="#4B371F"/>
  <path d="M61.9573 12.3213C61.2614 15.6326 61.0291 15.832 57.7863 15.1505C54.5434 14.4689 48.7191 9.67232 49.4151 6.36103C50.111 3.04975 58.7632 1.68372 62.0061 2.36527C63.6548 4.24455 62.6533 9.01 61.9573 12.3213Z" fill="white" stroke="#4B371F"/>
  <path d="M7.5 30.5522C7.5 19.8727 10.6562 12.9081 15.6731 8.60176C20.7044 4.28303 27.6924 2.56348 35.5 2.56348C43.3076 2.56348 50.2956 4.28303 55.3269 8.60176C60.3438 12.9081 63.5 19.8727 63.5 30.5522C63.5 31.4481 63.4778 32.3369 63.434 33.2176H7.56599C7.52224 32.3369 7.5 31.4481 7.5 30.5522Z" fill="#FF9136" stroke="#4B371F"/>
  <ellipse cx="23.5" cy="17.4209" rx="2.5" ry="2.55275" fill="black"/>
  <ellipse cx="4" cy="2.5" rx="4" ry="2.5" transform="matrix(-0.893341 0.44938 0.44938 0.893341 49.1465 8)" fill="white"/>
  <ellipse cx="4" cy="2.5" rx="4" ry="2.5" transform="matrix(-0.893341 0.44938 0.44938 0.893341 49.1465 8)" fill="white"/>
  <ellipse cx="24.697" cy="12.0309" rx="4" ry="2.5" transform="rotate(26.7039 24.697 12.0309)" fill="white"/>
  <ellipse cx="24.697" cy="12.0309" rx="4" ry="2.5" transform="rotate(26.7039 24.697 12.0309)" fill="white"/>
  <ellipse cx="2.5" cy="2.55275" rx="2.5" ry="2.55275" transform="matrix(-1 0 0 1 49.792 14.8682)" fill="black"/>
  <path d="M39 18.7831C39 20.5689 37.433 22.0166 35.5 22.0166C33.567 22.0166 32 20.5689 32 18.7831C32 16.9973 33.567 16.9111 35.5 16.9111C37.433 16.9111 39 16.9973 39 18.7831Z" fill="black"/>
  <path d="M46.5 26.6407C46.5 20.4821 41.5694 15.5001 35.5 15.5001C29.4306 15.5001 24.5 20.4821 24.5 26.6407C24.5 28.1824 24.8086 29.3083 25.328 30.1413C25.8449 30.9701 26.5972 31.5516 27.5632 31.9607C29.5336 32.795 32.3002 32.8799 35.5 32.8799C38.6998 32.8799 41.4664 32.795 43.4368 31.9607C44.4028 31.5516 45.1551 30.9701 45.672 30.1413C46.1914 29.3083 46.5 28.1824 46.5 26.6407Z" fill="white" stroke="#4B371F"/>
  <path d="M39 19.2519C39 21.0377 37.433 22.4854 35.5 22.4854C33.567 22.4854 32 21.0377 32 19.2519C32 17.4661 33.567 17.3799 35.5 17.3799C37.433 17.3799 39 17.4661 39 19.2519Z" fill="black"/>
  <path d="M13.5 33.2065C13.5 34.0511 13.32 34.6654 13.0285 35.122C12.7378 35.5773 12.3106 35.9158 11.7467 36.1664C10.5895 36.6806 8.9415 36.7909 7 36.7909C5.0585 36.7909 3.41052 36.6806 2.25329 36.1664C1.68941 35.9158 1.2622 35.5773 0.97151 35.122C0.67998 34.6654 0.5 34.0511 0.5 33.2065C0.5 29.8418 3.38474 27.0693 7 27.0693C10.6153 27.0693 13.5 29.8418 13.5 33.2065Z" fill="#9C6923" stroke="#4B371F"/>
  <path d="M70.5 33.2065C70.5 34.0511 70.32 34.6654 70.0285 35.122C69.7378 35.5773 69.3106 35.9158 68.7467 36.1664C67.5895 36.6806 65.9415 36.7909 64 36.7909C62.0585 36.7909 60.4105 36.6806 59.2533 36.1664C58.6894 35.9158 58.2622 35.5773 57.9715 35.122C57.68 34.6654 57.5 34.0511 57.5 33.2065C57.5 29.8418 60.3847 27.0693 64 27.0693C67.6153 27.0693 70.5 29.8418 70.5 33.2065Z" fill="#9C6923" stroke="#4B371F"/>
</svg>
