<svg width="71" height="39" viewBox="0 0 71 39" fill="none" xmlns="http://www.w3.org/2000/svg">
  <ellipse cx="13.5" cy="8.67935" rx="8.5" ry="8.67935" fill="black"/>
  <ellipse cx="57.5" cy="8.67935" rx="8.5" ry="8.67935" fill="black"/>
  <path d="M7.5 31.5522C7.5 20.8727 10.6562 13.9081 15.6731 9.60176C20.7044 5.28303 27.6924 3.56348 35.5 3.56348C43.3076 3.56348 50.2956 5.28303 55.3269 9.60176C60.3438 13.9081 63.5 20.8727 63.5 31.5522C63.5 32.4481 63.4778 33.3369 63.434 34.2176H7.56599C7.52224 33.3369 7.5 32.4481 7.5 31.5522Z" fill="white" stroke="#4B371F"/>
  <ellipse cx="5.54189" cy="7.60188" rx="5.54189" ry="7.60188" transform="matrix(0.794831 0.60683 -0.590792 0.806824 21.9824 11.2324)" fill="black"/>
  <path d="M25.5 18.8906C25.5 20.0342 24.5948 20.9434 23.5 20.9434C22.4052 20.9434 21.5 20.0342 21.5 18.8906C21.5 17.747 22.4052 16.8379 23.5 16.8379C24.5948 16.8379 25.5 17.747 25.5 18.8906Z" fill="black" stroke="white"/>
  <ellipse cx="5.54189" cy="7.60188" rx="5.54189" ry="7.60188" transform="matrix(-0.794831 0.60683 0.590792 0.806824 48.8096 11.2324)" fill="black"/>
  <path d="M45.292 18.8906C45.292 20.0342 46.1972 20.9434 47.292 20.9434C48.3868 20.9434 49.292 20.0342 49.292 18.8906C49.292 17.747 48.3868 16.8379 47.292 16.8379C46.1972 16.8379 45.292 17.747 45.292 18.8906Z" fill="black" stroke="white"/>
  <path d="M46.5 23.0771C46.5 29.2356 41.5694 34.2177 35.5 34.2177C29.4306 34.2177 24.5 29.2356 24.5 23.0771C24.5 21.5354 24.8086 20.4094 25.328 19.5765C25.8449 18.7476 26.5972 18.1661 27.5632 17.7571C29.5336 16.9228 32.3002 16.8379 35.5 16.8379C38.6998 16.8379 41.4664 16.9228 43.4368 17.7571C44.4028 18.1661 45.1551 18.7476 45.672 19.5765C46.1914 20.4094 46.5 21.5354 46.5 23.0771Z" fill="white" stroke="#4B371F"/>
  <path d="M39 20.2519C39 22.0377 37.433 23.4854 35.5 23.4854C33.567 23.4854 32 22.0377 32 20.2519C32 18.4661 33.567 18.3799 35.5 18.3799C37.433 18.3799 39 18.4661 39 20.2519Z" fill="black"/>
  <path d="M14 34.2065C14 37.8721 10.866 38.2909 7 38.2909C3.13401 38.2909 0 37.8721 0 34.2065C0 30.5409 3.13401 27.5693 7 27.5693C10.866 27.5693 14 30.5409 14 34.2065Z" fill="black"/>
  <path d="M71 34.2065C71 37.8721 67.866 38.2909 64 38.2909C60.134 38.2909 57 37.8721 57 34.2065C57 30.5409 60.134 27.5693 64 27.5693C67.866 27.5693 71 30.5409 71 34.2065Z" fill="black"/>
</svg>
