<svg width="390" height="794" viewBox="0 0 390 794" fill="none" xmlns="http://www.w3.org/2000/svg">
  <rect width="391" height="794" rx="10" fill="#96D6FF"/>
  <mask id="path-2-inside-1_22057_76" fill="white">
    <path fill-rule="evenodd" clip-rule="evenodd" d="M-54.2804 216.099C-55.6011 216.437 -56.9854 216.617 -58.4118 216.617C-67.5732 216.617 -75 209.191 -75 200.029C-75 190.868 -67.5732 183.441 -58.4118 183.441C-54.2187 183.441 -50.389 184.997 -47.4684 187.562C-47.4699 187.483 -47.4706 187.403 -47.4706 187.323C-47.4706 180.111 -41.624 174.264 -34.4118 174.264C-30.0788 174.264 -26.2388 176.375 -23.8633 179.623C-21.5683 167.032 -6.93949 157.323 10.7647 157.323C29.55 157.323 44.8729 168.254 45.673 181.961C48.3453 180.648 51.3513 179.911 54.5294 179.911C65.6401 179.911 74.6471 188.918 74.6471 200.029C74.6471 211.14 65.6401 220.147 54.5294 220.147C51.707 220.147 49.0204 219.566 46.5827 218.516C37.7141 226.167 19.0021 231.441 -2.64706 231.441C-26.5091 231.441 -46.8028 225.034 -54.2804 216.099Z"/>
  </mask>
  <path fill-rule="evenodd" clip-rule="evenodd" d="M-54.2804 216.099C-55.6011 216.437 -56.9854 216.617 -58.4118 216.617C-67.5732 216.617 -75 209.191 -75 200.029C-75 190.868 -67.5732 183.441 -58.4118 183.441C-54.2187 183.441 -50.389 184.997 -47.4684 187.562C-47.4699 187.483 -47.4706 187.403 -47.4706 187.323C-47.4706 180.111 -41.624 174.264 -34.4118 174.264C-30.0788 174.264 -26.2388 176.375 -23.8633 179.623C-21.5683 167.032 -6.93949 157.323 10.7647 157.323C29.55 157.323 44.8729 168.254 45.673 181.961C48.3453 180.648 51.3513 179.911 54.5294 179.911C65.6401 179.911 74.6471 188.918 74.6471 200.029C74.6471 211.14 65.6401 220.147 54.5294 220.147C51.707 220.147 49.0204 219.566 46.5827 218.516C37.7141 226.167 19.0021 231.441 -2.64706 231.441C-26.5091 231.441 -46.8028 225.034 -54.2804 216.099Z" fill="#F7F9EA"/>
  <path d="M-54.2804 216.099L-53.5135 215.457L-53.918 214.974L-54.5287 215.13L-54.2804 216.099ZM-47.4684 187.562L-48.1284 188.314L-46.428 189.807L-46.4686 187.544L-47.4684 187.562ZM-23.8633 179.623L-24.6705 180.214L-23.2968 182.092L-22.8795 179.803L-23.8633 179.623ZM45.673 181.961L44.6748 182.019L44.7625 183.522L46.1139 182.858L45.673 181.961ZM46.5827 218.516L46.978 217.598L46.4033 217.35L45.9295 217.759L46.5827 218.516ZM-54.5287 215.13C-55.769 215.448 -57.0699 215.617 -58.4118 215.617V217.617C-56.901 217.617 -55.4333 217.427 -54.0321 217.067L-54.5287 215.13ZM-58.4118 215.617C-67.0209 215.617 -74 208.638 -74 200.029H-76C-76 209.743 -68.1255 217.617 -58.4118 217.617V215.617ZM-74 200.029C-74 191.42 -67.0209 184.441 -58.4118 184.441V182.441C-68.1255 182.441 -76 190.315 -76 200.029H-74ZM-58.4118 184.441C-54.4708 184.441 -50.8735 185.902 -48.1284 188.314L-46.8085 186.811C-49.9045 184.091 -53.9666 182.441 -58.4118 182.441V184.441ZM-46.4686 187.544C-46.4699 187.471 -46.4706 187.397 -46.4706 187.323H-48.4706C-48.4706 187.409 -48.4698 187.495 -48.4683 187.58L-46.4686 187.544ZM-46.4706 187.323C-46.4706 180.663 -41.0717 175.264 -34.4118 175.264V173.264C-42.1762 173.264 -48.4706 179.559 -48.4706 187.323H-46.4706ZM-34.4118 175.264C-30.4114 175.264 -26.8658 177.211 -24.6705 180.214L-23.0561 179.033C-25.6118 175.538 -29.7463 173.264 -34.4118 173.264V175.264ZM-22.8795 179.803C-20.7055 167.875 -6.67721 158.323 10.7647 158.323V156.323C-7.20177 156.323 -22.4312 166.189 -24.8471 179.444L-22.8795 179.803ZM10.7647 158.323C19.9703 158.323 28.2911 161.003 34.3854 165.318C40.4818 169.635 44.2966 175.541 44.6748 182.019L46.6713 181.902C46.2493 174.674 42.0026 168.261 35.5412 163.686C29.0777 159.109 20.3444 156.323 10.7647 156.323V158.323ZM46.1139 182.858C48.652 181.612 51.5075 180.911 54.5294 180.911V178.911C51.1952 178.911 48.0387 179.685 45.2322 181.063L46.1139 182.858ZM54.5294 180.911C65.0878 180.911 73.6471 189.471 73.6471 200.029H75.6471C75.6471 188.366 66.1924 178.911 54.5294 178.911V180.911ZM73.6471 200.029C73.6471 210.588 65.0878 219.147 54.5294 219.147V221.147C66.1924 221.147 75.6471 211.692 75.6471 200.029H73.6471ZM54.5294 219.147C51.8455 219.147 49.2932 218.594 46.978 217.598L46.1873 219.435C48.7476 220.537 51.5686 221.147 54.5294 221.147V219.147ZM45.9295 217.759C41.6531 221.448 34.9178 224.628 26.5018 226.882C18.1025 229.132 8.10003 230.441 -2.64706 230.441V232.441C8.25504 232.441 18.4332 231.113 27.0193 228.814C35.5887 226.518 42.6437 223.235 47.2359 219.273L45.9295 217.759ZM-2.64706 230.441C-14.4939 230.441 -25.4338 228.85 -34.3185 226.163C-43.2347 223.467 -49.958 219.706 -53.5135 215.457L-55.0473 216.741C-51.1252 221.427 -43.9629 225.337 -34.8973 228.078C-25.8002 230.829 -14.6623 232.441 -2.64706 232.441V230.441Z" fill="#4B371F" mask="url(#path-2-inside-1_22057_76)"/>
  <ellipse cx="228" cy="118" rx="70" ry="52.757" transform="rotate(-9.92491 228 118)" fill="#D9D9D9"/>
  <circle cx="378" cy="103" r="74" fill="#D9D9D9"/>
  <circle cx="304" cy="94" r="29" fill="#D9D9D9"/>
  <path d="M0 215L-0.22499 214.553L-0.5 214.692V215V794V794.5H0H391H391.5V794V151.5V151L391 151V151.5C391 151 391 151 390.999 151L390.997 151L390.987 151L390.948 151L390.795 151C390.659 151.001 390.455 151.002 390.185 151.004C389.643 151.008 388.833 151.015 387.756 151.03C385.602 151.061 382.383 151.121 378.119 151.242C369.59 151.485 356.882 151.969 340.159 152.938C306.711 154.876 257.201 158.752 192.94 166.504C128.659 174.257 80.3787 186.264 48.1633 196.335C32.0557 201.371 19.9643 205.923 11.8969 209.217C7.86325 210.864 4.83561 212.197 2.81496 213.118C1.80464 213.579 1.04607 213.937 0.539368 214.18C0.286018 214.302 0.0956369 214.395 -0.0317613 214.458C-0.0954603 214.489 -0.143414 214.513 -0.175619 214.529L-0.212116 214.547L-0.221506 214.552L-0.223987 214.553C-0.224612 214.553 -0.22499 214.553 0 215Z" fill="#B6DF5D" stroke="#4B371F"/>
  <path d="M-0.181491 683.704C5.77539 697.526 18.1539 706.9 23.5986 709.859C20.2649 699.838 11.0881 676.189 1.05055 661.764C-11.4964 643.733 -32.8059 640.194 -33.7177 648.104C-34.6294 656.014 -7.62759 666.428 -0.181491 683.704Z" fill="#14653C" stroke="black"/>
  <path d="M60.8182 672.954C42.1772 677.847 29.7841 688.845 25.9176 693.732C26.6969 679.855 42.3958 667.279 55.1881 664.749C67.9804 662.219 84.1194 666.838 60.8182 672.954Z" fill="#14653C" stroke="black"/>
  <path d="M26.4623 701.796C28.349 668.198 37.2267 649.036 41.4298 643.655C41.1919 636.776 38.4943 627.574 29.6067 645.799C18.4973 668.581 24.104 743.793 26.4623 701.796Z" fill="#14653C" stroke="black"/>
  <path d="M48.5346 569.39C11.8357 553.017 5.48403 561.408 -6.16081 569.39C-28.9836 592.461 -17.8056 611.382 5.48402 620.204C28.7737 629.026 21.0105 654.786 42.1829 661.49C59.1208 666.854 71.589 656.432 75.7058 650.551C90.4089 653.374 119.886 651.257 120.168 620.204C120.521 581.388 94.4082 589.857 48.5346 569.39Z" fill="#F08A95" stroke="black"/>
  <path d="M27.6275 572.114C14.6418 561.951 2.69112 573.525 -1.66099 580.583C-5.89547 592.934 -6.60122 604.225 18.0999 615.87C42.8011 627.515 37.8609 639.513 69.2666 645.159C100.672 650.805 114.082 604.225 96.4379 593.992C78.7942 583.759 70.6781 607.754 54.7988 604.225C38.9195 600.697 43.8597 584.817 27.6275 572.114Z" fill="#E36974"/>
  <path d="M67.3509 597.648C78.6429 607.882 69.1153 613.528 56.059 609.646C50.0045 607.846 44.9222 603.983 41.2383 600.229C46.8842 590.812 56.059 587.415 67.3509 597.648Z" fill="#EBF479"/>
  <path d="M35.5923 593.061C36.6306 594.841 38.5668 597.506 41.2383 600.229M41.2383 600.229C44.9222 603.983 50.0045 607.846 56.059 609.646C69.1153 613.528 78.6429 607.882 67.3509 597.648C56.059 587.415 46.8842 590.812 41.2383 600.229Z" stroke="black"/>
  <path d="M184.279 653.945C165.476 628.023 157.749 631.283 146.532 632.152C121.588 638.98 121.763 656.492 134.321 671.86C146.879 687.229 131.257 701.913 143.198 714.977C152.75 725.427 165.508 723.203 170.692 720.784C179.715 728.591 200.901 738.875 213.469 717.557C229.179 690.909 207.783 686.349 184.279 653.945Z" fill="#F6C5C9" stroke="black"/>
  <path d="M168.766 647.494C163.854 635.306 150.994 638.533 145.179 641.669C137.335 648.506 132.349 656.017 144.756 673.896C157.163 691.775 148.973 698.087 168.398 714.497C187.823 730.907 215.637 704.104 207.538 690.011C199.439 675.918 184.276 689.245 174.723 680.482C165.17 671.72 174.907 662.729 168.766 647.494Z" fill="#EC99A3"/>
  <path d="M186.005 680.944C189.721 692.506 180.896 692.606 173.432 684.725C169.971 681.071 168.002 676.379 166.956 672.321C174.605 668.071 182.29 669.383 186.005 680.944Z" fill="#EBF479"/>
  <path d="M165.915 665.124C165.923 666.766 166.197 669.377 166.956 672.321M166.956 672.321C168.002 676.379 169.971 681.071 173.432 684.725C180.896 692.606 189.721 692.506 186.005 680.944C182.29 669.383 174.605 668.071 166.956 672.321Z" stroke="black"/>
  <path d="M165.385 362.063C244.969 374.666 397.337 399.019 447.833 407.881C453.167 408.817 455.658 414.932 452.559 419.393C419.127 467.52 362.982 550.108 347.929 578.825C346.236 582.055 342.659 583.901 339.122 583.176L18.5861 517.441C12.7433 516.243 10.5483 509.072 14.7484 504.852C57.2551 462.147 131.067 388.836 159.412 363.808C161.062 362.351 163.213 361.719 165.385 362.063Z" fill="#FFF5A9" stroke="#4B371F"/>
  <path d="M93.5 432C176.5 445.667 397 493.5 397 493.5" stroke="#EDE392" stroke-width="2" stroke-linecap="round"/>
  <path d="M112.5 413C195.5 426.667 387.5 464 412.5 473" stroke="#EDE392" stroke-width="2" stroke-linecap="round"/>
  <path d="M131 397C214 410.667 408 444.5 422.5 454.5" stroke="#EDE392" stroke-width="2" stroke-linecap="round"/>
  <path d="M149 377C149 377 340 410 437 431" stroke="#EDE392" stroke-width="2" stroke-linecap="round"/>
  <path d="M319 575C319 575 420.5 418 431 410" stroke="#EDE392" stroke-width="2" stroke-linecap="round"/>
  <path d="M293 569C293 569 394.5 412 405 404" stroke="#EDE392" stroke-width="2" stroke-linecap="round"/>
  <path d="M394.5 559.731C393.367 563.426 391.326 571.961 392.233 576.547C393.003 580.442 393.283 586.635 393.35 590.441C393.367 591.454 392.609 592.306 391.603 592.426L306.849 602.534L267.58 582.126C266.548 581.59 266.073 580.222 266.278 579.077C266.721 576.604 266.971 572.486 267.099 568.139L244.889 565.81C243.83 565.699 243.042 564.782 243.117 563.721C243.904 552.563 246.816 534.359 253.35 532.598C257.834 531.324 269.598 529.311 280.781 531.451C284.524 532.168 287.726 532.884 290.603 533.52C298.286 533.212 315.01 531.91 320.45 529.158C327.251 525.719 337.074 524.797 341.985 529.158C345.914 532.648 348.66 540.548 349.541 544.063L394.5 559.731Z" fill="#DEC4A5"/>
  <path d="M267.18 554.763L306.849 571.196M267.18 554.763C290.603 552.088 339.869 546.203 349.541 544.063M267.18 554.763C266.802 548.267 263.93 534.738 255.468 532.598C254.723 532.41 254.018 532.418 253.35 532.598M267.18 554.763C267.235 558.214 267.242 563.317 267.099 568.139M306.849 571.196C308.36 576.7 307.479 594.381 306.849 602.534M306.849 571.196L349.541 565.612M394.5 559.731C393.367 563.426 391.326 571.961 392.233 576.547C393.003 580.442 393.283 586.635 393.35 590.441C393.367 591.454 392.609 592.306 391.603 592.426L306.849 602.534M394.5 559.731L349.541 544.063M394.5 559.731L349.541 565.612M306.849 602.534L267.58 582.126C266.548 581.59 266.073 580.222 266.278 579.077C266.721 576.604 266.971 572.486 267.099 568.139M389.589 572.725C387.825 574.636 384.073 579.451 383.166 583.426M349.541 544.063C350.045 550.021 350.75 562.673 349.541 565.612M349.541 544.063C348.66 540.548 345.914 532.648 341.985 529.158C337.074 524.797 327.251 525.719 320.45 529.158C315.01 531.91 298.286 533.212 290.603 533.52M267.099 568.139L244.889 565.81C243.83 565.699 243.042 564.782 243.117 563.721C243.904 552.563 246.816 534.359 253.35 532.598M253.35 532.598C257.834 531.324 269.598 529.311 280.781 531.451C284.524 532.168 287.726 532.884 290.603 533.52M311.383 535.273C303.914 536.392 298.47 535.258 290.603 533.52" stroke="black"/>
  <path d="M306.849 571.196L267.179 554.763C290.603 552.088 339.869 546.203 349.541 544.062L394.5 559.731L349.541 565.612L306.849 571.196Z" fill="#A38D73"/>
  <path d="M349.541 544.062C339.869 546.203 290.603 552.088 267.179 554.763L306.849 571.196L349.541 565.612M349.541 544.062L394.5 559.731L349.541 565.612M349.541 544.062C350.045 550.021 350.75 562.673 349.541 565.612" stroke="black" stroke-linejoin="round"/>
  <mask id="mask0_22057_76" style="mask-type:alpha" maskUnits="userSpaceOnUse" x="273" y="515" width="119" height="56">
    <path d="M306.485 570.359L274.592 557.704C272.658 556.937 272.961 553.679 274.96 553.104C300.261 545.833 344.625 519.088 355.741 515.336C356.454 515.095 357.207 515.366 357.685 515.947L391.083 556.539C392.081 557.752 391.355 559.591 389.796 559.793L307.48 570.483C307.143 570.527 306.801 570.484 306.485 570.359Z" fill="#DEC4A5"/>
  </mask>
  <g mask="url(#mask0_22057_76)">
    <circle cx="300.233" cy="561.011" r="11.8444" fill="#C9615F" stroke="black"/>
    <path d="M299.111 553.156C299.672 553.343 301.131 553.605 302.478 553.156" stroke="black" stroke-linecap="round" stroke-linejoin="round"/>
    <circle cx="318.189" cy="566.623" r="11.8444" fill="#C9615F" stroke="black"/>
    <path d="M317.066 558.768C317.628 558.955 319.086 559.216 320.433 558.768" stroke="black" stroke-linecap="round" stroke-linejoin="round"/>
    <rect x="334.4" y="540.189" width="34.9111" height="38.2778" rx="8.5" fill="#8ED4D0" stroke="black"/>
    <path d="M364.822 541.373C364.822 541.876 364.552 542.415 363.932 542.964C363.313 543.514 362.388 544.031 361.202 544.476C358.834 545.363 355.53 545.923 351.855 545.923C348.181 545.923 344.876 545.363 342.509 544.476C341.323 544.031 340.398 543.514 339.779 542.964C339.159 542.415 338.889 541.876 338.889 541.373V532.334H364.822V541.373Z" fill="#DD6F37" stroke="black"/>
    <path d="M364.822 532.395C364.822 532.898 364.552 533.437 363.932 533.986C363.313 534.535 362.388 535.053 361.202 535.497C358.834 536.385 355.53 536.945 351.855 536.945C348.181 536.945 344.876 536.385 342.509 535.497C341.323 535.053 340.398 534.535 339.779 533.986C339.159 533.437 338.889 532.898 338.889 532.395C338.889 531.892 339.159 531.353 339.779 530.803C340.398 530.254 341.323 529.737 342.509 529.292C344.876 528.404 348.181 527.845 351.855 527.845C355.53 527.845 358.834 528.404 361.202 529.292C362.388 529.737 363.313 530.254 363.932 530.803C364.552 531.353 364.822 531.892 364.822 532.395Z" fill="#CF8864" stroke="black"/>
  </g>
  <path d="M273.56 537.043C269.966 536.464 268.63 539.894 268.221 542.436L269.934 543.165C269.934 543.165 271.64 542.987 272.683 542.49C275.833 540.99 275.739 537.393 273.56 537.043Z" fill="white" stroke="black" stroke-linecap="round"/>
  <path d="M262.088 545.813C262.368 544.07 263.645 543.083 264.248 542.808C267.517 543.334 270.961 542.771 272.226 541.857C273.49 540.943 277.673 542.734 276.514 546.46C275.355 550.185 270.19 551.03 265.832 550.328C262.345 549.767 262.282 548.08 261.912 546.903L260.366 546.095L262.088 545.813Z" fill="#FEEF48" stroke="black" stroke-linecap="round"/>
  <path d="M262.088 545.814C262.369 544.071 263.704 542.721 265.338 542.984C265.338 542.984 264.132 543.534 263.722 546.077C263.102 549.929 265.832 550.329 265.832 550.329C265.832 550.329 261.931 550.26 261.912 546.904L260.366 546.096L262.088 545.814Z" fill="black"/>
  <path d="M266.971 543.247C266.526 544.852 265.546 547.935 267.008 549.959" stroke="black" stroke-linecap="round"/>
  <path d="M270.442 542.688C269.998 544.293 270.022 548.768 272.461 549.719" stroke="black" stroke-linecap="round"/>
  <path d="M266.524 536.574C270.151 536.264 270.239 541.271 269.83 543.813L267.974 543.967C267.974 543.967 266.411 543.263 265.576 542.464C263.056 540.05 261.991 536.962 266.524 536.574Z" fill="white" stroke="black" stroke-linecap="round"/>
  <path d="M272.317 543.549C272.071 542.765 271.941 541.03 273.388 540.369" stroke="black" stroke-linecap="round"/>
  <path d="M275.406 542.928C275.5 542.347 275.919 541.133 276.847 540.924" stroke="black" stroke-linecap="round"/>
  <path d="M329.699 570.877L339.025 569.615L340.55 578.593C340.55 580.588 340.245 586.299 339.025 593.182C338.434 596.513 340.261 600.856 342.838 604.987C358.395 607.25 369.003 603.546 372.362 601.411C369.507 596.326 365.872 590.63 366.097 585.326C366.232 582.16 365.976 578.732 365.572 575.6C365.216 572.845 364.745 570.318 364.324 568.401C364.07 567.244 364.826 566.087 365.996 565.902L375.63 564.378C376.049 566.433 376.652 570.113 377.009 574.104C377.302 577.379 377.43 580.862 377.155 583.83C376.607 589.74 380.73 597.096 383.51 600.976C384.023 601.692 384.059 602.654 383.547 603.371C381.132 606.757 377.025 612.168 374.867 613.756C372.427 615.551 358.344 616 351.608 616C347.922 614.753 340.245 612.11 339.025 611.511C337.499 610.763 326.442 595.8 327.204 592.433C327.814 589.74 327.967 582.583 327.967 579.341V572.859C327.967 571.858 328.707 571.011 329.699 570.877Z" fill="#CED2A0"/>
  <path d="M339.025 569.615L329.699 570.877C328.707 571.011 327.967 571.858 327.967 572.859V579.341M339.025 569.615L340.55 578.593M339.025 569.615L327.967 579.341M340.55 578.593L327.967 579.341M340.55 578.593L329.873 572.608M340.55 578.593C340.55 580.588 340.245 586.299 339.025 593.182C338.434 596.513 340.261 600.856 342.838 604.987M327.967 579.341C327.967 582.583 327.814 589.74 327.204 592.433C326.442 595.8 337.499 610.763 339.025 611.511C340.245 612.11 347.922 614.753 351.608 616M351.608 616C358.344 616 372.427 615.551 374.867 613.756C377.025 612.168 381.132 606.757 383.547 603.371C384.059 602.654 384.023 601.692 383.51 600.976C380.73 597.096 376.607 589.74 377.155 583.83C377.43 580.862 377.302 577.379 377.009 574.104M351.608 616C349.181 613.555 345.584 609.391 342.838 604.987M375.63 564.378L365.996 565.902C364.826 566.087 364.07 567.244 364.324 568.401C364.745 570.318 365.216 572.845 365.572 575.6M375.63 564.378C376.049 566.433 376.652 570.113 377.009 574.104M375.63 564.378L367.241 574.104M375.63 610.763C375.942 608.161 374.339 604.933 372.362 601.411M372.362 601.411C369.507 596.326 365.872 590.63 366.097 585.326C366.232 582.16 365.976 578.732 365.572 575.6M372.362 601.411C369.003 603.546 358.395 607.25 342.838 604.987M365.572 575.6L377.009 574.104M365.572 567.371L375.63 572.608" stroke="black" stroke-linejoin="round"/>
  <path d="M319.978 600.978H325.834C326.938 600.978 327.834 601.873 327.834 602.978L327.834 605.711C327.834 606.815 326.938 607.711 325.834 607.711H322.999" stroke="black" stroke-width="2" stroke-linecap="round" stroke-linejoin="round"/>
  <path d="M304.928 592C295.157 592 287.434 594.413 287.434 597.39C287.434 598.326 288.021 599.207 289.399 599.974L292.348 613.659C292.937 615.006 296.751 617.316 304.928 617.316C313.105 617.316 316.132 616.354 317.901 614.429L321.201 599.507C322.114 598.857 322.619 598.141 322.619 597.39C322.619 594.413 314.698 592 304.928 592Z" fill="#D9D9D9"/>
  <path d="M289.399 599.974C288.021 599.207 287.434 598.326 287.434 597.39C287.434 594.413 295.157 592 304.928 592C314.698 592 322.619 594.413 322.619 597.39C322.619 599.6 318.252 601.499 312.004 602.331M289.399 599.974L292.348 613.659C292.937 615.006 296.751 617.316 304.928 617.316C313.105 617.316 316.132 616.354 317.901 614.429L321.201 599.507M289.399 599.974C290.695 600.695 292.516 601.316 294.706 601.789" stroke="black" stroke-linecap="round" stroke-linejoin="round"/>
  <path d="M318.62 597.677C318.62 597.857 318.454 598.18 317.759 598.579C317.101 598.956 316.116 599.313 314.855 599.618C312.341 600.228 308.843 600.61 304.96 600.61C301.078 600.61 297.579 600.228 295.065 599.618C293.805 599.313 292.82 598.956 292.162 598.579C291.466 598.18 291.3 597.857 291.3 597.677C291.3 597.496 291.466 597.173 292.162 596.774C292.82 596.397 293.805 596.041 295.065 595.735C297.579 595.126 301.078 594.744 304.96 594.744C308.843 594.744 312.341 595.126 314.855 595.735C316.116 596.041 317.101 596.397 317.759 596.774C318.454 597.173 318.62 597.496 318.62 597.677Z" fill="#725D41" stroke="black"/>
  <path d="M299.382 597.677C300.956 597.391 304.875 596.905 307.964 597.248" stroke="white" stroke-linecap="round" stroke-linejoin="round"/>
</svg>
