<svg width="20" height="20" viewBox="0 0 20 20" fill="none" xmlns="http://www.w3.org/2000/svg">
  <circle cx="10" cy="10" r="9.5" fill="#FFB050" stroke="#4B371F"/>
  <circle cx="10.0002" cy="9.9997" r="6.89131" fill="#FFCF23" stroke="#AF7026"/>
  <path d="M12.3657 6.05087C11.9551 5.90337 11.5092 5.8848 11.0877 5.99764L11.0874 5.99771C10.733 6.0925 10.4088 6.27685 10.1461 6.53305C9.96537 6.70937 9.81789 6.91565 9.70972 7.14187C9.45923 7.18275 9.21345 7.24862 8.97608 7.33847C8.81637 7.22906 8.64213 7.14149 8.45795 7.07857C8.16559 6.97868 7.85508 6.94322 7.54774 6.97462C7.24039 7.00602 6.94347 7.10354 6.67735 7.26048C6.41123 7.41742 6.18222 7.63007 6.00601 7.88385C5.8298 8.13762 5.71058 8.42651 5.65651 8.73069C5.60245 9.03487 5.61483 9.34715 5.69279 9.6461C5.77076 9.94505 5.91247 10.2236 6.10821 10.4626C6.23151 10.6132 6.37442 10.7459 6.53272 10.8573C6.53026 11.3571 6.62684 11.8535 6.81805 12.3176C7.05013 12.8808 7.41473 13.3797 7.8809 13.7719C8.34706 14.164 8.90101 14.4379 9.49566 14.5701C10.0903 14.7023 10.7081 14.689 11.2965 14.5314C11.8849 14.3737 12.4266 14.0763 12.8754 13.6645C13.3243 13.2526 13.6671 12.7385 13.8748 12.1658C14.0824 11.5931 14.1487 10.9788 14.0681 10.375C14.0016 9.87747 13.837 9.39925 13.585 8.96765C13.7192 8.67822 13.7876 8.3611 13.7835 8.03924C13.7779 7.60284 13.6391 7.17858 13.3857 6.82323C13.1323 6.46788 12.7765 6.1984 12.3657 6.05087Z" fill="#FFB050" stroke="#AF7026"/>
  <path d="M4.78271 8.26125C4.92764 7.68154 5.65228 6.26125 7.39141 5.21777" stroke="white" stroke-linecap="round" stroke-linejoin="round"/>
</svg>
