<svg width="118" height="59" viewBox="0 0 118 59" fill="none" xmlns="http://www.w3.org/2000/svg">
  <mask id="path-1-inside-1_24346_4419" fill="white">
    <path fill-rule="evenodd" clip-rule="evenodd" d="M16.3347 46.4586C15.2934 46.7256 14.2021 46.8675 13.0776 46.8675C5.85503 46.8675 0 41.0125 0 33.7899C0 26.5674 5.85503 20.7123 13.0776 20.7123C16.3832 20.7123 19.4024 21.9388 21.7049 23.9615C21.7037 23.8988 21.7032 23.836 21.7032 23.773C21.7032 18.0872 26.3125 13.4779 31.9983 13.4779C35.4142 13.4779 38.4415 15.1415 40.3143 17.7027C42.1236 7.77634 53.6565 0.12207 67.6138 0.12207C82.4235 0.12207 94.5035 8.73974 95.1343 19.5455C97.2411 18.5108 99.6109 17.9298 102.116 17.9298C110.876 17.9298 117.976 25.0306 117.976 33.7899C117.976 42.5492 110.876 49.6499 102.116 49.6499C99.8914 49.6499 97.7734 49.1917 95.8516 48.3646C88.8599 54.3963 74.108 58.5538 57.0406 58.5538C38.2286 58.5538 22.2297 53.503 16.3347 46.4586Z"/>
  </mask>
  <path fill-rule="evenodd" clip-rule="evenodd" d="M16.3347 46.4586C15.2934 46.7256 14.2021 46.8675 13.0776 46.8675C5.85503 46.8675 0 41.0125 0 33.7899C0 26.5674 5.85503 20.7123 13.0776 20.7123C16.3832 20.7123 19.4024 21.9388 21.7049 23.9615C21.7037 23.8988 21.7032 23.836 21.7032 23.773C21.7032 18.0872 26.3125 13.4779 31.9983 13.4779C35.4142 13.4779 38.4415 15.1415 40.3143 17.7027C42.1236 7.77634 53.6565 0.12207 67.6138 0.12207C82.4235 0.12207 94.5035 8.73974 95.1343 19.5455C97.2411 18.5108 99.6109 17.9298 102.116 17.9298C110.876 17.9298 117.976 25.0306 117.976 33.7899C117.976 42.5492 110.876 49.6499 102.116 49.6499C99.8914 49.6499 97.7734 49.1917 95.8516 48.3646C88.8599 54.3963 74.108 58.5538 57.0406 58.5538C38.2286 58.5538 22.2297 53.503 16.3347 46.4586Z" fill="#F7F9EA"/>
  <path d="M16.3347 46.4586L17.1016 45.8169L16.697 45.3334L16.0864 45.49L16.3347 46.4586ZM21.7049 23.9615L21.0449 24.7128L22.7453 26.2066L22.7047 23.9436L21.7049 23.9615ZM40.3143 17.7027L39.5071 18.293L40.8808 20.1717L41.2981 17.8821L40.3143 17.7027ZM95.1343 19.5455L94.136 19.6037L94.2237 21.1067L95.5751 20.4431L95.1343 19.5455ZM95.8516 48.3646L96.2469 47.446L95.6721 47.1986L95.1983 47.6074L95.8516 48.3646ZM16.0864 45.49C15.1256 45.7363 14.1176 45.8675 13.0776 45.8675V47.8675C14.2865 47.8675 15.4613 47.7149 16.583 47.4273L16.0864 45.49ZM13.0776 45.8675C6.40732 45.8675 1 40.4602 1 33.7899H-1C-1 41.5647 5.30275 47.8675 13.0776 47.8675V45.8675ZM1 33.7899C1 27.1196 6.40732 21.7123 13.0776 21.7123V19.7123C5.30275 19.7123 -1 26.0151 -1 33.7899H1ZM13.0776 21.7123C16.1311 21.7123 18.9179 22.8442 21.0449 24.7128L22.3649 23.2102C19.8869 21.0334 16.6353 19.7123 13.0776 19.7123V21.7123ZM22.7047 23.9436C22.7037 23.8868 22.7032 23.83 22.7032 23.773H20.7032C20.7032 23.842 20.7038 23.9108 20.705 23.9794L22.7047 23.9436ZM22.7032 23.773C22.7032 18.6394 26.8647 14.4779 31.9983 14.4779V12.4779C25.7602 12.4779 20.7032 17.5349 20.7032 23.773H22.7032ZM31.9983 14.4779C35.0817 14.4779 37.8145 15.9782 39.5071 18.293L41.1215 17.1125C39.0686 14.3048 35.7467 12.4779 31.9983 12.4779V14.4779ZM41.2981 17.8821C42.9864 8.61924 53.9187 1.12207 67.6138 1.12207V-0.87793C53.3942 -0.87793 41.2608 6.93344 39.3305 17.5234L41.2981 17.8821ZM67.6138 1.12207C74.8316 1.12207 81.3477 3.22329 86.1132 6.59773C90.8808 9.97361 93.8425 14.5762 94.136 19.6037L96.1326 19.4872C95.7953 13.709 92.4016 8.5999 87.269 4.9655C82.1344 1.32968 75.2057 -0.87793 67.6138 -0.87793V1.12207ZM95.5751 20.4431C97.5477 19.4743 99.7671 18.9298 102.116 18.9298V16.9298C99.4547 16.9298 96.9344 17.5474 94.6935 18.6479L95.5751 20.4431ZM102.116 18.9298C110.323 18.9298 116.976 25.5829 116.976 33.7899H118.976C118.976 24.4783 111.428 16.9298 102.116 16.9298V18.9298ZM116.976 33.7899C116.976 41.9969 110.323 48.6499 102.116 48.6499V50.6499C111.428 50.6499 118.976 43.1014 118.976 33.7899H116.976ZM102.116 48.6499C100.03 48.6499 98.0462 48.2205 96.2469 47.446L95.4562 49.2831C97.5006 50.163 99.7529 50.6499 102.116 50.6499V48.6499ZM95.1983 47.6074C91.8605 50.487 86.5844 52.9824 79.9658 54.7552C73.3638 56.5235 65.4968 57.5538 57.0406 57.5538V59.5538C65.6518 59.5538 73.6945 58.5054 80.4832 56.6871C87.2553 54.8732 92.851 52.2739 96.5048 49.1217L95.1983 47.6074ZM57.0406 57.5538C47.7188 57.5538 39.115 56.3018 32.1332 54.1907C25.1198 52.07 19.8658 49.12 17.1016 45.8169L15.5678 47.1004C18.6986 50.8416 24.3916 53.9392 31.5543 56.1051C38.7487 58.2804 47.5504 59.5538 57.0406 59.5538V57.5538Z" fill="#4B371F" mask="url(#path-1-inside-1_24346_4419)"/>
</svg>
