<svg width="178" height="140" viewBox="0 0 178 140" fill="none" xmlns="http://www.w3.org/2000/svg">
<path fill-rule="evenodd" clip-rule="evenodd" d="M140.703 128.954C141.192 129.013 141.699 129.076 142.222 129.141C151.703 130.314 166.455 132.139 170.547 127.899C172.522 125.852 172.048 118.203 170.317 108.213C166.793 117.616 156.971 125.08 140.703 128.954ZM164.982 83.8566C161.895 71.5542 158.379 59.2917 155.831 50.8816L152.734 52.9505C156.44 62.0861 158.859 71.689 160.389 80.8669C160.523 80.9449 160.663 81.0261 160.81 81.1108C161.949 81.7693 163.451 82.6377 164.982 83.8566Z" fill="#291B28"/>
<path d="M142.222 129.141L142.345 128.148H142.345L142.222 129.141ZM140.703 128.954L140.471 127.981C140.001 128.093 139.678 128.526 139.705 129.01C139.732 129.493 140.101 129.888 140.582 129.946L140.703 128.954ZM170.547 127.899L169.827 127.204L170.547 127.899ZM170.317 108.213L171.303 108.042C171.226 107.597 170.86 107.259 170.411 107.217C169.961 107.175 169.539 107.439 169.381 107.862L170.317 108.213ZM155.831 50.8816L156.788 50.5916C156.696 50.2886 156.466 50.0469 156.168 49.9401C155.87 49.8334 155.539 49.8741 155.276 50.05L155.831 50.8816ZM164.982 83.8566L164.359 84.6389C164.695 84.906 165.163 84.9295 165.523 84.6974C165.884 84.4652 166.056 84.0291 165.952 83.6132L164.982 83.8566ZM152.734 52.9505L152.178 52.1189C151.784 52.3824 151.629 52.8868 151.807 53.3264L152.734 52.9505ZM160.389 80.8669L159.402 81.0312C159.451 81.3245 159.628 81.5808 159.885 81.7306L160.389 80.8669ZM160.81 81.1108L160.309 81.9765L160.309 81.9765L160.81 81.1108ZM142.345 128.148C141.822 128.084 141.314 128.021 140.824 127.961L140.582 129.946C141.069 130.006 141.576 130.068 142.099 130.133L142.345 128.148ZM169.827 127.204C169.02 128.041 167.579 128.671 165.539 129.065C163.527 129.453 161.079 129.586 158.419 129.55C153.099 129.478 147.096 128.736 142.345 128.148L142.099 130.133C146.828 130.718 152.943 131.476 158.392 131.55C161.116 131.587 163.716 131.454 165.918 131.029C168.091 130.609 170.028 129.877 171.267 128.593L169.827 127.204ZM169.332 108.383C170.194 113.361 170.736 117.715 170.822 121.06C170.865 122.735 170.793 124.12 170.603 125.189C170.408 126.288 170.112 126.909 169.827 127.204L171.267 128.593C171.969 127.865 172.355 126.762 172.572 125.539C172.795 124.286 172.867 122.751 172.822 121.009C172.732 117.52 172.171 113.055 171.303 108.042L169.332 108.383ZM169.381 107.862C166.022 116.823 156.58 124.145 140.471 127.981L140.935 129.926C157.362 126.015 167.564 118.409 171.254 108.564L169.381 107.862ZM154.874 51.1715C157.419 59.5703 160.93 71.8169 164.012 84.1L165.952 83.6132C162.86 71.2916 159.339 59.0131 156.788 50.5916L154.874 51.1715ZM153.289 53.782L156.386 51.7132L155.276 50.05L152.178 52.1189L153.289 53.782ZM151.807 53.3264C155.48 62.3787 157.882 71.9078 159.402 81.0312L161.375 80.7025C159.837 71.4703 157.401 61.7934 153.66 52.5745L151.807 53.3264ZM159.885 81.7306C160.021 81.8098 160.163 81.8921 160.309 81.9765L161.31 80.245C161.163 80.1601 161.024 80.0799 160.893 80.0031L159.885 81.7306ZM160.309 81.9765C161.449 82.6356 162.893 83.4713 164.359 84.6389L165.605 83.0743C164.01 81.804 162.449 80.9031 161.31 80.245L160.309 81.9765ZM160.783 79.9477C159.524 79.4082 156.707 78.467 153.314 78.9389C149.875 79.4171 145.964 81.3316 142.564 86.3022L144.214 87.4315C147.313 82.9021 150.736 81.3166 153.589 80.9198C156.488 80.5167 158.92 81.3255 159.995 81.786L160.783 79.9477Z" fill="black"/>
<path d="M19.0839 121.935L46.3172 138.247C56.2267 137.426 55.4459 132.918 54.5971 128.017L54.5829 127.935C51.9879 114.143 45.7892 87.0463 42.805 68.098C65.8293 51.1482 127.522 49.2161 156.334 51.8099C152.874 40.8104 146.459 29.1847 134.834 20.9351C120.302 10.6231 78.1762 -3.11486 38.0153 22.1835C-8.02423 51.1849 11.818 102.342 19.0839 121.935Z" fill="#291B28" stroke="black" stroke-width="2" stroke-linejoin="round"/>
<path d="M11.9564 112.684L37.8338 127.564C48.1139 126.739 46.1325 121.506 45.3293 117.253C42.6523 103.46 37.9122 81.0464 34.8335 62.0981C58.5863 45.1483 123.735 41.2162 153.459 43.8101C149.89 32.8105 142.989 23.6315 130.995 15.3819C116.004 5.06993 73.3871 -9.11473 31.9555 16.1836C-15.5406 45.1851 4.46062 93.0909 11.9564 112.684Z" fill="#EA343C" stroke="black" stroke-width="2" stroke-linejoin="round"/>
<path d="M54.5367 40.8415L51.4884 33.0141L55.3127 31.5249C56.2967 31.1417 57.1073 31.0406 57.7445 31.2217C58.3891 31.4 58.8304 31.7947 59.0685 32.406C59.2281 32.816 59.2668 33.213 59.1846 33.5971C59.0994 33.9736 58.9136 34.3121 58.6271 34.6126C58.3406 34.913 57.97 35.1518 57.5153 35.3289L57.5492 34.7877C58.0412 34.5961 58.5092 34.5083 58.9533 34.5242C59.3944 34.5327 59.7803 34.6528 60.111 34.8847C60.4491 35.1136 60.7067 35.4554 60.8838 35.9101C61.1451 36.581 61.0851 37.2097 60.7039 37.796C60.3197 38.3748 59.6133 38.8646 58.5846 39.2652L54.5367 40.8415ZM55.8057 38.7762L57.9191 37.9532C58.3888 37.7703 58.7138 37.5579 58.8943 37.3159C59.0793 37.0636 59.1065 36.7696 58.9759 36.4342C58.8482 36.1062 58.6308 35.9118 58.3239 35.8511C58.0214 35.78 57.6354 35.8358 57.1658 36.0187L54.9182 36.894L54.4043 35.5745L56.3388 34.8212C56.7786 34.6499 57.0851 34.4447 57.2581 34.2056C57.4357 33.9562 57.4635 33.6749 57.3416 33.3618C57.2226 33.0562 57.0148 32.8753 56.7181 32.8191C56.4261 32.7525 56.0601 32.8049 55.6203 32.9762L53.82 33.6772L55.8057 38.7762Z" fill="#FFE683"/>
<path d="M63.8765 32.1191L67.7497 30.9561L68.1845 32.4042L64.3113 33.5672L63.8765 32.1191ZM65.0083 35.3877L69.3872 34.0728L69.8358 35.5669L63.6066 37.4374L61.1909 29.3922L67.2707 27.5666L67.7193 29.0607L63.4899 30.3307L65.0083 35.3877Z" fill="#FFE683"/>
<path d="M71.7952 35.0462L69.9163 26.859L73.4601 26.0457C74.1931 25.8775 74.8524 25.8534 75.4381 25.9734C76.022 26.0856 76.5092 26.3309 76.8997 26.7091C77.2902 27.0873 77.5561 27.5845 77.6975 28.2004C77.8371 28.8086 77.8136 29.3681 77.6271 29.8787C77.4388 30.3816 77.1064 30.8108 76.6299 31.1664C76.1534 31.522 75.5486 31.7839 74.8157 31.9521L72.3244 32.5239L72.976 31.5002L73.69 34.6113L71.7952 35.0462ZM76.9999 33.8517L74.2713 31.3506L76.2947 30.8863L79.0467 33.3819L76.9999 33.8517ZM73.0243 31.7107L71.9782 31.0151L74.3642 30.4675C74.9489 30.3333 75.357 30.1083 75.5882 29.7926C75.8176 29.4691 75.8814 29.0851 75.7794 28.6407C75.6756 28.1884 75.4508 27.8706 75.105 27.6873C74.7593 27.504 74.294 27.4795 73.7092 27.6137L71.3232 28.1613L71.9587 27.0674L73.0243 31.7107Z" fill="#FFE683"/>
<path d="M79.6468 33.2406L81.9823 24.3455L83.877 24.0348L88.9427 31.7163L86.9296 32.0464L82.698 25.2253L83.4559 25.101L81.6126 32.9183L79.6468 33.2406ZM81.2029 31.1614L81.4733 29.6214L85.7363 28.9223L86.4962 30.2935L81.2029 31.1614Z" fill="#FFE683"/>
<path d="M94.1412 31.3254C93.4966 31.3916 92.8851 31.3499 92.3068 31.2002C91.7356 31.0417 91.2271 30.7884 90.7811 30.4401C90.3352 30.0919 89.9699 29.667 89.6851 29.1655C89.4083 28.6631 89.2376 28.0976 89.173 27.4689C89.1085 26.8402 89.1606 26.2518 89.3295 25.7037C89.5063 25.1548 89.7776 24.6645 90.1434 24.2328C90.5171 23.8004 90.9679 23.4525 91.4958 23.1891C92.0228 22.9178 92.6126 22.7487 93.2652 22.6816C93.9894 22.6072 94.655 22.6675 95.2621 22.8625C95.8764 23.0487 96.4074 23.3641 96.8552 23.8086L95.7314 25.0821C95.4114 24.7853 95.0682 24.5753 94.7017 24.4521C94.3343 24.321 93.9438 24.2766 93.5299 24.3192C93.14 24.3592 92.7884 24.4597 92.4752 24.6205C92.162 24.7814 91.8983 24.9934 91.6841 25.2567C91.4699 25.52 91.3119 25.8217 91.2101 26.1619C91.1163 26.5013 91.0899 26.8699 91.1307 27.2678C91.1716 27.6657 91.2725 28.0213 91.4333 28.3345C91.6022 28.6468 91.8182 28.9101 92.0815 29.1244C92.3447 29.3386 92.6461 29.4926 92.9854 29.5864C93.3248 29.6802 93.6894 29.7071 94.0794 29.667C94.4932 29.6245 94.867 29.5057 95.2008 29.3105C95.5338 29.1074 95.8264 28.824 96.0785 28.4604L97.4377 29.4788C97.0897 30.0051 96.6343 30.4259 96.0716 30.741C95.5168 31.0554 94.8734 31.2501 94.1412 31.3254Z" fill="#FFE683"/>
<path d="M98.7456 30.7848L98.2225 22.4011L100.163 22.2801L100.686 30.6638L98.7456 30.7848Z" fill="#FFE683"/>
<path d="M101.938 30.5185L105.541 22.0572L107.461 22.0251L111.357 30.3612L109.317 30.3953L106.121 23.0316L106.889 23.0188L103.93 30.4853L101.938 30.5185ZM103.78 28.6875L104.271 27.2031L108.59 27.131L109.143 28.5979L103.78 28.6875Z" fill="#FFE683"/>
<path d="M116.833 30.7673C116.17 30.732 115.564 30.5955 115.016 30.358C114.476 30.113 114.009 29.7837 113.615 29.3701C113.228 28.9569 112.933 28.4806 112.729 27.941C112.534 27.4018 112.453 26.8167 112.486 26.1856C112.52 25.5544 112.663 24.9812 112.914 24.4659C113.174 23.951 113.522 23.5089 113.958 23.1396C114.395 22.7702 114.898 22.4966 115.468 22.3187C116.039 22.1328 116.66 22.0578 117.331 22.0935C118.074 22.1331 118.734 22.2925 119.312 22.5716C119.898 22.8512 120.382 23.2375 120.765 23.7305L119.457 24.8145C119.171 24.4788 118.852 24.2254 118.5 24.0545C118.149 23.8756 117.762 23.7748 117.339 23.7523C116.931 23.7306 116.556 23.7747 116.214 23.8846C115.872 23.9946 115.57 24.1628 115.31 24.3892C115.057 24.6161 114.855 24.8897 114.701 25.21C114.556 25.5307 114.473 25.8908 114.452 26.2903C114.431 26.6817 114.475 27.0446 114.586 27.3789C114.704 27.7137 114.877 28.0113 115.103 28.2717C115.338 28.5246 115.616 28.7236 115.936 28.8689C116.265 29.0146 116.629 29.0981 117.029 29.1194C117.412 29.1398 117.787 29.0997 118.153 28.999C118.527 28.8908 118.894 28.698 119.253 28.4207L120.281 29.8815C119.807 30.2007 119.262 30.4361 118.645 30.5874C118.036 30.7393 117.432 30.7992 116.833 30.7673ZM118.521 29.5353L118.689 26.3838L120.462 26.4783L120.281 29.8815L118.521 29.5353Z" fill="#FFE683"/>
<path d="M121.665 30.8851L126.5 23.0623L128.403 23.3195L131 32.1469L128.979 31.8737L126.928 24.113L127.689 24.2159L123.639 31.152L121.665 30.8851ZM123.761 29.3521L124.47 27.9585L128.751 28.5372L129.077 30.0706L123.761 29.3521Z" fill="#FFE683"/>
<path d="M32.2886 103.315L22.8764 53.4636C34.0232 45.5818 62.5154 31.8826 89.9231 27.7153C114.753 23.9399 135.524 26.6268 148.447 28.2984C149.239 28.4009 150.002 28.4997 150.735 28.5929C153.699 28.9697 156.41 30.535 158.231 32.9078C162.287 38.1917 167.751 45.317 171.697 55.4602C175.638 65.5925 178.08 78.7789 175.996 96.1658C175.542 99.9581 172.729 103.039 168.99 103.916C150.514 108.248 125.784 111.469 100.862 111.892C76.1593 112.311 51.356 109.98 32.2886 103.315Z" fill="url(#paint0_linear_1507_405)" fill-opacity="0.8" stroke="url(#paint1_linear_1507_405)" stroke-width="2"/>
<ellipse cx="25.0191" cy="55.7764" rx="15.5699" ry="17.5913" fill="#FFE683" stroke="black" stroke-width="2"/>
<ellipse cx="21.0193" cy="55.7764" rx="12.7537" ry="14.4094" fill="#FFE683" stroke="black" stroke-width="2"/>
<ellipse cx="20.0186" cy="55.7764" rx="7.96582" ry="9" fill="#FF9461" stroke="black" stroke-width="2"/>
<defs>
<linearGradient id="paint0_linear_1507_405" x1="99.7665" y1="43.1851" x2="117.959" y2="101.185" gradientUnits="userSpaceOnUse">
<stop/>
<stop offset="1" stop-color="white" stop-opacity="0.6"/>
</linearGradient>
<linearGradient id="paint1_linear_1507_405" x1="99.7665" y1="20.1851" x2="108.959" y2="68.8697" gradientUnits="userSpaceOnUse">
<stop/>
<stop offset="1" stop-color="#666666" stop-opacity="0"/>
</linearGradient>
</defs>
</svg>
