<svg width="361" height="340" viewBox="0 0 361 340" fill="none" xmlns="http://www.w3.org/2000/svg">
<path fill-rule="evenodd" clip-rule="evenodd" d="M188.314 162.837C188.803 162.896 189.31 162.959 189.833 163.024C199.314 164.197 214.067 166.022 218.158 161.782C220.134 159.735 219.659 152.086 217.929 142.096C214.404 151.499 204.583 158.963 188.314 162.837ZM212.593 117.74C209.506 105.437 205.99 93.1747 203.442 84.7646L200.345 86.8335C204.051 95.9691 206.471 105.572 208 114.75C208.134 114.828 208.274 114.909 208.421 114.994C209.56 115.652 211.062 116.521 212.593 117.74Z" fill="#291B28"/>
<path d="M189.833 163.024L189.956 162.031H189.956L189.833 163.024ZM188.314 162.837L188.083 161.864C187.612 161.976 187.289 162.409 187.316 162.893C187.343 163.376 187.713 163.771 188.193 163.829L188.314 162.837ZM218.158 161.782L217.439 161.087L218.158 161.782ZM217.929 142.096L218.914 141.925C218.837 141.48 218.471 141.142 218.022 141.1C217.573 141.058 217.151 141.322 216.992 141.745L217.929 142.096ZM203.442 84.7646L204.399 84.4747C204.308 84.1716 204.078 83.93 203.78 83.8232C203.481 83.7164 203.15 83.7572 202.887 83.9331L203.442 84.7646ZM212.593 117.74L211.97 118.522C212.306 118.789 212.774 118.813 213.135 118.58C213.495 118.348 213.668 117.912 213.563 117.496L212.593 117.74ZM200.345 86.8335L199.789 86.002C199.395 86.2655 199.24 86.7699 199.418 87.2095L200.345 86.8335ZM208 114.75L207.014 114.914C207.063 115.208 207.239 115.464 207.496 115.614L208 114.75ZM208.421 114.994L207.92 115.86L207.92 115.86L208.421 114.994ZM189.956 162.031C189.433 161.967 188.925 161.904 188.436 161.844L188.193 163.829C188.681 163.889 189.187 163.951 189.711 164.016L189.956 162.031ZM217.439 161.087C216.631 161.924 215.19 162.554 213.15 162.948C211.138 163.336 208.691 163.469 206.03 163.433C200.71 163.361 194.708 162.619 189.956 162.031L189.711 164.016C194.44 164.601 200.554 165.359 206.003 165.433C208.728 165.47 211.328 165.337 213.529 164.912C215.702 164.492 217.639 163.76 218.878 162.476L217.439 161.087ZM216.943 142.267C217.806 147.244 218.348 151.598 218.434 154.943C218.477 156.618 218.404 158.004 218.215 159.072C218.019 160.171 217.724 160.792 217.439 161.087L218.878 162.476C219.581 161.748 219.966 160.645 220.184 159.422C220.406 158.169 220.478 156.634 220.433 154.892C220.343 151.403 219.782 146.938 218.914 141.925L216.943 142.267ZM216.992 141.745C213.633 150.706 204.191 158.028 188.083 161.864L188.546 163.809C204.974 159.898 215.175 152.292 218.865 142.447L216.992 141.745ZM202.485 85.0546C205.03 93.4533 208.541 105.7 211.623 117.983L213.563 117.496C210.471 105.175 206.951 92.8961 204.399 84.4747L202.485 85.0546ZM200.9 87.6651L203.998 85.5962L202.887 83.9331L199.789 86.002L200.9 87.6651ZM199.418 87.2095C203.091 96.2618 205.493 105.791 207.014 114.914L208.987 114.586C207.448 105.353 205.012 95.6765 201.272 86.4576L199.418 87.2095ZM207.496 115.614C207.632 115.693 207.774 115.775 207.92 115.86L208.921 114.128C208.774 114.043 208.636 113.963 208.504 113.886L207.496 115.614ZM207.92 115.86C209.061 116.519 210.504 117.354 211.97 118.522L213.216 116.957C211.621 115.687 210.06 114.786 208.921 114.128L207.92 115.86ZM208.394 113.831C207.135 113.291 204.318 112.35 200.925 112.822C197.486 113.3 193.576 115.215 190.175 120.185L191.825 121.315C194.925 116.785 198.347 115.2 201.2 114.803C204.099 114.4 206.532 115.209 207.606 115.669L208.394 113.831Z" fill="black"/>
<path d="M66.6952 155.818L93.9285 172.13C103.838 171.31 103.057 166.801 102.208 161.901L102.194 161.818C99.5992 148.026 93.4005 120.93 90.4163 101.982C113.441 85.0317 175.133 83.0996 203.945 85.6935C200.485 74.694 194.071 63.0682 182.445 54.8186C167.914 44.5066 125.788 30.7687 85.6266 56.067C39.5871 85.0685 59.4293 136.226 66.6952 155.818Z" fill="#291B28" stroke="black" stroke-width="2" stroke-linejoin="round"/>
<path d="M59.5677 146.567L85.4451 161.448C95.7253 160.623 93.7438 155.39 92.9407 151.136C90.2636 137.343 85.5235 114.93 82.4449 95.9814C106.198 79.0316 171.347 75.0995 201.07 77.6934C197.501 66.6938 190.6 57.5148 178.607 49.2652C163.615 38.9532 120.998 24.7686 79.5669 50.0669C32.0707 79.0684 52.072 126.974 59.5677 146.567Z" fill="#EA343C" stroke="black" stroke-width="2" stroke-linejoin="round"/>
<path d="M102.15 74.7244L99.1017 66.8969L102.926 65.4077C103.91 65.0245 104.721 64.9234 105.358 65.1046C106.002 65.2828 106.444 65.6775 106.682 66.2888C106.841 66.6988 106.88 67.0959 106.798 67.4799C106.713 67.8564 106.527 68.195 106.24 68.4954C105.954 68.7958 105.583 69.0346 105.129 69.2117L105.162 68.6705C105.654 68.4789 106.122 68.3911 106.567 68.407C107.008 68.4155 107.394 68.5357 107.724 68.7675C108.062 68.9964 108.32 69.3382 108.497 69.7929C108.758 70.4639 108.698 71.0925 108.317 71.6788C107.933 72.2576 107.227 72.7474 106.198 73.148L102.15 74.7244ZM103.419 72.6591L105.532 71.836C106.002 71.6531 106.327 71.4407 106.508 71.1987C106.693 70.9464 106.72 70.6525 106.589 70.317C106.461 69.989 106.244 69.7946 105.937 69.7339C105.635 69.6628 105.249 69.7187 104.779 69.9016L102.531 70.7768L102.018 69.4573L103.952 68.704C104.392 68.5327 104.698 68.3275 104.871 68.0884C105.049 67.839 105.077 67.5577 104.955 67.2446C104.836 66.939 104.628 66.7581 104.331 66.7019C104.039 66.6353 103.673 66.6877 103.234 66.859L101.433 67.5601L103.419 72.6591Z" fill="#FFE683"/>
<path d="M111.49 66.0019L115.363 64.8389L115.798 66.287L111.925 67.45L111.49 66.0019ZM112.622 69.2705L117 67.9556L117.449 69.4497L111.22 71.3202L108.804 63.275L114.884 61.4495L115.333 62.9436L111.103 64.2135L112.622 69.2705Z" fill="#FFE683"/>
<path d="M119.409 68.929L117.53 60.7418L121.073 59.9285C121.806 59.7603 122.466 59.7362 123.051 59.8562C123.635 59.9685 124.122 60.2137 124.513 60.5919C124.903 60.9702 125.169 61.4673 125.311 62.0833C125.45 62.6914 125.427 63.2509 125.24 63.7615C125.052 64.2644 124.72 64.6936 124.243 65.0492C123.767 65.4048 123.162 65.6667 122.429 65.8349L119.938 66.4067L120.589 65.383L121.303 68.4941L119.409 68.929ZM124.613 67.7345L121.885 65.2335L123.908 64.7691L126.66 67.2647L124.613 67.7345ZM120.638 65.5935L119.591 64.8979L121.977 64.3503C122.562 64.2161 122.97 63.9911 123.201 63.6754C123.431 63.3519 123.495 62.9679 123.393 62.5235C123.289 62.0712 123.064 61.7535 122.718 61.5701C122.373 61.3868 121.907 61.3623 121.322 61.4965L118.937 62.0441L119.572 60.9502L120.638 65.5935Z" fill="#FFE683"/>
<path d="M127.26 67.1237L129.596 58.2285L131.49 57.9179L136.556 65.5994L134.543 65.9295L130.311 59.1083L131.069 58.984L129.226 66.8013L127.26 67.1237ZM128.816 65.0445L129.087 63.5044L133.35 62.8054L134.109 64.1765L128.816 65.0445Z" fill="#FFE683"/>
<path d="M141.754 65.2087C141.11 65.2749 140.498 65.2332 139.92 65.0835C139.349 64.925 138.84 64.6717 138.394 64.3234C137.948 63.9752 137.583 63.5503 137.298 63.0488C137.022 62.5464 136.851 61.9809 136.786 61.3522C136.722 60.7236 136.774 60.1351 136.943 59.587C137.12 59.0381 137.391 58.5478 137.757 58.1161C138.13 57.6837 138.581 57.3358 139.109 57.0724C139.636 56.8011 140.226 56.632 140.878 56.5649C141.603 56.4905 142.268 56.5508 142.875 56.7458C143.49 56.932 144.021 57.2474 144.468 57.6919L143.345 58.9654C143.025 58.6686 142.681 58.4586 142.315 58.3354C141.948 58.2043 141.557 58.1599 141.143 58.2025C140.753 58.2425 140.402 58.343 140.088 58.5038C139.775 58.6647 139.512 58.8767 139.297 59.14C139.083 59.4033 138.925 59.705 138.823 60.0452C138.73 60.3846 138.703 60.7532 138.744 61.1511C138.785 61.549 138.886 61.9046 139.047 62.2178C139.215 62.5301 139.431 62.7934 139.695 63.0077C139.958 63.2219 140.259 63.3759 140.599 63.4697C140.938 63.5635 141.303 63.5904 141.693 63.5503C142.106 63.5078 142.48 63.389 142.814 63.1938C143.147 62.9907 143.44 62.7073 143.692 62.3437L145.051 63.3621C144.703 63.8884 144.248 64.3092 143.685 64.6243C143.13 64.9387 142.487 65.1334 141.754 65.2087Z" fill="#FFE683"/>
<path d="M146.359 64.6681L145.836 56.2844L147.776 56.1634L148.299 64.5471L146.359 64.6681Z" fill="#FFE683"/>
<path d="M149.551 64.4013L153.154 55.94L155.074 55.9079L158.97 64.244L156.93 64.2781L153.735 56.9144L154.503 56.9016L151.543 64.3681L149.551 64.4013ZM151.393 62.5703L151.884 61.0859L156.204 61.0138L156.756 62.4807L151.393 62.5703Z" fill="#FFE683"/>
<path d="M164.446 64.6501C163.783 64.6148 163.177 64.4784 162.629 64.2409C162.089 63.9958 161.622 63.6665 161.228 63.2529C160.841 62.8397 160.546 62.3634 160.343 61.8238C160.147 61.2846 160.066 60.6995 160.1 60.0684C160.133 59.4373 160.276 58.864 160.528 58.3487C160.787 57.8338 161.136 57.3917 161.572 57.0224C162.008 56.6531 162.511 56.3794 163.082 56.2015C163.652 56.0156 164.273 55.9406 164.944 55.9763C165.687 56.0159 166.348 56.1753 166.926 56.4544C167.512 56.734 167.996 57.1203 168.378 57.6133L167.07 58.6973C166.784 58.3616 166.465 58.1082 166.114 57.9373C165.763 57.7584 165.375 57.6576 164.952 57.6351C164.545 57.6134 164.17 57.6575 163.827 57.7674C163.485 57.8774 163.184 58.0456 162.923 58.272C162.671 58.4989 162.468 58.7725 162.315 59.0928C162.169 59.4136 162.086 59.7736 162.065 60.1731C162.044 60.5645 162.089 60.9274 162.199 61.2618C162.317 61.5965 162.49 61.8941 162.716 62.1545C162.951 62.4074 163.229 62.6065 163.55 62.7517C163.878 62.8974 164.243 62.9809 164.642 63.0022C165.025 63.0226 165.4 62.9825 165.766 62.8818C166.14 62.7736 166.507 62.5808 166.866 62.3035L167.894 63.7643C167.42 64.0835 166.875 64.3189 166.258 64.4703C165.649 64.6221 165.045 64.682 164.446 64.6501ZM166.134 63.4182L166.302 60.2666L168.075 60.3611L167.894 63.7643L166.134 63.4182Z" fill="#FFE683"/>
<path d="M169.278 64.7682L174.114 56.9454L176.016 57.2026L178.613 66.03L176.592 65.7567L174.541 57.9961L175.302 58.0989L171.252 65.035L169.278 64.7682ZM171.375 63.2352L172.084 61.8416L176.365 62.4202L176.69 63.9536L171.375 63.2352Z" fill="#FFE683"/>
<path d="M79.8999 137.199L70.4877 87.3472C81.6346 79.4653 110.127 65.7662 137.534 61.5989C162.365 57.8235 183.135 60.5103 196.058 62.1819C196.851 62.2845 197.614 62.3832 198.347 62.4764C201.31 62.8532 204.021 64.4185 205.842 66.7913C209.898 72.0752 215.362 79.2005 219.308 89.3438C223.25 99.476 225.691 112.662 223.607 130.049C223.153 133.842 220.341 136.923 216.601 137.8C198.126 142.132 173.396 145.353 148.473 145.776C123.771 146.195 98.9673 143.864 79.8999 137.199Z" fill="url(#paint0_linear_1521_12464)" fill-opacity="0.8" stroke="url(#paint1_linear_1521_12464)" stroke-width="2"/>
<ellipse cx="72.6285" cy="89.6597" rx="15.5699" ry="17.5913" fill="#FFE683" stroke="black" stroke-width="2"/>
<ellipse cx="68.6287" cy="89.6594" rx="12.7537" ry="14.4094" fill="#FFE683" stroke="black" stroke-width="2"/>
<ellipse cx="67.6299" cy="89.6597" rx="7.96582" ry="9" fill="#FF9461" stroke="black" stroke-width="2"/>
<defs>
<linearGradient id="paint0_linear_1521_12464" x1="147.378" y1="77.0686" x2="165.57" y2="135.069" gradientUnits="userSpaceOnUse">
<stop/>
<stop offset="1" stop-color="white" stop-opacity="0.6"/>
</linearGradient>
<linearGradient id="paint1_linear_1521_12464" x1="147.378" y1="54.0686" x2="156.57" y2="102.753" gradientUnits="userSpaceOnUse">
<stop/>
<stop offset="1" stop-color="#666666" stop-opacity="0"/>
</linearGradient>
</defs>
</svg>
