<svg width="178" height="139" viewBox="0 0 178 139" fill="none" xmlns="http://www.w3.org/2000/svg">
<path fill-rule="evenodd" clip-rule="evenodd" d="M140.544 128.065C141.032 128.124 141.54 128.187 142.063 128.252C151.544 129.425 166.296 131.25 170.388 127.01C172.363 124.963 171.889 117.315 170.158 107.324C166.634 116.727 156.812 124.191 140.544 128.065ZM164.823 82.9677C161.736 70.6653 158.22 58.4028 155.672 49.9927L152.574 52.0616C156.281 61.1972 158.7 70.8001 160.23 79.9779C160.363 80.056 160.504 80.1372 160.65 80.2218C161.79 80.8804 163.292 81.7488 164.823 82.9677Z" fill="#291B28"/>
<path d="M142.063 128.252L142.186 127.259H142.186L142.063 128.252ZM140.544 128.065L140.312 127.092C139.841 127.204 139.518 127.637 139.546 128.121C139.573 128.604 139.942 128.999 140.423 129.057L140.544 128.065ZM170.388 127.01L169.668 126.315L170.388 127.01ZM170.158 107.324L171.143 107.153C171.066 106.708 170.701 106.37 170.252 106.328C169.802 106.286 169.38 106.55 169.222 106.973L170.158 107.324ZM155.672 49.9927L156.629 49.7027C156.537 49.3997 156.307 49.158 156.009 49.0512C155.711 48.9445 155.38 48.9852 155.116 49.1611L155.672 49.9927ZM164.823 82.9677L164.2 83.75C164.535 84.0171 165.004 84.0406 165.364 83.8085C165.725 83.5763 165.897 83.1402 165.793 82.7243L164.823 82.9677ZM152.574 52.0616L152.019 51.23C151.625 51.4935 151.469 51.9979 151.648 52.4375L152.574 52.0616ZM160.23 79.9779L159.243 80.1423C159.292 80.4356 159.469 80.6919 159.726 80.8417L160.23 79.9779ZM160.65 80.2218L160.15 81.0876L160.15 81.0876L160.65 80.2218ZM142.186 127.259C141.663 127.195 141.155 127.132 140.665 127.072L140.423 129.057C140.91 129.117 141.417 129.179 141.94 129.244L142.186 127.259ZM169.668 126.315C168.861 127.152 167.42 127.782 165.379 128.176C163.368 128.564 160.92 128.697 158.26 128.661C152.94 128.589 146.937 127.847 142.186 127.259L141.94 129.244C146.669 129.829 152.783 130.587 158.233 130.661C160.957 130.698 163.557 130.565 165.759 130.14C167.932 129.72 169.869 128.988 171.107 127.704L169.668 126.315ZM169.173 107.495C170.035 112.472 170.577 116.826 170.663 120.171C170.706 121.846 170.634 123.232 170.444 124.3C170.249 125.399 169.953 126.02 169.668 126.315L171.107 127.704C171.81 126.976 172.196 125.873 172.413 124.65C172.636 123.397 172.707 121.862 172.663 120.12C172.573 116.631 172.012 112.166 171.143 107.153L169.173 107.495ZM169.222 106.973C165.863 115.934 156.421 123.256 140.312 127.092L140.776 129.037C157.203 125.126 167.404 117.52 171.095 107.675L169.222 106.973ZM154.715 50.2826C157.259 58.6813 160.77 70.928 163.853 83.2111L165.793 82.7243C162.701 70.4027 159.18 58.1242 156.629 49.7027L154.715 50.2826ZM153.13 52.8931L156.227 50.8242L155.116 49.1611L152.019 51.23L153.13 52.8931ZM151.648 52.4375C155.321 61.4898 157.723 71.0188 159.243 80.1423L161.216 79.8135C159.677 70.5814 157.241 60.9045 153.501 51.6856L151.648 52.4375ZM159.726 80.8417C159.862 80.9209 160.004 81.0032 160.15 81.0876L161.151 79.3561C161.004 79.2712 160.865 79.191 160.734 79.1142L159.726 80.8417ZM160.15 81.0876C161.29 81.7466 162.734 82.5824 164.2 83.75L165.446 82.1854C163.85 80.9151 162.289 80.0142 161.151 79.3561L160.15 81.0876ZM160.624 79.0588C159.365 78.5193 156.547 77.5781 153.154 78.05C149.716 78.5282 145.805 80.4427 142.404 85.4132L144.055 86.5426C147.154 82.0132 150.577 80.4277 153.43 80.0309C156.329 79.6278 158.761 80.4366 159.836 80.8971L160.624 79.0588Z" fill="black"/>
<path d="M18.9247 121.046L46.158 137.358C56.0675 136.537 55.2867 132.029 54.4379 127.128L54.4237 127.046C51.8287 113.254 45.63 86.1574 42.6458 67.209C65.6701 50.2593 127.363 48.3271 156.175 50.921C152.715 39.9215 146.3 28.2957 134.675 20.0461C120.143 9.73414 78.017 -4.00377 37.8561 21.2946C-8.18341 50.296 11.6588 101.453 18.9247 121.046Z" fill="#291B28" stroke="black" stroke-width="2" stroke-linejoin="round"/>
<path d="M11.7972 111.795L37.6746 126.675C47.9548 125.85 45.9733 120.617 45.1702 116.364C42.4931 102.571 37.753 80.1575 34.6744 61.2092C58.4271 44.2594 123.576 40.3273 153.3 42.9211C149.73 31.9216 142.829 22.7426 130.836 14.493C115.845 4.18101 73.228 -10.0036 31.7964 15.2947C-15.6998 44.2961 4.30144 92.202 11.7972 111.795Z" fill="#EA343C" stroke="black" stroke-width="2" stroke-linejoin="round"/>
<path d="M54.3794 39.9526L51.3312 32.1252L55.1555 30.6359C56.1395 30.2527 56.9501 30.1517 57.5872 30.3328C58.2319 30.5111 58.6732 30.9058 58.9112 31.5171C59.0709 31.9271 59.1096 32.3241 59.0274 32.7081C58.9422 33.0847 58.7564 33.4232 58.4699 33.7237C58.1834 34.0241 57.8128 34.2629 57.358 34.44L57.3919 33.8988C57.884 33.7072 58.352 33.6193 58.796 33.6353C59.2372 33.6438 59.6231 33.7639 59.9538 33.9957C60.2919 34.2247 60.5495 34.5665 60.7266 35.0212C60.9878 35.6921 60.9279 36.3207 60.5466 36.907C60.1625 37.4859 59.4561 37.9756 58.4273 38.3763L54.3794 39.9526ZM55.6485 37.8873L57.7619 37.0643C58.2315 36.8814 58.5566 36.669 58.7371 36.427C58.9221 36.1746 58.9493 35.8807 58.8187 35.5453C58.6909 35.2173 58.4736 35.0229 58.1666 34.9621C57.8642 34.891 57.4782 34.9469 57.0085 35.1298L54.761 36.0051L54.2471 34.6856L56.1816 33.9323C56.6214 33.761 56.9279 33.5558 57.1009 33.3167C57.2785 33.0673 57.3063 32.786 57.1844 32.4729C57.0653 32.1673 56.8575 31.9863 56.5609 31.9301C56.2689 31.8636 55.9029 31.916 55.4631 32.0872L53.6628 32.7883L55.6485 37.8873Z" fill="#FFE683"/>
<path d="M63.7193 31.2301L67.5925 30.0672L68.0273 31.5153L64.1541 32.6783L63.7193 31.2301ZM64.8511 34.4987L69.23 33.1839L69.6786 34.678L63.4493 36.5484L61.0337 28.5033L67.1135 26.6777L67.5621 28.1718L63.3327 29.4418L64.8511 34.4987Z" fill="#FFE683"/>
<path d="M71.637 34.1572L69.7581 25.9701L73.3019 25.1568C74.0349 24.9886 74.6942 24.9645 75.2799 25.0845C75.8638 25.1967 76.351 25.442 76.7415 25.8202C77.132 26.1984 77.3979 26.6955 77.5393 27.3115C77.6789 27.9197 77.6554 28.4791 77.4689 28.9898C77.2806 29.4927 76.9482 29.9219 76.4717 30.2775C75.9952 30.6331 75.3904 30.895 74.6575 31.0632L72.1662 31.635L72.8178 30.6113L73.5318 33.7224L71.637 34.1572ZM76.8417 32.9628L74.1131 30.4617L76.1365 29.9974L78.8885 32.493L76.8417 32.9628ZM72.8661 30.8218L71.82 30.1262L74.2059 29.5786C74.7907 29.4444 75.1988 29.2194 75.43 28.9037C75.6594 28.5802 75.7232 28.1962 75.6212 27.7517C75.5174 27.2995 75.2926 26.9817 74.9468 26.7984C74.6011 26.6151 74.1358 26.5906 73.551 26.7248L71.165 27.2724L71.8004 26.1785L72.8661 30.8218Z" fill="#FFE683"/>
<path d="M79.4876 32.3517L81.8231 23.4566L83.7178 23.1459L88.7835 30.8274L86.7704 31.1575L82.5389 24.3363L83.2967 24.2121L81.4534 32.0294L79.4876 32.3517ZM81.0437 30.2725L81.3141 28.7325L85.5771 28.0334L86.337 29.4045L81.0437 30.2725Z" fill="#FFE683"/>
<path d="M93.982 30.4365C93.3374 30.5027 92.726 30.461 92.1476 30.3113C91.5764 30.1528 91.0679 29.8995 90.622 29.5512C90.176 29.203 89.8107 28.7781 89.5259 28.2766C89.2492 27.7742 89.0785 27.2087 89.0139 26.58C88.9493 25.9513 89.0014 25.3629 89.1703 24.8148C89.3471 24.2658 89.6184 23.7756 89.9842 23.3439C90.358 22.9114 90.8088 22.5635 91.3366 22.3002C91.8636 22.0289 92.4534 21.8598 93.106 21.7927C93.8302 21.7183 94.4958 21.7786 95.103 21.9736C95.7172 22.1598 96.2482 22.4751 96.696 22.9197L95.5723 24.1932C95.2523 23.8964 94.909 23.6864 94.5425 23.5632C94.1752 23.432 93.7846 23.3877 93.3708 23.4302C92.9808 23.4703 92.6292 23.5708 92.316 23.7316C92.0028 23.8925 91.7391 24.1045 91.5249 24.3678C91.3107 24.6311 91.1527 24.9328 91.0509 25.273C90.9571 25.6123 90.9307 25.981 90.9716 26.3789C91.0124 26.7768 91.1133 27.1323 91.2742 27.4455C91.443 27.7579 91.659 28.0212 91.9223 28.2354C92.1856 28.4497 92.4869 28.6037 92.8262 28.6975C93.1656 28.7913 93.5303 28.8182 93.9202 28.7781C94.334 28.7356 94.7078 28.6167 95.0416 28.4216C95.3746 28.2185 95.6672 27.9351 95.9194 27.5714L97.2786 28.5899C96.9305 29.1162 96.4751 29.5369 95.9124 29.8521C95.3576 30.1664 94.7142 30.3612 93.982 30.4365Z" fill="#FFE683"/>
<path d="M98.5864 29.8959L98.0634 21.5122L100.004 21.3911L100.527 29.7748L98.5864 29.8959Z" fill="#FFE683"/>
<path d="M101.781 29.6296L105.384 21.1683L107.304 21.1362L111.199 29.4723L109.16 29.5064L105.964 22.1427L106.732 22.1299L103.772 29.5963L101.781 29.6296ZM103.622 27.7986L104.114 26.3142L108.433 26.242L108.986 27.709L103.622 27.7986Z" fill="#FFE683"/>
<path d="M116.675 29.8784C116.011 29.843 115.406 29.7066 114.858 29.4691C114.318 29.2241 113.851 28.8947 113.456 28.4812C113.07 28.068 112.775 27.5916 112.571 27.052C112.376 26.5129 112.295 25.9277 112.328 25.2966C112.362 24.6655 112.504 24.0923 112.756 23.577C113.016 23.0621 113.364 22.62 113.8 22.2506C114.237 21.8813 114.74 21.6077 115.31 21.4298C115.881 21.2439 116.502 21.1688 117.173 21.2046C117.916 21.2442 118.576 21.4035 119.154 21.6827C119.74 21.9623 120.224 22.3486 120.606 22.8416L119.299 23.9256C119.012 23.5899 118.693 23.3365 118.342 23.1656C117.991 22.9867 117.604 22.8859 117.18 22.8634C116.773 22.8416 116.398 22.8858 116.056 22.9957C115.714 23.1056 115.412 23.2739 115.152 23.5003C114.899 23.7272 114.696 24.0008 114.543 24.3211C114.398 24.6418 114.315 25.0019 114.293 25.4013C114.273 25.7928 114.317 26.1557 114.428 26.49C114.546 26.8248 114.718 27.1224 114.945 27.3828C115.18 27.6357 115.458 27.8347 115.778 27.98C116.107 28.1257 116.471 28.2092 116.87 28.2305C117.254 28.2509 117.629 28.2108 117.994 28.1101C118.369 28.0019 118.736 27.8091 119.095 27.5318L120.123 28.9926C119.649 29.3118 119.104 29.5471 118.487 29.6985C117.878 29.8503 117.274 29.9103 116.675 29.8784ZM118.362 28.6464L118.53 25.4949L120.304 25.5894L120.123 28.9926L118.362 28.6464Z" fill="#FFE683"/>
<path d="M121.507 29.9962L126.342 22.1734L128.245 22.4306L130.842 31.258L128.82 30.9847L126.769 23.2241L127.53 23.327L123.481 30.263L121.507 29.9962ZM123.603 28.4632L124.312 27.0696L128.593 27.6483L128.919 29.1817L123.603 28.4632Z" fill="#FFE683"/>
<path d="M32.1294 102.426L22.7172 52.5747C33.8641 44.6929 62.3562 30.9937 89.764 26.8264C114.594 23.051 135.365 25.7378 148.287 27.4095C149.08 27.512 149.843 27.6108 150.576 27.7039C153.539 28.0808 156.251 29.6461 158.072 32.0188C162.128 37.3028 167.592 44.428 171.538 54.5713C175.479 64.7036 177.92 77.8899 175.837 95.2769C175.382 99.0692 172.57 102.151 168.831 103.027C150.355 107.359 125.625 110.58 100.703 111.003C76.0001 111.422 51.1968 109.091 32.1294 102.426Z" fill="url(#paint0_linear_1338_183)" fill-opacity="0.8" stroke="url(#paint1_linear_1338_183)" stroke-width="2"/>
<ellipse cx="24.859" cy="54.8875" rx="15.5699" ry="17.5913" fill="#FFE683" stroke="black" stroke-width="2"/>
<ellipse cx="20.8591" cy="54.8875" rx="12.7537" ry="14.4094" fill="#FFE683" stroke="black" stroke-width="2"/>
<ellipse cx="19.8594" cy="54.8875" rx="7.96582" ry="9" fill="#FF9461" stroke="black" stroke-width="2"/>
<defs>
<linearGradient id="paint0_linear_1338_183" x1="99.6073" y1="42.2961" x2="117.8" y2="100.296" gradientUnits="userSpaceOnUse">
<stop/>
<stop offset="1" stop-color="white" stop-opacity="0.6"/>
</linearGradient>
<linearGradient id="paint1_linear_1338_183" x1="99.6073" y1="19.2961" x2="108.8" y2="67.9808" gradientUnits="userSpaceOnUse">
<stop/>
<stop offset="1" stop-color="#666666" stop-opacity="0"/>
</linearGradient>
</defs>
</svg>
