<svg width="361" height="341" viewBox="0 0 361 341" fill="none" xmlns="http://www.w3.org/2000/svg">
<path d="M132.796 41.5066C86.4497 43.8856 71.7931 66.7531 61.7866 86.5049C54.5302 102.253 49.552 115.507 50.5514 145.507C50.6516 148.515 56.2861 150.505 60.5552 151.007C66.5677 151.713 57.507 131.744 78.7938 106.007C106.294 72.7566 136.229 68.4319 153.036 68.255C176.786 68.005 185.914 72.6803 196.071 86.6853C200.196 92.3728 206.884 114.217 206.884 114.217C206.884 114.217 202.119 88.4214 200.036 84.5047C194.036 69.0047 181.536 39.0047 132.796 41.5066Z" fill="#97674B"/>
<path d="M61.7866 86.5049L60.8945 86.053L60.8861 86.0695L60.8783 86.0864L61.7866 86.5049ZM132.796 41.5066L132.847 42.5053L132.796 41.5066ZM200.036 84.5047L199.104 84.8657L199.125 84.9215L199.153 84.9744L200.036 84.5047ZM206.884 114.217L205.928 114.509C206.083 115.016 206.606 115.314 207.121 115.188C207.636 115.062 207.963 114.556 207.867 114.035L206.884 114.217ZM196.071 86.6853L195.262 87.2724L196.071 86.6853ZM153.036 68.255L153.026 67.255L153.036 68.255ZM78.7938 106.007L78.0232 105.369L78.7938 106.007ZM60.5552 151.007L60.6719 150.013L60.5552 151.007ZM50.5514 145.507L49.5519 145.54L50.5514 145.507ZM62.6786 86.9568C67.6662 77.1119 73.7524 66.6187 84.2848 58.2748C94.8014 49.9433 109.842 43.6862 132.847 42.5053L132.744 40.5079C109.404 41.706 93.9426 48.0721 83.0429 56.7071C72.1588 65.3296 65.9134 76.1461 60.8945 86.053L62.6786 86.9568ZM132.847 42.5053C156.985 41.2663 172.023 48.071 181.768 56.9926C191.55 65.9471 196.107 77.1254 199.104 84.8657L200.969 84.1437C197.965 76.3841 193.272 64.8124 183.119 55.5174C172.929 46.1894 157.347 39.2451 132.744 40.5079L132.847 42.5053ZM199.153 84.9744C199.364 85.3707 199.643 86.1199 199.972 87.1978C200.295 88.2548 200.647 89.5652 201.015 91.0413C201.75 93.9924 202.538 97.5698 203.262 101.034C203.987 104.497 204.646 107.838 205.125 110.315C205.364 111.553 205.558 112.574 205.692 113.286C205.759 113.642 205.811 113.92 205.847 114.109C205.864 114.204 205.878 114.276 205.887 114.325C205.891 114.349 205.895 114.368 205.897 114.38C205.898 114.386 205.899 114.391 205.9 114.394C205.9 114.395 205.9 114.396 205.9 114.397C205.9 114.397 205.9 114.398 205.9 114.398C205.9 114.398 205.9 114.398 206.884 114.217C207.867 114.035 207.867 114.035 207.867 114.035C207.867 114.034 207.867 114.034 207.867 114.034C207.867 114.033 207.867 114.032 207.866 114.03C207.866 114.027 207.865 114.022 207.864 114.016C207.861 114.003 207.858 113.985 207.853 113.96C207.844 113.911 207.831 113.838 207.813 113.743C207.777 113.552 207.725 113.273 207.658 112.915C207.523 112.201 207.329 111.177 207.089 109.935C206.609 107.453 205.947 104.1 205.22 100.625C204.493 97.1506 203.699 93.5449 202.955 90.5578C202.583 89.0649 202.222 87.7174 201.885 86.614C201.555 85.5316 201.229 84.6179 200.919 84.0351L199.153 84.9744ZM206.884 114.217C207.84 113.924 207.84 113.924 207.84 113.923C207.84 113.923 207.84 113.923 207.84 113.923C207.839 113.922 207.839 113.921 207.839 113.919C207.838 113.917 207.837 113.913 207.835 113.907C207.832 113.896 207.827 113.88 207.82 113.859C207.807 113.817 207.788 113.755 207.763 113.674C207.713 113.511 207.638 113.273 207.543 112.967C207.351 112.357 207.073 111.478 206.726 110.407C206.033 108.264 205.065 105.347 203.967 102.25C202.87 99.1544 201.64 95.8698 200.422 92.9962C199.214 90.1469 197.985 87.621 196.881 86.0982L195.262 87.2724C196.22 88.5934 197.374 90.9308 198.58 93.7767C199.776 96.5984 200.991 99.8412 202.082 102.918C203.172 105.993 204.133 108.892 204.823 111.022C205.168 112.088 205.444 112.96 205.634 113.566C205.729 113.869 205.803 114.105 205.852 114.266C205.877 114.346 205.896 114.407 205.909 114.448C205.915 114.468 205.92 114.484 205.923 114.494C205.925 114.499 205.926 114.503 205.926 114.506C205.927 114.507 205.927 114.508 205.927 114.508C205.927 114.509 205.928 114.509 205.928 114.509C205.928 114.509 205.928 114.509 206.884 114.217ZM196.881 86.0982C191.748 79.0214 186.801 74.1978 180.056 71.2102C173.339 68.235 164.948 67.1295 153.026 67.255L153.047 69.2549C164.874 69.1304 172.922 70.2377 179.246 73.0388C185.542 75.8277 190.237 80.3442 195.262 87.2724L196.881 86.0982ZM153.026 67.255C136.02 67.434 105.764 71.8276 78.0232 105.369L79.5644 106.644C106.823 73.6856 136.438 69.4297 153.047 69.2549L153.026 67.255ZM78.0232 105.369C67.2386 118.409 64.1238 130.02 62.9564 138.283C62.6657 140.342 62.4964 142.187 62.3592 143.779C62.2206 145.387 62.1175 146.696 61.9592 147.743C61.7964 148.821 61.5972 149.437 61.3722 149.759C61.2767 149.896 61.1956 149.951 61.1277 149.979C61.0544 150.01 60.9194 150.043 60.6719 150.013L60.4385 152C60.9425 152.059 61.4414 152.018 61.9063 151.822C62.3766 151.623 62.7381 151.296 63.0119 150.904C63.5253 150.169 63.7709 149.14 63.9368 148.042C64.1072 146.914 64.2166 145.519 64.3518 143.951C64.4883 142.367 64.6539 140.565 64.9368 138.563C66.0639 130.585 69.0622 119.342 79.5644 106.644L78.0232 105.369ZM60.6719 150.013C58.6198 149.772 56.2556 149.173 54.4219 148.295C53.5042 147.855 52.7677 147.369 52.2684 146.863C51.7726 146.36 51.565 145.897 51.5508 145.473L49.5519 145.54C49.588 146.621 50.1222 147.535 50.8445 148.267C51.5632 148.996 52.521 149.602 53.558 150.099C55.634 151.093 58.2215 151.739 60.4385 152L60.6719 150.013ZM51.5508 145.473C51.0532 130.534 52.0453 119.809 54.0488 110.88C56.052 101.953 59.0752 94.7789 62.6948 86.9234L60.8783 86.0864C57.2416 93.979 54.1475 101.306 52.0973 110.442C50.0475 119.578 49.0502 130.479 49.5519 145.54L51.5508 145.473Z" fill="black"/>
<rect x="51.9314" y="164.706" width="30.5312" height="6.75" rx="3" transform="rotate(-89.0274 51.9314 164.706)" fill="#8F3D2C" stroke="black" stroke-width="2"/>
<path d="M84.0363 66.5064C82.786 57.0064 84.3705 55.7559 88.0372 52.2559C118.787 31.506 138.303 43.6714 146.037 43.0061C173.661 40.6296 176.714 43.3095 185.786 52.3796C196.661 63.2528 200.036 69.5064 198.786 75.7564C197.861 80.3818 181.036 80.2564 173.536 79.0064C166.826 77.888 158.41 74.5034 153.911 69.7546C152.91 67.7534 147.821 67.2838 145.661 71.5046C140.16 82.2552 101.786 89.5064 95.2861 88.0064C90.8744 86.9883 85.889 80.5845 84.0363 66.5064Z" fill="#97674B" stroke="black" stroke-width="2" stroke-linecap="round"/>
<ellipse cx="59.1162" cy="127.226" rx="11.125" ry="13.9373" fill="#8F3D2C" stroke="black" stroke-width="2"/>
<path d="M142.036 45.3795C146.512 56.4635 142.998 68.0232 128.319 73.9502C113.641 79.8773 97.2622 85.0881 92.7865 74.004C86.3384 60.339 93.1638 47.0107 107.842 41.0837C122.52 35.1566 137.56 34.2954 142.036 45.3795Z" fill="#8F3D2C" stroke="black" stroke-width="2"/>
<path d="M56.7852 112.504C61.9137 96.2627 81.2852 70.1706 91.7852 59.5039C93.6611 62.1289 93.5361 63.0039 94.5347 67.0039C85.1347 70.8039 68.1183 101.921 60.7852 117.004C58.7861 115.004 57.7861 116.879 56.7852 112.504Z" fill="#8F3D2C" stroke="black" stroke-width="2" stroke-linecap="round"/>
<ellipse cx="54.1162" cy="127.226" rx="11.125" ry="13.9373" fill="#8F3D2C" stroke="black" stroke-width="2"/>
<ellipse cx="54.116" cy="127.226" rx="5.51544" ry="6.90967" fill="black" stroke="black" stroke-width="2"/>
<path d="M150.052 45.0444C147.141 55.5827 151.539 65.7204 165.494 69.5763C179.449 73.4322 194.876 76.4599 197.788 65.9216C202.222 52.8324 194.631 41.4328 180.676 37.577C166.72 33.7211 152.964 34.5061 150.052 45.0444Z" fill="#8F3D2C" stroke="black" stroke-width="2"/>
<path d="M154.037 46.0046C147.837 43.8046 141.537 45.838 139.037 47.5047C139.204 49.9213 139.286 51.7546 140.536 54.2546C146.036 52.0046 150.204 52.2547 154.287 52.2547C154.287 49.5047 154.537 48.2547 154.037 46.0046Z" fill="#8F3D2C" stroke="black" stroke-width="2" stroke-linecap="round"/>
<path d="M141.036 39.3795C145.512 50.4635 141.998 62.0232 127.319 67.9502C112.641 73.8773 96.2622 79.0881 91.7865 68.004C85.3384 54.339 92.1638 41.0107 106.842 35.0837C121.52 29.1566 136.56 28.2954 141.036 39.3795Z" fill="#8F3D2C" stroke="black" stroke-width="2"/>
<path d="M152.337 39.4878C149.425 50.0261 153.823 60.1638 167.778 64.0196C181.734 67.8755 197.16 70.9032 200.072 60.365C204.507 47.2758 196.915 35.8762 182.96 32.0203C169.004 28.1645 155.248 28.9495 152.337 39.4878Z" fill="#8F3D2C" stroke="black" stroke-width="2"/>
<path d="M135.797 41.8943C139.13 50.1487 135.351 59.4569 124.421 63.8708C113.49 68.2847 100.483 72.7408 97.1498 64.4864C92.3479 54.31 98.24 43.8088 109.171 39.3949C120.102 34.981 132.463 33.64 135.797 41.8943Z" fill="#B4E1F8" stroke="black" stroke-width="2"/>
<path d="M157.359 41.2267C155.191 49.0747 159.594 57.139 169.987 60.0105C180.38 62.8819 192.663 65.5754 194.831 57.7275C198.134 47.9799 191.685 39.0519 181.293 36.1804C170.9 33.3089 159.528 33.3788 157.359 41.2267Z" fill="#B4E1F8" stroke="black" stroke-width="2"/>
<path d="M154.037 42.0046C147.837 39.8046 141.537 41.838 139.037 43.5047C139.204 45.9213 139.286 47.7546 140.536 50.2546C146.036 48.0046 150.204 48.2547 154.287 48.2547C154.287 45.5047 154.537 44.2547 154.037 42.0046Z" fill="#8F3D2C" stroke="black" stroke-width="2" stroke-linecap="round"/>
<mask id="path-17-outside-1_1521_12945" maskUnits="userSpaceOnUse" x="203.753" y="151.044" width="8" height="15" fill="black">
<rect fill="white" x="203.753" y="151.044" width="8" height="15"/>
<path fill-rule="evenodd" clip-rule="evenodd" d="M206.753 157.011C207.775 156.361 208.725 155.698 209.598 155.044L209.739 161.798C209.756 162.595 209.123 163.254 208.327 163.271C207.53 163.287 206.871 162.655 206.854 161.858L206.753 157.011Z"/>
</mask>
<path fill-rule="evenodd" clip-rule="evenodd" d="M206.753 157.011C207.775 156.361 208.725 155.698 209.598 155.044L209.739 161.798C209.756 162.595 209.123 163.254 208.327 163.271C207.53 163.287 206.871 162.655 206.854 161.858L206.753 157.011Z" fill="#8F3D2C"/>
<path d="M206.753 157.011L205.679 155.324L204.73 155.928L204.753 157.053L206.753 157.011ZM209.598 155.044L211.598 155.002L211.516 151.107L208.399 153.444L209.598 155.044ZM209.739 161.798L207.74 161.84V161.84L209.739 161.798ZM208.327 163.271L208.285 161.271H208.285L208.327 163.271ZM206.854 161.858L204.855 161.9L206.854 161.858ZM207.827 158.698C208.894 158.019 209.886 157.328 210.798 156.644L208.399 153.444C207.564 154.069 206.656 154.702 205.679 155.324L207.827 158.698ZM207.599 155.086L207.74 161.84L211.739 161.756L211.598 155.002L207.599 155.086ZM207.74 161.84C207.733 161.532 207.977 161.278 208.285 161.271L208.369 165.27C210.27 165.231 211.778 163.657 211.739 161.756L207.74 161.84ZM208.285 161.271C208.593 161.265 208.847 161.509 208.854 161.817L204.855 161.9C204.894 163.801 206.467 165.31 208.369 165.27L208.285 161.271ZM208.854 161.817L208.752 156.97L204.753 157.053L204.855 161.9L208.854 161.817Z" fill="black" mask="url(#path-17-outside-1_1521_12945)"/>
</svg>
