<svg width="361" height="341" viewBox="0 0 361 341" fill="none" xmlns="http://www.w3.org/2000/svg">
<path d="M134.367 10.6402C112.933 12.6444 106.467 32.2882 105.362 44.971C125.159 46.5816 164.753 48.5947 164.753 43.7632C164.753 37.7237 158.515 8.38227 134.367 10.6402Z" fill="#F9732A" stroke="black" stroke-width="2"/>
<path d="M101.579 48.5955C103.368 42.0146 105.382 41.1469 106.468 41.6502C116.519 45.5758 135.996 48.3821 145.952 45.8821C150.003 44.8648 158.318 41.6423 163.114 39.9745C165.166 39.2611 167.091 40.3421 167.956 42.3349C169.195 45.1924 170.793 48.731 171.388 51.5409C172.257 55.6477 171.784 57.4451 168.692 59.1321C162.934 61.8201 161.194 63.2571 149.639 65.8821C135.048 69.1973 106.133 63.1939 101.515 61.3821C99.1397 56.5071 100.889 51.1321 101.579 48.5955Z" fill="#F9732A" stroke="black" stroke-width="2"/>
<path d="M110.14 43.7578L106.39 62.7578M116.64 44.7578L113.64 65.0078M122.64 45.7578L120.89 66.0078M129.14 46.2578V66.5078M135.64 46.5078L138.14 67.0078M142.39 46.5078L147.14 66.7578M148.64 45.0078L154.64 65.7578M155.14 43.2578L162.39 63.0078M160.64 41.0078L168.14 59.5078" stroke="black" stroke-width="2"/>
<path d="M122.243 39.1371L122.67 36.3699L124.022 36.5784C124.37 36.6321 124.621 36.7383 124.774 36.8969C124.931 37.0559 124.992 37.2435 124.959 37.4596C124.936 37.6045 124.881 37.7255 124.793 37.8226C124.706 37.917 124.596 37.9837 124.463 38.0226C124.33 38.0614 124.183 38.0685 124.023 38.0437L124.123 37.8932C124.297 37.92 124.446 37.9728 124.572 38.0515C124.698 38.1276 124.789 38.2267 124.846 38.3487C124.905 38.4712 124.922 38.6128 124.898 38.7736C124.861 39.0108 124.739 39.1822 124.531 39.2877C124.323 39.3906 124.038 39.414 123.674 39.3579L122.243 39.1371ZM122.954 38.753L123.701 38.8683C123.867 38.8939 123.996 38.8869 124.089 38.8472C124.184 38.8052 124.241 38.725 124.26 38.6064C124.278 38.4904 124.247 38.3981 124.169 38.3293C124.093 38.2583 123.973 38.21 123.807 38.1844L123.012 38.0618L123.084 37.5953L123.768 37.7008C123.923 37.7248 124.046 37.7168 124.136 37.6767C124.229 37.6343 124.284 37.5578 124.301 37.4471C124.318 37.3391 124.288 37.2522 124.212 37.1865C124.138 37.1185 124.024 37.0725 123.869 37.0485L123.232 36.9503L122.954 38.753Z" fill="black"/>
<path d="M126.696 37.9732L128.038 38.1L127.99 38.6018L126.648 38.4749L126.696 37.9732ZM126.635 39.1246L128.152 39.268L128.103 39.7857L125.945 39.5816L126.208 36.7941L128.315 36.9932L128.266 37.5109L126.801 37.3724L126.635 39.1246Z" fill="black"/>
<path d="M128.963 39.7989L129.108 37.0027L130.319 37.0656C130.569 37.0786 130.782 37.1311 130.959 37.2231C131.136 37.3124 131.27 37.4355 131.361 37.5924C131.451 37.7494 131.491 37.933 131.48 38.1434C131.469 38.3511 131.411 38.5283 131.304 38.675C131.198 38.819 131.052 38.9262 130.867 38.9967C130.682 39.0672 130.464 39.0959 130.214 39.0829L129.363 39.0386L129.665 38.77L129.61 39.8325L128.963 39.7989ZM130.74 39.8913L130.094 38.8404L130.785 38.8763L131.439 39.9277L130.74 39.8913ZM129.661 38.8419L129.39 38.5233L130.205 38.5657C130.404 38.5761 130.556 38.5412 130.659 38.4612C130.762 38.3784 130.817 38.2611 130.825 38.1093C130.833 37.9549 130.79 37.8325 130.696 37.7421C130.602 37.6518 130.455 37.6014 130.255 37.591L129.44 37.5487L129.744 37.256L129.661 38.8419Z" fill="black"/>
<path d="M132.078 39.8959L133.354 37.1089L133.994 37.1155L135.217 39.9282L134.538 39.9212L133.539 37.4388L133.795 37.4414L132.742 39.9027L132.078 39.8959ZM132.708 39.3023L132.885 38.8121L134.325 38.8269L134.496 39.3207L132.708 39.3023Z" fill="black"/>
<path d="M137.534 39.8212C137.318 39.8304 137.115 39.8043 136.926 39.743C136.739 39.6789 136.575 39.5845 136.433 39.4598C136.292 39.335 136.179 39.1864 136.094 39.0138C136.012 38.8412 135.966 38.6496 135.957 38.4391C135.948 38.2286 135.978 38.0339 136.045 37.8549C136.114 37.6757 136.214 37.518 136.345 37.3816C136.478 37.2452 136.635 37.1384 136.815 37.0613C136.996 36.9815 137.196 36.937 137.414 36.9276C137.657 36.9173 137.877 36.9506 138.075 37.0275C138.276 37.1017 138.446 37.2172 138.586 37.3741L138.187 37.7755C138.087 37.6703 137.977 37.5936 137.857 37.5453C137.737 37.4944 137.608 37.4719 137.47 37.4778C137.339 37.4833 137.22 37.5098 137.113 37.5571C137.005 37.6043 136.914 37.6697 136.837 37.753C136.76 37.8363 136.702 37.9336 136.661 38.0447C136.623 38.1558 136.607 38.2779 136.613 38.4111C136.619 38.5444 136.645 38.6647 136.692 38.7721C136.742 38.8794 136.809 38.9713 136.892 39.0478C136.976 39.1243 137.073 39.1816 137.184 39.2195C137.295 39.2575 137.416 39.2737 137.546 39.2681C137.685 39.2622 137.812 39.2301 137.926 39.1718C138.041 39.1109 138.144 39.0224 138.235 38.9064L138.667 39.2723C138.541 39.4405 138.381 39.5715 138.188 39.6651C137.997 39.7587 137.779 39.8107 137.534 39.8212Z" fill="black"/>
<path d="M139.366 39.6235L139.135 36.8331L139.781 36.7797L140.012 39.5701L139.366 39.6235Z" fill="black"/>
<path d="M141.214 39.4334L142.128 36.5074L142.764 36.4331L144.332 39.0688L143.657 39.1477L142.353 36.8113L142.607 36.7816L141.873 39.3563L141.214 39.4334ZM141.764 38.765L141.878 38.2563L143.308 38.0891L143.54 38.5573L141.764 38.765Z" fill="black"/>
<path d="M147.024 38.5422C146.806 38.5831 146.599 38.5868 146.403 38.5531C146.209 38.5164 146.032 38.4466 145.871 38.3438C145.714 38.2405 145.58 38.1095 145.472 37.9509C145.366 37.7917 145.294 37.6086 145.255 37.4015C145.216 37.1945 145.217 36.9976 145.257 36.8108C145.301 36.6236 145.379 36.4529 145.491 36.2989C145.603 36.1448 145.744 36.0165 145.915 35.9139C146.085 35.8086 146.28 35.7353 146.5 35.6939C146.744 35.6481 146.971 35.6475 147.18 35.6923C147.392 35.7366 147.579 35.8235 147.742 35.953L147.404 36.4072C147.285 36.3211 147.161 36.2643 147.034 36.2367C146.906 36.2064 146.773 36.2044 146.634 36.2305C146.5 36.2556 146.382 36.2995 146.28 36.3621C146.178 36.4247 146.094 36.503 146.027 36.5969C145.963 36.6903 145.919 36.7949 145.895 36.9108C145.873 37.0261 145.875 37.1493 145.899 37.2803C145.923 37.4087 145.967 37.5227 146.029 37.6223C146.093 37.7214 146.173 37.8041 146.267 37.8706C146.363 37.9339 146.468 37.9765 146.584 37.9982C146.702 38.0194 146.826 38.0177 146.957 37.9931C147.083 37.9694 147.201 37.9269 147.312 37.8654C147.424 37.8008 147.528 37.7094 147.622 37.5912L148.071 37.9832C147.942 38.124 147.784 38.2432 147.597 38.3409C147.411 38.4382 147.22 38.5053 147.024 38.5422ZM147.473 38.01L147.279 36.9761L147.861 36.8667L148.071 37.9832L147.473 38.01Z" fill="black"/>
<path d="M149.238 37.9097L149.689 34.8776L150.306 34.7059L152.263 37.0674L151.608 37.2498L149.958 35.1431L150.205 35.0744L149.878 37.7316L149.238 37.9097ZM149.678 37.1643L149.712 36.6442L151.099 36.2579L151.401 36.6847L149.678 37.1643Z" fill="black"/>
</svg>
