<svg width="361" height="341" viewBox="0 0 361 341" fill="none" xmlns="http://www.w3.org/2000/svg">
<path d="M98.9241 53.7546C98.0682 43.1115 104.424 21.417 136.695 19.7833C163.926 18.6057 173.776 40.9779 172.148 52.5962C183.328 56.7304 189.435 66.7056 190.661 70.7756C187.365 69.8946 179.13 67.2089 175.998 66.7204C172.084 66.1098 160.971 63.5386 151.661 67.2756C142.351 71.0126 137.6 75.9841 130.901 76.5903C125.541 77.0753 107.35 61.5686 98.9241 53.7546Z" fill="#686874"/>
<path d="M98.9241 53.7546C98.0682 43.1115 104.424 21.417 136.695 19.7833C163.926 18.6057 173.776 40.9779 172.148 52.5962M98.9241 53.7546C116.808 60.8842 155.191 55.953 172.148 52.5962M98.9241 53.7546C107.35 61.5686 125.541 77.0753 130.901 76.5903C137.6 75.9841 142.351 71.0126 151.661 67.2756C160.971 63.5386 172.084 66.1098 175.998 66.7204C179.13 67.2089 187.365 69.8946 190.661 70.7756C189.435 66.7056 183.328 56.7304 172.148 52.5962" stroke="black" stroke-width="2"/>
<path d="M117.662 56.5254C113.662 43.7254 120.286 22.4004 136.287 19.6504C167.086 19.6504 172.787 41.6504 171.787 52.6504C151.663 56.2754 134.538 58.5254 117.662 56.5254Z" fill="white"/>
<path d="M136.287 19.6504C120.286 22.4004 113.662 43.7254 117.662 56.5254C134.538 58.5254 151.663 56.2754 171.787 52.6504C172.787 41.6504 167.086 19.6504 136.287 19.6504ZM136.287 19.6504C142.454 21.9837 154.512 33.6754 152.912 55.2754" stroke="black" stroke-width="2"/>
<path d="M146.972 36.4877C147.978 35.5544 149.13 35.6884 149.882 35.9732C150.204 36.0954 150.478 36.2512 150.682 36.3848C150.806 36.36 150.929 36.3403 151.052 36.3256L151.08 36.3219C151.104 36.3187 151.138 36.3144 151.179 36.3095C151.262 36.2998 151.377 36.2877 151.511 36.2777C151.753 36.2596 152.106 36.244 152.44 36.2795C152.561 36.286 152.682 36.2971 152.804 36.3133C152.999 36.1663 153.261 35.9926 153.574 35.849C154.304 35.5137 155.444 35.3013 156.511 36.1632C157.624 37.0608 157.562 38.2979 157.343 39.0795C157.25 39.4121 157.115 39.7168 156.995 39.9494C156.84 40.2509 156.71 40.4311 156.733 40.3938L156.042 39.9808L156.041 39.98L155.874 39.8804C155.893 39.9209 155.905 39.9635 155.915 40.0081C155.981 40.3166 156.175 40.5347 156.386 40.7722C156.702 41.1271 157.056 41.5251 157.08 42.3317M146.972 36.4877C145.924 37.4593 146.071 38.6893 146.342 39.4537C146.458 39.7814 146.61 40.071 146.748 40.2976C146.715 40.3436 146.687 40.3788 146.652 40.4237C146.607 40.4798 146.551 40.5509 146.459 40.6769C146.131 41.1246 145.787 41.7457 145.82 42.7145C145.853 43.6534 146.23 44.5419 146.996 45.1707C147.75 45.7902 148.776 46.0733 149.963 46.0328L150.414 46.0173C150.437 46.0331 150.462 46.0489 150.487 46.0646C150.778 46.2463 151.2 46.4188 151.738 46.4262C151.746 46.4265 151.755 46.4269 151.766 46.4272C151.798 46.4282 151.84 46.4289 151.892 46.4286C151.994 46.4282 152.137 46.4242 152.326 46.4117C152.894 46.3884 153.33 46.1872 153.628 45.9778C153.662 45.9539 153.694 45.9299 153.725 45.9062L154.173 45.8908C155.36 45.8503 156.365 45.4978 157.075 44.8282C157.795 44.1493 158.111 43.2379 158.079 42.2998C158.079 42.299 158.079 42.2983 158.079 42.2976L157.08 42.3317M146.972 36.4877L147.65 37.2185L146.972 36.4877ZM157.08 42.3317C157.127 43.7055 156.17 44.8221 154.139 44.8914L153.307 44.9199L157.08 42.3317Z" fill="#788AFD" stroke="black" stroke-width="2"/>
</svg>
