<svg width="361" height="341" viewBox="0 0 361 341" fill="none" xmlns="http://www.w3.org/2000/svg">
<path d="M132.964 44.1236C157.411 39.5453 178.207 49.6561 183.587 54.6368C183.331 56.1949 181.678 66.0809 179.348 64.8224C139.547 45.4155 101.992 70.722 98.8186 73.4912C94.2947 74.0152 90.1875 64.3185 91.1037 62.1746C93.1159 58.8121 108.516 48.702 132.964 44.1236Z" fill="#37302D" stroke="black" stroke-width="2" stroke-linecap="round" stroke-linejoin="round"/>
<path d="M130.479 17.6652C164.66 14.208 174.641 40.7881 175.368 54.6046C144.409 39.1521 111.894 53.8784 99.5068 63.1731C95.6117 49.6508 100.698 20.6775 130.479 17.6652Z" fill="#37302D" stroke="black" stroke-width="2" stroke-linecap="round" stroke-linejoin="round"/>
<path d="M175.365 54.6056C144.406 39.1531 111.891 53.8794 99.5038 63.1741C98.2828 58.9353 97.9443 53.1783 98.9724 47.1786C116.174 34.3908 144.617 31.2627 171.075 38.2742C173.875 44.0822 175.125 50.0406 175.365 54.6056Z" fill="#F05620" stroke="black" stroke-width="2" stroke-linecap="round" stroke-linejoin="round"/>
<path d="M175.28 52.1318C175.603 53.5209 175.704 55.4608 175.622 56.3128" stroke="black" stroke-width="2" stroke-linecap="round"/>
<path d="M98.8066 59.8789C99.2256 61.8702 99.718 64.3599 100.176 65.2876" stroke="black" stroke-width="2" stroke-linecap="round"/>
<path d="M97.8402 53.7805C108.861 47.0362 140.061 36.0966 172.673 45.3809" stroke="black" stroke-width="2" stroke-linecap="round"/>
</svg>
