<svg width="347" height="136" viewBox="0 0 347 136" fill="none" xmlns="http://www.w3.org/2000/svg">
<path fill-rule="evenodd" clip-rule="evenodd" d="M17.9236 39.5617C8.89019 41.5484 -5.96976 51.5697 4.71466 76.5C18.2147 108 35.2147 121.5 66.2147 121.5H84.7147H147.715H291.215C312.936 121 353.862 111.3 343.797 76.5C343.765 75.2052 343.258 73.8668 342.215 72.5C340.786 70.6282 339.285 68.8049 337.715 67.0388C323.346 50.8774 303.203 39.5 280.215 39.5C259.815 9.9 244.215 1 231.715 1H170.215C135.415 1 151.715 26.6667 164.215 39.5H149.715H78.2147H18.5171C18.316 39.5 18.12 39.5185 17.9236 39.5617ZM178.215 39.5003C170.881 32.3336 157.815 16.7003 164.215 11.5003C169.128 7.50803 204.556 8.37792 222.717 8.82384C226.733 8.92243 229.904 9.0003 231.715 9.0003C243.952 9.0003 258.813 25.2477 265.869 35.1519C267.21 37.035 265.828 39.5003 263.515 39.5003H178.215Z" fill="#FF3434"/>
<path d="M4.71466 76.5L5.63381 76.1061L4.71466 76.5ZM17.9236 39.5617L18.1384 40.5383H18.1384L17.9236 39.5617ZM291.215 121.5V122.5C291.222 122.5 291.23 122.5 291.238 122.5L291.215 121.5ZM343.797 76.5L342.797 76.5243C342.799 76.6101 342.812 76.6954 342.836 76.7779L343.797 76.5ZM342.215 72.5L343.01 71.8933V71.8933L342.215 72.5ZM337.715 67.0388L336.967 67.7032L337.715 67.0388ZM280.215 39.5L279.391 40.0675C279.578 40.3383 279.886 40.5 280.215 40.5V39.5ZM164.215 39.5V40.5C164.617 40.5 164.98 40.2592 165.136 39.8888C165.292 39.5183 165.212 39.0903 164.931 38.8023L164.215 39.5ZM164.215 11.5003L164.845 12.2764L164.215 11.5003ZM178.215 39.5003L177.516 40.2155C177.703 40.3981 177.954 40.5003 178.215 40.5003V39.5003ZM222.717 8.82384L222.742 7.82414L222.717 8.82384ZM265.869 35.1519L266.683 34.5717V34.5717L265.869 35.1519ZM235.215 72.5L234.508 73.2071L235.215 72.5ZM275.331 90.4132L275.176 91.4012L275.177 91.4013L275.331 90.4132ZM327.494 72.5L327.28 71.5232L327.494 72.5ZM338.667 67.344C338.836 66.8181 338.546 66.2551 338.02 66.0865C337.494 65.9179 336.931 66.2076 336.762 66.7335L338.667 67.344ZM344.796 76.4757C344.783 75.9236 344.325 75.4869 343.772 75.5003C343.22 75.5137 342.784 75.9721 342.797 76.5243L344.796 76.4757ZM150.321 40.2954C150.76 39.9607 150.845 39.3333 150.51 38.894C150.175 38.4547 149.548 38.3699 149.109 38.7046L150.321 40.2954ZM146.754 121.777C146.906 122.307 147.461 122.614 147.991 122.461C148.522 122.308 148.828 121.754 148.676 121.223L146.754 121.777ZM83.8597 122.019C84.1461 122.491 84.7611 122.641 85.2333 122.355C85.7055 122.069 85.8561 121.454 85.5697 120.981L83.8597 122.019ZM79.1886 39.7269C79.3139 39.1891 78.9795 38.6514 78.4416 38.5261C77.9037 38.4008 77.3661 38.7352 77.2408 39.2731L79.1886 39.7269ZM164.215 38.5C163.662 38.5 163.215 38.9477 163.215 39.5C163.215 40.0523 163.662 40.5 164.215 40.5V38.5ZM178.214 40.5C178.767 40.5 179.214 40.0523 179.214 39.5C179.214 38.9477 178.767 38.5 178.214 38.5V40.5ZM222.742 7.82383C222.189 7.81028 221.731 8.24687 221.717 8.79899C221.704 9.35111 222.14 9.80968 222.692 9.82323L222.742 7.82383ZM231.715 10C232.267 10 232.715 9.55229 232.715 9C232.715 8.44772 232.267 8 231.715 8V10ZM280.215 40.5C280.767 40.5 281.215 40.0523 281.215 39.5C281.215 38.9477 280.767 38.5 280.215 38.5V40.5ZM263.56 38.5C263.008 38.5 262.56 38.9477 262.56 39.5C262.56 40.0523 263.008 40.5 263.56 40.5V38.5ZM164.215 38.5003C163.662 38.5003 163.215 38.948 163.215 39.5003C163.215 40.0526 163.662 40.5003 164.215 40.5003V38.5003ZM178.215 40.5003C178.767 40.5003 179.215 40.0526 179.215 39.5003C179.215 38.948 178.767 38.5003 178.215 38.5003V40.5003ZM5.63381 76.1061C0.380526 63.8484 1.48236 55.4626 4.7833 49.94C8.11411 44.3675 13.8129 41.4896 18.1384 40.5383L17.7088 38.585C13.0009 39.6204 6.753 42.7465 3.06659 48.9139C-0.649691 55.1313 -1.63563 64.2212 3.79552 76.8939L5.63381 76.1061ZM66.2147 120.5C50.8666 120.5 39.0948 117.161 29.4997 110.011C19.8858 102.846 12.3494 91.7758 5.63381 76.1061L3.79552 76.8939C10.5799 92.7242 18.2935 104.154 28.3046 111.614C38.3345 119.089 50.5627 122.5 66.2147 122.5V120.5ZM84.7147 120.5H66.2147V122.5H84.7147V120.5ZM147.715 120.5H84.7147V122.5H147.715V120.5ZM291.215 120.5H147.715V122.5H291.215V120.5ZM342.836 76.7779C345.295 85.2798 344.619 92.1551 341.978 97.7131C339.329 103.29 334.651 107.648 328.921 110.999C317.436 117.718 301.964 120.252 291.192 120.5L291.238 122.5C302.186 122.248 318.039 119.682 329.931 112.726C335.889 109.24 340.913 104.617 343.785 98.5713C346.666 92.5074 347.331 85.1202 344.757 76.2221L342.836 76.7779ZM341.42 73.1067C342.366 74.3469 342.772 75.4867 342.797 76.5243L344.796 76.4757C344.759 74.9236 344.149 73.3867 343.01 71.8933L341.42 73.1067ZM336.967 67.7032C338.521 69.4505 340.006 71.2545 341.42 73.1067L343.01 71.8933C341.566 70.0019 340.049 68.1593 338.462 66.3743L336.967 67.7032ZM280.215 40.5C302.858 40.5 322.745 51.7066 336.967 67.7032L338.462 66.3743C323.947 50.0483 303.547 38.5 280.215 38.5V40.5ZM231.715 2C243.69 2 259.029 10.5216 279.391 40.0675L281.038 38.9325C260.601 9.27837 244.74 0 231.715 0V2ZM170.215 2H231.715V0H170.215V2ZM164.931 38.8023C161.842 35.6311 158.523 31.671 155.823 27.5246C153.113 23.3632 151.076 19.0893 150.465 15.279C149.86 11.5113 150.653 8.30261 153.473 5.98336C156.374 3.59788 161.594 2 170.215 2V0C161.436 0 155.642 1.61045 152.203 4.43852C148.683 7.3328 147.807 11.3428 148.49 15.596C149.166 19.8066 151.373 24.3555 154.147 28.616C156.931 32.8915 160.337 36.9523 163.498 40.1977L164.931 38.8023ZM149.715 40.5H164.215V38.5H149.715V40.5ZM78.2147 40.5H149.715V38.5H78.2147V40.5ZM18.5171 40.5H78.2147V38.5H18.5171V40.5ZM18.1384 40.5383C18.2553 40.5126 18.3784 40.5 18.5171 40.5V38.5C18.2536 38.5 17.9848 38.5243 17.7088 38.585L18.1384 40.5383ZM163.584 10.7242C161.589 12.3449 161.211 14.7416 161.689 17.2483C162.162 19.7357 163.5 22.5246 165.215 25.2899C168.657 30.8382 173.818 36.6016 177.516 40.2155L178.914 38.7851C175.278 35.2323 170.24 29.5957 166.915 24.2357C165.247 21.5468 164.059 19.0045 163.653 16.8742C163.251 14.7632 163.64 13.2557 164.845 12.2764L163.584 10.7242ZM222.742 7.82414C213.665 7.60127 200.246 7.27162 188.479 7.49793C182.598 7.61105 177.106 7.86336 172.765 8.34116C170.596 8.5799 168.692 8.87737 167.159 9.24894C165.666 9.6108 164.384 10.0743 163.584 10.7242L164.845 12.2764C165.274 11.9283 166.174 11.5456 167.63 11.1926C169.046 10.8494 170.857 10.5633 172.984 10.3292C177.236 9.86116 182.657 9.61027 188.517 9.49756C200.233 9.27223 213.608 9.60048 222.693 9.82354L222.742 7.82414ZM231.715 8.0003C229.92 8.0003 226.765 7.92292 222.742 7.82414L222.693 9.82354C226.701 9.92195 229.888 10.0003 231.715 10.0003V8.0003ZM266.683 34.5717C263.121 29.5717 257.59 22.9698 251.389 17.6057C245.235 12.2821 238.22 8.0003 231.715 8.0003V10.0003C237.447 10.0003 243.981 13.8422 250.081 19.1183C256.133 24.354 261.56 30.8279 265.054 35.7321L266.683 34.5717ZM263.515 40.5003C266.565 40.5003 268.539 37.177 266.683 34.5717L265.054 35.7321C265.881 36.893 265.09 38.5003 263.515 38.5003V40.5003ZM178.215 40.5003H263.515V38.5003H178.215V40.5003ZM166.701 40.4999C178.466 40.6633 208.709 47.4083 234.508 73.2071L235.922 71.7929C209.721 45.5917 178.964 38.67 166.729 38.5001L166.701 40.4999ZM235.127 73.4962C247.19 74.5519 263.819 75.6145 280.193 75.9719L280.236 73.9724C263.913 73.6161 247.328 72.5564 235.302 71.5038L235.127 73.4962ZM234.508 73.2071C244.428 83.1275 259.419 88.7856 275.051 91.3795L275.378 89.4064C259.946 86.8456 245.424 81.2954 235.922 71.7929L234.508 73.2071ZM279.216 75.0323C279.378 77.7167 279.328 81.6411 278.685 84.7812C278.361 86.3628 277.906 87.6435 277.327 88.469C276.778 89.2524 276.208 89.5244 275.525 89.431L275.254 91.4125C276.889 91.6362 278.123 90.818 278.965 89.617C279.777 88.4581 280.301 86.8604 280.644 85.1826C281.337 81.8041 281.38 77.6866 281.213 74.9119L279.216 75.0323ZM275.525 89.431C275.511 89.4292 275.498 89.4272 275.485 89.4251L275.177 91.4013C275.202 91.4053 275.228 91.409 275.254 91.4125L275.525 89.431ZM275.485 89.4252C275.459 89.4211 275.432 89.4164 275.404 89.4111L275.025 91.3748C275.076 91.3846 275.126 91.3934 275.176 91.4012L275.485 89.4252ZM280.193 75.9719C298.552 76.3726 316.7 75.8904 327.709 73.4768L327.28 71.5232C316.533 73.8795 298.606 74.3733 280.236 73.9724L280.193 75.9719ZM327.709 73.4768C330.6 72.843 333.055 72.0645 334.91 71.1028C336.741 70.154 338.156 68.9387 338.667 67.344L336.762 66.7335C336.492 67.5777 335.648 68.4677 333.99 69.3272C332.356 70.1739 330.093 70.9066 327.28 71.5232L327.709 73.4768ZM275.052 91.3796L275.226 91.4084L275.552 89.4351L275.378 89.4063L275.052 91.3796ZM275.227 91.4085C287.535 93.4322 300.308 93.5736 311.469 92.3627C322.605 91.1546 332.241 88.5892 338.216 85.1247L337.213 83.3945C331.59 86.655 322.275 89.1786 311.254 90.3743C300.258 91.5672 287.668 91.4272 275.551 89.435L275.227 91.4085ZM338.216 85.1247C342.194 82.8183 344.88 79.9104 344.796 76.4757L342.797 76.5243C342.852 78.7923 341.059 81.1649 337.213 83.3945L338.216 85.1247ZM326.616 72.9777C327.59 74.7683 329.274 77.5092 331.183 79.9402C332.137 81.1555 333.164 82.3143 334.2 83.2419C335.221 84.1553 336.329 84.9149 337.449 85.2237L337.98 83.2956C337.301 83.1082 336.469 82.5881 335.534 81.7514C334.615 80.929 333.669 79.8673 332.756 78.7051C330.931 76.3809 329.306 73.7382 328.373 72.0223L326.616 72.9777ZM149.109 38.7046C145.293 41.6115 140.934 49.2375 139.396 62.5855C137.852 75.9838 139.128 95.287 146.754 121.777L148.676 121.223C141.101 94.913 139.877 75.8829 141.383 62.8145C142.895 49.6959 147.136 42.7218 150.321 40.2954L149.109 38.7046ZM85.5697 120.981C79.5483 111.054 69.6435 80.6913 79.1886 39.7269L77.2408 39.2731C67.5859 80.7087 77.5477 111.612 83.8597 122.019L85.5697 120.981ZM164.215 40.5H166.715V38.5H164.215V40.5ZM178.214 38.5H166.715V40.5H178.214V38.5ZM222.692 9.82323C226.701 9.92165 229.888 10 231.715 10V8C229.92 8 226.764 7.92261 222.742 7.82383L222.692 9.82323ZM280.215 38.5H268.715V40.5H280.215V38.5ZM268.715 38.5H263.56V40.5H268.715V38.5ZM164.215 40.5003H166.715V38.5003H164.215V40.5003ZM178.215 38.5003H166.715V40.5003H178.215V38.5003Z" fill="black"/>
<path d="M342.215 72.5003C343.258 73.8671 343.765 75.2055 343.797 76.5003C343.859 79.0799 342.032 81.4866 338.787 83.6014C338.113 84.0409 337.262 84.163 336.565 83.7611C334.18 82.3872 331.516 78.9414 329.548 75.9224C328.457 74.2485 329.452 72.0914 331.352 71.4738C332.304 71.1645 333.164 70.8321 333.923 70.4752C336.026 69.4873 339.652 69.2449 341.097 71.0643C341.474 71.5397 341.847 72.0184 342.215 72.5003Z" fill="#6BFFE9"/>
<path d="M277.452 74.9056C265.474 74.588 253.502 73.9144 243.429 73.1638C240.636 72.9557 239.239 76.17 241.528 77.7834C250.787 84.3079 262.751 88.325 275.215 90.3932C279.301 91.1826 280.295 83.4573 280.295 77.7327C280.295 76.1712 279.013 74.947 277.452 74.9056Z" fill="#6BFFE9"/>
<path d="M342.215 72.5003C343.258 73.8671 343.765 75.2055 343.797 76.5003C343.859 79.0799 342.032 81.4866 338.787 83.6014C338.113 84.0409 337.262 84.163 336.565 83.7611C334.18 82.3872 331.516 78.9414 329.548 75.9224C328.457 74.2485 329.452 72.0914 331.352 71.4738C332.304 71.1645 333.164 70.8321 333.923 70.4752C336.026 69.4873 339.652 69.2449 341.097 71.0643C341.474 71.5397 341.847 72.0184 342.215 72.5003Z" stroke="black" stroke-width="2" stroke-linecap="round" stroke-linejoin="round"/>
<path d="M277.452 74.9056C265.474 74.588 253.502 73.9144 243.429 73.1638C240.636 72.9557 239.239 76.17 241.528 77.7834C250.787 84.3079 262.751 88.325 275.215 90.3932C279.301 91.1826 280.295 83.4573 280.295 77.7327C280.295 76.1712 279.013 74.947 277.452 74.9056Z" stroke="black" stroke-width="2" stroke-linecap="round" stroke-linejoin="round"/>
<path d="M76.1534 121.59C63.6331 111.582 77.7219 63 43.7147 63C36.048 63 20.7147 69.9 20.7147 97.5C20.7147 124.645 31.0324 133.701 36.4465 134.944C36.6273 134.986 36.8023 135 36.9877 135H66.2147C75.3336 135 78.6779 128.821 79.498 124.29C79.7245 123.038 78.6837 122 77.4119 122C76.9573 122 76.5085 121.873 76.1534 121.59Z" fill="#D9D9D9" stroke="black" stroke-width="2" stroke-linecap="round" stroke-linejoin="round"/>
<ellipse cx="42.2147" cy="99.5" rx="15" ry="27.5" fill="#7D7D7D" stroke="black" stroke-width="2" stroke-linecap="round" stroke-linejoin="round"/>
<ellipse cx="47.2147" cy="99.5" rx="10" ry="17.5" fill="#FBFBFB" stroke="black" stroke-width="2" stroke-linecap="round" stroke-linejoin="round"/>
<path d="M121.715 135C117.106 135 113.382 129.493 111.223 124.825C110.37 122.978 111.796 121 113.83 121H157.215C158.872 121 160.251 122.358 159.919 123.981C158.66 130.126 153.686 133.606 150.689 134.821C150.376 134.947 150.047 135 149.709 135H121.715Z" fill="#7D7D7D" stroke="black" stroke-width="2" stroke-linecap="round" stroke-linejoin="round"/>
<path d="M263.215 135C258.606 135 254.882 129.493 252.723 124.825C251.87 122.978 253.296 121 255.33 121H298.715C300.371 121 301.751 122.358 301.419 123.981C300.16 130.126 295.186 133.606 292.189 134.821C291.876 134.947 291.547 135 291.209 135H263.215Z" fill="#7D7D7D" stroke="black" stroke-width="2" stroke-linecap="round" stroke-linejoin="round"/>
<path d="M166.488 135H195.715C199.086 135 207.572 134.536 209.521 122.432C209.666 121.533 209.331 120.637 208.743 119.942C196.039 104.937 202.19 63.5 172.715 63.5C165.048 63.5 150.215 69.9 150.215 97.5C150.215 124.645 160.532 133.701 165.946 134.944C166.127 134.986 166.302 135 166.488 135Z" fill="#D9D9D9" stroke="black" stroke-width="2" stroke-linecap="round" stroke-linejoin="round"/>
<ellipse cx="171.715" cy="99.5" rx="15" ry="27.5" fill="#7D7D7D" stroke="black" stroke-width="2" stroke-linecap="round" stroke-linejoin="round"/>
<ellipse cx="176.715" cy="99.5" rx="10" ry="17.5" fill="#FBFBFB" stroke="black" stroke-width="2" stroke-linecap="round" stroke-linejoin="round"/>
<path d="M133.715 23.5004C143.715 23.5004 146.881 32.1671 147.215 36.5004L155.715 45.5C156.881 47 158.015 51.6 153.215 58C147.215 66 141.715 57 143.715 53C145.315 49.8 141.381 48.3969 139.215 48.0953C137.5 48.7018 135.626 49 133.715 49C126.715 49 108.715 50.0004 108.715 36.5004C108.715 23.0004 121.215 23.5004 133.715 23.5004Z" fill="#FF3434"/>
<path d="M147.215 36.5004C146.881 32.1671 143.715 23.5004 133.715 23.5004C121.215 23.5004 108.715 23.0004 108.715 36.5004C108.715 50.0004 126.715 49 133.715 49C135.626 49 137.5 48.7018 139.215 48.0953M147.215 36.5004L155.715 45.5C156.881 47 158.015 51.6 153.215 58C147.215 66 141.715 57 143.715 53C145.315 49.8 141.381 48.3969 139.215 48.0953M147.215 36.5004C147.215 42.6798 143.78 46.4805 139.215 48.0953" stroke="black" stroke-width="2" stroke-linecap="round" stroke-linejoin="round"/>
<path d="M295.646 57.559L292.236 59.2639C291.254 59.7548 290.542 60.6143 290.283 61.6022C290.018 62.6119 290.239 63.7247 291.068 64.5874C293.741 67.3704 298.395 70.3291 302.958 70.9011C304.244 71.0623 305.459 70.4621 306.179 69.4553C307.43 67.7056 308.933 64.9986 308.79 61.8028C308.712 60.0667 307.289 58.9418 305.847 58.6672L298.183 57.2074C297.322 57.0433 296.43 57.1669 295.646 57.559Z" fill="#AAFFE7" stroke="black" stroke-width="2" stroke-linecap="round" stroke-linejoin="round"/>
<path d="M304.406 62.3322C304.394 62.2882 304.379 62.2464 304.358 62.2072C304.364 62.1969 304.5 60.9999 303.5 60.4999C301.64 59.5698 300.944 60.7134 300.937 60.722C300.691 60.6752 300.446 60.6558 300.206 60.6596C300.206 60.6596 300.206 60.6596 300.204 60.6598C299.707 60.6317 299.027 60.7745 299.027 60.7745C298.793 60.817 298.558 60.883 298.328 60.9742C298.319 60.9672 296.677 59.6617 295.5 60.9001C294.323 62.1385 296.441 63.2222 296.448 63.2294C296.437 63.2736 296.429 63.3177 296.425 63.3613C296.362 64.1454 295.5 64.5001 296 65.9998C296.5 67.4998 298.086 67.7777 300.108 67.5807L300.937 67.4999C300.941 67.5034 301.303 67.8964 301.967 67.8573C301.967 67.8573 302.121 67.8579 302.472 67.812C303.173 67.7437 303.471 67.2608 303.472 67.2548L304.301 67.174C306.323 66.977 307 65.4999 306 63.9999C305.38 63.0696 304.62 63.0894 304.406 62.3322Z" fill="black"/>
<path d="M164.215 11.5003C157.815 16.7003 170.881 32.3336 178.215 39.5003H263.515C265.827 39.5003 267.21 37.035 265.868 35.1519C258.813 25.2477 243.952 9.0003 231.715 9.0003C221.715 9.0003 170.215 6.6253 164.215 11.5003Z" fill="white" fill-opacity="0.5"/>
<path d="M227.2 12.885C227.389 12.642 227.68 12.5 227.988 12.5H235.452C236.285 12.5 236.752 13.4584 236.24 14.115L218.3 37.115C218.111 37.358 217.82 37.5 217.512 37.5H210.048C209.215 37.5 208.748 36.5416 209.26 35.885L227.2 12.885Z" fill="white"/>
<path d="M210.2 12.885C210.389 12.642 210.68 12.5 210.988 12.5H218.452C219.285 12.5 219.752 13.4584 219.24 14.115L201.3 37.115C201.111 37.358 200.82 37.5 200.512 37.5H193.048C192.215 37.5 191.748 36.5416 192.26 35.885L210.2 12.885Z" fill="white"/>
<path d="M39.5182 18.1101L45.3546 37.37C45.7379 38.635 46.9039 39.5 48.2256 39.5H73.2398C74.3266 39.5 75.3245 38.9089 75.8786 37.9739C82.6471 26.5536 92.0405 18.0578 97.2901 14.1947C98.3022 13.4499 98.8239 12.1469 98.0526 11.1547C96.3794 9.00238 92.4031 6.5 84.5 6.5H48.1259C42.0866 6.5 37.7668 12.3304 39.5182 18.1101Z" fill="#826666"/>
<path d="M62.5 18.5C64.1667 21.1667 67.8 27.8 69 33M84.5 6.5C77.2664 6.5 60.3412 6.5 48.1259 6.5C42.0866 6.5 37.7668 12.3304 39.5182 18.1101L45.3546 37.37C45.7379 38.635 46.9039 39.5 48.2256 39.5H73.2398C74.3266 39.5 75.3245 38.9089 75.8786 37.9739C82.6471 26.5536 92.0405 18.0578 97.2901 14.1947C98.3022 13.4499 98.8239 12.1469 98.0526 11.1547C96.3794 9.00238 92.4031 6.5 84.5 6.5Z" stroke="black" stroke-width="2" stroke-linecap="round" stroke-linejoin="round"/>
</svg>
