<svg width="361" height="340" viewBox="0 0 361 340" fill="none" xmlns="http://www.w3.org/2000/svg">
<ellipse cx="144.097" cy="320.854" rx="112.798" ry="10.129" fill="black" fill-opacity="0.5"/>
<path d="M214.455 320.238C219.045 319.3 221.767 314.49 220.782 309.666C219.796 304.842 215.406 301.484 210.817 302.421C206.227 303.359 203.505 308.169 204.49 312.993C205.475 317.817 209.866 321.175 214.455 320.238Z" fill="#15ADEA" stroke="black" stroke-width="2"/>
<path d="M211.051 320.37C215.641 319.433 218.363 314.623 217.377 309.799C216.392 304.974 212.002 301.617 207.412 302.554C202.823 303.492 200.1 308.302 201.086 313.126C202.071 317.95 206.461 321.308 211.051 320.37Z" fill="#8DD3E7" stroke="black" stroke-width="2"/>
<path d="M208.462 307.696C210.485 307.282 212.325 308.763 212.73 310.748C213.136 312.733 212.024 314.816 210.001 315.229C207.977 315.643 206.138 314.162 205.732 312.177C205.327 310.192 206.439 308.109 208.462 307.696Z" fill="black" stroke="black" stroke-width="2"/>
<path d="M88.8566 320.238C93.4462 319.3 96.1683 314.49 95.183 309.666C94.1978 304.842 89.8075 301.484 85.2179 302.421C80.6282 303.359 77.9061 308.169 78.8914 312.993C79.8767 317.817 84.2669 321.175 88.8566 320.238Z" fill="#15ADEA" stroke="black" stroke-width="2"/>
<path d="M85.4513 320.37C90.0409 319.433 92.763 314.623 91.7778 309.799C90.7925 304.974 86.4023 301.617 81.8126 302.554C77.223 303.492 74.5009 308.302 75.4861 313.126C76.4714 317.95 80.8617 321.308 85.4513 320.37Z" fill="#8DD3E7" stroke="black" stroke-width="2"/>
<path d="M82.8622 307.696C84.8855 307.282 86.7252 308.763 87.1305 310.748C87.5359 312.733 86.4242 314.816 84.4009 315.229C82.3777 315.643 80.538 314.162 80.1326 312.177C79.7273 310.192 80.839 308.109 82.8622 307.696Z" fill="black" stroke="black" stroke-width="2"/>
<path fill-rule="evenodd" clip-rule="evenodd" d="M100.278 286.148C97.2894 286.194 94.4454 286.241 91.7784 286.288C86.1361 286.799 72.2002 287.379 62.3005 283.631C57.5313 281.826 55.1967 280.425 52.7113 278.934C51.2074 278.031 49.6482 277.096 47.461 276.017C33.1981 271.867 30.7001 275.096 29.1452 280.233C27.2016 286.654 44.8091 300.237 72.0195 301.344C93.7878 302.23 179.349 301.713 219.408 301.344C229.45 301.344 251.348 299.794 258.604 293.595C267.674 285.845 268.631 276.419 256.645 273.983C249.415 272.514 241.482 276.812 234.761 280.454C230.342 282.849 226.446 284.96 223.619 284.96C221.695 284.96 210.786 285.027 195.578 285.145C194.724 286.84 193.152 287.997 190.723 287.997H159.223C157.785 287.997 156.518 287.066 155.417 285.493C152.072 285.525 148.704 285.559 145.339 285.593C143.925 287.046 141.737 287.997 138.723 287.997C135.11 287.997 132.629 288.051 130.113 288.105C124.969 288.217 119.674 288.333 104.242 287.997C102.725 287.964 101.413 287.297 100.278 286.148Z" fill="#1343AE"/>
<path d="M91.7784 286.288L91.7607 285.288C91.7365 285.289 91.7123 285.29 91.6882 285.292L91.7784 286.288ZM100.278 286.148L100.99 285.446C100.798 285.251 100.535 285.144 100.263 285.148L100.278 286.148ZM62.3005 283.631L61.9464 284.567L62.3005 283.631ZM52.7113 278.934L53.2258 278.076L52.7113 278.934ZM47.461 276.017L47.9032 275.12C47.8509 275.095 47.7964 275.073 47.7404 275.057L47.461 276.017ZM29.1452 280.233L28.1881 279.943L29.1452 280.233ZM72.0195 301.344L72.0602 300.345L72.0195 301.344ZM219.408 301.344V300.344L219.399 300.344L219.408 301.344ZM258.604 293.595L259.254 294.355L258.604 293.595ZM256.645 273.983L256.845 273.003V273.003L256.645 273.983ZM234.761 280.454L234.285 279.575V279.575L234.761 280.454ZM195.578 285.145L195.57 284.145C195.195 284.148 194.854 284.36 194.685 284.695L195.578 285.145ZM155.417 285.493L156.236 284.92C156.047 284.649 155.737 284.49 155.407 284.493L155.417 285.493ZM145.339 285.593L145.329 284.593C145.062 284.596 144.808 284.705 144.622 284.896L145.339 285.593ZM130.113 288.105L130.091 287.106L130.113 288.105ZM104.242 287.997L104.264 286.997L104.242 287.997ZM91.7962 287.288C94.4622 287.241 97.3054 287.194 100.294 287.148L100.263 285.148C97.2733 285.194 94.4286 285.241 91.7607 285.288L91.7962 287.288ZM61.9464 284.567C72.0787 288.403 86.2183 287.796 91.8686 287.284L91.6882 285.292C86.054 285.802 72.3218 286.356 62.6546 282.696L61.9464 284.567ZM52.1968 279.791C54.7055 281.296 57.0978 282.731 61.9464 284.567L62.6546 282.696C57.9648 280.921 55.6879 279.553 53.2258 278.076L52.1968 279.791ZM47.0188 276.914C49.1663 277.973 50.6953 278.89 52.1968 279.791L53.2258 278.076C51.7194 277.172 50.1301 276.218 47.9032 275.12L47.0188 276.914ZM30.1023 280.523C30.8608 278.017 31.7472 276.345 33.8744 275.584C36.1503 274.77 40.0641 274.907 47.1816 276.977L47.7404 275.057C40.595 272.978 36.1283 272.654 33.2008 273.701C30.1245 274.802 28.9845 277.312 28.1881 279.943L30.1023 280.523ZM72.0602 300.345C58.6059 299.798 47.5597 296.166 40.1472 291.914C36.4359 289.785 33.6736 287.523 31.9705 285.45C30.2258 283.327 29.767 281.631 30.1023 280.523L28.1881 279.943C27.5516 282.046 28.5648 284.456 30.4253 286.72C32.3273 289.034 35.3031 291.441 39.152 293.649C46.86 298.07 58.2227 301.784 71.9789 302.343L72.0602 300.345ZM219.399 300.344C179.324 300.713 93.7965 301.229 72.0602 300.345L71.9789 302.343C93.7791 303.23 179.374 302.713 219.417 302.344L219.399 300.344ZM257.954 292.834C256.292 294.255 253.713 295.465 250.53 296.467C247.366 297.464 243.689 298.229 239.9 298.806C232.323 299.959 224.39 300.344 219.408 300.344V302.344C224.468 302.344 232.505 301.954 240.201 300.783C244.049 300.197 247.835 299.413 251.131 298.375C254.408 297.343 257.288 296.034 259.254 294.355L257.954 292.834ZM256.446 274.963C259.327 275.549 261.325 276.534 262.604 277.719C263.863 278.885 264.468 280.283 264.521 281.831C264.631 285.007 262.403 289.034 257.954 292.834L259.254 294.355C263.875 290.406 266.661 285.846 266.52 281.762C266.448 279.68 265.612 277.78 263.963 276.252C262.333 274.742 259.957 273.636 256.845 273.003L256.446 274.963ZM235.238 281.333C238.611 279.506 242.208 277.559 245.852 276.243C249.496 274.926 253.085 274.28 256.446 274.963L256.845 273.003C252.975 272.217 248.983 272.985 245.173 274.361C241.363 275.738 237.633 277.761 234.285 279.575L235.238 281.333ZM223.619 285.96C225.249 285.96 227.088 285.36 228.996 284.52C230.921 283.673 233.038 282.525 235.238 281.333L234.285 279.575C232.065 280.778 230.025 281.883 228.19 282.69C226.339 283.505 224.816 283.96 223.619 283.96V285.96ZM195.586 286.145C210.796 286.027 221.7 285.96 223.619 285.96V283.96C221.69 283.96 210.776 284.027 195.57 284.145L195.586 286.145ZM194.685 284.695C193.997 286.061 192.766 286.997 190.723 286.997V288.997C193.539 288.997 195.451 287.619 196.471 285.594L194.685 284.695ZM190.723 286.997H159.223V288.997H190.723V286.997ZM159.223 286.997C158.264 286.997 157.26 286.383 156.236 284.92L154.598 286.066C155.776 287.75 157.305 288.997 159.223 288.997V286.997ZM145.349 286.593C148.714 286.559 152.082 286.525 155.427 286.493L155.407 284.493C152.062 284.525 148.694 284.559 145.329 284.593L145.349 286.593ZM144.622 284.896C143.431 286.12 141.521 286.997 138.723 286.997V288.997C141.954 288.997 144.419 287.972 146.056 286.291L144.622 284.896ZM138.723 286.997C135.098 286.997 132.609 287.051 130.091 287.106L130.135 289.105C132.65 289.05 135.121 288.997 138.723 288.997V286.997ZM130.091 287.106C124.961 287.217 119.681 287.332 104.264 286.997L104.22 288.997C119.667 289.333 124.976 289.217 130.135 289.105L130.091 287.106ZM104.264 286.997C103.059 286.971 101.982 286.451 100.99 285.446L99.5665 286.851C100.843 288.144 102.391 288.957 104.22 288.997L104.264 286.997Z" fill="black"/>
<path fill-rule="evenodd" clip-rule="evenodd" d="M96.9768 280.361C95.1802 280.39 93.4448 280.419 91.7785 280.449C86.1362 280.96 72.3414 281.143 62.3006 277.792C52.2597 274.441 50.3431 273.739 50.64 273.807C45.0033 271.706 32.7589 270.884 31.204 276.021C29.2604 282.442 44.8092 294.398 72.0196 295.505C93.7879 296.39 179.349 295.874 219.408 295.505C229.45 295.505 251.383 293.996 258.604 287.755C267.702 279.894 265.846 274.635 256.013 272.257C248.618 270.469 240.647 273.561 233.962 276.154C229.9 277.729 226.313 279.12 223.619 279.12C221.72 279.12 211.071 279.186 196.174 279.301C196.956 283.539 195.492 287.997 190.723 287.997H159.223C156.45 287.997 154.314 284.538 152.776 279.679C150.947 279.697 149.113 279.716 147.278 279.734C147.672 283.908 144.974 287.997 138.723 287.997C135.11 287.997 132.629 288.051 130.113 288.105C124.969 288.217 119.674 288.333 104.242 287.997C100.947 287.925 98.618 284.864 96.9768 280.361Z" fill="#4D76E2"/>
<path d="M91.7785 280.449L91.7607 279.449C91.7365 279.449 91.7124 279.451 91.6883 279.453L91.7785 280.449ZM96.9768 280.361L97.9164 280.018C97.7704 279.618 97.3868 279.354 96.9606 279.361L96.9768 280.361ZM62.3006 277.792L61.9839 278.741L62.3006 277.792ZM50.64 273.807L50.4166 274.781C50.93 274.899 51.4468 274.598 51.5979 274.094C51.7491 273.589 51.4828 273.054 50.9892 272.87L50.64 273.807ZM31.204 276.021L30.2469 275.731L31.204 276.021ZM219.408 295.505V294.505L219.399 294.505L219.408 295.505ZM258.604 287.755L257.95 286.999L258.604 287.755ZM256.013 272.257L256.248 271.285V271.285L256.013 272.257ZM233.962 276.154L233.6 275.221L233.962 276.154ZM196.174 279.301L196.166 278.301C195.871 278.303 195.591 278.436 195.403 278.664C195.215 278.892 195.137 279.191 195.191 279.482L196.174 279.301ZM152.776 279.679L153.729 279.378C153.597 278.958 153.206 278.675 152.766 278.679L152.776 279.679ZM147.278 279.734L147.268 278.734C146.988 278.737 146.722 278.857 146.535 279.065C146.348 279.273 146.256 279.55 146.283 279.828L147.278 279.734ZM130.113 288.105L130.135 289.105L130.113 288.105ZM104.242 287.997L104.22 288.997L104.242 287.997ZM91.7962 281.449C93.462 281.419 95.1968 281.39 96.993 281.361L96.9606 279.361C95.1635 279.39 93.4276 279.419 91.7607 279.449L91.7962 281.449ZM61.9839 278.741C72.221 282.158 86.18 281.96 91.8686 281.445L91.6883 279.453C86.0924 279.96 72.4619 280.129 62.6172 276.843L61.9839 278.741ZM50.8634 272.832C50.8474 272.828 50.7971 272.817 50.7364 272.81C50.7196 272.808 50.6247 272.795 50.5059 272.808C50.4596 272.813 50.2899 272.832 50.1056 272.941C50.0024 273.001 49.862 273.109 49.7542 273.289C49.6396 273.48 49.5991 273.691 49.6151 273.885C49.6423 274.216 49.8229 274.421 49.862 274.466C49.9263 274.539 49.987 274.586 50.0143 274.606C50.0725 274.65 50.1233 274.678 50.1407 274.687C50.1836 274.711 50.2223 274.728 50.2406 274.736C50.317 274.77 50.4352 274.815 50.5791 274.868C50.8841 274.98 51.4178 275.169 52.2673 275.462C53.9693 276.05 56.9625 277.064 61.9839 278.741L62.6172 276.843C57.5977 275.168 54.6122 274.156 52.9199 273.572C52.0723 273.279 51.555 273.096 51.2703 272.991C51.1996 272.965 51.1458 272.945 51.1063 272.929C51.0866 272.922 51.0718 272.916 51.061 272.912C51.0496 272.907 51.0458 272.905 51.0473 272.906C51.0482 272.906 51.0527 272.908 51.0596 272.912C51.0655 272.914 51.0799 272.921 51.0987 272.932C51.1108 272.938 51.1576 272.964 51.2132 273.005C51.2391 273.025 51.2989 273.071 51.3624 273.143C51.401 273.187 51.5812 273.391 51.6083 273.722C51.6243 273.916 51.5838 274.127 51.4694 274.317C51.3617 274.497 51.2215 274.605 51.1186 274.665C50.9349 274.773 50.7661 274.792 50.721 274.797C50.6045 274.809 50.5133 274.797 50.5012 274.796C50.4708 274.792 50.4481 274.788 50.4388 274.786C50.4276 274.784 50.4198 274.782 50.4166 274.781L50.8634 272.832ZM32.1611 276.311C32.4313 275.418 33.1891 274.683 34.4922 274.134C35.7956 273.585 37.5174 273.283 39.4352 273.199C43.2736 273.03 47.6089 273.744 50.2908 274.744L50.9892 272.87C48.0343 271.769 43.4291 271.021 39.3474 271.201C37.3052 271.291 35.322 271.615 33.7161 272.291C32.1099 272.967 30.7541 274.055 30.2469 275.731L32.1611 276.311ZM72.0602 294.506C58.5855 293.957 48.0536 290.724 41.1662 286.882C37.7173 284.958 35.2233 282.905 33.7202 280.999C32.1962 279.066 31.8139 277.458 32.1611 276.311L30.2469 275.731C29.6223 277.794 30.4548 280.088 32.1498 282.238C33.8659 284.414 36.5952 286.623 40.1919 288.629C47.3956 292.647 58.2433 295.945 71.9789 296.504L72.0602 294.506ZM219.399 294.505C179.324 294.874 93.7966 295.39 72.0602 294.506L71.9789 296.504C93.7791 297.391 179.374 296.874 219.417 296.505L219.399 294.505ZM257.95 286.999C256.298 288.427 253.725 289.641 250.544 290.645C247.382 291.643 243.705 292.407 239.914 292.981C232.333 294.13 224.391 294.505 219.408 294.505V296.505C224.467 296.505 232.512 296.125 240.214 294.959C244.064 294.376 247.851 293.592 251.146 292.552C254.423 291.518 257.3 290.204 259.258 288.512L257.95 286.999ZM255.778 273.229C258.174 273.808 260.008 274.547 261.288 275.406C262.559 276.26 263.222 277.189 263.43 278.159C263.639 279.136 263.429 280.348 262.556 281.848C261.68 283.353 260.179 285.072 257.95 286.999L259.258 288.512C261.578 286.507 263.256 284.621 264.284 282.854C265.315 281.084 265.732 279.358 265.385 277.74C265.037 276.115 263.961 274.792 262.403 273.746C260.853 272.705 258.768 271.894 256.248 271.285L255.778 273.229ZM234.324 277.086C241.083 274.464 248.744 271.528 255.778 273.229L256.248 271.285C248.492 269.41 240.21 272.658 233.6 275.221L234.324 277.086ZM223.619 280.12C225.119 280.12 226.805 279.737 228.576 279.182C230.356 278.626 232.301 277.87 234.324 277.086L233.6 275.221C231.561 276.012 229.682 276.741 227.979 277.274C226.268 277.809 224.813 278.12 223.619 278.12V280.12ZM196.182 280.301C211.08 280.186 221.725 280.12 223.619 280.12V278.12C221.715 278.12 211.061 278.186 196.166 278.301L196.182 280.301ZM195.191 279.482C195.555 281.456 195.374 283.386 194.645 284.773C193.951 286.093 192.731 286.997 190.723 286.997V288.997C193.484 288.997 195.38 287.672 196.415 285.703C197.414 283.802 197.575 281.383 197.158 279.119L195.191 279.482ZM190.723 286.997H159.223V288.997H190.723V286.997ZM159.223 286.997C158.299 286.997 157.333 286.427 156.344 285.071C155.363 283.725 154.484 281.762 153.729 279.378L151.823 279.981C152.606 282.456 153.564 284.652 154.728 286.249C155.885 287.837 157.374 288.997 159.223 288.997V286.997ZM147.288 280.734C149.123 280.716 150.957 280.697 152.786 280.679L152.766 278.679C150.937 278.697 149.103 278.716 147.268 278.734L147.288 280.734ZM146.283 279.828C146.457 281.675 145.945 283.45 144.753 284.757C143.571 286.055 141.623 286.997 138.723 286.997V288.997C142.074 288.997 144.601 287.894 146.232 286.104C147.854 284.324 148.494 281.967 148.274 279.64L146.283 279.828ZM138.723 286.997C135.098 286.997 132.609 287.051 130.091 287.106L130.135 289.105C132.65 289.05 135.121 288.997 138.723 288.997V286.997ZM130.091 287.106C124.961 287.217 119.681 287.332 104.264 286.997L104.22 288.997C119.667 289.333 124.976 289.217 130.135 289.105L130.091 287.106ZM104.264 286.997C102.959 286.969 101.798 286.359 100.733 285.173C99.6538 283.969 98.7153 282.211 97.9164 280.018L96.0373 280.703C96.8796 283.015 97.9258 285.038 99.2446 286.508C100.579 287.996 102.23 288.953 104.22 288.997L104.264 286.997Z" fill="black"/>
<mask id="mask0_1521_8787" style="mask-type:alpha" maskUnits="userSpaceOnUse" x="32" y="271" width="233" height="24">
<path opacity="0.7" fill-rule="evenodd" clip-rule="evenodd" d="M96.3512 281.417C94.727 281.446 93.1543 281.475 91.6389 281.501C85.9966 282.012 72.2019 282.196 62.161 278.845C52.1201 275.493 50.3412 273.739 50.6381 273.807C45.0014 271.706 33.9939 270.983 32.4391 276.12C30.4955 282.541 45.7736 293.341 72.1446 294.418C93.9128 295.306 179.427 294.906 219.486 294.537C229.528 294.537 251.381 293.996 258.602 287.755C267.7 279.894 265.844 274.635 256.011 272.257C248.616 270.469 240.645 273.561 233.96 276.154C229.898 277.729 226.311 279.12 223.617 279.12C221.722 279.12 211.093 279.302 196.219 279.572C196.89 283.727 195.388 287.997 190.721 287.997H159.221C156.581 287.997 154.519 284.863 153 280.371C151.896 280.391 150.79 280.412 149.683 280.433C149.195 280.442 148.707 280.451 148.218 280.46C148.765 284.453 146.443 288.264 140.015 288.617L139.878 288.625L139.878 288.625C128.045 289.276 126.611 289.355 103.718 288.857C100.48 288.786 98.1004 285.815 96.3512 281.417Z" fill="#4D76E2"/>
</mask>
<g mask="url(#mask0_1521_8787)">
<path d="M67.6597 279.006L188.147 293.262L192.581 299.309L93.6195 285.535L119.054 296.133L-3.23256 274.472L-3.96696 273.205L84.8423 287.095L67.6597 279.006Z" fill="white"/>
</g>
</svg>
