<svg width="361" height="340" viewBox="0 0 361 340" fill="none" xmlns="http://www.w3.org/2000/svg">
<ellipse cx="143.172" cy="320.854" rx="112.798" ry="10.129" fill="black" fill-opacity="0.5"/>
<path d="M213.53 320.238C218.12 319.3 220.842 314.49 219.857 309.666C218.872 304.842 214.481 301.484 209.892 302.421C205.302 303.359 202.58 308.169 203.565 312.993C204.551 317.817 208.941 321.175 213.53 320.238Z" fill="#15ADEA" stroke="black" stroke-width="2"/>
<path d="M210.126 320.37C214.716 319.433 217.438 314.623 216.453 309.799C215.467 304.974 211.077 301.617 206.487 302.554C201.898 303.492 199.176 308.302 200.161 313.126C201.146 317.95 205.536 321.308 210.126 320.37Z" fill="#8DD3E7" stroke="black" stroke-width="2"/>
<path d="M207.537 307.696C209.56 307.282 211.4 308.763 211.805 310.748C212.211 312.733 211.099 314.816 209.076 315.229C207.052 315.643 205.213 314.162 204.807 312.177C204.402 310.192 205.514 308.109 207.537 307.696Z" fill="black" stroke="black" stroke-width="2"/>
<path d="M87.9318 320.238C92.5214 319.3 95.2435 314.49 94.2582 309.666C93.2729 304.842 88.8827 301.484 84.2931 302.421C79.7034 303.359 76.9813 308.169 77.9666 312.993C78.9519 317.817 83.3421 321.175 87.9318 320.238Z" fill="#15ADEA" stroke="black" stroke-width="2"/>
<path d="M84.5265 320.37C89.1161 319.433 91.8382 314.623 90.853 309.799C89.8677 304.974 85.4774 301.617 80.8878 302.554C76.2982 303.492 73.5761 308.302 74.5613 313.126C75.5466 317.95 79.9369 321.308 84.5265 320.37Z" fill="#8DD3E7" stroke="black" stroke-width="2"/>
<path d="M81.9374 307.696C83.9607 307.282 85.8003 308.763 86.2057 310.748C86.6111 312.733 85.4994 314.816 83.4761 315.229C81.4529 315.643 79.6132 314.162 79.2078 312.177C78.8024 310.192 79.9142 308.109 81.9374 307.696Z" fill="black" stroke="black" stroke-width="2"/>
<path fill-rule="evenodd" clip-rule="evenodd" d="M99.3533 286.148C96.3646 286.194 93.5206 286.241 90.8536 286.288C85.2113 286.799 71.2754 287.379 61.3757 283.631C56.6065 281.826 54.2719 280.425 51.7865 278.934C50.2826 278.031 48.7234 277.096 46.5362 276.017C32.2733 271.867 29.7753 275.096 28.2204 280.233C26.2768 286.654 43.8843 300.237 71.0947 301.344C92.863 302.23 178.424 301.713 218.483 301.344C228.525 301.344 250.423 299.794 257.679 293.595C266.749 285.845 267.706 276.419 255.721 273.983C248.49 272.514 240.557 276.812 233.837 280.454C229.417 282.849 225.522 284.96 222.694 284.96C220.77 284.96 209.861 285.027 194.653 285.145C193.799 286.84 192.227 287.997 189.798 287.997H158.298C156.86 287.997 155.593 287.066 154.492 285.493C151.147 285.525 147.779 285.559 144.414 285.593C143 287.046 140.812 287.997 137.798 287.997C134.185 287.997 131.704 288.051 129.188 288.105C124.044 288.217 118.749 288.333 103.317 287.997C101.8 287.964 100.488 287.297 99.3533 286.148Z" fill="#1343AE"/>
<path d="M90.8536 286.288L90.8359 285.288C90.8117 285.289 90.7875 285.29 90.7634 285.292L90.8536 286.288ZM99.3533 286.148L100.065 285.446C99.8733 285.251 99.6107 285.144 99.3379 285.148L99.3533 286.148ZM61.3757 283.631L61.0216 284.567L61.3757 283.631ZM51.7865 278.934L52.301 278.076L51.7865 278.934ZM46.5362 276.017L46.9784 275.12C46.9261 275.095 46.8716 275.073 46.8156 275.057L46.5362 276.017ZM28.2204 280.233L27.2633 279.943L28.2204 280.233ZM71.0947 301.344L71.1354 300.345L71.0947 301.344ZM218.483 301.344V300.344L218.474 300.344L218.483 301.344ZM257.679 293.595L258.329 294.355L257.679 293.595ZM255.721 273.983L255.92 273.003V273.003L255.721 273.983ZM233.837 280.454L233.36 279.575V279.575L233.837 280.454ZM194.653 285.145L194.645 284.145C194.27 284.148 193.929 284.36 193.76 284.695L194.653 285.145ZM154.492 285.493L155.311 284.92C155.122 284.649 154.812 284.49 154.482 284.493L154.492 285.493ZM144.414 285.593L144.404 284.593C144.138 284.596 143.883 284.705 143.698 284.896L144.414 285.593ZM129.188 288.105L129.166 287.106L129.188 288.105ZM103.317 287.997L103.339 286.997L103.317 287.997ZM90.8714 287.288C93.5374 287.241 96.3806 287.194 99.3687 287.148L99.3379 285.148C96.3485 285.194 93.5038 285.241 90.8359 285.288L90.8714 287.288ZM61.0216 284.567C71.1539 288.403 85.2934 287.796 90.9438 287.284L90.7634 285.292C85.1292 285.802 71.397 286.356 61.7298 282.696L61.0216 284.567ZM51.272 279.791C53.7807 281.296 56.173 282.731 61.0216 284.567L61.7298 282.696C57.04 280.921 54.7631 279.553 52.301 278.076L51.272 279.791ZM46.094 276.914C48.2415 277.973 49.7705 278.89 51.272 279.791L52.301 278.076C50.7946 277.172 49.2053 276.218 46.9784 275.12L46.094 276.914ZM29.1775 280.523C29.936 278.017 30.8224 276.345 32.9496 275.584C35.2255 274.77 39.1393 274.907 46.2568 276.977L46.8156 275.057C39.6702 272.978 35.2035 272.654 32.276 273.701C29.1997 274.802 28.0597 277.312 27.2633 279.943L29.1775 280.523ZM71.1354 300.345C57.6811 299.798 46.6349 296.166 39.2224 291.914C35.5111 289.785 32.7488 287.523 31.0457 285.45C29.301 283.327 28.8422 281.631 29.1775 280.523L27.2633 279.943C26.6268 282.046 27.64 284.456 29.5005 286.72C31.4025 289.034 34.3783 291.441 38.2272 293.649C45.9352 298.07 57.2979 301.784 71.0541 302.343L71.1354 300.345ZM218.474 300.344C178.399 300.713 92.8717 301.229 71.1354 300.345L71.0541 302.343C92.8543 303.23 178.449 302.713 218.492 302.344L218.474 300.344ZM257.03 292.834C255.367 294.255 252.789 295.465 249.605 296.467C246.441 297.464 242.764 298.229 238.975 298.806C231.398 299.959 223.465 300.344 218.483 300.344V302.344C223.543 302.344 231.58 301.954 239.276 300.783C243.125 300.197 246.91 299.413 250.206 298.375C253.483 297.343 256.363 296.034 258.329 294.355L257.03 292.834ZM255.522 274.963C258.402 275.549 260.4 276.534 261.679 277.719C262.938 278.885 263.543 280.283 263.596 281.831C263.706 285.007 261.478 289.034 257.03 292.834L258.329 294.355C262.951 290.406 265.736 285.846 265.595 281.762C265.523 279.68 264.687 277.78 263.038 276.252C261.409 274.742 259.032 273.636 255.92 273.003L255.522 274.963ZM234.313 281.333C237.686 279.506 241.283 277.559 244.927 276.243C248.571 274.926 252.161 274.28 255.522 274.963L255.92 273.003C252.05 272.217 248.058 272.985 244.248 274.361C240.438 275.738 236.708 277.761 233.36 279.575L234.313 281.333ZM222.694 285.96C224.325 285.96 226.164 285.36 228.071 284.52C229.996 283.673 232.114 282.525 234.313 281.333L233.36 279.575C231.14 280.778 229.1 281.883 227.266 282.69C225.414 283.505 223.891 283.96 222.694 283.96V285.96ZM194.661 286.145C209.871 286.027 220.775 285.96 222.694 285.96V283.96C220.765 283.96 209.851 284.027 194.645 284.145L194.661 286.145ZM193.76 284.695C193.072 286.061 191.841 286.997 189.798 286.997V288.997C192.614 288.997 194.526 287.619 195.546 285.594L193.76 284.695ZM189.798 286.997H158.298V288.997H189.798V286.997ZM158.298 286.997C157.34 286.997 156.335 286.383 155.311 284.92L153.673 286.066C154.851 287.75 156.38 288.997 158.298 288.997V286.997ZM144.425 286.593C147.789 286.559 151.157 286.525 154.502 286.493L154.482 284.493C151.137 284.525 147.769 284.559 144.404 284.593L144.425 286.593ZM143.698 284.896C142.506 286.12 140.596 286.997 137.798 286.997V288.997C141.029 288.997 143.495 287.972 145.131 286.291L143.698 284.896ZM137.798 286.997C134.173 286.997 131.684 287.051 129.166 287.106L129.21 289.105C131.725 289.05 134.196 288.997 137.798 288.997V286.997ZM129.166 287.106C124.036 287.217 118.756 287.332 103.339 286.997L103.295 288.997C118.742 289.333 124.051 289.217 129.21 289.105L129.166 287.106ZM103.339 286.997C102.134 286.971 101.057 286.451 100.065 285.446L98.6417 286.851C99.9185 288.144 101.466 288.957 103.295 288.997L103.339 286.997Z" fill="black"/>
<path fill-rule="evenodd" clip-rule="evenodd" d="M96.052 280.361C94.2554 280.39 92.52 280.419 90.8537 280.449C85.2114 280.96 71.4166 281.143 61.3758 277.792C51.3349 274.441 49.4183 273.739 49.7152 273.807C44.0785 271.706 31.8341 270.884 30.2792 276.021C28.3356 282.442 43.8844 294.398 71.0948 295.505C92.8631 296.39 178.424 295.874 218.483 295.505C228.525 295.505 250.458 293.996 257.679 287.755C266.777 279.894 264.921 274.635 255.088 272.257C247.693 270.469 239.722 273.561 233.037 276.154C228.975 277.729 225.388 279.12 222.694 279.12C220.795 279.12 210.146 279.186 195.249 279.301C196.031 283.539 194.567 287.997 189.798 287.997H158.298C155.525 287.997 153.389 284.538 151.851 279.679C150.022 279.697 148.188 279.716 146.353 279.734C146.748 283.908 144.049 287.997 137.798 287.997C134.185 287.997 131.704 288.051 129.188 288.105C124.044 288.217 118.749 288.333 103.317 287.997C100.022 287.925 97.6932 284.864 96.052 280.361Z" fill="#4D76E2"/>
<path d="M90.8537 280.449L90.8359 279.449C90.8117 279.449 90.7876 279.451 90.7635 279.453L90.8537 280.449ZM96.052 280.361L96.9916 280.018C96.8456 279.618 96.462 279.354 96.0358 279.361L96.052 280.361ZM61.3758 277.792L61.0591 278.741L61.3758 277.792ZM49.7152 273.807L49.4918 274.781C50.0052 274.899 50.522 274.598 50.6731 274.094C50.8243 273.589 50.558 273.054 50.0644 272.87L49.7152 273.807ZM30.2792 276.021L29.3221 275.731L30.2792 276.021ZM218.483 295.505V294.505L218.474 294.505L218.483 295.505ZM257.679 287.755L257.025 286.999L257.679 287.755ZM255.088 272.257L255.323 271.285V271.285L255.088 272.257ZM233.037 276.154L232.676 275.221L233.037 276.154ZM195.249 279.301L195.242 278.301C194.946 278.303 194.667 278.436 194.478 278.664C194.29 278.892 194.212 279.191 194.266 279.482L195.249 279.301ZM151.851 279.679L152.805 279.378C152.672 278.958 152.281 278.675 151.841 278.679L151.851 279.679ZM146.353 279.734L146.343 278.734C146.063 278.737 145.798 278.857 145.61 279.065C145.423 279.273 145.331 279.55 145.358 279.828L146.353 279.734ZM129.188 288.105L129.21 289.105L129.188 288.105ZM103.317 287.997L103.295 288.997L103.317 287.997ZM90.8714 281.449C92.5372 281.419 94.272 281.39 96.0682 281.361L96.0358 279.361C94.2387 279.39 92.5028 279.419 90.8359 279.449L90.8714 281.449ZM61.0591 278.741C71.2962 282.158 85.2552 281.96 90.9438 281.445L90.7635 279.453C85.1676 279.96 71.5371 280.129 61.6924 276.843L61.0591 278.741ZM49.9386 272.832C49.9226 272.828 49.8723 272.817 49.8116 272.81C49.7948 272.808 49.6999 272.795 49.5811 272.808C49.5348 272.813 49.3651 272.832 49.1808 272.941C49.0776 273.001 48.9372 273.109 48.8294 273.289C48.7148 273.48 48.6743 273.691 48.6903 273.885C48.7175 274.216 48.8981 274.421 48.9372 274.466C49.0015 274.539 49.0622 274.586 49.0895 274.606C49.1477 274.65 49.1985 274.678 49.2159 274.687C49.2588 274.711 49.2975 274.728 49.3158 274.736C49.3922 274.77 49.5104 274.815 49.6543 274.868C49.9593 274.98 50.493 275.169 51.3425 275.462C53.0445 276.05 56.0377 277.064 61.0591 278.741L61.6924 276.843C56.6729 275.168 53.6874 274.156 51.9951 273.572C51.1475 273.279 50.6302 273.096 50.3455 272.991C50.2748 272.965 50.221 272.945 50.1815 272.929C50.1618 272.922 50.147 272.916 50.1362 272.912C50.1248 272.907 50.121 272.905 50.1225 272.906C50.1234 272.906 50.1279 272.908 50.1348 272.912C50.1407 272.914 50.1551 272.921 50.1739 272.932C50.186 272.938 50.2328 272.964 50.2884 273.005C50.3143 273.025 50.3741 273.071 50.4376 273.143C50.4762 273.187 50.6564 273.391 50.6835 273.722C50.6995 273.916 50.659 274.127 50.5446 274.317C50.4369 274.497 50.2967 274.605 50.1938 274.665C50.0101 274.773 49.8413 274.792 49.7962 274.797C49.6797 274.809 49.5884 274.797 49.5764 274.796C49.546 274.792 49.5232 274.788 49.514 274.786C49.5028 274.784 49.495 274.782 49.4918 274.781L49.9386 272.832ZM31.2363 276.311C31.5065 275.418 32.2643 274.683 33.5674 274.134C34.8708 273.585 36.5925 273.283 38.5104 273.199C42.3488 273.03 46.6841 273.744 49.366 274.744L50.0644 272.87C47.1095 271.769 42.5043 271.021 38.4226 271.201C36.3804 271.291 34.3972 271.615 32.7913 272.291C31.1851 272.967 29.8293 274.055 29.3221 275.731L31.2363 276.311ZM71.1354 294.506C57.6606 293.957 47.1288 290.724 40.2414 286.882C36.7925 284.958 34.2984 282.905 32.7954 280.999C31.2713 279.066 30.8891 277.458 31.2363 276.311L29.3221 275.731C28.6975 277.794 29.53 280.088 31.225 282.238C32.9411 284.414 35.6704 286.623 39.2671 288.629C46.4708 292.647 57.3185 295.945 71.0541 296.504L71.1354 294.506ZM218.474 294.505C178.399 294.874 92.8718 295.39 71.1354 294.506L71.0541 296.504C92.8543 297.391 178.449 296.874 218.493 296.505L218.474 294.505ZM257.025 286.999C255.373 288.427 252.801 289.641 249.62 290.645C246.457 291.643 242.78 292.407 238.989 292.981C231.408 294.13 223.466 294.505 218.483 294.505V296.505C223.542 296.505 231.588 296.125 239.289 294.959C243.139 294.376 246.927 293.592 250.222 292.552C253.498 291.518 256.375 290.204 258.333 288.512L257.025 286.999ZM254.853 273.229C257.249 273.808 259.083 274.547 260.363 275.406C261.634 276.26 262.297 277.189 262.505 278.159C262.714 279.136 262.504 280.348 261.631 281.848C260.756 283.353 259.255 285.072 257.025 286.999L258.333 288.512C260.653 286.507 262.331 284.621 263.36 282.854C264.39 281.084 264.807 279.358 264.461 277.74C264.112 276.115 263.036 274.792 261.478 273.746C259.928 272.705 257.843 271.894 255.323 271.285L254.853 273.229ZM233.399 277.086C240.159 274.464 247.819 271.528 254.853 273.229L255.323 271.285C247.568 269.41 239.285 272.658 232.676 275.221L233.399 277.086ZM222.694 280.12C224.194 280.12 225.88 279.737 227.651 279.182C229.431 278.626 231.376 277.87 233.399 277.086L232.676 275.221C230.636 276.012 228.757 276.741 227.054 277.274C225.343 277.809 223.888 278.12 222.694 278.12V280.12ZM195.257 280.301C210.155 280.186 220.8 280.12 222.694 280.12V278.12C220.791 278.12 210.136 278.186 195.242 278.301L195.257 280.301ZM194.266 279.482C194.63 281.456 194.449 283.386 193.72 284.773C193.026 286.093 191.806 286.997 189.798 286.997V288.997C192.559 288.997 194.455 287.672 195.49 285.703C196.49 283.802 196.65 281.383 196.233 279.119L194.266 279.482ZM189.798 286.997H158.298V288.997H189.798V286.997ZM158.298 286.997C157.374 286.997 156.408 286.427 155.42 285.071C154.438 283.725 153.559 281.762 152.805 279.378L150.898 279.981C151.681 282.456 152.639 284.652 153.803 286.249C154.961 287.837 156.449 288.997 158.298 288.997V286.997ZM146.363 280.734C148.198 280.716 150.032 280.697 151.861 280.679L151.841 278.679C150.012 278.697 148.178 278.716 146.343 278.734L146.363 280.734ZM145.358 279.828C145.532 281.675 145.02 283.45 143.828 284.757C142.646 286.055 140.698 286.997 137.798 286.997V288.997C141.149 288.997 143.676 287.894 145.307 286.104C146.929 284.324 147.569 281.967 147.349 279.64L145.358 279.828ZM137.798 286.997C134.173 286.997 131.684 287.051 129.166 287.106L129.21 289.105C131.725 289.05 134.196 288.997 137.798 288.997V286.997ZM129.166 287.106C124.036 287.217 118.756 287.332 103.339 286.997L103.295 288.997C118.742 289.333 124.051 289.217 129.21 289.105L129.166 287.106ZM103.339 286.997C102.034 286.969 100.873 286.359 99.8087 285.173C98.729 283.969 97.7905 282.211 96.9916 280.018L95.1125 280.703C95.9548 283.015 97.001 285.038 98.3198 286.508C99.6541 287.996 101.305 288.953 103.295 288.997L103.339 286.997Z" fill="black"/>
<mask id="mask0_1521_8787" style="mask-type:alpha" maskUnits="userSpaceOnUse" x="31" y="271" width="233" height="24">
<path opacity="0.7" fill-rule="evenodd" clip-rule="evenodd" d="M95.4264 281.417C93.8022 281.446 92.2295 281.475 90.7141 281.501C85.0718 282.012 71.2771 282.196 61.2362 278.845C51.1953 275.493 49.4164 273.739 49.7133 273.807C44.0766 271.706 33.0691 270.983 31.5143 276.12C29.5707 282.541 44.8488 293.341 71.2198 294.418C92.988 295.306 178.502 294.906 218.561 294.537C228.603 294.537 250.456 293.996 257.677 287.755C266.775 279.894 264.919 274.635 255.086 272.257C247.691 270.469 239.72 273.561 233.035 276.154C228.973 277.729 225.386 279.12 222.692 279.12C220.797 279.12 210.168 279.302 195.294 279.572C195.965 283.727 194.463 287.997 189.796 287.997H158.296C155.657 287.997 153.594 284.863 152.075 280.371C150.971 280.391 149.865 280.412 148.758 280.433C148.27 280.442 147.782 280.451 147.294 280.46C147.84 284.453 145.518 288.264 139.09 288.617L138.953 288.625L138.953 288.625C127.12 289.276 125.686 289.355 102.793 288.857C99.5557 288.786 97.1756 285.815 95.4264 281.417Z" fill="#4D76E2"/>
</mask>
<g mask="url(#mask0_1521_8787)">
</g>
<path opacity="0.7" fill-rule="evenodd" clip-rule="evenodd" d="M95.8622 282.452L88.9386 281.633C84.6532 281.89 77.7687 281.915 70.953 280.992L83.9179 287.095L31.6523 278.92C31.8923 279.602 32.2733 280.304 32.7904 281.017L111.336 294.93C112.631 294.934 113.942 294.937 115.267 294.94L92.6951 285.536L98.1425 286.294C97.2899 285.263 96.5334 283.959 95.8622 282.452ZM118.677 289.152L159.951 294.897C169.695 294.862 179.318 294.816 188.322 294.762L187.222 293.262L142.575 287.98C141.583 288.322 140.425 288.544 139.091 288.618L138.953 288.625L138.953 288.625C130.736 289.077 127.534 289.253 118.677 289.152Z" fill="#C9D6F6"/>
</svg>
