<svg width="239" height="61" viewBox="0 0 239 61" fill="none" xmlns="http://www.w3.org/2000/svg">
<ellipse cx="116.201" cy="50.7109" rx="112.798" ry="10.129" fill="black" fill-opacity="0.5"/>
<path d="M186.559 50.0941C191.148 49.1568 193.87 44.3466 192.885 39.5223C191.9 34.6981 187.51 31.3405 182.92 32.2779C178.33 33.2152 175.608 38.0254 176.594 42.8496C177.579 47.6739 181.969 51.0315 186.559 50.0941Z" fill="#15ADEA" stroke="black" stroke-width="2"/>
<path d="M183.154 50.2273C187.744 49.2899 190.466 44.4798 189.481 39.6555C188.496 34.8312 184.105 31.4737 179.516 32.411C174.926 33.3484 172.204 38.1585 173.189 42.9828C174.175 47.8071 178.565 51.1647 183.154 50.2273Z" fill="#8DD3E7" stroke="black" stroke-width="2"/>
<path d="M180.565 37.552C182.589 37.1388 184.428 38.6195 184.834 40.6043C185.239 42.5892 184.127 44.6727 182.104 45.0859C180.081 45.4991 178.241 44.0184 177.836 42.0335C177.43 40.0487 178.542 37.9652 180.565 37.552Z" fill="black" stroke="black" stroke-width="2"/>
<path d="M60.9601 50.0941C65.5497 49.1568 68.2718 44.3466 67.2866 39.5223C66.3013 34.6981 61.911 31.3405 57.3214 32.2779C52.7318 33.2152 50.0096 38.0254 50.9949 42.8496C51.9802 47.6739 56.3704 51.0315 60.9601 50.0941Z" fill="#15ADEA" stroke="black" stroke-width="2"/>
<path d="M57.5548 50.2273C62.1445 49.2899 64.8666 44.4798 63.8813 39.6555C62.896 34.8312 58.5058 31.4737 53.9161 32.411C49.3265 33.3484 46.6044 38.1585 47.5897 42.9828C48.5749 47.8071 52.9652 51.1647 57.5548 50.2273Z" fill="#8DD3E7" stroke="black" stroke-width="2"/>
<path d="M54.9658 37.5521C56.989 37.1389 58.8287 38.6196 59.234 40.6045C59.6394 42.5893 58.5277 44.6728 56.5044 45.086C54.4812 45.4992 52.6415 44.0186 52.2361 42.0337C51.8308 40.0488 52.9425 37.9653 54.9658 37.5521Z" fill="black" stroke="black" stroke-width="2"/>
<path fill-rule="evenodd" clip-rule="evenodd" d="M72.3816 16.0049C69.3929 16.0509 66.5489 16.0977 63.8819 16.145C58.2397 16.6558 44.3037 17.2361 34.404 13.4881C29.6348 11.6825 27.3002 10.2817 24.8148 8.79041C23.3109 7.88804 21.7517 6.95252 19.5645 5.87411C5.30158 1.72416 2.80357 4.95328 1.2487 10.09C-0.694903 16.5108 16.9126 30.0938 44.123 31.2009C65.8913 32.0865 151.452 31.5699 191.512 31.2009C201.554 31.2009 223.451 29.651 230.708 23.4516C239.778 15.7023 240.735 6.27545 228.749 3.83995C221.518 2.37066 213.586 6.66914 206.865 10.3109C202.445 12.7058 198.55 14.8166 195.723 14.8166C193.798 14.8166 182.889 14.8839 167.681 15.0014C166.827 16.6967 165.256 17.8536 162.827 17.8536H131.327C129.888 17.8536 128.621 16.9232 127.52 15.3498C124.175 15.3821 120.807 15.4156 117.443 15.4502C116.029 16.9027 113.841 17.8536 110.827 17.8536C107.213 17.8536 104.733 17.9075 102.216 17.9622C97.0722 18.0741 91.7775 18.1893 76.3454 17.8536C74.8283 17.8205 73.5162 17.154 72.3816 16.0049Z" fill="#1343AE"/>
<path d="M63.8819 16.145L63.8642 15.1452C63.84 15.1456 63.8158 15.1469 63.7918 15.1491L63.8819 16.145ZM72.3816 16.0049L73.0932 15.3024C72.9016 15.1082 72.639 15.0008 72.3662 15.005L72.3816 16.0049ZM34.404 13.4881L34.0499 14.4233L34.0499 14.4233L34.404 13.4881ZM24.8148 8.79041L25.3293 7.93293L25.3293 7.93293L24.8148 8.79041ZM19.5645 5.87411L20.0067 4.9772C19.9544 4.9514 19.8999 4.93023 19.8439 4.91392L19.5645 5.87411ZM1.2487 10.09L0.291584 9.80024L0.291584 9.80024L1.2487 10.09ZM44.123 31.2009L44.1637 30.2017L44.123 31.2009ZM191.512 31.2009L191.512 30.2008L191.502 30.2009L191.512 31.2009ZM230.708 23.4516L231.357 24.2119L231.357 24.2119L230.708 23.4516ZM228.749 3.83995L228.948 2.85998L228.948 2.85998L228.749 3.83995ZM206.865 10.3109L206.389 9.43172L206.389 9.43172L206.865 10.3109ZM167.681 15.0014L167.674 14.0014C167.299 14.0043 166.957 14.2167 166.788 14.5515L167.681 15.0014ZM127.52 15.3498L128.34 14.7765C128.151 14.5062 127.841 14.3466 127.511 14.3498L127.52 15.3498ZM117.443 15.4502L117.432 14.4502C117.166 14.453 116.912 14.5618 116.726 14.7527L117.443 15.4502ZM102.216 17.9622L102.195 16.9625L102.195 16.9625L102.216 17.9622ZM76.3454 17.8536L76.3671 16.8538L76.3671 16.8538L76.3454 17.8536ZM63.8997 17.1449C66.5658 17.0975 69.4089 17.0508 72.397 17.0048L72.3662 15.005C69.3768 15.0511 66.5321 15.0978 63.8642 15.1452L63.8997 17.1449ZM34.0499 14.4233C44.1822 18.2594 58.3218 17.6525 63.9721 17.141L63.7918 15.1491C58.1575 15.6592 44.4253 16.2129 34.7581 12.5529L34.0499 14.4233ZM24.3003 9.6479C26.809 11.1532 29.2013 12.5877 34.0499 14.4233L34.7581 12.5529C30.0683 10.7774 27.7915 9.41027 25.3293 7.93293L24.3003 9.6479ZM19.1223 6.77101C21.2698 7.82984 22.7988 8.74698 24.3003 9.6479L25.3293 7.93293C23.823 7.0291 22.2337 6.07519 20.0067 4.9772L19.1223 6.77101ZM2.20581 10.3797C2.96428 7.87399 3.85074 6.20199 5.97788 5.44112C8.25381 4.62704 12.1676 4.76336 19.2851 6.83429L19.8439 4.91392C12.6985 2.8349 8.23182 2.51081 5.30429 3.55797C2.22797 4.65835 1.08799 7.16925 0.291584 9.80024L2.20581 10.3797ZM44.1637 30.2017C30.7094 29.6543 19.6632 26.0227 12.2507 21.7707C8.53943 19.6418 5.77708 17.3794 4.07401 15.3068C2.32933 13.1836 1.87048 11.4875 2.20581 10.3797L0.291584 9.80024C-0.344889 11.9029 0.668354 14.3125 2.52878 16.5765C4.43081 18.8912 7.40657 21.2977 11.2555 23.5055C18.9635 27.927 30.3262 31.6404 44.0824 32.2001L44.1637 30.2017ZM191.502 30.2009C151.427 30.5701 65.9001 31.086 44.1637 30.2017L44.0824 32.2001C65.8826 33.087 151.477 32.5697 191.521 32.2008L191.502 30.2009ZM230.058 22.6913C228.395 24.1117 225.817 25.3217 222.634 26.324C219.469 27.3204 215.792 28.0858 212.004 28.6624C204.427 29.8157 196.493 30.2009 191.512 30.2009V32.2009C196.572 32.2009 204.608 31.8111 212.305 30.6396C216.153 30.0539 219.939 29.2694 223.234 28.2316C226.512 27.1997 229.392 25.8912 231.357 24.2119L230.058 22.6913ZM228.55 4.81993C231.431 5.40531 233.429 6.39089 234.707 7.57551C235.966 8.74214 236.571 10.1395 236.625 11.6876C236.734 14.8634 234.506 18.8908 230.058 22.6913L231.357 24.2119C235.979 20.263 238.764 15.7024 238.624 11.6186C238.552 9.53682 237.716 7.63654 236.067 6.10849C234.437 4.59843 232.06 3.49235 228.948 2.85998L228.55 4.81993ZM207.341 11.1902C210.714 9.3626 214.311 7.41558 217.955 6.09932C221.599 4.78318 225.189 4.13699 228.55 4.81993L228.948 2.85998C225.078 2.07362 221.086 2.84203 217.276 4.21826C213.466 5.59436 209.737 7.61748 206.389 9.43172L207.341 11.1902ZM195.723 15.8166C197.353 15.8166 199.192 15.2164 201.099 14.3772C203.024 13.5302 205.142 12.382 207.341 11.1902L206.389 9.43172C204.168 10.6347 202.128 11.7394 200.294 12.5465C198.442 13.3614 196.92 13.8166 195.723 13.8166V15.8166ZM167.689 16.0014C182.899 15.8838 193.803 15.8166 195.723 15.8166V13.8166C193.794 13.8166 182.88 13.8839 167.674 14.0014L167.689 16.0014ZM166.788 14.5515C166.1 15.9175 164.869 16.8536 162.827 16.8536V18.8536C165.642 18.8536 167.555 17.4759 168.574 15.4513L166.788 14.5515ZM162.827 16.8536H131.327V18.8536H162.827V16.8536ZM131.327 16.8536C130.368 16.8536 129.363 16.2394 128.34 14.7765L126.701 15.923C127.879 17.6071 129.409 18.8536 131.327 18.8536V16.8536ZM117.453 16.4501C120.817 16.4156 124.185 16.3821 127.53 16.3497L127.511 14.3498C124.165 14.3822 120.797 14.4157 117.432 14.4502L117.453 16.4501ZM116.726 14.7527C115.535 15.9766 113.624 16.8536 110.827 16.8536V18.8536C114.057 18.8536 116.523 17.8289 118.159 16.1476L116.726 14.7527ZM110.827 16.8536C107.202 16.8536 104.712 16.9077 102.195 16.9625L102.238 18.962C104.753 18.9073 107.225 18.8536 110.827 18.8536V16.8536ZM102.195 16.9625C97.0647 17.0741 91.7844 17.1892 76.3671 16.8538L76.3236 18.8533C91.7705 19.1894 97.0798 19.0742 102.238 18.962L102.195 16.9625ZM76.3671 16.8538C75.1621 16.8276 74.0855 16.3073 73.0932 15.3024L71.67 16.7075C72.9468 18.0008 74.4945 18.8135 76.3236 18.8533L76.3671 16.8538Z" fill="black"/>
<path fill-rule="evenodd" clip-rule="evenodd" d="M69.0803 10.2177C67.2837 10.2468 65.5483 10.2761 63.882 10.3057C58.2397 10.8165 44.445 11.0003 34.4041 7.64881C24.3632 4.29732 22.4467 3.59553 22.7435 3.66357C17.1068 1.563 4.86239 0.740974 3.30751 5.87766C1.36391 12.2985 16.9127 24.2545 44.1231 25.3616C65.8914 26.2472 151.452 25.7306 191.512 25.3616C201.554 25.3616 223.486 23.8523 230.708 17.6123C239.806 9.75033 237.949 4.49133 228.116 2.11364C220.722 0.325663 212.75 3.41755 206.066 6.01038C202.004 7.58599 198.416 8.97731 195.723 8.97731C193.824 8.97731 183.174 9.04282 168.278 9.15746C169.059 13.3956 167.595 17.8536 162.827 17.8536H131.327C128.553 17.8536 126.417 14.3951 124.879 9.53617C123.05 9.55414 121.216 9.57244 119.382 9.59106C119.776 13.7643 117.077 17.8536 110.827 17.8536C107.213 17.8536 104.733 17.9075 102.216 17.9623C97.0722 18.0741 91.7775 18.1893 76.3454 17.8536C73.05 17.7819 70.7215 14.7211 69.0803 10.2177Z" fill="#4D76E2"/>
<path d="M63.882 10.3057L63.8642 9.30587C63.8401 9.3063 63.8159 9.3076 63.7918 9.30978L63.882 10.3057ZM69.0803 10.2177L70.0199 9.8753C69.874 9.47488 69.4903 9.21094 69.0642 9.21784L69.0803 10.2177ZM34.4041 7.64881L34.0875 8.59736L34.0875 8.59736L34.4041 7.64881ZM22.7435 3.66357L22.5201 4.63829C23.0336 4.75599 23.5503 4.45515 23.7014 3.9505C23.8526 3.44585 23.5863 2.91048 23.0927 2.72652L22.7435 3.66357ZM3.30751 5.87766L2.3504 5.58794L3.30751 5.87766ZM191.512 25.3616L191.512 24.3615L191.502 24.3616L191.512 25.3616ZM230.708 17.6123L230.054 16.8556L230.054 16.8556L230.708 17.6123ZM228.116 2.11364L228.351 1.14165L228.351 1.14165L228.116 2.11364ZM206.066 6.01038L205.704 5.07806L205.704 5.07806L206.066 6.01038ZM168.278 9.15746L168.27 8.15749C167.974 8.15977 167.695 8.29271 167.507 8.52063C167.318 8.74854 167.241 9.04807 167.294 9.33878L168.278 9.15746ZM124.879 9.53617L125.833 9.23443C125.7 8.81525 125.309 8.5319 124.87 8.53622L124.879 9.53617ZM119.382 9.59106L119.371 8.59111C119.092 8.59395 118.826 8.71389 118.639 8.9218C118.451 9.12971 118.36 9.40657 118.386 9.68514L119.382 9.59106ZM102.216 17.9623L102.238 18.962L102.238 18.962L102.216 17.9623ZM76.3454 17.8536L76.3236 18.8533L76.3236 18.8533L76.3454 17.8536ZM63.8997 11.3056C65.5655 11.276 67.3004 11.2466 69.0965 11.2176L69.0642 9.21784C67.2671 9.24692 65.5311 9.27628 63.8642 9.30587L63.8997 11.3056ZM34.0875 8.59736C44.3245 12.0143 58.2835 11.8167 63.9722 11.3016L63.7918 9.30978C58.196 9.8164 44.5654 9.98626 34.7207 6.70025L34.0875 8.59736ZM22.9669 2.68885C22.9509 2.68517 22.9006 2.67362 22.84 2.66645C22.8231 2.66445 22.7282 2.65221 22.6094 2.66507C22.5631 2.67008 22.3934 2.68913 22.2091 2.79739C22.1059 2.85802 21.9655 2.96589 21.8577 3.14559C21.7431 3.33667 21.7026 3.54762 21.7186 3.74218C21.7458 4.07314 21.9264 4.27803 21.9656 4.3225C22.0298 4.3954 22.0906 4.44261 22.1178 4.46301C22.1761 4.50664 22.2269 4.53461 22.2443 4.5441C22.2871 4.56751 22.3259 4.5848 22.3441 4.59285C22.4205 4.62653 22.5387 4.67162 22.6826 4.72462C22.9876 4.83697 23.5213 5.02585 24.3708 5.31912C26.0729 5.90669 29.066 6.92129 34.0875 8.59736L34.7207 6.70025C29.7012 5.02483 26.7157 4.01279 25.0235 3.4286C24.1759 3.136 23.6585 2.95272 23.3739 2.84788C23.3032 2.82184 23.2493 2.80156 23.2098 2.78627C23.1901 2.77865 23.1753 2.77277 23.1645 2.7684C23.1531 2.76379 23.1493 2.76211 23.1509 2.76278C23.1517 2.76317 23.1562 2.76513 23.1631 2.76843C23.1691 2.77126 23.1834 2.77817 23.2022 2.78845C23.2143 2.79505 23.2611 2.82058 23.3167 2.86222C23.3426 2.88162 23.4024 2.92795 23.466 3.00008C23.5045 3.04377 23.6847 3.248 23.7119 3.5784C23.7278 3.77268 23.6874 3.98338 23.5729 4.17424C23.4653 4.35372 23.3251 4.46139 23.2221 4.52185C23.0384 4.62977 22.8696 4.64859 22.8245 4.65347C22.7081 4.66607 22.6168 4.65399 22.6047 4.65256C22.5743 4.64896 22.5516 4.64472 22.5423 4.64294C22.5312 4.6408 22.5233 4.63903 22.5201 4.63829L22.9669 2.68885ZM4.26462 6.16738C4.53483 5.27474 5.29264 4.53957 6.59573 3.99092C7.89914 3.44213 9.62087 3.13995 11.5387 3.05568C15.3771 2.88702 19.7124 3.6012 22.3943 4.60062L23.0927 2.72652C20.1378 1.62537 15.5326 0.878252 11.4509 1.05761C9.40872 1.14734 7.42551 1.4715 5.81964 2.14764C4.21345 2.8239 2.85764 3.91224 2.3504 5.58794L4.26462 6.16738ZM44.1637 24.3624C30.689 23.8142 20.1571 20.5808 13.2697 16.739C9.82081 14.8152 7.32677 12.7619 5.82376 10.8559C4.29967 8.92319 3.9174 7.31447 4.26462 6.16738L2.3504 5.58794C1.72583 7.65128 2.55831 9.94488 4.2533 12.0943C5.96938 14.2705 8.69876 16.4794 12.2954 18.4856C19.4991 22.5038 30.3468 25.8019 44.0824 26.3607L44.1637 24.3624ZM191.502 24.3616C151.427 24.7308 65.9001 25.2467 44.1637 24.3624L44.0824 26.3607C65.8827 27.2477 151.477 26.7304 191.521 26.3615L191.502 24.3616ZM230.054 16.8556C228.401 18.2837 225.829 19.498 222.648 20.502C219.486 21.5001 215.808 22.2641 212.018 22.8382C204.437 23.9864 196.495 24.3616 191.512 24.3616V26.3616C196.571 26.3616 204.616 25.9821 212.317 24.8157C216.168 24.2325 219.955 23.4492 223.25 22.4092C226.526 21.3752 229.403 20.0608 231.361 18.3689L230.054 16.8556ZM227.881 3.08563C230.277 3.665 232.112 4.40341 233.391 5.26292C234.663 6.11693 235.325 7.04576 235.533 8.01587C235.742 8.99241 235.532 10.2046 234.659 11.7053C233.784 13.2097 232.283 14.9293 230.054 16.8556L231.361 18.3689C233.681 16.3642 235.36 14.4783 236.388 12.7111C237.418 10.9403 237.836 9.21501 237.489 7.59685C237.141 5.97225 236.064 4.64915 234.506 3.60269C232.957 2.56172 230.872 1.75112 228.351 1.14165L227.881 3.08563ZM206.427 6.9427C213.187 4.32078 220.847 1.38489 227.881 3.08563L228.351 1.14165C220.596 -0.733563 212.314 2.51432 205.704 5.07806L206.427 6.9427ZM195.723 9.97731C197.223 9.97731 198.908 9.59332 200.68 9.03908C202.459 8.48234 204.405 7.72726 206.427 6.9427L205.704 5.07806C203.665 5.8691 201.785 6.59749 200.082 7.13032C198.371 7.66563 196.917 7.97731 195.723 7.97731V9.97731ZM168.285 10.1574C183.184 10.0428 193.829 9.97731 195.723 9.97731V7.97731C193.819 7.97731 183.164 8.04286 168.27 8.15749L168.285 10.1574ZM167.294 9.33878C167.658 11.3129 167.477 13.2423 166.748 14.6295C166.054 15.9495 164.834 16.8536 162.827 16.8536V18.8536C165.587 18.8536 167.484 17.5287 168.518 15.5601C169.518 13.6588 169.679 11.2402 169.261 8.97615L167.294 9.33878ZM162.827 16.8536H131.327V18.8536H162.827V16.8536ZM131.327 16.8536C130.402 16.8536 129.436 16.2842 128.448 14.9279C127.467 13.5816 126.588 11.6188 125.833 9.23443L123.926 9.83792C124.709 12.3125 125.667 14.5084 126.832 16.106C127.989 17.6937 129.478 18.8536 131.327 18.8536V16.8536ZM119.392 10.591C121.226 10.5724 123.06 10.5541 124.889 10.5361L124.87 8.53622C123.04 8.55419 121.206 8.57249 119.371 8.59111L119.392 10.591ZM118.386 9.68514C118.561 11.5316 118.048 13.3063 116.857 14.6138C115.674 15.9118 113.726 16.8536 110.827 16.8536V18.8536C114.177 18.8536 116.704 17.7507 118.335 15.9608C119.957 14.1803 120.597 11.8238 120.377 9.49698L118.386 9.68514ZM110.827 16.8536C107.202 16.8536 104.712 16.9077 102.195 16.9625L102.238 18.962C104.753 18.9073 107.225 18.8536 110.827 18.8536V16.8536ZM102.195 16.9625C97.0647 17.0741 91.7844 17.1892 76.3671 16.8538L76.3236 18.8533C91.7705 19.1894 97.0798 19.0742 102.238 18.962L102.195 16.9625ZM76.3671 16.8538C75.0622 16.8254 73.901 16.2162 72.837 15.0298C71.7573 13.826 70.8188 12.0674 70.0199 9.8753L68.1408 10.5601C68.9831 12.8714 70.0294 14.8948 71.3481 16.3652C72.6824 17.853 74.3332 18.81 76.3236 18.8533L76.3671 16.8538Z" fill="black"/>
<mask id="mask0_1498_2456" style="mask-type:alpha" maskUnits="userSpaceOnUse" x="4" y="1" width="233" height="24">
<path opacity="0.7" fill-rule="evenodd" clip-rule="evenodd" d="M68.4547 11.274C66.8306 11.3031 65.2578 11.3313 63.7424 11.3582C58.1001 11.869 44.3054 12.0527 34.2645 8.70125C24.2236 5.34976 22.4448 3.5954 22.7416 3.66345C17.1049 1.56287 6.09746 0.839695 4.54258 5.97638C2.59898 12.3972 17.8771 23.1981 44.2481 24.2744C66.0163 25.1629 151.53 24.763 191.589 24.394C201.631 24.394 223.484 23.8522 230.706 17.6121C239.804 9.75021 237.947 4.4912 228.114 2.11351C220.72 0.32554 212.748 3.41743 206.064 6.01026C202.002 7.58587 198.415 8.97719 195.721 8.97719C193.825 8.97719 183.196 9.15881 168.323 9.4284C168.993 13.5834 167.492 17.8534 162.825 17.8534H131.325C128.685 17.8534 126.622 14.7198 125.104 10.2276C124 10.2482 122.894 10.2688 121.787 10.2894C121.299 10.2985 120.81 10.3076 120.322 10.3168C120.868 14.3098 118.546 18.1205 112.119 18.4741L111.981 18.4816L111.981 18.4816C100.148 19.1324 98.7144 19.2113 75.8215 18.7132C72.584 18.6428 70.2039 15.6716 68.4547 11.274Z" fill="#4D76E2"/>
</mask>
<g mask="url(#mask0_1498_2456)">
<path d="M39.7632 8.86278L160.25 23.1192L164.685 29.1664L65.723 15.3925L91.1573 25.9896L-31.129 4.32904L-31.8634 3.0616L56.9458 16.9519L39.7632 8.86278Z" fill="white"/>
</g>
</svg>
