<svg width="361" height="340" viewBox="0 0 361 340" fill="none" xmlns="http://www.w3.org/2000/svg">
<rect x="176.734" y="290.159" width="29.4316" height="5.8606" rx="2.9303" fill="#4E4E4E" stroke="black" stroke-width="2"/>
<ellipse cx="176.765" cy="318.5" rx="120.42" ry="12.5" fill="black" fill-opacity="0.5"/>
<path fill-rule="evenodd" clip-rule="evenodd" d="M85.9218 320.872C100.241 320.872 111.85 308.964 111.85 294.275C111.85 279.586 100.241 267.678 85.9218 267.678C71.6024 267.678 59.9941 279.586 59.9941 294.275C59.9941 308.964 71.6024 320.872 85.9218 320.872ZM85.9226 311.799C95.3574 311.799 103.006 303.953 103.006 294.275C103.006 284.596 95.3574 276.751 85.9226 276.751C76.4879 276.751 68.8396 284.596 68.8396 294.275C68.8396 303.953 76.4879 311.799 85.9226 311.799Z" fill="#4E4E4E"/>
<path d="M110.85 294.275C110.85 308.436 99.6652 319.872 85.9218 319.872V321.872C100.817 321.872 112.85 309.492 112.85 294.275H110.85ZM85.9218 268.678C99.6652 268.678 110.85 280.114 110.85 294.275H112.85C112.85 279.057 100.817 266.678 85.9218 266.678V268.678ZM60.9941 294.275C60.9941 280.114 72.1785 268.678 85.9218 268.678V266.678C71.0262 266.678 58.9941 279.057 58.9941 294.275H60.9941ZM85.9218 319.872C72.1785 319.872 60.9941 308.436 60.9941 294.275H58.9941C58.9941 309.492 71.0262 321.872 85.9218 321.872V319.872ZM102.006 294.275C102.006 303.425 94.7812 310.799 85.9226 310.799V312.799C95.9335 312.799 104.006 304.481 104.006 294.275H102.006ZM85.9226 277.751C94.7812 277.751 102.006 285.124 102.006 294.275H104.006C104.006 284.068 95.9335 275.751 85.9226 275.751V277.751ZM69.8396 294.275C69.8396 285.124 77.0641 277.751 85.9226 277.751V275.751C75.9118 275.751 67.8396 284.068 67.8396 294.275H69.8396ZM85.9226 310.799C77.0641 310.799 69.8396 303.425 69.8396 294.275H67.8396C67.8396 304.481 75.9118 312.799 85.9226 312.799V310.799Z" fill="black"/>
<path fill-rule="evenodd" clip-rule="evenodd" d="M250.039 320.872C264.359 320.872 275.967 308.964 275.967 294.275C275.967 279.586 264.359 267.678 250.039 267.678C235.72 267.678 224.111 279.586 224.111 294.275C224.111 308.964 235.72 320.872 250.039 320.872ZM250.04 311.799C259.475 311.799 267.123 303.953 267.123 294.275C267.123 284.596 259.475 276.751 250.04 276.751C240.605 276.751 232.957 284.596 232.957 294.275C232.957 303.953 240.605 311.799 250.04 311.799Z" fill="#4E4E4E"/>
<path d="M274.967 294.275C274.967 308.436 263.782 319.872 250.039 319.872V321.872C264.935 321.872 276.967 309.492 276.967 294.275H274.967ZM250.039 268.678C263.782 268.678 274.967 280.114 274.967 294.275H276.967C276.967 279.057 264.935 266.678 250.039 266.678V268.678ZM225.111 294.275C225.111 280.114 236.296 268.678 250.039 268.678V266.678C235.143 266.678 223.111 279.057 223.111 294.275H225.111ZM250.039 319.872C236.296 319.872 225.111 308.436 225.111 294.275H223.111C223.111 309.492 235.143 321.872 250.039 321.872V319.872ZM266.123 294.275C266.123 303.425 258.898 310.799 250.04 310.799V312.799C260.051 312.799 268.123 304.481 268.123 294.275H266.123ZM250.04 277.751C258.898 277.751 266.123 285.124 266.123 294.275H268.123C268.123 284.068 260.051 275.751 250.04 275.751V277.751ZM233.957 294.275C233.957 285.124 241.181 277.751 250.04 277.751V275.751C240.029 275.751 231.957 284.068 231.957 294.275H233.957ZM250.04 310.799C241.181 310.799 233.957 303.425 233.957 294.275H231.957C231.957 304.481 240.029 312.799 250.04 312.799V310.799Z" fill="black"/>
<path d="M82.8339 276.836V311.389M66.0244 293.645H99.6433M93.4798 280.758L72.3747 306.906M95.5343 305.038L71.254 282.439" stroke="black" stroke-width="2" stroke-linecap="round" stroke-linejoin="round"/>
<path d="M246.951 276.836V311.389M230.142 293.645H263.761M257.597 280.758L236.492 306.906M259.652 305.038L235.371 282.439" stroke="black" stroke-width="2" stroke-linecap="round" stroke-linejoin="round"/>
<path fill-rule="evenodd" clip-rule="evenodd" d="M82.9336 320.872C97.253 320.872 108.861 308.964 108.861 294.275C108.861 279.586 97.253 267.678 82.9336 267.678C68.6141 267.678 57.0059 279.586 57.0059 294.275C57.0059 308.964 68.6141 320.872 82.9336 320.872ZM82.9343 311.799C92.369 311.799 100.017 303.953 100.017 294.275C100.017 284.596 92.369 276.751 82.9343 276.751C73.4996 276.751 65.8512 284.596 65.8512 294.275C65.8512 303.953 73.4996 311.799 82.9343 311.799Z" fill="#4E4E4E"/>
<path d="M107.861 294.275C107.861 308.436 96.6769 319.872 82.9336 319.872V321.872C97.8292 321.872 109.861 309.492 109.861 294.275H107.861ZM82.9336 268.678C96.6769 268.678 107.861 280.114 107.861 294.275H109.861C109.861 279.057 97.8292 266.678 82.9336 266.678V268.678ZM58.0059 294.275C58.0059 280.114 69.1902 268.678 82.9336 268.678V266.678C68.0379 266.678 56.0059 279.057 56.0059 294.275H58.0059ZM82.9336 319.872C69.1902 319.872 58.0059 308.436 58.0059 294.275H56.0059C56.0059 309.492 68.0379 321.872 82.9336 321.872V319.872ZM99.0174 294.275C99.0174 303.425 91.7929 310.799 82.9343 310.799V312.799C92.9452 312.799 101.017 304.481 101.017 294.275H99.0174ZM82.9343 277.751C91.7929 277.751 99.0174 285.124 99.0174 294.275H101.017C101.017 284.068 92.9452 275.751 82.9343 275.751V277.751ZM66.8512 294.275C66.8512 285.124 74.0757 277.751 82.9343 277.751V275.751C72.9234 275.751 64.8512 284.068 64.8512 294.275H66.8512ZM82.9343 310.799C74.0757 310.799 66.8512 303.425 66.8512 294.275H64.8512C64.8512 304.481 72.9234 312.799 82.9343 312.799V310.799Z" fill="black"/>
<path fill-rule="evenodd" clip-rule="evenodd" d="M247.051 320.872C261.37 320.872 272.978 308.964 272.978 294.275C272.978 279.586 261.37 267.678 247.051 267.678C232.731 267.678 221.123 279.586 221.123 294.275C221.123 308.964 232.731 320.872 247.051 320.872ZM247.051 311.799C256.486 311.799 264.135 303.953 264.135 294.275C264.135 284.596 256.486 276.751 247.051 276.751C237.617 276.751 229.968 284.596 229.968 294.275C229.968 303.953 237.617 311.799 247.051 311.799Z" fill="#4E4E4E"/>
<path d="M271.978 294.275C271.978 308.436 260.794 319.872 247.051 319.872V321.872C261.946 321.872 273.978 309.492 273.978 294.275H271.978ZM247.051 268.678C260.794 268.678 271.978 280.114 271.978 294.275H273.978C273.978 279.057 261.946 266.678 247.051 266.678V268.678ZM222.123 294.275C222.123 280.114 233.307 268.678 247.051 268.678V266.678C232.155 266.678 220.123 279.057 220.123 294.275H222.123ZM247.051 319.872C233.307 319.872 222.123 308.436 222.123 294.275H220.123C220.123 309.492 232.155 321.872 247.051 321.872V319.872ZM263.135 294.275C263.135 303.425 255.91 310.799 247.051 310.799V312.799C257.062 312.799 265.135 304.481 265.135 294.275H263.135ZM247.051 277.751C255.91 277.751 263.135 285.124 263.135 294.275H265.135C265.135 284.068 257.062 275.751 247.051 275.751V277.751ZM230.968 294.275C230.968 285.124 238.193 277.751 247.051 277.751V275.751C237.041 275.751 228.968 284.068 228.968 294.275H230.968ZM247.051 310.799C238.193 310.799 230.968 303.425 230.968 294.275H228.968C228.968 304.481 237.041 312.799 247.051 312.799V310.799Z" fill="black"/>
<path fill-rule="evenodd" clip-rule="evenodd" d="M97.5872 268.076L79.0511 293.043C78.1131 294.307 78.003 296.003 78.7698 297.377C79.5365 298.751 81.0377 299.548 82.6055 299.413C95.9827 298.262 115.63 296.347 134.562 294.073C133.237 293.241 133.979 291.634 134.882 289.679C135.433 288.485 136.044 287.162 136.28 285.806C120.482 287.74 103.924 289.436 90.792 290.65L104.53 272.145C101.959 271.003 99.6509 269.629 97.5872 268.076ZM176.628 287.824C179.185 287.308 181.509 286.787 183.541 286.261C186.469 285.504 189.067 284.671 190.878 283.716C194.653 281.726 197.839 277.624 200.51 273.243C203.276 268.705 205.887 263.183 208.285 257.575C210.598 252.162 212.763 246.548 214.704 241.515L214.928 240.934C215.867 238.501 216.314 237.107 216.668 236.002L216.668 236.002L216.668 236L216.669 235.999C216.828 235.502 216.968 235.064 217.126 234.616L225.143 247.608L218.522 249.302C217.536 249.554 217.332 250.164 217.051 251.001C216.979 251.217 216.902 251.447 216.805 251.69C216.332 252.878 216.455 254.221 217.137 255.303L241.004 293.169C242.182 295.038 244.652 295.598 246.521 294.42C248.39 293.242 248.95 290.772 247.772 288.904L226.834 255.684L237.108 252.965C237.108 252.965 243.887 263.553 246.383 267.406C252.387 267.303 257.387 269.803 257.387 269.803L242.341 246.245C241.418 244.768 239.646 244.058 237.958 244.49L233.216 245.543L213.239 213.218L222.284 212.148C224.486 211.888 226.067 209.9 225.824 207.696C225.583 205.496 223.622 203.899 221.419 204.111C214.987 204.728 202.485 205.9 197.348 206.181C198.66 208.919 199.098 211.231 198.153 214.549C201.223 214.544 204.513 214.178 204.513 214.178L212.102 226.476C210.699 229.68 209.131 233.736 207.464 238.055L207.257 238.592L207.257 238.593L207.256 238.595C206.166 241.421 205.024 244.382 203.836 247.364L188.33 246.466C183.827 249.404 178.26 251.229 171.889 252.223C172.573 252.342 172.926 252.428 172.926 252.428C174.01 252.779 174.996 253.196 175.889 253.669L200.64 255.102C198.386 260.328 196.049 265.191 193.679 269.078C191.114 273.287 188.872 275.73 187.147 276.639C186.209 277.134 184.377 277.782 181.538 278.516C180.208 278.86 178.717 279.208 177.08 279.56C174.628 281.921 171.617 283.428 168.426 283.428C173.13 284.016 175.634 285.832 176.628 287.824Z" fill="#EBF479"/>
<path d="M79.0511 293.043L78.2482 292.447H78.2482L79.0511 293.043ZM97.5872 268.076L98.1884 267.277C97.9756 267.117 97.7077 267.049 97.4441 267.087C97.1805 267.125 96.943 267.266 96.7842 267.48L97.5872 268.076ZM78.7698 297.377L77.8965 297.864L78.7698 297.377ZM82.6055 299.413L82.5198 298.417H82.5198L82.6055 299.413ZM134.562 294.073L134.682 295.066C135.102 295.015 135.445 294.705 135.538 294.292C135.631 293.878 135.453 293.451 135.094 293.226L134.562 294.073ZM134.882 289.679L135.79 290.098H135.79L134.882 289.679ZM136.28 285.806L137.265 285.978C137.32 285.666 137.223 285.347 137.005 285.117C136.787 284.888 136.473 284.775 136.159 284.813L136.28 285.806ZM90.792 290.65L89.9891 290.053C89.7539 290.37 89.727 290.796 89.9203 291.14C90.1137 291.484 90.4912 291.682 90.884 291.645L90.792 290.65ZM104.53 272.145L105.333 272.741C105.514 272.497 105.575 272.184 105.497 271.891C105.42 271.597 105.214 271.354 104.936 271.231L104.53 272.145ZM183.541 286.261L183.29 285.293H183.29L183.541 286.261ZM176.628 287.824L175.734 288.271C175.936 288.675 176.383 288.894 176.826 288.805L176.628 287.824ZM190.878 283.716L191.345 284.601V284.601L190.878 283.716ZM200.51 273.243L199.656 272.722L200.51 273.243ZM208.285 257.575L209.204 257.968V257.968L208.285 257.575ZM214.704 241.515L213.771 241.155L213.771 241.155L214.704 241.515ZM214.928 240.934L213.995 240.575L213.995 240.575L214.928 240.934ZM216.668 236.002L217.62 236.307C217.623 236.299 217.625 236.29 217.628 236.282L216.668 236.002ZM216.668 236.002L215.716 235.693C215.713 235.703 215.71 235.713 215.707 235.723L216.668 236.002ZM216.668 236L215.717 235.691L215.717 235.692L216.668 236ZM216.669 235.999L217.619 236.309L217.621 236.304L216.669 235.999ZM217.126 234.616L217.977 234.091C217.775 233.764 217.402 233.581 217.019 233.622C216.636 233.663 216.311 233.921 216.183 234.284L217.126 234.616ZM225.143 247.608L225.391 248.577C225.699 248.498 225.952 248.278 226.071 247.983C226.19 247.688 226.161 247.354 225.994 247.083L225.143 247.608ZM218.522 249.302L218.769 250.271L218.522 249.302ZM217.051 251.001L216.103 250.684V250.684L217.051 251.001ZM216.805 251.69L215.876 251.32V251.32L216.805 251.69ZM217.137 255.303L217.983 254.769V254.769L217.137 255.303ZM241.004 293.169L240.158 293.702L241.004 293.169ZM246.521 294.42L247.054 295.266L247.054 295.266L246.521 294.42ZM247.772 288.904L248.618 288.37L248.618 288.37L247.772 288.904ZM226.834 255.684L226.578 254.717C226.271 254.798 226.02 255.021 225.903 255.318C225.787 255.614 225.818 255.948 225.988 256.217L226.834 255.684ZM237.108 252.965L237.95 252.426C237.716 252.06 237.272 251.887 236.852 251.998L237.108 252.965ZM246.383 267.406L245.544 267.95C245.732 268.24 246.056 268.412 246.401 268.406L246.383 267.406ZM257.387 269.803L256.94 270.697C257.342 270.898 257.829 270.806 258.13 270.472C258.431 270.138 258.472 269.643 258.23 269.264L257.387 269.803ZM242.341 246.245L241.493 246.775L241.499 246.783L242.341 246.245ZM237.958 244.49L238.175 245.466C238.186 245.463 238.196 245.461 238.206 245.458L237.958 244.49ZM233.216 245.543L232.365 246.069C232.589 246.431 233.017 246.612 233.433 246.52L233.216 245.543ZM213.239 213.218L213.122 212.225C212.782 212.265 212.487 212.476 212.338 212.784C212.19 213.091 212.209 213.453 212.388 213.744L213.239 213.218ZM222.284 212.148L222.402 213.141L222.284 212.148ZM225.824 207.696L226.818 207.586V207.586L225.824 207.696ZM221.419 204.111L221.324 203.115V203.115L221.419 204.111ZM197.348 206.181L197.294 205.183C196.96 205.201 196.658 205.385 196.488 205.672C196.318 205.959 196.302 206.312 196.446 206.613L197.348 206.181ZM198.153 214.549L197.192 214.275C197.106 214.577 197.166 214.901 197.356 215.152C197.545 215.402 197.841 215.549 198.155 215.549L198.153 214.549ZM204.513 214.178L205.364 213.652C205.161 213.323 204.787 213.141 204.402 213.184L204.513 214.178ZM212.102 226.476L213.018 226.877C213.15 226.576 213.126 226.23 212.953 225.951L212.102 226.476ZM207.464 238.055L206.531 237.696L206.531 237.696L207.464 238.055ZM207.257 238.592L206.324 238.233C206.321 238.24 206.318 238.248 206.315 238.256L207.257 238.592ZM207.257 238.593L208.188 238.959C208.191 238.949 208.195 238.939 208.199 238.929L207.257 238.593ZM207.256 238.595L206.326 238.229L206.323 238.235L207.256 238.595ZM203.836 247.364L203.778 248.362C204.208 248.387 204.606 248.134 204.765 247.734L203.836 247.364ZM188.33 246.466L188.388 245.467C188.175 245.455 187.963 245.511 187.784 245.628L188.33 246.466ZM171.889 252.223L171.735 251.235C171.252 251.31 170.894 251.724 170.889 252.214C170.885 252.703 171.236 253.124 171.718 253.208L171.889 252.223ZM172.926 252.428L173.235 251.476C173.211 251.469 173.187 251.462 173.163 251.456L172.926 252.428ZM175.889 253.669L175.421 254.552C175.548 254.62 175.688 254.659 175.831 254.667L175.889 253.669ZM200.64 255.102L201.558 255.498C201.688 255.198 201.662 254.855 201.491 254.577C201.32 254.299 201.024 254.123 200.698 254.104L200.64 255.102ZM193.679 269.078L194.533 269.599L193.679 269.078ZM187.147 276.639L187.613 277.524L187.147 276.639ZM181.538 278.516L181.788 279.484L181.538 278.516ZM177.08 279.56L176.87 278.582C176.688 278.621 176.521 278.71 176.386 278.839L177.08 279.56ZM168.426 283.428V282.428C167.898 282.428 167.461 282.838 167.428 283.365C167.396 283.893 167.778 284.354 168.302 284.42L168.426 283.428ZM79.854 293.639L98.3901 268.672L96.7842 267.48L78.2482 292.447L79.854 293.639ZM79.643 296.89C79.0679 295.859 79.1505 294.587 79.854 293.639L78.2482 292.447C77.0756 294.027 76.938 296.147 77.8965 297.864L79.643 296.89ZM82.5198 298.417C81.344 298.518 80.2181 297.92 79.643 296.89L77.8965 297.864C78.855 299.582 80.7315 300.578 82.6912 300.409L82.5198 298.417ZM134.443 293.08C115.524 295.352 95.8881 297.267 82.5198 298.417L82.6912 300.409C96.0772 299.258 115.736 297.341 134.682 295.066L134.443 293.08ZM135.094 293.226C134.935 293.126 134.892 293.044 134.872 292.985C134.843 292.902 134.822 292.748 134.871 292.471C134.976 291.878 135.318 291.12 135.79 290.098L133.974 289.26C133.543 290.193 133.062 291.217 132.902 292.123C132.818 292.596 132.804 293.122 132.981 293.636C133.166 294.173 133.527 294.604 134.031 294.92L135.094 293.226ZM135.79 290.098C136.33 288.927 137.003 287.484 137.265 285.978L135.295 285.634C135.085 286.839 134.536 288.043 133.974 289.26L135.79 290.098ZM136.159 284.813C120.373 286.746 103.825 288.441 90.7 289.654L90.884 291.645C104.023 290.431 120.592 288.734 136.402 286.799L136.159 284.813ZM91.5949 291.246L105.333 272.741L103.727 271.549L89.9891 290.053L91.5949 291.246ZM104.936 271.231C102.434 270.12 100.192 268.785 98.1884 267.277L96.9859 268.875C99.1098 270.474 101.483 271.886 104.125 273.059L104.936 271.231ZM183.29 285.293C181.281 285.813 178.976 286.331 176.431 286.844L176.826 288.805C179.395 288.286 181.738 287.761 183.791 287.23L183.29 285.293ZM190.412 282.831C188.709 283.729 186.207 284.539 183.29 285.293L183.791 287.23C186.731 286.469 189.424 285.613 191.345 284.601L190.412 282.831ZM199.656 272.722C196.999 277.081 193.931 280.976 190.412 282.831L191.345 284.601C195.376 282.475 198.679 278.167 201.364 273.763L199.656 272.722ZM207.365 257.182C204.975 262.773 202.386 268.245 199.656 272.722L201.364 273.763C204.167 269.165 206.8 263.592 209.204 257.968L207.365 257.182ZM213.771 241.155C211.829 246.191 209.671 251.788 207.365 257.182L209.204 257.968C211.526 252.536 213.697 246.905 215.637 241.875L213.771 241.155ZM213.995 240.575L213.771 241.155L215.637 241.875L215.861 241.294L213.995 240.575ZM215.715 235.697C215.364 236.793 214.924 238.166 213.995 240.575L215.861 241.294C216.81 238.836 217.263 237.422 217.62 236.307L215.715 235.697ZM215.707 235.723L215.707 235.723L217.628 236.282L217.628 236.281L215.707 235.723ZM215.717 235.692L215.716 235.693L217.619 236.311L217.619 236.309L215.717 235.692ZM215.718 235.689L215.717 235.691L217.619 236.31L217.619 236.309L215.718 235.689ZM216.183 234.284C216.019 234.748 215.875 235.2 215.716 235.694L217.621 236.304C217.781 235.805 217.917 235.381 218.069 234.949L216.183 234.284ZM225.994 247.083L217.977 234.091L216.275 235.142L224.292 248.134L225.994 247.083ZM218.769 250.271L225.391 248.577L224.896 246.64L218.274 248.334L218.769 250.271ZM217.999 251.319C218.152 250.862 218.23 250.66 218.331 250.52C218.388 250.441 218.476 250.346 218.769 250.271L218.274 248.334C217.582 248.511 217.074 248.847 216.712 249.345C216.396 249.782 216.23 250.304 216.103 250.684L217.999 251.319ZM217.734 252.06C217.843 251.787 217.928 251.532 217.999 251.319L216.103 250.684C216.03 250.901 215.961 251.106 215.876 251.32L217.734 252.06ZM217.983 254.769C217.472 253.958 217.379 252.951 217.734 252.06L215.876 251.32C215.285 252.805 215.439 254.484 216.291 255.836L217.983 254.769ZM241.85 292.636L217.983 254.769L216.291 255.836L240.158 293.702L241.85 292.636ZM245.988 293.574C244.586 294.458 242.733 294.038 241.85 292.636L240.158 293.702C241.63 296.039 244.718 296.739 247.054 295.266L245.988 293.574ZM246.926 289.437C247.809 290.838 247.389 292.691 245.988 293.574L247.054 295.266C249.39 293.794 250.09 290.706 248.618 288.37L246.926 289.437ZM225.988 256.217L246.926 289.437L248.618 288.37L227.68 255.151L225.988 256.217ZM236.852 251.998L226.578 254.717L227.09 256.65L237.364 253.932L236.852 251.998ZM247.223 266.863C245.976 264.938 243.658 261.33 241.651 258.201C240.648 256.636 239.723 255.193 239.048 254.14C238.711 253.614 238.436 253.185 238.246 252.888C238.151 252.739 238.077 252.624 238.027 252.545C238.001 252.506 237.982 252.476 237.969 252.456C237.963 252.446 237.958 252.438 237.955 252.433C237.953 252.431 237.952 252.429 237.951 252.428C237.951 252.427 237.95 252.426 237.95 252.426C237.95 252.426 237.95 252.426 237.95 252.426C237.95 252.426 237.95 252.426 237.108 252.965C236.266 253.504 236.266 253.504 236.266 253.504C236.266 253.504 236.266 253.504 236.266 253.505C236.266 253.505 236.266 253.505 236.267 253.506C236.268 253.507 236.269 253.509 236.271 253.512C236.274 253.517 236.279 253.524 236.285 253.535C236.298 253.555 236.317 253.585 236.342 253.624C236.393 253.702 236.467 253.818 236.562 253.967C236.752 254.264 237.027 254.692 237.364 255.219C238.039 256.272 238.964 257.716 239.968 259.28C241.974 262.409 244.295 266.021 245.544 267.95L247.223 266.863ZM257.387 269.803C257.834 268.908 257.834 268.908 257.834 268.908C257.834 268.908 257.834 268.908 257.833 268.908C257.833 268.907 257.832 268.907 257.832 268.907C257.831 268.906 257.829 268.906 257.827 268.905C257.824 268.903 257.819 268.901 257.813 268.898C257.801 268.892 257.784 268.883 257.762 268.873C257.719 268.852 257.658 268.823 257.578 268.787C257.419 268.714 257.188 268.611 256.895 268.49C256.307 268.247 255.464 267.926 254.429 267.609C252.365 266.978 249.505 266.352 246.366 266.407L246.401 268.406C249.265 268.357 251.908 268.929 253.844 269.522C254.81 269.817 255.592 270.115 256.13 270.338C256.399 270.449 256.606 270.541 256.743 270.604C256.812 270.636 256.864 270.66 256.897 270.676C256.913 270.684 256.925 270.69 256.933 270.693C256.936 270.695 256.939 270.696 256.94 270.697C256.941 270.697 256.941 270.698 256.941 270.698C256.941 270.698 256.941 270.697 256.941 270.697C256.941 270.697 256.94 270.697 256.94 270.697C256.94 270.697 256.94 270.697 257.387 269.803ZM241.499 246.783L256.544 270.341L258.23 269.264L243.184 245.707L241.499 246.783ZM238.206 245.458C239.472 245.135 240.801 245.667 241.493 246.775L243.189 245.715C242.036 243.869 239.82 242.981 237.711 243.521L238.206 245.458ZM233.433 246.52L238.175 245.466L237.741 243.513L232.999 244.567L233.433 246.52ZM212.388 213.744L232.365 246.069L234.066 245.018L214.09 212.693L212.388 213.744ZM222.167 211.155L213.122 212.225L213.357 214.211L222.402 213.141L222.167 211.155ZM224.83 207.805C225.013 209.464 223.824 210.959 222.167 211.155L222.402 213.141C225.149 212.816 227.121 210.337 226.818 207.586L224.83 207.805ZM221.515 205.106C223.173 204.947 224.648 206.148 224.83 207.805L226.818 207.586C226.517 204.844 224.072 202.851 221.324 203.115L221.515 205.106ZM197.403 207.18C202.566 206.897 215.092 205.723 221.515 205.106L221.324 203.115C214.881 203.734 202.405 204.903 197.294 205.183L197.403 207.18ZM199.115 214.822C199.617 213.061 199.763 211.52 199.59 210.032C199.418 208.55 198.934 207.177 198.25 205.749L196.446 206.613C197.074 207.923 197.465 209.075 197.603 210.263C197.741 211.445 197.634 212.719 197.192 214.275L199.115 214.822ZM204.513 214.178C204.402 213.184 204.403 213.184 204.403 213.184C204.403 213.184 204.403 213.184 204.403 213.184C204.403 213.184 204.402 213.184 204.402 213.184C204.402 213.184 204.402 213.184 204.401 213.184C204.4 213.184 204.397 213.184 204.395 213.185C204.389 213.185 204.38 213.186 204.368 213.188C204.344 213.19 204.309 213.194 204.262 213.199C204.168 213.209 204.03 213.223 203.855 213.24C203.504 213.273 203.003 213.319 202.408 213.364C201.214 213.456 199.652 213.546 198.152 213.549L198.155 215.549C199.724 215.546 201.342 215.452 202.56 215.358C203.171 215.312 203.685 215.265 204.047 215.23C204.228 215.213 204.371 215.198 204.47 215.188C204.519 215.183 204.557 215.179 204.583 215.176C204.596 215.175 204.606 215.173 204.613 215.173C204.616 215.172 204.619 215.172 204.621 215.172C204.622 215.172 204.622 215.172 204.623 215.172C204.623 215.172 204.623 215.172 204.623 215.172C204.624 215.172 204.624 215.172 204.624 215.171C204.624 215.171 204.624 215.171 204.513 214.178ZM212.953 225.951L205.364 213.652L203.662 214.703L211.251 227.001L212.953 225.951ZM208.397 238.415C210.066 234.089 211.626 230.057 213.018 226.877L211.186 226.075C209.773 229.304 208.195 233.382 206.531 237.696L208.397 238.415ZM208.19 238.952L208.397 238.415L206.531 237.696L206.324 238.233L208.19 238.952ZM208.199 238.929L208.199 238.929L206.315 238.256L206.315 238.257L208.199 238.929ZM208.187 238.961L208.188 238.959L206.326 238.227L206.326 238.229L208.187 238.961ZM204.765 247.734C205.956 244.746 207.1 241.78 208.189 238.955L206.323 238.235C205.233 241.062 204.093 244.018 202.907 246.993L204.765 247.734ZM188.272 247.464L203.778 248.362L203.894 246.365L188.388 245.467L188.272 247.464ZM187.784 245.628C183.435 248.466 178.016 250.255 171.735 251.235L172.043 253.211C178.503 252.203 184.218 250.343 188.877 247.303L187.784 245.628ZM171.718 253.208C172.048 253.265 172.296 253.314 172.459 253.349C172.541 253.366 172.601 253.379 172.64 253.388C172.659 253.392 172.673 253.395 172.681 253.397C172.686 253.398 172.688 253.399 172.69 253.399C172.691 253.399 172.691 253.399 172.691 253.399C172.691 253.4 172.691 253.399 172.691 253.399C172.691 253.399 172.691 253.399 172.691 253.399C172.691 253.399 172.69 253.399 172.69 253.399C172.69 253.399 172.69 253.399 172.69 253.399C172.69 253.399 172.69 253.399 172.926 252.428C173.163 251.456 173.163 251.456 173.163 251.456C173.163 251.456 173.163 251.456 173.163 251.456C173.162 251.456 173.162 251.456 173.162 251.456C173.162 251.456 173.162 251.456 173.162 251.456C173.161 251.456 173.161 251.455 173.16 251.455C173.159 251.455 173.157 251.455 173.155 251.454C173.151 251.453 173.145 251.452 173.139 251.45C173.125 251.447 173.106 251.443 173.081 251.437C173.032 251.426 172.961 251.41 172.869 251.391C172.684 251.352 172.414 251.299 172.061 251.237L171.718 253.208ZM172.618 253.379C173.65 253.714 174.582 254.108 175.421 254.552L176.357 252.785C175.41 252.283 174.37 251.844 173.235 251.476L172.618 253.379ZM200.698 254.104L175.947 252.67L175.831 254.667L200.582 256.1L200.698 254.104ZM194.533 269.599C196.939 265.653 199.297 260.74 201.558 255.498L199.722 254.706C197.475 259.915 195.159 264.729 192.825 268.558L194.533 269.599ZM187.613 277.524C189.595 276.479 191.955 273.828 194.533 269.599L192.825 268.558C190.272 272.746 188.149 274.981 186.681 275.755L187.613 277.524ZM181.788 279.484C184.637 278.747 186.566 278.076 187.613 277.524L186.681 275.755C185.852 276.192 184.116 276.817 181.287 277.548L181.788 279.484ZM177.29 280.537C178.937 280.184 180.442 279.833 181.788 279.484L181.287 277.548C179.974 277.888 178.496 278.233 176.87 278.582L177.29 280.537ZM176.386 278.839C174.067 281.073 171.293 282.428 168.426 282.428V284.428C171.942 284.428 175.188 282.77 177.774 280.28L176.386 278.839ZM168.302 284.42C172.82 284.985 174.944 286.69 175.734 288.271L177.523 287.378C176.324 284.975 173.439 283.046 168.551 282.435L168.302 284.42Z" fill="black"/>
<circle cx="82.7229" cy="294.112" r="6.39771" fill="#EBF479" stroke="black" stroke-width="2"/>
<circle cx="247.051" cy="294.112" r="6.39771" fill="#EBF479" stroke="black" stroke-width="2"/>
<rect x="138.691" y="296.733" width="29.4316" height="5.8606" rx="2.9303" fill="#4E4E4E" stroke="black" stroke-width="2"/>
</svg>
