<svg width="242" height="129" viewBox="0 0 242 129" fill="none" xmlns="http://www.w3.org/2000/svg">
<rect x="121.073" y="87.3529" width="29.4316" height="5.8606" rx="2.9303" fill="#4E4E4E" stroke="black" stroke-width="2"/>
<ellipse cx="121.104" cy="115.693" rx="120.42" ry="12.5" fill="black" fill-opacity="0.5"/>
<path fill-rule="evenodd" clip-rule="evenodd" d="M30.2607 118.065C44.5802 118.065 56.1884 106.157 56.1884 91.4681C56.1884 76.7791 44.5802 64.8712 30.2607 64.8712C15.9412 64.8712 4.33301 76.7791 4.33301 91.4681C4.33301 106.157 15.9412 118.065 30.2607 118.065ZM30.2615 108.992C39.6962 108.992 47.3446 101.146 47.3446 91.468C47.3446 81.7898 39.6962 73.9441 30.2615 73.9441C20.8268 73.9441 13.1785 81.7898 13.1785 91.468C13.1785 101.146 20.8268 108.992 30.2615 108.992Z" fill="#4E4E4E"/>
<path d="M55.1884 91.4681C55.1884 105.629 44.004 117.065 30.2607 117.065V119.065C45.1563 119.065 57.1884 106.685 57.1884 91.4681H55.1884ZM30.2607 65.8712C44.004 65.8712 55.1884 77.3072 55.1884 91.4681H57.1884C57.1884 76.2509 45.1563 63.8712 30.2607 63.8712V65.8712ZM5.33301 91.4681C5.33301 77.3072 16.5174 65.8712 30.2607 65.8712V63.8712C15.3651 63.8712 3.33301 76.2509 3.33301 91.4681H5.33301ZM30.2607 117.065C16.5174 117.065 5.33301 105.629 5.33301 91.4681H3.33301C3.33301 106.685 15.3651 119.065 30.2607 119.065V117.065ZM46.3446 91.468C46.3446 100.618 39.1201 107.992 30.2615 107.992V109.992C40.2724 109.992 48.3446 101.674 48.3446 91.468H46.3446ZM30.2615 74.9441C39.1201 74.9441 46.3446 82.3179 46.3446 91.468H48.3446C48.3446 81.2617 40.2724 72.9441 30.2615 72.9441V74.9441ZM14.1785 91.468C14.1785 82.3179 21.403 74.9441 30.2615 74.9441V72.9441C20.2507 72.9441 12.1785 81.2617 12.1785 91.468H14.1785ZM30.2615 107.992C21.403 107.992 14.1785 100.618 14.1785 91.468H12.1785C12.1785 101.674 20.2507 109.992 30.2615 109.992V107.992Z" fill="black"/>
<path fill-rule="evenodd" clip-rule="evenodd" d="M194.378 118.065C208.697 118.065 220.306 106.157 220.306 91.4681C220.306 76.7791 208.697 64.8712 194.378 64.8712C180.058 64.8712 168.45 76.7791 168.45 91.4681C168.45 106.157 180.058 118.065 194.378 118.065ZM194.379 108.992C203.813 108.992 211.462 101.146 211.462 91.468C211.462 81.7898 203.813 73.9441 194.379 73.9441C184.944 73.9441 177.296 81.7898 177.296 91.468C177.296 101.146 184.944 108.992 194.379 108.992Z" fill="#4E4E4E"/>
<path d="M219.306 91.4681C219.306 105.629 208.121 117.065 194.378 117.065V119.065C209.274 119.065 221.306 106.685 221.306 91.4681H219.306ZM194.378 65.8712C208.121 65.8712 219.306 77.3072 219.306 91.4681H221.306C221.306 76.2509 209.274 63.8712 194.378 63.8712V65.8712ZM169.45 91.4681C169.45 77.3072 180.635 65.8712 194.378 65.8712V63.8712C179.482 63.8712 167.45 76.2509 167.45 91.4681H169.45ZM194.378 117.065C180.635 117.065 169.45 105.629 169.45 91.4681H167.45C167.45 106.685 179.482 119.065 194.378 119.065V117.065ZM210.462 91.468C210.462 100.618 203.237 107.992 194.379 107.992V109.992C204.39 109.992 212.462 101.674 212.462 91.468H210.462ZM194.379 74.9441C203.237 74.9441 210.462 82.3179 210.462 91.468H212.462C212.462 81.2617 204.39 72.9441 194.379 72.9441V74.9441ZM178.296 91.468C178.296 82.3179 185.52 74.9441 194.379 74.9441V72.9441C184.368 72.9441 176.296 81.2617 176.296 91.468H178.296ZM194.379 107.992C185.52 107.992 178.296 100.618 178.296 91.468H176.296C176.296 101.674 184.368 109.992 194.379 109.992V107.992Z" fill="black"/>
<path d="M27.1727 74.0292V108.582M10.3633 90.8386H43.9822M37.8187 77.9514L16.7135 104.099M39.8732 102.232L15.5929 79.6323" stroke="black" stroke-width="2" stroke-linecap="round" stroke-linejoin="round"/>
<path d="M191.29 74.0292V108.582M174.48 90.8386H208.099M201.936 77.9514L180.831 104.099M203.99 102.232L179.71 79.6323" stroke="black" stroke-width="2" stroke-linecap="round" stroke-linejoin="round"/>
<path fill-rule="evenodd" clip-rule="evenodd" d="M27.2724 118.065C41.5919 118.065 53.2001 106.157 53.2001 91.4681C53.2001 76.7791 41.5919 64.8712 27.2724 64.8712C12.953 64.8712 1.34473 76.7791 1.34473 91.4681C1.34473 106.157 12.953 118.065 27.2724 118.065ZM27.2732 108.992C36.7079 108.992 44.3562 101.146 44.3562 91.468C44.3562 81.7898 36.7079 73.9441 27.2732 73.9441C17.8385 73.9441 10.1901 81.7898 10.1901 91.468C10.1901 101.146 17.8385 108.992 27.2732 108.992Z" fill="#4E4E4E"/>
<path d="M52.2001 91.4681C52.2001 105.629 41.0158 117.065 27.2724 117.065V119.065C42.1681 119.065 54.2001 106.685 54.2001 91.4681H52.2001ZM27.2724 65.8712C41.0158 65.8712 52.2001 77.3072 52.2001 91.4681H54.2001C54.2001 76.2509 42.1681 63.8712 27.2724 63.8712V65.8712ZM2.34473 91.4681C2.34473 77.3072 13.5291 65.8712 27.2724 65.8712V63.8712C12.3768 63.8712 0.344727 76.2509 0.344727 91.4681H2.34473ZM27.2724 117.065C13.5291 117.065 2.34473 105.629 2.34473 91.4681H0.344727C0.344727 106.685 12.3768 119.065 27.2724 119.065V117.065ZM43.3562 91.468C43.3562 100.618 36.1317 107.992 27.2732 107.992V109.992C37.284 109.992 45.3562 101.674 45.3562 91.468H43.3562ZM27.2732 74.9441C36.1317 74.9441 43.3562 82.3179 43.3562 91.468H45.3562C45.3562 81.2617 37.284 72.9441 27.2732 72.9441V74.9441ZM11.1901 91.468C11.1901 82.3179 18.4146 74.9441 27.2732 74.9441V72.9441C17.2623 72.9441 9.19012 81.2617 9.19012 91.468H11.1901ZM27.2732 107.992C18.4146 107.992 11.1901 100.618 11.1901 91.468H9.19012C9.19012 101.674 17.2623 109.992 27.2732 109.992V107.992Z" fill="black"/>
<path fill-rule="evenodd" clip-rule="evenodd" d="M191.39 118.065C205.709 118.065 217.317 106.157 217.317 91.4681C217.317 76.7791 205.709 64.8712 191.39 64.8712C177.07 64.8712 165.462 76.7791 165.462 91.4681C165.462 106.157 177.07 118.065 191.39 118.065ZM191.39 108.992C200.825 108.992 208.473 101.146 208.473 91.468C208.473 81.7898 200.825 73.9441 191.39 73.9441C181.956 73.9441 174.307 81.7898 174.307 91.468C174.307 101.146 181.956 108.992 191.39 108.992Z" fill="#4E4E4E"/>
<path d="M216.317 91.4681C216.317 105.629 205.133 117.065 191.39 117.065V119.065C206.285 119.065 218.317 106.685 218.317 91.4681H216.317ZM191.39 65.8712C205.133 65.8712 216.317 77.3072 216.317 91.4681H218.317C218.317 76.2509 206.285 63.8712 191.39 63.8712V65.8712ZM166.462 91.4681C166.462 77.3072 177.646 65.8712 191.39 65.8712V63.8712C176.494 63.8712 164.462 76.2509 164.462 91.4681H166.462ZM191.39 117.065C177.646 117.065 166.462 105.629 166.462 91.4681H164.462C164.462 106.685 176.494 119.065 191.39 119.065V117.065ZM207.473 91.468C207.473 100.618 200.249 107.992 191.39 107.992V109.992C201.401 109.992 209.473 101.674 209.473 91.468H207.473ZM191.39 74.9441C200.249 74.9441 207.473 82.3179 207.473 91.468H209.473C209.473 81.2617 201.401 72.9441 191.39 72.9441V74.9441ZM175.307 91.468C175.307 82.3179 182.532 74.9441 191.39 74.9441V72.9441C181.379 72.9441 173.307 81.2617 173.307 91.468H175.307ZM191.39 107.992C182.532 107.992 175.307 100.618 175.307 91.468H173.307C173.307 101.674 181.379 109.992 191.39 109.992V107.992Z" fill="black"/>
<path fill-rule="evenodd" clip-rule="evenodd" d="M41.926 65.27L23.3899 90.2369C22.4519 91.5004 22.3418 93.1964 23.1086 94.5705C23.8754 95.9446 25.3766 96.7415 26.9444 96.6066C40.3216 95.4559 59.9691 93.5405 78.9011 91.2666C77.5758 90.435 78.318 88.8275 79.2205 86.8729C79.7718 85.6788 80.383 84.3552 80.6192 82.9997C64.8213 84.9334 48.2632 86.6294 35.1309 87.8432L48.8692 69.3385C46.2974 68.1968 43.9897 66.8229 41.926 65.27ZM120.967 85.018C123.524 84.502 125.848 83.9803 127.879 83.4551C130.808 82.6977 133.406 81.8648 135.217 80.9096C138.992 78.9191 142.178 74.818 144.849 70.4362C147.615 65.8988 150.226 60.3761 152.623 54.7686C154.937 49.3556 157.102 43.7415 159.043 38.7088L159.267 38.128C160.206 35.6947 160.652 34.3006 161.006 33.1959L161.006 33.1956L161.007 33.1942L161.007 33.1933C161.166 32.6966 161.307 32.2582 161.465 31.8101L169.482 44.802L162.86 46.4959C161.875 46.748 161.67 47.358 161.39 48.1949C161.318 48.4102 161.241 48.6405 161.144 48.8835C160.671 50.0717 160.794 51.4144 161.476 52.4963L185.343 90.3628C186.521 92.2317 188.991 92.7918 190.86 91.6139C192.729 90.4359 193.289 87.966 192.111 86.0972L171.173 52.8773L181.447 50.1584C181.447 50.1584 188.226 60.7463 190.722 64.6001C196.726 64.4963 201.726 66.9963 201.726 66.9963L186.68 43.4384C185.757 41.9614 183.985 41.2515 182.297 41.6832L177.555 42.7369L157.578 10.4118L166.623 9.34184C168.825 9.0813 170.406 7.09373 170.163 4.88926C169.921 2.68946 167.961 1.0927 165.758 1.3042C159.325 1.92181 146.824 3.09321 141.687 3.37495C142.999 6.11252 143.437 8.42502 142.492 11.7422C145.561 11.7376 148.852 11.3712 148.852 11.3712L156.441 23.6694C155.038 26.8739 153.469 30.9291 151.803 35.249L151.596 35.7861L151.596 35.7867L151.595 35.7889L151.594 35.7906C150.505 38.6161 149.363 41.5759 148.175 44.5573L132.669 43.6593C128.166 46.5981 122.599 48.423 116.228 49.4163C116.912 49.5352 117.265 49.6212 117.265 49.6212C118.349 49.9727 119.335 50.3893 120.228 50.8623L144.979 52.2957C142.725 57.5213 140.388 62.3849 138.018 66.2721C135.452 70.4809 133.211 72.9235 131.486 73.833C130.548 74.3278 128.715 74.9757 125.876 75.7099C124.547 76.0538 123.055 76.402 121.419 76.7531C118.967 79.1149 115.956 80.6212 112.765 80.6212C117.469 81.2091 119.973 83.0259 120.967 85.018Z" fill="#EBF479"/>
<path d="M23.3899 90.2369L22.587 89.6408H22.587L23.3899 90.2369ZM41.926 65.27L42.5273 64.4709C42.3145 64.3108 42.0466 64.2421 41.783 64.2802C41.5194 64.3183 41.2819 64.46 41.1231 64.6739L41.926 65.27ZM23.1086 94.5705L22.2354 95.0578L23.1086 94.5705ZM26.9444 96.6066L26.8587 95.6103H26.8587L26.9444 96.6066ZM78.9011 91.2666L79.0204 92.2594C79.4411 92.2089 79.7843 91.8987 79.8769 91.4852C79.9696 91.0717 79.7916 90.6447 79.4326 90.4195L78.9011 91.2666ZM79.2205 86.8729L80.1284 87.2921H80.1284L79.2205 86.8729ZM80.6192 82.9997L81.6044 83.1713C81.6587 82.8594 81.5621 82.5402 81.344 82.3107C81.1259 82.0812 80.812 81.9686 80.4977 82.0071L80.6192 82.9997ZM35.1309 87.8432L34.328 87.2471C34.0928 87.5638 34.0658 87.9893 34.2592 88.3332C34.4525 88.6771 34.83 88.8752 35.2229 88.8389L35.1309 87.8432ZM48.8692 69.3385L49.6721 69.9346C49.8532 69.6907 49.9136 69.3778 49.8363 69.0841C49.7591 68.7904 49.5525 68.5477 49.275 68.4245L48.8692 69.3385ZM127.879 83.4551L127.629 82.4869H127.629L127.879 83.4551ZM120.967 85.018L120.073 85.4646C120.274 85.8689 120.722 86.0876 121.165 85.9983L120.967 85.018ZM135.217 80.9096L135.684 81.7942L135.217 80.9096ZM144.849 70.4362L143.995 69.9157L144.849 70.4362ZM152.623 54.7686L153.543 55.1617V55.1617L152.623 54.7686ZM159.043 38.7088L158.11 38.3489L158.11 38.3489L159.043 38.7088ZM159.267 38.128L158.334 37.7681L158.334 37.7682L159.267 38.128ZM161.006 33.1959L161.959 33.501C161.96 33.4957 161.962 33.4903 161.964 33.4849L161.006 33.1959ZM161.006 33.1956L160.057 32.8817C160.054 32.89 160.052 32.8983 160.049 32.9066L161.006 33.1956ZM161.007 33.1942L161.956 33.5081C161.958 33.5021 161.96 33.4961 161.962 33.49L161.007 33.1942ZM161.007 33.1933L160.055 32.8882L160.052 32.8975L161.007 33.1933ZM161.465 31.8101L162.316 31.2849C162.114 30.9572 161.741 30.7747 161.358 30.8158C160.975 30.8569 160.65 31.1142 160.522 31.4774L161.465 31.8101ZM169.482 44.802L169.73 45.7708C170.038 45.6919 170.29 45.4712 170.41 45.1763C170.529 44.8814 170.5 44.5475 170.333 44.2768L169.482 44.802ZM162.86 46.4959L163.108 47.4647L162.86 46.4959ZM161.39 48.1949L160.442 47.8771V47.8771L161.39 48.1949ZM161.144 48.8835L160.215 48.5136V48.5136L161.144 48.8835ZM161.476 52.4963L162.322 51.9631V51.9631L161.476 52.4963ZM185.343 90.3628L184.497 90.896L185.343 90.3628ZM190.86 91.6139L190.326 90.7679V90.7679L190.86 91.6139ZM192.111 86.0972L192.957 85.5639L192.957 85.5639L192.111 86.0972ZM171.173 52.8773L170.917 51.9106C170.609 51.992 170.359 52.215 170.242 52.5112C170.126 52.8074 170.157 53.1413 170.327 53.4105L171.173 52.8773ZM181.447 50.1584L182.289 49.6192C182.054 49.2533 181.611 49.0806 181.191 49.1917L181.447 50.1584ZM190.722 64.6001L189.883 65.1437C190.071 65.4334 190.394 65.6059 190.74 65.5999L190.722 64.6001ZM201.726 66.9963L201.279 67.8907C201.681 68.0919 202.168 67.9997 202.469 67.6654C202.77 67.3312 202.811 66.8371 202.569 66.458L201.726 66.9963ZM186.68 43.4384L185.832 43.9684L185.837 43.9767L186.68 43.4384ZM182.297 41.6832L182.514 42.6594C182.524 42.6571 182.535 42.6546 182.545 42.652L182.297 41.6832ZM177.555 42.7369L176.704 43.2626C176.928 43.6247 177.356 43.8054 177.771 43.7131L177.555 42.7369ZM157.578 10.4118L157.46 9.41877C157.121 9.45891 156.826 9.66945 156.677 9.97711C156.529 10.2848 156.548 10.6469 156.727 10.9376L157.578 10.4118ZM166.623 9.34184L166.74 10.3349L166.623 9.34184ZM170.163 4.88926L171.157 4.77998V4.77997L170.163 4.88926ZM165.758 1.3042L165.663 0.308779V0.308779L165.758 1.3042ZM141.687 3.37495L141.632 2.37646C141.299 2.39474 140.997 2.57817 140.827 2.86544C140.657 3.15272 140.641 3.50593 140.785 3.80701L141.687 3.37495ZM142.492 11.7422L141.53 11.4684C141.445 11.7703 141.505 12.095 141.695 12.3453C141.884 12.5957 142.18 12.7426 142.494 12.7422L142.492 11.7422ZM148.852 11.3712L149.703 10.8461C149.5 10.5171 149.126 10.3346 148.741 10.3774L148.852 11.3712ZM156.441 23.6694L157.357 24.0704C157.489 23.7697 157.465 23.4236 157.292 23.1442L156.441 23.6694ZM151.803 35.249L150.87 34.8892L150.87 34.8892L151.803 35.249ZM151.596 35.7861L150.663 35.4262C150.661 35.4322 150.658 35.4383 150.656 35.4443L151.596 35.7861ZM151.596 35.7867L152.531 36.1406L152.536 36.1285L151.596 35.7867ZM151.595 35.7889L152.528 36.1492L152.53 36.1427L151.595 35.7889ZM151.594 35.7906L150.661 35.4303L150.661 35.4307L151.594 35.7906ZM148.175 44.5573L148.117 45.5556C148.547 45.5805 148.944 45.3275 149.104 44.9275L148.175 44.5573ZM132.669 43.6593L132.727 42.661C132.513 42.6486 132.302 42.705 132.123 42.8218L132.669 43.6593ZM116.228 49.4163L116.074 48.4282C115.59 48.5036 115.232 48.918 115.228 49.4075C115.224 49.897 115.574 50.3176 116.057 50.4015L116.228 49.4163ZM117.265 49.6212L117.574 48.67C117.55 48.6623 117.526 48.6555 117.502 48.6495L117.265 49.6212ZM120.228 50.8623L119.76 51.746C119.887 51.8132 120.027 51.8523 120.17 51.8606L120.228 50.8623ZM144.979 52.2957L145.897 52.6917C146.026 52.392 146.001 52.0482 145.83 51.7705C145.659 51.4928 145.363 51.3162 145.037 51.2973L144.979 52.2957ZM138.018 66.2721L137.164 65.7515L138.018 66.2721ZM131.486 73.833L131.02 72.9485H131.02L131.486 73.833ZM125.876 75.7099L125.626 74.7417H125.626L125.876 75.7099ZM121.419 76.7531L121.209 75.7754C121.027 75.8144 120.859 75.9036 120.725 76.0328L121.419 76.7531ZM112.765 80.6212V79.6212C112.237 79.6212 111.8 80.0319 111.767 80.5591C111.734 81.0862 112.117 81.548 112.641 81.6135L112.765 80.6212ZM24.1928 90.833L42.7289 65.8661L41.1231 64.6739L22.587 89.6408L24.1928 90.833ZM23.9819 94.0832C23.4068 93.0526 23.4893 91.7806 24.1928 90.833L22.587 89.6408C21.4145 91.2201 21.2769 93.3401 22.2354 95.0578L23.9819 94.0832ZM26.8587 95.6103C25.6829 95.7114 24.557 95.1138 23.9819 94.0832L22.2354 95.0578C23.1939 96.7754 25.0704 97.7715 27.0301 97.6029L26.8587 95.6103ZM78.7819 90.2737C59.8632 92.5461 40.227 94.4603 26.8587 95.6103L27.0301 97.6029C40.4161 96.4514 60.0751 94.535 79.0204 92.2594L78.7819 90.2737ZM79.4326 90.4195C79.2734 90.3196 79.231 90.2379 79.2105 90.1785C79.1821 90.0961 79.1611 89.9418 79.2101 89.6651C79.3151 89.0713 79.6565 88.314 80.1284 87.2921L78.3126 86.4537C77.8819 87.3864 77.401 88.4102 77.2406 89.3167C77.1569 89.7901 77.1425 90.3158 77.3195 90.8297C77.5044 91.3666 77.8661 91.7977 78.3696 92.1136L79.4326 90.4195ZM80.1284 87.2921C80.6691 86.121 81.3418 84.678 81.6044 83.1713L79.6341 82.828C79.4242 84.0324 78.8745 85.2367 78.3126 86.4537L80.1284 87.2921ZM80.4977 82.0071C64.712 83.9393 48.1641 85.6343 35.0389 86.8474L35.2229 88.8389C48.3623 87.6245 64.9305 85.9275 80.7407 83.9922L80.4977 82.0071ZM35.9338 88.4393L49.6721 69.9346L48.0663 68.7424L34.328 87.2471L35.9338 88.4393ZM49.275 68.4245C46.7729 67.3137 44.5308 65.9785 42.5273 64.4709L41.3247 66.069C43.4487 67.6673 45.8219 69.0798 48.4635 70.2525L49.275 68.4245ZM127.629 82.4869C125.62 83.0064 123.314 83.5242 120.769 84.0378L121.165 85.9983C123.734 85.4799 126.076 84.9542 128.13 84.4232L127.629 82.4869ZM134.751 80.025C133.048 80.9228 130.546 81.7326 127.629 82.4869L128.13 84.4232C131.07 83.6628 133.763 82.8068 135.684 81.7942L134.751 80.025ZM143.995 69.9157C141.338 74.275 138.27 78.1695 134.751 80.025L135.684 81.7942C139.714 79.6688 143.018 75.361 145.703 70.9567L143.995 69.9157ZM151.704 54.3755C149.314 59.9671 146.724 65.4388 143.995 69.9157L145.703 70.9567C148.506 66.3588 151.139 60.7852 153.543 55.1617L151.704 54.3755ZM158.11 38.3489C156.168 43.3843 154.01 48.9817 151.704 54.3755L153.543 55.1617C155.865 49.7295 158.036 44.0987 159.976 39.0686L158.11 38.3489ZM158.334 37.7682L158.11 38.3489L159.976 39.0686L160.2 38.4878L158.334 37.7682ZM160.054 32.8908C159.703 33.9861 159.263 35.36 158.334 37.7681L160.2 38.4879C161.148 36.0294 161.602 34.6151 161.959 33.501L160.054 32.8908ZM160.049 32.9066L160.049 32.9069L161.964 33.4849L161.964 33.4846L160.049 32.9066ZM160.057 32.8803L160.057 32.8817L161.956 33.5095L161.956 33.5081L160.057 32.8803ZM160.052 32.8975L160.052 32.8984L161.962 33.49L161.962 33.4891L160.052 32.8975ZM160.522 31.4774C160.358 31.9416 160.213 32.3938 160.055 32.8882L161.96 33.4984C162.119 32.9993 162.256 32.5749 162.408 32.1428L160.522 31.4774ZM170.333 44.2768L162.316 31.2849L160.614 32.3352L168.631 45.3271L170.333 44.2768ZM163.108 47.4647L169.73 45.7708L169.234 43.8331L162.613 45.5271L163.108 47.4647ZM162.338 48.5127C162.491 48.0557 162.568 47.8536 162.67 47.7133C162.727 47.6348 162.815 47.5398 163.108 47.4647L162.613 45.5271C161.921 45.7041 161.413 46.0402 161.051 46.5389C160.734 46.9758 160.569 47.4972 160.442 47.8771L162.338 48.5127ZM162.073 49.2535C162.181 48.9809 162.267 48.7255 162.338 48.5126L160.442 47.8771C160.369 48.0949 160.3 48.3 160.215 48.5136L162.073 49.2535ZM162.322 51.9631C161.811 51.1517 161.718 50.1446 162.073 49.2535L160.215 48.5136C159.623 49.9987 159.778 51.6772 160.63 53.0295L162.322 51.9631ZM186.189 89.8296L162.322 51.9631L160.63 53.0295L184.497 90.896L186.189 89.8296ZM190.326 90.7679C188.925 91.6514 187.072 91.2313 186.189 89.8296L184.497 90.896C185.969 93.2322 189.057 93.9323 191.393 92.4598L190.326 90.7679ZM191.265 86.6304C192.148 88.032 191.728 89.8844 190.326 90.7679L191.393 92.4598C193.729 90.9874 194.429 87.9 192.957 85.5639L191.265 86.6304ZM170.327 53.4105L191.265 86.6304L192.957 85.5639L172.019 52.3441L170.327 53.4105ZM181.191 49.1917L170.917 51.9106L171.429 53.844L181.702 51.1251L181.191 49.1917ZM191.562 64.0565C190.315 62.1318 187.997 58.5233 185.99 55.3942C184.987 53.83 184.061 52.3862 183.387 51.3335C183.05 50.8071 182.775 50.3785 182.585 50.0816C182.49 49.9331 182.416 49.8175 182.365 49.739C182.34 49.6997 182.321 49.6698 182.308 49.6497C182.302 49.6396 182.297 49.632 182.294 49.6269C182.292 49.6243 182.291 49.6224 182.29 49.6211C182.29 49.6205 182.289 49.62 182.289 49.6197C182.289 49.6195 182.289 49.6194 182.289 49.6193C182.289 49.6192 182.289 49.6192 181.447 50.1584C180.604 50.6977 180.604 50.6977 180.605 50.6978C180.605 50.6979 180.605 50.698 180.605 50.6982C180.605 50.6985 180.605 50.699 180.606 50.6996C180.607 50.7009 180.608 50.7028 180.609 50.7054C180.613 50.7105 180.618 50.7181 180.624 50.7282C180.637 50.7483 180.656 50.7783 180.681 50.8176C180.732 50.8961 180.806 51.0117 180.901 51.1603C181.091 51.4573 181.366 51.886 181.703 52.4125C182.378 53.4654 183.303 54.9095 184.307 56.474C186.313 59.6023 188.633 63.2146 189.883 65.1437L191.562 64.0565ZM201.726 66.9963C202.173 66.1019 202.173 66.1017 202.173 66.1016C202.173 66.1016 202.172 66.1014 202.172 66.1013C202.172 66.1011 202.171 66.1008 202.171 66.1005C202.169 66.0999 202.168 66.0992 202.166 66.0983C202.163 66.0965 202.158 66.0941 202.152 66.0912C202.14 66.0853 202.123 66.0771 202.101 66.0667C202.058 66.0461 201.996 66.0168 201.917 65.9803C201.758 65.9072 201.527 65.8048 201.233 65.6833C200.646 65.4403 199.803 65.1197 198.768 64.803C196.704 64.1714 193.844 63.546 190.705 63.6002L190.74 65.5999C193.604 65.5504 196.247 66.1231 198.183 66.7155C199.148 67.0109 199.931 67.3088 200.469 67.5313C200.737 67.6425 200.945 67.7346 201.082 67.7979C201.151 67.8295 201.203 67.8538 201.236 67.8697C201.252 67.8777 201.264 67.8835 201.271 67.887C201.275 67.8888 201.278 67.89 201.279 67.8906C201.279 67.891 201.28 67.8911 201.28 67.8911C201.28 67.8911 201.28 67.8911 201.28 67.891C201.279 67.891 201.279 67.8909 201.279 67.8909C201.279 67.8908 201.279 67.8907 201.726 66.9963ZM185.837 43.9767L200.883 67.5345L202.569 66.458L187.523 42.9002L185.837 43.9767ZM182.545 42.652C183.811 42.3283 185.14 42.8606 185.832 43.9684L187.528 42.9084C186.374 41.0622 184.159 40.1748 182.049 40.7144L182.545 42.652ZM177.771 43.7131L182.514 42.6594L182.08 40.707L177.338 41.7607L177.771 43.7131ZM156.727 10.9376L176.704 43.2626L178.405 42.2112L158.429 9.88614L156.727 10.9376ZM166.505 8.34877L157.46 9.41877L157.695 11.4049L166.74 10.3349L166.505 8.34877ZM169.169 4.99855C169.352 6.65724 168.163 8.15273 166.505 8.34877L166.74 10.3349C169.488 10.0099 171.46 7.53022 171.157 4.77998L169.169 4.99855ZM165.854 2.29962C167.511 2.14048 168.987 3.34149 169.169 4.99855L171.157 4.77997C170.856 2.03743 168.411 0.0449265 165.663 0.308779L165.854 2.29962ZM141.742 4.37345C146.905 4.09031 159.431 2.91632 165.854 2.29962L165.663 0.308779C159.22 0.927299 146.744 2.09611 141.632 2.37646L141.742 4.37345ZM143.454 12.016C143.956 10.2542 144.102 8.71327 143.929 7.22562C143.756 5.74355 143.273 4.37071 142.589 2.9429L140.785 3.80701C141.413 5.11677 141.804 6.26896 141.942 7.45683C142.08 8.6391 141.973 9.91298 141.53 11.4684L143.454 12.016ZM148.852 11.3712C148.741 10.3774 148.741 10.3774 148.741 10.3774C148.741 10.3774 148.741 10.3774 148.741 10.3774C148.741 10.3774 148.741 10.3774 148.741 10.3774C148.741 10.3774 148.74 10.3775 148.74 10.3776C148.738 10.3777 148.736 10.3779 148.733 10.3782C148.728 10.3789 148.719 10.3799 148.707 10.3811C148.683 10.3837 148.648 10.3875 148.601 10.3924C148.507 10.4022 148.369 10.4162 148.194 10.4332C147.843 10.4671 147.342 10.5124 146.747 10.5579C145.553 10.6491 143.991 10.74 142.491 10.7422L142.494 12.7422C144.063 12.7399 145.681 12.6452 146.899 12.5521C147.51 12.5054 148.024 12.4589 148.386 12.4239C148.567 12.4064 148.71 12.3918 148.809 12.3816C148.858 12.3764 148.896 12.3724 148.922 12.3696C148.935 12.3682 148.945 12.3671 148.952 12.3663C148.955 12.3659 148.958 12.3656 148.96 12.3654C148.96 12.3653 148.961 12.3653 148.962 12.3652C148.962 12.3652 148.962 12.3651 148.962 12.3651C148.962 12.3651 148.963 12.3651 148.963 12.3651C148.963 12.3651 148.963 12.3651 148.852 11.3712ZM157.292 23.1442L149.703 10.8461L148.001 11.8964L155.59 24.1945L157.292 23.1442ZM152.736 35.6089C154.405 31.2829 155.965 27.2504 157.357 24.0704L155.525 23.2683C154.111 26.4975 152.534 30.5753 150.87 34.8892L152.736 35.6089ZM152.529 36.1459L152.736 35.6089L150.87 34.8892L150.663 35.4262L152.529 36.1459ZM152.536 36.1285L152.536 36.1278L150.656 35.4443L150.656 35.445L152.536 36.1285ZM152.53 36.1427L152.531 36.1405L150.66 35.4329L150.66 35.4351L152.53 36.1427ZM152.527 36.1508L152.528 36.1492L150.662 35.4286L150.661 35.4303L152.527 36.1508ZM149.104 44.9275C150.294 41.9402 151.438 38.9752 152.527 36.1504L150.661 35.4307C149.571 38.2571 148.432 41.2117 147.246 44.1871L149.104 44.9275ZM132.611 44.6576L148.117 45.5556L148.233 43.559L132.727 42.661L132.611 44.6576ZM132.123 42.8218C127.774 45.6594 122.355 47.4489 116.074 48.4282L116.382 50.4043C122.842 49.3971 128.557 47.5367 133.216 44.4968L132.123 42.8218ZM116.057 50.4015C116.387 50.459 116.635 50.508 116.798 50.5422C116.88 50.5592 116.94 50.5725 116.979 50.5812C116.998 50.5856 117.012 50.5888 117.02 50.5908C117.024 50.5918 117.027 50.5925 117.029 50.5928C117.029 50.593 117.03 50.5931 117.03 50.5931C117.03 50.5931 117.03 50.5931 117.03 50.5931C117.03 50.593 117.03 50.593 117.029 50.593C117.029 50.593 117.029 50.593 117.029 50.5929C117.029 50.5929 117.029 50.5929 117.029 50.5929C117.029 50.5929 117.029 50.5929 117.265 49.6212C117.502 48.6495 117.502 48.6495 117.502 48.6495C117.502 48.6495 117.502 48.6495 117.501 48.6495C117.501 48.6495 117.501 48.6494 117.501 48.6494C117.501 48.6494 117.501 48.6493 117.5 48.6493C117.5 48.6491 117.499 48.649 117.499 48.6488C117.497 48.6485 117.496 48.6481 117.494 48.6476C117.49 48.6467 117.484 48.6454 117.477 48.6438C117.464 48.6406 117.445 48.6362 117.42 48.6306C117.371 48.6195 117.3 48.6038 117.208 48.5845C117.023 48.5459 116.753 48.4925 116.399 48.4311L116.057 50.4015ZM116.957 50.5724C117.989 50.9072 118.921 51.3018 119.76 51.746L120.696 49.9785C119.748 49.4767 118.709 49.0381 117.574 48.67L116.957 50.5724ZM145.037 51.2973L120.286 49.8639L120.17 51.8606L144.921 53.294L145.037 51.2973ZM138.872 66.7926C141.277 62.8469 143.636 57.934 145.897 52.6917L144.061 51.8996C141.814 57.1086 139.498 61.923 137.164 65.7515L138.872 66.7926ZM131.952 74.7176C133.934 73.6726 136.294 71.0218 138.872 66.7926L137.164 65.7515C134.611 69.9401 132.488 72.1744 131.02 72.9485L131.952 74.7176ZM126.127 76.678C128.976 75.9411 130.905 75.2701 131.952 74.7176L131.02 72.9485C130.191 73.3855 128.455 74.0102 125.626 74.7417L126.127 76.678ZM121.629 77.7308C123.275 77.3775 124.781 77.0262 126.127 76.678L125.626 74.7417C124.313 75.0814 122.835 75.4264 121.209 75.7754L121.629 77.7308ZM120.725 76.0328C118.406 78.2664 115.632 79.6212 112.765 79.6212V81.6212C116.281 81.6212 119.527 79.9634 122.113 77.4734L120.725 76.0328ZM112.641 81.6135C117.159 82.1782 119.283 83.8836 120.073 85.4646L121.862 84.5714C120.662 82.1683 117.778 80.24 112.889 79.6289L112.641 81.6135Z" fill="black"/>
<circle cx="27.0618" cy="91.3055" r="6.39771" fill="#EBF479" stroke="black" stroke-width="2"/>
<circle cx="191.39" cy="91.3055" r="6.39771" fill="#EBF479" stroke="black" stroke-width="2"/>
<rect x="83.0303" y="93.9274" width="29.4316" height="5.8606" rx="2.9303" fill="#4E4E4E" stroke="black" stroke-width="2"/>
</svg>
