<svg width="361" height="340" viewBox="0 0 361 340" fill="none" xmlns="http://www.w3.org/2000/svg">
<ellipse cx="162.393" cy="319.584" rx="117.835" ry="12.5" fill="black" fill-opacity="0.5"/>
<g style="mix-blend-mode:multiply">
<path d="M50.3158 261.215C51.175 257.912 49.926 254.728 47.5261 254.104C45.1262 253.48 42.4842 255.651 41.625 258.955C40.7658 262.258 42.0148 265.442 44.4147 266.066C46.8146 266.69 49.4566 264.518 50.3158 261.215Z" fill="#CE1919"/>
<path d="M50.3158 261.215C51.175 257.912 49.926 254.728 47.5261 254.104C45.1262 253.48 42.4842 255.651 41.625 258.955C40.7658 262.258 42.0148 265.442 44.4147 266.066C46.8146 266.69 49.4566 264.518 50.3158 261.215Z" stroke="black" stroke-width="2" stroke-miterlimit="10"/>
</g>
<path d="M249.468 272.773L256.638 291.203L261.318 290.273L255.548 269.773L249.468 272.773Z" fill="#C2C2C3" stroke="black" stroke-width="2" stroke-miterlimit="10"/>
<path d="M256.228 263.534C240.768 263.534 228.228 276.304 228.228 292.064C228.228 307.824 240.768 320.584 256.228 320.584C271.688 320.584 284.228 307.814 284.228 292.064C284.228 276.314 271.698 263.534 256.228 263.534ZM256.228 308.754C252.912 308.816 249.653 307.889 246.866 306.091C244.079 304.293 241.89 301.707 240.579 298.66C239.267 295.614 238.892 292.247 239.502 288.987C240.112 285.727 241.679 282.722 244.002 280.356C246.326 277.99 249.302 276.369 252.55 275.7C255.798 275.031 259.172 275.345 262.242 276.601C265.311 277.857 267.937 279.998 269.785 282.752C271.633 285.506 272.619 288.748 272.618 292.064C272.637 294.236 272.229 296.391 271.416 298.405C270.603 300.42 269.401 302.254 267.879 303.804C266.357 305.354 264.545 306.589 262.546 307.438C260.547 308.287 258.4 308.735 256.228 308.754Z" fill="#91837D" stroke="black" stroke-width="2" stroke-miterlimit="10"/>
<path d="M251.979 268.844C246.868 268.751 241.846 270.181 237.551 272.952C233.257 275.724 229.885 279.711 227.864 284.406C225.844 289.101 225.268 294.291 226.208 299.315C227.148 304.339 229.563 308.969 233.144 312.616C236.726 316.262 241.312 318.76 246.318 319.791C251.324 320.822 256.524 320.339 261.254 318.404C265.985 316.468 270.032 313.169 272.881 308.925C275.729 304.681 277.25 299.685 277.249 294.574C277.279 291.225 276.649 287.903 275.396 284.798C274.142 281.693 272.289 278.865 269.943 276.475C267.596 274.086 264.802 272.182 261.72 270.873C258.637 269.564 255.327 268.874 251.979 268.844ZM251.979 309.634C248.989 309.688 246.051 308.85 243.539 307.228C241.028 305.606 239.055 303.274 237.874 300.527C236.693 297.78 236.356 294.744 236.906 291.805C237.456 288.866 238.869 286.158 240.964 284.024C243.059 281.891 245.741 280.43 248.67 279.826C251.598 279.223 254.64 279.505 257.408 280.637C260.175 281.768 262.543 283.698 264.211 286.18C265.878 288.662 266.768 291.584 266.769 294.574C266.787 296.534 266.419 298.479 265.686 300.297C264.952 302.115 263.868 303.77 262.494 305.169C261.121 306.567 259.485 307.682 257.681 308.448C255.876 309.214 253.939 309.617 251.979 309.634Z" fill="#6C5952" stroke="black" stroke-width="2" stroke-miterlimit="10"/>
<path d="M75.0186 263.534C59.5586 263.534 47.0186 276.304 47.0186 292.064C47.0186 307.824 59.5586 320.584 75.0186 320.584C90.4786 320.584 103.019 307.814 103.019 292.064C103.019 276.314 90.5386 263.534 75.0186 263.534ZM75.0186 308.754C71.7027 308.816 68.4436 307.889 65.6566 306.091C62.8696 304.293 60.6809 301.707 59.3695 298.66C58.0582 295.614 57.6835 292.247 58.2932 288.987C58.903 285.727 60.4695 282.722 62.7933 280.356C65.117 277.99 68.0926 276.369 71.341 275.7C74.5893 275.031 77.9632 275.345 81.0326 276.601C84.1021 277.857 86.7281 279.998 88.576 282.752C90.4239 285.506 91.41 288.748 91.4086 292.064C91.4283 294.236 91.0201 296.391 90.2071 298.405C89.3941 300.42 88.1923 302.254 86.6704 303.804C85.1484 305.354 83.3361 306.589 81.3368 307.438C79.3376 308.287 77.1906 308.735 75.0186 308.754Z" fill="#91837D" stroke="black" stroke-width="2" stroke-miterlimit="10"/>
<path d="M70.7676 268.844C65.6573 268.751 60.6349 270.181 56.3404 272.952C52.0459 275.724 48.6737 279.711 46.6535 284.406C44.6334 289.101 44.0567 294.291 44.9969 299.315C45.9372 304.339 48.3519 308.969 51.9333 312.616C55.5147 316.262 60.1006 318.76 65.1068 319.791C70.1129 320.822 75.3126 320.339 80.0432 318.404C84.7738 316.468 88.8213 313.169 91.6697 308.925C94.5182 304.681 96.0388 299.685 96.0376 294.574C96.068 291.225 95.4384 287.903 94.1848 284.798C92.9313 281.693 91.0784 278.865 88.7318 276.475C86.3852 274.086 83.591 272.182 80.5087 270.873C77.4264 269.564 74.1164 268.874 70.7676 268.844ZM70.7676 309.634C67.7774 309.692 64.8377 308.858 62.3232 307.238C59.8088 305.619 57.8334 303.287 56.649 300.541C55.4645 297.795 55.1246 294.758 55.6725 291.818C56.2204 288.878 57.6314 286.167 59.7256 284.032C61.8198 281.897 64.5023 280.433 67.4313 279.828C70.3603 279.223 73.4031 279.504 76.1718 280.635C78.9406 281.766 81.31 283.695 82.978 286.178C84.646 288.66 85.5371 291.583 85.5376 294.574C85.5749 298.529 84.0401 302.338 81.2704 305.162C78.5007 307.986 74.723 309.595 70.7676 309.634Z" fill="#6C5952" stroke="black" stroke-width="2" stroke-miterlimit="10"/>
<path d="M126.882 288.934H67.6509C64.5284 288.934 61.9971 291.667 61.9971 295.039C61.9971 298.41 64.5284 301.144 67.6509 301.144H126.882C130.005 301.144 132.536 298.41 132.536 295.039C132.536 291.667 130.005 288.934 126.882 288.934Z" fill="#757576" stroke="black" stroke-width="2" stroke-miterlimit="10"/>
<path fill-rule="evenodd" clip-rule="evenodd" d="M72.2434 245.898H68.1572L71.9213 249.387C71.9184 249.267 71.917 249.146 71.917 249.025C71.917 247.953 72.0295 246.907 72.2434 245.898ZM87.6926 264.006L106.948 281.854L117.098 293.734L128.988 283.254C128.988 283.254 127.511 281.514 127.453 278.002C124.673 277.166 121.031 276.447 116.296 275.898C104.87 274.574 96.8446 269.685 91.4199 263.338C90.2342 263.71 88.985 263.94 87.6926 264.006Z" fill="#FAC021"/>
<path d="M68.1572 245.898V244.898H65.6073L67.4774 246.632L68.1572 245.898ZM72.2434 245.898L73.2216 246.106L73.4777 244.898H72.2434V245.898ZM71.9213 249.387L71.2415 250.121L72.977 251.729L72.921 249.364L71.9213 249.387ZM106.948 281.854L107.709 281.204L107.671 281.16L107.628 281.12L106.948 281.854ZM87.6926 264.006L87.6418 263.007L85.2742 263.128L87.0129 264.739L87.6926 264.006ZM117.098 293.734L116.338 294.383L116.998 295.155L117.759 294.484L117.098 293.734ZM128.988 283.254L129.649 284.004L130.386 283.355L129.751 282.606L128.988 283.254ZM127.453 278.002L128.453 277.986L128.441 277.255L127.741 277.045L127.453 278.002ZM116.296 275.898L116.411 274.905L116.296 275.898ZM91.4199 263.338L92.1801 262.688L91.7507 262.186L91.1201 262.384L91.4199 263.338ZM68.1572 246.898H72.2434V244.898H68.1572V246.898ZM72.6011 248.654L68.837 245.165L67.4774 246.632L71.2415 250.121L72.6011 248.654ZM72.921 249.364C72.9183 249.251 72.917 249.138 72.917 249.025H70.917C70.917 249.154 70.9185 249.283 70.9216 249.411L72.921 249.364ZM72.917 249.025C72.917 248.023 73.0221 247.047 73.2216 246.106L71.2651 245.691C71.0369 246.767 70.917 247.883 70.917 249.025H72.917ZM107.628 281.12L88.3724 263.272L87.0129 264.739L106.268 282.587L107.628 281.12ZM117.859 293.084L107.709 281.204L106.188 282.503L116.338 294.383L117.859 293.084ZM128.327 282.503L116.437 292.983L117.759 294.484L129.649 284.004L128.327 282.503ZM126.454 278.019C126.485 279.916 126.9 281.357 127.324 282.341C127.536 282.831 127.748 283.206 127.914 283.466C127.997 283.595 128.069 283.697 128.122 283.769C128.149 283.805 128.172 283.834 128.189 283.856C128.198 283.867 128.206 283.876 128.212 283.884C128.215 283.888 128.218 283.891 128.22 283.894C128.221 283.895 128.222 283.896 128.223 283.898C128.224 283.898 128.224 283.899 128.225 283.899C128.225 283.9 128.225 283.9 128.225 283.9C128.226 283.9 128.226 283.901 128.988 283.254C129.751 282.606 129.751 282.607 129.751 282.607C129.751 282.607 129.752 282.608 129.752 282.608C129.752 282.608 129.752 282.609 129.753 282.609C129.753 282.61 129.754 282.61 129.754 282.611C129.755 282.612 129.756 282.613 129.756 282.613C129.757 282.614 129.756 282.613 129.754 282.61C129.75 282.605 129.74 282.593 129.727 282.575C129.7 282.539 129.655 282.476 129.599 282.388C129.486 282.212 129.326 281.932 129.161 281.549C128.832 280.785 128.48 279.601 128.453 277.986L126.454 278.019ZM127.741 277.045C124.887 276.186 121.182 275.458 116.411 274.905L116.18 276.892C120.879 277.437 124.46 278.146 127.165 278.96L127.741 277.045ZM116.411 274.905C105.233 273.609 97.4391 268.841 92.1801 262.688L90.6598 263.987C96.2501 270.528 104.507 275.538 116.18 276.892L116.411 274.905ZM91.1201 262.384C90.0143 262.731 88.8487 262.946 87.6418 263.007L87.7435 265.004C89.1214 264.934 90.4542 264.69 91.7198 264.292L91.1201 262.384Z" fill="black"/>
<path fill-rule="evenodd" clip-rule="evenodd" d="M135.381 283.254H129.007L117.487 293.734H133.28C133.008 292.842 133.586 291.59 134.251 290.15C135.21 288.072 136.351 285.602 135.381 283.254ZM175.15 293.734H205.377L215.667 283.254H203.483C205.467 284.913 206.298 287.271 203.796 290.399H176.516C176.533 291.687 176.015 292.895 175.15 293.734Z" fill="#3A3A3A"/>
<path d="M129.007 283.254V282.254H128.62L128.334 282.514L129.007 283.254ZM135.381 283.254L136.305 282.872L136.05 282.254H135.381V283.254ZM117.487 293.734L116.814 292.994L114.902 294.734H117.487V293.734ZM133.28 293.734V294.734H134.63L134.236 293.442L133.28 293.734ZM134.251 290.15L135.159 290.57V290.57L134.251 290.15ZM205.377 293.734V294.734H205.797L206.091 294.434L205.377 293.734ZM175.15 293.734L174.454 293.016L172.685 294.734H175.15V293.734ZM215.667 283.254L216.381 283.955L218.051 282.254H215.667V283.254ZM203.483 283.254V282.254H200.729L202.842 284.021L203.483 283.254ZM203.796 290.399V291.399H204.277L204.577 291.023L203.796 290.399ZM176.516 290.399V289.399H175.503L175.516 290.411L176.516 290.399ZM129.007 284.254H135.381V282.254H129.007V284.254ZM118.16 294.474L129.68 283.994L128.334 282.514L116.814 292.994L118.16 294.474ZM133.28 292.734H117.487V294.734H133.28V292.734ZM134.236 293.442C134.192 293.296 134.19 293.003 134.366 292.453C134.537 291.919 134.818 291.306 135.159 290.57L133.343 289.731C133.018 290.435 132.678 291.168 132.462 291.843C132.251 292.501 132.096 293.28 132.323 294.026L134.236 293.442ZM135.159 290.57C135.631 289.546 136.2 288.321 136.511 287.039C136.826 285.74 136.897 284.304 136.305 282.872L134.457 283.636C134.835 284.551 134.82 285.525 134.568 286.568C134.311 287.628 133.83 288.676 133.343 289.731L135.159 290.57ZM205.377 292.734H175.15V294.734H205.377V292.734ZM214.954 282.553L204.664 293.033L206.091 294.434L216.381 283.955L214.954 282.553ZM203.483 284.254H215.667V282.254H203.483V284.254ZM202.842 284.021C203.717 284.753 204.227 285.546 204.329 286.395C204.43 287.233 204.159 288.344 203.015 289.774L204.577 291.023C205.935 289.326 206.5 287.693 206.315 286.156C206.131 284.629 205.233 283.413 204.125 282.487L202.842 284.021ZM203.796 289.399H176.516V291.399H203.796V289.399ZM175.516 290.411C175.529 291.426 175.12 292.369 174.454 293.016L175.847 294.451C176.909 293.42 177.536 291.948 177.516 290.386L175.516 290.411Z" fill="black"/>
<path fill-rule="evenodd" clip-rule="evenodd" d="M72.1605 246.319C70.8989 245.946 69.5453 245.697 68.0773 245.594C68.0773 245.594 45.4273 248.304 46.7373 264.724C46.8973 266.624 47.0273 268.274 47.1373 269.724C47.2108 270.572 47.469 271.393 47.8939 272.131C48.3187 272.868 48.8999 273.504 49.5966 273.992C50.2933 274.481 51.0885 274.812 51.9265 274.961C52.7645 275.109 53.625 275.073 54.4473 274.854C58.3771 273.853 62.4701 273.666 66.4745 274.306C70.4789 274.946 74.31 276.399 77.7319 278.575C81.1539 280.751 84.0943 283.604 86.3722 286.96C88.6501 290.315 90.2173 294.1 90.9773 298.084H214.537C214.537 298.084 221.847 276.304 221.097 263.304C220.347 250.304 216.957 226.424 211.897 218.934C206.657 223.614 207.997 234.394 210.617 239.444C213.237 244.494 218.847 283.614 205.377 293.724H175.161C174.422 294.446 173.427 294.898 172.296 294.898C170.19 294.898 166.902 295.056 163.096 295.239L163.095 295.239H163.095H163.095C153.343 295.706 140.19 296.337 134.796 294.898C133.888 294.656 133.434 294.253 133.277 293.724H117.537C115.265 290.956 113.772 287.633 113.211 284.097C112.756 281.23 112.928 278.308 113.704 275.528C103.644 273.808 96.4249 269.194 91.4199 263.338C89.9985 263.785 88.4859 264.025 86.917 264.025C78.6327 264.025 71.917 257.31 71.917 249.025C71.917 248.101 72.0005 247.197 72.1605 246.319Z" fill="#FAC021"/>
<path d="M72.1605 246.319L73.1443 246.498C73.2359 245.996 72.9339 245.505 72.444 245.36L72.1605 246.319ZM68.0773 245.594L68.1474 244.596C68.0844 244.592 68.0212 244.593 67.9585 244.601L68.0773 245.594ZM46.7373 264.724L45.7405 264.803L45.7409 264.808L46.7373 264.724ZM47.1373 269.724L46.1401 269.799L46.1411 269.81L47.1373 269.724ZM47.8939 272.131L47.0274 272.63L47.0274 272.63L47.8939 272.131ZM49.5966 273.992L50.171 273.174L49.5966 273.992ZM51.9265 274.961L51.7517 275.945L51.9265 274.961ZM54.4473 274.854L54.2005 273.884L54.1897 273.887L54.4473 274.854ZM77.7319 278.575L78.2685 277.731L77.7319 278.575ZM86.3722 286.96L87.1995 286.398L86.3722 286.96ZM90.9773 298.084L89.9951 298.271C90.085 298.743 90.4973 299.084 90.9773 299.084V298.084ZM214.537 298.084V299.084C214.967 299.084 215.349 298.809 215.485 298.402L214.537 298.084ZM211.897 218.934L212.726 218.374C212.564 218.135 212.307 217.977 212.021 217.941C211.734 217.906 211.446 217.995 211.231 218.188L211.897 218.934ZM210.617 239.444L209.73 239.904L210.617 239.444ZM205.377 293.724V294.724C205.594 294.724 205.804 294.653 205.978 294.523L205.377 293.724ZM175.161 293.724V292.724C174.899 292.724 174.649 292.826 174.462 293.009L175.161 293.724ZM163.096 295.239L163.048 294.24L163.04 294.24L163.096 295.239ZM163.095 295.239V296.239C163.114 296.239 163.132 296.238 163.151 296.237L163.095 295.239ZM163.095 295.239V294.239C163.079 294.239 163.063 294.239 163.047 294.24L163.095 295.239ZM134.796 294.898L134.538 295.865H134.538L134.796 294.898ZM133.277 293.724L134.235 293.439C134.109 293.015 133.719 292.724 133.277 292.724V293.724ZM117.537 293.724L116.764 294.358C116.954 294.59 117.238 294.724 117.537 294.724V293.724ZM113.211 284.097L114.199 283.94L113.211 284.097ZM113.704 275.528L114.667 275.797C114.743 275.524 114.7 275.232 114.549 274.993C114.397 274.754 114.152 274.59 113.873 274.542L113.704 275.528ZM91.4199 263.338L92.1801 262.688C91.9197 262.383 91.5025 262.264 91.1201 262.384L91.4199 263.338ZM72.444 245.36C71.1111 244.966 69.6859 244.704 68.1474 244.596L68.0073 246.591C69.4047 246.689 70.6866 246.926 71.8769 247.278L72.444 245.36ZM68.0773 245.594C67.9585 244.601 67.9581 244.601 67.9576 244.601C67.9573 244.601 67.9567 244.601 67.9561 244.601C67.9549 244.601 67.9534 244.601 67.9516 244.602C67.9479 244.602 67.9428 244.603 67.9364 244.603C67.9236 244.605 67.9054 244.607 67.882 244.61C67.8353 244.617 67.7677 244.626 67.6807 244.638C67.5067 244.663 67.255 244.702 66.937 244.757C66.3013 244.866 65.3993 245.04 64.3228 245.302C62.1745 245.823 59.3082 246.697 56.4714 248.105C50.8158 250.913 45.0377 255.995 45.7405 264.803L47.7342 264.644C47.1269 257.033 52.0188 252.549 57.3608 249.897C60.0227 248.575 62.737 247.745 64.7947 247.245C65.8212 246.996 66.6784 246.831 67.2763 246.728C67.5751 246.676 67.8087 246.64 67.9659 246.618C68.0445 246.606 68.1039 246.598 68.1427 246.593C68.1622 246.591 68.1764 246.589 68.1854 246.588C68.1899 246.587 68.193 246.587 68.1948 246.587C68.1957 246.587 68.1963 246.586 68.1965 246.586C68.1966 246.586 68.1965 246.586 68.1966 246.586C68.1964 246.586 68.1961 246.587 68.0773 245.594ZM45.7409 264.808C45.9006 266.704 46.0304 268.352 46.1402 269.799L48.1345 269.648C48.0243 268.196 47.8941 266.543 47.7338 264.64L45.7409 264.808ZM46.1411 269.81C46.2271 270.803 46.5297 271.766 47.0274 272.63L48.7604 271.631C48.4084 271.02 48.1945 270.34 48.1336 269.637L46.1411 269.81ZM47.0274 272.63C47.5251 273.494 48.206 274.238 49.0222 274.811L50.171 273.174C49.5939 272.769 49.1124 272.242 48.7604 271.631L47.0274 272.63ZM49.0222 274.811C49.8383 275.384 50.77 275.771 51.7517 275.945L52.1013 273.976C51.4071 273.853 50.7482 273.579 50.171 273.174L49.0222 274.811ZM51.7517 275.945C52.7335 276.119 53.7415 276.077 54.7049 275.82L54.1897 273.887C53.5084 274.069 52.7956 274.099 52.1013 273.976L51.7517 275.945ZM54.6942 275.823C58.4917 274.855 62.447 274.675 66.3167 275.294L66.6323 273.319C62.4932 272.657 58.2624 272.85 54.2005 273.885L54.6942 275.823ZM66.3167 275.294C70.1864 275.912 73.8885 277.316 77.1953 279.419L78.2685 277.731C74.7314 275.482 70.7715 273.98 66.6323 273.319L66.3167 275.294ZM77.1953 279.419C80.5021 281.522 83.3436 284.279 85.5449 287.521L87.1995 286.398C84.845 282.93 81.8056 279.981 78.2685 277.731L77.1953 279.419ZM85.5449 287.521C87.7461 290.763 89.2606 294.422 89.9951 298.271L91.9596 297.896C91.174 293.779 89.5541 289.866 87.1995 286.398L85.5449 287.521ZM90.9773 299.084H214.537V297.084H90.9773V299.084ZM214.537 298.084C215.485 298.402 215.485 298.402 215.486 298.401C215.486 298.401 215.486 298.401 215.486 298.4C215.486 298.4 215.486 298.398 215.487 298.397C215.488 298.394 215.489 298.39 215.491 298.384C215.495 298.373 215.5 298.357 215.507 298.336C215.522 298.293 215.542 298.23 215.569 298.147C215.624 297.982 215.702 297.74 215.803 297.427C216.003 296.801 216.287 295.893 216.626 294.765C217.303 292.508 218.198 289.362 219.07 285.807C220.805 278.729 222.48 269.908 222.096 263.246L220.099 263.361C220.465 269.699 218.859 278.268 217.127 285.33C216.265 288.845 215.38 291.957 214.71 294.19C214.375 295.306 214.094 296.202 213.897 296.818C213.799 297.126 213.722 297.364 213.669 297.524C213.643 297.604 213.623 297.665 213.609 297.706C213.602 297.726 213.597 297.741 213.594 297.751C213.592 297.756 213.591 297.76 213.59 297.762C213.59 297.763 213.59 297.764 213.589 297.765C213.589 297.765 213.589 297.765 213.589 297.765C213.589 297.765 213.589 297.765 214.537 298.084ZM222.096 263.246C221.718 256.705 220.678 247.444 219.097 238.871C218.306 234.584 217.377 230.453 216.322 226.913C215.274 223.393 214.079 220.376 212.726 218.374L211.069 219.493C212.246 221.236 213.372 224.013 214.406 227.484C215.433 230.933 216.347 234.989 217.13 239.234C218.696 247.723 219.726 256.902 220.099 263.361L222.096 263.246ZM211.231 218.188C208.298 220.808 207.302 225.025 207.31 229.052C207.318 233.102 208.337 237.22 209.73 239.904L211.505 238.983C210.277 236.617 209.317 232.82 209.31 229.048C209.303 225.252 210.257 221.74 212.563 219.679L211.231 218.188ZM209.73 239.904C209.996 240.418 210.348 241.478 210.725 243.045C211.094 244.584 211.471 246.536 211.809 248.783C212.487 253.276 213.008 258.906 213.031 264.69C213.054 270.48 212.577 276.383 211.279 281.439C209.975 286.516 207.879 290.596 204.777 292.924L205.978 294.523C209.611 291.796 211.865 287.195 213.216 281.936C214.572 276.655 215.054 270.567 215.031 264.682C215.008 258.791 214.477 253.063 213.787 248.485C213.442 246.195 213.055 244.184 212.669 242.578C212.29 240.999 211.893 239.731 211.505 238.983L209.73 239.904ZM205.377 292.724H175.161V294.724H205.377V292.724ZM174.462 293.009C173.897 293.561 173.149 293.898 172.296 293.898V295.898C173.705 295.898 174.946 295.332 175.86 294.439L174.462 293.009ZM172.296 293.898C170.16 293.898 166.842 294.058 163.048 294.24L163.144 296.237C166.962 296.054 170.22 295.898 172.296 295.898V293.898ZM163.04 294.24L163.04 294.24L163.151 296.237L163.151 296.237L163.04 294.24ZM163.095 294.239H163.095V296.239H163.095V294.239ZM163.095 294.239H163.095V296.239H163.095V294.239ZM163.047 294.24C158.167 294.474 152.462 294.747 147.304 294.783C142.106 294.82 137.601 294.612 135.053 293.932L134.538 295.865C137.384 296.624 142.153 296.819 147.318 296.783C152.524 296.747 158.271 296.471 163.143 296.237L163.047 294.24ZM135.053 293.932C134.686 293.834 134.485 293.723 134.379 293.638C134.287 293.564 134.254 293.502 134.235 293.439L132.318 294.008C132.613 295 133.448 295.574 134.538 295.865L135.053 293.932ZM133.277 292.724H117.537V294.724H133.277V292.724ZM118.31 293.089C116.151 290.459 114.731 287.301 114.199 283.94L112.223 284.253C112.812 287.965 114.379 291.453 116.764 294.358L118.31 293.089ZM114.199 283.94C113.767 281.216 113.93 278.439 114.667 275.797L112.741 275.259C111.926 278.177 111.746 281.245 112.223 284.253L114.199 283.94ZM113.873 274.542C104.045 272.862 97.0344 268.368 92.1801 262.688L90.6598 263.987C95.8154 270.02 103.243 274.754 113.536 276.514L113.873 274.542ZM91.1201 262.384C89.7946 262.8 88.383 263.025 86.917 263.025V265.025C88.5888 265.025 90.2025 264.769 91.7198 264.292L91.1201 262.384ZM86.917 263.025C79.185 263.025 72.917 256.757 72.917 249.025H70.917C70.917 257.862 78.0804 265.025 86.917 265.025V263.025ZM72.917 249.025C72.917 248.162 72.9951 247.317 73.1443 246.498L71.1767 246.14C71.006 247.077 70.917 248.041 70.917 249.025H72.917Z" fill="black"/>
<path d="M83.6878 282.414H41.5778C38.2033 282.414 35.4678 285.147 35.4678 288.519C35.4678 291.891 38.2033 294.624 41.5778 294.624H83.6878C87.0622 294.624 89.7978 291.891 89.7978 288.519C89.7978 285.147 87.0622 282.414 83.6878 282.414Z" fill="#C2C2C3" stroke="black" stroke-width="2" stroke-miterlimit="10"/>
<path d="M235.108 274.084L244.188 292.514L248.868 291.584L241.198 271.084L235.108 274.084Z" fill="#C2C2C3" stroke="black" stroke-width="2" stroke-miterlimit="10"/>
<path d="M264.818 292.234C264.815 291.29 264.439 290.387 263.772 289.719C263.105 289.052 262.201 288.676 261.258 288.674C260.698 288.677 260.147 288.811 259.648 289.064L245.128 292.894L246.718 300.004L261.358 295.784C262.284 295.76 263.164 295.376 263.81 294.713C264.457 294.05 264.818 293.16 264.818 292.234Z" fill="#757576" stroke="black" stroke-width="2" stroke-miterlimit="10" stroke-linejoin="round"/>
<path d="M249.307 206.018C249.329 205.311 249.069 204.625 248.586 204.109C248.102 203.594 247.434 203.291 246.727 203.268C246.307 203.252 245.888 203.337 245.507 203.518L229.067 206.917L230.067 212.297L246.657 208.597C247.347 208.593 248.008 208.322 248.501 207.841C248.995 207.36 249.284 206.706 249.307 206.018Z" fill="#6C5952" stroke="black" stroke-width="2" stroke-miterlimit="10"/>
<path d="M246.098 299.914C248.064 299.914 249.658 298.32 249.658 296.354C249.658 294.388 248.064 292.794 246.098 292.794C244.132 292.794 242.538 294.388 242.538 296.354C242.538 298.32 244.132 299.914 246.098 299.914Z" fill="#757576" stroke="black" stroke-width="2" stroke-miterlimit="10"/>
<path d="M211.897 218.944C211.897 218.944 224.737 214.544 231.367 216.324C237.817 218.054 239.227 221.194 241.287 225.874C243.347 230.554 250.487 252.934 250.487 252.934L223.067 297.574L214.637 298.134C214.637 298.134 219.417 274.264 218.847 263.034C218.277 251.804 216.067 240.374 211.897 218.944Z" fill="#FAC021" stroke="black" stroke-width="2" stroke-linecap="round" stroke-linejoin="round"/>
<path d="M241.307 212.184C241.307 220.514 230.567 230.354 220.367 230.354C210.167 230.354 202.817 222.354 202.817 214.034C202.817 205.714 212.627 197.104 222.817 197.104C233.007 197.104 241.307 203.854 241.307 212.184Z" fill="#FAC021" stroke="black" stroke-width="2" stroke-miterlimit="10"/>
<path d="M263.967 267.784C264.967 267.784 265.877 267.784 266.827 267.904C263.112 262.658 257.561 258.999 251.275 257.654C244.989 256.308 238.427 257.374 232.89 260.639C227.353 263.905 223.245 269.132 221.381 275.285C219.517 281.437 220.033 288.065 222.827 293.854C223.115 294.432 223.569 294.911 224.13 295.229C224.691 295.548 225.335 295.692 225.978 295.644C226.622 295.596 227.236 295.357 227.744 294.958C228.251 294.559 228.628 294.018 228.827 293.404C231.23 285.971 235.924 279.489 242.236 274.887C248.548 270.285 256.155 267.798 263.967 267.784Z" fill="#FAC021" stroke="black" stroke-width="2" stroke-linecap="round" stroke-linejoin="round"/>
<path d="M266.407 268.044L274.647 264.194C271.857 260.872 268.363 258.214 264.417 256.412C260.472 254.609 256.174 253.708 251.837 253.774C238.087 254.194 232.637 259.774 231.237 261.174C231.927 261.124 239.767 257.004 243.977 257.174C253.817 257.624 260.897 260.744 266.407 268.044Z" fill="#FAC021" stroke="black" stroke-width="2" stroke-linejoin="round"/>
<path d="M226.678 225.514C234.752 225.514 241.298 218.758 241.298 210.424C241.298 202.09 234.752 195.334 226.678 195.334C218.603 195.334 212.058 202.09 212.058 210.424C212.058 218.758 218.603 225.514 226.678 225.514Z" fill="#FBD058" stroke="black" stroke-width="2" stroke-miterlimit="10"/>
<path d="M228.338 220.274C232.784 220.274 236.388 215.519 236.388 209.654C236.388 203.789 231.784 199.034 227.338 199.034C222.892 199.034 219.288 203.789 219.288 209.654C219.288 215.519 223.892 220.274 228.338 220.274Z" fill="#EFEAE5" stroke="black" stroke-width="2" stroke-miterlimit="10"/>
<rect x="227.362" y="205.268" width="4.10352" height="6.75812" rx="2.05176" transform="rotate(-19.2522 227.362 205.268)" fill="white"/>
<path d="M96.2878 298.305C97.6045 293.025 97.1883 287.458 95.0378 282.358C92.3574 276.002 87.1874 270.859 80.5961 267.992C74.0048 265.124 66.496 264.751 59.6214 266.951C57.2418 267.712 55.001 268.761 52.9482 270.059" stroke="black" stroke-width="2" stroke-linecap="round" stroke-linejoin="round"/>
<path d="M54.7272 266.054H45.4672C43.9153 266.054 42.6572 267.312 42.6572 268.864C42.6572 270.416 43.9153 271.674 45.4672 271.674H54.7272C56.2792 271.674 57.5372 270.416 57.5372 268.864C57.5372 267.312 56.2792 266.054 54.7272 266.054Z" fill="#F37032" stroke="black" stroke-width="2" stroke-miterlimit="10"/>
<path d="M225.542 258.235C227.04 257.985 227.848 255.349 227.347 252.347C226.846 249.346 225.225 247.115 223.727 247.365C222.229 247.616 221.421 250.252 221.922 253.253C222.423 256.255 224.044 258.485 225.542 258.235Z" fill="#F37032" stroke="black" stroke-width="2" stroke-miterlimit="10"/>
<path d="M244.667 249.389C245.87 248.989 246.065 246.323 245.104 243.436C244.142 240.549 242.387 238.533 241.185 238.934C239.982 239.334 239.786 242 240.748 244.887C241.71 247.774 243.464 249.79 244.667 249.389Z" fill="#F37032" stroke="black" stroke-width="2" stroke-miterlimit="10"/>
<path d="M204.003 208.65L197.798 209.49C197.798 209.49 198.158 212.385 197.812 214.215C197.465 216.045 196.025 218.863 196.025 218.863L203.364 217.705C202.264 213.112 202.827 210.924 204.003 208.65Z" fill="#757576" stroke="black" stroke-width="2" stroke-linecap="round" stroke-linejoin="round"/>
<path fill-rule="evenodd" clip-rule="evenodd" d="M73.2467 242.842L59.7232 242.649C58.1606 242.524 54.3854 242.611 51.7854 243.961C49.1854 245.311 49.788 247.148 51.4729 247.836H71.9635C72.1022 246.067 72.5476 244.385 73.2467 242.842ZM90.6037 263.569C91.9615 264.694 93.3394 265.754 94.714 266.707C93.523 265.643 92.4267 264.516 91.4199 263.338C91.1511 263.422 90.8789 263.499 90.6037 263.569Z" fill="#A98163"/>
<path d="M59.7232 242.649L59.6435 243.645C59.6653 243.647 59.6871 243.648 59.7089 243.648L59.7232 242.649ZM73.2467 242.842L74.1576 243.255C74.2967 242.948 74.2717 242.591 74.091 242.306C73.9102 242.022 73.5982 241.847 73.261 241.842L73.2467 242.842ZM51.7854 243.961L51.3246 243.074V243.074L51.7854 243.961ZM51.4729 247.836L51.0951 248.762C51.215 248.811 51.3434 248.836 51.4729 248.836V247.836ZM71.9635 247.836V248.836C72.4854 248.836 72.9196 248.435 72.9604 247.914L71.9635 247.836ZM94.714 266.707L94.144 267.529C94.5782 267.83 95.1719 267.742 95.4991 267.327C95.8264 266.912 95.7743 266.314 95.3802 265.962L94.714 266.707ZM90.6037 263.569L90.3587 262.599C89.9936 262.692 89.7113 262.981 89.6283 263.349C89.5453 263.716 89.6757 264.099 89.9657 264.339L90.6037 263.569ZM91.4199 263.338L92.1801 262.688C91.9197 262.383 91.5025 262.264 91.1201 262.384L91.4199 263.338ZM59.7089 243.648L73.2324 243.842L73.261 241.842L59.7375 241.649L59.7089 243.648ZM52.2462 244.849C53.3955 244.252 54.8556 243.913 56.262 243.745C57.6597 243.578 58.9276 243.588 59.6435 243.645L59.803 241.652C58.9562 241.584 57.5553 241.576 56.0247 241.759C54.5028 241.941 52.7753 242.32 51.3246 243.074L52.2462 244.849ZM51.8508 246.91C51.2102 246.649 51.0303 246.278 51.0211 246.096C51.0139 245.956 51.0957 245.446 52.2462 244.849L51.3246 243.074C49.8751 243.826 48.9582 244.91 49.0236 246.198C49.0869 247.444 50.0508 248.336 51.0951 248.762L51.8508 246.91ZM71.9635 246.836H51.4729V248.836H71.9635V246.836ZM72.9604 247.914C73.0899 246.263 73.5055 244.694 74.1576 243.255L72.3358 242.429C71.5898 244.076 71.1145 245.872 70.9665 247.758L72.9604 247.914ZM95.2839 265.886C93.9368 264.951 92.5817 263.909 91.2418 262.799L89.9657 264.339C91.3414 265.479 92.7421 266.556 94.144 267.529L95.2839 265.886ZM95.3802 265.962C94.2237 264.928 93.1586 263.833 92.1801 262.688L90.6598 263.987C91.6947 265.198 92.8223 266.358 94.0477 267.453L95.3802 265.962ZM91.1201 262.384C90.8693 262.463 90.6154 262.535 90.3587 262.599L90.8487 264.538C91.1424 264.464 91.4328 264.382 91.7198 264.292L91.1201 262.384Z" fill="black"/>
</svg>
