<svg width="252" height="138" viewBox="0 0 252 138" fill="none" xmlns="http://www.w3.org/2000/svg">
<ellipse cx="128.331" cy="125.306" rx="117.835" ry="12.5" fill="black" fill-opacity="0.5"/>
<g style="mix-blend-mode:multiply">
<path d="M16.2543 66.9369C17.1135 63.6337 15.8645 60.4499 13.4646 59.8256C11.0647 59.2014 8.4227 61.3732 7.56351 64.6764C6.70432 67.9796 7.95331 71.1634 10.3532 71.7876C12.7531 72.4119 15.3951 70.2401 16.2543 66.9369Z" fill="#CE1919"/>
<path d="M16.2543 66.9369C17.1135 63.6337 15.8645 60.4499 13.4646 59.8256C11.0647 59.2014 8.4227 61.3732 7.56351 64.6764C6.70432 67.9796 7.95331 71.1634 10.3532 71.7876C12.7531 72.4119 15.3951 70.2401 16.2543 66.9369Z" stroke="black" stroke-width="2" stroke-miterlimit="10"/>
</g>
<path d="M215.406 78.4962L222.576 96.9262L227.256 95.9962L221.486 75.4962L215.406 78.4962Z" fill="#C2C2C3" stroke="black" stroke-width="2" stroke-miterlimit="10"/>
<path d="M222.166 69.2565C206.706 69.2565 194.166 82.0265 194.166 97.7865C194.166 113.546 206.706 126.306 222.166 126.306C237.626 126.306 250.166 113.536 250.166 97.7865C250.166 82.0365 237.636 69.2565 222.166 69.2565ZM222.166 114.476C218.85 114.538 215.591 113.611 212.804 111.813C210.017 110.016 207.828 107.429 206.517 104.383C205.206 101.337 204.831 97.9689 205.441 94.709C206.05 91.449 207.617 88.4445 209.941 86.0782C212.264 83.712 215.24 82.0912 218.488 81.4224C221.737 80.7536 225.111 81.0672 228.18 82.3231C231.25 83.579 233.876 85.7204 235.723 88.4743C237.571 91.2282 238.557 94.47 238.556 97.7865C238.576 99.9586 238.168 102.113 237.355 104.128C236.542 106.142 235.34 107.976 233.818 109.526C232.296 111.076 230.484 112.311 228.484 113.16C226.485 114.01 224.338 114.457 222.166 114.476Z" fill="#91837D" stroke="black" stroke-width="2" stroke-miterlimit="10"/>
<path d="M217.917 74.5664C212.807 74.4731 207.784 75.9033 203.49 78.6747C199.195 81.4462 195.823 85.4334 193.803 90.1284C191.783 94.8234 191.206 100.013 192.146 105.037C193.087 110.061 195.501 114.692 199.083 118.338C202.664 121.985 207.25 124.483 212.256 125.513C217.262 126.544 222.462 126.061 227.193 124.126C231.923 122.191 235.971 118.891 238.819 114.647C241.668 110.403 243.188 105.408 243.187 100.296C243.217 96.9477 242.588 93.6257 241.334 90.5203C240.081 87.4149 238.228 84.5868 235.881 82.1975C233.535 79.8083 230.74 77.9046 227.658 76.5952C224.576 75.2859 221.266 74.5965 217.917 74.5664ZM217.917 115.356C214.928 115.41 211.99 114.573 209.478 112.951C206.966 111.329 204.994 108.996 203.812 106.249C202.631 103.502 202.294 100.466 202.844 97.5274C203.395 94.5884 204.807 91.8798 206.902 89.7466C208.997 87.6133 211.68 86.1519 214.608 85.5486C217.537 84.9453 220.579 85.2274 223.346 86.3588C226.114 87.4903 228.482 89.42 230.149 91.9022C231.816 94.3843 232.707 97.3064 232.707 100.296C232.726 102.257 232.358 104.201 231.624 106.019C230.891 107.837 229.806 109.493 228.433 110.891C227.059 112.29 225.424 113.404 223.619 114.17C221.815 114.936 219.877 115.339 217.917 115.356Z" fill="#6C5952" stroke="black" stroke-width="2" stroke-miterlimit="10"/>
<path d="M40.957 69.2565C25.497 69.2565 12.957 82.0265 12.957 97.7865C12.957 113.546 25.497 126.306 40.957 126.306C56.417 126.306 68.957 113.536 68.957 97.7865C68.957 82.0365 56.477 69.2565 40.957 69.2565ZM40.957 114.476C37.6411 114.538 34.382 113.611 31.595 111.813C28.808 110.016 26.6194 107.429 25.308 104.383C23.9967 101.337 23.622 97.9689 24.2317 94.709C24.8415 91.449 26.408 88.4445 28.7318 86.0782C31.0555 83.712 34.0311 82.0912 37.2794 81.4224C40.5278 80.7536 43.9017 81.0672 46.9711 82.3231C50.0406 83.579 52.6666 85.7204 54.5145 88.4743C56.3624 91.2282 57.3484 94.47 57.347 97.7865C57.3668 99.9586 56.9586 102.113 56.1456 104.128C55.3326 106.142 54.1308 107.976 52.6089 109.526C51.0869 111.076 49.2745 112.311 47.2753 113.16C45.2761 114.01 43.1291 114.457 40.957 114.476Z" fill="#91837D" stroke="black" stroke-width="2" stroke-miterlimit="10"/>
<path d="M36.7061 74.5664C31.5958 74.4731 26.5734 75.9033 22.2789 78.6747C17.9844 81.4462 14.6122 85.4334 12.592 90.1284C10.5718 94.8234 9.99515 100.013 10.9354 105.037C11.8757 110.061 14.2904 114.692 17.8718 118.338C21.4531 121.985 26.0391 124.483 31.0452 125.513C36.0514 126.544 41.251 126.061 45.9817 124.126C50.7123 122.191 54.7597 118.891 57.6082 114.647C60.4567 110.403 61.9772 105.408 61.9761 100.296C62.0064 96.9477 61.3769 93.6257 60.1233 90.5203C58.8698 87.4149 57.0168 84.5868 54.6703 82.1975C52.3237 79.8083 49.5295 77.9046 46.4472 76.5952C43.3649 75.2859 40.0548 74.5965 36.7061 74.5664ZM36.7061 115.356C33.7158 115.414 30.7761 114.58 28.2617 112.961C25.7472 111.341 23.7719 109.01 22.5874 106.263C21.403 103.517 21.0631 100.48 21.611 97.5402C22.1589 94.6 23.5699 91.8895 25.6641 89.7542C27.7582 87.6189 30.4408 86.1555 33.3698 85.5505C36.2987 84.9455 39.3415 85.2264 42.1103 86.3572C44.8791 87.488 47.2485 89.4177 48.9165 91.9002C50.5845 94.3827 51.4756 97.3056 51.4761 100.296C51.5134 104.252 49.9785 108.06 47.2089 110.884C44.4392 113.708 40.6614 115.317 36.7061 115.356Z" fill="#6C5952" stroke="black" stroke-width="2" stroke-miterlimit="10"/>
<path d="M92.8207 94.6564H33.5894C30.4669 94.6564 27.9355 97.3897 27.9355 100.761C27.9355 104.133 30.4669 106.866 33.5894 106.866H92.8207C95.9433 106.866 98.4746 104.133 98.4746 100.761C98.4746 97.3897 95.9433 94.6564 92.8207 94.6564Z" fill="#757576" stroke="black" stroke-width="2" stroke-miterlimit="10"/>
<path fill-rule="evenodd" clip-rule="evenodd" d="M38.1819 51.6212H34.0957L37.8597 55.1101C37.8569 54.9898 37.8555 54.8692 37.8555 54.7482C37.8555 53.6759 37.968 52.6298 38.1819 51.6212ZM53.6311 69.7285L72.8867 87.5764L83.0367 99.4564L94.9267 88.9764C94.9267 88.9764 93.4499 87.237 93.3918 83.7251C90.6118 82.8887 86.9692 82.1702 82.2341 81.6212C70.8087 80.2965 62.7831 75.4074 57.3584 69.0605C56.1727 69.4332 54.9235 69.6626 53.6311 69.7285Z" fill="#FAC021"/>
<path d="M34.0957 51.6212V50.6212H31.5458L33.4159 52.3546L34.0957 51.6212ZM38.1819 51.6212L39.1601 51.8287L39.4162 50.6212H38.1819V51.6212ZM37.8597 55.1101L37.18 55.8435L38.9155 57.4521L38.8595 55.0864L37.8597 55.1101ZM72.8867 87.5764L73.647 86.9268L73.6092 86.8825L73.5665 86.8429L72.8867 87.5764ZM53.6311 69.7285L53.5803 68.7298L51.2127 68.8504L52.9513 70.4619L53.6311 69.7285ZM83.0367 99.4564L82.2764 100.106L82.9361 100.878L83.6979 100.207L83.0367 99.4564ZM94.9267 88.9764L95.588 89.7266L96.3244 89.0775L95.689 88.3292L94.9267 88.9764ZM93.3918 83.7251L94.3917 83.7086L94.3796 82.978L93.6799 82.7675L93.3918 83.7251ZM82.2341 81.6212L82.3493 80.6279L82.3493 80.6279L82.2341 81.6212ZM57.3584 69.0605L58.1186 68.4108L57.6891 67.9084L57.0586 68.1066L57.3584 69.0605ZM34.0957 52.6212H38.1819V50.6212H34.0957V52.6212ZM38.5395 54.3767L34.7755 50.8878L33.4159 52.3546L37.18 55.8435L38.5395 54.3767ZM38.8595 55.0864C38.8568 54.974 38.8555 54.8613 38.8555 54.7482H36.8555C36.8555 54.877 36.857 55.0056 36.86 55.1338L38.8595 55.0864ZM38.8555 54.7482C38.8555 53.746 38.9606 52.7695 39.1601 51.8287L37.2036 51.4138C36.9754 52.4902 36.8555 53.6057 36.8555 54.7482H38.8555ZM73.5665 86.8429L54.3109 68.9951L52.9513 70.4619L72.2069 88.3098L73.5665 86.8429ZM83.797 98.8068L73.647 86.9268L72.1264 88.2259L82.2764 100.106L83.797 98.8068ZM94.2655 88.2262L82.3755 98.7062L83.6979 100.207L95.588 89.7266L94.2655 88.2262ZM92.392 83.7416C92.4233 85.6386 92.8389 87.0798 93.2627 88.0634C93.474 88.554 93.6866 88.9289 93.8526 89.1884C93.9356 89.3182 94.007 89.4193 94.0609 89.4918C94.0879 89.528 94.1105 89.5571 94.1279 89.579C94.1367 89.59 94.1442 89.5992 94.1503 89.6067C94.1533 89.6104 94.1561 89.6136 94.1584 89.6165C94.1596 89.6179 94.1607 89.6192 94.1617 89.6204C94.1622 89.621 94.1627 89.6215 94.1631 89.6221C94.1634 89.6223 94.1637 89.6227 94.1638 89.6229C94.1641 89.6232 94.1644 89.6236 94.9267 88.9764C95.689 88.3292 95.6893 88.3295 95.6896 88.3299C95.6897 88.33 95.69 88.3303 95.6902 88.3305C95.6906 88.331 95.6909 88.3314 95.6912 88.3318C95.6919 88.3325 95.6924 88.3332 95.6929 88.3338C95.6938 88.3349 95.6944 88.3356 95.6947 88.3359C95.6952 88.3365 95.6944 88.3356 95.6923 88.3329C95.6881 88.3277 95.679 88.316 95.6654 88.2978C95.6383 88.2614 95.5939 88.1991 95.5375 88.111C95.4248 87.9347 95.2645 87.6552 95.0994 87.272C94.7703 86.5079 94.4184 85.3235 94.3917 83.7086L92.392 83.7416ZM93.6799 82.7675C90.8254 81.9087 87.1207 81.1811 82.3493 80.6279L82.119 82.6146C86.8177 83.1594 90.3982 83.8688 93.1038 84.6827L93.6799 82.7675ZM82.3493 80.6279C71.1718 79.3319 63.3776 74.5639 58.1186 68.4108L56.5983 69.7103C62.1886 76.251 70.4455 81.2611 82.119 82.6146L82.3493 80.6279ZM57.0586 68.1066C55.9527 68.4541 54.7872 68.6683 53.5803 68.7298L53.682 70.7272C55.0598 70.657 56.3927 70.4123 57.6583 70.0145L57.0586 68.1066Z" fill="black"/>
<path fill-rule="evenodd" clip-rule="evenodd" d="M101.32 88.9764H94.9458L83.4258 99.4564H99.2183C98.9464 98.5647 99.5243 97.313 100.189 95.8729C101.149 93.7949 102.289 91.3244 101.32 88.9764ZM141.089 99.4564H171.316L181.606 88.9764H169.422C171.405 90.6352 172.237 92.9931 169.734 96.1212H142.455C142.471 97.4096 141.953 98.6172 141.089 99.4564Z" fill="#3A3A3A"/>
<path d="M94.9458 88.9764V87.9764H94.559L94.2728 88.2367L94.9458 88.9764ZM101.32 88.9764L102.244 88.5947L101.989 87.9764H101.32V88.9764ZM83.4258 99.4564L82.7529 98.7167L80.8405 100.456H83.4258V99.4564ZM99.2183 99.4564V100.456H100.569L100.175 99.1648L99.2183 99.4564ZM100.189 95.8729L101.097 96.2921L101.097 96.2921L100.189 95.8729ZM171.316 99.4564V100.456H171.735L172.029 100.157L171.316 99.4564ZM141.089 99.4564L140.392 98.739L138.624 100.456H141.089V99.4564ZM181.606 88.9764L182.319 89.6771L183.989 87.9764H181.606V88.9764ZM169.422 88.9764V87.9764H166.667L168.78 89.7436L169.422 88.9764ZM169.734 96.1212V97.1212H170.215L170.515 96.7459L169.734 96.1212ZM142.455 96.1212V95.1212H141.442L141.455 96.1339L142.455 96.1212ZM94.9458 89.9764H101.32V87.9764H94.9458V89.9764ZM84.0987 100.196L95.6187 89.7161L94.2728 88.2367L82.7529 98.7167L84.0987 100.196ZM99.2183 98.4564H83.4258V100.456H99.2183V98.4564ZM100.175 99.1648C100.13 99.0182 100.128 98.726 100.305 98.1754C100.476 97.6415 100.757 97.0288 101.097 96.2921L99.2814 95.4537C98.9566 96.1571 98.6163 96.8903 98.4001 97.5652C98.1893 98.2234 98.0345 99.0029 98.2617 99.7481L100.175 99.1648ZM101.097 96.2921C101.57 95.2689 102.139 94.0434 102.45 92.7615C102.765 91.4625 102.835 90.0269 102.244 88.5947L100.395 89.3582C100.774 90.2739 100.759 91.2476 100.506 92.2903C100.249 93.3501 99.7684 94.3989 99.2814 95.4537L101.097 96.2921ZM171.316 98.4564H141.089V100.456H171.316V98.4564ZM180.892 88.2758L170.602 98.7558L172.029 100.157L182.319 89.6771L180.892 88.2758ZM169.422 89.9764H181.606V87.9764H169.422V89.9764ZM168.78 89.7436C169.656 90.4756 170.165 91.2686 170.267 92.1174C170.368 92.9557 170.098 94.0663 168.954 95.4965L170.515 96.7459C171.873 95.0481 172.438 93.4156 172.253 91.8783C172.069 90.3514 171.171 89.136 170.063 88.2093L168.78 89.7436ZM169.734 95.1212H142.455V97.1212H169.734V95.1212ZM141.455 96.1339C141.468 97.1485 141.059 98.0918 140.392 98.739L141.786 100.174C142.847 99.1426 143.474 97.6708 143.455 96.1086L141.455 96.1339Z" fill="black"/>
<path fill-rule="evenodd" clip-rule="evenodd" d="M38.099 52.0419C36.8374 51.6689 35.4838 51.4195 34.0158 51.3164C34.0158 51.3164 11.3658 54.0264 12.6758 70.4464C12.8358 72.3464 12.9658 73.9964 13.0758 75.4464C13.1493 76.2943 13.4075 77.1159 13.8324 77.8533C14.2572 78.5908 14.8384 79.2263 15.5351 79.7152C16.2317 80.2041 17.027 80.5346 17.865 80.6833C18.703 80.8321 19.5634 80.7956 20.3858 80.5764C24.3155 79.5753 28.4086 79.389 32.413 80.0291C36.4174 80.6691 40.2485 82.1218 43.6704 84.2979C47.0923 86.4739 50.0328 89.3273 52.3107 92.6823C54.5886 96.0373 56.1558 99.823 56.9158 103.806H180.476C180.476 103.806 187.786 82.0264 187.036 69.0264C186.286 56.0264 182.896 32.1464 177.836 24.6564C172.596 29.3364 173.936 40.1164 176.556 45.1664C179.176 50.2164 184.786 89.3364 171.316 99.4464H141.099C140.36 100.169 139.365 100.621 138.234 100.621C136.128 100.621 132.841 100.779 129.034 100.961L129.034 100.961H129.033H129.033C119.282 101.429 106.128 102.06 100.734 100.621C99.826 100.379 99.3724 99.9756 99.2152 99.4464H83.4758C81.2035 96.6791 79.7101 93.3559 79.1494 89.8194C78.6949 86.9531 78.8665 84.0307 79.6425 81.2507C69.5822 79.5312 62.3634 74.9163 57.3584 69.0605C55.937 69.5073 54.4244 69.7482 52.8555 69.7482C44.5712 69.7482 37.8555 63.0324 37.8555 54.7482C37.8555 53.8242 37.939 52.9197 38.099 52.0419Z" fill="#FAC021"/>
<path d="M38.099 52.0419L39.0828 52.2212C39.1743 51.7186 38.8724 51.2278 38.3825 51.083L38.099 52.0419ZM34.0158 51.3164L34.0859 50.3188C34.0229 50.3144 33.9597 50.316 33.897 50.3235L34.0158 51.3164ZM12.6758 70.4464L11.679 70.5259L11.6793 70.5303L12.6758 70.4464ZM13.0758 75.4464L12.0786 75.522L12.0795 75.5327L13.0758 75.4464ZM13.8324 77.8533L12.9659 78.3525L12.9659 78.3525L13.8324 77.8533ZM20.3858 80.5764L20.1389 79.6072L20.1282 79.6101L20.3858 80.5764ZM56.9158 103.806L55.9335 103.994C56.0235 104.465 56.4358 104.806 56.9158 104.806V103.806ZM180.476 103.806V104.806C180.905 104.806 181.287 104.532 181.424 104.125L180.476 103.806ZM177.836 24.6564L178.664 24.0966C178.503 23.8574 178.246 23.6997 177.959 23.664C177.673 23.6284 177.385 23.7182 177.17 23.9105L177.836 24.6564ZM176.556 45.1664L175.668 45.6269L175.668 45.6269L176.556 45.1664ZM171.316 99.4464V100.446C171.532 100.446 171.743 100.376 171.916 100.246L171.316 99.4464ZM141.099 99.4464V98.4464C140.838 98.4464 140.587 98.5487 140.4 98.7313L141.099 99.4464ZM129.034 100.961L128.986 99.9625L128.979 99.9629L129.034 100.961ZM129.034 100.961V101.961C129.052 101.961 129.071 101.961 129.089 101.96L129.034 100.961ZM129.033 100.961V99.9614C129.017 99.9614 129.001 99.9618 128.985 99.9626L129.033 100.961ZM100.734 100.621L100.476 101.587L100.476 101.587L100.734 100.621ZM99.2152 99.4464L100.174 99.1618C100.048 98.7374 99.6579 98.4464 99.2152 98.4464V99.4464ZM83.4758 99.4464L82.703 100.081C82.8929 100.312 83.1765 100.446 83.4758 100.446V99.4464ZM79.1494 89.8194L80.1371 89.6628L80.1371 89.6628L79.1494 89.8194ZM79.6425 81.2507L80.6057 81.5195C80.6818 81.2468 80.6388 80.9547 80.4873 80.7155C80.3358 80.4764 80.0901 80.3126 79.811 80.2649L79.6425 81.2507ZM57.3584 69.0605L58.1186 68.4108C57.8582 68.1061 57.441 67.9864 57.0586 68.1066L57.3584 69.0605ZM38.3825 51.083C37.0496 50.6889 35.6244 50.4269 34.0859 50.3188L33.9457 52.3139C35.3432 52.4121 36.6251 52.649 37.8154 53.0009L38.3825 51.083ZM34.0158 51.3164C33.897 50.3235 33.8966 50.3235 33.896 50.3236C33.8958 50.3236 33.8951 50.3237 33.8946 50.3238C33.8934 50.3239 33.8919 50.3241 33.8901 50.3243C33.8864 50.3248 33.8813 50.3254 33.8749 50.3262C33.8621 50.3278 33.8439 50.3301 33.8205 50.3332C33.7737 50.3393 33.7061 50.3485 33.6191 50.361C33.4451 50.3861 33.1934 50.4247 32.8755 50.4794C32.2398 50.5888 31.3378 50.7632 30.2613 51.0246C28.113 51.5462 25.2467 52.4198 22.4099 53.8282C16.7543 56.636 10.9762 61.7173 11.679 70.5259L13.6726 70.3669C13.0654 62.7554 17.9573 58.2717 23.2992 55.6196C25.9612 54.298 28.6755 53.4678 30.7332 52.9681C31.7596 52.7189 32.6169 52.5533 33.2148 52.4504C33.5136 52.399 33.7472 52.3632 33.9044 52.3406C33.9829 52.3293 34.0424 52.3212 34.0812 52.3161C34.1006 52.3136 34.1149 52.3117 34.1239 52.3106C34.1284 52.3101 34.1315 52.3097 34.1333 52.3095C34.1342 52.3093 34.1348 52.3093 34.135 52.3092C34.1351 52.3092 34.135 52.3092 34.135 52.3092C34.1349 52.3093 34.1346 52.3093 34.0158 51.3164ZM11.6793 70.5303C11.8391 72.4271 11.9689 74.0743 12.0787 75.522L14.0729 75.3707C13.9628 73.9184 13.8325 72.2656 13.6723 70.3625L11.6793 70.5303ZM12.0795 75.5327C12.1656 76.5261 12.4681 77.4885 12.9659 78.3525L14.6989 77.3542C14.3469 76.7432 14.1329 76.0625 14.0721 75.3601L12.0795 75.5327ZM12.9659 78.3525C13.4636 79.2165 14.1445 79.961 14.9606 80.5338L16.1095 78.8967C15.5323 78.4916 15.0508 77.9651 14.6989 77.3542L12.9659 78.3525ZM14.9606 80.5338C15.7768 81.1066 16.7085 81.4937 17.6902 81.668L18.0398 79.6987C17.3455 79.5755 16.6867 79.3017 16.1095 78.8967L14.9606 80.5338ZM17.6902 81.668C18.672 81.8422 19.68 81.7995 20.6434 81.5426L20.1282 79.6101C19.4469 79.7917 18.7341 79.822 18.0398 79.6987L17.6902 81.668ZM20.6327 81.5454C24.4302 80.578 28.3855 80.398 32.2552 81.0165L32.5708 79.0416C28.4317 78.38 24.2009 78.5725 20.139 79.6073L20.6327 81.5454ZM32.2552 81.0165C36.1248 81.635 39.827 83.0388 43.1338 85.1417L44.207 83.454C40.6699 81.2047 36.71 79.7031 32.5708 79.0416L32.2552 81.0165ZM43.1338 85.1417C46.4406 87.2445 49.2821 90.0019 51.4833 93.244L53.138 92.1206C50.7834 88.6527 47.7441 85.7033 44.207 83.454L43.1338 85.1417ZM51.4833 93.244C53.6846 96.4861 55.1991 100.144 55.9335 103.994L57.8981 103.619C57.1125 99.5015 55.4925 95.5885 53.138 92.1206L51.4833 93.244ZM56.9158 104.806H180.476V102.806H56.9158V104.806ZM180.476 103.806C181.424 104.125 181.424 104.124 181.424 104.124C181.424 104.124 181.424 104.124 181.424 104.123C181.425 104.122 181.425 104.121 181.425 104.12C181.426 104.117 181.428 104.113 181.43 104.107C181.433 104.096 181.439 104.08 181.446 104.058C181.46 104.016 181.481 103.953 181.508 103.87C181.562 103.705 181.641 103.463 181.741 103.149C181.941 102.524 182.225 101.616 182.564 100.488C183.241 98.2306 184.136 95.0849 185.008 91.5295C186.744 84.4521 188.418 75.6305 188.034 68.9688L186.037 69.084C186.403 75.4222 184.798 83.9906 183.066 91.0532C182.204 94.5678 181.318 97.6797 180.648 99.9127C180.314 101.029 180.033 101.925 179.836 102.541C179.737 102.849 179.66 103.087 179.608 103.247C179.581 103.327 179.561 103.388 179.548 103.429C179.541 103.449 179.536 103.464 179.533 103.474C179.531 103.479 179.53 103.483 179.529 103.485C179.528 103.486 179.528 103.487 179.528 103.488C179.528 103.488 179.528 103.488 179.528 103.488C179.528 103.488 179.528 103.488 180.476 103.806ZM188.034 68.9688C187.657 62.4279 186.617 53.1666 185.035 44.5937C184.245 40.3069 183.316 36.1761 182.261 32.6354C181.213 29.1159 180.017 26.0992 178.664 24.0966L177.007 25.2162C178.184 26.9585 179.31 29.7356 180.344 33.2064C181.372 36.656 182.286 40.7121 183.069 44.9565C184.635 53.4462 185.665 62.6248 186.037 69.084L188.034 68.9688ZM177.17 23.9105C174.236 26.5304 173.241 30.748 173.248 34.7745C173.256 38.8251 174.276 42.9432 175.668 45.6269L177.443 44.7059C176.216 42.3396 175.256 38.5427 175.248 34.7707C175.241 30.9747 176.195 27.4623 178.502 25.4022L177.17 23.9105ZM175.668 45.6269C175.935 46.1412 176.287 47.2009 176.663 48.7676C177.033 50.3063 177.409 52.2591 177.748 54.5055C178.425 58.9984 178.947 64.6291 178.97 70.4128C178.992 76.203 178.516 82.1058 177.217 87.1614C175.913 92.2388 173.817 96.3186 170.716 98.6466L171.916 100.246C175.549 97.5192 177.804 92.9177 179.154 87.6589C180.51 82.3782 180.993 76.2898 180.97 70.4049C180.946 64.5137 180.416 58.7856 179.725 54.2073C179.38 51.918 178.994 49.9071 178.608 48.3004C178.228 46.7215 177.832 45.4541 177.443 44.7059L175.668 45.6269ZM171.316 98.4464H141.099V100.446H171.316V98.4464ZM140.4 98.7313C139.835 99.2834 139.087 99.6212 138.234 99.6212V101.621C139.644 101.621 140.885 101.055 141.798 100.161L140.4 98.7313ZM138.234 99.6212C136.098 99.6212 132.78 99.7806 128.986 99.9625L129.082 101.96C132.901 101.777 136.159 101.621 138.234 101.621V99.6212ZM128.979 99.9629L128.978 99.963L129.089 101.96L129.09 101.96L128.979 99.9629ZM129.034 99.9614H129.033V101.961H129.034V99.9614ZM129.033 99.9614H129.033V101.961H129.033V99.9614ZM128.985 99.9626C124.105 100.197 118.4 100.47 113.243 100.506C108.045 100.543 103.54 100.334 100.992 99.655L100.476 101.587C103.323 102.347 108.091 102.542 113.257 102.506C118.462 102.47 124.209 102.194 129.081 101.96L128.985 99.9626ZM100.992 99.655C100.624 99.557 100.424 99.4453 100.318 99.3606C100.226 99.287 100.193 99.225 100.174 99.1618L98.2566 99.731C98.5511 100.723 99.3866 101.297 100.476 101.587L100.992 99.655ZM99.2152 98.4464H83.4758V100.446H99.2152V98.4464ZM84.2487 98.8118C82.0892 96.1819 80.6699 93.0238 80.1371 89.6628L78.1617 89.976C78.7503 93.6881 80.3179 97.1762 82.703 100.081L84.2487 98.8118ZM80.1371 89.6628C79.7052 86.9389 79.8682 84.1615 80.6057 81.5195L78.6793 80.9818C77.8648 83.8998 77.6847 86.9674 78.1617 89.976L80.1371 89.6628ZM79.811 80.2649C69.983 78.5852 62.9729 74.0903 58.1186 68.4108L56.5982 69.7103C61.7538 75.7423 69.1814 80.4772 79.4741 82.2364L79.811 80.2649ZM57.0586 68.1066C55.7331 68.5232 54.3215 68.7482 52.8555 68.7482V70.7482C54.5272 70.7482 56.1409 70.4914 57.6583 70.0145L57.0586 68.1066ZM52.8555 68.7482C45.1235 68.7482 38.8555 62.4802 38.8555 54.7482H36.8555C36.8555 63.5847 44.0189 70.7482 52.8555 70.7482V68.7482ZM38.8555 54.7482C38.8555 53.8846 38.9335 53.0401 39.0828 52.2212L37.1152 51.8627C36.9445 52.7993 36.8555 53.7638 36.8555 54.7482H38.8555Z" fill="black"/>
<path d="M49.6263 88.1364H7.51625C4.14179 88.1364 1.40625 90.8697 1.40625 94.2414C1.40625 97.6131 4.14179 100.346 7.51625 100.346H49.6263C53.0007 100.346 55.7363 97.6131 55.7363 94.2414C55.7363 90.8697 53.0007 88.1364 49.6263 88.1364Z" fill="#C2C2C3" stroke="black" stroke-width="2" stroke-miterlimit="10"/>
<path d="M201.047 79.8063L210.127 98.2363L214.807 97.3063L207.137 76.8063L201.047 79.8063Z" fill="#C2C2C3" stroke="black" stroke-width="2" stroke-miterlimit="10"/>
<path d="M230.756 97.9564C230.754 97.013 230.378 96.109 229.711 95.442C229.044 94.7749 228.14 94.399 227.196 94.3964C226.637 94.3998 226.086 94.5333 225.586 94.7864L211.066 98.6164L212.656 105.726L227.296 101.506C228.222 101.483 229.102 101.099 229.749 100.435C230.395 99.7721 230.757 98.8825 230.756 97.9564Z" fill="#757576" stroke="black" stroke-width="2" stroke-miterlimit="10" stroke-linejoin="round"/>
<path d="M215.246 11.7395C215.267 11.033 215.008 10.3467 214.524 9.83122C214.041 9.31571 213.372 9.01304 212.666 8.98955C212.245 8.97361 211.827 9.05937 211.446 9.23955L195.006 12.6395L196.006 18.0195L212.596 14.3195C213.285 14.3148 213.946 14.0435 214.44 13.5627C214.934 13.0818 215.223 12.4285 215.246 11.7395Z" fill="#6C5952" stroke="black" stroke-width="2" stroke-miterlimit="10"/>
<path d="M212.037 105.636C214.003 105.636 215.597 104.042 215.597 102.076C215.597 100.11 214.003 98.5162 212.037 98.5162C210.07 98.5162 208.477 100.11 208.477 102.076C208.477 104.042 210.07 105.636 212.037 105.636Z" fill="#757576" stroke="black" stroke-width="2" stroke-miterlimit="10"/>
<path d="M177.836 24.6662C177.836 24.6662 190.676 20.2662 197.306 22.0462C203.756 23.7762 205.166 26.9162 207.226 31.5962C209.286 36.2762 216.426 58.6562 216.426 58.6562L189.006 103.296L180.576 103.856C180.576 103.856 185.356 79.9862 184.786 68.7562C184.216 57.5262 182.006 46.0962 177.836 24.6662Z" fill="#FAC021" stroke="black" stroke-width="2" stroke-linecap="round" stroke-linejoin="round"/>
<path d="M207.246 17.9063C207.246 26.2363 196.506 36.0763 186.306 36.0763C176.106 36.0763 168.756 28.0763 168.756 19.7563C168.756 11.4363 178.566 2.82629 188.756 2.82629C198.946 2.82629 207.246 9.57631 207.246 17.9063Z" fill="#FAC021" stroke="black" stroke-width="2" stroke-miterlimit="10"/>
<path d="M229.906 73.5062C230.906 73.5062 231.816 73.5062 232.766 73.6262C229.051 68.38 223.5 64.7213 217.214 63.3756C210.928 62.03 204.366 63.0956 198.829 66.3613C193.291 69.6269 189.184 74.8541 187.32 81.0063C185.456 87.1586 185.972 93.7866 188.766 99.5762C189.054 100.154 189.507 100.632 190.069 100.951C190.63 101.27 191.273 101.414 191.917 101.366C192.56 101.318 193.175 101.079 193.682 100.68C194.19 100.281 194.567 99.7402 194.766 99.1262C197.168 91.693 201.862 85.2109 208.174 80.6087C214.487 76.0065 222.094 73.5203 229.906 73.5062Z" fill="#FAC021" stroke="black" stroke-width="2" stroke-linecap="round" stroke-linejoin="round"/>
<path d="M232.346 73.7664L240.586 69.9164C237.796 66.5949 234.301 63.9364 230.356 62.134C226.41 60.3317 222.113 59.4306 217.776 59.4964C204.026 59.9164 198.576 65.4964 197.176 66.8964C197.866 66.8464 205.706 62.7264 209.916 62.8964C219.756 63.3464 226.836 66.4664 232.346 73.7664Z" fill="#FAC021" stroke="black" stroke-width="2" stroke-linejoin="round"/>
<path d="M192.616 31.2363C200.691 31.2363 207.236 24.4802 207.236 16.1463C207.236 7.81229 200.691 1.05627 192.616 1.05627C184.542 1.05627 177.996 7.81229 177.996 16.1463C177.996 24.4802 184.542 31.2363 192.616 31.2363Z" fill="#FBD058" stroke="black" stroke-width="2" stroke-miterlimit="10"/>
<path d="M194.277 25.9965C198.722 25.9965 202.327 21.2417 202.327 15.3765C202.327 9.5112 197.722 4.75647 193.277 4.75647C188.831 4.75647 185.227 9.5112 185.227 15.3765C185.227 21.2417 189.831 25.9965 194.277 25.9965Z" fill="#EFEAE5" stroke="black" stroke-width="2" stroke-miterlimit="10"/>
<rect x="193.301" y="10.9901" width="4.10352" height="6.75812" rx="2.05176" transform="rotate(-19.2522 193.301 10.9901)" fill="white"/>
<path d="M62.2263 104.027C63.543 98.7474 63.1268 93.18 60.9763 88.0806C58.2959 81.7245 53.1258 76.5813 46.5346 73.7139C39.9433 70.8464 32.4345 70.4738 25.5599 72.673C23.1802 73.4343 20.9395 74.4835 18.8867 75.7814" stroke="black" stroke-width="2" stroke-linecap="round" stroke-linejoin="round"/>
<path d="M20.6657 71.7762H11.4057C9.85378 71.7762 8.5957 73.0343 8.5957 74.5862C8.5957 76.1382 9.85378 77.3962 11.4057 77.3962H20.6657C22.2176 77.3962 23.4757 76.1382 23.4757 74.5862C23.4757 73.0343 22.2176 71.7762 20.6657 71.7762Z" fill="#F37032" stroke="black" stroke-width="2" stroke-miterlimit="10"/>
<path d="M191.481 63.9572C192.979 63.7071 193.787 61.0711 193.286 58.0695C192.784 55.068 191.164 52.8376 189.666 53.0877C188.168 53.3379 187.359 55.9739 187.861 58.9754C188.362 61.9769 189.983 64.2074 191.481 63.9572Z" fill="#F37032" stroke="black" stroke-width="2" stroke-miterlimit="10"/>
<path d="M210.605 55.1112C211.808 54.7106 212.004 52.0453 211.042 49.1582C210.08 46.271 208.326 44.2553 207.123 44.6559C205.92 45.0565 205.725 47.7217 206.687 50.6089C207.648 53.496 209.403 55.5118 210.605 55.1112Z" fill="#F37032" stroke="black" stroke-width="2" stroke-miterlimit="10"/>
<path d="M169.941 14.3729L163.736 15.2121C163.736 15.2121 164.096 18.1071 163.75 19.9375C163.404 21.7679 161.964 24.586 161.964 24.586L169.303 23.4272C168.203 18.8344 168.765 16.6469 169.941 14.3729Z" fill="#757576" stroke="black" stroke-width="2" stroke-linecap="round" stroke-linejoin="round"/>
<path fill-rule="evenodd" clip-rule="evenodd" d="M39.1851 48.5649L25.6617 48.3713C24.0991 48.2463 20.3239 48.3338 17.7239 49.6838C15.1239 51.0338 15.7265 52.8712 17.4114 53.5588H37.9019C38.0407 51.7903 38.4861 50.1079 39.1851 48.5649ZM56.5422 69.2917C57.9 70.4169 59.2779 71.4766 60.6524 72.4301C59.4615 71.3661 58.3652 70.2384 57.3584 69.0605C57.0895 69.1451 56.8174 69.2222 56.5422 69.2917Z" fill="#A98163"/>
<path d="M25.6617 48.3713L25.582 49.3681C25.6037 49.3699 25.6256 49.3709 25.6474 49.3712L25.6617 48.3713ZM39.1851 48.5649L40.096 48.9776C40.2352 48.6704 40.2102 48.3137 40.0294 48.029C39.8487 47.7443 39.5367 47.5698 39.1995 47.565L39.1851 48.5649ZM17.7239 49.6838L17.2631 48.7963L17.2631 48.7963L17.7239 49.6838ZM17.4114 53.5588L17.0336 54.4847C17.1535 54.5336 17.2818 54.5588 17.4114 54.5588V53.5588ZM37.9019 53.5588V54.5588C38.4239 54.5588 38.8581 54.1574 38.8989 53.637L37.9019 53.5588ZM60.6524 72.4301L60.0825 73.2517C60.5167 73.553 61.1104 73.4643 61.4376 73.0493C61.7649 72.6344 61.7128 72.0364 61.3187 71.6843L60.6524 72.4301ZM56.5422 69.2917L56.2972 68.3222C55.9321 68.4145 55.6498 68.704 55.5668 69.0713C55.4838 69.4387 55.6142 69.8215 55.9042 70.0617L56.5422 69.2917ZM57.3584 69.0605L58.1186 68.4108C57.8582 68.1061 57.441 67.9864 57.0586 68.1066L57.3584 69.0605ZM25.6474 49.3712L39.1708 49.5648L39.1995 47.565L25.676 47.3714L25.6474 49.3712ZM18.1847 50.5713C19.334 49.9746 20.7941 49.6355 22.2005 49.4674C23.5981 49.3003 24.8661 49.3109 25.582 49.3681L25.7414 47.3745C24.8947 47.3068 23.4938 47.2986 21.9631 47.4815C20.4413 47.6634 18.7138 48.0431 17.2631 48.7963L18.1847 50.5713ZM17.7892 52.6329C17.1487 52.3715 16.9688 52.0006 16.9595 51.819C16.9524 51.6784 17.0342 51.1687 18.1847 50.5713L17.2631 48.7963C15.8136 49.5489 14.8967 50.6329 14.9621 51.9204C15.0254 53.1669 15.9892 54.0585 17.0336 54.4847L17.7892 52.6329ZM37.9019 52.5588H17.4114V54.5588H37.9019V52.5588ZM38.8989 53.637C39.0284 51.9862 39.444 50.4168 40.096 48.9776L38.2743 48.1522C37.5282 49.799 37.053 51.5944 36.905 53.4806L38.8989 53.637ZM61.2224 71.6084C59.8752 70.6739 58.5202 69.6321 57.1803 68.5217L55.9042 70.0617C57.2799 71.2017 58.6806 72.2792 60.0825 73.2517L61.2224 71.6084ZM61.3187 71.6843C60.1622 70.6511 59.0971 69.5557 58.1186 68.4108L56.5982 69.7103C57.6332 70.9211 58.7607 72.081 59.9862 73.1758L61.3187 71.6843ZM57.0586 68.1066C56.8078 68.1854 56.5539 68.2573 56.2972 68.3222L56.7872 70.2613C57.0809 70.187 57.3713 70.1047 57.6583 70.0145L57.0586 68.1066Z" fill="black"/>
</svg>
