<svg width="361" height="340" viewBox="0 0 361 340" fill="none" xmlns="http://www.w3.org/2000/svg">
<ellipse cx="160.938" cy="320.527" rx="117.835" ry="12.5" fill="black" fill-opacity="0.5"/>
<path d="M245.661 244.335L262.611 291.435L267.301 290.495L250.201 241.725L245.661 244.335Z" fill="#C2C2C3" stroke="black" stroke-width="2" stroke-miterlimit="10"/>
<path d="M247.431 241.395L236.241 296.465L223.341 299.815L218.871 278.495L228.001 239.045L247.431 241.395Z" fill="#372D41" stroke="black" stroke-width="2" stroke-miterlimit="10"/>
<path d="M190.659 251.387C200.386 245.858 204.23 241.684 206.391 237.642C206.391 237.642 191.51 246.382 185.427 249.454C172.384 254.283 176.19 256.328 190.659 251.387Z" fill="#4E4465" stroke="black" stroke-width="2" stroke-miterlimit="10"/>
<path d="M92.1591 263.973C92.1591 263.973 91.5736 264.324 88.8936 264.574C89.6307 266.358 89.8359 267.835 90.031 270.544C90.4121 275.837 90.6282 281.133 90.7507 285.459C92.1353 283.871 93.0084 283.041 94.1795 281.763C94.797 281.103 96.245 279.612 97.5865 278.441C95.159 277.142 95.7571 272.708 97.2032 271.883C98.3112 271.25 100.506 271.726 101.973 271.925C98.5234 270.414 93.2285 265.463 92.1591 263.973Z" fill="#4E4465"/>
<path d="M92.1591 263.973L92.9717 263.39C92.6682 262.967 92.0909 262.847 91.6445 263.115L92.1591 263.973ZM90.031 270.544L89.0336 270.616L90.031 270.544ZM101.973 271.925L101.838 272.916L108.919 273.878L102.374 271.01L101.973 271.925ZM90.7507 285.459L89.7511 285.488L89.8235 288.045L91.5044 286.116L90.7507 285.459ZM88.8936 264.574L88.8007 263.578L87.4522 263.704L87.9693 264.956L88.8936 264.574ZM97.2032 271.883L96.7075 271.014L97.2032 271.883ZM97.5865 278.441L98.2441 279.195L99.3346 278.243L98.0583 277.56L97.5865 278.441ZM94.1795 281.763L93.4492 281.08L93.4423 281.087L94.1795 281.763ZM89.0336 270.616C89.4133 275.889 89.6288 281.17 89.7511 285.488L91.7503 285.431C91.6275 281.096 91.4109 275.784 91.0284 270.472L89.0336 270.616ZM102.374 271.01C100.792 270.316 98.699 268.783 96.8229 267.181C94.9416 265.574 93.4308 264.03 92.9717 263.39L91.3465 264.556C91.9568 265.406 93.6281 267.082 95.524 268.702C97.4251 270.325 99.7043 272.023 101.572 272.841L102.374 271.01ZM92.1591 263.973C91.6445 263.115 91.6452 263.115 91.6459 263.114C91.6461 263.114 91.6468 263.114 91.6473 263.114C91.6482 263.113 91.6492 263.112 91.6501 263.112C91.6519 263.111 91.6537 263.11 91.6554 263.109C91.6588 263.107 91.6621 263.105 91.6652 263.103C91.6714 263.1 91.6768 263.097 91.6815 263.094C91.6907 263.089 91.6969 263.086 91.6995 263.085C91.7045 263.083 91.6958 263.087 91.6699 263.097C91.6174 263.117 91.5 263.157 91.2912 263.209C90.8719 263.313 90.1073 263.456 88.8007 263.578L88.9864 265.57C90.3599 265.442 91.2281 265.285 91.7715 265.15C92.0441 265.083 92.2405 265.02 92.3816 264.966C92.4524 264.939 92.5104 264.914 92.558 264.891C92.5818 264.88 92.6031 264.869 92.6223 264.859C92.6319 264.854 92.6409 264.849 92.6495 264.844C92.6537 264.842 92.6579 264.839 92.6619 264.837C92.664 264.836 92.6659 264.835 92.6679 264.834C92.6689 264.833 92.6699 264.832 92.6708 264.832C92.6713 264.831 92.672 264.831 92.6723 264.831C92.673 264.83 92.6737 264.83 92.1591 263.973ZM87.9693 264.956C88.6427 266.586 88.8401 267.929 89.0336 270.616L91.0284 270.472C90.8317 267.74 90.6187 266.131 89.8178 264.192L87.9693 264.956ZM97.6989 272.751C97.9669 272.598 98.5169 272.525 99.3793 272.59C100.212 272.652 101.036 272.807 101.838 272.916L102.107 270.935C101.443 270.844 100.436 270.663 99.5278 270.595C98.649 270.53 97.5474 270.535 96.7075 271.014L97.6989 272.751ZM98.0583 277.56C97.3292 277.169 96.9184 276.215 96.9421 275.004C96.9533 274.427 97.0672 273.875 97.2397 273.446C97.424 272.986 97.62 272.796 97.6989 272.751L96.7075 271.014C96.0633 271.382 95.6423 272.056 95.3836 272.701C95.1131 273.375 94.958 274.168 94.9424 274.965C94.9124 276.502 95.4163 278.414 97.1147 279.323L98.0583 277.56ZM94.9098 282.446C95.5174 281.797 96.9392 280.334 98.2441 279.195L96.9288 277.688C95.5507 278.891 94.0766 280.409 93.4492 281.08L94.9098 282.446ZM91.5044 286.116C92.8895 284.528 93.6902 283.777 94.9167 282.439L93.4423 281.087C92.3265 282.305 91.3811 283.214 89.9969 284.802L91.5044 286.116Z" fill="black"/>
<path d="M196.301 301.012C221.856 296.221 225.972 283.555 228.113 274.324L222.659 300.089C214.121 300.759 202.938 300.824 196.301 301.012Z" fill="#4E4465"/>
<path d="M228.113 274.324L229.092 274.531C229.205 273.995 228.865 273.467 228.33 273.348C227.794 273.229 227.263 273.564 227.139 274.098L228.113 274.324ZM196.301 301.012L196.117 300.029L196.329 302.011L196.301 301.012ZM222.659 300.089L222.738 301.086C223.18 301.051 223.546 300.73 223.638 300.296L222.659 300.089ZM227.139 274.098C226.077 278.675 224.559 283.937 220.249 288.659C215.943 293.374 208.747 297.661 196.117 300.029L196.485 301.995C209.41 299.571 217.049 295.13 221.726 290.007C226.397 284.891 228.008 279.204 229.087 274.55L227.139 274.098ZM196.329 302.011C202.928 301.825 214.166 301.758 222.738 301.086L222.581 299.092C214.076 299.759 202.949 299.824 196.273 300.012L196.329 302.011ZM223.638 300.296L229.092 274.531L227.135 274.117L221.681 299.882L223.638 300.296Z" fill="black"/>
<path d="M261.111 263.445C245.641 263.445 233.111 276.215 233.111 291.975C233.111 307.735 245.651 320.495 261.111 320.495C276.571 320.495 289.111 307.725 289.111 291.975C289.111 276.225 276.581 263.445 261.111 263.445ZM261.111 308.665C257.798 308.725 254.542 307.797 251.759 306C248.975 304.202 246.789 301.617 245.48 298.573C244.17 295.529 243.797 292.164 244.406 288.907C245.016 285.65 246.581 282.648 248.903 280.284C251.225 277.92 254.198 276.3 257.443 275.631C260.689 274.963 264.06 275.275 267.127 276.529C270.194 277.783 272.819 279.922 274.666 282.672C276.514 285.423 277.501 288.662 277.501 291.975C277.521 294.147 277.113 296.302 276.3 298.316C275.487 300.331 274.285 302.165 272.763 303.715C271.241 305.265 269.429 306.5 267.43 307.349C265.43 308.198 263.283 308.646 261.111 308.665Z" fill="#372D41" stroke="black" stroke-width="2" stroke-miterlimit="10"/>
<path d="M256.861 267.754C251.751 267.661 246.729 269.091 242.434 271.863C238.14 274.634 234.767 278.621 232.747 283.316C230.727 288.011 230.15 293.201 231.091 298.225C232.031 303.249 234.446 307.879 238.027 311.526C241.608 315.173 246.194 317.67 251.2 318.701C256.207 319.732 261.406 319.249 266.137 317.314C270.868 315.379 274.915 312.079 277.763 307.835C280.612 303.591 282.133 298.595 282.131 293.484C282.162 290.136 281.532 286.814 280.279 283.708C279.025 280.603 277.172 277.775 274.826 275.385C272.479 272.996 269.685 271.092 266.602 269.783C263.52 268.474 260.21 267.784 256.861 267.754ZM256.861 308.544C253.871 308.6 250.933 307.764 248.42 306.143C245.906 304.523 243.933 302.191 242.75 299.444C241.567 296.698 241.228 293.661 241.777 290.722C242.326 287.782 243.738 285.073 245.833 282.938C247.927 280.804 250.61 279.342 253.539 278.737C256.468 278.133 259.51 278.415 262.278 279.546C265.046 280.677 267.415 282.607 269.083 285.089C270.75 287.571 271.641 290.494 271.641 293.484C271.66 295.444 271.292 297.387 270.559 299.205C269.827 301.022 268.743 302.677 267.371 304.076C265.998 305.474 264.364 306.588 262.56 307.355C260.757 308.122 258.821 308.526 256.861 308.544Z" fill="#4E4465" stroke="black" stroke-width="2" stroke-miterlimit="10"/>
<path d="M59.8008 263.445C44.3308 263.445 31.8008 276.215 31.8008 291.975C31.8008 307.735 44.3408 320.495 59.8008 320.495C75.2608 320.495 87.8008 307.725 87.8008 291.975C87.8008 276.225 75.2308 263.445 59.8008 263.445ZM59.8008 308.665C56.4892 308.717 53.2372 307.782 50.4585 305.98C47.6799 304.178 45.5003 301.589 44.1971 298.544C42.8939 295.5 42.5261 292.136 43.1404 288.882C43.7547 285.627 45.3234 282.629 47.6469 280.269C49.9703 277.908 52.9435 276.293 56.1879 275.628C59.4323 274.962 62.8014 275.277 65.8662 276.532C68.9311 277.788 71.5532 279.926 73.3989 282.676C75.2446 285.426 76.2304 288.663 76.2308 291.975C76.2505 294.151 75.841 296.309 75.0255 298.326C74.21 300.342 73.0047 302.179 71.4785 303.729C69.9523 305.279 68.1352 306.513 66.1313 307.36C64.1275 308.208 61.9763 308.651 59.8008 308.665Z" fill="#372D41" stroke="black" stroke-width="2" stroke-miterlimit="10"/>
<path d="M55.5411 267.754C50.4308 267.661 45.4084 269.091 41.1139 271.863C36.8193 274.634 33.4471 278.621 31.427 283.316C29.4068 288.011 28.8301 293.201 29.7704 298.225C30.7107 303.249 33.1253 307.879 36.7067 311.526C40.2881 315.173 44.874 317.67 49.8802 318.701C54.8863 319.732 60.086 319.249 64.8167 317.314C69.5473 315.379 73.5947 312.079 76.4432 307.835C79.2917 303.591 80.8122 298.595 80.8111 293.484C80.8414 290.136 80.2119 286.814 78.9583 283.708C77.7048 280.603 75.8518 277.775 73.5052 275.385C71.1587 272.996 68.3645 271.092 65.2822 269.783C62.1999 268.474 58.8898 267.784 55.5411 267.754ZM55.5411 308.544C52.5516 308.598 49.6138 307.76 47.1019 306.139C44.59 304.517 42.6178 302.184 41.4364 299.437C40.2551 296.69 39.918 293.654 40.4683 290.715C41.0185 287.776 42.4311 285.068 44.5262 282.934C46.6212 280.801 49.3038 279.34 52.2323 278.736C55.1608 278.133 58.2026 278.415 60.9702 279.547C63.7378 280.678 66.106 282.608 67.773 285.09C69.4401 287.572 70.3306 290.494 70.3311 293.484C70.3496 295.444 69.9815 297.389 69.2481 299.207C68.5147 301.025 67.4303 302.68 66.0568 304.079C64.6832 305.478 63.0476 306.592 61.2432 307.358C59.4389 308.124 57.5013 308.527 55.5411 308.544Z" fill="#4E4465" stroke="black" stroke-width="2" stroke-miterlimit="10"/>
<path d="M232.121 244.335L249.071 291.435L253.751 290.495L236.651 241.725L232.121 244.335Z" fill="#C2C2C3" stroke="black" stroke-width="2" stroke-miterlimit="10"/>
<path d="M269.692 291.185C269.692 290.243 269.318 289.339 268.653 288.671C267.987 288.004 267.084 287.628 266.142 287.625C265.579 287.629 265.025 287.763 264.522 288.015L250.012 291.845L251.602 298.955L266.232 294.695C267.151 294.674 268.027 294.296 268.673 293.641C269.319 292.986 269.684 292.105 269.692 291.185Z" fill="#757576" stroke="black" stroke-width="2" stroke-miterlimit="10"/>
<path d="M250.981 298.825C252.947 298.825 254.541 297.231 254.541 295.265C254.541 293.299 252.947 291.705 250.981 291.705C249.015 291.705 247.421 293.299 247.421 295.265C247.421 297.231 249.015 298.825 250.981 298.825Z" fill="#757576" stroke="black" stroke-width="2" stroke-miterlimit="10"/>
<path d="M40.7148 242.07C40.7148 244.832 42.8908 247.07 45.575 247.07H72.9883C73.2788 245.67 73.6599 243.235 74.4883 242.494C70.357 239.233 67.9883 237.07 67.9883 237.07H45.575C42.8908 237.07 40.7148 239.309 40.7148 242.07Z" fill="#4E4465"/>
<path d="M67.9883 237.07L68.6626 236.332L68.3762 236.07H67.9883V237.07ZM72.9883 247.07V248.07H73.8021L73.9674 247.273L72.9883 247.07ZM74.4883 242.494L75.1551 243.239C75.3752 243.042 75.4969 242.758 75.4878 242.463C75.4787 242.168 75.3396 241.892 75.1078 241.709L74.4883 242.494ZM45.575 246.07C43.4696 246.07 41.7148 244.306 41.7148 242.07H39.7148C39.7148 245.357 42.312 248.07 45.575 248.07V246.07ZM41.7148 242.07C41.7148 239.834 43.4696 238.07 45.575 238.07V236.07C42.312 236.07 39.7148 238.784 39.7148 242.07H41.7148ZM45.575 238.07H67.9883V236.07H45.575V238.07ZM72.9883 246.07H45.575V248.07H72.9883V246.07ZM67.9883 237.07C67.314 237.809 67.314 237.809 67.3141 237.809C67.3141 237.809 67.3142 237.809 67.3142 237.809C67.3144 237.809 67.3145 237.809 67.3147 237.809C67.3151 237.81 67.3157 237.81 67.3164 237.811C67.3177 237.812 67.3197 237.814 67.3222 237.816C67.3273 237.821 67.3347 237.828 67.3443 237.836C67.3636 237.854 67.392 237.88 67.4294 237.913C67.5041 237.98 67.6148 238.079 67.7601 238.208C68.0507 238.465 68.4802 238.841 69.039 239.319C70.1565 240.275 71.7917 241.64 73.8688 243.279L75.1078 241.709C73.0535 240.088 71.4387 238.74 70.3391 237.799C69.7893 237.329 69.3684 236.961 69.0858 236.71C68.9445 236.585 68.8378 236.49 68.7669 236.426C68.7314 236.394 68.7049 236.37 68.6875 236.354C68.6788 236.347 68.6723 236.341 68.6682 236.337C68.6661 236.335 68.6646 236.334 68.6637 236.333C68.6632 236.332 68.6629 236.332 68.6627 236.332C68.6626 236.332 68.6626 236.332 68.6625 236.332C68.6625 236.332 68.6626 236.332 68.6626 236.332C68.6626 236.332 68.6626 236.332 67.9883 237.07ZM73.8214 241.749C73.4585 242.073 73.2095 242.516 73.0308 242.92C72.8449 243.34 72.695 243.813 72.5708 244.276C72.3257 245.189 72.1453 246.211 72.0091 246.867L73.9674 247.273C74.1218 246.529 74.2772 245.633 74.5024 244.794C74.6133 244.381 74.7322 244.018 74.8598 243.729C74.9946 243.425 75.1039 243.285 75.1551 243.239L73.8214 241.749Z" fill="black"/>
<path d="M84.7148 205.07C78.3148 199.87 66.5299 200.428 61.8633 201.762C77.0118 207.443 78.7853 210.361 85.8722 216.806C86.2435 215.585 86.9935 213.335 88.3008 208.012C87.0096 207.002 85.978 206.096 84.7148 205.07Z" fill="#372D41" stroke="black" stroke-width="2"/>
<path d="M226.215 187.564C235.399 189.564 250.416 198.389 257.715 229.065C266.715 266.889 234.031 238.07 230.215 258.57C226.399 279.07 233.119 302.57 174.215 302.57C148.215 302.57 92.215 301.07 88.215 293.57C85.7896 289.023 95.8932 280.084 100.707 271.449C109.863 277.387 122.957 276.574 129.488 279.074C133.051 280.949 136.613 281.637 136.488 286.199C136.381 290.121 133.371 293.241 134.113 294.574C134.84 295.881 137.809 296.272 141.871 296.428L170.282 295.984C171.222 295.965 171.975 295.953 172.488 295.949C178.645 295.137 179.863 287.418 170.551 284.637C175.538 282.524 182.551 279.762 183.113 266.449C182.238 257.074 175.613 254.512 173.301 253.574C176.244 253.915 180.839 253.801 183.926 253.199C204.426 249.199 215.215 225.066 215.215 225.066C215.215 225.066 215.715 216.566 211.715 208.066C207.715 199.566 217.031 185.564 226.215 187.564Z" fill="#F75E17"/>
<path d="M257.715 229.065L256.742 229.297L257.715 229.065ZM226.215 187.564L226.428 186.587L226.215 187.564ZM215.215 225.066L216.128 225.474L216.202 225.307L216.213 225.124L215.215 225.066ZM88.215 293.57L87.3326 294.041H87.3326L88.215 293.57ZM173.301 253.574L173.416 252.581C172.919 252.523 172.456 252.842 172.332 253.326C172.208 253.811 172.461 254.313 172.925 254.501L173.301 253.574ZM100.707 271.449L101.251 270.61L100.354 270.028L99.8335 270.962L100.707 271.449ZM129.488 279.074L129.954 278.189L129.901 278.161L129.846 278.14L129.488 279.074ZM172.488 295.949L172.504 296.949L172.562 296.948L172.619 296.94L172.488 295.949ZM141.871 296.428L141.832 297.427L141.847 297.428L141.861 297.428L141.871 296.428ZM170.551 284.637L170.161 283.716C169.772 283.88 169.529 284.271 169.552 284.692C169.576 285.113 169.861 285.474 170.265 285.595L170.551 284.637ZM183.113 266.449L184.112 266.491L184.115 266.424L184.109 266.356L183.113 266.449ZM136.488 286.199L135.489 286.172L136.488 286.199ZM134.113 294.574L134.987 294.088L134.113 294.574ZM258.688 228.834C251.318 197.861 236.06 188.685 226.428 186.587L226.002 188.541C234.738 190.444 249.513 198.916 256.742 229.297L258.688 228.834ZM226.428 186.587C221.256 185.461 216.276 188.85 213.198 193.309C210.113 197.779 208.599 203.793 210.81 208.491L212.62 207.64C210.831 203.838 211.975 198.602 214.844 194.445C217.72 190.279 221.99 187.667 226.002 188.541L226.428 186.587ZM210.81 208.491C212.751 212.615 213.605 216.753 213.972 219.87C214.155 221.426 214.216 222.72 214.231 223.622C214.238 224.072 214.234 224.424 214.229 224.66C214.226 224.779 214.223 224.868 214.22 224.926C214.219 224.956 214.218 224.977 214.218 224.991C214.217 224.997 214.217 225.002 214.217 225.005C214.217 225.006 214.217 225.007 214.217 225.007C214.217 225.008 214.217 225.008 214.217 225.008C214.217 225.008 214.217 225.007 214.217 225.007C214.217 225.007 214.217 225.007 215.215 225.066C216.213 225.124 216.213 225.124 216.213 225.124C216.213 225.124 216.213 225.123 216.213 225.123C216.213 225.122 216.213 225.122 216.213 225.121C216.214 225.119 216.214 225.117 216.214 225.114C216.214 225.109 216.214 225.101 216.215 225.091C216.216 225.072 216.217 225.045 216.219 225.01C216.222 224.94 216.225 224.838 216.228 224.707C216.234 224.446 216.238 224.067 216.23 223.588C216.214 222.63 216.15 221.268 215.958 219.636C215.575 216.378 214.679 212.016 212.62 207.64L210.81 208.491ZM215.215 225.066C214.302 224.658 214.302 224.657 214.302 224.657C214.302 224.657 214.302 224.657 214.302 224.657C214.302 224.658 214.302 224.659 214.301 224.66C214.3 224.662 214.298 224.665 214.296 224.67C214.292 224.68 214.284 224.696 214.275 224.717C214.255 224.76 214.225 224.825 214.185 224.91C214.104 225.081 213.981 225.335 213.818 225.662C213.49 226.315 212.997 227.257 212.341 228.402C211.029 230.693 209.068 233.789 206.479 237.005C201.283 243.459 193.649 250.283 183.734 252.218L184.117 254.181C194.703 252.115 202.713 244.872 208.037 238.259C210.707 234.942 212.725 231.755 214.077 229.396C214.753 228.216 215.263 227.241 215.605 226.559C215.776 226.218 215.906 225.95 215.993 225.765C216.036 225.673 216.069 225.602 216.092 225.553C216.103 225.528 216.112 225.509 216.118 225.496C216.121 225.489 216.123 225.484 216.125 225.481C216.126 225.479 216.126 225.477 216.127 225.476C216.127 225.475 216.127 225.475 216.127 225.475C216.128 225.474 216.128 225.474 215.215 225.066ZM87.3326 294.041C87.6903 294.712 88.2912 295.268 89.0007 295.74C89.718 296.217 90.6092 296.648 91.6321 297.043C93.6772 297.833 96.3607 298.52 99.495 299.123C105.771 300.329 114.003 301.223 122.891 301.88C140.675 303.195 161.202 303.57 174.215 303.57V301.57C161.227 301.57 140.754 301.196 123.039 299.886C114.176 299.23 106.034 298.343 99.8725 297.159C96.788 296.566 94.2371 295.905 92.3526 295.177C91.4105 294.814 90.6631 294.444 90.1079 294.075C89.545 293.7 89.2396 293.367 89.0973 293.1L87.3326 294.041ZM174.215 303.57C203.722 303.57 217.218 297.7 223.681 288.847C226.896 284.443 228.288 279.403 229.126 274.254C229.544 271.682 229.827 269.054 230.123 266.46C230.419 263.855 230.728 261.277 231.198 258.753L229.232 258.387C228.748 260.988 228.432 263.63 228.136 266.234C227.838 268.848 227.56 271.42 227.151 273.933C226.335 278.957 225.01 283.635 222.065 287.668C216.208 295.691 203.612 301.57 174.215 301.57V303.57ZM231.198 258.753C231.647 256.341 232.502 254.748 233.57 253.673C234.641 252.598 236.003 251.964 237.605 251.607C239.219 251.247 241.031 251.176 242.954 251.199C244.817 251.221 246.904 251.335 248.782 251.314C252.556 251.271 256.434 250.703 258.597 247.284C259.657 245.608 260.232 243.349 260.274 240.365C260.315 237.381 259.823 233.606 258.688 228.834L256.742 229.297C257.857 233.98 258.312 237.579 258.274 240.338C258.236 243.098 257.704 244.954 256.906 246.215C255.353 248.671 252.509 249.271 248.76 249.314C246.876 249.336 245.002 249.223 242.978 249.199C241.015 249.176 239.016 249.243 237.17 249.655C235.311 250.069 233.565 250.843 232.152 252.263C230.738 253.684 229.737 255.675 229.232 258.387L231.198 258.753ZM183.734 252.218C180.757 252.799 176.266 252.911 173.416 252.581L173.186 254.567C176.222 254.92 180.921 254.804 184.117 254.181L183.734 252.218ZM99.8335 270.962C97.4649 275.211 93.8303 279.478 90.9376 283.454C89.5196 285.403 88.2746 287.295 87.5456 289.02C86.8256 290.724 86.5107 292.5 87.3326 294.041L89.0973 293.1C88.7065 292.367 88.7451 291.32 89.3878 289.799C90.0215 288.299 91.1485 286.564 92.5549 284.631C95.3112 280.842 99.1353 276.322 101.58 271.936L99.8335 270.962ZM129.846 278.14C128.11 277.476 125.98 277.045 123.682 276.676C122.527 276.49 121.312 276.317 120.068 276.139C118.82 275.96 117.541 275.775 116.243 275.564C111.031 274.716 105.645 273.459 101.251 270.61L100.163 272.288C104.926 275.377 110.664 276.682 115.921 277.538C117.24 277.752 118.537 277.94 119.784 278.118C121.034 278.298 122.23 278.468 123.365 278.65C125.645 279.017 127.601 279.422 129.131 280.008L129.846 278.14ZM172.48 294.949C171.961 294.953 171.203 294.966 170.262 294.984L170.301 296.983C171.241 296.965 171.989 296.953 172.496 296.949L172.48 294.949ZM170.262 294.984C163.903 295.107 149.071 295.496 141.88 295.428L141.861 297.428C149.091 297.496 163.98 297.106 170.301 296.983L170.262 294.984ZM141.886 297.428L170.297 296.983L170.266 294.984L141.855 295.428L141.886 297.428ZM170.297 296.983L172.504 296.949L172.472 294.949L170.266 294.984L170.297 296.983ZM170.265 285.595C174.703 286.92 176.254 289.289 176.321 291.069C176.388 292.832 175.029 294.605 172.357 294.958L172.619 296.94C176.103 296.481 178.433 293.988 178.32 290.993C178.207 288.016 175.711 285.134 170.837 283.678L170.265 285.595ZM172.925 254.501C174.079 254.969 176.155 255.786 178.062 257.576C179.944 259.345 181.703 262.105 182.118 266.542L184.109 266.356C183.648 261.418 181.657 258.21 179.431 256.119C177.227 254.049 174.835 253.117 173.676 252.647L172.925 254.501ZM182.114 266.407C181.841 272.879 180.01 276.652 177.761 279.06C175.48 281.5 172.681 282.648 170.161 283.716L170.941 285.557C173.408 284.512 176.608 283.223 179.222 280.425C181.866 277.596 183.823 273.331 184.112 266.491L182.114 266.407ZM129.022 279.959C129.934 280.439 130.874 280.857 131.67 281.239C132.494 281.633 133.197 282.004 133.777 282.433C134.346 282.854 134.771 283.314 135.056 283.876C135.34 284.438 135.516 285.166 135.489 286.172L137.488 286.227C137.523 284.951 137.301 283.883 136.841 282.973C136.381 282.065 135.717 281.38 134.966 280.825C134.225 280.277 133.377 279.839 132.535 279.435C131.665 279.018 130.823 278.647 129.954 278.189L129.022 279.959ZM135.489 286.172C135.441 287.902 134.751 289.492 134.076 290.933C133.756 291.618 133.41 292.327 133.207 292.94C133.017 293.512 132.832 294.328 133.239 295.06L134.987 294.088C135.023 294.153 134.936 294.079 135.105 293.569C135.261 293.1 135.535 292.534 135.888 291.781C136.559 290.349 137.428 288.418 137.488 286.227L135.489 286.172ZM133.239 295.06C133.553 295.624 134.064 296.012 134.612 296.287C135.163 296.563 135.822 296.762 136.537 296.911C137.965 297.21 139.794 297.349 141.832 297.427L141.909 295.429C139.885 295.351 138.199 295.216 136.946 294.954C136.321 294.823 135.847 294.669 135.509 294.499C135.17 294.329 135.037 294.178 134.987 294.088L133.239 295.06Z" fill="black"/>
<path d="M44.9623 207.911L44.5023 208.437L44.8376 209.05C52.7917 223.587 63.2326 233.87 73.6376 241.802L74.4849 242.448L75.0759 241.561C75.6309 240.729 76.5245 239.49 77.6773 238.367C78.8383 237.236 80.1952 236.289 81.667 235.935L82.3512 235.77L82.4271 235.07C82.8876 230.826 83.3317 228.643 83.8694 226.333C83.9557 225.963 84.0445 225.588 84.1365 225.201C84.6238 223.146 85.1958 220.735 85.9106 216.685L86.017 216.082L85.5279 215.713C82.9064 213.736 80.6925 211.869 78.6471 210.145C78.4667 209.992 78.2877 209.842 78.1098 209.692C75.9233 207.85 73.8958 206.166 71.7724 204.74C66.9337 201.49 60.4803 202.001 55.3002 203.352C52.6784 204.036 50.3081 204.954 48.5136 205.788C47.6164 206.205 46.854 206.606 46.2699 206.952C45.9784 207.124 45.7231 207.288 45.514 207.437C45.3199 207.576 45.114 207.738 44.9623 207.911Z" fill="#F75E17" stroke="black" stroke-width="2" stroke-miterlimit="10"/>
<path d="M198.807 214.764L198.548 215.876L199.685 215.986C199.951 216.012 200.111 216.013 200.228 216.013C200.244 216.013 200.259 216.014 200.273 216.014C200.352 216.014 200.432 216.016 200.643 216.048C203.097 216.426 205.179 217.098 206.897 218.261C208.603 219.415 210.012 221.093 211.06 223.589C212.237 226.389 215.461 227.705 218.262 226.528C221.062 225.352 222.378 222.127 221.201 219.327C217.05 209.447 208.181 206.059 201.438 205.022C201.158 204.978 200.92 204.941 200.711 204.908C199.629 204.736 199.339 204.69 198.008 204.658L196.046 204.611L197.162 206.227C197.925 207.332 198.493 208.833 198.789 210.408C199.084 211.985 199.091 213.549 198.807 214.764Z" fill="#99AFBF" stroke="black" stroke-width="2" stroke-miterlimit="10" stroke-linecap="round"/>
<path d="M251.215 210.064C249.215 219.264 233.176 217.528 223.343 216.028C218.343 204.528 211.215 186.565 225.715 187.564C236.592 188.314 247.215 201.064 251.215 210.064Z" fill="#ADA6D0" stroke="black" stroke-width="2"/>
<path d="M250.637 217.984C250.637 217.984 250.637 223.724 239.238 222.404C227.84 221.084 228.251 226.404 228.251 226.404C228.251 226.404 226.138 232.144 235.012 235.244C243.886 238.344 252.329 237.004 254.022 235.244C255.714 233.484 259.51 218.424 250.637 217.984Z" fill="#FFCA55" stroke="black" stroke-width="2" stroke-miterlimit="10"/>
<path d="M92.5805 264.509L54.251 289.546L57.341 293.516L96.4505 268.154L94.3532 266.281L92.5805 264.509Z" fill="#5A6369" stroke="black" stroke-width="2" stroke-miterlimit="10"/>
<path d="M32.8519 256.315C30.2257 253.478 25.7969 253.307 22.9598 255.933C20.1227 258.559 19.9517 262.988 22.5778 265.825L49.9679 295.415C52.594 298.253 57.0229 298.424 59.86 295.797C62.6971 293.171 62.8681 288.742 60.2419 285.905L32.8519 256.315Z" fill="#99AFBF" stroke="black" stroke-width="2" stroke-miterlimit="10" stroke-linecap="round"/>
<path d="M48.9149 281.83L28.7148 260.07" stroke="white" stroke-width="4" stroke-miterlimit="10" stroke-linecap="round"/>
<path d="M101.238 271.574L97.8326 271.564C96.663 271.564 95.7148 273.129 95.7148 275.059V275.07C95.7148 277 96.663 278.564 97.8326 278.564H127.738C128.908 278.564 122.778 277.186 113.028 275.936C106.363 274.389 102.751 272.613 101.238 271.574Z" fill="#372D41" stroke="black" stroke-width="2" stroke-miterlimit="10"/>
<path d="M95.7148 287.07C95.7148 289 96.663 290.564 97.8326 290.564H135.159C136.145 288.699 136.229 287.813 136.457 286.949C136.6 285.931 136.786 285.321 136.005 283.564H97.8326C96.663 283.564 95.7148 285.129 95.7148 287.059V287.07Z" fill="#372D41"/>
<path d="M136.005 283.564L136.919 283.158C136.759 282.797 136.401 282.564 136.005 282.564V283.564ZM135.159 290.564V291.564C135.53 291.564 135.87 291.359 136.044 291.031L135.159 290.564ZM136.457 286.949L137.424 287.204L137.439 287.147L137.447 287.088L136.457 286.949ZM97.8326 289.564C97.7321 289.564 97.4752 289.493 97.1903 289.023C96.9166 288.571 96.7148 287.883 96.7148 287.07H94.7148C94.7148 288.187 94.9871 289.246 95.4799 290.059C95.9615 290.854 96.7634 291.564 97.8326 291.564V289.564ZM96.7148 287.07V287.059H94.7148V287.07H96.7148ZM96.7148 287.059C96.7148 286.246 96.9166 285.558 97.1903 285.106C97.4752 284.636 97.7321 284.564 97.8326 284.564V282.564C96.7634 282.564 95.9615 283.275 95.4799 284.07C94.9871 284.883 94.7148 285.942 94.7148 287.059H96.7148ZM97.8326 284.564H136.005V282.564H97.8326V284.564ZM135.159 289.564H97.8326V291.564H135.159V289.564ZM135.49 286.694C135.248 287.612 135.193 288.359 134.275 290.097L136.044 291.031C137.096 289.04 137.21 288.015 137.424 287.204L135.49 286.694ZM135.091 283.97C135.453 284.785 135.557 285.257 135.58 285.6C135.604 285.967 135.547 286.235 135.467 286.81L137.447 287.088C137.51 286.645 137.617 286.099 137.575 285.467C137.532 284.811 137.338 284.101 136.919 283.158L135.091 283.97Z" fill="black"/>
<path d="M218.062 264.346C218.672 263.284 218.306 261.928 217.244 261.318C216.182 260.708 214.827 261.074 214.216 262.136L200.746 285.573C200.136 286.635 200.502 287.991 201.564 288.601C202.626 289.211 203.981 288.845 204.592 287.783L218.062 264.346Z" fill="#372D41" stroke="black" stroke-width="2.00689" stroke-miterlimit="10"/>
<rect x="233.715" y="197.005" width="4.10352" height="14.1465" rx="2.05176" transform="rotate(-36.496 233.715 197.005)" fill="#EFEFEF" fill-opacity="0.8"/>
<rect x="239.441" y="226.238" width="4.10352" height="6.75812" rx="2.05176" transform="rotate(-19.2522 239.441 226.238)" fill="#EFEFEF" fill-opacity="0.6"/>
</svg>
