<svg width="272" height="148" viewBox="0 0 272 148" fill="none" xmlns="http://www.w3.org/2000/svg">
<ellipse cx="142.075" cy="134.578" rx="117.835" ry="12.5" fill="black" fill-opacity="0.5"/>
<path d="M226.798 58.3855L243.748 105.486L248.438 104.546L231.338 55.7755L226.798 58.3855Z" fill="#C2C2C3" stroke="black" stroke-width="2" stroke-miterlimit="10"/>
<path d="M228.568 55.4458L217.378 110.516L204.478 113.866L200.008 92.5458L209.138 53.0958L228.568 55.4458Z" fill="#372D41" stroke="black" stroke-width="2" stroke-miterlimit="10"/>
<path d="M171.796 65.4378C181.523 59.9086 185.366 55.7348 187.528 51.6926C187.528 51.6926 172.646 60.4329 166.564 63.5055C153.521 68.3338 157.327 70.379 171.796 65.4378Z" fill="#4E4465" stroke="black" stroke-width="2" stroke-miterlimit="10"/>
<path d="M73.2958 78.0239C73.2958 78.0239 72.7104 78.3753 70.0303 78.6252C70.7674 80.4097 70.9726 81.8861 71.1677 84.5952C71.5488 89.8879 71.7649 95.1842 71.8874 99.5106C73.272 97.9224 74.1451 97.0919 75.3162 95.8143C75.9337 95.1542 77.3817 93.6637 78.7232 92.4925C76.2957 91.1936 76.8938 86.7595 78.3399 85.9341C79.4479 85.3017 81.643 85.7776 83.1097 85.9767C79.6601 84.4649 74.3652 79.5147 73.2958 78.0239Z" fill="#4E4465"/>
<path d="M73.2958 78.0239L74.1084 77.441C73.8049 77.018 73.2276 76.8985 72.7812 77.1665L73.2958 78.0239ZM71.1677 84.5952L70.1703 84.667L71.1677 84.5952ZM83.1097 85.9767L82.9751 86.9676L90.0553 87.9289L83.5111 85.0608L83.1097 85.9767ZM71.8874 99.5106L70.8878 99.5389L70.9602 102.096L72.6411 100.168L71.8874 99.5106ZM70.0303 78.6252L69.9374 77.6295L68.589 77.7553L69.106 79.007L70.0303 78.6252ZM78.3399 85.9341L77.8442 85.0656L78.3399 85.9341ZM78.7232 92.4925L79.3808 93.2458L80.4714 92.2938L79.195 91.6108L78.7232 92.4925ZM75.3162 95.8143L74.5859 95.1311L74.5791 95.1386L75.3162 95.8143ZM70.1703 84.667C70.55 89.9406 70.7655 95.2215 70.8878 99.5389L72.887 99.4823C72.7642 95.1469 72.5476 89.8352 72.1651 84.5234L70.1703 84.667ZM83.5111 85.0608C81.9287 84.3673 79.8357 82.8342 77.9596 81.232C76.0784 79.6254 74.5675 78.0811 74.1084 77.441L72.4833 78.6068C73.0935 79.4575 74.7648 81.1337 76.6608 82.7528C78.5618 84.3764 80.841 86.0742 82.7082 86.8926L83.5111 85.0608ZM73.2958 78.0239C72.7812 77.1665 72.7819 77.166 72.7826 77.1656C72.7829 77.1655 72.7836 77.1651 72.784 77.1648C72.785 77.1642 72.7859 77.1637 72.7868 77.1631C72.7886 77.1621 72.7904 77.161 72.7921 77.16C72.7956 77.158 72.7988 77.1561 72.8019 77.1544C72.8081 77.1509 72.8135 77.1479 72.8182 77.1454C72.8274 77.1405 72.8336 77.1375 72.8362 77.1363C72.8412 77.1339 72.8325 77.1383 72.8066 77.1482C72.7541 77.1681 72.6367 77.2084 72.4279 77.2601C72.0086 77.3638 71.2441 77.5077 69.9374 77.6295L70.1231 79.6209C71.4966 79.4928 72.3648 79.336 72.9082 79.2016C73.1808 79.1341 73.3773 79.071 73.5183 79.0172C73.5891 78.9903 73.6471 78.9653 73.6947 78.9427C73.7185 78.9313 73.7398 78.9206 73.759 78.9103C73.7686 78.9052 73.7776 78.9003 73.7862 78.8954C73.7905 78.893 73.7946 78.8906 73.7987 78.8883C73.8007 78.8871 73.8027 78.8859 73.8046 78.8848C73.8056 78.8842 73.8066 78.8836 73.8075 78.883C73.808 78.8827 73.8087 78.8823 73.809 78.8822C73.8097 78.8817 73.8104 78.8813 73.2958 78.0239ZM69.106 79.007C69.7794 80.6371 69.9768 81.9806 70.1703 84.667L72.1651 84.5234C71.9684 81.7915 71.7554 80.1822 70.9545 78.2434L69.106 79.007ZM78.8356 86.8026C79.1036 86.6496 79.6536 86.5766 80.5161 86.6408C81.3486 86.7028 82.1727 86.8587 82.9751 86.9676L83.2442 84.9858C82.58 84.8956 81.5732 84.714 80.6645 84.6463C79.7857 84.5809 78.6842 84.5862 77.8442 85.0656L78.8356 86.8026ZM79.195 91.6108C78.4659 91.2207 78.0551 90.2667 78.0788 89.0553C78.0901 88.4782 78.2039 87.9268 78.3765 87.4968C78.5607 87.0375 78.7567 86.8476 78.8356 86.8026L77.8442 85.0656C77.2 85.4333 76.779 86.1072 76.5203 86.752C76.2498 87.4262 76.0947 88.2192 76.0792 89.0162C76.0491 90.553 76.553 92.4654 78.2514 93.3742L79.195 91.6108ZM76.0465 96.4975C76.6541 95.8479 78.0759 94.385 79.3808 93.2458L78.0655 91.7392C76.6874 92.9423 75.2133 94.4605 74.5859 95.1312L76.0465 96.4975ZM72.6411 100.168C74.0263 98.579 74.8269 97.828 76.0534 96.49L74.5791 95.1386C73.4632 96.3558 72.5178 97.2657 71.1336 98.8534L72.6411 100.168Z" fill="black"/>
<path d="M177.438 115.062C202.993 110.271 207.109 97.6061 209.25 88.375L203.796 114.14C195.258 114.809 184.075 114.875 177.438 115.062Z" fill="#4E4465"/>
<path d="M209.25 88.375L210.228 88.5821C210.342 88.0455 210.002 87.5175 209.467 87.3987C208.931 87.28 208.4 87.6147 208.276 88.149L209.25 88.375ZM177.438 115.062L177.253 114.08L177.466 116.062L177.438 115.062ZM203.796 114.14L203.874 115.137C204.316 115.102 204.683 114.78 204.774 114.347L203.796 114.14ZM208.276 88.149C207.214 92.7258 205.696 97.9879 201.385 102.709C197.08 107.425 189.883 111.712 177.253 114.08L177.622 116.045C190.547 113.622 198.185 109.181 202.862 104.058C207.534 98.9413 209.144 93.2553 210.224 88.601L208.276 88.149ZM177.466 116.062C184.065 115.876 195.303 115.809 203.874 115.137L203.718 113.143C195.213 113.81 184.085 113.874 177.409 114.063L177.466 116.062ZM204.774 114.347L210.228 88.5821L208.272 88.1679L202.818 113.933L204.774 114.347Z" fill="black"/>
<path d="M242.248 77.4962C226.778 77.4962 214.248 90.2662 214.248 106.026C214.248 121.786 226.788 134.546 242.248 134.546C257.708 134.546 270.248 121.776 270.248 106.026C270.248 90.2762 257.718 77.4962 242.248 77.4962ZM242.248 122.716C238.935 122.776 235.679 121.848 232.895 120.05C230.111 118.253 227.926 115.668 226.616 112.624C225.307 109.58 224.933 106.215 225.543 102.958C226.153 99.7009 227.718 96.6991 230.04 94.3348C232.362 91.9706 235.335 90.3509 238.58 89.6823C241.826 89.0136 245.197 89.3261 248.264 90.58C251.331 91.834 253.956 93.9725 255.803 96.7233C257.651 99.4741 258.638 102.713 258.638 106.026C258.658 108.198 258.25 110.353 257.437 112.367C256.624 114.382 255.422 116.216 253.9 117.766C252.378 119.316 250.566 120.551 248.566 121.4C246.567 122.249 244.42 122.697 242.248 122.716Z" fill="#372D41" stroke="black" stroke-width="2" stroke-miterlimit="10"/>
<path d="M237.998 81.8052C232.888 81.7119 227.865 83.142 223.571 85.9135C219.276 88.685 215.904 92.6722 213.884 97.3672C211.864 102.062 211.287 107.252 212.227 112.276C213.168 117.3 215.582 121.93 219.164 125.577C222.745 129.224 227.331 131.721 232.337 132.752C237.343 133.783 242.543 133.3 247.274 131.365C252.004 129.429 256.052 126.13 258.9 121.886C261.749 117.642 263.269 112.646 263.268 107.535C263.298 104.186 262.669 100.865 261.415 97.7591C260.162 94.6537 258.309 91.8256 255.962 89.4363C253.616 87.047 250.821 85.1434 247.739 83.834C244.657 82.5247 241.347 81.8353 237.998 81.8052ZM237.998 122.595C235.008 122.651 232.069 121.815 229.556 120.194C227.043 118.574 225.069 116.242 223.886 113.495C222.704 110.749 222.365 107.712 222.914 104.773C223.463 101.833 224.875 99.1234 226.97 96.9892C229.064 94.8549 231.747 93.3925 234.676 92.7884C237.604 92.1842 240.647 92.4656 243.415 93.5968C246.183 94.728 248.552 96.6576 250.219 99.1399C251.887 101.622 252.778 104.545 252.778 107.535C252.797 109.495 252.429 111.438 251.696 113.256C250.963 115.073 249.88 116.728 248.507 118.126C247.135 119.525 245.5 120.639 243.697 121.406C241.894 122.173 239.957 122.577 237.998 122.595Z" fill="#4E4465" stroke="black" stroke-width="2" stroke-miterlimit="10"/>
<path d="M40.9375 77.4962C25.4675 77.4962 12.9375 90.2662 12.9375 106.026C12.9375 121.786 25.4775 134.546 40.9375 134.546C56.3975 134.546 68.9375 121.776 68.9375 106.026C68.9375 90.2762 56.3675 77.4962 40.9375 77.4962ZM40.9375 122.716C37.6259 122.768 34.3739 121.833 31.5952 120.031C28.8166 118.228 26.637 115.64 25.3338 112.595C24.0306 109.551 23.6628 106.187 24.2771 102.932C24.8915 99.678 26.4601 96.6798 28.7836 94.3196C31.1071 91.9594 34.0802 90.3438 37.3246 89.6785C40.5691 89.0131 43.9381 89.3281 47.003 90.5833C50.0678 91.8386 52.69 93.9773 54.5356 96.7273C56.3813 99.4773 57.3671 102.714 57.3675 106.026C57.3873 108.202 56.9777 110.36 56.1622 112.376C55.3467 114.393 54.1414 116.23 52.6152 117.78C51.089 119.33 49.2719 120.564 47.2681 121.411C45.2642 122.258 43.113 122.702 40.9375 122.716Z" fill="#372D41" stroke="black" stroke-width="2" stroke-miterlimit="10"/>
<path d="M36.6778 81.8052C31.5675 81.7119 26.5451 83.142 22.2506 85.9135C17.9561 88.685 14.5839 92.6722 12.5637 97.3672C10.5435 102.062 9.96683 107.252 10.9071 112.276C11.8474 117.3 14.2621 121.93 17.8434 125.577C21.4248 129.224 26.0108 131.721 31.0169 132.752C36.023 133.783 41.2227 133.3 45.9534 131.365C50.684 129.429 54.7315 126.13 57.5799 121.886C60.4284 117.642 61.9489 112.646 61.9478 107.535C61.9781 104.186 61.3486 100.865 60.095 97.7591C58.8415 94.6537 56.9885 91.8256 54.642 89.4363C52.2954 87.047 49.5012 85.1434 46.4189 83.834C43.3366 82.5247 40.0265 81.8353 36.6778 81.8052ZM36.6778 122.595C33.6883 122.649 30.7505 121.811 28.2386 120.189C25.7268 118.568 23.7545 116.235 22.5731 113.488C21.3918 110.741 21.0548 107.705 21.605 104.766C22.1553 101.827 23.5678 99.1186 25.6629 96.9853C27.7579 94.8521 30.4405 93.3907 33.369 92.7874C36.2975 92.1841 39.3393 92.4661 42.1069 93.5976C44.8745 94.7291 47.2427 96.6588 48.9098 99.1409C50.5768 101.623 51.4673 104.545 51.4678 107.535C51.4863 109.495 51.1183 111.44 50.3849 113.258C49.6514 115.076 48.567 116.731 47.1935 118.13C45.82 119.529 44.1843 120.643 42.3799 121.409C40.5756 122.175 38.638 122.578 36.6778 122.595Z" fill="#4E4465" stroke="black" stroke-width="2" stroke-miterlimit="10"/>
<path d="M213.258 58.3855L230.208 105.486L234.888 104.546L217.788 55.7755L213.258 58.3855Z" fill="#C2C2C3" stroke="black" stroke-width="2" stroke-miterlimit="10"/>
<path d="M250.828 105.236C250.828 104.293 250.455 103.389 249.789 102.722C249.124 102.055 248.221 101.679 247.278 101.676C246.716 101.68 246.161 101.814 245.658 102.066L231.148 105.896L232.738 113.006L247.368 108.746C248.288 108.725 249.164 108.347 249.81 107.692C250.455 107.037 250.821 106.156 250.828 105.236Z" fill="#757576" stroke="black" stroke-width="2" stroke-miterlimit="10"/>
<path d="M232.118 112.876C234.084 112.876 235.678 111.282 235.678 109.316C235.678 107.35 234.084 105.756 232.118 105.756C230.151 105.756 228.558 107.35 228.558 109.316C228.558 111.282 230.151 112.876 232.118 112.876Z" fill="#757576" stroke="black" stroke-width="2" stroke-miterlimit="10"/>
<path d="M21.8516 56.1211C21.8516 58.8825 24.0275 61.1211 26.7117 61.1211H54.125C54.4155 59.7205 54.7966 57.2858 55.625 56.5446C51.4937 53.2842 49.125 51.1211 49.125 51.1211H26.7117C24.0275 51.1211 21.8516 53.3597 21.8516 56.1211Z" fill="#4E4465"/>
<path d="M49.125 51.1211L49.7993 50.3827L49.5129 50.1211H49.125V51.1211ZM54.125 61.1211V62.1211H54.9389L55.1042 61.3242L54.125 61.1211ZM55.625 56.5446L56.2919 57.2897C56.5119 57.0928 56.6337 56.8088 56.6245 56.5136C56.6154 56.2185 56.4763 55.9425 56.2445 55.7596L55.625 56.5446ZM26.7117 60.1211C24.6064 60.1211 22.8516 58.3572 22.8516 56.1211H20.8516C20.8516 59.4079 23.4487 62.1211 26.7117 62.1211V60.1211ZM22.8516 56.1211C22.8516 53.885 24.6064 52.1211 26.7117 52.1211V50.1211C23.4487 50.1211 20.8516 52.8343 20.8516 56.1211H22.8516ZM26.7117 52.1211H49.125V50.1211H26.7117V52.1211ZM54.125 60.1211H26.7117V62.1211H54.125V60.1211ZM49.125 51.1211C48.4507 51.8595 48.4507 51.8596 48.4508 51.8596C48.4508 51.8597 48.4509 51.8597 48.4509 51.8598C48.4511 51.8599 48.4512 51.86 48.4514 51.8602C48.4518 51.8606 48.4524 51.8611 48.4531 51.8617C48.4545 51.863 48.4564 51.8648 48.459 51.8671C48.464 51.8717 48.4714 51.8784 48.481 51.8871C48.5003 51.9046 48.5287 51.9303 48.5661 51.9639C48.6409 52.0311 48.7515 52.1301 48.8968 52.2588C49.1875 52.5161 49.6169 52.8921 50.1757 53.3701C51.2933 54.3261 52.9285 55.6904 55.0055 57.3295L56.2445 55.7596C54.1902 54.1384 52.5754 52.7909 51.4758 51.8503C50.926 51.38 50.5051 51.0114 50.2225 50.7613C50.0812 50.6362 49.9745 50.5407 49.9036 50.4769C49.8681 50.445 49.8416 50.421 49.8242 50.4052C49.8155 50.3973 49.809 50.3915 49.8049 50.3877C49.8028 50.3858 49.8013 50.3845 49.8004 50.3836C49.7999 50.3832 49.7996 50.3829 49.7994 50.3827C49.7993 50.3827 49.7993 50.3826 49.7993 50.3826C49.7993 50.3826 49.7993 50.3826 49.7993 50.3826C49.7993 50.3826 49.7993 50.3827 49.125 51.1211ZM54.9581 55.7994C54.5952 56.1242 54.3462 56.5668 54.1675 56.9709C53.9816 57.3911 53.8317 57.8633 53.7075 58.3264C53.4624 59.2398 53.282 60.2616 53.1458 60.918L55.1042 61.3242C55.2585 60.58 55.4139 59.6841 55.6392 58.8447C55.75 58.4314 55.8689 58.0685 55.9965 57.7799C56.1313 57.4753 56.2407 57.3356 56.2919 57.2897L54.9581 55.7994Z" fill="black"/>
<path d="M65.8516 19.1205C59.4515 13.9205 47.6667 14.4791 43 15.8125C58.1485 21.4933 59.922 24.4121 67.009 30.8567C67.3802 29.6357 68.1302 27.3857 69.4375 22.0625C68.1464 21.0524 67.1147 20.1468 65.8516 19.1205Z" fill="#372D41" stroke="black" stroke-width="2"/>
<path d="M207.352 1.61509C216.536 3.61509 231.552 12.4397 238.852 43.116C247.852 80.9397 215.168 52.1212 211.352 72.6212C207.536 93.1212 214.256 116.621 155.352 116.621C129.352 116.621 73.3517 115.121 69.3517 107.621C66.9263 103.074 77.0299 94.1353 81.8437 85.5C91 91.4375 104.094 90.625 110.625 93.125C114.188 95 117.75 95.6875 117.625 100.25C117.517 104.172 114.508 107.292 115.25 108.625C115.977 109.932 118.946 110.322 123.007 110.479L151.418 110.035C152.359 110.016 153.112 110.004 153.625 110C159.781 109.188 161 101.469 151.688 98.6875C156.674 96.5745 163.688 93.8125 164.25 80.5C163.375 71.125 156.75 68.5625 154.438 67.625C157.381 67.9663 161.975 67.8524 165.062 67.25C185.562 63.25 196.352 39.1166 196.352 39.1166C196.352 39.1166 196.852 30.6166 192.852 22.1166C188.852 13.6166 198.168 -0.38491 207.352 1.61509Z" fill="#F75E17"/>
<path d="M238.852 43.116L237.879 43.3475L238.852 43.116ZM207.352 1.61509L207.564 0.63799L207.352 1.61509ZM196.352 39.1166L197.265 39.5247L197.339 39.3578L197.35 39.1753L196.352 39.1166ZM69.3517 107.621L68.4693 108.092H68.4693L69.3517 107.621ZM154.438 67.625L154.553 66.6317C154.056 66.574 153.593 66.8926 153.469 67.3773C153.345 67.862 153.598 68.3638 154.062 68.5517L154.438 67.625ZM81.8437 85.5L82.3877 84.661L81.4907 84.0793L80.9702 85.0131L81.8437 85.5ZM110.625 93.125L111.091 92.2401L111.038 92.2124L110.982 92.1911L110.625 93.125ZM153.625 110L153.64 111L153.698 110.999L153.756 110.991L153.625 110ZM123.007 110.479L122.969 111.478L122.984 111.479L122.998 111.479L123.007 110.479ZM151.688 98.6875L151.297 97.7667C150.909 97.9313 150.666 98.3217 150.689 98.7428C150.712 99.1638 150.997 99.525 151.401 99.6457L151.688 98.6875ZM164.25 80.5L165.249 80.5422L165.252 80.4745L165.246 80.4071L164.25 80.5ZM117.625 100.25L116.625 100.223L117.625 100.25ZM115.25 108.625L116.124 108.139L115.25 108.625ZM239.825 42.8845C232.455 11.9121 217.196 2.73553 207.564 0.63799L207.139 2.59219C215.875 4.49465 230.65 12.9674 237.879 43.3475L239.825 42.8845ZM207.564 0.63799C202.393 -0.488174 197.413 2.90091 194.335 7.36025C191.249 11.8299 189.736 17.8441 191.947 22.5423L193.756 21.6908C191.967 17.889 193.112 12.6525 195.981 8.49639C198.857 4.33 203.126 1.71835 207.139 2.59219L207.564 0.63799ZM191.947 22.5423C193.888 26.6664 194.742 30.804 195.108 33.9209C195.292 35.4767 195.352 36.7711 195.367 37.6724C195.375 38.1229 195.371 38.4747 195.366 38.7112C195.363 38.8294 195.36 38.9188 195.357 38.9773C195.356 39.0066 195.355 39.0281 195.354 39.0416C195.354 39.0483 195.354 39.0531 195.353 39.0558C195.353 39.0572 195.353 39.058 195.353 39.0584C195.353 39.0585 195.353 39.0586 195.353 39.0585C195.353 39.0584 195.353 39.0583 195.353 39.0583C195.353 39.0581 195.353 39.0578 196.352 39.1166C197.35 39.1753 197.35 39.175 197.35 39.1747C197.35 39.1745 197.35 39.1742 197.35 39.1739C197.35 39.1733 197.35 39.1725 197.35 39.1717C197.35 39.1699 197.35 39.1677 197.351 39.1649C197.351 39.1594 197.351 39.1519 197.352 39.1423C197.353 39.1231 197.354 39.0958 197.355 39.0607C197.358 38.9906 197.362 38.889 197.365 38.7582C197.371 38.4967 197.375 38.118 197.367 37.6388C197.351 36.6808 197.287 35.3189 197.095 33.6872C196.711 30.4291 195.816 26.0667 193.756 21.6908L191.947 22.5423ZM196.352 39.1166C195.439 38.7084 195.439 38.7082 195.439 38.7081C195.439 38.7082 195.439 38.7082 195.439 38.7084C195.439 38.7087 195.438 38.7094 195.438 38.7105C195.437 38.7127 195.435 38.7163 195.433 38.7213C195.428 38.7313 195.421 38.7471 195.411 38.7684C195.392 38.8109 195.362 38.8756 195.321 38.9612C195.241 39.1322 195.118 39.3863 194.954 39.7129C194.626 40.366 194.134 41.308 193.478 42.4529C192.165 44.7441 190.205 47.8399 187.616 51.0562C182.42 57.5103 174.785 64.334 164.871 66.2685L165.254 68.2315C175.84 66.166 183.85 58.923 189.174 52.3104C191.844 48.9933 193.862 45.8057 195.213 43.447C195.889 42.2668 196.399 41.2921 196.742 40.6099C196.913 40.2687 197.042 40.0004 197.13 39.816C197.173 39.7238 197.206 39.6525 197.229 39.6035C197.24 39.579 197.249 39.56 197.255 39.5469C197.258 39.5403 197.26 39.5351 197.262 39.5314C197.262 39.5296 197.263 39.5281 197.264 39.527C197.264 39.5264 197.264 39.5258 197.264 39.5255C197.264 39.5251 197.265 39.5247 196.352 39.1166ZM68.4693 108.092C68.827 108.762 69.4279 109.319 70.1374 109.791C70.8547 110.268 71.746 110.699 72.7688 111.094C74.8139 111.884 77.4974 112.571 80.6317 113.174C86.9074 114.38 95.1401 115.274 104.028 115.931C121.812 117.246 142.339 117.621 155.352 117.621V115.621C142.364 115.621 121.891 115.246 104.175 113.936C95.3132 113.281 87.171 112.394 81.0092 111.21C77.9247 110.617 75.3738 109.956 73.4893 109.228C72.5472 108.865 71.7998 108.495 71.2447 108.125C70.6817 107.751 70.3764 107.418 70.234 107.151L68.4693 108.092ZM155.352 117.621C184.859 117.621 198.355 111.751 204.817 102.898C208.033 98.4939 209.425 93.4535 210.262 88.3051C210.681 85.7329 210.964 83.1049 211.259 80.5107C211.556 77.9058 211.865 75.3281 212.335 72.8042L210.369 72.4382C209.884 75.0393 209.569 77.6804 209.272 80.2845C208.975 82.8993 208.697 85.4705 208.288 87.9842C207.471 93.0077 206.147 97.686 203.202 101.719C197.345 109.742 184.749 115.621 155.352 115.621V117.621ZM212.335 72.8042C212.784 70.3915 213.638 68.7985 214.707 67.7243C215.777 66.6485 217.14 66.015 218.742 65.6575C220.356 65.2974 222.167 65.2273 224.091 65.2498C225.954 65.2716 228.041 65.3864 229.919 65.3649C233.693 65.3219 237.571 64.7542 239.733 61.3348C240.794 59.6585 241.369 57.4004 241.41 54.4164C241.452 51.4317 240.96 47.6568 239.825 42.8845L237.879 43.3475C238.993 48.0312 239.449 51.6296 239.411 54.3887C239.372 57.1485 238.841 59.0045 238.043 60.2657C236.49 62.7214 233.645 63.3223 229.896 63.3651C228.013 63.3866 226.138 63.2736 224.115 63.2499C222.152 63.2269 220.153 63.2936 218.306 63.7056C216.448 64.1202 214.702 64.8941 213.289 66.3138C211.875 67.7351 210.873 69.7259 210.369 72.4382L212.335 72.8042ZM164.871 66.2685C161.893 66.8495 157.403 66.9621 154.553 66.6317L154.322 68.6183C157.359 68.9704 162.057 68.8552 165.254 68.2315L164.871 66.2685ZM80.9702 85.0131C78.6016 89.2621 74.967 93.529 72.0743 97.5052C70.6563 99.4544 69.4113 101.346 68.6823 103.071C67.9623 104.775 67.6474 106.551 68.4693 108.092L70.234 107.151C69.8433 106.418 69.8818 105.371 70.5245 103.85C71.1582 102.35 72.2852 100.615 73.6917 98.6818C76.4479 94.8931 80.272 90.3732 82.7171 85.9869L80.9702 85.0131ZM110.982 92.1911C109.247 91.5266 107.116 91.0961 104.819 90.7266C103.664 90.5408 102.449 90.3679 101.204 90.1894C99.957 90.0106 98.6775 89.8257 97.3793 89.6145C92.1676 88.7667 86.7813 87.51 82.3877 84.661L81.2996 86.339C86.0624 89.4275 91.8011 90.7333 97.0581 91.5886C98.3772 91.8032 99.6738 91.9904 100.92 92.1692C102.17 92.3484 103.367 92.5187 104.501 92.7012C106.782 93.068 108.738 93.4734 110.267 94.0589L110.982 92.1911ZM153.617 109C153.098 109.004 152.34 109.017 151.399 109.035L151.438 111.034C152.378 111.016 153.126 111.004 153.633 111L153.617 109ZM151.399 109.035C145.04 109.158 130.208 109.547 123.017 109.479L122.998 111.479C130.227 111.547 145.117 111.156 151.438 111.034L151.399 109.035ZM123.023 111.479L151.434 111.034L151.403 109.035L122.992 109.479L123.023 111.479ZM151.434 111.034L153.64 111L153.609 109L151.403 109.035L151.434 111.034ZM151.401 99.6457C155.839 100.971 157.391 103.34 157.458 105.12C157.524 106.883 156.166 108.656 153.494 109.009L153.756 110.991C157.24 110.532 159.569 108.039 159.456 105.044C159.344 102.067 156.848 99.1851 151.974 97.7293L151.401 99.6457ZM154.062 68.5517C155.216 69.0195 157.292 69.8373 159.198 71.6274C161.081 73.3955 162.84 76.156 163.254 80.5929L165.246 80.4071C164.785 75.469 162.794 72.2608 160.567 70.1695C158.364 68.1002 155.972 67.168 154.813 66.6983L154.062 68.5517ZM163.251 80.4578C162.977 86.9303 161.147 90.7031 158.897 93.1108C156.617 95.5509 153.818 96.6988 151.297 97.7667L152.078 99.6083C154.544 98.5631 157.745 97.2735 160.359 94.4763C163.003 91.6466 164.96 87.3822 165.249 80.5422L163.251 80.4578ZM110.159 94.0099C111.071 94.4898 112.01 94.9075 112.807 95.2894C113.631 95.6843 114.334 96.055 114.913 96.4837C115.483 96.9048 115.908 97.3646 116.193 97.9271C116.477 98.4885 116.653 99.2166 116.625 100.223L118.625 100.277C118.66 99.0021 118.437 97.9334 117.977 97.0241C117.518 96.1159 116.854 95.4312 116.103 94.8757C115.362 94.3278 114.514 93.8899 113.672 93.486C112.802 93.0691 111.96 92.6977 111.091 92.2401L110.159 94.0099ZM116.625 100.223C116.578 101.953 115.888 103.543 115.213 104.984C114.892 105.669 114.547 106.378 114.344 106.991C114.154 107.563 113.968 108.379 114.376 109.111L116.124 108.139C116.16 108.204 116.073 108.13 116.242 107.62C116.398 107.151 116.672 106.584 117.024 105.832C117.696 104.399 118.564 102.469 118.625 100.277L116.625 100.223ZM114.376 109.111C114.69 109.675 115.201 110.063 115.749 110.338C116.3 110.614 116.958 110.813 117.673 110.962C119.102 111.261 120.931 111.4 122.969 111.478L123.046 109.479C121.022 109.402 119.336 109.267 118.083 109.005C117.457 108.874 116.984 108.72 116.646 108.55C116.306 108.38 116.174 108.229 116.124 108.139L114.376 109.111Z" fill="black"/>
<path d="M26.099 21.9628L25.639 22.4885L25.9743 23.1013C33.9284 37.6381 44.3693 47.9215 54.7743 55.853L55.6216 56.4989L56.2126 55.6124C56.7676 54.7799 57.6612 53.5408 58.814 52.418C59.9751 51.2871 61.3319 50.3403 62.8037 49.9859L63.488 49.8212L63.5639 49.1216C64.0243 44.8769 64.4684 42.6945 65.0061 40.3847C65.0924 40.0141 65.1813 39.6394 65.2732 39.252C65.7605 37.1978 66.3326 34.7864 67.0473 30.7363L67.1538 30.1329L66.6646 29.7641C64.0431 27.7872 61.8292 25.9205 59.7838 24.1958C59.6035 24.0438 59.4244 23.8928 59.2465 23.743C57.0601 21.9013 55.0326 20.2174 52.9091 18.7911C48.0704 15.5411 41.617 16.0527 36.4369 17.4036C33.8151 18.0874 31.4449 19.0051 29.6503 19.8395C28.7531 20.2567 27.9908 20.6572 27.4067 21.0028C27.1151 21.1753 26.8598 21.3389 26.6507 21.4883C26.4566 21.627 26.2507 21.7894 26.099 21.9628Z" fill="#F75E17" stroke="black" stroke-width="2" stroke-miterlimit="10"/>
<path d="M179.944 28.814L179.685 29.9265L180.822 30.0366C181.088 30.0623 181.248 30.0632 181.365 30.0638C181.38 30.0639 181.395 30.064 181.41 30.0641C181.489 30.0649 181.569 30.0663 181.78 30.0987C184.234 30.4763 186.316 31.1488 188.034 32.3115C189.739 33.4653 191.149 35.1437 192.197 37.639C193.374 40.4393 196.598 41.7555 199.398 40.5787C202.199 39.4019 203.515 36.1778 202.338 33.3775C198.186 23.4977 189.317 20.1093 182.575 19.072C182.294 19.0288 182.057 18.9911 181.848 18.9581C180.766 18.7867 180.476 18.7408 179.145 18.7089L177.183 18.6619L178.298 20.277C179.062 21.3825 179.63 22.8837 179.926 24.4588C180.221 26.035 180.228 27.599 179.944 28.814Z" fill="#99AFBF" stroke="black" stroke-width="2" stroke-miterlimit="10" stroke-linecap="round"/>
<path d="M232.351 24.1154C230.351 33.3154 214.313 31.579 204.479 30.079C199.479 18.579 192.351 0.61638 206.851 1.61539C217.729 2.3648 228.351 15.1154 232.351 24.1154Z" fill="#ADA6D0" stroke="black" stroke-width="2"/>
<path d="M231.773 32.0353C231.773 32.0353 231.773 37.7753 220.375 36.4553C208.977 35.1353 209.388 40.4553 209.388 40.4553C209.388 40.4553 207.275 46.1953 216.148 49.2953C225.022 52.3953 233.466 51.0553 235.158 49.2953C236.851 47.5353 240.647 32.4753 231.773 32.0353Z" fill="#FFCA55" stroke="black" stroke-width="2" stroke-miterlimit="10"/>
<path d="M73.7172 78.5592L35.3877 103.596L38.4777 107.566L77.5872 82.2045L75.4899 80.3319L73.7172 78.5592Z" fill="#5A6369" stroke="black" stroke-width="2" stroke-miterlimit="10"/>
<path d="M13.9886 70.3661C11.3625 67.529 6.9336 67.358 4.09649 69.9842C1.25939 72.6104 1.08839 77.0392 3.71456 79.8763L31.1046 109.466C33.7307 112.303 38.1596 112.474 40.9967 109.848C43.8338 107.222 44.0048 102.793 41.3786 99.9561L13.9886 70.3661Z" fill="#99AFBF" stroke="black" stroke-width="2" stroke-miterlimit="10" stroke-linecap="round"/>
<path d="M30.0516 95.8812L9.85156 74.1212" stroke="white" stroke-width="4" stroke-miterlimit="10" stroke-linecap="round"/>
<path d="M82.375 85.625L78.9693 85.6154C77.7997 85.6154 76.8516 87.18 76.8516 89.1101V89.1206C76.8516 91.0507 77.7997 92.6154 78.9693 92.6154H108.875C110.045 92.6154 103.915 91.2368 94.1647 89.9868C87.5001 88.4396 83.888 86.6641 82.375 85.625Z" fill="#372D41" stroke="black" stroke-width="2" stroke-miterlimit="10"/>
<path d="M76.8516 101.121C76.8516 103.051 77.7997 104.615 78.9693 104.615H116.296C117.281 102.75 117.366 101.864 117.594 101C117.737 99.9817 117.922 99.3719 117.142 97.6154H78.9693C77.7997 97.6154 76.8516 99.18 76.8516 101.11V101.121Z" fill="#372D41"/>
<path d="M117.142 97.6154L118.056 97.2094C117.895 96.8482 117.537 96.6154 117.142 96.6154V97.6154ZM116.296 104.615V105.615C116.667 105.615 117.007 105.41 117.18 105.082L116.296 104.615ZM117.594 101L118.561 101.255L118.576 101.198L118.584 101.139L117.594 101ZM78.9693 103.615C78.8689 103.615 78.6119 103.544 78.3271 103.074C78.0534 102.622 77.8516 101.934 77.8516 101.121H75.8516C75.8516 102.238 76.1238 103.297 76.6166 104.11C77.0982 104.905 77.9002 105.615 78.9693 105.615V103.615ZM77.8516 101.121V101.11H75.8516V101.121H77.8516ZM77.8516 101.11C77.8516 100.297 78.0534 99.6089 78.3271 99.1572C78.6119 98.6871 78.8689 98.6154 78.9693 98.6154V96.6154C77.9002 96.6154 77.0982 97.3259 76.6166 98.1207C76.1238 98.9338 75.8516 99.9932 75.8516 101.11H77.8516ZM78.9693 98.6154H117.142V96.6154H78.9693V98.6154ZM116.296 103.615H78.9693V105.615H116.296V103.615ZM116.627 100.745C116.384 101.663 116.33 102.41 115.412 104.148L117.18 105.082C118.232 103.09 118.347 102.066 118.561 101.255L116.627 100.745ZM116.228 98.0213C116.59 98.8355 116.694 99.3083 116.716 99.651C116.741 100.018 116.684 100.286 116.603 100.861L118.584 101.139C118.646 100.696 118.754 100.15 118.712 99.5181C118.668 98.8621 118.475 98.1517 118.056 97.2094L116.228 98.0213Z" fill="black"/>
<path d="M199.198 78.3965C199.809 77.3346 199.443 75.9791 198.381 75.3688C197.319 74.7585 195.963 75.1246 195.353 76.1865L181.883 99.6243C181.273 100.686 181.639 102.042 182.701 102.652C183.763 103.262 185.118 102.896 185.728 101.834L199.198 78.3965Z" fill="#372D41" stroke="black" stroke-width="2.00689" stroke-miterlimit="10"/>
<rect x="214.852" y="11.056" width="4.10352" height="14.1465" rx="2.05176" transform="rotate(-36.496 214.852 11.056)" fill="#EFEFEF" fill-opacity="0.8"/>
<rect x="220.578" y="40.2892" width="4.10352" height="6.75812" rx="2.05176" transform="rotate(-19.2522 220.578 40.2892)" fill="#EFEFEF" fill-opacity="0.6"/>
</svg>
