<svg width="361" height="340" viewBox="0 0 361 340" fill="none" xmlns="http://www.w3.org/2000/svg">
<ellipse cx="172.493" cy="312.517" rx="155.475" ry="12.5" fill="black" fill-opacity="0.5"/>
<path fill-rule="evenodd" clip-rule="evenodd" d="M33.1447 201.578C24.9922 204.115 11.7852 216.495 21.3654 247.061C33.5324 285.88 48.8538 302.517 76.7929 302.517H93.4662H150.246H279.576C299.153 301.9 336.038 289.947 326.966 247.061C326.938 245.465 326.481 243.816 325.541 242.131C324.253 239.824 322.9 237.577 321.485 235.401C308.535 215.484 290.381 201.463 269.663 201.463C251.277 164.986 237.217 154.018 225.951 154.018H170.524C139.16 154.018 153.851 185.648 165.116 201.463H152.048H87.608H33.9424C33.6703 201.463 33.4045 201.497 33.1447 201.578ZM177.734 201.464C171.125 192.632 159.349 173.366 165.117 166.958C169.545 162.038 201.475 163.11 217.843 163.659C221.462 163.781 224.32 163.877 225.952 163.877C237.371 163.877 251.325 185.342 257.382 197.37C258.348 199.29 256.923 201.464 254.774 201.464H177.734Z" fill="#FF3434"/>
<path d="M21.3654 247.061L22.3196 246.761L21.3654 247.061ZM33.1447 201.578L32.8476 200.623H32.8476L33.1447 201.578ZM279.576 302.517V303.517C279.587 303.517 279.597 303.516 279.608 303.516L279.576 302.517ZM326.966 247.061L325.967 247.078C325.968 247.142 325.975 247.205 325.988 247.267L326.966 247.061ZM325.541 242.131L324.667 242.618V242.618L325.541 242.131ZM321.485 235.401L322.323 234.856L321.485 235.401ZM269.663 201.463L268.77 201.913C268.94 202.251 269.285 202.463 269.663 202.463V201.463ZM165.116 201.463V202.463C165.491 202.463 165.834 202.254 166.005 201.921C166.177 201.589 166.148 201.188 165.931 200.883L165.116 201.463ZM165.117 166.958L164.373 166.289L165.117 166.958ZM177.734 201.464L176.934 202.063C177.123 202.315 177.419 202.464 177.734 202.464V201.464ZM217.843 163.659L217.876 162.66L217.843 163.659ZM257.382 197.37L256.488 197.82L257.382 197.37ZM269.663 245.178L269.692 244.178L269.663 245.178ZM312.274 242.131L311.987 241.173H311.987L312.274 242.131ZM322.459 235.629C322.585 235.091 322.251 234.553 321.713 234.427C321.176 234.301 320.637 234.635 320.511 235.173L322.459 235.629ZM327.966 247.043C327.957 246.491 327.501 246.051 326.949 246.061C326.397 246.07 325.957 246.526 325.967 247.078L327.966 247.043ZM152.77 202.156C153.152 201.757 153.139 201.124 152.741 200.742C152.342 200.359 151.709 200.372 151.327 200.771L152.77 202.156ZM149.267 302.723C149.381 303.263 149.911 303.609 150.452 303.495C150.992 303.381 151.338 302.851 151.224 302.311L149.267 302.723ZM92.5521 302.922C92.7761 303.427 93.3669 303.655 93.8717 303.431C94.3765 303.207 94.6043 302.616 94.3803 302.111L92.5521 302.922ZM88.5938 201.631C88.6866 201.087 88.3204 200.57 87.776 200.478C87.2316 200.385 86.715 200.751 86.6222 201.295L88.5938 201.631ZM165.116 200.463C164.564 200.463 164.116 200.911 164.116 201.463C164.116 202.016 164.564 202.463 165.116 202.463V200.463ZM177.734 202.463C178.286 202.463 178.734 202.016 178.734 201.463C178.734 200.911 178.286 200.463 177.734 200.463V202.463ZM217.876 162.66C217.324 162.641 216.861 163.073 216.843 163.625C216.824 164.177 217.257 164.64 217.809 164.658L217.876 162.66ZM225.951 164.876C226.504 164.876 226.951 164.429 226.951 163.876C226.951 163.324 226.504 162.876 225.951 162.876V164.876ZM269.663 202.463C270.215 202.463 270.663 202.016 270.663 201.463C270.663 200.911 270.215 200.463 269.663 200.463V202.463ZM254.828 200.463C254.275 200.463 253.828 200.911 253.828 201.463C253.828 202.016 254.275 202.463 254.828 202.463V200.463ZM258.287 196.945C258.038 196.451 257.437 196.252 256.944 196.501C256.451 196.749 256.252 197.35 256.5 197.843L258.287 196.945ZM165.117 200.464C164.564 200.464 164.117 200.911 164.117 201.464C164.117 202.016 164.564 202.464 165.117 202.464V200.464ZM177.734 202.464C178.287 202.464 178.734 202.016 178.734 201.464C178.734 200.911 178.287 200.464 177.734 200.464V202.464ZM22.3196 246.761C17.5792 231.637 18.5207 221.158 21.5234 214.205C24.5289 207.244 29.6389 203.716 33.4419 202.533L32.8476 200.623C28.498 201.976 22.9283 205.906 19.6872 213.412C16.4433 220.924 15.5714 231.918 20.4112 247.36L22.3196 246.761ZM76.7929 301.517C63.0537 301.517 52.5088 297.44 43.8784 288.645C35.2014 279.804 28.3875 266.121 22.3196 246.761L20.4112 247.36C26.5103 266.819 33.4406 280.865 42.4509 290.046C51.5077 299.275 62.593 303.517 76.7929 303.517V301.517ZM93.4662 301.517H76.7929V303.517H93.4662V301.517ZM150.246 301.517H93.4662V303.517H150.246V301.517ZM279.576 301.517H150.246V303.517H279.576V301.517ZM325.988 247.267C328.225 257.843 327.616 266.443 325.197 273.403C322.779 280.363 318.531 285.747 313.39 289.859C303.078 298.107 289.198 301.213 279.545 301.517L279.608 303.516C289.532 303.204 303.882 300.025 314.639 291.421C320.033 287.107 324.528 281.423 327.086 274.06C329.644 266.698 330.244 257.721 327.945 246.854L325.988 247.267ZM324.667 242.618C325.538 244.178 325.942 245.668 325.967 247.078L327.966 247.043C327.935 245.262 327.424 243.453 326.414 241.644L324.667 242.618ZM320.647 235.946C322.049 238.103 323.391 240.331 324.667 242.618L326.414 241.644C325.116 239.318 323.751 237.052 322.323 234.856L320.647 235.946ZM269.663 202.463C289.9 202.463 307.787 216.169 320.647 235.946L322.323 234.856C309.283 214.8 290.861 200.463 269.663 200.463V202.463ZM225.951 155.018C231.226 155.018 237.317 157.576 244.426 164.764C251.542 171.96 259.598 183.716 268.77 201.913L270.556 201.013C261.342 182.733 253.175 170.766 245.848 163.358C238.515 155.943 231.943 153.018 225.951 153.018V155.018ZM170.524 155.018H225.951V153.018H170.524V155.018ZM165.931 200.883C160.325 193.014 153.958 181.322 152.827 171.693C152.264 166.896 153.019 162.785 155.61 159.872C158.201 156.959 162.828 155.018 170.524 155.018V153.018C162.538 153.018 157.24 155.03 154.116 158.542C150.993 162.054 150.244 166.839 150.841 171.926C152.031 182.067 158.642 194.097 164.302 202.044L165.931 200.883ZM152.048 202.463H165.116V200.463H152.048V202.463ZM87.608 202.463H152.048V200.463H87.608V202.463ZM33.9424 202.463H87.608V200.463H33.9424V202.463ZM33.4419 202.533C33.5898 202.486 33.7532 202.463 33.9424 202.463V200.463C33.5875 200.463 33.2193 200.507 32.8476 200.623L33.4419 202.533ZM164.373 166.289C162.637 168.217 162.323 170.993 162.735 173.949C163.15 176.93 164.331 180.315 165.873 183.715C168.962 190.523 173.602 197.611 176.934 202.063L178.535 200.865C175.257 196.485 170.705 189.523 167.695 182.889C166.188 179.567 165.093 176.382 164.716 173.673C164.335 170.938 164.712 168.902 165.86 167.627L164.373 166.289ZM217.876 162.66C209.698 162.385 197.593 161.979 186.976 162.258C181.67 162.397 176.705 162.709 172.773 163.301C170.808 163.596 169.072 163.966 167.668 164.432C166.294 164.887 165.106 165.475 164.373 166.289L165.86 167.627C166.235 167.21 167.013 166.756 168.297 166.33C169.551 165.915 171.163 165.565 173.071 165.278C176.882 164.705 181.752 164.396 187.029 164.257C197.576 163.98 209.62 164.384 217.809 164.659L217.876 162.66ZM225.952 162.877C224.341 162.877 221.505 162.782 217.876 162.66L217.809 164.659C221.418 164.78 224.298 164.877 225.952 164.877V162.877ZM258.275 196.921C255.223 190.859 250.182 182.418 244.449 175.476C241.583 172.006 238.519 168.879 235.419 166.612C232.332 164.354 229.111 162.877 225.952 162.877V164.877C228.503 164.877 231.308 166.083 234.238 168.226C237.155 170.359 240.1 173.35 242.907 176.75C248.52 183.547 253.484 191.853 256.488 197.82L258.275 196.921ZM254.774 202.464C257.617 202.464 259.598 199.549 258.275 196.921L256.488 197.82C257.098 199.03 256.228 200.464 254.774 200.464V202.464ZM177.734 202.464H254.774V200.464H177.734V202.464ZM167.351 202.463C177.819 202.662 205.029 210.903 228.299 242.721L229.913 241.541C206.317 209.277 178.55 200.675 167.389 200.464L167.351 202.463ZM228.987 243.124C239.866 244.426 254.864 245.736 269.633 246.177L269.692 244.178C254.993 243.739 240.055 242.434 229.225 241.138L228.987 243.124ZM228.299 242.721C237.233 254.938 250.776 261.944 264.935 265.157L265.378 263.206C251.539 260.067 238.483 253.26 229.913 241.541L228.299 242.721ZM268.664 245.222C268.81 248.553 268.767 253.437 268.178 257.365C267.882 259.344 267.46 260.987 266.909 262.062C266.634 262.597 266.364 262.919 266.129 263.087C265.925 263.234 265.736 263.279 265.497 263.234L265.13 265.2C265.936 265.351 266.676 265.158 267.296 264.711C267.886 264.287 268.336 263.661 268.688 262.974C269.391 261.604 269.851 259.7 270.156 257.661C270.771 253.556 270.811 248.53 270.662 245.134L268.664 245.222ZM265.497 263.234C265.47 263.229 265.442 263.223 265.412 263.215L264.901 265.148C264.977 265.169 265.053 265.186 265.13 265.2L265.497 263.234ZM269.633 246.177C286.178 246.671 302.585 246.08 312.561 243.089L311.987 241.173C302.356 244.061 286.249 244.672 269.692 244.178L269.633 246.177ZM312.561 243.089C315.187 242.302 317.427 241.332 319.121 240.131C320.82 238.927 322.033 237.443 322.459 235.629L320.511 235.173C320.232 236.364 319.41 237.475 317.965 238.499C316.515 239.527 314.502 240.419 311.987 241.173L312.561 243.089ZM264.936 265.157L265.093 265.193L265.534 263.242L265.377 263.206L264.936 265.157ZM265.094 265.193C276.229 267.696 287.783 267.871 297.881 266.373C307.955 264.879 316.688 261.702 322.106 257.407L320.864 255.84C315.828 259.832 307.483 262.927 297.587 264.395C287.716 265.859 276.411 265.687 265.533 263.241L265.094 265.193ZM322.106 257.407C325.764 254.507 328.036 250.987 327.966 247.043L325.967 247.078C326.021 250.161 324.257 253.15 320.864 255.84L322.106 257.407ZM311.345 242.501C312.216 244.693 313.728 248.055 315.44 251.037C316.295 252.527 317.215 253.946 318.144 255.083C319.048 256.189 320.062 257.155 321.132 257.559L321.838 255.687C321.286 255.479 320.552 254.869 319.693 253.818C318.86 252.798 318.001 251.481 317.174 250.041C315.522 247.163 314.05 243.891 313.203 241.762L311.345 242.501ZM151.327 200.771C149.602 202.568 147.785 205.799 146.228 210.565C144.664 215.351 143.34 221.756 142.647 229.97C141.263 246.399 142.403 270.119 149.267 302.723L151.224 302.311C144.389 269.846 143.276 246.326 144.64 230.138C145.322 222.044 146.623 215.796 148.129 211.186C149.642 206.555 151.34 203.645 152.77 202.156L151.327 200.771ZM94.3803 302.111C88.9123 289.784 79.9704 252.236 88.5938 201.631L86.6222 201.295C77.9414 252.237 86.9046 290.191 92.5521 302.922L94.3803 302.111ZM165.116 202.463H167.37V200.463H165.116V202.463ZM177.734 200.463H167.37V202.463H177.734V200.463ZM217.809 164.658C221.418 164.78 224.298 164.876 225.951 164.876V162.876C224.341 162.876 221.505 162.781 217.876 162.66L217.809 164.658ZM269.663 200.463H259.298V202.463H269.663V200.463ZM259.298 200.463H254.828V202.463H259.298V200.463ZM256.5 197.843C257.263 199.36 257.896 200.718 258.377 201.854L260.219 201.073C259.716 199.888 259.065 198.491 258.287 196.945L256.5 197.843ZM165.117 202.464H167.37V200.464H165.117V202.464ZM177.734 200.464H167.37V202.464H177.734V200.464Z" fill="black"/>
<path d="M325.808 242.735C326.549 244.246 326.938 246.132 326.966 247.427C327.022 249.959 325.47 253.2 322.654 255.482C321.969 256.038 321.015 256.165 320.329 255.611C318.077 253.792 315.533 249.122 313.746 245.559C312.911 243.894 313.824 241.89 315.497 241.075C317.619 240.042 319.409 238.733 320.543 237.446C321.014 236.911 321.905 236.845 322.341 237.408C323.549 238.966 324.861 240.804 325.808 242.735Z" fill="#6BFFE9"/>
<path d="M266.891 245.812C254.213 245.323 241.666 243.655 231.821 242.62C230.914 242.525 230.385 243.586 231.022 244.24C239.756 253.208 252.334 261.2 265.424 263.61C269.132 264.405 269.818 254.884 269.749 248.668C269.732 247.102 268.455 245.872 266.891 245.812Z" fill="#6BFFE9"/>
<path d="M325.808 242.735C326.549 244.246 326.938 246.132 326.966 247.427C327.022 249.959 325.47 253.2 322.654 255.482C321.969 256.038 321.015 256.165 320.329 255.611C318.077 253.792 315.533 249.122 313.746 245.559C312.911 243.894 313.824 241.89 315.497 241.075C317.619 240.042 319.409 238.733 320.543 237.446C321.014 236.911 321.905 236.845 322.341 237.408C323.549 238.966 324.861 240.804 325.808 242.735Z" stroke="black" stroke-width="2" stroke-linecap="round" stroke-linejoin="round"/>
<path d="M266.891 245.812C254.213 245.323 241.666 243.655 231.821 242.62C230.914 242.525 230.385 243.586 231.022 244.24C239.756 253.208 252.334 261.2 265.424 263.61C269.132 264.405 269.818 254.884 269.749 248.668C269.732 247.102 268.455 245.872 266.891 245.812Z" stroke="black" stroke-width="2" stroke-linecap="round" stroke-linejoin="round"/>
<path d="M85.7406 302.597C74.4745 292.569 87.1551 244.017 56.5151 244.017C49.6055 244.017 35.7861 250.917 35.7861 278.517C35.7861 305.56 45.0161 314.65 49.91 315.946C50.1084 315.999 50.3051 316.017 50.5104 316.017H76.7935C85.1738 316.017 88.1427 309.592 88.8063 305.04C88.9683 303.929 88.0501 303.017 86.927 303.017C86.4917 303.017 86.0658 302.886 85.7406 302.597Z" fill="#D9D9D9" stroke="black" stroke-width="2" stroke-linecap="round" stroke-linejoin="round"/>
<ellipse cx="55.1625" cy="280.517" rx="13.5189" ry="27.5" fill="#7D7D7D" stroke="black" stroke-width="2" stroke-linecap="round" stroke-linejoin="round"/>
<ellipse cx="59.6688" cy="280.517" rx="9.0126" ry="17.5" fill="#FBFBFB" stroke="black" stroke-width="2" stroke-linecap="round" stroke-linejoin="round"/>
<path d="M126.813 316.017C122.64 316.017 119.272 310.459 117.331 305.776C116.566 303.931 117.993 302.017 119.99 302.017H158.512C160.169 302.017 161.545 303.372 161.244 305.001C160.121 311.078 155.723 314.548 153.014 315.797C152.677 315.953 152.31 316.017 151.939 316.017H126.813Z" fill="#7D7D7D" stroke="black" stroke-width="2" stroke-linecap="round" stroke-linejoin="round"/>
<path d="M254.341 316.017C250.169 316.017 246.801 310.459 244.859 305.776C244.094 303.931 245.521 302.017 247.519 302.017H286.04C287.697 302.017 289.074 303.372 288.772 305.001C287.65 311.078 283.251 314.548 280.543 315.797C280.205 315.953 279.838 316.017 279.467 316.017H254.341Z" fill="#7D7D7D" stroke="black" stroke-width="2" stroke-linecap="round" stroke-linejoin="round"/>
<path d="M167.223 316.017H193.506C196.555 316.017 204.24 315.55 205.966 303.336C206.084 302.499 205.795 301.671 205.28 301.001C193.788 286.031 199.367 244.517 172.777 244.517C165.868 244.517 152.499 250.917 152.499 278.517C152.499 305.56 161.729 314.65 166.623 315.946C166.821 315.999 167.018 316.017 167.223 316.017Z" fill="#D9D9D9" stroke="black" stroke-width="2" stroke-linecap="round" stroke-linejoin="round"/>
<ellipse cx="171.876" cy="280.517" rx="13.5189" ry="27.5" fill="#7D7D7D" stroke="black" stroke-width="2" stroke-linecap="round" stroke-linejoin="round"/>
<ellipse cx="176.383" cy="280.517" rx="9.0126" ry="17.5" fill="#FBFBFB" stroke="black" stroke-width="2" stroke-linecap="round" stroke-linejoin="round"/>
<path d="M137.628 184.517C146.641 184.517 149.495 193.184 149.795 197.517L157.456 206.517C158.507 208.017 159.529 212.617 155.203 219.017C149.795 227.017 144.838 218.017 146.641 214.017C148.083 210.817 144.538 209.413 142.585 209.112C141.04 209.718 139.351 210.017 137.628 210.017C131.319 210.017 115.097 211.017 115.097 197.517C115.097 184.017 126.362 184.517 137.628 184.517Z" fill="#FF3434"/>
<path d="M149.795 197.517C149.495 193.184 146.641 184.517 137.628 184.517C126.362 184.517 115.097 184.017 115.097 197.517C115.097 211.017 131.319 210.017 137.628 210.017C139.351 210.017 141.04 209.718 142.585 209.112M149.795 197.517L157.456 206.517C158.507 208.017 159.529 212.617 155.203 219.017C149.795 227.017 144.838 218.017 146.641 214.017C148.083 210.817 144.538 209.413 142.585 209.112M149.795 197.517C149.795 203.696 146.699 207.497 142.585 209.112" stroke="black" stroke-width="2" stroke-linecap="round" stroke-linejoin="round"/>
<path d="M165.084 166.87C159.316 173.366 170.925 192.36 177.534 201.313H257.604C258.318 201.313 258.796 200.597 258.502 199.946C253.444 188.727 238.387 163.933 226.034 163.933C217.022 163.933 170.491 160.779 165.084 166.87Z" fill="white" fill-opacity="0.5"/>
<path d="M221.666 168.091C221.843 167.776 222.176 167.581 222.537 167.581H229.255C230.02 167.581 230.502 168.405 230.126 169.071L213.677 198.305C213.5 198.619 213.167 198.814 212.806 198.814H206.088C205.323 198.814 204.841 197.991 205.217 197.324L221.666 168.091Z" fill="white"/>
<path d="M206.344 168.091C206.522 167.776 206.855 167.581 207.216 167.581H213.934C214.699 167.581 215.18 168.405 214.805 169.071L198.356 198.305C198.179 198.619 197.846 198.814 197.484 198.814H190.767C190.002 198.814 189.52 197.991 189.895 197.324L206.344 168.091Z" fill="white"/>
<path d="M50.5042 186.022L54.9819 199.713C55.3853 200.946 56.5358 201.781 57.8333 201.781H86.5875C87.8555 201.781 88.989 200.979 89.4113 199.783C93.2162 189.01 94.5046 184.377 96.0656 179.845C96.2572 179.289 96.3134 178.679 96.0725 178.142C95.2834 176.385 92.9562 174.225 84.9491 174.225H59.0558C52.9342 174.225 48.6012 180.204 50.5042 186.022Z" fill="#826666"/>
<path d="M70.5289 184.245C72.031 186.472 75.3056 192.011 76.3871 196.353M84.9491 174.225C79.031 174.225 68.0709 174.225 59.0558 174.225C52.9342 174.225 48.6012 180.204 50.5042 186.022L54.9819 199.713C55.3853 200.946 56.5358 201.781 57.8333 201.781H86.5875C87.8555 201.781 88.989 200.979 89.4113 199.783C93.2162 189.01 94.5046 184.377 96.0656 179.845C96.2572 179.289 96.3134 178.679 96.0725 178.142C95.2834 176.385 92.9562 174.225 84.9491 174.225Z" stroke="black" stroke-width="2" stroke-linecap="round" stroke-linejoin="round"/>
</svg>
