<svg width="348" height="173" viewBox="0 0 348 173" fill="none" xmlns="http://www.w3.org/2000/svg">
<ellipse cx="169.73" cy="159.987" rx="168" ry="12.5" fill="black" fill-opacity="0.5"/>
<path fill-rule="evenodd" clip-rule="evenodd" d="M18.5922 49.0269C9.55302 51.5147 -5.21501 63.8782 5.44507 94.5312C18.9451 133.35 35.9451 149.987 66.9451 149.987H85.4451H148.445H291.945C313.666 149.371 354.593 137.417 344.527 94.5312C344.496 92.9356 343.988 91.2862 342.945 89.6018C341.517 87.2951 340.015 85.0481 338.445 82.8716C324.076 62.9551 303.933 48.934 280.945 48.934C260.545 12.4563 244.945 1.48828 232.445 1.48828H170.945C136.145 1.48828 152.445 33.1188 164.945 48.934H150.445H78.9451H19.3159C19.0696 48.934 18.8296 48.9616 18.5922 49.0269ZM178.945 48.9344C171.612 40.1025 158.545 20.8367 164.945 14.4284C169.859 9.5085 205.287 10.5805 223.448 11.13C227.463 11.2515 230.635 11.3475 232.445 11.3475C245.084 11.3475 260.521 32.7049 267.268 44.7502C268.342 46.6688 266.92 48.9344 264.721 48.9344H178.945Z" fill="#FF3434"/>
<path d="M5.44507 94.5312L6.38959 94.2028L5.44507 94.5312ZM18.5922 49.0269L18.8575 49.9911H18.8575L18.5922 49.0269ZM291.945 149.987V150.987C291.955 150.987 291.964 150.987 291.973 150.987L291.945 149.987ZM344.527 94.5312L343.527 94.5509C343.529 94.6213 343.537 94.6912 343.554 94.7597L344.527 94.5312ZM342.945 89.6018L343.795 89.0753V89.0753L342.945 89.6018ZM338.445 82.8716L337.634 83.4567L338.445 82.8716ZM280.945 48.934L280.072 49.4221C280.249 49.7382 280.583 49.934 280.945 49.934V48.934ZM164.945 48.934V49.934C165.328 49.934 165.678 49.7149 165.845 49.3699C166.012 49.0249 165.967 48.6147 165.73 48.3139L164.945 48.934ZM164.945 14.4284L165.653 15.1351L164.945 14.4284ZM178.945 48.9344L178.176 49.5732C178.366 49.802 178.648 49.9344 178.945 49.9344V48.9344ZM223.448 11.13L223.478 10.1305L223.448 11.13ZM267.268 44.7502L266.395 45.2389L267.268 44.7502ZM235.945 89.6018L235.169 90.2319L235.945 89.6018ZM280.945 92.6484L280.972 91.6487L280.945 92.6484ZM328.225 89.6018L327.964 88.6364L328.225 89.6018ZM339.413 83.1234C339.552 82.5889 339.231 82.0428 338.697 81.9038C338.162 81.7648 337.616 82.0854 337.477 82.6199L339.413 83.1234ZM345.527 94.5115C345.516 93.9594 345.06 93.5206 344.507 93.5314C343.955 93.5423 343.516 93.9987 343.527 94.5509L345.527 94.5115ZM151.13 49.663C151.532 49.285 151.552 48.6522 151.174 48.2495C150.796 47.8469 150.163 47.827 149.761 48.205L151.13 49.663ZM147.471 150.215C147.597 150.753 148.135 151.087 148.673 150.961C149.21 150.835 149.544 150.298 149.419 149.76L147.471 150.215ZM84.5479 150.429C84.7917 150.924 85.3912 151.128 85.8867 150.885C86.3822 150.641 86.5862 150.041 86.3423 149.546L84.5479 150.429ZM79.9277 49.1198C80.0303 48.5771 79.6735 48.054 79.1309 47.9514C78.5882 47.8488 78.0651 48.2056 77.9625 48.7482L79.9277 49.1198ZM164.945 47.934C164.393 47.934 163.945 48.3817 163.945 48.934C163.945 49.4863 164.393 49.934 164.945 49.934V47.934ZM178.945 49.934C179.497 49.934 179.945 49.4863 179.945 48.934C179.945 48.3817 179.497 47.934 178.945 47.934V49.934ZM223.478 10.1301C222.926 10.1134 222.465 10.5474 222.448 11.0994C222.431 11.6515 222.865 12.1125 223.417 12.1292L223.478 10.1301ZM232.445 12.3471C232.997 12.3471 233.445 11.8994 233.445 11.3471C233.445 10.7949 232.997 10.3471 232.445 10.3471V12.3471ZM280.945 49.934C281.497 49.934 281.945 49.4863 281.945 48.934C281.945 48.3817 281.497 47.934 280.945 47.934V49.934ZM264.77 47.934C264.218 47.934 263.77 48.3817 263.77 48.934C263.77 49.4863 264.218 49.934 264.77 49.934V47.934ZM268.156 44.29C267.886 43.808 267.277 43.636 266.795 43.9057C266.313 44.1754 266.141 44.7848 266.411 45.2667L268.156 44.29ZM164.945 47.9344C164.393 47.9344 163.945 48.3821 163.945 48.9344C163.945 49.4867 164.393 49.9344 164.945 49.9344V47.9344ZM178.945 49.9344C179.498 49.9344 179.945 49.4867 179.945 48.9344C179.945 48.3821 179.498 47.9344 178.945 47.9344V49.9344ZM6.38959 94.2028C1.12004 79.0502 2.18857 68.5827 5.53209 61.6516C8.88299 54.7052 14.5858 51.1667 18.8575 49.9911L18.3268 48.0628C13.5593 49.3749 7.35861 53.2621 3.73073 60.7826C0.0954576 68.3185 -0.889983 79.3592 4.50056 94.8597L6.38959 94.2028ZM66.9451 148.987C51.6456 148.987 39.9032 144.891 30.309 136.08C20.6761 127.233 13.1189 113.553 6.38959 94.2028L4.50056 94.8597C11.2712 114.329 18.9641 128.376 28.9562 137.553C38.9869 146.765 51.2445 150.987 66.9451 150.987V148.987ZM85.4451 148.987H66.9451V150.987H85.4451V148.987ZM148.445 148.987H85.4451V150.987H148.445V148.987ZM291.945 148.987H148.445V150.987H291.945V148.987ZM343.554 94.7597C346.032 105.319 345.356 113.899 342.679 120.842C340.001 127.789 335.29 133.177 329.571 137.299C318.102 145.568 302.66 148.683 291.917 148.988L291.973 150.987C302.951 150.675 318.834 147.506 330.741 138.922C336.711 134.618 341.702 128.938 344.545 121.562C347.39 114.183 348.055 105.186 345.501 94.3027L343.554 94.7597ZM342.095 90.1283C343.059 91.6852 343.5 93.1618 343.527 94.5509L345.527 94.5115C345.491 92.7094 344.917 90.8873 343.795 89.0753L342.095 90.1283ZM337.634 83.4567C339.19 85.6137 340.678 87.841 342.095 90.1283L343.795 89.0753C342.355 86.7491 340.84 84.4826 339.256 82.2865L337.634 83.4567ZM280.945 49.934C303.501 49.934 323.377 63.6955 337.634 83.4567L339.256 82.2865C324.775 62.2147 304.365 47.934 280.945 47.934V49.934ZM232.445 2.48828C238.373 2.48828 245.169 5.08091 253.059 12.2711C260.959 19.4706 269.898 31.2286 280.072 49.4221L281.818 48.4459C271.593 30.1617 262.531 18.1968 254.406 10.7929C246.271 3.37965 239.017 0.488281 232.445 0.488281V2.48828ZM170.945 2.48828H232.445V0.488281H170.945V2.48828ZM165.73 48.3139C159.506 40.4392 152.45 28.7561 151.199 19.1513C150.578 14.3815 151.406 10.2928 154.28 7.38008C157.179 4.44251 162.364 2.48828 170.945 2.48828V0.488281C162.126 0.488281 156.298 2.48787 152.857 5.97524C149.391 9.48743 148.55 14.2948 149.216 19.4096C150.54 29.5739 157.885 41.6137 164.161 49.5541L165.73 48.3139ZM150.445 49.934H164.945V47.934H150.445V49.934ZM78.9451 49.934H150.445V47.934H78.9451V49.934ZM19.3159 49.934H78.9451V47.934H19.3159V49.934ZM18.8575 49.9911C18.996 49.9529 19.1453 49.934 19.3159 49.934V47.934C18.9939 47.934 18.6632 47.9702 18.3268 48.0628L18.8575 49.9911ZM164.238 13.7218C162.309 15.6531 161.953 18.4547 162.413 21.4341C162.876 24.4291 164.191 27.8219 165.902 31.2222C169.331 38.0339 174.481 45.1226 178.176 49.5732L179.715 48.2956C176.077 43.9143 171.027 36.9541 167.689 30.3229C166.017 27.0017 164.806 23.8245 164.39 21.1288C163.971 18.4175 164.382 16.4078 165.653 15.1351L164.238 13.7218ZM223.478 10.1305C214.402 9.85588 200.978 9.44942 189.205 9.72846C183.321 9.86792 177.822 10.1791 173.471 10.7692C171.297 11.0641 169.383 11.4322 167.839 11.8934C166.33 12.3442 165.036 12.9228 164.238 13.7218L165.653 15.1351C166.083 14.7041 166.971 14.2399 168.411 13.8097C169.816 13.39 171.618 13.039 173.74 12.7511C177.981 12.1757 183.395 11.8667 189.253 11.7279C200.962 11.4504 214.332 11.8547 223.418 12.1296L223.478 10.1305ZM232.445 10.3475C230.654 10.3475 227.503 10.2523 223.478 10.1305L223.418 12.1296C227.424 12.2508 230.615 12.3475 232.445 12.3475V10.3475ZM268.14 44.2615C264.739 38.1896 259.15 29.7714 252.803 22.8557C249.629 19.3979 246.242 16.2886 242.819 14.0374C239.407 11.7927 235.879 10.3475 232.445 10.3475V12.3475C235.332 12.3475 238.473 13.572 241.72 15.7083C244.958 17.8379 248.221 20.8208 251.33 24.208C257.547 30.9824 263.05 39.2654 266.395 45.2389L268.14 44.2615ZM264.721 49.9344C267.627 49.9344 269.616 46.896 268.14 44.2615L266.395 45.2389C267.069 46.4417 266.213 47.9344 264.721 47.9344V49.9344ZM178.945 49.9344H264.721V47.9344H178.945V49.9344ZM167.428 49.9339C179.122 50.134 209.348 58.4117 235.169 90.2319L236.722 88.9717C210.542 56.7094 179.768 48.1448 167.462 47.9342L167.428 49.9339ZM235.838 90.596C247.904 91.8975 264.538 93.2075 280.918 93.648L280.972 91.6487C264.655 91.2099 248.074 89.9043 236.052 88.6076L235.838 90.596ZM235.169 90.2319C245.074 102.439 260.074 109.428 275.745 112.632L276.145 110.673C260.751 107.525 246.239 100.701 236.722 88.9717L235.169 90.2319ZM279.946 92.6972C280.109 96.0245 280.06 100.901 279.409 104.82C279.081 106.793 278.615 108.427 278.007 109.494C277.707 110.023 277.405 110.351 277.128 110.531C276.876 110.694 276.613 110.757 276.286 110.702L275.953 112.674C276.786 112.814 277.554 112.638 278.216 112.209C278.854 111.796 279.351 111.177 279.746 110.483C280.53 109.105 281.042 107.191 281.382 105.148C282.066 101.033 282.11 95.9996 281.944 92.5995L279.946 92.6972ZM276.286 110.702C276.251 110.696 276.214 110.688 276.177 110.679L275.714 112.625C275.793 112.644 275.873 112.66 275.953 112.674L276.286 110.702ZM280.918 93.648C299.277 94.1418 317.45 93.5489 328.486 90.5672L327.964 88.6364C317.244 91.5329 299.341 92.1428 280.972 91.6487L280.918 93.648ZM328.486 90.5672C331.387 89.7833 333.855 88.8194 335.719 87.6286C337.581 86.4392 338.935 84.9608 339.413 83.1234L337.477 82.6199C337.173 83.7879 336.269 84.9041 334.642 85.9431C333.018 86.9808 330.766 87.8793 327.964 88.6364L328.486 90.5672ZM275.746 112.632L275.92 112.668L276.319 110.708L276.145 110.672L275.746 112.632ZM275.921 112.668C288.25 115.166 301.044 115.341 312.224 113.846C323.38 112.354 333.039 109.186 339.026 104.908L337.864 103.28C332.253 107.289 322.961 110.392 311.959 111.863C300.983 113.331 288.414 113.159 276.318 110.708L275.921 112.668ZM339.026 104.908C343.057 102.027 345.606 98.504 345.527 94.5115L343.527 94.5509C343.587 97.5863 341.657 100.57 337.864 103.28L339.026 104.908ZM327.31 90.0055C328.278 92.1998 329.956 95.5641 331.857 98.547C332.806 100.038 333.827 101.457 334.857 102.593C335.865 103.704 336.975 104.651 338.123 105.041L338.767 103.147C338.115 102.926 337.286 102.295 336.338 101.249C335.413 100.229 334.46 98.9118 333.543 97.4724C331.71 94.5953 330.078 91.325 329.14 89.1981L327.31 90.0055ZM149.761 48.205C147.851 49.9977 145.833 53.2304 144.102 58.0054C142.364 62.7988 140.893 69.2107 140.124 77.4316C138.587 93.8734 139.854 117.605 147.471 150.215L149.419 149.76C141.837 117.301 140.603 93.7924 142.116 77.6178C142.872 69.5305 144.313 63.2902 145.982 58.687C147.657 54.0652 149.539 51.1567 151.13 49.663L149.761 48.205ZM86.3423 149.546C80.2818 137.232 70.3632 99.7047 79.9277 49.1198L77.9625 48.7482C68.3269 99.7095 78.275 137.684 84.5479 150.429L86.3423 149.546ZM164.945 49.934H167.445V47.934H164.945V49.934ZM178.945 47.934H167.445V49.934H178.945V47.934ZM223.417 12.1292C227.424 12.2504 230.615 12.3471 232.445 12.3471V10.3471C230.654 10.3471 227.502 10.2519 223.478 10.1301L223.417 12.1292ZM280.945 47.934H269.445V49.934H280.945V47.934ZM269.445 47.934H264.77V49.934H269.445V47.934ZM266.411 45.2667C267.279 46.8173 267.996 48.2038 268.54 49.3599L270.35 48.5082C269.781 47.3003 269.041 45.8713 268.156 44.29L266.411 45.2667ZM164.945 49.9344H167.445V47.9344H164.945V49.9344ZM178.945 47.9344H167.445V49.9344H178.945V47.9344Z" fill="black"/>
<path d="M343.242 90.2061C344.064 91.7165 344.496 93.6032 344.527 94.898C344.59 97.4807 342.797 100.802 339.552 103.09C338.894 103.554 338.035 103.671 337.366 103.224C334.855 101.542 331.979 96.8285 329.947 93.1884C328.998 91.4889 329.943 89.354 331.728 88.5776C334.204 87.5007 336.279 86.1177 337.54 84.7698C337.999 84.2794 338.819 84.2119 339.258 84.7197C340.635 86.3109 342.156 88.2083 343.242 90.2061Z" fill="#6BFFE9"/>
<path d="M278.183 93.2935C263.964 92.8174 249.871 91.122 238.851 90.0806C237.921 89.9927 237.412 91.1006 238.098 91.7344C247.787 100.693 261.731 108.673 276.242 111.081C280.359 111.876 281.119 102.344 281.041 96.1283C281.022 94.567 279.744 93.3458 278.183 93.2935Z" fill="#6BFFE9"/>
<path d="M343.242 90.2061C344.064 91.7165 344.496 93.6032 344.527 94.898C344.59 97.4807 342.797 100.802 339.552 103.09C338.894 103.554 338.035 103.671 337.366 103.224C334.855 101.542 331.979 96.8285 329.947 93.1884C328.998 91.4889 329.943 89.354 331.728 88.5776C334.204 87.5007 336.279 86.1177 337.54 84.7698C337.999 84.2794 338.819 84.2119 339.258 84.7197C340.635 86.3109 342.156 88.2083 343.242 90.2061Z" stroke="black" stroke-width="2" stroke-linecap="round" stroke-linejoin="round"/>
<path d="M278.183 93.2935C263.964 92.8174 249.871 91.122 238.851 90.0806C237.921 89.9927 237.412 91.1006 238.098 91.7344C247.787 100.693 261.731 108.673 276.242 111.081C280.359 111.876 281.119 102.344 281.041 96.1283C281.022 94.567 279.744 93.3458 278.183 93.2935Z" stroke="black" stroke-width="2" stroke-linecap="round" stroke-linejoin="round"/>
<path d="M76.884 150.077C64.3637 140.069 78.4525 91.4873 44.4453 91.4873C36.7786 91.4873 21.4453 98.3873 21.4453 125.987C21.4453 153.132 31.763 162.189 37.1772 163.431C37.3579 163.473 37.5329 163.487 37.7184 163.487H66.9453C76.0642 163.487 79.4085 157.309 80.2287 152.777C80.4552 151.525 79.4143 150.487 78.1425 150.487C77.6879 150.487 77.2391 150.361 76.884 150.077Z" fill="#D9D9D9" stroke="black" stroke-width="2" stroke-linecap="round" stroke-linejoin="round"/>
<ellipse cx="42.9453" cy="127.987" rx="15" ry="27.5" fill="#7D7D7D" stroke="black" stroke-width="2" stroke-linecap="round" stroke-linejoin="round"/>
<ellipse cx="47.9453" cy="127.987" rx="10" ry="17.5" fill="#FBFBFB" stroke="black" stroke-width="2" stroke-linecap="round" stroke-linejoin="round"/>
<path d="M122.445 163.487C117.837 163.487 114.113 157.981 111.954 153.312C111.1 151.466 112.527 149.487 114.561 149.487H157.945C159.602 149.487 160.982 150.845 160.649 152.468C159.391 158.613 154.416 162.094 151.419 163.308C151.107 163.435 150.777 163.487 150.44 163.487H122.445Z" fill="#7D7D7D" stroke="black" stroke-width="2" stroke-linecap="round" stroke-linejoin="round"/>
<path d="M263.945 163.487C259.337 163.487 255.613 157.981 253.454 153.312C252.6 151.466 254.027 149.487 256.061 149.487H299.445C301.102 149.487 302.482 150.845 302.149 152.468C300.891 158.613 295.916 162.094 292.919 163.308C292.607 163.435 292.277 163.487 291.94 163.487H263.945Z" fill="#7D7D7D" stroke="black" stroke-width="2" stroke-linecap="round" stroke-linejoin="round"/>
<path d="M167.218 163.487H196.445C199.817 163.487 208.303 163.023 210.252 150.919C210.397 150.02 210.062 149.124 209.473 148.429C196.769 133.425 202.92 91.9873 173.445 91.9873C165.779 91.9873 150.945 98.3873 150.945 125.987C150.945 153.132 161.263 162.189 166.677 163.431C166.858 163.473 167.033 163.487 167.218 163.487Z" fill="#D9D9D9" stroke="black" stroke-width="2" stroke-linecap="round" stroke-linejoin="round"/>
<ellipse cx="172.445" cy="127.987" rx="15" ry="27.5" fill="#7D7D7D" stroke="black" stroke-width="2" stroke-linecap="round" stroke-linejoin="round"/>
<ellipse cx="177.445" cy="127.987" rx="10" ry="17.5" fill="#FBFBFB" stroke="black" stroke-width="2" stroke-linecap="round" stroke-linejoin="round"/>
<path d="M134.445 31.9877C144.445 31.9877 147.612 40.6544 147.945 44.9877L156.445 53.9873C157.612 55.4873 158.745 60.0873 153.945 66.4873C147.945 74.4873 142.445 65.4873 144.445 61.4873C146.045 58.2873 142.112 56.8842 139.945 56.5826C138.231 57.1892 136.357 57.4873 134.445 57.4873C127.445 57.4873 109.445 58.4877 109.445 44.9877C109.445 31.4877 121.945 31.9877 134.445 31.9877Z" fill="#FF3434"/>
<path d="M147.945 44.9877C147.612 40.6544 144.445 31.9877 134.445 31.9877C121.945 31.9877 109.445 31.4877 109.445 44.9877C109.445 58.4877 127.445 57.4873 134.445 57.4873C136.357 57.4873 138.231 57.1892 139.945 56.5826M147.945 44.9877L156.445 53.9873C157.612 55.4873 158.745 60.0873 153.945 66.4873C147.945 74.4873 142.445 65.4873 144.445 61.4873C146.045 58.2873 142.112 56.8842 139.945 56.5826M147.945 44.9877C147.945 51.1671 144.51 54.9678 139.945 56.5826" stroke="black" stroke-width="2" stroke-linecap="round" stroke-linejoin="round"/>
<path d="M164.909 14.3403C158.509 20.8369 171.39 39.8307 178.723 48.7843H267.666C268.397 48.7843 268.873 48.0382 268.546 47.3848C262.917 36.1506 246.229 11.404 232.537 11.404C222.537 11.404 170.909 8.24985 164.909 14.3403Z" fill="white" fill-opacity="0.5"/>
<path d="M227.714 15.5224C227.897 15.2298 228.217 15.052 228.562 15.052H236.205C236.99 15.052 237.469 15.9155 237.053 16.5816L218.802 45.8148C218.619 46.1075 218.298 46.2852 217.953 46.2852H210.311C209.526 46.2852 209.047 45.4217 209.463 44.7557L227.714 15.5224Z" fill="white"/>
<path d="M210.714 15.5224C210.897 15.2298 211.217 15.052 211.562 15.052H219.205C219.99 15.052 220.469 15.9155 220.053 16.5816L201.802 45.8148C201.619 46.1075 201.298 46.2852 200.953 46.2852H193.311C192.526 46.2852 192.047 45.4217 192.463 44.7557L210.714 15.5224Z" fill="white"/>
<path d="M41.1107 33.7653L46.0132 47.2744C46.4437 48.4609 47.571 49.251 48.8332 49.251H81.3561C82.5865 49.251 83.695 48.4945 84.1442 47.349C88.3696 36.5725 89.8106 31.9164 91.5339 27.397C91.7652 26.7906 91.8339 26.1094 91.5326 25.5345C90.6192 23.7918 87.9834 21.6951 79.2305 21.6951H49.5685C43.3253 21.6951 38.981 27.8966 41.1107 33.7653Z" fill="#826666"/>
<path d="M63.2305 31.7154C64.8971 33.9421 68.5305 39.4812 69.7305 43.8233M79.2305 21.6951C72.4587 21.6951 59.7371 21.6951 49.5685 21.6951C43.3253 21.6951 38.981 27.8966 41.1107 33.7653L46.0132 47.2744C46.4437 48.4609 47.571 49.251 48.8332 49.251H81.3561C82.5865 49.251 83.695 48.4945 84.1442 47.349C88.3696 36.5725 89.8106 31.9164 91.5339 27.397C91.7652 26.7906 91.8339 26.1094 91.5326 25.5345C90.6192 23.7918 87.9834 21.6951 79.2305 21.6951Z" stroke="black" stroke-width="2" stroke-linecap="round" stroke-linejoin="round"/>
</svg>
