<svg width="1649" height="734" viewBox="0 0 1649 734" fill="none" xmlns="http://www.w3.org/2000/svg">
  <path d="M1654.66 -97.7139H-13.3984V733.417H1654.66V-97.7139Z" fill="url(#paint0_linear_100_2)"/>
  <path opacity="0.4" d="M1390.92 0.402908C1334.81 -55.7137 1254.85 -28.1681 1300.94 -9.80429C1347.03 8.55949 1142.83 -22.9038 1196.99 -5.21334C1251.14 12.4771 1102.78 -10.9061 1135.13 0.326397C1167.48 11.5589 1042.39 8.48297 1095.25 13.5789C1148.11 18.6749 776.135 0.326397 909.579 13.5789C1043.02 26.8314 749.217 35.0033 815.526 40.1146C881.834 45.2258 619.202 68.7467 695.932 75.8933C772.661 83.0399 900.626 91.3189 962.023 88.1358C1023.42 84.9528 935.854 109.56 982.835 106.5C1029.82 103.439 938.838 119.385 1052.66 114.473C1166.49 109.56 1096.87 116.186 1180.64 115.421C1264.41 114.656 1203.22 124.603 1332.79 126.287C1462.36 127.97 1572.53 129.898 1517.43 121.252C1462.34 112.606 1581.71 72.8327 1522.55 48.3477C1463.38 23.8626 1497.45 -26.6377 1456.93 -19.231C1416.4 -11.8243 1415.41 24.8879 1390.92 0.402908Z" fill="#D15428"/>
  <path opacity="0.4" d="M379.586 -60.4421C379.586 -60.4421 398.363 -44.0831 439.574 -41.6958C480.785 -39.3085 407.438 -39.5074 422.343 -36.2019C437.248 -32.8965 420.506 -27.4791 451.863 -22.8117C483.219 -18.1442 449.827 -32.5598 488.284 -19.7511C526.741 -6.94233 450.669 -18.9247 492.095 -9.34492C533.52 0.23484 464.457 -23.7146 529.113 -5.3508C593.769 13.013 590.586 -1.52502 635.286 6.3408C679.987 14.2066 619.983 -0.821075 674.141 5.30018C728.298 11.4214 696.483 -7.7534 718.964 -3.75928C741.444 0.234848 717.525 -18.7564 623.319 -27.4179C529.113 -36.0795 629.976 -12.88 574.961 -25.8876C519.946 -38.8953 586.79 -19.6439 528.225 -34.8553C469.66 -50.0666 513.305 -55.2544 484.091 -60.4421C454.877 -65.6299 523.466 -40.1655 467.441 -55.1013C411.416 -70.0372 458.091 -57.4733 420.583 -61.2226C383.075 -64.9718 344.19 -73.2202 379.586 -60.4421Z" fill="#D15428"/>
  <path opacity="0.4" d="M496.687 188.432C496.687 188.432 511.271 198.961 541.066 197.936C570.861 196.91 518.02 201.654 529.023 203.031C540.025 204.409 528.273 209.428 551.136 210.683C573.998 211.938 549.024 203.812 577.533 210.454C606.043 217.095 550.539 213.514 580.961 217.692C611.384 221.87 560.134 209.183 607.849 218.105C655.564 227.027 652.32 216.774 684.977 219.467C717.634 222.16 673.53 215.335 712.859 216.131C752.188 216.927 728.055 205.266 744.475 206.643C760.896 208.02 742.455 195.931 674.081 195.931C605.707 195.931 679.82 205.954 639.404 200.262C598.988 194.569 648.326 203.965 605.202 196.91C562.077 189.855 593.112 183.229 571.764 181.439C550.416 179.648 601.422 193.406 560.134 186.382C518.846 179.358 553.263 185.295 526.038 185.142C498.814 184.989 470.381 181.592 496.687 188.432Z" fill="#FF981D"/>
  <path opacity="0.4" d="M591.625 188.432C591.625 188.432 606.209 198.961 636.005 197.936C665.8 196.91 612.958 201.654 623.961 203.031C634.964 204.409 623.211 209.428 646.074 210.683C668.937 211.938 643.962 203.812 672.472 210.454C700.982 217.095 645.477 213.514 675.9 217.692C706.322 221.87 655.072 209.183 702.787 218.105C750.503 227.027 747.258 216.774 779.915 219.467C812.572 222.16 768.469 215.335 807.798 216.131C847.127 216.927 822.994 205.266 839.429 206.643C855.865 208.02 837.394 195.931 769.035 195.931C700.676 195.931 774.773 205.954 734.358 200.262C693.942 194.569 743.28 203.965 700.155 196.91C657.031 189.855 688.066 183.229 666.718 181.439C645.37 179.648 696.375 193.406 655.088 186.382C613.8 179.358 648.216 185.295 620.992 185.142C593.768 184.989 565.319 181.592 591.625 188.432Z" fill="#FF981D"/>
  <path opacity="0.4" d="M1316.05 228.358C1316.05 228.358 1329.82 238.535 1357.69 237.632C1385.55 236.729 1336.11 241.152 1346.42 242.499C1356.74 243.845 1345.73 248.62 1367.16 249.951C1388.58 251.283 1365.17 243.31 1391.9 249.798C1418.64 256.287 1366.61 252.706 1395.13 256.776C1423.66 260.847 1375.59 248.528 1420.34 257.236C1465.08 265.943 1462.01 256.072 1492.63 258.766C1523.25 261.459 1481.92 254.756 1518.75 255.705C1555.59 256.654 1532.97 245.284 1548.38 246.646C1563.79 248.008 1546.45 236.331 1482.42 236.194C1418.39 236.056 1487.82 245.865 1449.92 240.264C1412.01 234.663 1458.29 243.861 1417.78 236.959C1377.27 230.057 1406.41 223.752 1386.39 221.962C1366.38 220.171 1414.23 233.577 1375.51 226.706C1336.8 219.835 1369.07 225.65 1343.55 225.42C1318.02 225.191 1291.38 221.702 1316.05 228.358Z" fill="#FFC07B"/>
  <path opacity="0.4" d="M1206.12 188.494C1206.12 188.494 1219.9 198.67 1247.76 197.767C1275.63 196.864 1226.17 201.287 1236.49 202.634C1246.8 203.98 1235.8 208.755 1257.24 210.086C1278.68 211.418 1255.23 203.445 1281.97 209.933C1308.7 216.422 1256.67 212.841 1285.21 216.912C1313.75 220.982 1265.65 208.663 1310.42 217.371C1355.18 226.078 1352.09 216.208 1382.71 218.901C1413.33 221.594 1372 214.892 1408.83 215.764C1445.66 216.636 1423.05 205.327 1438.44 206.704C1453.84 208.082 1436.53 196.39 1372.49 196.237C1308.44 196.084 1377.9 205.909 1340 200.323C1302.09 194.737 1348.37 203.919 1307.86 197.017C1267.35 190.116 1296.51 183.796 1276.49 182.02C1256.47 180.245 1304.33 193.62 1265.61 186.764C1226.89 179.909 1259.15 185.693 1233.64 185.479C1208.13 185.265 1181.46 181.837 1206.12 188.494Z" fill="#FFC07B"/>
  <path opacity="0.4" d="M572.56 229.108C572.56 229.108 586.822 236.117 616.587 234.587C646.352 233.057 593.51 237.831 604.436 238.489C615.363 239.147 603.518 243.08 626.289 243.294C649.06 243.509 624.376 238.504 652.626 242.407C680.875 246.309 625.6 245.33 655.839 247.411C686.078 249.492 635.303 241.994 682.651 246.967C729.999 251.941 727.03 244.825 759.549 245.819C792.068 246.814 748.24 243.218 787.447 242.759C826.653 242.3 802.903 234.694 819.262 235.214C835.621 235.735 817.532 227.746 749.372 229.629C681.212 231.511 754.836 236.53 714.665 233.607C674.494 230.685 723.464 235.979 680.646 232.2C637.828 228.42 668.954 222.803 647.698 222.161C626.442 221.518 676.958 229.812 635.961 225.971C594.964 222.13 629.136 225.39 601.988 225.971C574.84 226.553 546.514 225.007 572.56 229.108Z" fill="#FF981D"/>
  <path opacity="0.4" d="M133.054 114.763C133.054 114.763 149.153 128.062 187.655 135.147C226.158 142.232 157.171 132.285 170.929 136.463C184.687 140.641 168.373 141.972 197.403 149.226C226.433 156.48 196.393 142.523 231.315 156.112C266.237 169.701 195.904 151.613 233.917 163.473C271.93 175.333 209.309 150.312 268.318 171.125C327.327 191.937 325.69 181.837 366.916 193.023C408.143 204.21 353.266 186.275 403.521 197.538C453.777 208.801 425.711 191.937 446.447 197.538C467.182 203.139 446.447 187.453 358.867 169.151C271.287 150.848 363.733 179.633 313.294 163.703C262.855 147.772 323.823 169.395 270.246 151.552C216.67 133.708 258.142 136.111 231.208 128.796C204.275 121.481 266.283 147.42 215.048 130.082C163.813 112.743 206.494 127.266 171.618 119.828C136.742 112.391 101.009 101.618 133.054 114.763Z" fill="#FF981D"/>
  <path opacity="0.4" d="M90.0662 128.75C97.2076 137.708 106.208 145.01 116.446 150.152C126.684 155.293 137.916 158.152 149.366 158.53C188.71 159.968 119.158 164.774 133.787 169.686C148.417 174.598 133.221 185.647 163.521 191.891C193.822 198.134 160.277 174.338 198.382 194.829C236.487 215.32 162.909 198.991 203.386 213.422C243.863 227.853 175.305 189.335 238.95 218.013C302.596 246.691 297.623 220.63 340.977 231.786C384.33 242.942 325.566 219.896 377.597 227.195C429.628 234.495 396.955 201.976 418.762 207.622C440.569 213.269 415.38 180.551 325.092 171.476C234.803 162.402 333.356 197.369 279.55 177.689C225.744 158.01 291.593 188.172 234.13 164.728C176.667 141.283 217.297 128.811 188.94 121.466C160.583 114.12 228.912 155.439 173.897 132.331C118.882 109.223 164.715 128.674 128.753 124.679C92.7902 120.685 54.8537 108.03 90.0662 128.75Z" fill="#FF9100"/>
  <path opacity="0.4" d="M149.763 131.245C62.1215 112.881 154.644 141.727 104.205 125.797C53.7657 109.866 114.733 131.49 61.1572 113.646C7.58088 95.8026 54.1874 98.8149 27.2386 91.5C19.9886 89.0001 18.738 82.7498 8.73701 88C-0.00443983 92.589 4.23903 109 7.23876 112C10.7379 115 16.9889 116 22.226 118.252C57.1478 131.841 -13.1855 113.753 24.8582 125.613C62.9018 137.473 0.250675 112.452 59.2443 133.188C118.238 153.924 116.631 143.9 157.858 155.087C199.085 166.274 144.192 148.338 194.463 159.601C244.734 170.864 216.653 154 237.388 159.601C258.124 165.202 237.419 149.547 149.763 131.245Z" fill="#FF981D"/>
  <path opacity="0.4" d="M183.367 -72.2715C183.367 -72.2715 210.638 -63.365 272.768 -52.913C334.899 -42.4609 397.994 -38.4362 363.44 -33.6769C328.885 -28.9176 474.556 -16.8435 417.49 -15.4203C360.425 -13.9971 543.741 -8.7175 527.214 -0.83638C510.686 7.04474 630.036 22.1183 610.937 27.3061C591.839 32.4939 559.06 62.0901 611.503 69.0684C663.947 76.0466 733.087 94.9766 716.56 97.5169C700.032 100.057 732.628 119.492 783.189 124.007C833.751 128.521 942.342 139.233 870.004 142.126C797.666 145.018 704.026 130.266 636.662 127.159C569.297 124.053 652.409 168.875 598.832 155.455C545.256 142.034 626.118 185.709 488.022 142.126C349.927 98.5422 229.705 46.6952 331.93 110.846C434.155 174.997 125.338 5.56034 191.141 53.551C256.945 101.542 103.531 52.9389 56.6115 16.3031C39.778 3.12714 32.7386 -21.3885 24.3066 -41.6805C17.3436 -58.468 47.6132 -63.9312 63.6815 -72.4092L183.367 -72.2715Z" fill="#D15428"/>
  <path fill-rule="evenodd" clip-rule="evenodd" d="M1020.18 320.029C1020.08 354.086 1012.22 387.672 997.205 418.24C982.189 448.807 960.405 475.551 933.509 496.443C906.613 517.334 875.311 531.824 841.979 538.813C808.647 545.801 774.161 545.104 741.139 536.775C643.997 512.334 572.1 424.548 572.1 320.029C572.202 284.057 580.958 248.637 597.629 216.761C614.3 184.885 638.396 157.488 667.883 136.883C697.37 116.279 731.382 103.072 767.047 98.378C802.712 93.684 838.983 97.6405 872.797 109.913C915.96 125.574 953.257 154.139 979.623 191.729C1005.99 229.319 1020.15 274.114 1020.18 320.029Z" fill="#FFFFCF"/>
  <g style="mix-blend-mode:multiply">
    <path fill-rule="evenodd" clip-rule="evenodd" d="M742.853 535.086C742.334 535.701 741.76 536.266 741.137 536.775C643.996 512.334 572.098 424.548 572.098 320.03C572.086 304.567 573.682 289.145 576.859 274.012L578.007 274.58C580.206 269.287 583.218 264.37 586.934 260.006C589.868 256.533 593.563 255.356 597.784 253.903C598.898 253.272 600.176 252.992 601.452 253.1C602.421 253.363 603.832 255.121 604.428 255.868C606.877 258.955 607.86 262.982 608.69 266.746C609.341 269.611 611.14 270.898 613.299 272.587C616.399 275.092 619.887 277.68 622.876 280.434C627.595 284.821 630.114 290.205 632.246 296.197C635.013 303.948 639.415 310.882 642.639 318.41C644.854 323.531 647.968 328.846 653.434 331.115C658.901 333.385 665.89 332.361 671.689 333.371C678.955 334.617 685.321 335.503 690.428 341.454C693.938 346.008 696.246 351.371 697.14 357.051C697.583 359.819 694.774 361.203 693.417 363.736C690.89 368.662 689.522 374.102 689.418 379.638C689.127 385.561 693.085 409.172 680.588 406.293C675.232 405.075 670.097 401.712 665.018 399.595C659.192 397.145 653.282 394.059 646.833 393.644C641.103 393.298 634.847 394.391 631.18 399.304C628.509 402.861 627.568 409.725 628.758 413.905C629.556 417.144 631.479 419.993 634.183 421.946C636.086 423.129 637.783 424.616 639.207 426.347C640.965 428.866 641.02 431.952 642.584 434.582C645.352 439.246 649.116 444.27 654.071 446.788C658.666 449.141 664.368 449.404 668.796 451.951C672.201 453.902 673.737 457.75 675.246 461.071C677.395 465.734 679.841 470.255 682.567 474.606C684.891 478.656 687.713 482.399 690.968 485.748C693.058 487.796 697.556 490.647 696.421 494.134C695.66 496.446 692.269 496.778 693.376 500.03C694.206 502.494 696.877 503.822 699.092 504.653C703.7 506.41 708.254 506.521 713.125 506.812C715.478 506.998 717.763 507.694 719.82 508.85C721.878 510.007 723.659 511.597 725.041 513.51C726.633 515.503 727.021 517.925 728.847 519.683C730.419 521.142 732.179 522.384 734.079 523.378C737.885 525.357 742.563 526.146 744.542 530.492C745.455 532.471 744.03 533.716 742.853 535.086Z" fill="#FFDEE2"/>
    <path fill-rule="evenodd" clip-rule="evenodd" d="M613.52 216.522C608.925 225.199 603.832 233.905 604.594 244.118C604.704 245.641 605.244 249.834 606.808 250.803C608.773 252.035 611.209 249.931 612.745 249.018C614.956 247.45 617.267 246.031 619.665 244.769C622.129 243.731 624.703 244.271 627.277 243.869C636.467 242.485 643.442 236.659 647.885 228.645C653.42 218.529 652.632 206.502 656.963 195.997C658.998 191.07 663.883 182.905 658.347 178.573C655.732 176.497 651.995 176.843 648.978 177.701C644.017 178.98 639.209 180.795 634.64 183.113C630.696 185.285 627.512 187.264 624.869 190.96C620.163 197.547 616.607 205.782 613.52 216.522Z" fill="#FFDEE2"/>
    <path fill-rule="evenodd" clip-rule="evenodd" d="M669.74 161.398C667.895 163.428 666.515 165.837 665.699 168.456C671.235 170.519 680.037 167.806 682.874 162.381C683.705 160.789 684.12 158.893 682.432 157.689C678.28 154.672 669.976 158.796 666.779 161.398H669.74Z" fill="#FFDEE2"/>
    <path fill-rule="evenodd" clip-rule="evenodd" d="M1020.17 320.03C1020.19 341.75 1017.03 363.356 1010.8 384.163C1010.33 382.129 1012.19 378.544 1012.46 376.939C1013.25 372.4 1012.13 368.372 1011.98 363.791C1011.54 357.361 1011.79 350.903 1012.73 344.526C1013.61 339.821 1014.71 334.755 1013.79 329.953C1013.02 325.898 1011.02 322.189 1010.28 318.134C1009.71 314.992 1010.65 311.38 1011.25 308.266C1011.92 304.861 1013.05 302.066 1012.99 298.481C1012.99 294.108 1012.99 289.776 1012.99 285.416C1013.18 280.635 1012.19 275.88 1010.1 271.577C1008.12 267.549 1004.84 265.944 1001.88 262.871C1000.23 263.245 1000.01 264.975 999.482 266.387C998.217 269.335 996.25 271.929 993.753 273.943C988.576 278.303 984.3 272.282 982.404 267.494C979.332 259.757 978.612 253.059 981.463 245.156C982.404 242.596 983.027 240.285 981.933 237.628C980.84 234.97 978.086 233.005 976.231 230.777C973.242 227.137 971.111 222.667 973.74 218.196C975.996 214.404 980.3 212.176 977.56 207.401C975.141 203.691 972.473 200.149 969.574 196.8C968.745 195.399 967.786 194.078 966.71 192.856C964.814 191.084 962.336 190.088 960.302 188.441C958.267 186.794 957.285 184.773 955.596 183.016C953.677 181.069 951.497 179.397 949.119 178.047C944.967 175.639 942.531 175.404 942.033 181.037C941.438 187.555 948.178 192.33 949.977 198.253C951.901 204.647 949.091 210.072 949.977 216.383C951.046 222.94 951.68 229.561 951.873 236.202C951.873 241.6 951.998 246.25 947.002 249.364C934.2 257.418 923.599 240.908 910.506 242.25C901.69 243.191 891.532 242.513 883.2 239.136C875.865 236.174 868.627 233.157 861.292 230.279C854.967 227.787 850.358 222.459 850.22 215.498C850.22 210.432 850.428 205.976 855.119 202.848C858.012 200.911 861.887 201.16 865.195 200.648C868.195 200.16 871.106 199.227 873.831 197.88C878.785 195.416 879.643 190.711 876.958 186.24C874.592 182.324 870.634 179.32 868.032 175.501C865.43 171.681 864.253 167.28 862.357 163.128C861.64 161.267 860.822 159.447 859.908 157.675C858.925 155.986 857.776 155.654 856.213 154.561C852.905 152.277 849.805 151.572 845.902 150.478C843.923 149.938 839.895 148.375 840.366 145.676C840.809 142.631 849.39 141.109 851.867 140.375C854.344 139.642 860.558 139.185 860.018 135.863C859.34 131.711 853.666 128.764 850.469 127.421C845.127 125.179 839.273 126.037 833.571 126.037C829.278 125.969 824.993 125.636 820.741 125.041C814.984 124.39 809.669 121.304 803.926 121.069C798.487 120.833 791.249 123.92 786.114 121.401C780.979 118.882 790.626 112.834 792.909 111.851C800.909 108.336 809.254 107.907 817.821 108.267C821.625 108.447 825.371 109.28 828.893 110.73C831.683 112.176 834.602 113.357 837.612 114.259C842.768 115.505 848.156 115.409 853.265 113.983C857.417 112.917 863.257 110.661 867.575 111.464C869.734 111.879 871.948 111.824 874.066 112.211C875.612 112.601 877.056 113.319 878.301 114.315L872.89 109.983C916.023 125.655 953.291 154.216 979.639 191.792C1005.99 229.367 1020.14 274.138 1020.17 320.03Z" fill="#FFDEE2"/>
    <path fill-rule="evenodd" clip-rule="evenodd" d="M976.512 306.079C975.128 310.494 974.99 312.501 972.637 315.767C969.798 319.59 967.196 323.583 964.845 327.725C959.143 338.243 957.22 349.564 955.379 361.189C953.815 371.085 953.483 384.966 959.725 393.561C964.569 400.231 972.706 390.544 976.581 387.471C980.733 384.205 986.269 383.319 990.241 379.942C996.76 374.406 1000.08 365.327 1000.99 357.079C1001.68 350.639 1001.68 344.143 1000.99 337.703C1000.4 332.472 1000.46 326.811 999.043 321.691C998.085 317.879 996.469 314.263 994.269 311.006C992.927 309.136 991.285 307.499 989.411 306.162C987.487 304.903 985.19 304.585 976.512 306.079Z" fill="#FFDEE2"/>
    <path fill-rule="evenodd" clip-rule="evenodd" d="M940.071 413.366C937.483 418.708 934.881 422.348 941.054 425.462C944.251 427.067 945.787 424.521 947.974 422.223C949.441 420.673 951.24 417.684 950.977 415.303C950.682 413.858 950.077 412.493 949.205 411.304C948.098 410.127 947.642 410.376 945.981 410.39L940.071 413.366Z" fill="#FFDEE2"/>
    <path fill-rule="evenodd" clip-rule="evenodd" d="M964.887 467.036C939.857 495.677 907.945 517.473 872.16 530.367C871.188 529.906 870.166 529.558 869.115 529.329C869.115 529.038 869.005 528.776 868.949 528.526C874.734 526.727 878.194 525.758 881.834 520.831C883.744 518.285 886.194 516.154 885.751 512.749C885.515 511.088 884.159 509.635 884.699 507.794C885.349 505.483 888.602 502.341 890.235 500.57C893.729 497.123 897.486 493.953 901.473 491.09C903.895 489.221 906.58 487.851 909.029 486.052C912.254 483.685 914.316 480.309 917.222 477.61C923.34 471.866 927.824 464.683 935.034 460.158C940.471 456.628 946.545 454.192 952.915 452.989C954.197 452.712 955.514 452.642 956.818 452.781C958.285 452.989 957.911 453.072 958.977 453.75C960.854 454.943 962.332 456.668 963.226 458.705C963.891 460.625 964.396 462.597 964.735 464.6C964.886 465.403 964.937 466.221 964.887 467.036Z" fill="#FFDEE2"/>
    <path fill-rule="evenodd" clip-rule="evenodd" d="M830.529 195.845C831.013 199.017 831.887 202.118 833.131 205.076C833.768 206.557 834.515 210.141 836.439 210.861C838.044 211.484 839.428 209.283 840.342 208.356C842.113 206.571 844.217 205.076 845.878 203.318C847.254 202.055 848.12 200.332 848.314 198.474C848.047 196.367 847.298 194.35 846.127 192.579C842.708 188.427 837.228 189.811 833.74 193.215L830.529 195.845Z" fill="#FFDEE2"/>
    <path fill-rule="evenodd" clip-rule="evenodd" d="M654.97 317.234C654.97 318.618 654.334 321.455 654.97 322.77C655.289 323.365 656.645 324.002 657.199 324.472C658.499 325.44 659.935 326.21 661.461 326.756C663.717 327.822 665.489 327.572 667.911 327.697C669.557 327.78 671.191 328.652 672.851 328.458C676.533 328.015 677.1 324.085 677.944 321.165C679.2 316.416 678.944 311.395 677.211 306.799C676.477 304.611 675.191 302.65 673.477 301.106C671.762 299.561 669.678 298.485 667.426 297.983C665.863 297.541 664.273 297.203 662.665 296.973C660.972 297.038 659.333 297.59 657.946 298.564C656.816 299.281 655.906 300.297 655.316 301.498C654.505 303.151 653.923 304.906 653.586 306.716C653.393 308.197 653.019 309.774 652.908 311.283C652.913 314.252 653.604 317.179 654.929 319.836L654.97 317.234Z" fill="#FFDEE2"/>
    <path fill-rule="evenodd" clip-rule="evenodd" d="M693.725 329.704C695.828 331.309 697.544 333.69 699.399 331.378C700.243 330.327 701.35 328.458 701.018 327.033C700.492 324.818 695.856 323.116 694.389 325.109L693.725 329.704Z" fill="#FFDEE2"/>
    <path fill-rule="evenodd" clip-rule="evenodd" d="M725.305 394.003C725.914 398.473 726.094 402.224 728.585 406.127C730.121 408.521 731.45 410.376 734.425 410.445C737.573 410.573 740.718 410.137 743.712 409.158C746.48 408.203 750.548 405.462 751.531 402.556C752.667 399.633 753.14 396.494 752.915 393.366C752.001 389.795 749.969 386.609 747.116 384.274C744.459 382.129 740.944 382.073 737.705 382.142C732.155 382.253 729.055 387.235 725.305 394.003Z" fill="#FFDEE2"/>
    <path fill-rule="evenodd" clip-rule="evenodd" d="M760.818 411.068C759.752 407.816 758.589 405.782 761.108 403.166C762.492 401.671 764.125 401.436 765.454 403.166C766.324 404.582 766.933 406.143 767.253 407.775C767.654 409.422 766.423 411.719 765.426 413.048L760.818 411.068Z" fill="#FFDEE2"/>
    <path fill-rule="evenodd" clip-rule="evenodd" d="M912.074 321.178C908.295 326.696 905.694 332.934 904.434 339.502C903.327 346.076 902.732 354.089 906.87 359.861C914.316 370.227 925.941 359.764 932.501 354.145C934.186 352.49 935.762 350.729 937.22 348.872C938.949 347.225 940.46 345.365 941.718 343.336C944.21 338.7 946.05 332.167 944.376 326.991C942.701 321.815 938.701 319.019 933.927 317.234C930.674 316.085 919.312 315.089 912.074 321.178Z" fill="#FFDEE2"/>
    <path fill-rule="evenodd" clip-rule="evenodd" d="M898.912 383.513C898.054 380.358 897.39 379.361 899.009 376.912C900.033 375.362 900.503 374.365 902.206 373.604C903.215 373.084 904.378 372.948 905.48 373.22C906.582 373.492 907.548 374.155 908.198 375.085C909.582 377.133 908.863 380.496 907.548 382.351C905.223 385.658 902.012 384.994 898.912 386.793V383.513Z" fill="#FFDEE2"/>
  </g>
  <path d="M272.37 410.772L271.788 410.925L270.09 411.399C270.855 411.17 271.605 411.032 272.37 410.772Z" fill="#160705"/>
  <path d="M896.281 464.685C896.587 465.71 896.802 466.751 897 467.746C896.93 466.693 896.687 465.659 896.281 464.685Z" fill="#160705"/>
  <path d="M868.184 465.787C867.404 466.108 866.654 466.46 865.889 466.843C866.592 466.37 867.367 466.013 868.184 465.787Z" fill="#160705"/>
  <path d="M868.061 463.552C868.399 464.326 868.695 465.118 868.948 465.924C868.786 465.09 868.486 464.288 868.061 463.552Z" fill="#160705"/>
  <g opacity="0.7">
    <path d="M486.917 616.083L487.024 611.829L489.702 614.354L487.208 611.63L491.263 611.523L487.208 611.431L489.702 608.722L487.024 611.232L486.917 607.023L486.825 611.232L484.163 608.722L486.642 611.431L482.602 611.523L486.642 611.63L484.163 614.354L486.825 611.829L486.917 616.083Z" fill="white"/>
    <path d="M438.193 564.603L438.346 557.962L442.523 561.895L438.652 557.656L444.972 557.503L438.652 557.365L442.508 553.126L438.346 557.044L438.193 550.479L438.055 557.044L433.877 553.126L437.749 557.365L431.475 557.503L437.749 557.656L433.877 561.895L438.055 557.962L438.193 564.603Z" fill="white"/>
    <path d="M482.096 512.48L482.188 508.287L484.836 510.766L482.387 508.088L486.381 507.997L482.387 507.905L484.836 505.227L482.188 507.706L482.096 503.559L482.005 507.706L479.372 505.227L481.806 507.905L477.857 507.997L481.806 508.088L479.372 510.766L482.005 508.287L482.096 512.48Z" fill="white"/>
    <path d="M514.708 580.197L514.846 578.957L515.443 579.401L515.014 578.789L516.238 578.651L515.014 578.513L515.443 577.916L514.846 578.345L514.708 577.121L514.57 578.345L513.973 577.916L514.402 578.513L513.178 578.651L514.402 578.789L513.973 579.401L514.57 578.957L514.708 580.197Z" fill="white"/>
    <path d="M465.369 396.345L465.614 394.141L466.701 394.922L465.92 393.835L468.124 393.591L465.92 393.346L466.701 392.259L465.614 393.04L465.369 390.836L465.125 393.04L464.038 392.259L464.803 393.346L462.6 393.591L464.803 393.835L464.038 394.922L465.125 394.141L465.369 396.345Z" fill="white"/>
    <path d="M457.55 477.543L457.948 473.962L459.708 475.217L458.453 473.472L462.034 473.059L458.453 472.661L459.708 470.902L457.948 472.156L457.55 468.591L457.152 472.156L455.392 470.902L456.647 472.661L453.066 473.059L456.647 473.472L455.392 475.217L457.152 473.962L457.55 477.543Z" fill="white"/>
    <path d="M411.487 452.844L411.625 451.62L412.237 452.048L411.793 451.451L413.033 451.314L411.793 451.176L412.237 450.564L411.625 451.008L411.487 449.768L411.35 450.992L410.753 450.564L411.181 451.176L409.957 451.314L411.181 451.451L410.753 452.048L411.35 451.62L411.487 452.844Z" fill="white"/>
    <path d="M511.722 384.087L511.6 389.091L508.447 386.122L511.37 389.321L506.596 389.443L511.37 389.55L508.463 392.748L511.6 389.795L511.722 394.753L511.829 389.795L514.982 392.748L512.059 389.55L516.803 389.443L512.059 389.321L514.982 386.122L511.829 389.091L511.722 384.087Z" fill="white"/>
    <path d="M512.796 463.755L512.658 464.995L512.046 464.551L512.49 465.163L511.266 465.301L512.49 465.439L512.046 466.036L512.658 465.607L512.796 466.831L512.934 465.607L513.531 466.036L513.102 465.439L514.326 465.301L513.102 465.163L513.531 464.551L512.934 464.995L512.796 463.755Z" fill="white"/>
    <path d="M65.2832 312.362L70.2873 312.484L67.3185 315.637L70.5322 312.714L70.6393 317.488L70.7617 312.714L73.9448 315.637L70.9913 312.484L75.9495 312.362L70.9913 312.255L73.9448 309.102L70.7617 312.025L70.6393 307.296L70.5322 312.025L67.3185 309.102L70.2873 312.255L65.2832 312.362Z" fill="white"/>
    <path d="M66.3867 237.009L70.6257 237.101L68.1007 239.779L70.8246 237.3L70.9318 241.355L71.0236 237.3L73.7475 239.779L71.2225 237.101L75.4309 237.009L71.2225 236.902L73.7475 234.239L71.0236 236.718L70.9318 232.693L70.8246 236.718L68.1007 234.239L70.6257 236.902L66.3867 237.009Z" fill="white"/>
    <path d="M38.2578 204.612L40.4615 204.857L39.6963 205.943L40.7675 205.163L41.0277 207.367L41.2572 205.163L42.3438 205.943L41.5786 204.857L43.7669 204.612L41.5786 204.367L42.3438 203.281L41.2572 204.061L41.0277 201.857L40.7675 204.061L39.6963 203.281L40.4615 204.367L38.2578 204.612Z" fill="white"/>
    <path d="M63.6309 271.319L65.8345 271.563L65.0541 272.65L66.1406 271.869L66.3854 274.073L66.6303 271.869L67.7168 272.65L66.9363 271.563L69.14 271.319L66.9363 271.074L67.7168 269.987L66.6303 270.768L66.3854 268.564L66.1406 270.768L65.0541 269.987L65.8345 271.074L63.6309 271.319Z" fill="white"/>
    <path d="M102.271 264.784L103.496 264.922L103.067 265.534L103.664 265.09L103.802 266.33L103.94 265.09L104.536 265.534L104.108 264.922L105.347 264.784L104.108 264.662L104.536 264.05L103.94 264.478L103.802 263.254L103.664 264.478L103.067 264.05L103.496 264.662L102.271 264.784Z" fill="white"/>
    <path d="M132.008 294.518L133.232 294.655L132.804 295.252L133.4 294.824L133.538 296.063L133.676 294.824L134.273 295.252L133.844 294.655L135.084 294.518L133.844 294.38L134.273 293.783L133.676 294.212L133.538 292.987L133.4 294.212L132.804 293.783L133.232 294.38L132.008 294.518Z" fill="white"/>
    <path d="M129.205 237.85L130.429 237.988L130.001 238.6L130.598 238.172L130.735 239.396L130.873 238.172L131.47 238.6L131.041 237.988L132.266 237.85L131.041 237.728L131.47 237.116L130.873 237.544L130.735 236.32L130.598 237.544L130.001 237.116L130.429 237.728L129.205 237.85Z" fill="white"/>
    <path d="M183.96 268.87L184.358 265.289L186.118 266.559L184.863 264.784L188.429 264.401L184.863 263.988L186.118 262.228L184.358 263.498L183.96 259.917L183.563 263.498L181.803 262.228L183.058 263.988L179.477 264.401L183.058 264.799L181.803 266.544L183.563 265.289L183.96 268.87Z" fill="white"/>
    <path d="M296.453 629.886L292.26 629.795L294.739 627.163L292.061 629.611L291.954 625.602L291.862 629.611L289.184 627.163L291.663 629.795L287.516 629.886L291.663 629.978L289.184 632.626L291.862 630.177L291.954 634.141L292.061 630.177L294.739 632.626L292.26 629.978L296.453 629.886Z" fill="white"/>
    <path d="M390.367 602.279L388.178 602.035L388.943 600.963L387.857 601.729L387.627 599.525L387.367 601.729L386.296 600.963L387.061 602.035L384.857 602.279L387.061 602.524L386.296 603.611L387.367 602.83L387.627 605.034L387.872 602.83L388.943 603.611L388.178 602.524L390.367 602.279Z" fill="white"/>
    <path d="M357.71 554.166L355.507 553.921L356.287 552.85L355.201 553.615L354.956 551.412L354.711 553.615L353.624 552.85L354.39 553.921L352.201 554.166L354.39 554.411L353.624 555.498L354.696 554.732L354.956 556.936L355.201 554.732L356.272 555.498L355.507 554.411L357.71 554.166Z" fill="white"/>
    <path d="M312.521 453.808L310.317 453.563L311.113 452.477L310.011 453.257L309.766 451.054L309.521 453.257L308.45 452.477L309.215 453.563L307.012 453.808L309.215 454.053L308.45 455.14L309.521 454.359L309.766 456.563L310.011 454.359L311.098 455.14L310.317 454.053L312.521 453.808Z" fill="white"/>
    <path d="M379.259 481.936L375.693 481.538L376.948 479.778L375.188 481.033L374.775 477.452L374.393 481.033L372.633 479.778L373.888 481.538L370.307 481.936L373.888 482.333L372.633 484.093L374.393 482.838L374.775 486.404L375.188 482.838L376.948 484.093L375.693 482.333L379.259 481.936Z" fill="white"/>
    <path d="M319.072 560.7L317.848 560.563L318.276 559.966L317.679 560.394L317.542 559.17L317.389 560.394L316.792 559.966L317.22 560.563L315.996 560.7L317.22 560.838L316.792 561.45L317.389 561.006L317.542 562.246L317.679 561.006L318.276 561.45L317.848 560.838L319.072 560.7Z" fill="white"/>
    <path d="M247.668 560.7L246.444 560.563L246.872 559.966L246.275 560.394L246.138 559.17L246 560.394L245.403 559.966L245.832 560.563L244.607 560.7L245.832 560.838L245.403 561.45L246 561.006L246.138 562.246L246.275 561.006L246.872 561.45L246.444 560.838L247.668 560.7Z" fill="white"/>
    <path d="M307.672 498.891L306.447 498.754L306.876 498.157L306.279 498.585L306.141 497.346L306.004 498.585L305.391 498.157L305.835 498.754L304.596 498.891L305.82 499.029L305.391 499.626L306.004 499.197L306.141 500.422L306.279 499.197L306.876 499.626L306.447 499.029L307.672 498.891Z" fill="white"/>
    <path d="M216.417 617.858L212.836 617.46L214.106 615.7L212.331 616.955L211.933 613.39L211.535 616.955L209.776 615.7L211.046 617.46L207.465 617.858L211.03 618.256L209.776 620.016L211.535 618.761L211.933 622.327L212.331 618.761L214.091 620.016L212.836 618.256L216.417 617.858Z" fill="white"/>
    <path d="M80.2363 592.057L85.2558 592.164L82.2869 595.316L85.4853 592.393L85.5924 597.168L85.7149 592.393L88.9132 595.316L85.9444 592.164L90.9026 592.057L85.9444 591.95L88.9132 588.797L85.7149 591.72L85.5924 586.976L85.4853 591.72L82.2869 588.782L85.2558 591.95L80.2363 592.057Z" fill="white"/>
    <path d="M121.096 532.512L125.289 532.589L122.794 535.236L125.472 532.788L125.58 536.782L125.671 532.788L128.349 535.236L125.87 532.589L130.017 532.512L125.87 532.405L128.349 529.773L125.671 532.222L125.58 528.243L125.472 532.222L122.794 529.773L125.289 532.405L121.096 532.512Z" fill="white"/>
    <path d="M183.303 485.593L187.496 485.685L185.017 488.317L187.695 485.884L187.787 489.878L187.894 485.884L190.572 488.317L188.077 485.685L192.24 485.593L188.077 485.501L190.572 482.869L187.894 485.302L187.787 481.339L187.695 485.302L185.017 482.869L187.496 485.501L183.303 485.593Z" fill="white"/>
    <path d="M177.84 531.166L179.064 531.303L178.636 531.915L179.232 531.472L179.37 532.711L179.508 531.472L180.12 531.915L179.676 531.303L180.916 531.166L179.692 531.028L180.12 530.431L179.508 530.859L179.37 529.635L179.232 530.859L178.636 530.431L179.064 531.028L177.84 531.166Z" fill="white"/>
    <path d="M256.709 516.658L257.933 516.796L257.505 517.408L258.117 516.98L258.239 518.204L258.377 516.98L258.989 517.408L258.561 516.796L259.785 516.658L258.561 516.521L258.989 515.924L258.377 516.352L258.239 515.128L258.117 516.352L257.505 515.924L257.933 516.521L256.709 516.658Z" fill="white"/>
    <path d="M202.646 562.613L203.871 562.751L203.442 563.363L204.039 562.935L204.177 564.159L204.315 562.935L204.911 563.363L204.483 562.751L205.722 562.613L204.483 562.476L204.911 561.879L204.315 562.307L204.177 561.083L204.039 562.307L203.442 561.879L203.871 562.476L202.646 562.613Z" fill="white"/>
    <path d="M217.045 298.665L218.269 298.818L217.841 299.414L218.438 298.986L218.575 300.21L218.713 298.986L219.31 299.414L218.881 298.818L220.121 298.665L218.897 298.542L219.31 297.93L218.713 298.359L218.575 297.134L218.438 298.359L217.841 297.93L218.269 298.542L217.045 298.665Z" fill="white"/>
    <path d="M201.65 200.48L202.875 200.618L202.446 201.215L203.058 200.786L203.196 202.026L203.334 200.786L203.931 201.215L203.502 200.618L204.726 200.48L203.502 200.342L203.931 199.745L203.334 200.174L203.196 198.95L203.058 200.174L202.446 199.745L202.875 200.342L201.65 200.48Z" fill="white"/>
    <path d="M447.998 213.579L452.206 213.671L449.712 216.319L452.39 213.87L452.482 217.864L452.589 213.87L455.267 216.303L452.773 213.671L456.935 213.579L452.773 213.488L455.267 210.856L452.589 213.289L452.482 209.325L452.39 213.289L449.712 210.856L452.206 213.488L447.998 213.579Z" fill="white"/>
    <path d="M458.65 266.176L459.89 266.314L459.446 266.911L460.058 266.483L460.196 267.707L460.318 266.483L460.931 266.911L460.502 266.314L461.726 266.176L460.502 266.039L460.931 265.427L460.318 265.87L460.196 264.631L460.058 265.87L459.446 265.427L459.875 266.039L458.65 266.176Z" fill="white"/>
    <path d="M116.672 341.682L111.668 341.56L114.622 338.407L111.438 341.33L111.316 336.556L111.194 341.33L107.995 338.407L110.964 341.56L106.006 341.682L110.964 341.789L107.995 344.942L111.194 342.019L111.316 346.748L111.438 342.019L114.622 344.942L111.668 341.789L116.672 341.682Z" fill="white"/>
    <path d="M175.528 327.358L170.523 327.236L173.492 324.084L170.294 327.007L170.172 322.232L170.049 327.007L166.866 324.084L169.835 327.236L164.861 327.358L169.835 327.466L166.866 330.618L170.049 327.68L170.172 332.424L170.294 327.68L173.492 330.618L170.523 327.466L175.528 327.358Z" fill="white"/>
    <path d="M43.11 362.785L38.1058 362.678L41.0747 359.525L37.8763 362.448L37.7539 357.674L37.6468 362.448L34.4484 359.525L37.4172 362.678L32.459 362.785L37.4172 362.907L34.4484 366.045L37.6468 363.137L37.7539 367.866L37.8763 363.137L41.0747 366.045L38.1058 362.907L43.11 362.785Z" fill="white"/>
    <path d="M79.5165 438.214L75.2622 438.122L77.7872 435.444L75.0633 437.923L74.9715 433.868L74.8643 437.923L72.1557 435.444L74.6654 438.122L70.457 438.214L74.6654 438.306L72.1557 440.984L74.8643 438.505L74.9715 442.53L75.0633 438.505L77.7872 440.984L75.2622 438.306L79.5165 438.214Z" fill="white"/>
    <path d="M61.0916 529.711L54.4653 529.558L58.3982 525.381L54.1593 529.252L54.0062 522.932L53.8532 529.252L49.6142 525.396L53.5471 529.558L46.9668 529.711L53.5471 529.864L49.6142 534.027L53.8532 530.155L54.0062 536.445L54.1593 530.155L58.3982 534.027L54.4653 529.864L61.0916 529.711Z" fill="white"/>
    <path d="M131.591 455.017L129.403 454.772L130.168 453.686L129.081 454.466L128.837 452.263L128.592 454.466L127.521 453.686L128.286 454.772L126.082 455.017L128.286 455.262L127.521 456.333L128.592 455.568L128.837 457.772L129.081 455.568L130.168 456.349L129.403 455.262L131.591 455.017Z" fill="white"/>
    <path d="M146.39 370.376L144.186 370.131L144.967 369.044L143.88 369.825L143.635 367.621L143.391 369.825L142.304 369.044L143.085 370.131L140.881 370.376L143.085 370.62L142.304 371.707L143.391 370.927L143.635 373.13L143.88 370.927L144.967 371.707L144.186 370.62L146.39 370.376Z" fill="white"/>
    <path d="M113.519 403.247L111.315 403.002L112.08 401.915L111.009 402.696L110.764 400.492L110.519 402.696L109.433 401.915L110.213 403.002L108.01 403.247L110.213 403.492L109.433 404.578L110.519 403.798L110.764 406.001L111.009 403.798L112.08 404.578L111.315 403.492L113.519 403.247Z" fill="white"/>
    <path d="M199.646 376.42L196.065 376.022L197.335 374.263L195.56 375.517L195.177 371.937L194.764 375.517L193.019 374.263L194.274 376.022L190.693 376.42L194.274 376.818L193.019 378.578L194.764 377.323L195.177 380.889L195.575 377.323L197.335 378.578L196.065 376.818L199.646 376.42Z" fill="white"/>
    <path d="M79.7771 380.537L78.5529 380.399L78.9813 379.802L78.3692 380.231L78.2468 379.006L78.1091 380.231L77.4969 379.802L77.9254 380.399L76.7012 380.537L77.9254 380.674L77.4969 381.271L78.1091 380.843L78.2468 382.067L78.3692 380.843L78.9813 381.271L78.5529 380.674L79.7771 380.537Z" fill="white"/>
    <path d="M502.679 244.721L501.455 244.583L501.884 243.987L501.287 244.415L501.149 243.191L501.011 244.415L500.415 243.987L500.843 244.583L499.604 244.721L500.843 244.859L500.415 245.456L501.011 245.027L501.149 246.252L501.287 245.027L501.884 245.456L501.455 244.859L502.679 244.721Z" fill="white"/>
    <path d="M68.2833 327.435L67.059 327.297L67.4875 326.701L66.8907 327.129L66.753 325.905L66.6152 327.129L66.0184 326.701L66.4469 327.297L65.2227 327.435L66.4469 327.573L66.0184 328.185L66.6152 327.756L66.753 328.981L66.8907 327.756L67.4875 328.185L67.059 327.573L68.2833 327.435Z" fill="white"/>
    <path d="M363.604 401.517L358.6 401.41L361.568 398.258L358.37 401.181L358.248 396.406L358.141 401.181L354.942 398.258L357.911 401.41L352.938 401.517L357.911 401.625L354.942 404.777L358.141 401.854L358.248 406.598L358.37 401.854L361.568 404.777L358.6 401.625L363.604 401.517Z" fill="white"/>
    <path d="M376.839 342.524L374.651 342.279L375.416 341.193L374.33 341.973L374.1 339.77L373.855 341.973L372.769 341.193L373.534 342.279L371.33 342.524L373.534 342.769L372.769 343.855L373.84 343.09L374.1 345.279L374.33 343.09L375.416 343.855L374.651 342.769L376.839 342.524Z" fill="white"/>
    <path d="M434.825 333.388L431.244 332.99L432.499 331.23L430.739 332.485L430.342 328.904L429.944 332.485L428.184 331.23L429.439 332.99L425.873 333.388L429.439 333.786L428.184 335.545L429.944 334.291L430.342 337.871L430.739 334.291L432.499 335.545L431.244 333.786L434.825 333.388Z" fill="white"/>
    <path d="M410.125 379.45L408.9 379.297L409.329 378.701L408.732 379.144L408.579 377.905L408.457 379.144L407.845 378.701L408.288 379.297L407.049 379.45L408.288 379.588L407.845 380.185L408.457 379.756L408.579 380.981L408.732 379.756L409.329 380.185L408.9 379.588L410.125 379.45Z" fill="white"/>
    <path d="M285.957 299.017L290.961 299.14L287.992 302.277L291.191 299.354L291.313 304.128L291.42 299.354L294.619 302.277L291.65 299.14L296.608 299.017L291.65 298.91L294.619 295.758L291.42 298.681L291.313 293.937L291.191 298.681L287.992 295.758L290.961 298.91L285.957 299.017Z" fill="white"/>
    <path d="M359.504 277.899L364.508 278.006L361.539 281.159L364.738 278.236L364.86 283.01L364.982 278.236L368.181 281.159L365.212 278.006L370.17 277.899L365.212 277.792L368.181 274.639L364.982 277.562L364.86 272.818L364.738 277.562L361.539 274.639L364.508 277.792L359.504 277.899Z" fill="white"/>
    <path d="M287.041 223.649L291.295 223.756L288.77 226.434L291.494 223.94L291.586 227.995L291.693 223.94L294.402 226.434L291.892 223.756L296.1 223.649L291.892 223.557L294.402 220.879L291.693 223.374L291.586 219.333L291.494 223.374L288.77 220.879L291.295 223.557L287.041 223.649Z" fill="white"/>
    <path d="M358.631 215.477L362.824 215.569L360.33 218.216L363.023 215.768L363.115 219.762L363.207 215.768L365.885 218.216L363.405 215.569L367.553 215.477L363.405 215.385L365.885 212.753L363.207 215.201L363.115 211.223L363.023 215.201L360.33 212.753L362.824 215.385L358.631 215.477Z" fill="white"/>
    <path d="M240.258 219.624L242.461 219.869L241.696 220.94L242.783 220.175L243.012 222.364L243.257 220.175L244.344 220.94L243.579 219.869L245.782 219.624L243.579 219.364L244.344 218.293L243.257 219.058L243.012 216.854L242.768 219.058L241.696 218.293L242.461 219.364L240.258 219.624Z" fill="white"/>
    <path d="M269.396 263.468L271.6 263.728L270.82 264.799L271.906 264.034L272.151 266.238L272.396 264.034L273.482 264.799L272.702 263.728L274.906 263.468L272.702 263.238L273.482 262.152L272.396 262.917L272.151 260.729L271.906 262.917L270.82 262.152L271.6 263.238L269.396 263.468Z" fill="white"/>
    <path d="M329.479 358.332L331.682 358.577L330.902 359.664L331.988 358.883L332.233 361.087L332.478 358.883L333.549 359.664L332.784 358.577L334.988 358.332L332.784 358.087L333.549 357.001L332.478 357.781L332.233 355.578L331.988 357.781L330.902 357.001L331.682 358.087L329.479 358.332Z" fill="white"/>
    <path d="M291.355 358.332L293.559 358.577L292.779 359.664L293.865 358.883L294.11 361.087L294.355 358.883L295.441 359.664L294.661 358.577L296.865 358.332L294.661 358.087L295.441 357.001L294.355 357.781L294.11 355.578L293.865 357.781L292.779 357.001L293.559 358.087L291.355 358.332Z" fill="white"/>
    <path d="M247.742 335.117L251.323 335.515L250.053 337.275L251.828 336.02L252.226 339.601L252.624 336.02L254.384 337.275L253.114 335.515L256.695 335.117L253.129 334.72L254.384 332.975L252.624 334.23L252.226 330.649L251.828 334.23L250.068 332.96L251.323 334.72L247.742 335.117Z" fill="white"/>
    <path d="M177.885 437.388L181.466 437.786L180.196 439.546L181.955 438.291L182.353 441.872L182.766 438.291L184.511 439.546L183.256 437.786L186.837 437.388L183.271 436.99L184.511 435.23L182.766 436.485L182.353 432.919L181.955 436.485L180.196 435.23L181.45 436.99L177.885 437.388Z" fill="white"/>
    <path d="M322.93 251.44L324.169 251.577L323.725 252.174L324.322 251.746L324.475 252.97L324.613 251.746L325.21 252.174L324.781 251.577L326.006 251.44L324.781 251.302L325.21 250.69L324.613 251.118L324.475 249.894L324.322 251.118L323.725 250.69L324.154 251.302L322.93 251.44Z" fill="white"/>
    <path d="M394.334 251.44L395.558 251.577L395.13 252.174L395.727 251.746L395.864 252.97L396.017 251.746L396.614 252.174L396.186 251.577L397.41 251.44L396.186 251.302L396.614 250.69L396.017 251.118L395.864 249.894L395.727 251.118L395.13 250.69L395.558 251.302L394.334 251.44Z" fill="white"/>
    <path d="M394.334 307.648L395.558 307.786L395.13 308.383L395.727 307.954L395.864 309.178L396.017 307.954L396.614 308.383L396.186 307.786L397.41 307.648L396.186 307.51L396.614 306.913L396.017 307.327L395.864 306.118L395.727 307.327L395.13 306.913L395.558 307.51L394.334 307.648Z" fill="white"/>
    <path d="M421.035 278.144L422.275 278.281L421.831 278.878L422.443 278.45L422.581 279.674L422.718 278.45L423.315 278.878L422.887 278.281L424.111 278.144L422.887 278.006L423.315 277.409L422.718 277.838L422.581 276.613L422.443 277.838L421.831 277.409L422.275 278.006L421.035 278.144Z" fill="white"/>
    <path d="M290.286 411.679L290.148 412.918L289.552 412.474L289.98 413.087L288.756 413.224L289.98 413.362L289.552 413.959L290.148 413.53L290.286 414.755L290.424 413.53L291.036 413.959L290.608 413.362L291.832 413.224L290.608 413.087L291.036 412.474L290.424 412.918L290.286 411.679Z" fill="white"/>
    <path d="M234.079 411.679L233.941 412.918L233.345 412.474L233.773 413.087L232.549 413.224L233.773 413.362L233.345 413.959L233.941 413.53L234.079 414.755L234.217 413.53L234.829 413.959L234.401 413.362L235.625 413.224L234.401 413.087L234.829 412.474L234.217 412.918L234.079 411.679Z" fill="white"/>
    <path d="M263.061 464.995L262.908 466.219L262.311 465.791L262.74 466.388L261.516 466.525L262.74 466.663L262.311 467.26L262.908 466.831L263.061 468.056L263.184 466.831L263.796 467.26L263.367 466.663L264.592 466.525L263.367 466.388L263.796 465.791L263.184 466.219L263.061 464.995Z" fill="white"/>
    <path d="M433.6 329.271L433.432 330.801L432.682 330.266L433.218 331.016L431.688 331.199L433.218 331.368L432.682 332.117L433.432 331.582L433.6 333.127L433.784 331.582L434.534 332.117L433.998 331.368L435.529 331.199L433.998 331.016L434.534 330.266L433.784 330.801L433.6 329.271Z" fill="white"/>
    <path d="M334.33 313.249L335.554 313.387L335.126 313.999L335.738 313.555L335.86 314.779L335.998 313.555L336.61 313.999L336.182 313.387L337.406 313.249L336.182 313.111L336.61 312.514L335.998 312.943L335.86 311.719L335.738 312.943L335.126 312.514L335.554 313.111L334.33 313.249Z" fill="white"/>
    <path d="M1508.19 534.823L1508.05 533.599L1507.45 534.027L1507.88 533.43L1506.66 533.293L1507.88 533.155L1507.45 532.543L1508.05 532.971L1508.19 531.747L1508.33 532.971L1508.94 532.543L1508.51 533.155L1509.73 533.293L1508.51 533.43L1508.94 534.027L1508.33 533.599L1508.19 534.823Z" fill="white"/>
    <path d="M1545.73 384.087L1545.85 389.092L1549 386.123L1546.08 389.321L1550.85 389.444L1546.08 389.551L1549 392.749L1545.85 389.795L1545.73 394.754L1545.62 389.795L1542.47 392.749L1545.39 389.551L1540.64 389.444L1545.39 389.321L1542.47 386.123L1545.62 389.092L1545.73 384.087Z" fill="white"/>
    <path d="M1500.41 393.055L1500.52 397.248L1503.15 394.769L1500.71 397.447L1504.71 397.539L1500.71 397.646L1503.15 400.309L1500.52 397.83L1500.41 401.992L1500.32 397.83L1497.69 400.309L1500.14 397.646L1496.18 397.539L1500.14 397.447L1497.69 394.769L1500.32 397.248L1500.41 393.055Z" fill="white"/>
    <path d="M1544.66 463.755L1544.79 464.995L1545.41 464.551L1544.96 465.163L1546.2 465.301L1544.96 465.439L1545.41 466.036L1544.79 465.607L1544.66 466.831L1544.52 465.607L1543.92 466.036L1544.35 465.439L1543.12 465.301L1544.35 465.163L1543.92 464.551L1544.52 464.995L1544.66 463.755Z" fill="white"/>
    <path d="M1508.51 340.948L1512.7 340.856L1510.21 338.224L1512.9 340.673L1512.98 336.663L1513.08 340.673L1515.76 338.224L1513.28 340.856L1517.43 340.948L1513.28 341.055L1515.76 343.687L1513.08 341.239L1512.98 345.202L1512.9 341.239L1510.21 343.687L1512.7 341.055L1508.51 340.948Z" fill="white"/>
    <path d="M1516.73 282.796L1517.95 282.658L1517.54 282.061L1518.12 282.49L1518.27 281.25L1518.41 282.49L1519.01 282.061L1518.58 282.658L1519.8 282.796L1518.58 282.933L1519.01 283.53L1518.41 283.102L1518.27 284.326L1518.12 283.102L1517.54 283.53L1517.95 282.933L1516.73 282.796Z" fill="white"/>
    <path d="M1516.73 226.588L1517.95 226.45L1517.54 225.838L1518.12 226.266L1518.27 225.042L1518.41 226.266L1519.01 225.838L1518.58 226.45L1519.8 226.588L1518.58 226.725L1519.01 227.322L1518.41 226.894L1518.27 228.118L1518.12 226.894L1517.54 227.322L1517.95 226.725L1516.73 226.588Z" fill="white"/>
  </g>
  <defs>
    <linearGradient id="paint0_linear_100_2" x1="820.631" y1="672.786" x2="820.631" y2="-944.45" gradientUnits="userSpaceOnUse">
      <stop offset="0.22" stop-color="#D31D2F"/>
      <stop offset="0.37" stop-color="#FF764B"/>
      <stop offset="0.47" stop-color="#FFB129"/>
      <stop offset="1" stop-color="#E6A828"/>
    </linearGradient>
  </defs>
</svg>
