<svg width="96" height="56" viewBox="0 0 96 56" fill="none" xmlns="http://www.w3.org/2000/svg">
<path fill-rule="evenodd" clip-rule="evenodd" d="M1.50956 2.01737C2.05244 1.05542 3.27235 0.715701 4.23431 1.25858C12.6076 5.98408 24.7383 12.293 37.5324 16.736C50.3912 21.2014 63.6022 23.6668 74.2764 21.0576C81.8026 19.2178 85.8699 15.5923 88.0836 12.2432C90.3389 8.8311 90.7513 5.5793 90.7513 4.50035C90.7513 3.39578 91.6468 2.50035 92.7513 2.50035C93.8559 2.50035 94.7513 3.39578 94.7513 4.50035C94.7513 6.25473 94.1647 10.2972 91.4205 14.4488C88.6346 18.6635 83.7019 22.8713 75.2262 24.9432C63.4005 27.8339 49.2782 25.0493 36.2202 20.5147C23.0977 15.9577 10.7284 9.51662 2.26835 4.74212C1.3064 4.19924 0.966677 2.97933 1.50956 2.01737Z" fill="#C1C1C1" stroke="black" stroke-width="2" stroke-linecap="round"/>
<path d="M82.751 41.5C82.751 48.9558 76.483 55 68.751 55C61.019 55 54.751 48.9558 54.751 41.5C54.751 34.0442 61.019 28 68.751 28C76.483 28 82.751 34.0442 82.751 41.5Z" fill="#D8801C"/>
<path d="M65.251 52.5C63.751 52 62.251 51 60.751 49M58.251 45C56.751 38.5 59.051 34.4 62.251 32M82.751 41.5C82.751 48.9558 76.483 55 68.751 55C61.019 55 54.751 48.9558 54.751 41.5C54.751 34.0442 61.019 28 68.751 28C76.483 28 82.751 34.0442 82.751 41.5Z" stroke="black" stroke-width="2" stroke-linecap="round"/>
<rect x="64.751" y="21.3896" width="5" height="10" rx="2.5" transform="rotate(-4.46819 64.751 21.3896)" fill="#C1C1C1" stroke="black" stroke-width="2" stroke-linecap="round"/>
<path fill-rule="evenodd" clip-rule="evenodd" d="M78.8446 41.9914L78.7954 40.8682C79.4349 40.6171 79.8775 39.9048 79.8416 39.0864C79.8058 38.2679 79.3026 37.5951 78.6436 37.4028L78.6282 37.0492L77.7309 37.0885L77.7464 37.4421C77.1069 37.6932 76.6644 38.4054 76.7003 39.2239C76.7361 40.0424 77.2392 40.7152 77.8982 40.9075L77.9474 42.0307C77.3079 42.2818 76.8654 42.9941 76.9013 43.8126C76.9371 44.631 77.4402 45.3038 78.0992 45.4961L78.1146 45.8497L79.0119 45.8104L78.9964 45.4568C79.6359 45.2057 80.0784 44.4935 80.0426 43.675C80.0067 42.8565 79.5036 42.1857 78.8446 41.9914ZM77.4664 39.6523L77.4259 38.7283C77.415 38.4802 77.5568 38.2548 77.7747 38.1357L77.7813 38.2861C77.791 38.5068 77.9922 38.6781 78.2296 38.6677L78.2653 38.6661C78.5028 38.6557 78.6882 38.4675 78.6785 38.2468L78.6719 38.0964C78.8995 38.196 79.0602 38.4062 79.0712 38.6562L79.1117 39.5802C79.1225 39.8283 78.9808 40.0537 78.7629 40.1729L78.7563 40.0224C78.7466 39.8017 78.5454 39.6305 78.308 39.6409L78.2702 39.6425C78.0328 39.6529 77.8473 39.8411 77.857 40.0618L77.8635 40.2122C77.6402 40.1124 77.4773 39.9023 77.4664 39.6523ZM79.3148 44.1707C79.3257 44.4188 79.184 44.6442 78.966 44.7633L78.9563 44.5426C78.9467 44.3219 78.7455 44.1506 78.5081 44.161L78.4724 44.1626C78.2349 44.173 78.0495 44.3612 78.0591 44.5819L78.0688 44.8026C77.8413 44.703 77.6805 44.4928 77.6695 44.2428L77.6291 43.3188C77.6182 43.0707 77.7599 42.8453 77.9778 42.7261L77.9814 42.8062C77.991 43.027 78.1923 43.1982 78.4297 43.1878L78.4675 43.1862C78.7049 43.1758 78.8903 42.9876 78.8807 42.7668L78.8772 42.6867C79.1047 42.7864 79.2655 42.9966 79.2764 43.2466L79.3169 44.1706L79.3148 44.1707ZM74.3785 44.4185L74.3323 43.3636C74.9719 43.1125 75.4144 42.4003 75.3785 41.5818C75.3427 40.7633 74.8395 40.0905 74.1806 39.8982L74.1344 38.8434C74.7367 38.6076 75.1652 37.9606 75.1824 37.2004L74.4386 37.233L74.4527 37.5553C74.4636 37.8034 74.3219 38.0288 74.1039 38.148L74.0973 37.9975C74.0876 37.7768 73.8865 37.6056 73.6491 37.616L73.6112 37.6176C73.3738 37.628 73.1883 37.8162 73.198 38.0369L73.2046 38.1873C72.9771 38.0877 72.8163 37.8775 72.8053 37.6275L72.7912 37.3051L72.0474 37.3377C72.131 38.0934 72.6144 38.7005 73.235 38.8828L73.2812 39.9376C72.6437 40.1867 72.1992 40.899 72.2351 41.7195C72.271 42.5399 72.7741 43.2107 73.433 43.403L73.4792 44.4579C72.8769 44.6937 72.4484 45.3407 72.4312 46.1008L73.175 46.0682L73.1609 45.7459C73.15 45.4978 73.2917 45.2724 73.5097 45.1533L73.5163 45.3037C73.5259 45.5245 73.7272 45.6957 73.9646 45.6853L74.0024 45.6837C74.2398 45.6733 74.4252 45.4851 74.4156 45.2643L74.409 45.1139C74.6366 45.2135 74.7973 45.4237 74.8083 45.6738L74.8224 45.9961L75.5662 45.9635C75.4826 45.2078 74.9991 44.6007 74.3785 44.4185ZM73.0033 42.1477L72.9628 41.2237C72.952 40.9757 73.0937 40.7502 73.3116 40.6311L73.3182 40.7815C73.3279 41.0022 73.5291 41.1735 73.7665 41.1631L73.8043 41.1614C74.0418 41.151 74.2272 40.9629 74.2175 40.7421L74.2109 40.5917C74.4385 40.6913 74.5992 40.9015 74.6102 41.1516L74.6507 42.0756C74.6615 42.3236 74.5199 42.5491 74.3019 42.6682L74.2953 42.5178C74.2856 42.2971 74.0845 42.1258 73.847 42.1362L73.8092 42.1379C73.5718 42.1483 73.3863 42.3364 73.396 42.5572L73.4026 42.7076C73.1772 42.6079 73.0142 42.3978 73.0033 42.1477ZM69.0342 40.8335C69.0528 40.8738 69.0652 40.9163 69.0756 40.9608C69.1447 41.2686 69.3409 41.4849 69.5545 41.7204C69.8736 42.0721 70.2316 42.4667 70.2631 43.2731C70.3232 44.6464 69.3767 45.7721 67.347 45.861L66.5149 45.8974C66.5131 45.9034 66.1903 46.3696 65.4864 46.4005C65.1339 46.4276 64.9799 46.4187 64.9799 46.4187C64.3402 46.4223 64.0012 46.0416 63.9722 46.0091C63.9711 46.0078 63.9704 46.0071 63.9702 46.0069L63.1381 46.0434C61.1084 46.1323 60.0671 45.0936 60.0069 43.7203C59.9716 42.9138 60.2945 42.4896 60.5821 42.1119C60.775 41.8584 60.952 41.6259 60.9941 41.3128C61.0007 41.2695 61.0114 41.226 61.0242 41.1823C61.0176 41.1748 59.5452 39.4269 60.7864 38.2531C62.0164 37.0899 63.5695 38.4454 63.6062 38.4774C63.6065 38.4777 63.6067 38.4778 63.6068 38.4779C63.8413 38.3991 64.0789 38.3457 64.3155 38.3157C64.3155 38.3157 65.0014 38.2094 65.4964 38.264L65.4985 38.2639C65.7389 38.273 65.9824 38.3054 66.225 38.3652C66.2251 38.3651 66.2253 38.3649 66.2256 38.3646C66.2589 38.3299 67.6879 36.8433 69.015 37.8946C70.3278 38.933 69.0944 40.745 69.0363 40.8304C69.035 40.8322 69.0343 40.8333 69.0342 40.8335Z" fill="black"/>
</svg>
