<svg width="1648" height="432" viewBox="0 0 1648 432" fill="none" xmlns="http://www.w3.org/2000/svg">
  <path d="M1080.68 218.78L1089.59 217.37L1090.11 205.67L1011.88 204.09L1006.86 196.1L975.382 196.52L958.378 197.68L953.989 207.47L949.811 208.59L929.052 219.99L909.683 219.58L907.418 215.13L889.73 215.68L885.14 226.8L860.334 228.46L842.183 224.93L835.901 223.62L833.203 219.25L827.414 219.79L776.334 220.41L771.944 227.81L732.189 230.83L719.333 230.89L679.931 228.26L658.739 216.49L649.447 218.92L593.695 216.25L582.35 199.57L549.913 200L547.527 210.91L529.568 212.75L503.735 204.64L496.467 198.59L496.376 190.25L493.527 186.55L478.406 187.17L479.846 252.46L633.672 247.81L793.589 238.09L821.727 242.92L838.498 244L1102.38 239.26L1109.27 228.8L1081.8 227.58L1080.68 218.78Z" fill="#DD7962"/>
  <path d="M490.558 227.58L489.511 218.78L497.867 217.37L498.35 205.67L424.92 204.09L420.209 196.1L390.662 196.52L374.705 197.68L370.588 207.47L366.662 208.59L347.172 219.99L332.051 219.65V242.66L509.867 239.26L516.35 228.8L490.558 227.58Z" fill="#44D6AF"/>
  <path d="M1619.71 227.72L1609.73 228.46L1608.65 224.93L1603 223.62L1600.58 219.25L1595.39 219.79L1549.5 220.41L1545.55 227.81L1509.85 230.83L1498.3 230.89L1462.9 228.26L1443.87 216.49L1435.52 218.92L1385.45 216.25L1375.25 199.57L1346.11 200L1343.96 210.91L1327.84 212.75L1304.64 204.64L1298.1 198.59L1298.03 190.25L1295.46 186.55L1281.88 187.17L1283.17 252.46L1421.35 247.81L1565 238.09L1590.27 242.92L1605.34 244L1634.94 243.41L1619.71 227.72Z" fill="#E17C61"/>
  <path d="M1652.8 237.14H-1.22852V431.66H1652.8V237.14Z" fill="url(#paint0_linear_100_2)"/>
  <path d="M1441.36 238.39L1410.28 237.82L1320.87 237.38L1272.53 237.14L1246.93 237.94L1245.24 240.28L1208.88 239.37L1145.02 239.39L1145.81 239.1L1126.01 238.46L1073.87 238.05L992.768 238.27L933.714 238.21L909.03 238.15L883.53 238.7L824.506 239.61L779.949 237.42L719.073 237.33L639.804 237.46L606.441 239.21L570.048 239.81L474.934 238.73L451.971 238.68L418.004 237.11L368.786 237.61L332.051 238.02V244.45L347.343 244.28L346.457 242.29L386.434 241.65L451.8 241.39L474.723 242.5L518.011 243.44L536.555 246.15L584.545 244.67L636.774 244.05L655.972 242.5L721.338 241.59L835.761 242.47L871.6 243.07L909.543 243.86L916.963 245.19L954.272 246.34L1007.14 245L1013.67 242.3L1045.23 242.84L1140.96 245L1222.56 245.77L1259.05 242.46L1283.99 243.6L1333.01 244.82L1368.58 246.78L1458.09 246.72L1441.36 238.39Z" fill="#FFE184"/>
  <path d="M1407.94 248.91L1371.22 247.65L1315.37 247.78L1210.24 246.08L1148.52 245.16L1105.91 248.03L1077.12 248.12L957.837 250.11L912.19 249L870.368 245.79L770.954 245.56L694.608 245.72L638.741 249.75L564.718 248.07L532.74 247.07L501.778 247.18L427.725 247.29L326.027 246.87L260.641 247.63L235.798 248.8L236.782 249.34L156.711 249.3L111.104 250.97L108.983 246.67L76.8938 245.21L38.3004 246.62C38.3004 246.62 27.2609 244.514 20.8045 246.75C13.5377 249.267 -1.91903 259.505 5.77134 259.47C6.66186 259.466 13.0446 259.29 13.0446 259.29L62.5237 257.07L93.7808 254.98L139.55 261.05L241.887 259.62L361.932 255.67L401.511 254.68L409.691 259.63L476.001 262.09L522.795 259.98L532.091 257.53L579.677 256.08L624.624 255L768.113 253.37L850.081 255.04L874.164 257.89L939.662 259.03L999.842 261.74L1023.09 256.77L1077.38 255.04L1106.13 253.01L1188.1 253.49L1238.23 254.66L1237.12 258.31L1261.46 258.7L1326.48 259.92L1388.02 262.81L1410.87 262.3L1407.94 248.91Z" fill="#FFE184"/>
  <path d="M340.235 338.22L495.451 335.6L417.712 333.87L315.762 331.4L273.742 332.97L257.684 338.68L120.65 341.31L58.2239 343.51C58.2239 343.51 16.0546 336 10.1633 338.42C4.27199 340.84 10.1633 346.94 10.1633 346.94L57.9017 351.74L262.789 348.81L330.833 346.99L297.299 343.93L321.309 341.65L340.235 338.22Z" fill="#F2A14B"/>
  <path d="M463.74 375.31L405.199 374.47L325.81 377.72L323.353 382.77L308.655 384.43L250.135 389.45L183.641 393.52L145.225 386.6L146.252 385.79L88.4463 381.62L10.1641 378.66V380.72L18.248 380.76L113.413 385.59L133.608 388.6L128.957 395.57L115.889 395.28L89.7953 396.6L144.4 400.26L201.843 403.65L218.534 397.93L289.749 394.16L303.531 393.55L304.226 390.3L351.874 386.81L348.944 383.94L429.632 388.67L463.74 375.31Z" fill="#F2A14B"/>
  <path d="M463.74 320.64L405.199 319.81L325.81 323.06L323.353 328.11L308.655 329.77L250.135 334.78L183.641 338.86L145.225 331.94L146.252 331.12L88.4463 326.96L10.1641 324V326.06L18.248 326.1L113.413 330.93L133.608 333.94L128.957 340.91L115.889 340.62L89.7953 341.93L144.4 345.6L201.843 348.99L218.534 343.27L289.749 339.49L303.531 338.89L304.226 335.64L351.874 332.14L348.944 329.27L429.632 334L463.74 320.64Z" fill="#F2A14B"/>
  <path d="M747.693 277.2L816.231 276.09L881.838 275.92L945.322 277.36L1005.43 281.8L1137.34 283.43L1202.71 283.41L1233.72 283.33L1266.36 280.56L1331.84 279.07L1406.3 280.84V281.47L1339.15 280.38L1309.91 280.2L1274.32 280.9L1247.52 284.17L1220.25 284.89L1153.68 284.98L1023.57 284.1L964.671 279.88L896.446 277.49L823.69 277.21L747.693 278.16V277.2Z" fill="#F2A14B"/>
  <path d="M1552.44 317.14L1440.29 318.16L1351.37 318.21L1318 319.29L1193.58 321.23L1075.86 319.19L988.65 320.21L1102.96 326.35L1186.68 330.05L1214.36 331.47L1252.26 330.96L1282.86 332.39L1315.98 333.97L1406.12 332.48L1350.18 327.25L1356.09 325.85L1355.71 324.92L1364.9 324.7L1455.66 323.84L1553.23 324.86L1552.44 317.14Z" fill="#F2A14B"/>
  <path d="M300.566 282.46L200.523 289.58L98.958 289.41L7.9961 283.64L5.97656 283.63V284.75L12.8893 284.83L108.985 290.05L210.499 290.54L404.547 280.62L405.389 279.42L300.566 282.46Z" fill="#F2A14B"/>
  <path d="M967.439 312.56L1069.63 312.35L1168.79 306.58L1269.55 306.4L1368.79 313.53L1472.78 316.57L1471.95 315.36L1279.44 305.44L1178.74 305.93L1083.41 311.15L967.439 311.75V312.56Z" fill="#F2A14B"/>
  <path d="M1643.95 319.33V309.36L1643.57 309.38L1637.06 310.96L1629.35 312.89L1613.49 317.18L1605.81 319.26L1591.41 318.85L1552.98 318.89L1556.81 315.61L1499.39 312.84L1483.73 321.35L1551.84 325.15L1587.27 325.3L1605.39 325.32L1622.88 325.26L1622.67 321.32L1627.99 319.75L1643.95 319.33Z" fill="#F2A14B"/>
  <path d="M1590.84 288.77L1643.95 287.9V287.8L1582.02 286.14L1581.11 288.8L1592.73 293.21L1571.68 296.74L1542.22 295.72L1487.49 293.96L1503.35 287.9V285.71L1452.93 280.77L1396.24 280.35V281.95L1450.09 283.11L1499.56 287.07L1481.11 293.94L1481.85 296.13L1554.01 299.57L1584.19 300.39L1598.26 293.38L1596.81 290.54L1590.84 288.77Z" fill="#F2A14B"/>
  <path d="M1633.81 361.5L1626.35 361.6L1603.74 370.53L1567.22 374.97L1495.98 375.55L1209.06 370.97V375.12L1373.18 378.29L1512.07 380.26L1582.4 378.38L1606.28 374.13L1628.91 365.65L1643.95 364.07L1633.81 361.5Z" fill="#F2A14B"/>
  <path d="M360.885 277.99L440.506 279.53L479.103 280.25L496.912 279.21L514.359 274.57L542.637 271.99L583.298 272.29L617.446 274.75L656.205 277.37L747.172 275.73V276.62L667.772 278.99L629.456 277.8L614.587 275.76L593.456 273.92L554.255 273.67L514.832 276.21L487.721 281.56L452.083 281.2L360.885 279.4V277.99Z" fill="#F2A14B"/>
  <path d="M347.695 326.51L361.054 326.54L364.285 328.09L426.974 329.54L428.846 325.72L430.87 324.23L467.192 319.3L531.632 317.24L550.145 316.65L591.743 315.31L611.585 314.65L612.481 319.91L598.881 323.24L612.683 324.41V330.49L471.189 333.68L469.346 334.08L451.336 334.06L429.319 336.13L426.571 335.18L347.755 332.65H347.695L346.668 332.54L347.695 326.51Z" fill="#F2A14B"/>
  <path d="M369.078 311.92C368.071 308.22 367.125 304.2 367.517 300.34C371.333 300.34 374.202 308.45 373.93 311.92C377.282 309.1 378.551 303.85 383.162 302.32C383.574 306.69 381.36 311.92 377.967 314.32C383.373 311.92 389.162 308.11 395.353 308.75C394.276 310.86 383.836 317.53 383.222 315.92C379.386 318.54 361.256 318.22 358.92 312.69C360.702 310.71 366.893 310.99 369.078 311.92Z" fill="#9C7240"/>
  <path d="M1391.8 356.12C1387.77 354.12 1382.42 350.91 1380.12 346.97C1385.35 344.61 1391.77 346.49 1395.85 348.49C1394.74 344.95 1392.03 339.66 1392.96 336.07C1397.81 337.21 1401.27 341.91 1402.31 346.49C1404.2 341.93 1413.12 329.49 1418.83 327.6C1422.44 333.11 1416.88 342.97 1413.22 347.29C1412.95 347.585 1412.7 347.899 1412.47 348.23C1414.66 346.94 1422.03 340.59 1423.42 345.23C1424.43 348.51 1414.23 355.09 1412.42 354.92C1406.16 354.33 1397.78 359.04 1391.8 356.12Z" fill="#9C7240"/>
  <path d="M1355.03 282.57C1353.78 282.12 1348.84 275.12 1349.84 273.72C1352.32 270.25 1360.56 276.49 1361.5 278.96C1365.03 263.65 1370.28 279.89 1365.52 281.77C1367.82 280.59 1377.98 274.47 1380.45 276.98C1383.87 280.43 1373.07 287.43 1369.97 285.79C1365.33 286.5 1347.76 287.92 1346.58 282.23C1349.4 282 1352.24 282.114 1355.03 282.57Z" fill="#9C7240"/>
  <path d="M1253.58 308.5C1252 308.22 1246.05 302.17 1246.34 300.02C1247.03 295.02 1255.82 299.1 1256.41 301.27C1256.47 297.08 1256.14 285.75 1259.23 283.22C1262.63 290.61 1262.11 297.85 1261.66 305.69C1262.55 302.13 1265.75 298.3 1268.14 295.58C1270.31 298.21 1268.54 305.15 1266.12 307.29C1268.65 308.61 1273.11 306.36 1276.19 308.51C1273.49 312.85 1258.39 309.34 1253.58 308.5Z" fill="#9C7240"/>
  <path d="M591.995 263.4L592.851 263.83C592.986 263.844 593.118 263.878 593.243 263.93C593.443 263.995 593.638 264.071 593.827 264.16C594.2 264.37 594.552 264.6 594.905 264.81C595.257 265.02 595.579 265.25 595.911 265.48C596.295 265.71 596.636 266.004 596.918 266.35L597.009 266.46C597.033 266.373 597.067 266.29 597.109 266.21C597.236 265.995 597.416 265.815 597.633 265.69C597.633 265.58 597.633 265.47 597.633 265.36C597.532 264.72 597.482 264.07 597.341 263.43C597.2 262.79 597.16 262.11 596.999 261.43C596.983 261.308 597.008 261.185 597.069 261.078C597.13 260.971 597.224 260.887 597.337 260.837C597.45 260.788 597.576 260.776 597.696 260.804C597.817 260.831 597.925 260.896 598.005 260.99C598.403 261.565 598.74 262.178 599.012 262.82C599.203 263.376 599.357 263.944 599.475 264.52L599.988 264.24C600.613 263.89 601.237 263.53 601.871 263.24C602.273 263.026 602.69 262.843 603.119 262.69C603.294 262.626 603.472 262.573 603.653 262.53C603.801 262.492 603.953 262.469 604.106 262.46H604.348C604.503 262.464 604.656 262.502 604.795 262.572C604.934 262.641 605.056 262.739 605.153 262.86C605.253 262.983 605.323 263.127 605.356 263.282C605.39 263.437 605.385 263.597 605.344 263.75C605.254 264.01 605.121 264.253 604.952 264.47C604.828 264.607 604.697 264.738 604.559 264.86C604.226 265.164 603.869 265.441 603.492 265.69C603.23 265.87 602.958 266.03 602.686 266.19L603.441 266.34C603.684 266.388 603.903 266.515 604.066 266.7L604.468 266.86C604.545 266.886 604.61 266.938 604.653 267.007C604.696 267.076 604.713 267.157 604.703 267.237C604.692 267.317 604.654 267.391 604.595 267.446C604.535 267.501 604.459 267.534 604.378 267.54H604.015C603.806 267.695 603.552 267.779 603.291 267.78L602.546 267.84L601.106 267.99C600.633 267.99 600.16 267.99 599.676 267.99H599.475C599.44 268.135 599.374 268.27 599.28 268.386C599.185 268.502 599.067 268.596 598.931 268.66C598.757 268.717 598.568 268.708 598.399 268.637C598.231 268.565 598.094 268.435 598.015 268.27C597.889 268.29 597.76 268.29 597.633 268.27C597.563 268.302 597.488 268.322 597.411 268.33C597.084 268.335 596.762 268.245 596.485 268.07L596.183 267.93L595.982 267.82C595.837 267.803 595.697 267.759 595.569 267.69C595.463 267.625 595.362 267.551 595.267 267.47L595.005 267.26L594.361 266.76C593.938 266.43 593.566 266.06 593.183 265.7C592.99 265.531 592.815 265.343 592.66 265.14C592.511 264.963 592.386 264.768 592.287 264.56C592.066 264.33 591.844 264.1 591.633 263.86C591.608 263.805 591.599 263.745 591.606 263.685C591.613 263.625 591.637 263.569 591.674 263.521C591.711 263.474 591.761 263.438 591.818 263.416C591.874 263.395 591.936 263.389 591.995 263.4Z" fill="#9C7240"/>
  <path d="M481.437 261.57C481.432 261.593 481.432 261.617 481.437 261.64C481.437 261.72 481.437 261.8 481.437 261.88C481.407 261.78 481.417 261.68 481.437 261.57Z" fill="#9C7240"/>
  <path d="M478.004 260.83C478.123 260.687 478.287 260.588 478.47 260.55C478.653 260.512 478.844 260.537 479.011 260.62L479.514 260.88C479.634 260.9 479.75 260.941 479.856 261L480.048 261.12L480.36 261.32C480.652 261.515 480.934 261.726 481.205 261.95L481.366 262.14C481.366 261.98 481.366 261.82 481.366 261.65L481.457 261.03C481.452 260.947 481.452 260.863 481.457 260.78C481.487 260.674 481.538 260.575 481.608 260.49C481.61 260.344 481.659 260.202 481.748 260.085C481.837 259.968 481.96 259.882 482.101 259.84C482.247 259.804 482.4 259.815 482.539 259.871C482.678 259.926 482.796 260.024 482.876 260.15V260.2C482.945 260.243 483.01 260.293 483.068 260.35C483.193 260.488 483.285 260.652 483.34 260.83C483.34 260.93 483.42 261.02 483.45 261.12C483.551 261.403 483.602 261.7 483.601 262C483.606 262.07 483.606 262.14 483.601 262.21L484.548 261.93L485.101 261.76C485.192 261.76 485.283 261.68 485.373 261.66H485.474C485.613 261.593 485.763 261.549 485.917 261.53L486.168 261.44C486.342 261.35 486.537 261.308 486.732 261.32C486.806 261.314 486.88 261.314 486.954 261.32C487.126 261.296 487.302 261.312 487.468 261.366C487.633 261.419 487.785 261.51 487.91 261.63C488.035 261.751 488.131 261.898 488.19 262.061C488.25 262.224 488.271 262.398 488.252 262.57C488.282 262.807 488.251 263.048 488.162 263.27C488.091 263.438 488.003 263.599 487.9 263.75C487.85 263.82 487.829 263.84 487.819 263.84L487.729 264.06L487.457 264.41C487.351 264.531 487.236 264.644 487.115 264.75C486.569 265.277 485.931 265.701 485.232 266C484.825 266.195 484.4 266.352 483.964 266.47C483.512 266.571 483.055 266.648 482.595 266.7H482.101C481.954 266.715 481.806 266.715 481.658 266.7C481.377 266.683 481.103 266.597 480.863 266.45L480.752 266.36C480.271 266.202 479.859 265.884 479.584 265.46C479.424 265.181 479.348 264.861 479.366 264.54C479.384 264.219 479.495 263.91 479.685 263.65L479.595 263.58C479.484 263.475 479.386 263.358 479.303 263.23L479.484 263.46L479.011 262.89L478.769 262.63L478.648 262.51C478.573 262.433 478.508 262.345 478.457 262.25C478.316 262.11 478.175 261.97 478.024 261.84C477.902 261.7 477.834 261.523 477.83 261.339C477.827 261.154 477.888 260.974 478.004 260.83Z" fill="#9C7240"/>
  <path d="M417.048 269.18C417.2 268.937 417.436 268.759 417.713 268.68C417.999 268.61 418.3 268.65 418.558 268.79L419.283 269.24L419.475 269.35L419.293 269.02L418.961 268.24C418.854 268.038 418.763 267.827 418.689 267.61C418.679 267.5 418.679 267.39 418.689 267.28L418.629 267.01C418.614 266.891 418.614 266.77 418.629 266.65L418.518 266.34C418.48 266.186 418.493 266.023 418.555 265.877C418.618 265.731 418.726 265.608 418.863 265.527C419.001 265.447 419.161 265.412 419.32 265.429C419.479 265.445 419.629 265.512 419.746 265.62L419.917 265.79C420.066 265.845 420.205 265.923 420.33 266.02L420.411 266.09C420.906 266.417 421.33 266.838 421.659 267.33C421.73 267.4 421.77 267.49 421.83 267.56H421.931H422.011L422.344 267.49C422.466 267.46 422.594 267.46 422.716 267.49C422.837 267.492 422.955 267.527 423.058 267.59C423.144 267.617 423.223 267.661 423.29 267.72C423.484 267.809 423.648 267.951 423.763 268.13C423.862 268.307 423.907 268.508 423.894 268.71C423.919 268.819 423.919 268.931 423.894 269.04C423.885 269.222 423.826 269.399 423.723 269.55L423.511 269.83C423.469 269.878 423.422 269.922 423.371 269.96C423.272 270.054 423.164 270.138 423.048 270.21C423.103 270.42 423.103 270.64 423.048 270.85C422.983 271.068 422.852 271.261 422.671 271.4C422.49 271.54 422.27 271.621 422.042 271.63C421.618 271.607 421.221 271.421 420.934 271.11L420.733 270.91C420.761 271.051 420.736 271.197 420.662 271.32C420.576 271.461 420.439 271.564 420.28 271.61C420.183 271.644 420.081 271.665 419.978 271.67C419.858 271.666 419.74 271.645 419.626 271.61H419.505C419.398 271.62 419.29 271.62 419.183 271.61C419.027 271.589 418.876 271.538 418.74 271.46L418.639 271.4L418.277 271.19L417.542 270.76C417.294 270.611 417.111 270.376 417.028 270.1C416.966 269.954 416.936 269.796 416.94 269.638C416.943 269.479 416.98 269.323 417.048 269.18Z" fill="#9C7240"/>
  <path d="M534.463 289.98C536.025 289.926 537.558 290.41 538.802 291.35C539.295 290.91 539.959 290.66 540.432 290.21C540.579 290.072 540.759 289.973 540.955 289.923C541.151 289.873 541.356 289.874 541.552 289.925C541.747 289.976 541.927 290.076 542.073 290.215C542.218 290.354 542.326 290.528 542.386 290.72C542.653 291.618 542.858 292.534 543 293.46L543.624 293.2C544.409 292.88 545.214 292.61 545.979 292.26C546.131 292.174 546.31 292.146 546.481 292.18C546.652 292.214 546.805 292.309 546.912 292.447C547.019 292.584 547.072 292.755 547.061 292.929C547.051 293.102 546.978 293.266 546.855 293.39C546.261 294.129 545.586 294.8 544.842 295.39C544.072 295.975 543.234 296.466 542.345 296.85C542.06 296.982 541.742 297.026 541.431 296.976C541.121 296.926 540.832 296.785 540.604 296.57C540.554 296.601 540.499 296.625 540.443 296.64C540.197 296.695 539.943 296.695 539.698 296.64C539.357 296.569 539.021 296.479 538.691 296.37C537.967 296.127 537.272 295.809 536.617 295.42C535.995 295.036 535.409 294.598 534.865 294.11C534.34 293.619 533.856 293.087 533.416 292.52C533.217 292.309 533.083 292.046 533.031 291.761C532.978 291.477 533.009 291.184 533.119 290.917C533.229 290.649 533.415 290.419 533.653 290.253C533.891 290.087 534.172 289.992 534.463 289.98Z" fill="#9C7240"/>
  <path d="M1110.88 258.25C1111.06 258.33 1111.25 258.42 1111.43 258.52C1111.61 258.62 1111.96 258.64 1112.24 258.7C1112.72 258.8 1113.24 258.9 1113.71 258.97L1114.46 259.05C1114.43 258.83 1114.46 258.605 1114.55 258.403C1114.64 258.2 1114.79 258.027 1114.98 257.903C1115.16 257.78 1115.38 257.711 1115.61 257.705C1115.83 257.7 1116.05 257.757 1116.24 257.87C1116.33 257.924 1116.42 257.988 1116.49 258.06C1116.62 258.104 1116.74 258.158 1116.86 258.22C1117.05 258.35 1117.24 258.497 1117.41 258.66C1117.73 258.95 1118.02 259.268 1118.29 259.61C1118.35 259.695 1118.4 259.786 1118.45 259.88C1118.67 259.74 1118.89 259.58 1119.12 259.46C1119.51 259.256 1119.9 259.073 1120.31 258.91C1120.47 258.84 1120.63 258.79 1120.8 258.76C1120.91 258.73 1121.03 258.73 1121.15 258.76C1121.39 258.87 1121.42 258.88 1121.26 258.76C1121.34 258.76 1121.42 258.779 1121.5 258.816C1121.57 258.853 1121.64 258.906 1121.69 258.972C1121.74 259.038 1121.77 259.114 1121.79 259.195C1121.8 259.276 1121.8 259.36 1121.78 259.44C1121.78 259.25 1121.78 259.28 1121.78 259.55V259.78C1121.7 259.97 1121.59 260.144 1121.45 260.29C1121.16 260.648 1120.85 260.983 1120.51 261.29C1119.83 261.903 1119.1 262.468 1118.34 262.98C1118.12 263.108 1117.86 263.166 1117.61 263.148C1117.36 263.131 1117.12 263.037 1116.92 262.88C1116.77 262.761 1116.64 262.609 1116.56 262.435C1116.48 262.262 1116.44 262.072 1116.44 261.88C1116.24 261.851 1116.04 261.798 1115.85 261.72C1115.71 261.65 1115.58 261.559 1115.47 261.45C1115.42 261.648 1115.33 261.832 1115.2 261.99C1114.38 262.99 1112.56 262.46 1111.6 261.99C1111.05 261.765 1110.56 261.42 1110.17 260.98C1109.78 260.54 1109.49 260.017 1109.33 259.45C1109.11 258.65 1110.08 257.64 1110.88 258.25Z" fill="#9C7240"/>
  <path d="M745.167 270.07C745.111 269.864 745.002 269.676 744.85 269.525C744.698 269.374 744.509 269.266 744.302 269.21C743.386 269.056 742.448 269.104 741.553 269.35C741.201 269.45 740.859 269.56 740.496 269.65C740.315 269.499 740.115 269.372 739.902 269.27L739.671 269.14C739.447 269.028 739.194 268.986 738.946 269.02C738.89 268.989 738.827 268.973 738.763 268.973C738.7 268.973 738.637 268.99 738.581 269.021C738.526 269.052 738.479 269.097 738.446 269.151C738.413 269.205 738.394 269.267 738.392 269.33C738.256 269.515 738.173 269.732 738.15 269.96C738.145 270.05 738.145 270.14 738.15 270.23C738.12 270.521 738.14 270.816 738.211 271.1C738.37 271.6 738.572 272.085 738.815 272.55C738.956 272.786 739.156 272.981 739.396 273.116C739.636 273.251 739.908 273.322 740.184 273.32C740.4 273.321 740.614 273.274 740.81 273.184C741.007 273.095 741.181 272.964 741.322 272.8C741.544 272.949 741.808 273.026 742.077 273.02C742.417 273.023 742.756 272.98 743.083 272.89C743.483 272.755 743.852 272.545 744.171 272.27C744.259 272.199 744.343 272.122 744.422 272.04C744.604 271.841 744.747 271.61 744.845 271.36V271.45L744.936 271.31C744.936 271.22 745.016 271.13 745.046 271.04C745.136 270.897 745.193 270.736 745.214 270.568C745.235 270.401 745.219 270.231 745.167 270.07Z" fill="#9C7240"/>
  <path d="M1305.19 252.82C1305.63 252.799 1306.06 252.84 1306.48 252.94C1306.77 252.94 1307.07 252.94 1307.36 252.94C1307.99 253.01 1308.62 253.13 1309.24 253.25C1309.54 253.31 1309.83 253.39 1310.13 253.46C1310.14 253.264 1310.18 253.07 1310.24 252.88C1310.3 252.657 1310.44 252.462 1310.63 252.323C1310.82 252.184 1311.04 252.109 1311.28 252.109C1311.51 252.109 1311.74 252.184 1311.93 252.323C1312.12 252.462 1312.25 252.657 1312.32 252.88C1312.56 253.47 1312.9 254.012 1313.33 254.48C1313.67 254.21 1314 253.93 1314.33 253.63C1314.97 252.885 1315.78 252.3 1316.69 251.92C1316.77 251.899 1316.86 251.897 1316.94 251.914C1317.03 251.931 1317.11 251.967 1317.18 252.019C1317.24 252.071 1317.3 252.138 1317.34 252.214C1317.37 252.291 1317.39 252.375 1317.39 252.46C1317.24 253.55 1316.67 254.542 1315.81 255.24C1315.02 256.052 1314.17 256.801 1313.26 257.48C1313.1 257.571 1312.92 257.624 1312.74 257.636C1312.56 257.648 1312.37 257.619 1312.2 257.551C1312.03 257.483 1311.88 257.377 1311.76 257.241C1311.64 257.106 1311.55 256.945 1311.5 256.77C1311.41 256.716 1311.34 256.656 1311.26 256.59C1311.14 256.49 1311.01 256.4 1310.89 256.29C1310.86 256.374 1310.8 256.446 1310.72 256.496C1310.65 256.546 1310.56 256.572 1310.47 256.57C1308.39 256.47 1305.89 256.21 1304.5 254.49C1304.37 254.35 1304.29 254.176 1304.25 253.99C1304.22 253.804 1304.24 253.612 1304.31 253.437C1304.39 253.262 1304.51 253.111 1304.66 253.002C1304.82 252.893 1305 252.83 1305.19 252.82Z" fill="#9C7240"/>
  <path d="M1269.87 264.33C1269.92 264.098 1270.02 263.879 1270.16 263.687C1270.3 263.494 1270.48 263.332 1270.68 263.21C1270.94 263.036 1271.24 262.93 1271.56 262.9C1271.87 262.87 1272.18 262.918 1272.47 263.04C1272.76 263.153 1273.02 263.331 1273.23 263.56L1273.58 263.42C1273.75 263.368 1273.93 263.351 1274.1 263.37H1274.26C1274.39 263.377 1274.53 263.414 1274.65 263.48H1274.74C1274.84 263.508 1274.93 263.56 1275.01 263.634C1275.08 263.707 1275.14 263.798 1275.17 263.899C1275.2 263.999 1275.2 264.105 1275.18 264.207C1275.15 264.309 1275.1 264.403 1275.03 264.48C1274.88 264.787 1274.65 265.049 1274.37 265.24L1274.49 265.15C1274.46 265.168 1274.43 265.192 1274.41 265.22L1274.3 265.3L1274.06 265.53L1273.43 266.14C1273.37 266.221 1273.3 266.294 1273.22 266.36L1273.15 266.44C1273.07 266.511 1272.99 266.575 1272.91 266.63C1272.66 266.773 1272.36 266.821 1272.08 266.766C1271.8 266.71 1271.54 266.556 1271.37 266.33C1271.33 266.269 1271.3 266.205 1271.27 266.14C1270.99 266.187 1270.7 266.137 1270.45 266C1270.26 265.876 1270.1 265.705 1269.99 265.505C1269.88 265.304 1269.82 265.079 1269.82 264.85C1269.81 264.675 1269.83 264.5 1269.87 264.33Z" fill="#9C7240"/>
  <path d="M1272.7 263.12C1272.62 263.089 1272.55 263.062 1272.47 263.04L1272.7 263.12Z" fill="#9C7240"/>
  <path d="M646.307 300.08C646.044 300.03 645.774 300.03 645.511 300.08C645.699 299.681 645.748 299.231 645.652 298.8C645.652 298.72 645.592 298.67 645.572 298.61C645.567 298.56 645.567 298.51 645.572 298.46C645.572 298.34 645.501 298.22 645.451 298.1C645.395 297.905 645.29 297.727 645.145 297.584C645.001 297.44 644.822 297.336 644.625 297.28C644.424 297.225 644.212 297.223 644.011 297.276C643.809 297.329 643.625 297.434 643.478 297.58L643.286 297.57L642.994 297.74C642.732 297.903 642.482 298.087 642.249 298.29C641.865 298.633 641.527 299.022 641.243 299.45C641.061 299.723 640.903 300.011 640.77 300.31C640.455 300.072 640.118 299.864 639.763 299.69C639.32 299.48 638.696 299.83 638.867 300.37C639.013 300.889 639.24 301.382 639.541 301.83C639.843 302.27 640.155 302.69 640.478 303.11C640.616 303.328 640.819 303.497 641.06 303.594C641.3 303.691 641.565 303.711 641.817 303.65C642.059 303.571 642.272 303.421 642.427 303.219C642.581 303.017 642.671 302.774 642.682 302.52V302.22C642.682 302.22 642.682 302.14 642.682 302.1C642.682 302.06 642.682 301.99 642.682 301.93L642.864 302C642.819 302.112 642.795 302.23 642.793 302.35C642.793 302.515 642.847 302.675 642.947 302.807C643.047 302.939 643.187 303.035 643.347 303.08C643.732 303.168 644.136 303.103 644.474 302.9C644.854 302.767 645.213 302.582 645.541 302.35C645.844 302.146 646.101 301.881 646.295 301.573C646.489 301.265 646.616 300.92 646.669 300.56C646.669 300.452 646.634 300.347 646.568 300.26C646.503 300.174 646.411 300.11 646.307 300.08Z" fill="#9C7240"/>
  <path d="M639.36 303.05C639.303 302.9 639.205 302.769 639.078 302.67L638.887 302.54L638.645 302.4L638.545 302.34C638.363 302.241 638.158 302.19 637.951 302.19H637.81H637.548C637.423 302.213 637.308 302.272 637.216 302.36C637.111 302.394 637.016 302.453 636.939 302.531C636.862 302.609 636.805 302.705 636.773 302.81C636.744 302.924 636.745 303.043 636.775 303.157C636.805 303.27 636.863 303.375 636.944 303.46C637.009 303.617 637.113 303.754 637.246 303.86L637.447 303.99C637.628 304.094 637.832 304.153 638.041 304.16H638.444C638.558 304.17 638.673 304.17 638.786 304.16C638.927 304.124 639.056 304.052 639.159 303.95C639.249 303.922 639.33 303.872 639.394 303.803C639.458 303.734 639.503 303.65 639.523 303.558C639.544 303.467 639.539 303.371 639.511 303.282C639.482 303.193 639.43 303.113 639.36 303.05Z" fill="#9C7240"/>
  <path d="M834.906 264.43C833.815 264.35 832.73 264.21 831.654 264.01L830.104 263.72C829.91 263.68 829.719 263.63 829.53 263.57C829.427 263.403 829.277 263.27 829.098 263.187C828.919 263.104 828.72 263.075 828.524 263.104C828.329 263.132 828.147 263.218 828 263.349C827.853 263.479 827.748 263.65 827.698 263.84C827.633 264.064 827.549 264.281 827.446 264.49C827.159 264.195 826.857 263.914 826.54 263.65C826.165 263.313 825.76 263.009 825.332 262.74C824.869 262.493 824.364 262.334 823.842 262.27C823.69 262.233 823.529 262.245 823.384 262.307C823.239 262.368 823.118 262.475 823.04 262.61C822.961 262.746 822.929 262.903 822.949 263.058C822.968 263.213 823.038 263.358 823.148 263.47C823.408 263.83 823.701 264.164 824.024 264.47C824.366 264.75 824.728 265 825.03 265.29C825.685 265.887 826.3 266.525 826.873 267.2C827.008 267.33 827.175 267.423 827.356 267.47C827.538 267.517 827.729 267.517 827.911 267.47C828.093 267.423 828.26 267.33 828.395 267.2C828.531 267.071 828.63 266.909 828.685 266.73C828.785 266.46 828.876 266.17 828.977 265.87C829.18 265.928 829.389 265.962 829.601 265.97C829.459 266.071 829.331 266.188 829.218 266.32C829.14 266.404 829.084 266.506 829.056 266.617C829.028 266.728 829.028 266.844 829.058 266.955C829.087 267.065 829.143 267.167 829.223 267.25C829.302 267.333 829.401 267.395 829.51 267.43C830.509 267.666 831.554 267.624 832.53 267.31C833.521 267.058 834.474 266.681 835.369 266.19C835.561 266.094 835.714 265.936 835.802 265.742C835.89 265.548 835.909 265.33 835.855 265.124C835.8 264.918 835.677 264.737 835.504 264.61C835.331 264.484 835.12 264.42 834.906 264.43Z" fill="#9C7240"/>
  <path d="M385.781 270.14C385.599 270.07 386.063 270.38 386.113 270.42C386.264 270.529 386.422 270.63 386.586 270.72C386.887 270.879 387.196 271.023 387.512 271.15C387.986 271.394 388.525 271.482 389.053 271.4L389.888 271.31C390.008 271.301 390.123 271.265 390.227 271.204C390.33 271.144 390.417 271.06 390.482 270.96L391.489 271.88C391.625 272.009 391.789 272.106 391.969 272.165C392.148 272.223 392.338 272.241 392.525 272.217C392.712 272.193 392.892 272.128 393.05 272.026C393.209 271.925 393.343 271.789 393.442 271.63C393.781 271.122 394.18 270.655 394.63 270.24C394.902 270.013 395.145 269.755 395.355 269.47C395.516 269.23 395.626 268.97 395.798 268.72C395.969 268.47 395.717 268.13 395.435 268.1C395.045 268.035 394.647 268.035 394.257 268.1C393.863 268.21 393.489 268.382 393.15 268.61C392.868 268.798 392.602 269.009 392.355 269.24L391.147 267.99C390.984 267.833 390.783 267.72 390.564 267.661C390.345 267.602 390.114 267.599 389.893 267.653C389.673 267.707 389.47 267.816 389.304 267.969C389.137 268.123 389.013 268.316 388.942 268.53H388.861H388.761H388.851L388.7 268.44C387.693 267.9 386.596 267.44 385.459 268.02C385.254 268.138 385.089 268.315 384.987 268.527C384.884 268.739 384.849 268.977 384.885 269.21C384.931 269.433 385.039 269.639 385.198 269.803C385.356 269.968 385.558 270.084 385.781 270.14Z" fill="#9C7240"/>
  <path d="M1024.68 237.44L1123.34 238.11L1141.69 238.23L1256.77 239.01L1470.85 240.45C1467.91 238.45 1462.2 228.77 1460.4 225.93C1457.74 222.55 1452.2 215.45 1449.63 212.07C1446.23 211.62 1438.77 209.29 1435.4 208.39C1435.81 206.39 1433.39 200.28 1432.7 198.3H1433.12L1432.52 197.18C1429.39 195.76 1422.9 192.94 1419.71 191.7L1416.54 191.05L1413.2 189.22L1412.98 185L1411.73 182.89L1403.51 178.99C1399.28 155.61 1395.56 122.56 1389.48 99.4801L1384.88 92.8701L1383.15 87.4401C1381.75 68.4401 1380.86 44.7501 1377.11 25.8801L1372.08 24.2001C1371.84 22.5767 1371.7 20.9403 1371.67 19.3001L1370 14.1701C1365.46 13.8302 1360.97 13.0225 1356.6 11.7601C1354.68 11.2176 1352.8 10.5494 1350.98 9.76013C1350.98 10.9901 1351.05 13.6201 1351.09 14.8401L1350.16 17.4501C1345.66 16.9601 1339.34 17.3401 1335.06 16.3601L1334.06 14.3601L1333.62 13.5101L1333.34 10.3701L1329.03 6.50012C1327.62 6.44012 1326.01 6.34012 1324.15 6.25012C1318.47 5.93012 1311.06 5.47013 1303.53 4.98013C1297.69 4.60013 1291.82 4.20013 1286.71 3.84013L1279.66 3.36012L1277.57 3.21013L1276.56 3.14014C1276.41 4.61014 1275.95 8.03014 1274.77 9.14014C1272.44 9.3249 1270.13 9.64208 1267.83 10.0901L1265.9 14.5601C1265.6 14.6701 1265.25 14.8201 1264.89 14.9701C1262.09 16.0701 1257.55 17.7801 1255.21 18.5301C1251.94 27.0901 1248.92 46.0801 1246.87 55.1401C1245.3 65.7901 1243.53 89.9001 1240.83 100.07L1240.75 100.13H1235.84L1232.35 102.53C1230.78 111.96 1226.76 123.98 1224.29 133.21C1221.96 132.92 1215.23 130.89 1212.85 130.21C1209.97 139.44 1208.13 153.42 1204.72 162.5L1199.03 163.32L1196.37 165.68C1196.31 168.68 1195.98 175.88 1194.94 178.68C1191.85 180.226 1188.84 181.938 1185.94 183.81L1185.58 183.92L1183.39 184.59L1181.98 185.92L1182.17 192.92C1181.84 194.2 1180.95 197.69 1180.51 198.92C1178.61 200.07 1171.37 198.78 1169.19 198.54L1167.1 198.34C1163.74 197.99 1158.5 197.43 1156.46 197.11C1157.24 193.8 1157.28 188.5 1157.29 185.11C1157.16 181.21 1154.81 168.93 1156.12 165.32L1152.75 164.53L1152.62 164.03L1151.92 161.65C1152.3 157.35 1156.49 144.9 1155.95 140.76C1156.2 139.16 1156.56 136.32 1155.56 134.81C1156.86 129.958 1157.86 125.037 1158.58 120.07C1160.09 115.94 1164.22 102.15 1165.54 97.7501C1166.32 94.5401 1165.79 83.3801 1167.18 80.4801L1162.57 77.7501L1160.93 75.5001C1163.17 65.5001 1164.96 47.5001 1167.71 37.6901C1166.93 37.4815 1166.2 37.1433 1165.54 36.6901C1164.87 36.2901 1164.27 35.9001 1164.11 35.8201L1158.07 35.0701L1153.65 34.5401C1151.97 36.0301 1151.16 47.5401 1150.81 49.6501C1148.31 62.5001 1144.15 99.5201 1139.91 111.41L1134.74 111.97C1132.21 117.97 1131.53 129.21 1128.47 135.1L1120.55 139.68C1119.69 152.96 1113.26 168.33 1111.26 181.53L1098.42 186.57C1096.25 190.52 1092.28 199.01 1090.52 203.16L1084.25 205.16C1082.54 207.557 1081.04 210.093 1079.76 212.74C1073.37 213.39 1062.64 213.18 1056.6 214.88C1056.08 216.88 1054.02 219.31 1053.11 221.22L1052.75 220.85C1049.28 221.3 1044.6 223.6 1040.21 226.13C1036.29 228.4 1032.57 230.84 1030.08 232.3L1024.68 237.44Z" fill="url(#paint1_linear_100_2)"/>
  <path d="M1223.41 205.13L1247.23 178.53L1247.79 164.09L1259.08 119.93L1266.12 111.81L1279.68 3.32016L1277.59 3.17017L1264.77 91.6201L1260.95 110.3L1259.94 111.2H1253.49L1243.95 159.29L1244.47 163.39L1240.72 177.39L1230.99 177.91L1223.41 205.13ZM1196.17 235.01L1222.97 233.61L1243.55 233.96L1247.82 228.68L1275 222.59L1279.36 214.5L1295.7 208.5L1298 188.91L1305.71 176.57L1314.68 169.24L1323.5 112.33L1332.81 78.1402L1334.08 14.3502L1333.65 13.5002L1333.36 10.3602L1329.05 6.49016C1327.64 6.43016 1326.03 6.33016 1324.17 6.24016L1322.53 27.5202L1321.15 68.1802L1316.5 71.4202L1313.6 33.4202L1310.27 27.8302L1307.95 88.5002L1310.25 91.5002L1300 162.04L1291.94 162.52L1286.1 191.72L1280.66 203.72L1244.6 219.38L1243.06 225.49L1242.86 224.99L1209.64 231.05L1196.17 235.01ZM1256.73 238.94L1470.81 240.38C1467.87 238.38 1462.16 228.7 1460.37 225.86C1457.7 222.47 1452.16 215.37 1449.59 212C1446.19 211.55 1438.74 209.22 1435.36 208.32C1435.77 206.32 1433.35 200.21 1432.66 198.23H1433.09L1432.49 197.11C1429.35 195.69 1422.86 192.87 1419.67 191.63L1416.5 190.98L1413.17 189.15L1412.95 184.93L1411.69 182.82L1403.47 178.92C1399.24 155.54 1395.52 122.49 1389.44 99.4102L1384.85 92.8002L1383.11 87.3701C1381.71 68.3701 1380.82 44.6802 1377.07 25.8102L1372.04 24.1302C1371.81 22.5062 1371.67 20.8701 1371.63 19.2302L1369.96 14.0902C1365.42 13.7529 1360.93 12.9486 1356.56 11.6902L1354.54 79.3302L1342.22 95.8401L1341.64 125.51L1337.87 128.34L1334.22 130.04L1325.26 176.49L1324.17 199.71L1318.91 202.46L1313.26 220.71L1274.15 228.99L1275.6 231.12L1281.04 232.47L1280.12 235.87L1256.73 238.94Z" fill="#E2834B"/>
  <path d="M1123.43 215.57L1129.35 217.88V229.04L1123.42 238.16L1141.77 238.28L1153.46 207.38L1163.89 205.93L1167.12 198.37C1163.76 198.02 1158.52 197.46 1156.48 197.14C1157.26 193.83 1157.3 188.53 1157.31 185.14C1157.17 181.24 1154.83 168.96 1156.14 165.35L1152.77 164.56L1152.63 164.06L1151.94 161.68C1152.32 157.38 1156.51 144.93 1155.97 140.79C1156.22 139.19 1156.58 136.35 1155.58 134.84C1156.88 129.988 1157.88 125.067 1158.6 120.1C1160.11 115.97 1164.24 102.18 1165.56 97.78C1166.34 94.57 1165.81 83.41 1167.2 80.51L1162.59 77.78L1160.95 75.53C1163.18 65.53 1164.98 47.53 1167.73 37.72C1166.95 37.5113 1166.22 37.1731 1165.56 36.72L1153.08 79.21L1154.59 82.99L1155.2 86.4L1145.83 136.51L1141.32 159.33L1139.83 160.71L1133.36 163.55L1129.45 165.85L1139.79 168.61L1138.78 171.97L1136.05 191.97L1129.81 193.04L1128.09 201.17L1107.58 207.17L1123.33 212.44L1123.43 215.57Z" fill="#E2834B"/>
  <g style="mix-blend-mode:screen">
    <path d="M1040.18 226.13L1074.16 227.57L1076.29 224.39L1103.15 223.44L1104.15 214.06L1100.83 208.35L1102.65 199.51L1112.63 197.43L1110.81 197.05L1121.53 186.57L1124.28 180.07L1127.16 180.34L1128.07 179.19L1126.62 172.99L1123.6 166.99L1127.18 150.09L1136.52 146.92L1138.84 143.84L1146.19 110.32L1147.29 99.3201L1148.66 88.5701L1157.79 35.3001H1158.16L1158.08 34.9901L1153.66 34.4601C1151.98 35.9501 1151.17 47.4601 1150.82 49.5701C1148.32 62.4201 1144.16 99.4402 1139.92 111.33L1134.75 111.89C1132.22 117.89 1131.55 129.13 1128.48 135.02L1120.56 139.6C1119.7 152.88 1113.27 168.25 1111.27 181.45L1098.42 186.57C1096.25 190.52 1092.28 199.01 1090.52 203.16L1084.25 205.16C1082.54 207.558 1081.04 210.093 1079.76 212.74C1073.37 213.39 1062.65 213.18 1056.61 214.88C1056.08 216.88 1054.02 219.31 1053.11 221.22L1052.75 220.85C1049.25 221.3 1044.58 223.57 1040.18 226.13ZM1171.33 206.32L1172.22 216.05L1191.34 215.56L1193.29 206.75L1214.43 207.11L1217.92 189.06L1214.98 184.63L1217.54 167.76L1225.36 165.82L1239.89 112.51L1247.94 101.91L1251.31 102.74L1251.57 101.2L1259.62 55.3201L1264.92 15.0201C1262.11 16.1201 1257.57 17.8301 1255.23 18.5801C1251.96 27.1401 1248.94 46.1301 1246.89 55.1901C1245.32 65.8401 1243.55 89.9501 1240.85 100.12L1240.77 100.18H1235.86L1232.37 102.58C1230.8 112.01 1226.78 124.03 1224.31 133.26C1221.98 132.97 1215.25 130.94 1212.87 130.26C1209.99 139.49 1208.15 153.47 1204.74 162.55L1199.06 163.37L1196.39 165.73C1196.33 168.73 1196.01 175.93 1194.96 178.73C1191.87 180.276 1188.86 181.988 1185.96 183.86L1185.6 183.97L1184.51 191.97L1187.62 192.77L1188.78 193.87L1185.82 206.39L1171.33 206.32ZM1229.14 216.21L1233.77 216.37L1250.96 199.37L1253.98 193.53L1259.09 189.94L1264.5 165.6L1274.57 163.39L1285.74 125.61L1291.55 69.0901L1299.38 68.1801L1303.51 5.04015C1297.67 4.66015 1291.8 4.26015 1286.69 3.90015L1275.06 71.5001L1267.45 117.92L1258.23 124.48L1253.83 151.48L1250.45 184.32L1231.6 200.9L1229.14 216.21ZM1231.42 201.1L1231.64 200.92V200.64L1231.42 201.1Z" fill="url(#paint2_linear_100_2)"/>
  </g>
  <path d="M1386.95 256.38L1392.91 256.54L1414.4 257.67L1459.76 260.08L1552.45 259.93L1552.5 217.96L1554.83 186.32L1540.05 152.57L1540.61 0.800049L1521.82 11.0101L1511.35 16.69L1496.21 24.9201L1475.56 40.3L1464.09 157.13L1440.94 178.04L1414.13 194.9L1414.05 195.11L1410.01 204.32L1406.55 212.25L1396.01 235.98L1386.95 256.38Z" fill="url(#paint3_linear_100_2)"/>
  <path d="M1426.91 254.45L1414.4 257.67L1459.76 260.08L1552.45 259.93L1552.5 217.96L1554.83 186.32L1540.05 152.57L1540.61 0.800049L1521.82 11.0101L1510.33 107.37L1508.31 146.15L1506.07 157.96L1491.72 159.8L1490.96 132.14L1481.72 176.94L1483.26 178.69L1487.68 185.31L1487.67 196.78L1427.35 199.69L1469.43 206.72L1466.36 222.83L1466.16 222.73L1464.55 229.25L1458.87 229.13L1459.83 234.6L1460.05 243.35L1436.01 243.77L1402.51 247.49L1429.77 252.45L1426.91 254.45Z" fill="#DD5E37"/>
  <path style="mix-blend-mode:screen" d="M1477.01 185.59L1460.5 183.09L1460.94 179.15L1471.28 175.94L1483.3 123.07L1488.84 122.8L1498.45 114.37L1511.35 16.6899L1496.21 24.92L1475.56 40.2999L1464.09 157.13L1440.94 178.04L1414.13 194.9L1414.05 195.11L1478.96 188.56L1477.01 185.59Z" fill="url(#paint4_linear_100_2)"/>
  <path style="mix-blend-mode:screen" d="M1396.01 235.98L1437.45 233.12L1440.09 230.23L1442.27 226.14L1441.93 214.97L1421.43 213.73L1421.6 204.22L1410.01 204.32L1406.55 212.25L1396.01 235.98Z" fill="url(#paint5_linear_100_2)"/>
  <path d="M681.492 226.05L637.609 224.4L630.381 214.87L610.418 213.93L601.408 213.77L583.418 168.4L572.857 168.03L567.119 167.83L560.545 167.6L561.361 180.31L559.8 181.84L549.864 192.1L546.411 192.36L530.092 193.58L529.871 193.6L515.032 159.35L503.193 159.18L503.535 158.78L492.099 124.89L478.246 86.5302L465.018 85.9602L460.669 57.2902L461.847 55.2302L449.303 54.2002L436.578 54.9402L432.723 55.1602V237.38L455.223 236.56L466.347 236.18L471.28 237.72L494.303 242.38L521.525 240.52L532.327 241.83H534.945L548.072 241.82L574.549 241.81L589.931 241.97L604.71 242.13L605.888 238.8L613.68 238.54L666.965 236.74L692.113 237.72L681.492 226.05Z" fill="url(#paint6_linear_100_2)"/>
  <path d="M441.854 109.88L432.723 108.41V113.8L441.451 114.04L441.854 109.88Z" fill="#E2834B"/>
  <path d="M532.881 235.51L511.609 234.99L496.971 230.44L496.146 224.06L512.565 221.3L513.864 217.07L481.941 215.28L464.474 174.57L469.518 174.52L465.974 160.01L465.521 160.07L459.904 159.84L455.938 150.84L470.646 148.28L470.424 144.68L441.552 145.96L433.286 121.44L437.917 121.57L439.337 117.36L432.723 117.83V237.38L455.223 236.56L466.347 236.18L471.28 237.72L494.303 242.38L521.525 240.52L532.327 241.83H534.945L532.881 235.51Z" fill="#E2834B"/>
  <path d="M494.314 240.37L479.062 233.8L469.498 209.53L456.914 201.69L439.357 151.09L432.723 148.97V251.35L461.887 251.44L468.129 251.46L488.948 245.72L496.428 245.73L504.502 244.76L494.314 240.37Z" fill="url(#paint7_linear_100_2)"/>
  <path style="mix-blend-mode:screen" d="M479.062 233.8L469.498 209.53L456.914 201.69L439.357 151.09L432.723 148.97V209.56L445.649 211.38L446.031 211.07L456.521 213.11L458.313 219.7L434.253 225.79L436.347 231.23L468.884 229.57L475.79 240.5L494.314 240.37L479.062 233.8Z" fill="url(#paint8_linear_100_2)"/>
  <path d="M432.723 218.21V219.36L444.884 217.74L447.018 216.82L432.723 218.21Z" fill="#DD5E37"/>
  <path d="M545.979 198.03L561.089 201.11L565.207 220.36L566.828 224.74L576.311 225.68L580.227 225.9L586.026 231.27L601.549 231.25L606.593 238.25L606.492 234.98L600.422 225.2L585.261 222.7L582.381 214.45L579.079 213.83L575.928 199.8L578.183 198.03L579.925 197.36L577.458 195.62L571.841 194.87L567.12 167.83L560.546 167.6L561.361 180.31L559.801 181.84L549.864 192.1L546.411 192.36L545.979 198.03Z" fill="#E2834B"/>
  <g style="mix-blend-mode:screen">
    <path d="M439.739 78.4902L439.085 80.9902L439.135 84.1002L443.816 84.4602L456.038 84.4802L456.048 88.5202L446.555 89.5302L448.991 111.31L455.333 113.54L457.488 121.83L449.675 124.92L453.531 137.99L475.88 137.17L486.129 173.87L483.34 175.26L485.958 182.25L499.599 213.11L517.458 211.49L524.042 222.91L536.918 227.71L544.498 238.16L548.072 241.82L574.548 241.81L589.931 241.97L592.961 241.73L591.683 236.52L580.005 234.41L580.367 230.81L556.569 226.07L553.911 210.23L552.421 209.23L533.464 203.52L530.092 193.58L529.87 193.6L515.031 159.35L503.192 159.18L503.535 158.78L492.098 124.89L478.246 86.5302L465.018 85.9602L460.669 57.2902L461.847 55.2302L449.303 54.2002L436.578 54.9402L439.739 78.4902Z" fill="url(#paint9_linear_100_2)"/>
  </g>
  <g style="mix-blend-mode:screen">
    <path d="M572.855 168.03L572.906 168.64L577.819 192.1L583.124 192.87L584.805 200.17L580.205 199.98L586.275 215.62L591.369 219.35L608.956 221.08L613.678 238.54L666.963 236.74L692.111 237.72L681.49 226.05L637.607 224.4L630.379 214.87L610.416 213.93L601.406 213.77L583.416 168.4L572.855 168.03Z" fill="url(#paint10_linear_100_2)"/>
  </g>
  <path d="M185.22 226.05L229.103 224.4L236.331 214.87L256.295 213.93L265.305 213.77L283.295 168.4L293.855 168.03L299.593 167.83L306.167 167.6L305.342 180.31L306.912 181.84L316.849 192.1L320.302 192.36L336.62 193.58L336.842 193.6L351.681 159.35L363.52 159.18L363.178 158.78L374.614 124.89L388.466 86.5302L401.695 85.9602L406.044 57.2902L404.866 55.2302L417.409 54.2002L430.134 54.9402L433.99 55.1602V237.38L411.49 236.56L400.366 236.18L395.433 237.72L372.409 242.38L345.178 240.52L334.386 241.83H331.768L318.64 241.82L292.164 241.81L276.781 241.97L262.003 242.13L260.825 238.8L253.033 238.54L199.737 236.74L174.6 237.72L185.22 226.05Z" fill="url(#paint11_linear_100_2)"/>
  <path d="M424.85 109.88L433.991 108.41V113.8L425.262 114.04L424.85 109.88Z" fill="#E2834B"/>
  <path d="M333.833 235.51L355.105 234.99L369.743 230.44L370.568 224.06L354.149 221.3L352.85 217.07L384.773 215.28L402.24 174.57L397.186 174.52L400.74 160.01L401.193 160.07L406.81 159.84L410.777 150.84L396.068 148.28L396.29 144.68L425.163 145.96L433.418 121.44L428.797 121.57L427.377 117.36L433.991 117.83V237.38L411.491 236.56L400.367 236.18L395.434 237.72L372.411 242.38L345.179 240.52L334.387 241.83H331.77L333.833 235.51Z" fill="#E2834B"/>
  <path d="M372.399 240.37L387.651 233.8L397.214 209.53L409.798 201.69L427.356 151.09L433.99 148.97V251.35L404.825 251.44L398.584 251.46L377.765 245.72L370.285 245.73L362.211 244.76L372.399 240.37Z" fill="url(#paint12_linear_100_2)"/>
  <path style="mix-blend-mode:screen" d="M387.652 233.8L397.216 209.53L409.8 201.69L427.357 151.09L433.991 148.97V209.56L421.065 211.38L420.682 211.07L410.192 213.11L408.39 219.7L432.461 225.79L430.367 231.23L397.82 229.57L390.924 240.5L372.4 240.37L387.652 233.8Z" fill="url(#paint13_linear_100_2)"/>
  <path d="M433.993 218.21V219.36L421.831 217.74L419.697 216.82L433.993 218.21Z" fill="#DD5E37"/>
  <path d="M320.735 198.03L305.625 201.11L301.507 220.36L299.886 224.74L290.403 225.68L286.487 225.9L280.688 231.27L265.165 231.25L260.121 238.25L260.222 234.98L266.292 225.2L281.453 222.7L284.333 214.45L287.635 213.83L290.786 199.8L288.531 198.03L286.789 197.36L289.255 195.62L294.873 194.87L299.594 167.83L306.168 167.6L305.343 180.31L306.913 181.84L316.85 192.1L320.303 192.36L320.735 198.03Z" fill="#E2834B"/>
  <g style="mix-blend-mode:screen">
    <path d="M426.974 78.4902L427.629 80.9902L427.568 84.1002L422.897 84.4602L410.676 84.4802L410.666 88.5202L420.159 89.5302L417.723 111.31L411.38 113.54L409.226 121.83L417.038 124.92L413.182 137.99L390.823 137.17L380.585 173.87L383.374 175.26L380.746 182.25L367.115 213.11L349.256 211.49L342.672 222.91L329.796 227.71L322.216 238.16L318.642 241.82L292.165 241.81L276.782 241.97L273.742 241.73L275.031 236.52L286.709 234.41L286.346 230.81L310.145 226.07L312.803 210.23L314.293 209.23L333.249 203.52L336.622 193.58L336.843 193.6L351.682 159.35L363.521 159.18L363.179 158.78L374.615 124.89L388.468 86.5302L401.696 85.9602L406.045 57.2902L404.867 55.2302L417.411 54.2002L430.135 54.9402L426.974 78.4902Z" fill="url(#paint14_linear_100_2)"/>
  </g>
  <path d="M1550.56 134.71L1524.34 142.36L1523.06 173.92L1508.55 196.78L1488.42 243.27L1472.92 254.52L1465.54 259.88L1550.56 260.57V134.71Z" fill="url(#paint15_linear_100_2)"/>
  <path style="mix-blend-mode:screen" d="M1548.53 231.56L1547.82 224.79L1550.56 224.3V187.19L1539.55 182.61L1550.56 180.91V134.71L1524.33 142.36L1523.06 173.92L1508.55 196.78L1488.42 243.27L1472.92 254.52L1523.74 252.42L1524.97 247.7L1513.02 244.03L1513.4 236.29L1548.53 231.56Z" fill="url(#paint16_linear_100_2)"/>
  <path d="M1550.56 190.02L1532.9 189.43L1527.73 190.72L1528.08 195.29L1550.56 196.61V190.02Z" fill="#DD5E37"/>
  <path d="M1505.08 241.25L1501.65 241.64L1500.24 244.45L1542.21 248.83L1545.25 240.18L1532.54 238.76L1535.94 245.28L1529.45 244.54L1505.08 241.25Z" fill="#DD5E37"/>
  <path d="M1549.92 134.71L1576.15 142.36L1577.43 173.92L1591.93 196.78L1612.06 243.27L1627.55 254.52L1634.94 259.88L1549.92 260.57V134.71Z" fill="url(#paint17_linear_100_2)"/>
  <path style="mix-blend-mode:screen" d="M1551.96 231.56L1552.66 224.79L1549.92 224.3V187.19L1560.94 182.61L1549.92 180.91V134.71L1576.15 142.36L1577.43 173.92L1591.93 196.78L1612.06 243.27L1627.55 254.52L1576.73 252.42L1575.51 247.7L1587.46 244.03L1587.08 236.29L1551.96 231.56Z" fill="url(#paint18_linear_100_2)"/>
  <path d="M1549.92 190.02L1567.58 189.43L1572.74 190.72L1572.39 195.29L1549.92 196.61V190.02Z" fill="#DD5E37"/>
  <path d="M1643.96 320.02L1642.51 321.02L1639.49 323.08C1640.8 325.267 1642.28 327.347 1643.91 329.3L1643.96 320.02Z" fill="#E0623F"/>
  <path d="M1643.96 312.02C1640.98 300.967 1638.01 289.907 1635.05 278.84C1634.74 278.66 1634.42 278.5 1634.12 278.32C1635.12 289.58 1635.97 300.91 1636.99 312.16C1631.3 312.74 1625.03 313.68 1619.34 314.27C1618.14 311.61 1616.14 307.87 1617 304.76C1620.04 293.847 1623.09 282.937 1626.14 272.03C1624.29 266.18 1623.65 261.16 1621.48 255.1L1619.55 254.73C1616.63 269.397 1613.35 284.09 1609.71 298.81C1604.26 303.26 1598.25 306.984 1591.83 309.89C1586.79 312.04 1581.97 312.58 1576.91 313.43C1585.06 314.43 1593.29 315.28 1601.81 315.72C1602.82 318.33 1603.38 320.31 1604.35 322.93C1616.94 322.4 1631.22 322.93 1643.96 322.53V312.02Z" fill="#C32E2D"/>
  <path d="M1617 308.17C1617.55 310.282 1618.33 312.327 1619.33 314.27C1625.02 313.68 1631.29 312.74 1636.98 312.16C1636.39 305.71 1635.86 299.24 1635.33 292.76L1635.23 291.39C1634.86 287.03 1634.5 282.67 1634.11 278.32C1633.31 277.88 1632.54 277.43 1631.78 276.98C1630.16 275.98 1628.6 275.06 1626.82 274.1C1626.57 273.4 1626.33 272.71 1626.13 272.03C1623.37 281.963 1620.59 291.9 1617.81 301.84L1616.99 304.76V304.84C1616.73 305.935 1616.73 307.077 1617 308.17Z" fill="#E0623F"/>
  <path d="M1548.24 309.02C1557.85 310.65 1567.3 312.19 1576.9 313.43C1581.93 312.58 1586.81 312.04 1591.81 309.89C1598.25 306.988 1604.27 303.263 1609.73 298.81C1611.51 291.597 1613.22 284.373 1614.86 277.14C1615.01 276.41 1615.18 275.67 1615.33 274.94C1616.14 271.26 1616.94 267.573 1617.71 263.88C1617.85 263.22 1618 262.55 1618.14 261.88C1618.63 259.5 1619.15 257.11 1619.58 254.73L1614.91 253.84C1606.06 252.12 1598.01 250.52 1588.33 249.54C1586.42 252.46 1585.03 255.16 1583.11 258.1C1579.83 258.6 1576.63 259.01 1573.36 259.5C1569.13 266.55 1565.15 273.75 1561.41 281.01C1560.93 282.01 1560.41 282.95 1559.94 283.91C1557.75 288.283 1555.64 292.66 1553.62 297.04C1552.68 299.04 1551.78 301.04 1550.89 303.04C1550.59 303.7 1550.3 304.37 1550.03 305.04C1549.39 306.38 1548.81 307.7 1548.24 309.02Z" fill="#E0623F"/>
  <path d="M1549.99 305.05L1555.47 304.43L1564.53 304.56L1581.43 298.39L1599.45 288.23L1608.78 282.18L1614.82 277.18C1614.97 276.45 1615.14 275.71 1615.29 274.98L1603.45 282.57L1588.16 293.01L1563.22 302.22L1550.85 303.06C1550.55 303.73 1550.26 304.4 1549.99 305.05Z" fill="#DA543F"/>
  <path d="M1559.9 283.91L1574.6 281.75L1588.05 276.06L1617.67 263.88C1617.81 263.22 1617.96 262.55 1618.1 261.88L1586.22 274.28L1562.01 280.77L1561.37 281.01C1560.89 281.98 1560.41 282.95 1559.9 283.91Z" fill="#DA543F"/>
  <path d="M1616.99 304.76V304.84L1623.8 298.69L1635.35 292.76L1635.25 291.39L1620.81 298.76L1617.79 301.84L1616.99 304.76Z" fill="#DA543F"/>
  <path d="M1643.96 328.48C1642.83 327.009 1641.8 325.469 1640.86 323.87L1643.83 321.82L1643.96 321.73V320.02L1642.51 321.02L1639.49 323.08C1640.8 325.267 1642.28 327.347 1643.91 329.3L1643.96 328.48Z" fill="#FFF6CF"/>
  <path d="M1616.19 254.64C1607.34 252.92 1599.28 251.32 1589.6 250.34C1587.69 253.26 1586.3 255.96 1584.39 258.9C1581.11 259.4 1577.91 259.81 1574.64 260.3C1570.41 267.3 1566.43 274.55 1562.69 281.81C1562.2 282.81 1561.68 283.75 1561.22 284.71C1559.01 289.083 1556.91 293.46 1554.9 297.84C1553.96 299.84 1553.05 301.84 1552.17 303.84C1551.87 304.5 1551.57 305.17 1551.3 305.84C1550.79 306.99 1550.3 308.13 1549.79 309.27L1548.24 309.01C1548.81 307.69 1549.39 306.37 1549.99 305.01C1550.26 304.36 1550.55 303.69 1550.85 303.01C1551.74 301.01 1552.64 299.01 1553.58 297.01C1555.59 292.617 1557.7 288.24 1559.9 283.88C1560.38 282.88 1560.91 281.95 1561.37 280.98C1565.11 273.72 1569.09 266.52 1573.32 259.47C1576.59 258.98 1579.79 258.57 1583.07 258.07C1584.99 255.13 1586.38 252.43 1588.29 249.51C1597.97 250.51 1606.02 252.09 1614.87 253.81L1619.54 254.7C1619.54 254.88 1619.47 255.05 1619.44 255.23L1616.19 254.64Z" fill="#FFF6CF"/>
  <path d="M1144.8 249.57C1144.99 250.06 1145.22 250.535 1145.49 250.99C1145.63 251.232 1145.78 251.466 1145.95 251.69C1147.56 253.831 1149.82 255.399 1152.4 256.16C1153.8 256.689 1155.32 256.8 1156.78 256.48C1159.18 255.8 1160.12 253.4 1160.1 250.65C1160.06 248.523 1159.56 246.431 1158.64 244.51C1158.31 243.804 1157.92 243.134 1157.46 242.51C1156.87 241.744 1156.17 241.07 1155.38 240.51C1153.86 239.359 1151.95 238.836 1150.05 239.05C1148.73 239.292 1147.51 239.896 1146.52 240.795C1145.53 241.693 1144.82 242.848 1144.46 244.13C1143.97 245.932 1144.09 247.843 1144.8 249.57Z" fill="url(#paint19_linear_100_2)"/>
  <path style="mix-blend-mode:screen" d="M1144.8 249.57C1145.22 247.922 1146.13 246.439 1147.42 245.316C1148.7 244.193 1150.3 243.483 1152 243.28C1153.09 243.17 1154.34 243.22 1155.02 242.4C1155.23 242.138 1155.37 241.829 1155.42 241.501C1155.48 241.172 1155.45 240.835 1155.34 240.52C1153.82 239.369 1151.91 238.846 1150.01 239.06C1148.69 239.302 1147.47 239.906 1146.48 240.805C1145.49 241.703 1144.78 242.859 1144.42 244.14C1143.94 245.943 1144.08 247.851 1144.8 249.57Z" fill="url(#paint20_linear_100_2)"/>
  <path d="M1146.65 251.15C1146.64 251.123 1146.64 251.097 1146.65 251.07C1146.57 250.992 1146.51 250.905 1146.46 250.81C1146.42 250.718 1146.39 250.617 1146.39 250.514C1146.38 250.411 1146.4 250.308 1146.44 250.213C1146.48 250.117 1146.54 250.032 1146.62 249.962C1146.7 249.893 1146.79 249.841 1146.89 249.81C1147.01 249.8 1147.14 249.8 1147.27 249.81C1147.47 249.736 1147.69 249.736 1147.89 249.81L1148.67 250.07C1148.92 250.15 1149.16 250.25 1149.41 250.32L1149.79 250.39C1149.89 250.431 1150 250.461 1150.11 250.48H1150.17C1150.26 250.47 1150.35 250.47 1150.44 250.48C1150.5 250.493 1150.56 250.517 1150.61 250.55C1150.54 250.55 1150.55 250.55 1150.61 250.55L1150.83 250.64C1150.91 250.689 1150.98 250.762 1151.01 250.848C1151.04 250.935 1151.05 251.03 1151.02 251.12C1151.8 250.962 1152.56 250.717 1153.29 250.39C1154.45 249.845 1155.48 249.065 1156.31 248.1C1156.7 247.638 1157.04 247.135 1157.32 246.6C1157.6 246.09 1157.7 245.33 1158.02 244.88C1158.34 244.43 1158.45 244.48 1158.66 244.52C1159.58 246.441 1160.08 248.533 1160.13 250.66C1159.5 252.839 1158.36 254.837 1156.8 256.49C1155.34 256.81 1153.82 256.699 1152.42 256.17C1149.84 255.409 1147.58 253.841 1145.97 251.7C1145.8 251.476 1145.65 251.242 1145.51 251C1145.87 251.03 1146.25 251.09 1146.65 251.15Z" fill="#507B3C"/>
  <path d="M1151.15 261.63C1151.2 262.884 1151.58 264.102 1152.26 265.163C1152.93 266.224 1153.88 267.092 1154.99 267.68C1158.11 268.91 1161.47 269.423 1164.82 269.18C1166.71 269.105 1168.6 268.827 1170.44 268.35C1172.95 265.21 1175.23 261.71 1176 257.76C1176.51 255.249 1176.25 252.646 1175.27 250.28C1174.95 249.506 1174.52 248.779 1174 248.12C1173.61 247.61 1173.17 247.147 1172.67 246.74C1171.44 245.713 1169.96 245.024 1168.38 244.74C1167.85 244.632 1167.31 244.568 1166.77 244.55C1164.82 244.472 1162.89 244.863 1161.12 245.69C1156.77 248.185 1153.48 252.155 1151.84 256.87C1151.28 258.392 1151.04 260.013 1151.15 261.63Z" fill="url(#paint21_linear_100_2)"/>
  <path style="mix-blend-mode:screen" d="M1151.84 256.91C1154.67 253.497 1158.46 250.997 1162.72 249.73C1164.6 249.18 1166.75 248.73 1167.94 247.24C1168.38 246.726 1168.6 246.063 1168.56 245.39C1168.53 245.179 1168.47 244.973 1168.38 244.78C1167.85 244.672 1167.31 244.608 1166.77 244.59C1164.82 244.512 1162.88 244.903 1161.12 245.73C1156.77 248.225 1153.48 252.195 1151.84 256.91Z" fill="url(#paint22_linear_100_2)"/>
  <path d="M1166.78 244.57C1166.85 245.62 1167.07 246.656 1167.41 247.65C1167.58 248.133 1167.8 248.593 1168.08 249.02C1169.09 250.54 1170.74 251.37 1173.41 250.88C1174.06 250.755 1174.69 250.547 1175.28 250.26C1179.1 248.46 1181.75 243.69 1183.12 240.08C1183.98 238.04 1184.32 235.823 1184.13 233.62C1183.98 232.357 1183.55 231.142 1182.88 230.06C1182.47 229.386 1181.94 228.787 1181.33 228.29L1180.96 228.02C1178.19 226.09 1174.14 226.64 1171.49 228.76C1168.93 231.033 1167.35 234.205 1167.08 237.61C1166.75 239.914 1166.65 242.246 1166.78 244.57Z" fill="url(#paint23_linear_100_2)"/>
  <path d="M1163.29 267.15C1163.35 266.968 1163.43 266.796 1163.55 266.64L1163.64 266.52C1163.59 266.58 1163.59 266.58 1163.64 266.52C1163.8 266.28 1164.01 266.067 1164.24 265.89C1164.87 265.369 1165.46 264.808 1166.01 264.21C1166.53 263.666 1167 263.077 1167.41 262.45C1167.9 261.7 1168.33 260.91 1168.74 260.11C1168.9 259.8 1169.59 258.11 1170.16 258.45C1170.32 258.59 1170.45 258.766 1170.53 258.965C1170.61 259.163 1170.64 259.378 1170.61 259.59C1171.43 257.097 1171.85 254.492 1171.85 251.87C1170.31 251.333 1168.96 250.342 1167.99 249.03H1168.08C1170.1 249.349 1172.18 249.027 1174.01 248.11C1174.98 247.649 1175.88 247.057 1176.69 246.35C1179.01 244.204 1180.67 241.457 1181.49 238.42C1182.23 235.691 1182.69 232.893 1182.85 230.07C1183.52 231.152 1183.94 232.367 1184.09 233.63C1184.29 235.833 1183.94 238.05 1183.09 240.09C1181.72 243.7 1179.06 248.47 1175.25 250.27C1176.23 252.636 1176.49 255.24 1175.98 257.75C1175.2 261.7 1172.96 265.2 1170.41 268.34C1168.58 268.817 1166.69 269.095 1164.8 269.17C1165.13 268.83 1165.46 268.48 1165.8 268.12C1165.56 268.306 1165.29 268.439 1164.99 268.509C1164.7 268.58 1164.39 268.587 1164.09 268.53C1163.8 268.448 1163.56 268.259 1163.41 268.001C1163.26 267.744 1163.21 267.439 1163.29 267.15Z" fill="#507B3C"/>
  <path d="M1171.68 244.92L1171.86 244.76C1171.91 244.687 1171.97 244.623 1172.04 244.57C1172.16 244.494 1172.29 244.434 1172.42 244.39L1172.66 244.29L1172.84 244.21C1172.98 244.141 1173.13 244.09 1173.28 244.06L1173.57 243.99C1173.68 243.97 1173.78 243.97 1173.89 243.99H1174C1174.07 243.971 1174.15 243.974 1174.22 243.997C1174.29 244.021 1174.35 244.065 1174.4 244.123C1174.44 244.182 1174.47 244.253 1174.48 244.327C1174.48 244.401 1174.47 244.475 1174.43 244.54V244.61L1174.82 244.35L1174.97 244.25C1175.06 244.185 1175.15 244.115 1175.23 244.04C1175.4 243.89 1175.57 243.73 1175.73 243.56C1175.89 243.39 1176.08 243.18 1176.24 242.99C1176.4 242.8 1176.4 242.8 1176.47 242.7V242.64C1176.53 242.552 1176.6 242.469 1176.66 242.39V242.34C1176.7 242.294 1176.73 242.251 1176.77 242.21C1176.86 242.072 1176.97 241.945 1177.09 241.83C1177.28 241.64 1177.5 241.5 1177.7 241.33C1177.9 241.16 1178.31 241.25 1178.27 241.56C1178.25 241.859 1178.21 242.156 1178.15 242.45C1178.06 242.768 1177.94 243.076 1177.78 243.37C1177.52 243.961 1177.18 244.519 1176.78 245.03C1176.42 245.512 1175.98 245.931 1175.49 246.27C1175.27 246.419 1175.03 246.55 1174.79 246.66C1174.63 246.745 1174.45 246.796 1174.26 246.81H1174.07C1174.15 246.81 1174.15 246.81 1174.07 246.81C1173.88 246.828 1173.7 246.811 1173.52 246.76C1173.34 246.713 1173.19 246.597 1173.09 246.439C1173 246.28 1172.97 246.09 1173.01 245.91C1172.78 246.042 1172.51 246.092 1172.25 246.05H1172.05C1171.92 246.061 1171.79 246.034 1171.68 245.971C1171.56 245.909 1171.47 245.815 1171.41 245.7C1171.38 245.631 1171.36 245.556 1171.35 245.48C1171.35 245.403 1171.36 245.326 1171.38 245.254C1171.41 245.181 1171.45 245.114 1171.5 245.057C1171.55 245 1171.61 244.953 1171.68 244.92Z" fill="#507B3C"/>
  <path d="M1145.94 248.23C1145.93 248.184 1145.93 248.136 1145.94 248.09C1145.95 248.052 1145.97 248.016 1145.99 247.985C1146.02 247.954 1146.05 247.929 1146.08 247.91C1146.15 247.87 1146.23 247.85 1146.31 247.85H1146.52C1146.66 247.817 1146.81 247.842 1146.94 247.92L1147.05 248C1147.14 248.052 1147.22 248.128 1147.27 248.22L1147.33 248.32C1147.38 248.401 1147.4 248.492 1147.4 248.585C1147.4 248.678 1147.38 248.769 1147.33 248.85C1147.28 248.931 1147.22 248.998 1147.13 249.046C1147.05 249.093 1146.96 249.119 1146.87 249.12H1146.73H1146.57L1146.41 249.06H1146.35C1146.29 249.033 1146.23 248.996 1146.18 248.95C1146.13 248.927 1146.1 248.888 1146.07 248.84C1146.03 248.806 1146 248.76 1145.99 248.71C1145.97 248.63 1145.95 248.553 1145.91 248.48C1145.9 248.396 1145.91 248.31 1145.94 248.23Z" fill="#507B3C"/>
  <path d="M1163.15 264C1163.13 263.819 1163.18 263.639 1163.29 263.49C1163.29 263.49 1163.29 263.4 1163.37 263.35C1163.45 263.3 1163.6 263.09 1163.71 262.95C1163.75 262.904 1163.79 262.861 1163.83 262.82C1163.91 262.746 1164 262.679 1164.09 262.62C1164.17 262.561 1164.27 262.517 1164.36 262.49H1164.58C1164.63 262.466 1164.68 262.453 1164.74 262.453C1164.79 262.453 1164.85 262.466 1164.9 262.49C1164.95 262.509 1165 262.541 1165.04 262.583C1165.08 262.625 1165.1 262.675 1165.12 262.73C1165.12 262.73 1165.12 262.79 1165.12 262.82C1165.15 262.876 1165.18 262.937 1165.2 263C1165.25 263.164 1165.25 263.337 1165.2 263.5C1165.17 263.61 1165.14 263.717 1165.09 263.82C1165.02 263.921 1164.95 264.018 1164.87 264.11C1164.76 264.258 1164.63 264.387 1164.49 264.49L1164.32 264.59C1164.15 264.696 1163.94 264.732 1163.74 264.69C1163.65 264.712 1163.56 264.713 1163.48 264.692C1163.39 264.671 1163.31 264.629 1163.25 264.57C1163.17 264.497 1163.12 264.403 1163.11 264.301C1163.09 264.199 1163.1 264.094 1163.15 264Z" fill="#507B3C"/>
  <path d="M1168.38 255.28C1168.38 255.194 1168.38 255.107 1168.38 255.02L1168.44 254.51C1168.46 254.313 1168.49 254.119 1168.55 253.93C1168.62 253.729 1168.73 253.542 1168.86 253.38C1168.9 253.344 1168.95 253.317 1169 253.3C1169.05 253.284 1169.1 253.279 1169.16 253.286C1169.21 253.293 1169.26 253.311 1169.31 253.339C1169.35 253.367 1169.39 253.405 1169.42 253.45C1169.53 253.673 1169.59 253.919 1169.6 254.17C1169.59 254.422 1169.56 254.674 1169.51 254.92C1169.49 255.175 1169.41 255.421 1169.28 255.64C1169.28 255.69 1169.21 255.72 1169.18 255.77C1169.15 255.811 1169.13 255.855 1169.12 255.9C1169.07 256.006 1169.01 256.104 1168.93 256.19C1168.9 256.221 1168.86 256.243 1168.82 256.254C1168.77 256.266 1168.73 256.266 1168.68 256.255C1168.64 256.244 1168.6 256.222 1168.56 256.192C1168.53 256.161 1168.51 256.123 1168.49 256.08C1168.47 255.914 1168.47 255.746 1168.49 255.58C1168.42 255.494 1168.38 255.389 1168.38 255.28Z" fill="#507B3C"/>
  <path d="M1151.68 259.57C1151.73 258.907 1151.91 258.26 1152.22 257.67C1152.36 257.365 1152.62 257.128 1152.94 257.01C1152.94 257.01 1152.94 257.01 1153.01 257.01C1153.05 257.005 1153.1 257.005 1153.15 257.01C1153.19 257.006 1153.23 257.013 1153.27 257.03C1153.31 257.048 1153.35 257.075 1153.37 257.11C1153.56 257.523 1153.61 257.985 1153.52 258.43C1153.49 258.953 1153.49 259.477 1153.52 260C1153.58 260.6 1153.64 261.08 1153.68 261.65C1153.69 261.78 1153.69 261.91 1153.68 262.04C1153.7 262.186 1153.7 262.334 1153.68 262.48C1153.67 262.786 1153.6 263.087 1153.48 263.37C1153.42 263.471 1153.32 263.545 1153.21 263.575C1153.09 263.605 1152.97 263.589 1152.87 263.53C1152.64 263.338 1152.45 263.104 1152.31 262.84C1152.26 262.75 1152.17 262.68 1152.12 262.59C1152.06 262.473 1152.01 262.349 1151.98 262.22C1151.98 262.06 1151.88 261.9 1151.84 261.74C1151.67 261.03 1151.61 260.297 1151.68 259.57Z" fill="#507B3C"/>
  <path d="M1168.79 233.22V233.05C1168.79 232.914 1168.82 232.779 1168.88 232.66C1168.88 232.6 1168.94 232.55 1168.96 232.5C1169.03 232.4 1169.09 232.303 1169.17 232.21C1169.29 232.017 1169.45 231.853 1169.64 231.73L1169.95 231.59C1170.07 231.527 1170.2 231.502 1170.33 231.52C1170.46 231.538 1170.58 231.593 1170.68 231.68C1170.75 231.758 1170.8 231.85 1170.83 231.95C1170.88 232.092 1170.88 232.248 1170.83 232.39V232.29C1170.83 232.38 1170.76 232.47 1170.72 232.57C1170.69 232.645 1170.67 232.718 1170.64 232.79C1170.59 232.861 1170.53 232.928 1170.47 232.99L1170.36 233.12L1170.49 232.97L1170.07 233.51C1170.02 233.568 1169.95 233.612 1169.87 233.64C1169.74 233.785 1169.6 233.916 1169.45 234.03C1169.39 234.062 1169.32 234.078 1169.25 234.078C1169.18 234.078 1169.11 234.062 1169.05 234.03C1168.98 234.006 1168.92 233.966 1168.87 233.914C1168.82 233.861 1168.79 233.798 1168.77 233.73C1168.76 233.647 1168.76 233.563 1168.77 233.48C1168.78 233.393 1168.78 233.306 1168.79 233.22Z" fill="#507B3C"/>
  <path style="mix-blend-mode:screen" d="M1166.78 244.57C1166.85 245.62 1167.06 246.656 1167.41 247.65C1167.72 244.413 1168.6 241.256 1170.03 238.33C1171.51 235.318 1174 232.916 1177.08 231.54C1178.52 230.95 1181.22 230.2 1181.32 228.29L1180.95 228.02C1178.18 226.09 1174.13 226.64 1171.48 228.76C1168.91 231.033 1167.33 234.205 1167.07 237.61C1166.74 239.915 1166.64 242.246 1166.78 244.57Z" fill="url(#paint24_linear_100_2)"/>
  <path d="M1153.33 269.02C1152.86 268.32 1152.32 267.63 1151.9 266.94C1151.83 266.84 1151.77 266.71 1151.9 266.62C1151.95 266.597 1152.01 266.585 1152.07 266.585C1152.13 266.585 1152.19 266.597 1152.24 266.62C1154.06 266.846 1155.83 267.338 1157.5 268.08L1156.23 264.78C1156.17 264.61 1156.13 264.39 1156.32 264.3C1156.45 264.255 1156.59 264.255 1156.72 264.3C1158.01 264.462 1159.24 264.897 1160.35 265.575C1161.45 266.253 1162.39 267.159 1163.11 268.23C1163.17 266.638 1163.57 265.077 1164.29 263.654C1165.01 262.231 1166.04 260.981 1167.29 259.99C1167.82 261.095 1168.11 262.3 1168.12 263.524C1168.14 264.748 1167.89 265.961 1167.39 267.08C1168.85 264.866 1170.96 263.157 1173.43 262.19C1173.59 262.1 1173.77 262.046 1173.96 262.032C1174.14 262.018 1174.33 262.045 1174.5 262.11C1174.59 262.191 1174.66 262.298 1174.69 262.418C1174.72 262.538 1174.72 262.664 1174.67 262.78C1174.15 265.213 1172.8 267.394 1170.86 268.96C1165.03 269.466 1159.16 269.486 1153.33 269.02Z" fill="#9C7240"/>
  <path d="M1181.64 228.8L1181.28 228.53C1178.5 226.6 1174.45 227.15 1171.8 229.28C1169.24 231.554 1167.66 234.725 1167.39 238.13C1167.07 240.449 1166.98 242.794 1167.12 245.13C1165.18 245.05 1163.25 245.438 1161.49 246.26C1160.91 246.532 1160.35 246.846 1159.82 247.2C1159.76 247 1159.69 246.81 1159.62 246.61C1160.1 246.297 1160.6 246.017 1161.12 245.77C1162.88 244.921 1164.82 244.509 1166.78 244.57C1166.64 242.234 1166.73 239.889 1167.05 237.57C1167.32 234.165 1168.9 230.993 1171.46 228.72C1174.11 226.6 1178.16 226.05 1180.94 227.98L1181.3 228.25C1181.91 228.747 1182.44 229.346 1182.85 230.02V230.08C1182.5 229.603 1182.1 229.173 1181.64 228.8Z" fill="#FFF3C7"/>
  <path d="M1152.05 256.35L1152.53 256.52C1152.41 256.81 1152.29 257.11 1152.19 257.4C1151.64 258.911 1151.41 260.516 1151.5 262.12C1151.6 263.508 1152.07 264.845 1152.85 266C1151.85 264.745 1151.26 263.223 1151.15 261.63C1151.05 260.026 1151.29 258.419 1151.84 256.91C1151.9 256.72 1151.98 256.57 1152.05 256.35Z" fill="#FFF3C7"/>
  <path d="M1144.46 244.09C1144.82 242.808 1145.53 241.653 1146.52 240.754C1147.51 239.856 1148.73 239.252 1150.05 239.01C1151.95 238.796 1153.86 239.319 1155.38 240.47C1156.17 241.029 1156.87 241.704 1157.46 242.47C1157.55 242.59 1157.63 242.73 1157.72 242.85C1157.14 242.124 1156.47 241.484 1155.71 240.95C1154.19 239.8 1152.28 239.277 1150.38 239.49C1149.06 239.732 1147.84 240.338 1146.85 241.238C1145.86 242.138 1145.14 243.296 1144.78 244.58C1144.3 246.379 1144.42 248.285 1145.13 250.01C1145.32 250.498 1145.55 250.97 1145.82 251.42C1145.91 251.58 1146.01 251.73 1146.11 251.88C1146.05 251.79 1145.98 251.72 1145.92 251.63C1145.75 251.406 1145.6 251.172 1145.46 250.93C1145.19 250.475 1144.96 250 1144.77 249.51C1144.08 247.786 1143.97 245.882 1144.46 244.09Z" fill="#FFF3C7"/>
  <path d="M1360.07 266.7C1362.7 266.982 1365.34 267.085 1367.98 267.01C1368.72 266.523 1369.34 265.898 1369.84 265.17C1372.44 264.86 1375.1 264.41 1377.71 264.1C1377.99 262.66 1378.27 261.23 1378.54 259.79C1378.54 259.66 1378.54 259.53 1378.62 259.4C1378.71 258.96 1378.8 258.52 1378.88 258.08L1378.78 257.97L1377.2 257.81C1375.82 257.67 1374.48 257.54 1373.18 257.43C1373.01 257.43 1372.83 257.43 1372.64 257.43C1370.94 257.31 1369.23 257.24 1367.41 257.26C1365.96 257.26 1365.18 258.16 1363.86 258.75L1361.99 262.75C1361.9 262.96 1361.81 263.16 1361.71 263.37C1361.61 263.58 1361.55 263.71 1361.47 263.88C1360.93 264.77 1360.48 265.73 1360.07 266.7Z" fill="#E0623F"/>
  <path d="M1381.21 264.93C1381.33 265.302 1381.53 265.644 1381.79 265.93C1383.45 265.437 1385 264.658 1386.39 263.63L1387.05 259.37C1387.05 259.01 1387.16 258.64 1387.22 258.28C1387.45 256.81 1387.67 255.34 1387.91 253.88C1387.64 253.891 1387.38 253.935 1387.13 254.01L1386.84 254.1C1385.35 256.15 1383.97 258.1 1382.51 260.1L1381.74 261.15C1381.7 261.101 1381.65 261.054 1381.6 261.01C1381.42 262.84 1381.21 264.93 1381.21 264.93Z" fill="#E0623F"/>
  <path d="M1388.36 270.57C1394.19 270.47 1399.99 270.49 1405.8 270.51C1409.8 269.503 1413.69 268.113 1417.42 266.36C1417.11 263.42 1416.66 260.48 1416.06 257.59C1416.06 257.42 1415.99 257.24 1415.95 257.07C1415.43 254.63 1414.82 252.217 1414.11 249.83C1413.76 249.3 1413.38 248.77 1413.01 248.26C1412.18 248.26 1411.35 248.26 1410.53 248.26H1409.15H1408.14C1402.59 248.401 1397.05 248.852 1391.55 249.61C1390.88 250.99 1390.21 252.55 1389.54 253.94C1389.25 255.86 1389.02 257.8 1388.85 259.73C1388.85 259.98 1388.85 260.22 1388.79 260.46C1388.68 261.847 1388.6 263.237 1388.55 264.63C1388.55 264.92 1388.55 265.2 1388.55 265.49V267.02C1388.55 267.61 1388.55 268.21 1388.55 268.81H1388.68C1388.57 269.36 1388.47 270.03 1388.36 270.57Z" fill="#E0623F"/>
  <path d="M1380.31 266.5C1380.21 266.86 1380.45 267.27 1380.31 267.63C1383.05 267.92 1385.76 268.53 1388.51 268.83C1388.45 263.851 1388.78 258.876 1389.52 253.95C1388.95 253.889 1388.38 253.865 1387.82 253.88C1387.31 257.13 1386.81 260.38 1386.29 263.63C1384.91 264.658 1383.36 265.437 1381.7 265.93C1381.44 265.644 1381.24 265.302 1381.12 264.93C1381.12 264.93 1381.36 262.84 1381.51 261.03C1380.51 260.03 1379.8 259.12 1378.77 258.08C1378.38 260.08 1378 262.08 1377.61 264.08C1375 264.39 1372.34 264.84 1369.73 265.15C1369.24 265.878 1368.61 266.503 1367.88 266.99C1365.24 267.065 1362.6 266.962 1359.97 266.68L1359.23 268.22C1362.69 268.51 1365.98 269.27 1369.43 269.55C1369.95 268.78 1370.44 267.77 1370.99 267C1374.04 266.91 1377.32 266.57 1380.31 266.5Z" fill="#C32E2D"/>
  <path d="M1405.8 270.48C1411.44 270.48 1417.09 270.48 1422.74 270.42C1422.6 269.32 1422.38 268.233 1422.06 267.17C1420.39 260.985 1417.7 255.116 1414.11 249.8C1415.72 255.197 1416.83 260.73 1417.42 266.33C1413.69 268.083 1409.8 269.473 1405.8 270.48Z" fill="#C32E2D"/>
  <path d="M1361.38 263.81L1364.23 264.51L1368.92 262.86L1378.5 259.79C1378.5 259.66 1378.5 259.53 1378.58 259.4L1369.61 262.01L1368.68 262.31L1370.15 261.03L1373.09 257.43C1372.91 257.43 1372.73 257.43 1372.55 257.43L1369.97 260.07L1366.95 263.07L1364.94 263.64L1361.63 263.32C1361.53 263.47 1361.46 263.64 1361.38 263.81ZM1382.74 260.4L1384.27 261.21L1384.73 260.95L1385.82 260.5L1387.02 259.37C1387.02 259.01 1387.13 258.64 1387.19 258.28L1385.1 259.91L1384.09 260.39L1383.45 260L1382.87 259.88L1382.74 260.4ZM1388.78 260.47L1395.59 258.47L1403.04 255.95L1407.45 252.44L1409.08 248.16H1408.07L1406.58 251.74L1404.56 254.18L1401.07 255.82L1393.95 258.31L1388.76 259.63L1388.78 260.47ZM1388.52 265.47L1393.31 266L1397.81 265.34L1401.84 265.67L1410.49 262.67L1412.23 260.87L1414.87 259.08L1415.96 257.49C1415.96 257.32 1415.89 257.14 1415.85 256.97L1412.28 259.69L1408.56 262.24L1400.41 264.39H1395.67L1388.49 264.56C1388.58 264.94 1388.57 265.22 1388.57 265.51L1388.52 265.47Z" fill="#DA543F"/>
  <path d="M1381.51 265.18C1381.51 265.18 1381.75 263.09 1381.9 261.28L1382.03 261.42L1382.81 260.37C1384.27 258.37 1385.64 256.37 1387.14 254.37L1387.42 254.28L1387.83 254.19V253.9C1387.57 253.911 1387.31 253.955 1387.06 254.03L1386.77 254.12C1385.28 256.17 1383.9 258.12 1382.44 260.12L1381.67 261.17C1381.63 261.121 1381.58 261.074 1381.53 261.03C1381.38 262.84 1381.14 264.93 1381.14 264.93C1381.26 265.302 1381.46 265.644 1381.72 265.93H1381.82C1381.69 265.691 1381.59 265.44 1381.51 265.18Z" fill="#FFF6CF"/>
  <path d="M1361.71 264.06C1361.78 263.893 1361.86 263.724 1361.95 263.55C1362.04 263.34 1362.14 263.14 1362.23 262.93C1362.85 261.62 1363.45 260.31 1364.1 258.93C1365.42 258.34 1366.19 257.47 1367.65 257.44C1369.46 257.44 1371.18 257.44 1372.87 257.61H1373.42C1374.76 257.72 1376.11 257.85 1377.44 257.99L1378.76 258.13V258.01L1378.66 257.9L1377.09 257.74C1375.7 257.6 1374.36 257.47 1373.07 257.36C1372.89 257.36 1372.71 257.36 1372.53 257.36C1370.83 257.24 1369.12 257.17 1367.3 257.19C1365.85 257.19 1365.07 258.09 1363.74 258.68L1361.88 262.68C1361.79 262.89 1361.7 263.09 1361.6 263.3C1361.5 263.51 1361.44 263.64 1361.36 263.81C1360.9 264.81 1360.46 265.73 1360.01 266.7L1360.43 266.75C1360.87 265.85 1361.29 264.95 1361.71 264.06Z" fill="#FFF6CF"/>
  <path d="M1388.74 270.57C1388.83 270.1 1388.91 269.57 1389 269.12H1388.87C1388.87 268.52 1388.87 267.92 1388.87 267.33C1388.87 266.74 1388.87 266.33 1388.87 265.8C1388.87 265.51 1388.87 265.23 1388.87 264.94C1388.87 263.55 1389 262.16 1389.1 260.77C1389.1 260.53 1389.1 260.28 1389.17 260.04C1389.33 258.11 1389.56 256.17 1389.86 254.25C1390.52 252.86 1391.2 251.3 1391.87 249.92C1397.37 249.162 1402.91 248.711 1408.46 248.57H1409.41H1410.8C1411.57 248.57 1412.35 248.57 1413.12 248.57L1412.95 248.32C1412.12 248.32 1411.29 248.32 1410.46 248.32H1409.09H1408.08C1402.53 248.461 1396.99 248.912 1391.49 249.67C1390.82 251.05 1390.15 252.61 1389.47 254C1389.19 255.92 1388.96 257.86 1388.79 259.79C1388.79 260.04 1388.79 260.28 1388.73 260.52C1388.62 261.907 1388.54 263.297 1388.49 264.69C1388.49 264.98 1388.49 265.26 1388.49 265.55V267.08C1388.49 267.67 1388.49 268.27 1388.49 268.87H1388.62C1388.52 269.39 1388.42 270.06 1388.31 270.57H1388.74Z" fill="#FFF6CF"/>
  <path d="M1160.77 313.04C1148.54 313.37 1127.13 314.66 1103.1 316.34L1152.23 308.05C1144.07 295.96 516.874 287.46 516.874 287.46C512.99 291.76 451.796 290.06 450.175 287.89C448.555 285.72 344.944 297.18 348.512 289.2C350.785 284.1 161.383 300.45 -3.02344 308.02V329.11C1.05411 328.79 5.07049 328.5 8.82183 328.28C30.9017 326.99 6.45686 329.57 -1.67785 332.15L-3.02344 332.61V333.25C0.0347219 333.09 9.35192 331.75 19.6885 331.02C35.6827 329.88 53.0326 328.07 73.7975 328.28C94.5624 328.49 78.1605 329.57 82.1973 332.15C86.234 334.73 119.435 329.57 139.008 328.5C158.58 327.43 163.799 328.28 169.192 329.57C174.584 330.86 181.241 329.57 161.873 334.65C142.504 339.73 183.912 333.65 230.569 329.57C277.226 325.49 266.462 326.99 272.894 326.99C279.326 326.99 286.462 327.85 282.741 332.15C279.02 336.45 305.779 332.15 307.726 332.15C309.673 332.15 326.86 331.02 355.913 329.85C384.965 328.68 363.609 331.02 361.295 332.15C358.981 333.28 369.45 332.15 367.656 335.78C365.862 339.41 390.969 333.66 440.481 329.57C489.993 325.48 503.632 325.84 507.424 328.07C511.216 330.3 506.558 332.15 516.17 333.66C525.783 335.17 552.277 332.15 568.893 331.02C585.509 329.89 611.075 328.28 629.516 327.85C647.957 327.42 638.69 327.85 638.476 329.57C638.262 331.29 641.912 332.15 625.744 337.18C609.577 342.21 781.456 325.7 801.792 324.84C822.129 323.98 802.118 325.84 758.866 334.65C715.613 343.46 788.428 333.45 855.31 329.57C922.192 325.69 964.384 325.84 957.83 327.85C951.275 329.86 920.174 337.54 928.533 337.18C932.478 337.02 962.937 333.83 993.987 330.5C1014.51 329.3 1043.04 326.59 1042.81 328.07C1042.51 330 1046.88 329.57 1051.11 331.59C1055.34 333.61 1054.4 332.82 1056.98 333.02C1059.55 333.22 1090.83 329.57 1112.91 328.28C1134.99 326.99 1110.54 329.57 1102.41 332.15C1094.27 334.73 1107.79 332.15 1123.82 331.02C1139.84 329.89 1157.15 328.07 1177.92 328.28C1198.68 328.49 1182.29 329.57 1186.33 332.15C1190.36 334.73 1223.52 329.57 1243.13 328.5C1262.73 327.43 1267.92 328.28 1273.32 329.57C1278.72 330.86 1285.37 329.57 1265.99 334.65C1246.61 339.73 1288.03 333.65 1334.7 329.57C1381.36 325.49 1370.59 326.99 1377.02 326.99C1383.45 326.99 1390.58 327.85 1386.87 332.15C1383.16 336.45 1409.9 332.15 1411.84 332.15C1413.79 332.15 1430.98 331.02 1460.04 329.85C1489.1 328.68 1467.74 331.02 1465.42 332.15C1463.11 333.28 1473.58 332.15 1471.78 335.78C1469.99 339.41 1495.09 333.66 1544.61 329.57C1594.13 325.48 1607.75 325.84 1611.55 328.07C1615.35 330.3 1610.69 332.15 1620.29 333.66C1625.98 334.55 1637.62 333.86 1649.55 332.91V308.13C1456.95 308.75 1266.69 310.15 1160.77 313.04Z" fill="url(#paint25_linear_100_2)"/>
  <defs>
    <linearGradient id="paint0_linear_100_2" x1="825.783" y1="221.89" x2="825.783" y2="439.16" gradientUnits="userSpaceOnUse">
      <stop offset="0.19" stop-color="#F5D46F"/>
      <stop offset="1" stop-color="#FC8332"/>
    </linearGradient>
    <linearGradient id="paint1_linear_100_2" x1="1064.44" y1="67.3001" x2="1435.5" y2="232.85" gradientUnits="userSpaceOnUse">
      <stop stop-color="#F5D46F"/>
      <stop offset="1" stop-color="#FCA141"/>
    </linearGradient>
    <linearGradient id="paint2_linear_100_2" x1="1160.33" y1="18.2701" x2="1184.17" y2="221.757" gradientUnits="userSpaceOnUse">
      <stop stop-color="#AEA079"/>
      <stop offset="0.3" stop-color="#766C52"/>
      <stop offset="0.78" stop-color="#211F17"/>
      <stop offset="1"/>
    </linearGradient>
    <linearGradient id="paint3_linear_100_2" x1="1402.52" y1="116.54" x2="1620.01" y2="159.885" gradientUnits="userSpaceOnUse">
      <stop stop-color="#F5C057"/>
      <stop offset="1" stop-color="#FC7D2F"/>
    </linearGradient>
    <linearGradient id="paint4_linear_100_2" x1="1459.63" y1="45.2899" x2="1470.02" y2="253.307" gradientUnits="userSpaceOnUse">
      <stop stop-color="#A07B60"/>
      <stop offset="0.24" stop-color="#765B47"/>
      <stop offset="0.76" stop-color="#211A14"/>
      <stop offset="1"/>
    </linearGradient>
    <linearGradient id="paint5_linear_100_2" x1="1408" y1="123.95" x2="1422.93" y2="263.861" gradientUnits="userSpaceOnUse">
      <stop stop-color="#A07B60"/>
      <stop offset="0.24" stop-color="#765B47"/>
      <stop offset="0.76" stop-color="#211A14"/>
      <stop offset="1"/>
    </linearGradient>
    <linearGradient id="paint6_linear_100_2" x1="613.629" y1="105.53" x2="415.519" y2="265.925" gradientUnits="userSpaceOnUse">
      <stop stop-color="#F5D46F"/>
      <stop offset="1" stop-color="#FCA141"/>
    </linearGradient>
    <linearGradient id="paint7_linear_100_2" x1="510.598" y1="186.274" x2="220.46" y2="322.893" gradientUnits="userSpaceOnUse">
      <stop stop-color="#F5C057"/>
      <stop offset="1" stop-color="#FC7D2F"/>
    </linearGradient>
    <linearGradient id="paint8_linear_100_2" x1="522.08" y1="-45.3554" x2="435.72" y2="252.295" gradientUnits="userSpaceOnUse">
      <stop stop-color="#A07B60"/>
      <stop offset="0.24" stop-color="#765B47"/>
      <stop offset="0.76" stop-color="#211A14"/>
      <stop offset="1"/>
    </linearGradient>
    <linearGradient id="paint9_linear_100_2" x1="535.951" y1="57.8902" x2="497.95" y2="222.352" gradientUnits="userSpaceOnUse">
      <stop stop-color="#AEA079"/>
      <stop offset="0.3" stop-color="#766C52"/>
      <stop offset="0.78" stop-color="#211F17"/>
      <stop offset="1"/>
    </linearGradient>
    <linearGradient id="paint10_linear_100_2" x1="639.45" y1="163.45" x2="624.494" y2="249.244" gradientUnits="userSpaceOnUse">
      <stop stop-color="#AEA079"/>
      <stop offset="0.3" stop-color="#766C52"/>
      <stop offset="0.78" stop-color="#211F17"/>
      <stop offset="1"/>
    </linearGradient>
    <linearGradient id="paint11_linear_100_2" x1="253.083" y1="105.53" x2="451.193" y2="265.925" gradientUnits="userSpaceOnUse">
      <stop stop-color="#F5D46F"/>
      <stop offset="1" stop-color="#FCA141"/>
    </linearGradient>
    <linearGradient id="paint12_linear_100_2" x1="349.91" y1="200.662" x2="640.048" y2="337.281" gradientUnits="userSpaceOnUse">
      <stop stop-color="#F5C057"/>
      <stop offset="1" stop-color="#FC7D2F"/>
    </linearGradient>
    <linearGradient id="paint13_linear_100_2" x1="338.429" y1="-30.9574" x2="424.788" y2="266.683" gradientUnits="userSpaceOnUse">
      <stop stop-color="#A07B60"/>
      <stop offset="0.24" stop-color="#765B47"/>
      <stop offset="0.76" stop-color="#211A14"/>
      <stop offset="1"/>
    </linearGradient>
    <linearGradient id="paint14_linear_100_2" x1="330.763" y1="57.8902" x2="368.763" y2="222.352" gradientUnits="userSpaceOnUse">
      <stop stop-color="#AEA079"/>
      <stop offset="0.3" stop-color="#766C52"/>
      <stop offset="0.78" stop-color="#211F17"/>
      <stop offset="1"/>
    </linearGradient>
    <linearGradient id="paint15_linear_100_2" x1="1401.12" y1="-23.93" x2="1567.84" y2="325.641" gradientUnits="userSpaceOnUse">
      <stop stop-color="#F5C057"/>
      <stop offset="1" stop-color="#FC7D2F"/>
    </linearGradient>
    <linearGradient id="paint16_linear_100_2" x1="1427.75" y1="22.85" x2="1543.7" y2="263.15" gradientUnits="userSpaceOnUse">
      <stop stop-color="#A07B60"/>
      <stop offset="0.24" stop-color="#765B47"/>
      <stop offset="0.76" stop-color="#211A14"/>
      <stop offset="1"/>
    </linearGradient>
    <linearGradient id="paint17_linear_100_2" x1="1699.36" y1="-23.93" x2="1532.64" y2="325.641" gradientUnits="userSpaceOnUse">
      <stop stop-color="#F5C057"/>
      <stop offset="1" stop-color="#FC7D2F"/>
    </linearGradient>
    <linearGradient id="paint18_linear_100_2" x1="1672.73" y1="22.85" x2="1556.78" y2="263.15" gradientUnits="userSpaceOnUse">
      <stop stop-color="#A07B60"/>
      <stop offset="0.24" stop-color="#765B47"/>
      <stop offset="0.76" stop-color="#211A14"/>
      <stop offset="1"/>
    </linearGradient>
    <linearGradient id="paint19_linear_100_2" x1="1148.96" y1="226.08" x2="1153.17" y2="255.998" gradientUnits="userSpaceOnUse">
      <stop stop-color="#E3E734"/>
      <stop offset="0.06" stop-color="#D8DD2B"/>
      <stop offset="0.24" stop-color="#B7C010"/>
      <stop offset="0.35" stop-color="#ABB506"/>
      <stop offset="1" stop-color="#6C9500"/>
    </linearGradient>
    <linearGradient id="paint20_linear_100_2" x1="1150.91" y1="227.93" x2="1149.37" y2="250.522" gradientUnits="userSpaceOnUse">
      <stop stop-color="#AA8768"/>
      <stop offset="0.29" stop-color="#765E48"/>
      <stop offset="0.78" stop-color="#211B14"/>
      <stop offset="1"/>
    </linearGradient>
    <linearGradient id="paint21_linear_100_2" x1="1158.45" y1="236.73" x2="1165.67" y2="266.163" gradientUnits="userSpaceOnUse">
      <stop stop-color="#E3E734"/>
      <stop offset="0.06" stop-color="#D8DD2B"/>
      <stop offset="0.24" stop-color="#B7C010"/>
      <stop offset="0.35" stop-color="#ABB506"/>
      <stop offset="1" stop-color="#6C9500"/>
    </linearGradient>
    <linearGradient id="paint22_linear_100_2" x1="1168.57" y1="250.75" x2="1151.84" y2="250.75" gradientUnits="userSpaceOnUse">
      <stop stop-color="#AA8768"/>
      <stop offset="0.29" stop-color="#765E48"/>
      <stop offset="0.78" stop-color="#211B14"/>
      <stop offset="1"/>
    </linearGradient>
    <linearGradient id="paint23_linear_100_2" x1="1178.71" y1="221.03" x2="1173" y2="250.275" gradientUnits="userSpaceOnUse">
      <stop stop-color="#E3E734"/>
      <stop offset="0.06" stop-color="#D8DD2B"/>
      <stop offset="0.24" stop-color="#B7C010"/>
      <stop offset="0.35" stop-color="#ABB506"/>
      <stop offset="1" stop-color="#6C9500"/>
    </linearGradient>
    <linearGradient id="paint24_linear_100_2" x1="1180.11" y1="214.65" x2="1170.73" y2="243.237" gradientUnits="userSpaceOnUse">
      <stop stop-color="#AA8768"/>
      <stop offset="0.29" stop-color="#765E48"/>
      <stop offset="0.78" stop-color="#211B14"/>
      <stop offset="1"/>
    </linearGradient>
    <linearGradient id="paint25_linear_100_2" x1="81.3783" y1="393.7" x2="81.3783" y2="272.74" gradientUnits="userSpaceOnUse">
      <stop offset="0.19" stop-color="#F5D46F"/>
      <stop offset="1" stop-color="#FC8332"/>
    </linearGradient>
  </defs>
</svg>
