<svg width="1645" height="432" viewBox="0 0 1645 432" fill="none" xmlns="http://www.w3.org/2000/svg">
  <path d="M1080.87 218.78L1089.78 217.37L1090.29 205.67L1012.06 204.09L1007.05 196.1L975.569 196.52L958.566 197.68L954.176 207.47L949.998 208.59L929.24 219.99L909.871 219.58L907.606 215.13L889.918 215.68L885.327 226.8L860.522 228.46L842.371 224.93L836.089 223.62L833.391 219.25L827.602 219.79L776.521 220.41L772.132 227.81L732.377 230.83L719.521 230.89L680.118 228.26L658.927 216.49L649.635 218.92L593.883 216.25L582.537 199.57L550.101 200L547.715 210.91L529.755 212.75L503.923 204.64L496.654 198.59L496.564 190.25L493.715 186.55L478.594 187.17L480.033 252.46L633.86 247.81L793.776 238.09L821.914 242.92L838.686 244L1102.57 239.26L1109.46 228.8L1081.99 227.58L1080.87 218.78Z" fill="#DD7962"/>
  <path d="M490.746 227.58L489.699 218.78L498.054 217.37L498.538 205.67L425.108 204.09L420.396 196.1L390.849 196.52L374.893 197.68L370.775 207.47L366.849 208.59L347.359 219.99L332.238 219.65V242.66L510.054 239.26L516.538 228.8L490.746 227.58Z" fill="#44D6AF"/>
  <path d="M1644.14 227.72L1633.71 228.46L1616.67 224.93L1610.77 223.62L1608.24 219.25L1602.81 219.79L1554.85 220.41L1550.74 227.81L1513.43 230.83L1501.36 230.89L1464.37 228.26L1444.48 216.49L1435.76 218.92L1383.43 216.25L1372.78 199.57L1342.33 200L1340.08 210.91L1323.23 212.75L1298.99 204.64L1292.16 198.59L1292.08 190.25L1289.4 186.55L1275.21 187.17L1276.56 252.46L1420.95 247.81L1571.05 238.09L1597.46 242.92L1613.21 244L1644.14 243.41V227.72Z" fill="#E17C61"/>
  <path d="M1644.15 237.14H-1.04102V431.66H1644.15V237.14Z" fill="url(#paint0_linear_100_2)"/>
  <path d="M1441.55 238.39L1410.47 237.82L1321.05 237.38L1272.72 237.14L1247.12 237.94L1245.43 240.28L1209.07 239.37L1145.21 239.39L1146 239.1L1126.19 238.46L1074.06 238.05L992.956 238.27L933.902 238.21L909.217 238.15L883.717 238.7L824.693 239.61L780.136 237.42L719.26 237.33L639.991 237.46L606.629 239.21L570.236 239.81L475.121 238.73L452.158 238.68L418.192 237.11L368.973 237.61L332.238 238.02V244.45L347.53 244.28L346.644 242.29L386.621 241.65L451.987 241.39L474.91 242.5L518.199 243.44L536.743 246.15L584.733 244.67L636.961 244.05L656.159 242.5L721.525 241.59L835.949 242.47L871.788 243.07L909.731 243.86L917.15 245.19L954.459 246.34L1007.33 245L1013.86 242.3L1045.42 242.84L1141.14 245L1222.75 245.77L1259.24 242.46L1284.18 243.6L1333.2 244.82L1368.76 246.78L1458.28 246.72L1441.55 238.39Z" fill="#FFE184"/>
  <path d="M1408.13 248.91L1371.41 247.65L1315.55 247.78L1210.43 246.08L1148.7 245.16L1106.1 248.03L1077.31 248.12L958.025 250.11L912.377 249L870.556 245.79L771.142 245.56L694.795 245.72L638.928 249.75L564.906 248.07L532.928 247.07L501.965 247.18L427.912 247.29L326.215 246.87L260.829 247.63L235.985 248.8L236.97 249.34L156.899 249.3L111.292 250.97L109.171 246.67L77.0815 245.21L16.4549 245.65L-1.04102 245.78V259.47L1.23223 259.29L62.7113 257.07L93.9685 254.98L139.738 261.05L242.074 259.62L362.12 255.67L401.699 254.68L409.879 259.63L476.188 262.09L522.983 259.98L532.279 257.53L579.865 256.08L624.812 255L768.3 253.37L850.269 255.04L874.351 257.89L939.849 259.03L1000.03 261.74L1023.28 256.77L1077.56 255.04L1106.31 253.01L1188.29 253.49L1238.42 254.66L1237.31 258.31L1261.65 258.7L1326.67 259.92L1388.21 262.81L1411.06 262.3L1408.13 248.91Z" fill="#FFE184"/>
  <path d="M340.423 338.22L495.639 335.6L417.9 333.87L315.95 331.4L273.93 332.97L257.873 338.68L120.839 341.31L58.4122 343.51L10.3516 338.42V346.94L58.09 351.74L262.977 348.81L331.021 346.99L297.487 343.93L321.497 341.65L340.423 338.22Z" fill="#F2A14B"/>
  <path d="M463.927 375.31L405.387 374.47L325.997 377.72L323.541 382.77L308.843 384.43L250.322 389.45L183.829 393.52L145.413 386.6L146.439 385.79L88.6338 381.62L10.3516 378.66V380.72L18.4355 380.76L113.6 385.59L133.795 388.6L129.144 395.57L116.077 395.28L89.9828 396.6L144.587 400.26L202.03 403.65L218.722 397.93L289.937 394.16L303.719 393.55L304.413 390.3L352.061 386.81L349.132 383.94L429.82 388.67L463.927 375.31Z" fill="#F2A14B"/>
  <path d="M463.927 320.64L405.387 319.81L325.997 323.06L323.541 328.11L308.843 329.77L250.322 334.78L183.829 338.86L145.413 331.94L146.439 331.12L88.6338 326.96L10.3516 324V326.06L18.4355 326.1L113.6 330.93L133.795 333.94L129.144 340.91L116.077 340.62L89.9828 341.93L144.587 345.6L202.03 348.99L218.722 343.27L289.937 339.49L303.719 338.89L304.413 335.64L352.061 332.14L349.132 329.27L429.82 334L463.927 320.64Z" fill="#F2A14B"/>
  <path d="M747.881 277.2L816.418 276.09L882.026 275.92L945.509 277.36L1005.62 281.8L1137.53 283.43L1202.9 283.41L1233.9 283.33L1266.55 280.56L1332.03 279.07L1406.48 280.84V281.47L1339.34 280.38L1310.1 280.2L1274.5 280.9L1247.71 284.17L1220.43 284.89L1153.87 284.98L1023.76 284.1L964.858 279.88L896.633 277.49L823.878 277.21L747.881 278.16V277.2Z" fill="#F2A14B"/>
  <path d="M1552.63 317.14L1440.48 318.16L1351.56 318.21L1318.18 319.29L1193.76 321.23L1076.05 319.19L988.838 320.21L1103.15 326.35L1186.87 330.05L1214.54 331.47L1252.45 330.96L1283.05 332.39L1316.17 333.97L1406.3 332.48L1350.37 327.25L1356.28 325.85L1355.9 324.92L1365.09 324.7L1455.84 323.84L1553.41 324.86L1552.63 317.14Z" fill="#F2A14B"/>
  <path d="M300.754 282.46L200.711 289.58L99.1455 289.41L-0.816403 283.64L-2.83594 283.63V284.75L13.0768 284.83L109.172 290.05L210.687 290.54L404.735 280.62L405.577 279.42L300.754 282.46Z" fill="#F2A14B"/>
  <path d="M967.627 312.56L1069.82 312.35L1168.98 306.58L1269.74 306.4L1368.97 313.53L1472.97 316.57L1472.13 315.36L1279.63 305.44L1178.93 305.93L1083.6 311.15L967.627 311.75V312.56Z" fill="#F2A14B"/>
  <path d="M1644.14 319.33V309.36L1643.76 309.38L1637.24 310.96L1629.53 312.89L1613.68 317.18L1606 319.26L1591.6 318.85L1553.16 318.89L1557 315.61L1499.58 312.84L1483.92 321.35L1552.03 325.15L1587.45 325.3L1605.57 325.32L1623.07 325.26L1622.86 321.32L1628.17 319.75L1644.14 319.33Z" fill="#F2A14B"/>
  <path d="M1591.03 288.77L1644.14 287.9V284.8L1582.21 286.14L1581.3 288.8L1592.92 293.21L1571.87 296.74L1542.41 295.72L1487.68 293.96L1503.54 287.9V285.71L1453.12 280.77L1396.43 280.35V281.95L1450.28 283.11L1499.75 287.07L1481.29 293.94L1482.04 296.13L1554.2 299.57L1584.38 300.39L1598.45 293.38L1597 290.54L1591.03 288.77Z" fill="#F2A14B"/>
  <path d="M1644.14 360.5L1626.53 361.6L1603.92 370.53L1567.41 374.97L1496.16 375.55L1209.25 370.97V375.12L1373.36 378.29L1512.26 380.26L1582.59 378.38L1606.47 374.13L1629.1 365.65L1644.14 364.07V360.5Z" fill="#F2A14B"/>
  <path d="M361.072 277.99L440.693 279.53L479.291 280.25L497.1 279.21L514.546 274.57L542.825 271.99L583.486 272.29L617.634 274.75L656.392 277.37L747.359 275.73V276.62L667.96 278.99L629.644 277.8L614.775 275.76L593.644 273.92L554.442 273.67L515.019 276.21L487.908 281.56L452.271 281.2L361.072 279.4V277.99Z" fill="#F2A14B"/>
  <path d="M347.882 326.51L361.241 326.54L364.473 328.09L427.161 329.54L429.034 325.72L431.057 324.23L467.379 319.3L531.819 317.24L550.333 316.65L591.93 315.31L611.773 314.65L612.669 319.91L599.068 323.24L612.87 324.41V330.49L471.376 333.68L469.534 334.08L451.524 334.06L429.507 336.13L426.759 335.18L347.943 332.65H347.882L346.855 332.54L347.882 326.51Z" fill="#F2A14B"/>
  <path d="M369.265 311.92C368.258 308.22 367.312 304.2 367.705 300.34C371.52 300.34 374.389 308.45 374.118 311.92C377.47 309.1 378.738 303.85 383.349 302.32C383.762 306.69 381.547 311.92 378.154 314.32C383.561 311.92 389.349 308.11 395.54 308.75C394.463 310.86 384.024 317.53 383.41 315.92C379.574 318.54 361.443 318.22 359.107 312.69C360.889 310.71 367.081 310.99 369.265 311.92Z" fill="#9C7240"/>
  <path d="M1391.99 356.12C1387.96 354.12 1382.61 350.91 1380.31 346.97C1385.54 344.61 1391.96 346.49 1396.04 348.49C1394.93 344.95 1392.22 339.66 1393.15 336.07C1398 337.21 1401.46 341.91 1402.5 346.49C1404.39 341.93 1413.31 329.49 1419.02 327.6C1422.62 333.11 1417.07 342.97 1413.41 347.29C1413.14 347.585 1412.89 347.899 1412.66 348.23C1414.85 346.94 1422.22 340.59 1423.61 345.23C1424.62 348.51 1414.42 355.09 1412.61 354.92C1406.34 354.33 1397.97 359.04 1391.99 356.12Z" fill="#9C7240"/>
  <path d="M1355.22 282.57C1353.96 282.12 1349.03 275.12 1350.03 273.72C1352.5 270.25 1360.75 276.49 1361.69 278.96C1365.22 263.65 1370.46 279.89 1365.71 281.77C1368.01 280.59 1378.17 274.47 1380.64 276.98C1384.05 280.43 1373.26 287.43 1370.16 285.79C1365.52 286.5 1347.94 287.92 1346.77 282.23C1349.59 282 1352.43 282.114 1355.22 282.57Z" fill="#9C7240"/>
  <path d="M1253.77 308.5C1252.19 308.22 1246.24 302.17 1246.53 300.02C1247.21 295.02 1256.01 299.1 1256.6 301.27C1256.66 297.08 1256.32 285.75 1259.41 283.22C1262.82 290.61 1262.29 297.85 1261.85 305.69C1262.74 302.13 1265.94 298.3 1268.32 295.58C1270.5 298.21 1268.73 305.15 1266.31 307.29C1268.84 308.61 1273.3 306.36 1276.38 308.51C1273.68 312.85 1258.58 309.34 1253.77 308.5Z" fill="#9C7240"/>
  <path d="M592.183 263.4L593.038 263.83C593.173 263.844 593.306 263.878 593.431 263.93C593.63 263.995 593.825 264.071 594.015 264.16C594.387 264.37 594.74 264.6 595.092 264.81C595.444 265.02 595.767 265.25 596.099 265.48C596.483 265.71 596.823 266.004 597.105 266.35L597.196 266.46C597.221 266.373 597.255 266.29 597.297 266.21C597.423 265.995 597.603 265.815 597.82 265.69C597.82 265.58 597.82 265.47 597.82 265.36C597.72 264.72 597.669 264.07 597.528 263.43C597.387 262.79 597.347 262.11 597.186 261.43C597.171 261.308 597.195 261.185 597.256 261.078C597.317 260.971 597.411 260.887 597.524 260.837C597.637 260.788 597.764 260.776 597.884 260.804C598.004 260.831 598.113 260.896 598.193 260.99C598.59 261.565 598.927 262.178 599.199 262.82C599.39 263.376 599.545 263.944 599.663 264.52L600.176 264.24C600.8 263.89 601.424 263.53 602.059 263.24C602.46 263.026 602.878 262.843 603.307 262.69C603.481 262.626 603.66 262.573 603.84 262.53C603.989 262.492 604.141 262.469 604.293 262.46H604.535C604.691 262.464 604.843 262.502 604.982 262.572C605.121 262.641 605.244 262.739 605.34 262.86C605.441 262.983 605.511 263.127 605.544 263.282C605.577 263.437 605.573 263.597 605.532 263.75C605.441 264.01 605.309 264.253 605.139 264.47C605.016 264.607 604.885 264.738 604.746 264.86C604.413 265.164 604.056 265.441 603.679 265.69C603.418 265.87 603.146 266.03 602.874 266.19L603.629 266.34C603.871 266.388 604.091 266.515 604.253 266.7L604.656 266.86C604.733 266.886 604.798 266.938 604.841 267.007C604.883 267.076 604.901 267.157 604.89 267.237C604.879 267.317 604.841 267.391 604.782 267.446C604.723 267.501 604.646 267.534 604.565 267.54H604.203C603.993 267.695 603.739 267.779 603.478 267.78L602.733 267.84L601.293 267.99C600.82 267.99 600.347 267.99 599.864 267.99H599.663C599.628 268.135 599.561 268.27 599.467 268.386C599.373 268.502 599.254 268.596 599.119 268.66C598.945 268.717 598.755 268.708 598.587 268.637C598.418 268.565 598.282 268.435 598.203 268.27C598.076 268.29 597.947 268.29 597.82 268.27C597.75 268.302 597.675 268.322 597.599 268.33C597.271 268.335 596.949 268.245 596.673 268.07L596.371 267.93L596.169 267.82C596.025 267.803 595.885 267.759 595.756 267.69C595.65 267.625 595.549 267.551 595.454 267.47L595.193 267.26L594.548 266.76C594.126 266.43 593.753 266.06 593.371 265.7C593.178 265.531 593.003 265.343 592.847 265.14C592.698 264.963 592.573 264.768 592.475 264.56C592.253 264.33 592.032 264.1 591.82 263.86C591.795 263.805 591.786 263.745 591.793 263.685C591.801 263.625 591.824 263.569 591.862 263.521C591.899 263.474 591.949 263.438 592.005 263.416C592.062 263.395 592.123 263.389 592.183 263.4Z" fill="#9C7240"/>
  <path d="M481.624 261.57C481.62 261.593 481.62 261.617 481.624 261.64C481.624 261.72 481.624 261.8 481.624 261.88C481.594 261.78 481.604 261.68 481.624 261.57Z" fill="#9C7240"/>
  <path d="M478.191 260.83C478.311 260.687 478.475 260.588 478.658 260.55C478.841 260.512 479.031 260.537 479.198 260.62L479.702 260.88C479.822 260.9 479.937 260.941 480.044 261L480.235 261.12L480.547 261.32C480.84 261.515 481.122 261.726 481.393 261.95L481.554 262.14C481.554 261.98 481.554 261.82 481.554 261.65L481.644 261.03C481.64 260.947 481.64 260.863 481.644 260.78C481.674 260.674 481.726 260.575 481.795 260.49C481.798 260.344 481.847 260.202 481.935 260.085C482.024 259.968 482.148 259.882 482.289 259.84C482.434 259.804 482.588 259.815 482.727 259.871C482.866 259.926 482.984 260.024 483.064 260.15V260.2C483.133 260.243 483.197 260.293 483.255 260.35C483.38 260.488 483.473 260.652 483.527 260.83C483.527 260.93 483.608 261.02 483.638 261.12C483.738 261.403 483.789 261.7 483.789 262C483.794 262.07 483.794 262.14 483.789 262.21L484.735 261.93L485.289 261.76C485.379 261.76 485.47 261.68 485.561 261.66H485.661C485.801 261.593 485.95 261.549 486.104 261.53L486.356 261.44C486.529 261.35 486.724 261.308 486.92 261.32C486.993 261.314 487.067 261.314 487.141 261.32C487.314 261.296 487.49 261.312 487.655 261.366C487.821 261.419 487.972 261.51 488.097 261.63C488.222 261.751 488.318 261.898 488.378 262.061C488.437 262.224 488.458 262.398 488.44 262.57C488.469 262.807 488.438 263.048 488.349 263.27C488.278 263.438 488.19 263.599 488.087 263.75C488.037 263.82 488.017 263.84 488.007 263.84L487.916 264.06L487.644 264.41C487.538 264.531 487.424 264.644 487.302 264.75C486.757 265.277 486.119 265.701 485.42 266C485.012 266.195 484.588 266.352 484.151 266.47C483.699 266.571 483.242 266.648 482.782 266.7H482.289C482.142 266.715 481.993 266.715 481.846 266.7C481.564 266.683 481.291 266.597 481.051 266.45L480.94 266.36C480.458 266.202 480.046 265.884 479.772 265.46C479.612 265.181 479.536 264.861 479.554 264.54C479.571 264.219 479.682 263.91 479.873 263.65L479.782 263.58C479.671 263.475 479.573 263.358 479.49 263.23L479.671 263.46L479.198 262.89L478.957 262.63L478.836 262.51C478.76 262.433 478.696 262.345 478.644 262.25C478.504 262.11 478.363 261.97 478.212 261.84C478.09 261.7 478.021 261.523 478.018 261.339C478.014 261.154 478.076 260.974 478.191 260.83Z" fill="#9C7240"/>
  <path d="M417.236 269.18C417.387 268.937 417.624 268.759 417.9 268.68C418.186 268.61 418.488 268.65 418.746 268.79L419.471 269.24L419.662 269.35L419.481 269.02L419.149 268.24C419.041 268.038 418.95 267.827 418.877 267.61C418.867 267.5 418.867 267.39 418.877 267.28L418.816 267.01C418.801 266.891 418.801 266.77 418.816 266.65L418.706 266.34C418.668 266.186 418.681 266.023 418.743 265.877C418.805 265.731 418.913 265.608 419.051 265.527C419.188 265.447 419.349 265.412 419.508 265.429C419.667 265.445 419.816 265.512 419.934 265.62L420.105 265.79C420.254 265.845 420.393 265.923 420.518 266.02L420.598 266.09C421.093 266.417 421.518 266.838 421.847 267.33C421.917 267.4 421.957 267.49 422.018 267.56H422.118H422.199L422.531 267.49C422.653 267.46 422.781 267.46 422.904 267.49C423.025 267.492 423.143 267.527 423.246 267.59C423.331 267.617 423.41 267.661 423.477 267.72C423.671 267.809 423.836 267.951 423.951 268.13C424.049 268.307 424.094 268.508 424.082 268.71C424.107 268.819 424.107 268.931 424.082 269.04C424.072 269.222 424.013 269.399 423.91 269.55L423.699 269.83C423.657 269.878 423.61 269.922 423.558 269.96C423.459 270.054 423.352 270.138 423.236 270.21C423.291 270.42 423.291 270.64 423.236 270.85C423.171 271.068 423.039 271.261 422.858 271.4C422.678 271.54 422.458 271.621 422.229 271.63C421.806 271.607 421.408 271.421 421.122 271.11L420.92 270.91C420.949 271.051 420.924 271.197 420.85 271.32C420.763 271.461 420.627 271.564 420.467 271.61C420.37 271.644 420.268 271.665 420.165 271.67C420.046 271.666 419.927 271.645 419.813 271.61H419.692C419.585 271.62 419.477 271.62 419.37 271.61C419.214 271.589 419.064 271.538 418.927 271.46L418.826 271.4L418.464 271.19L417.729 270.76C417.482 270.611 417.299 270.376 417.216 270.1C417.154 269.954 417.124 269.796 417.127 269.638C417.131 269.479 417.168 269.323 417.236 269.18Z" fill="#9C7240"/>
  <path d="M534.65 289.98C536.212 289.926 537.745 290.41 538.989 291.35C539.482 290.91 540.147 290.66 540.62 290.21C540.767 290.072 540.947 289.973 541.142 289.923C541.338 289.873 541.544 289.874 541.739 289.925C541.935 289.976 542.114 290.076 542.26 290.215C542.406 290.354 542.514 290.528 542.573 290.72C542.84 291.618 543.046 292.534 543.187 293.46L543.811 293.2C544.596 292.88 545.402 292.61 546.167 292.26C546.319 292.174 546.497 292.146 546.668 292.18C546.84 292.214 546.993 292.309 547.1 292.447C547.206 292.584 547.259 292.755 547.249 292.929C547.238 293.102 547.165 293.266 547.043 293.39C546.449 294.129 545.774 294.8 545.029 295.39C544.26 295.975 543.421 296.466 542.533 296.85C542.248 296.982 541.929 297.026 541.619 296.976C541.308 296.926 541.02 296.785 540.791 296.57C540.741 296.601 540.687 296.625 540.63 296.64C540.385 296.695 540.13 296.695 539.885 296.64C539.545 296.569 539.208 296.479 538.878 296.37C538.155 296.127 537.46 295.809 536.804 295.42C536.182 295.036 535.596 294.598 535.053 294.11C534.528 293.619 534.043 293.087 533.603 292.52C533.404 292.309 533.271 292.046 533.218 291.761C533.166 291.477 533.196 291.184 533.307 290.917C533.417 290.649 533.602 290.419 533.84 290.253C534.078 290.087 534.359 289.992 534.65 289.98Z" fill="#9C7240"/>
  <path d="M1111.06 258.25C1111.25 258.33 1111.44 258.42 1111.62 258.52C1111.8 258.62 1112.15 258.64 1112.42 258.7C1112.91 258.8 1113.43 258.9 1113.89 258.97L1114.65 259.05C1114.62 258.83 1114.65 258.605 1114.74 258.403C1114.83 258.2 1114.98 258.027 1115.17 257.903C1115.35 257.78 1115.57 257.711 1115.79 257.705C1116.02 257.7 1116.24 257.757 1116.43 257.87C1116.52 257.924 1116.6 257.988 1116.68 258.06C1116.81 258.104 1116.93 258.158 1117.04 258.22C1117.24 258.35 1117.43 258.497 1117.6 258.66C1117.92 258.95 1118.21 259.268 1118.47 259.61C1118.53 259.695 1118.59 259.786 1118.63 259.88C1118.86 259.74 1119.08 259.58 1119.31 259.46C1119.7 259.256 1120.09 259.073 1120.5 258.91C1120.65 258.84 1120.82 258.79 1120.99 258.76C1121.1 258.73 1121.22 258.73 1121.33 258.76C1121.57 258.87 1121.6 258.88 1121.44 258.76C1121.53 258.76 1121.61 258.779 1121.68 258.816C1121.76 258.853 1121.82 258.906 1121.87 258.972C1121.92 259.038 1121.96 259.114 1121.98 259.195C1121.99 259.276 1121.99 259.36 1121.97 259.44C1121.97 259.25 1121.97 259.28 1121.97 259.55V259.78C1121.89 259.97 1121.78 260.144 1121.63 260.29C1121.35 260.648 1121.04 260.983 1120.7 261.29C1120.01 261.903 1119.29 262.468 1118.52 262.98C1118.3 263.108 1118.05 263.166 1117.8 263.148C1117.55 263.131 1117.3 263.037 1117.1 262.88C1116.95 262.761 1116.83 262.609 1116.75 262.435C1116.67 262.262 1116.63 262.072 1116.63 261.88C1116.43 261.851 1116.23 261.798 1116.04 261.72C1115.9 261.65 1115.77 261.559 1115.65 261.45C1115.61 261.648 1115.51 261.832 1115.38 261.99C1114.57 262.99 1112.75 262.46 1111.79 261.99C1111.24 261.765 1110.75 261.42 1110.36 260.98C1109.96 260.54 1109.67 260.017 1109.51 259.45C1109.3 258.65 1110.27 257.64 1111.06 258.25Z" fill="#9C7240"/>
  <path d="M745.355 270.07C745.299 269.864 745.189 269.676 745.037 269.525C744.886 269.374 744.696 269.266 744.489 269.21C743.574 269.056 742.635 269.104 741.741 269.35C741.388 269.45 741.046 269.56 740.684 269.65C740.502 269.499 740.303 269.372 740.09 269.27L739.858 269.14C739.634 269.028 739.382 268.986 739.133 269.02C739.078 268.989 739.015 268.973 738.951 268.973C738.887 268.973 738.824 268.99 738.769 269.021C738.713 269.052 738.667 269.097 738.634 269.151C738.6 269.205 738.582 269.267 738.58 269.33C738.444 269.515 738.36 269.732 738.338 269.96C738.333 270.05 738.333 270.14 738.338 270.23C738.307 270.521 738.328 270.816 738.398 271.1C738.558 271.6 738.76 272.085 739.002 272.55C739.143 272.786 739.343 272.981 739.584 273.116C739.824 273.251 740.096 273.322 740.372 273.32C740.588 273.321 740.802 273.274 740.998 273.184C741.194 273.095 741.369 272.964 741.509 272.8C741.732 272.949 741.996 273.026 742.264 273.02C742.604 273.023 742.943 272.98 743.271 272.89C743.67 272.755 744.039 272.545 744.358 272.27C744.447 272.199 744.531 272.122 744.61 272.04C744.791 271.841 744.935 271.61 745.033 271.36V271.45L745.123 271.31C745.123 271.22 745.204 271.13 745.234 271.04C745.323 270.897 745.38 270.736 745.401 270.568C745.422 270.401 745.406 270.231 745.355 270.07Z" fill="#9C7240"/>
  <path d="M1305.38 252.82C1305.81 252.799 1306.25 252.84 1306.67 252.94C1306.96 252.94 1307.25 252.94 1307.55 252.94C1308.18 253.01 1308.8 253.13 1309.43 253.25C1309.73 253.31 1310.02 253.39 1310.31 253.46C1310.33 253.264 1310.37 253.07 1310.42 252.88C1310.49 252.657 1310.63 252.462 1310.82 252.323C1311 252.184 1311.23 252.109 1311.47 252.109C1311.7 252.109 1311.93 252.184 1312.12 252.323C1312.3 252.462 1312.44 252.657 1312.51 252.88C1312.74 253.47 1313.08 254.012 1313.52 254.48C1313.86 254.21 1314.19 253.93 1314.52 253.63C1315.16 252.885 1315.97 252.3 1316.88 251.92C1316.96 251.899 1317.05 251.897 1317.13 251.914C1317.22 251.931 1317.3 251.967 1317.36 252.019C1317.43 252.071 1317.49 252.138 1317.52 252.214C1317.56 252.291 1317.58 252.375 1317.58 252.46C1317.42 253.55 1316.86 254.542 1316 255.24C1315.21 256.052 1314.35 256.801 1313.44 257.48C1313.29 257.571 1313.11 257.624 1312.93 257.636C1312.74 257.648 1312.56 257.619 1312.39 257.551C1312.22 257.483 1312.07 257.377 1311.95 257.241C1311.82 257.106 1311.73 256.945 1311.68 256.77C1311.6 256.716 1311.52 256.656 1311.45 256.59C1311.33 256.49 1311.2 256.4 1311.08 256.29C1311.05 256.374 1310.99 256.446 1310.91 256.496C1310.84 256.546 1310.75 256.572 1310.66 256.57C1308.58 256.47 1306.08 256.21 1304.69 254.49C1304.56 254.35 1304.47 254.176 1304.44 253.99C1304.41 253.804 1304.43 253.612 1304.5 253.437C1304.57 253.262 1304.7 253.111 1304.85 253.002C1305.01 252.893 1305.19 252.83 1305.38 252.82Z" fill="#9C7240"/>
  <path d="M1270.05 264.33C1270.11 264.098 1270.21 263.879 1270.35 263.687C1270.49 263.494 1270.66 263.332 1270.87 263.21C1271.13 263.036 1271.43 262.93 1271.74 262.9C1272.06 262.87 1272.37 262.918 1272.66 263.04C1272.95 263.153 1273.21 263.331 1273.42 263.56L1273.77 263.42C1273.94 263.368 1274.12 263.351 1274.29 263.37H1274.44C1274.58 263.377 1274.71 263.414 1274.84 263.48H1274.93C1275.03 263.508 1275.12 263.56 1275.2 263.634C1275.27 263.707 1275.33 263.798 1275.35 263.899C1275.38 263.999 1275.39 264.105 1275.36 264.207C1275.34 264.309 1275.29 264.403 1275.22 264.48C1275.07 264.787 1274.84 265.049 1274.55 265.24L1274.67 265.15C1274.64 265.168 1274.62 265.192 1274.59 265.22L1274.48 265.3L1274.25 265.53L1273.62 266.14C1273.55 266.221 1273.48 266.294 1273.41 266.36L1273.34 266.44C1273.26 266.511 1273.18 266.575 1273.09 266.63C1272.84 266.773 1272.55 266.821 1272.27 266.766C1271.98 266.71 1271.73 266.556 1271.55 266.33C1271.52 266.269 1271.48 266.205 1271.45 266.14C1271.17 266.187 1270.89 266.137 1270.64 266C1270.44 265.876 1270.28 265.705 1270.17 265.505C1270.06 265.304 1270 265.079 1270 264.85C1270 264.675 1270.01 264.5 1270.05 264.33Z" fill="#9C7240"/>
  <path d="M1272.88 263.12C1272.81 263.089 1272.74 263.062 1272.66 263.04L1272.88 263.12Z" fill="#9C7240"/>
  <path d="M646.494 300.08C646.231 300.03 645.961 300.03 645.699 300.08C645.886 299.681 645.936 299.231 645.84 298.8C645.84 298.72 645.779 298.67 645.759 298.61C645.755 298.56 645.755 298.51 645.759 298.46C645.759 298.34 645.689 298.22 645.638 298.1C645.583 297.905 645.477 297.727 645.333 297.584C645.188 297.44 645.009 297.336 644.813 297.28C644.612 297.225 644.4 297.223 644.198 297.276C643.997 297.329 643.813 297.434 643.665 297.58L643.474 297.57L643.182 297.74C642.919 297.903 642.67 298.087 642.437 298.29C642.053 298.633 641.715 299.022 641.43 299.45C641.249 299.723 641.091 300.011 640.957 300.31C640.642 300.072 640.305 299.864 639.95 299.69C639.507 299.48 638.883 299.83 639.054 300.37C639.2 300.889 639.428 301.382 639.729 301.83C640.031 302.27 640.343 302.69 640.665 303.11C640.803 303.328 641.007 303.497 641.247 303.594C641.487 303.691 641.752 303.711 642.004 303.65C642.247 303.571 642.46 303.421 642.614 303.219C642.769 303.017 642.858 302.774 642.87 302.52V302.22C642.87 302.22 642.87 302.14 642.87 302.1C642.87 302.06 642.87 301.99 642.87 301.93L643.051 302C643.007 302.112 642.983 302.23 642.981 302.35C642.981 302.515 643.035 302.675 643.135 302.807C643.235 302.939 643.375 303.035 643.534 303.08C643.919 303.168 644.324 303.103 644.662 302.9C645.042 302.767 645.401 302.582 645.729 302.35C646.032 302.146 646.288 301.881 646.482 301.573C646.676 301.265 646.804 300.92 646.856 300.56C646.856 300.452 646.821 300.347 646.756 300.26C646.69 300.174 646.599 300.11 646.494 300.08Z" fill="#9C7240"/>
  <path d="M639.548 303.05C639.49 302.9 639.393 302.769 639.266 302.67L639.075 302.54L638.833 302.4L638.732 302.34C638.55 302.241 638.346 302.19 638.138 302.19H637.997H637.736C637.611 302.213 637.495 302.272 637.403 302.36C637.298 302.394 637.203 302.453 637.126 302.531C637.049 302.609 636.992 302.705 636.96 302.81C636.932 302.924 636.932 303.043 636.962 303.157C636.992 303.27 637.05 303.375 637.132 303.46C637.197 303.617 637.3 303.754 637.434 303.86L637.635 303.99C637.816 304.094 638.02 304.153 638.229 304.16H638.632C638.745 304.17 638.86 304.17 638.974 304.16C639.115 304.124 639.243 304.052 639.346 303.95C639.437 303.922 639.518 303.872 639.582 303.803C639.646 303.734 639.69 303.65 639.711 303.558C639.731 303.467 639.727 303.371 639.698 303.282C639.67 303.193 639.618 303.113 639.548 303.05Z" fill="#9C7240"/>
  <path d="M835.094 264.43C834.003 264.35 832.917 264.21 831.842 264.01L830.292 263.72C830.098 263.68 829.906 263.63 829.718 263.57C829.615 263.403 829.464 263.27 829.285 263.187C829.107 263.104 828.907 263.075 828.712 263.104C828.517 263.132 828.334 263.218 828.187 263.349C828.04 263.479 827.935 263.65 827.886 263.84C827.821 264.064 827.737 264.281 827.634 264.49C827.347 264.195 827.044 263.914 826.728 263.65C826.352 263.313 825.948 263.009 825.52 262.74C825.057 262.493 824.552 262.334 824.03 262.27C823.877 262.233 823.716 262.245 823.571 262.307C823.427 262.368 823.306 262.475 823.227 262.61C823.149 262.746 823.117 262.903 823.136 263.058C823.156 263.213 823.226 263.358 823.335 263.47C823.595 263.83 823.889 264.164 824.211 264.47C824.553 264.75 824.916 265 825.218 265.29C825.872 265.887 826.488 266.525 827.06 267.2C827.195 267.33 827.362 267.423 827.544 267.47C827.726 267.517 827.917 267.517 828.099 267.47C828.281 267.423 828.447 267.33 828.583 267.2C828.718 267.071 828.818 266.909 828.872 266.73C828.973 266.46 829.063 266.17 829.164 265.87C829.367 265.928 829.577 265.962 829.788 265.97C829.647 266.071 829.518 266.188 829.406 266.32C829.327 266.404 829.272 266.506 829.244 266.617C829.215 266.728 829.216 266.844 829.245 266.955C829.274 267.065 829.331 267.167 829.41 267.25C829.489 267.333 829.588 267.395 829.698 267.43C830.696 267.666 831.741 267.624 832.718 267.31C833.708 267.058 834.662 266.681 835.557 266.19C835.748 266.094 835.901 265.936 835.989 265.742C836.078 265.548 836.096 265.33 836.042 265.124C835.988 264.918 835.864 264.737 835.692 264.61C835.519 264.484 835.308 264.42 835.094 264.43Z" fill="#9C7240"/>
  <path d="M385.968 270.14C385.787 270.07 386.25 270.38 386.3 270.42C386.452 270.529 386.61 270.63 386.774 270.72C387.075 270.879 387.384 271.023 387.7 271.15C388.173 271.394 388.713 271.482 389.24 271.4L390.076 271.31C390.195 271.301 390.311 271.265 390.414 271.204C390.517 271.144 390.605 271.06 390.67 270.96L391.676 271.88C391.813 272.009 391.977 272.106 392.156 272.165C392.336 272.223 392.526 272.241 392.713 272.217C392.9 272.193 393.079 272.128 393.238 272.026C393.396 271.925 393.53 271.789 393.629 271.63C393.968 271.122 394.367 270.655 394.817 270.24C395.089 270.013 395.333 269.755 395.542 269.47C395.703 269.23 395.814 268.97 395.985 268.72C396.156 268.47 395.904 268.13 395.623 268.1C395.233 268.035 394.835 268.035 394.445 268.1C394.051 268.21 393.677 268.382 393.337 268.61C393.056 268.798 392.79 269.009 392.542 269.24L391.334 267.99C391.171 267.833 390.971 267.72 390.751 267.661C390.532 267.602 390.301 267.599 390.081 267.653C389.861 267.707 389.658 267.816 389.491 267.969C389.325 268.123 389.2 268.316 389.129 268.53H389.049H388.948H389.039L388.888 268.44C387.881 267.9 386.784 267.44 385.646 268.02C385.441 268.138 385.277 268.315 385.174 268.527C385.072 268.739 385.036 268.977 385.072 269.21C385.118 269.433 385.227 269.639 385.385 269.803C385.544 269.968 385.746 270.084 385.968 270.14Z" fill="#9C7240"/>
  <path d="M1024.87 237.44L1123.53 238.11L1141.88 238.23L1256.96 239.01L1471.04 240.45C1468.1 238.45 1462.39 228.77 1460.59 225.93C1457.93 222.55 1452.39 215.45 1449.81 212.07C1446.42 211.62 1438.96 209.29 1435.59 208.39C1436 206.39 1433.58 200.28 1432.89 198.3H1433.3L1432.71 197.18C1429.58 195.76 1423.09 192.94 1419.89 191.7L1416.72 191.05L1413.39 189.22L1413.17 185L1411.92 182.89L1403.7 178.99C1399.47 155.61 1395.74 122.56 1389.66 99.4801L1385.07 92.8701L1383.34 87.4401C1381.94 68.4401 1381.05 44.7501 1377.3 25.8801L1372.27 24.2001C1372.03 22.5767 1371.89 20.9403 1371.85 19.3001L1370.18 14.1701C1365.64 13.8302 1361.15 13.0225 1356.78 11.7601C1354.87 11.2176 1352.99 10.5494 1351.17 9.76013C1351.17 10.9901 1351.24 13.6201 1351.28 14.8401L1350.35 17.4501C1345.85 16.9601 1339.53 17.3401 1335.25 16.3601L1334.24 14.3601L1333.81 13.5101L1333.53 10.3701L1329.22 6.50012C1327.81 6.44012 1326.2 6.34012 1324.34 6.25012C1318.66 5.93012 1311.25 5.47013 1303.72 4.98013C1297.88 4.60013 1292.01 4.20013 1286.9 3.84013L1279.85 3.36012L1277.76 3.21013L1276.75 3.14014C1276.6 4.61014 1276.14 8.03014 1274.96 9.14014C1272.63 9.3249 1270.31 9.64208 1268.02 10.0901L1266.09 14.5601C1265.79 14.6701 1265.43 14.8201 1265.08 14.9701C1262.27 16.0701 1257.73 17.7801 1255.4 18.5301C1252.13 27.0901 1249.11 46.0801 1247.06 55.1401C1245.49 65.7901 1243.72 89.9001 1241.02 100.07L1240.94 100.13H1236.03L1232.53 102.53C1230.96 111.96 1226.95 123.98 1224.48 133.21C1222.15 132.92 1215.42 130.89 1213.03 130.21C1210.16 139.44 1208.31 153.42 1204.91 162.5L1199.22 163.32L1196.55 165.68C1196.49 168.68 1196.17 175.88 1195.12 178.68C1192.03 180.226 1189.03 181.938 1186.12 183.81L1185.76 183.92L1183.58 184.59L1182.17 185.92L1182.36 192.92C1182.03 194.2 1181.14 197.69 1180.7 198.92C1178.8 200.07 1171.56 198.78 1169.37 198.54L1167.29 198.34C1163.93 197.99 1158.69 197.43 1156.65 197.11C1157.42 193.8 1157.46 188.5 1157.47 185.11C1157.34 181.21 1155 168.93 1156.31 165.32L1152.93 164.53L1152.8 164.03L1152.11 161.65C1152.49 157.35 1156.68 144.9 1156.13 140.76C1156.39 139.16 1156.75 136.32 1155.75 134.81C1157.04 129.958 1158.05 125.037 1158.77 120.07C1160.28 115.94 1164.41 102.15 1165.73 97.7501C1166.5 94.5401 1165.98 83.3801 1167.37 80.4801L1162.76 77.7501L1161.12 75.5001C1163.35 65.5001 1165.14 47.5001 1167.89 37.6901C1167.12 37.4815 1166.39 37.1433 1165.73 36.6901C1165.05 36.2901 1164.46 35.9001 1164.3 35.8201L1158.26 35.0701L1153.84 34.5401C1152.16 36.0301 1151.34 47.5401 1151 49.6501C1148.49 62.5001 1144.34 99.5201 1140.1 111.41L1134.92 111.97C1132.4 117.97 1131.72 129.21 1128.66 135.1L1120.74 139.68C1119.87 152.96 1113.45 168.33 1111.45 181.53L1098.61 186.57C1096.44 190.52 1092.47 199.01 1090.71 203.16L1084.44 205.16C1082.73 207.557 1081.23 210.093 1079.95 212.74C1073.55 213.39 1062.83 213.18 1056.79 214.88C1056.27 216.88 1054.2 219.31 1053.3 221.22L1052.94 220.85C1049.46 221.3 1044.79 223.6 1040.39 226.13C1036.48 228.4 1032.76 230.84 1030.27 232.3L1024.87 237.44Z" fill="url(#paint1_linear_100_2)"/>
  <path d="M1223.6 205.13L1247.41 178.53L1247.98 164.09L1259.26 119.93L1266.31 111.81L1279.87 3.32016L1277.78 3.17017L1264.96 91.6201L1261.14 110.3L1260.13 111.2H1253.68L1244.14 159.29L1244.66 163.39L1240.91 177.39L1231.18 177.91L1223.6 205.13ZM1196.35 235.01L1223.16 233.61L1243.74 233.96L1248.01 228.68L1275.19 222.59L1279.55 214.5L1295.89 208.5L1298.18 188.91L1305.89 176.57L1314.86 169.24L1323.68 112.33L1333 78.1402L1334.26 14.3502L1333.84 13.5002L1333.55 10.3602L1329.24 6.49016C1327.83 6.43016 1326.22 6.33016 1324.36 6.24016L1322.72 27.5202L1321.34 68.1802L1316.69 71.4202L1313.79 33.4202L1310.45 27.8302L1308.14 88.5002L1310.43 91.5002L1300.19 162.04L1292.13 162.52L1286.28 191.72L1280.85 203.72L1244.79 219.38L1243.25 225.49L1243.04 224.99L1209.82 231.05L1196.35 235.01ZM1256.92 238.94L1471 240.38C1468.06 238.38 1462.35 228.7 1460.56 225.86C1457.89 222.47 1452.35 215.37 1449.77 212C1446.38 211.55 1438.93 209.22 1435.55 208.32C1435.96 206.32 1433.54 200.21 1432.85 198.23H1433.27L1432.68 197.11C1429.54 195.69 1423.05 192.87 1419.85 191.63L1416.68 190.98L1413.36 189.15L1413.14 184.93L1411.88 182.82L1403.66 178.92C1399.43 155.54 1395.7 122.49 1389.62 99.4102L1385.04 92.8002L1383.3 87.3701C1381.9 68.3701 1381.01 44.6802 1377.26 25.8102L1372.23 24.1302C1371.99 22.5062 1371.86 20.8701 1371.81 19.2302L1370.14 14.0902C1365.6 13.7529 1361.11 12.9486 1356.74 11.6902L1354.73 79.3302L1342.41 95.8401L1341.82 125.51L1338.06 128.34L1334.4 130.04L1325.44 176.49L1324.36 199.71L1319.1 202.46L1313.44 220.71L1274.33 228.99L1275.78 231.12L1281.23 232.47L1280.3 235.87L1256.92 238.94Z" fill="#E2834B"/>
  <path d="M1123.62 215.57L1129.54 217.88V229.04L1123.61 238.16L1141.96 238.28L1153.65 207.38L1164.08 205.93L1167.31 198.37C1163.95 198.02 1158.71 197.46 1156.67 197.14C1157.44 193.83 1157.48 188.53 1157.49 185.14C1157.36 181.24 1155.02 168.96 1156.33 165.35L1152.95 164.56L1152.82 164.06L1152.13 161.68C1152.51 157.38 1156.7 144.93 1156.15 140.79C1156.41 139.19 1156.77 136.35 1155.77 134.84C1157.06 129.988 1158.07 125.067 1158.79 120.1C1160.3 115.97 1164.43 102.18 1165.75 97.78C1166.52 94.57 1166 83.41 1167.39 80.51L1162.78 77.78L1161.14 75.53C1163.37 65.53 1165.16 47.53 1167.91 37.72C1167.14 37.5113 1166.41 37.1731 1165.75 36.72L1153.27 79.21L1154.78 82.99L1155.39 86.4L1146.02 136.51L1141.51 159.33L1140.02 160.71L1133.54 163.55L1129.64 165.85L1139.98 168.61L1138.97 171.97L1136.24 191.97L1130 193.04L1128.28 201.17L1107.77 207.17L1123.52 212.44L1123.62 215.57Z" fill="#E2834B"/>
  <g style="mix-blend-mode:screen">
    <path d="M1040.36 226.13L1074.35 227.57L1076.47 224.39L1103.33 223.44L1104.34 214.06L1101.02 208.35L1102.84 199.51L1112.82 197.43L1110.99 197.05L1121.72 186.57L1124.46 180.07L1127.34 180.34L1128.26 179.19L1126.81 172.99L1123.79 166.99L1127.36 150.09L1136.71 146.92L1139.03 143.84L1146.38 110.32L1147.48 99.3201L1148.85 88.5701L1157.98 35.3001H1158.35L1158.27 34.9901L1153.85 34.4601C1152.17 35.9501 1151.35 47.4601 1151.01 49.5701C1148.5 62.4201 1144.35 99.4402 1140.11 111.33L1134.93 111.89C1132.41 117.89 1131.73 129.13 1128.67 135.02L1120.75 139.6C1119.88 152.88 1113.46 168.25 1111.46 181.45L1098.61 186.57C1096.44 190.52 1092.47 199.01 1090.71 203.16L1084.44 205.16C1082.73 207.558 1081.23 210.093 1079.95 212.74C1073.55 213.39 1062.83 213.18 1056.79 214.88C1056.27 216.88 1054.21 219.31 1053.3 221.22L1052.94 220.85C1049.43 221.3 1044.76 223.57 1040.36 226.13ZM1171.52 206.32L1172.4 216.05L1191.53 215.56L1193.47 206.75L1214.62 207.11L1218.11 189.06L1215.17 184.63L1217.73 167.76L1225.55 165.82L1240.08 112.51L1248.13 101.91L1251.5 102.74L1251.75 101.2L1259.81 55.3201L1265.1 15.0201C1262.29 16.1201 1257.75 17.8301 1255.42 18.5801C1252.15 27.1401 1249.13 46.1301 1247.08 55.1901C1245.51 65.8401 1243.74 89.9501 1241.04 100.12L1240.96 100.18H1236.05L1232.56 102.58C1230.98 112.01 1226.97 124.03 1224.5 133.26C1222.17 132.97 1215.44 130.94 1213.06 130.26C1210.18 139.49 1208.33 153.47 1204.93 162.55L1199.24 163.37L1196.58 165.73C1196.52 168.73 1196.19 175.93 1195.15 178.73C1192.05 180.276 1189.05 181.988 1186.15 183.86L1185.78 183.97L1184.7 191.97L1187.81 192.77L1188.96 193.87L1186 206.39L1171.52 206.32ZM1229.32 216.21L1233.95 216.37L1251.15 199.37L1254.17 193.53L1259.27 189.94L1264.69 165.6L1274.76 163.39L1285.93 125.61L1291.74 69.0901L1299.57 68.1801L1303.7 5.04015C1297.86 4.66015 1291.99 4.26015 1286.88 3.90015L1275.25 71.5001L1267.64 117.92L1258.42 124.48L1254.02 151.48L1250.64 184.32L1231.79 200.9L1229.32 216.21ZM1231.61 201.1L1231.83 200.92V200.64L1231.61 201.1Z" fill="url(#paint2_linear_100_2)"/>
  </g>
  <path d="M1387.13 256.38L1393.09 256.54L1414.59 257.67L1459.95 260.08L1552.64 259.93L1552.69 217.96L1555.01 186.32L1540.24 152.57L1540.8 0.800049L1522 11.0101L1511.53 16.69L1496.39 24.9201L1475.75 40.3L1464.28 157.13L1441.12 178.04L1414.32 194.9L1414.24 195.11L1410.2 204.32L1406.74 212.25L1396.2 235.98L1387.13 256.38Z" fill="url(#paint3_linear_100_2)"/>
  <path d="M1427.1 254.45L1414.59 257.67L1459.95 260.08L1552.64 259.93L1552.69 217.96L1555.02 186.32L1540.24 152.57L1540.8 0.800049L1522.01 11.0101L1510.52 107.37L1508.49 146.15L1506.26 157.96L1491.9 159.8L1491.15 132.14L1481.91 176.94L1483.45 178.69L1487.87 185.31L1487.86 196.78L1427.53 199.69L1469.62 206.72L1466.55 222.83L1466.34 222.73L1464.73 229.25L1459.06 229.13L1460.02 234.6L1460.23 243.35L1436.19 243.77L1402.7 247.49L1429.96 252.45L1427.1 254.45Z" fill="#DD5E37"/>
  <path style="mix-blend-mode:screen" d="M1477.2 185.59L1460.69 183.09L1461.13 179.15L1471.47 175.94L1483.49 123.07L1489.03 122.8L1498.64 114.37L1511.54 16.6899L1496.39 24.92L1475.75 40.2999L1464.28 157.13L1441.13 178.04L1414.32 194.9L1414.24 195.11L1479.15 188.56L1477.2 185.59Z" fill="url(#paint4_linear_100_2)"/>
  <path style="mix-blend-mode:screen" d="M1396.2 235.98L1437.64 233.12L1440.28 230.23L1442.45 226.14L1442.12 214.97L1421.61 213.73L1421.79 204.22L1410.2 204.32L1406.74 212.25L1396.2 235.98Z" fill="url(#paint5_linear_100_2)"/>
  <path d="M681.68 226.05L637.797 224.4L630.569 214.87L610.606 213.93L601.595 213.77L583.605 168.4L573.045 168.03L567.307 167.83L560.733 167.6L561.548 180.31L559.988 181.84L550.052 192.1L546.599 192.36L530.28 193.58L530.058 193.6L515.219 159.35L503.38 159.18L503.723 158.78L492.286 124.89L478.434 86.5302L465.206 85.9602L460.857 57.2902L462.034 55.2302L449.491 54.2002L436.766 54.9402L432.91 55.1602V237.38L455.41 236.56L466.534 236.18L471.467 237.72L494.491 242.38L521.713 240.52L532.515 241.83H535.132L548.26 241.82L574.736 241.81L590.119 241.97L604.897 242.13L606.075 238.8L613.867 238.54L667.153 236.74L692.301 237.72L681.68 226.05Z" fill="url(#paint6_linear_100_2)"/>
  <path d="M442.041 109.88L432.91 108.41V113.8L441.638 114.04L442.041 109.88Z" fill="#E2834B"/>
  <path d="M533.068 235.51L511.796 234.99L497.159 230.44L496.333 224.06L512.753 221.3L514.051 217.07L482.129 215.28L464.662 174.57L469.706 174.52L466.162 160.01L465.709 160.07L460.091 159.84L456.125 150.84L470.833 148.28L470.612 144.68L441.739 145.96L433.474 121.44L438.105 121.57L439.524 117.36L432.91 117.83V237.38L455.41 236.56L466.534 236.18L471.467 237.72L494.491 242.38L521.713 240.52L532.515 241.83H535.132L533.068 235.51Z" fill="#E2834B"/>
  <path d="M494.501 240.37L479.249 233.8L469.685 209.53L457.102 201.69L439.544 151.09L432.91 148.97V251.35L462.075 251.44L468.316 251.46L489.135 245.72L496.615 245.73L504.689 244.76L494.501 240.37Z" fill="url(#paint7_linear_100_2)"/>
  <path style="mix-blend-mode:screen" d="M479.249 233.8L469.685 209.53L457.102 201.69L439.544 151.09L432.91 148.97V209.56L445.836 211.38L446.219 211.07L456.709 213.11L458.501 219.7L434.44 225.79L436.534 231.23L469.071 229.57L475.977 240.5L494.501 240.37L479.249 233.8Z" fill="url(#paint8_linear_100_2)"/>
  <path d="M432.91 218.21V219.36L445.071 217.74L447.206 216.82L432.91 218.21Z" fill="#DD5E37"/>
  <path d="M546.166 198.03L561.277 201.11L565.394 220.36L567.015 224.74L576.498 225.68L580.414 225.9L586.213 231.27L601.737 231.25L606.78 238.25L606.68 234.98L600.609 225.2L585.448 222.7L582.569 214.45L579.267 213.83L576.116 199.8L578.371 198.03L580.112 197.36L577.646 195.62L572.029 194.87L567.307 167.83L560.733 167.6L561.549 180.31L559.988 181.84L550.052 192.1L546.599 192.36L546.166 198.03Z" fill="#E2834B"/>
  <g style="mix-blend-mode:screen">
    <path d="M439.927 78.4902L439.272 80.9902L439.323 84.1002L444.004 84.4602L456.225 84.4802L456.236 88.5202L446.742 89.5302L449.178 111.31L455.521 113.54L457.675 121.83L449.863 124.92L453.719 137.99L476.068 137.17L486.316 173.87L483.528 175.26L486.145 182.25L499.786 213.11L517.645 211.49L524.229 222.91L537.105 227.71L544.686 238.16L548.259 241.82L574.736 241.81L590.119 241.97L593.149 241.73L591.87 236.52L580.192 234.41L580.555 230.81L556.756 226.07L554.098 210.23L552.608 209.23L533.652 203.52L530.279 193.58L530.058 193.6L515.219 159.35L503.38 159.18L503.722 158.78L492.286 124.89L478.434 86.5302L465.205 85.9602L460.856 57.2902L462.034 55.2302L449.49 54.2002L436.766 54.9402L439.927 78.4902Z" fill="url(#paint9_linear_100_2)"/>
  </g>
  <g style="mix-blend-mode:screen">
    <path d="M573.043 168.03L573.093 168.64L578.006 192.1L583.311 192.87L584.993 200.17L580.392 199.98L586.463 215.62L591.556 219.35L609.144 221.08L613.865 238.54L667.151 236.74L692.299 237.72L681.678 226.05L637.795 224.4L630.567 214.87L610.604 213.93L601.593 213.77L583.603 168.4L573.043 168.03Z" fill="url(#paint10_linear_100_2)"/>
  </g>
  <path d="M185.408 226.05L229.291 224.4L236.519 214.87L256.482 213.93L265.492 213.77L283.482 168.4L294.043 168.03L299.781 167.83L306.355 167.6L305.529 180.31L307.1 181.84L317.036 192.1L320.489 192.36L336.808 193.58L337.029 193.6L351.868 159.35L363.707 159.18L363.365 158.78L374.801 124.89L388.654 86.5302L401.882 85.9602L406.231 57.2902L405.053 55.2302L417.597 54.2002L430.322 54.9402L434.177 55.1602V237.38L411.677 236.56L400.553 236.18L395.62 237.72L372.597 242.38L345.365 240.52L334.573 241.83H331.956L318.828 241.82L292.351 241.81L276.969 241.97L262.19 242.13L261.012 238.8L253.22 238.54L199.925 236.74L174.787 237.72L185.408 226.05Z" fill="url(#paint11_linear_100_2)"/>
  <path d="M425.037 109.88L434.178 108.41V113.8L425.45 114.04L425.037 109.88Z" fill="#E2834B"/>
  <path d="M334.021 235.51L355.293 234.99L369.93 230.44L370.756 224.06L354.336 221.3L353.038 217.07L384.961 215.28L402.427 174.57L397.373 174.52L400.927 160.01L401.38 160.07L406.998 159.84L410.964 150.84L396.256 148.28L396.477 144.68L425.35 145.96L433.605 121.44L428.984 121.57L427.565 117.36L434.179 117.83V237.38L411.679 236.56L400.555 236.18L395.622 237.72L372.598 242.38L345.366 240.52L334.574 241.83H331.957L334.021 235.51Z" fill="#E2834B"/>
  <path d="M372.586 240.37L387.838 233.8L397.402 209.53L409.986 201.69L427.543 151.09L434.177 148.97V251.35L405.013 251.44L398.771 251.46L377.952 245.72L370.472 245.73L362.398 244.76L372.586 240.37Z" fill="url(#paint12_linear_100_2)"/>
  <path style="mix-blend-mode:screen" d="M387.84 233.8L397.403 209.53L409.987 201.69L427.545 151.09L434.179 148.97V209.56L421.253 211.38L420.87 211.07L410.38 213.11L408.578 219.7L432.649 225.79L430.555 231.23L398.007 229.57L391.111 240.5L372.588 240.37L387.84 233.8Z" fill="url(#paint13_linear_100_2)"/>
  <path d="M434.18 218.21V219.36L422.019 217.74L419.885 216.82L434.18 218.21Z" fill="#DD5E37"/>
  <path d="M320.923 198.03L305.812 201.11L301.695 220.36L300.074 224.74L290.591 225.68L286.674 225.9L280.876 231.27L265.352 231.25L260.309 238.25L260.409 234.98L266.48 225.2L281.641 222.7L284.52 214.45L287.822 213.83L290.973 199.8L288.718 198.03L286.976 197.36L289.443 195.62L295.06 194.87L299.782 167.83L306.356 167.6L305.53 180.31L307.101 181.84L317.037 192.1L320.49 192.36L320.923 198.03Z" fill="#E2834B"/>
  <g style="mix-blend-mode:screen">
    <path d="M427.162 78.4902L427.816 80.9902L427.756 84.1002L423.085 84.4602L410.863 84.4802L410.853 88.5202L420.346 89.5302L417.91 111.31L411.568 113.54L409.413 121.83L417.226 124.92L413.37 137.99L391.011 137.17L380.772 173.87L383.561 175.26L380.933 182.25L367.303 213.11L349.443 211.49L342.86 222.91L329.984 227.71L322.403 238.16L318.829 241.82L292.353 241.81L276.97 241.97L273.93 241.73L275.218 236.52L286.896 234.41L286.534 230.81L310.333 226.07L312.99 210.23L314.48 209.23L333.437 203.52L336.809 193.58L337.031 193.6L351.87 159.35L363.709 159.18L363.366 158.78L374.803 124.89L388.655 86.5302L401.883 85.9602L406.232 57.2902L405.054 55.2302L417.598 54.2002L430.323 54.9402L427.162 78.4902Z" fill="url(#paint14_linear_100_2)"/>
  </g>
  <path d="M1550.75 134.71L1524.52 142.36L1523.24 173.92L1508.74 196.78L1488.6 243.27L1473.11 254.52L1465.73 259.88L1550.75 260.57V134.71Z" fill="url(#paint15_linear_100_2)"/>
  <path style="mix-blend-mode:screen" d="M1548.71 231.56L1548.01 224.79L1550.75 224.3V187.19L1539.73 182.61L1550.75 180.91V134.71L1524.52 142.36L1523.24 173.92L1508.74 196.78L1488.6 243.27L1473.11 254.52L1523.93 252.42L1525.16 247.7L1513.21 244.03L1513.59 236.29L1548.71 231.56Z" fill="url(#paint16_linear_100_2)"/>
  <path d="M1550.75 190.02L1533.09 189.43L1527.91 190.72L1528.27 195.29L1550.75 196.61V190.02Z" fill="#DD5E37"/>
  <path d="M1505.26 241.25L1501.84 241.64L1500.43 244.45L1542.4 248.83L1545.44 240.18L1532.73 238.76L1536.13 245.28L1529.64 244.54L1505.26 241.25Z" fill="#DD5E37"/>
  <path d="M1551.11 134.71L1577.33 142.36L1578.61 173.92L1593.12 196.78L1613.24 243.27L1628.74 254.52L1636.13 259.88L1551.11 260.57V134.71Z" fill="url(#paint17_linear_100_2)"/>
  <path style="mix-blend-mode:screen" d="M1553.14 231.56L1553.85 224.79L1551.11 224.3V187.19L1562.12 182.61L1551.11 180.91V134.71L1577.33 142.36L1578.61 173.92L1593.12 196.78L1613.24 243.27L1628.74 254.52L1577.92 252.42L1576.7 247.7L1588.65 244.03L1588.27 236.29L1553.14 231.56Z" fill="url(#paint18_linear_100_2)"/>
  <path d="M1551.11 190.02L1568.77 189.43L1573.93 190.72L1573.58 195.29L1551.11 196.61V190.02Z" fill="#DD5E37"/>
  <path d="M1644.15 320.02L1642.7 321.02L1639.68 323.08C1640.99 325.267 1642.46 327.347 1644.1 329.3L1644.15 320.02Z" fill="#E0623F"/>
  <path d="M1644.15 312.02C1641.17 300.967 1638.2 289.907 1635.24 278.84C1634.93 278.66 1634.61 278.5 1634.31 278.32C1635.31 289.58 1636.16 300.91 1637.17 312.16C1631.49 312.74 1625.21 313.68 1619.53 314.27C1618.33 311.61 1616.33 307.87 1617.19 304.76C1620.23 293.847 1623.28 282.937 1626.33 272.03C1624.48 266.18 1623.84 261.16 1621.67 255.1L1619.74 254.73C1616.82 269.397 1613.54 284.09 1609.89 298.81C1604.44 303.26 1598.43 306.984 1592.01 309.89C1586.98 312.04 1582.16 312.58 1577.09 313.43C1585.25 314.43 1593.47 315.28 1602 315.72C1603.01 318.33 1603.57 320.31 1604.54 322.93C1617.13 322.4 1631.41 322.93 1644.15 322.53V312.02Z" fill="#C32E2D"/>
  <path d="M1617.19 308.17C1617.74 310.282 1618.52 312.327 1619.51 314.27C1625.2 313.68 1631.47 312.74 1637.16 312.16C1636.58 305.71 1636.05 299.24 1635.52 292.76L1635.42 291.39C1635.05 287.03 1634.69 282.67 1634.29 278.32C1633.5 277.88 1632.72 277.43 1631.97 276.98C1630.35 275.98 1628.79 275.06 1627 274.1C1626.75 273.4 1626.52 272.71 1626.32 272.03C1623.56 281.963 1620.78 291.9 1617.99 301.84L1617.18 304.76V304.84C1616.92 305.935 1616.92 307.077 1617.19 308.17Z" fill="#E0623F"/>
  <path d="M1548.43 309.02C1558.04 310.65 1567.49 312.19 1577.08 313.43C1582.12 312.58 1587 312.04 1592 309.89C1598.44 306.988 1604.46 303.263 1609.92 298.81C1611.7 291.597 1613.41 284.373 1615.05 277.14C1615.2 276.41 1615.37 275.67 1615.52 274.94C1616.33 271.26 1617.12 267.573 1617.9 263.88C1618.04 263.22 1618.19 262.55 1618.33 261.88C1618.82 259.5 1619.33 257.11 1619.77 254.73L1615.1 253.84C1606.25 252.12 1598.19 250.52 1588.52 249.54C1586.61 252.46 1585.22 255.16 1583.29 258.1C1580.02 258.6 1576.82 259.01 1573.55 259.5C1569.32 266.55 1565.33 273.75 1561.6 281.01C1561.12 282.01 1560.59 282.95 1560.13 283.91C1557.94 288.283 1555.83 292.66 1553.81 297.04C1552.87 299.04 1551.97 301.04 1551.08 303.04C1550.78 303.7 1550.49 304.37 1550.21 305.04C1549.58 306.38 1549 307.7 1548.43 309.02Z" fill="#E0623F"/>
  <path d="M1550.17 305.05L1555.66 304.43L1564.72 304.56L1581.61 298.39L1599.63 288.23L1608.97 282.18L1615.01 277.18C1615.16 276.45 1615.33 275.71 1615.48 274.98L1603.64 282.57L1588.35 293.01L1563.41 302.22L1551.04 303.06C1550.74 303.73 1550.45 304.4 1550.17 305.05Z" fill="#DA543F"/>
  <path d="M1560.09 283.91L1574.79 281.75L1588.24 276.06L1617.86 263.88C1618 263.22 1618.15 262.55 1618.29 261.88L1586.41 274.28L1562.19 280.77L1561.56 281.01C1561.08 281.98 1560.59 282.95 1560.09 283.91Z" fill="#DA543F"/>
  <path d="M1617.18 304.76V304.84L1623.99 298.69L1635.54 292.76L1635.44 291.39L1621 298.76L1617.98 301.84L1617.18 304.76Z" fill="#DA543F"/>
  <path d="M1644.15 328.48C1643.02 327.009 1641.99 325.469 1641.05 323.87L1644.02 321.82L1644.15 321.73V320.02L1642.7 321.02L1639.68 323.08C1640.99 325.267 1642.46 327.347 1644.1 329.3L1644.15 328.48Z" fill="#FFF6CF"/>
  <path d="M1616.37 254.64C1607.53 252.92 1599.47 251.32 1589.79 250.34C1587.87 253.26 1586.49 255.96 1584.57 258.9C1581.3 259.4 1578.1 259.81 1574.83 260.3C1570.6 267.3 1566.61 274.55 1562.88 281.81C1562.38 282.81 1561.87 283.75 1561.41 284.71C1559.2 289.083 1557.09 293.46 1555.09 297.84C1554.15 299.84 1553.23 301.84 1552.36 303.84C1552.06 304.5 1551.75 305.17 1551.49 305.84C1550.98 306.99 1550.49 308.13 1549.98 309.27L1548.43 309.01C1549 307.69 1549.58 306.37 1550.17 305.01C1550.45 304.36 1550.74 303.69 1551.04 303.01C1551.92 301.01 1552.83 299.01 1553.77 297.01C1555.78 292.617 1557.89 288.24 1560.09 283.88C1560.56 282.88 1561.1 281.95 1561.56 280.98C1565.29 273.72 1569.28 266.52 1573.51 259.47C1576.78 258.98 1579.98 258.57 1583.25 258.07C1585.18 255.13 1586.57 252.43 1588.48 249.51C1598.15 250.51 1606.21 252.09 1615.06 253.81L1619.73 254.7C1619.73 254.88 1619.66 255.05 1619.63 255.23L1616.37 254.64Z" fill="#FFF6CF"/>
  <path d="M1144.99 249.57C1145.18 250.06 1145.41 250.535 1145.67 250.99C1145.82 251.232 1145.97 251.466 1146.14 251.69C1147.75 253.831 1150.01 255.399 1152.59 256.16C1153.99 256.689 1155.51 256.8 1156.97 256.48C1159.37 255.8 1160.31 253.4 1160.29 250.65C1160.24 248.523 1159.74 246.431 1158.82 244.51C1158.5 243.804 1158.11 243.134 1157.64 242.51C1157.06 241.744 1156.36 241.07 1155.57 240.51C1154.05 239.359 1152.14 238.836 1150.24 239.05C1148.92 239.292 1147.7 239.896 1146.71 240.795C1145.72 241.693 1145.01 242.848 1144.65 244.13C1144.16 245.932 1144.28 247.843 1144.99 249.57Z" fill="url(#paint19_linear_100_2)"/>
  <path style="mix-blend-mode:screen" d="M1144.99 249.57C1145.41 247.922 1146.32 246.439 1147.61 245.316C1148.89 244.193 1150.49 243.483 1152.19 243.28C1153.27 243.17 1154.52 243.22 1155.21 242.4C1155.41 242.138 1155.55 241.829 1155.61 241.501C1155.67 241.172 1155.64 240.835 1155.53 240.52C1154.01 239.369 1152.1 238.846 1150.19 239.06C1148.88 239.302 1147.66 239.906 1146.67 240.805C1145.68 241.703 1144.97 242.859 1144.61 244.14C1144.13 245.943 1144.27 247.851 1144.99 249.57Z" fill="url(#paint20_linear_100_2)"/>
  <path d="M1146.83 251.15C1146.83 251.123 1146.83 251.097 1146.83 251.07C1146.76 250.992 1146.7 250.905 1146.65 250.81C1146.6 250.718 1146.58 250.617 1146.57 250.514C1146.57 250.411 1146.59 250.308 1146.63 250.213C1146.67 250.117 1146.73 250.032 1146.81 249.962C1146.88 249.893 1146.98 249.841 1147.07 249.81C1147.2 249.8 1147.33 249.8 1147.46 249.81C1147.66 249.736 1147.88 249.736 1148.08 249.81L1148.86 250.07C1149.11 250.15 1149.35 250.25 1149.6 250.32L1149.97 250.39C1150.08 250.431 1150.19 250.461 1150.3 250.48H1150.36C1150.45 250.47 1150.54 250.47 1150.63 250.48C1150.69 250.493 1150.75 250.517 1150.8 250.55C1150.73 250.55 1150.74 250.55 1150.8 250.55L1151.02 250.64C1151.1 250.689 1151.16 250.762 1151.2 250.848C1151.23 250.935 1151.24 251.03 1151.21 251.12C1151.99 250.962 1152.75 250.717 1153.48 250.39C1154.63 249.845 1155.66 249.065 1156.5 248.1C1156.89 247.638 1157.22 247.135 1157.5 246.6C1157.79 246.09 1157.89 245.33 1158.21 244.88C1158.53 244.43 1158.64 244.48 1158.84 244.52C1159.76 246.441 1160.26 248.533 1160.31 250.66C1159.69 252.839 1158.55 254.837 1156.99 256.49C1155.53 256.81 1154.01 256.699 1152.61 256.17C1150.03 255.409 1147.77 253.841 1146.16 251.7C1145.99 251.476 1145.84 251.242 1145.7 251C1146.06 251.03 1146.44 251.09 1146.83 251.15Z" fill="#507B3C"/>
  <path d="M1151.33 261.63C1151.39 262.884 1151.77 264.102 1152.45 265.163C1153.12 266.224 1154.06 267.092 1155.18 267.68C1158.3 268.91 1161.66 269.423 1165.01 269.18C1166.9 269.105 1168.79 268.827 1170.62 268.35C1173.14 265.21 1175.41 261.71 1176.19 257.76C1176.7 255.249 1176.44 252.646 1175.45 250.28C1175.13 249.506 1174.71 248.779 1174.19 248.12C1173.8 247.61 1173.35 247.147 1172.86 246.74C1171.63 245.713 1170.15 245.024 1168.57 244.74C1168.04 244.632 1167.5 244.568 1166.96 244.55C1165.01 244.472 1163.07 244.863 1161.31 245.69C1156.96 248.185 1153.67 252.155 1152.03 256.87C1151.47 258.392 1151.23 260.013 1151.33 261.63Z" fill="url(#paint21_linear_100_2)"/>
  <path style="mix-blend-mode:screen" d="M1152.03 256.91C1154.86 253.497 1158.65 250.997 1162.91 249.73C1164.79 249.18 1166.94 248.73 1168.12 247.24C1168.56 246.726 1168.79 246.063 1168.75 245.39C1168.72 245.179 1168.66 244.973 1168.57 244.78C1168.04 244.672 1167.5 244.608 1166.96 244.59C1165.01 244.512 1163.07 244.903 1161.31 245.73C1156.96 248.225 1153.66 252.195 1152.03 256.91Z" fill="url(#paint22_linear_100_2)"/>
  <path d="M1166.97 244.57C1167.04 245.62 1167.25 246.656 1167.6 247.65C1167.76 248.133 1167.99 248.593 1168.27 249.02C1169.27 250.54 1170.92 251.37 1173.6 250.88C1174.25 250.755 1174.87 250.547 1175.46 250.26C1179.29 248.46 1181.94 243.69 1183.31 240.08C1184.16 238.04 1184.51 235.823 1184.31 233.62C1184.16 232.357 1183.74 231.142 1183.07 230.06C1182.65 229.386 1182.13 228.787 1181.51 228.29L1181.15 228.02C1178.37 226.09 1174.33 226.64 1171.68 228.76C1169.11 231.033 1167.53 234.205 1167.27 237.61C1166.94 239.914 1166.84 242.246 1166.97 244.57Z" fill="url(#paint23_linear_100_2)"/>
  <path d="M1163.47 267.15C1163.53 266.968 1163.62 266.796 1163.73 266.64L1163.83 266.52C1163.77 266.58 1163.77 266.58 1163.83 266.52C1163.99 266.28 1164.2 266.067 1164.43 265.89C1165.06 265.369 1165.65 264.808 1166.2 264.21C1166.72 263.666 1167.19 263.077 1167.6 262.45C1168.08 261.7 1168.52 260.91 1168.93 260.11C1169.09 259.8 1169.77 258.11 1170.35 258.45C1170.51 258.59 1170.64 258.766 1170.72 258.965C1170.8 259.163 1170.82 259.378 1170.8 259.59C1171.62 257.097 1172.04 254.492 1172.04 251.87C1170.49 251.333 1169.14 250.342 1168.17 249.03H1168.26C1170.29 249.349 1172.36 249.027 1174.19 248.11C1175.17 247.649 1176.07 247.057 1176.88 246.35C1179.2 244.204 1180.86 241.457 1181.67 238.42C1182.42 235.691 1182.87 232.893 1183.03 230.07C1183.71 231.152 1184.13 232.367 1184.28 233.63C1184.48 235.833 1184.13 238.05 1183.27 240.09C1181.91 243.7 1179.25 248.47 1175.43 250.27C1176.42 252.636 1176.67 255.24 1176.17 257.75C1175.39 261.7 1173.15 265.2 1170.6 268.34C1168.76 268.817 1166.88 269.095 1164.98 269.17C1165.32 268.83 1165.65 268.48 1165.99 268.12C1165.75 268.306 1165.47 268.439 1165.18 268.509C1164.88 268.58 1164.58 268.587 1164.28 268.53C1163.99 268.448 1163.75 268.259 1163.6 268.001C1163.45 267.744 1163.4 267.439 1163.47 267.15Z" fill="#507B3C"/>
  <path d="M1171.87 244.92L1172.05 244.76C1172.1 244.687 1172.16 244.623 1172.23 244.57C1172.35 244.494 1172.47 244.434 1172.6 244.39L1172.85 244.29L1173.03 244.21C1173.17 244.141 1173.32 244.09 1173.47 244.06L1173.76 243.99C1173.86 243.97 1173.97 243.97 1174.07 243.99H1174.18C1174.26 243.971 1174.33 243.974 1174.4 243.997C1174.48 244.021 1174.54 244.065 1174.58 244.123C1174.63 244.182 1174.66 244.253 1174.66 244.327C1174.67 244.401 1174.65 244.475 1174.62 244.54V244.61L1175.01 244.35L1175.16 244.25C1175.25 244.185 1175.33 244.115 1175.41 244.04C1175.58 243.89 1175.76 243.73 1175.92 243.56C1176.08 243.39 1176.27 243.18 1176.43 242.99C1176.59 242.8 1176.59 242.8 1176.66 242.7V242.64C1176.72 242.552 1176.78 242.469 1176.85 242.39V242.34C1176.88 242.294 1176.92 242.251 1176.95 242.21C1177.05 242.072 1177.15 241.945 1177.28 241.83C1177.47 241.64 1177.69 241.5 1177.89 241.33C1178.09 241.16 1178.49 241.25 1178.45 241.56C1178.44 241.859 1178.4 242.156 1178.34 242.45C1178.25 242.768 1178.12 243.076 1177.97 243.37C1177.7 243.961 1177.36 244.519 1176.96 245.03C1176.61 245.512 1176.17 245.931 1175.67 246.27C1175.45 246.419 1175.22 246.55 1174.98 246.66C1174.81 246.745 1174.63 246.796 1174.45 246.81H1174.26C1174.34 246.81 1174.34 246.81 1174.26 246.81C1174.07 246.828 1173.89 246.811 1173.71 246.76C1173.53 246.713 1173.38 246.597 1173.28 246.439C1173.18 246.28 1173.16 246.09 1173.2 245.91C1172.97 246.042 1172.7 246.092 1172.43 246.05H1172.24C1172.11 246.061 1171.98 246.034 1171.87 245.971C1171.75 245.909 1171.66 245.815 1171.6 245.7C1171.56 245.631 1171.54 245.556 1171.54 245.48C1171.53 245.403 1171.54 245.326 1171.57 245.254C1171.59 245.181 1171.63 245.114 1171.69 245.057C1171.74 245 1171.8 244.953 1171.87 244.92Z" fill="#507B3C"/>
  <path d="M1146.13 248.23C1146.12 248.184 1146.12 248.136 1146.13 248.09C1146.14 248.052 1146.16 248.016 1146.18 247.985C1146.2 247.954 1146.23 247.929 1146.27 247.91C1146.34 247.87 1146.42 247.85 1146.5 247.85H1146.7C1146.85 247.817 1147 247.842 1147.13 247.92L1147.24 248C1147.33 248.052 1147.41 248.128 1147.46 248.22L1147.52 248.32C1147.56 248.401 1147.59 248.492 1147.59 248.585C1147.59 248.678 1147.56 248.769 1147.52 248.85C1147.47 248.931 1147.4 248.998 1147.32 249.046C1147.24 249.093 1147.15 249.119 1147.05 249.12H1146.91H1146.75L1146.6 249.06H1146.54C1146.48 249.033 1146.42 248.996 1146.37 248.95C1146.32 248.927 1146.28 248.888 1146.26 248.84C1146.22 248.806 1146.19 248.76 1146.18 248.71C1146.16 248.63 1146.14 248.553 1146.1 248.48C1146.09 248.396 1146.1 248.31 1146.13 248.23Z" fill="#507B3C"/>
  <path d="M1163.33 264C1163.32 263.819 1163.37 263.639 1163.47 263.49C1163.47 263.49 1163.47 263.4 1163.56 263.35C1163.64 263.3 1163.79 263.09 1163.9 262.95C1163.94 262.904 1163.98 262.861 1164.02 262.82C1164.1 262.746 1164.19 262.679 1164.28 262.62C1164.36 262.561 1164.45 262.517 1164.55 262.49H1164.76C1164.81 262.466 1164.87 262.453 1164.92 262.453C1164.98 262.453 1165.04 262.466 1165.09 262.49C1165.14 262.509 1165.19 262.541 1165.23 262.583C1165.26 262.625 1165.29 262.675 1165.31 262.73C1165.31 262.73 1165.31 262.79 1165.31 262.82C1165.34 262.876 1165.37 262.937 1165.39 263C1165.43 263.164 1165.43 263.337 1165.39 263.5C1165.36 263.61 1165.32 263.717 1165.28 263.82C1165.21 263.921 1165.13 264.018 1165.06 264.11C1164.95 264.258 1164.82 264.387 1164.67 264.49L1164.51 264.59C1164.34 264.696 1164.13 264.732 1163.93 264.69C1163.84 264.712 1163.75 264.713 1163.67 264.692C1163.58 264.671 1163.5 264.629 1163.43 264.57C1163.36 264.497 1163.31 264.403 1163.29 264.301C1163.27 264.199 1163.29 264.094 1163.33 264Z" fill="#507B3C"/>
  <path d="M1168.57 255.28C1168.56 255.194 1168.56 255.107 1168.57 255.02L1168.63 254.51C1168.64 254.313 1168.68 254.119 1168.74 253.93C1168.81 253.729 1168.91 253.542 1169.05 253.38C1169.09 253.344 1169.14 253.317 1169.19 253.3C1169.24 253.284 1169.29 253.279 1169.34 253.286C1169.4 253.293 1169.45 253.311 1169.49 253.339C1169.54 253.367 1169.58 253.405 1169.61 253.45C1169.72 253.673 1169.78 253.919 1169.79 254.17C1169.78 254.422 1169.75 254.674 1169.7 254.92C1169.68 255.175 1169.6 255.421 1169.46 255.64C1169.46 255.69 1169.39 255.72 1169.36 255.77C1169.34 255.811 1169.32 255.855 1169.3 255.9C1169.26 256.006 1169.2 256.104 1169.12 256.19C1169.09 256.221 1169.05 256.243 1169 256.254C1168.96 256.266 1168.91 256.266 1168.87 256.255C1168.83 256.244 1168.79 256.222 1168.75 256.192C1168.72 256.161 1168.69 256.123 1168.68 256.08C1168.65 255.914 1168.65 255.746 1168.68 255.58C1168.61 255.494 1168.57 255.389 1168.57 255.28Z" fill="#507B3C"/>
  <path d="M1151.87 259.57C1151.92 258.907 1152.1 258.26 1152.41 257.67C1152.55 257.365 1152.81 257.128 1153.12 257.01C1153.12 257.01 1153.12 257.01 1153.2 257.01C1153.24 257.005 1153.29 257.005 1153.34 257.01C1153.38 257.006 1153.42 257.013 1153.46 257.03C1153.5 257.048 1153.53 257.075 1153.56 257.11C1153.75 257.523 1153.8 257.985 1153.71 258.43C1153.67 258.953 1153.67 259.477 1153.71 260C1153.77 260.6 1153.83 261.08 1153.87 261.65C1153.88 261.78 1153.88 261.91 1153.87 262.04C1153.89 262.186 1153.89 262.334 1153.87 262.48C1153.85 262.786 1153.78 263.087 1153.67 263.37C1153.61 263.471 1153.51 263.545 1153.39 263.575C1153.28 263.605 1153.16 263.589 1153.05 263.53C1152.83 263.338 1152.64 263.104 1152.5 262.84C1152.45 262.75 1152.36 262.68 1152.31 262.59C1152.25 262.473 1152.2 262.349 1152.17 262.22C1152.17 262.06 1152.07 261.9 1152.03 261.74C1151.86 261.03 1151.8 260.297 1151.87 259.57Z" fill="#507B3C"/>
  <path d="M1168.98 233.22V233.05C1168.97 232.914 1169.01 232.779 1169.07 232.66C1169.07 232.6 1169.13 232.55 1169.15 232.5C1169.21 232.4 1169.28 232.303 1169.35 232.21C1169.47 232.017 1169.64 231.853 1169.83 231.73L1170.14 231.59C1170.26 231.527 1170.39 231.502 1170.52 231.52C1170.65 231.538 1170.77 231.593 1170.86 231.68C1170.93 231.758 1170.98 231.85 1171.01 231.95C1171.07 232.092 1171.07 232.248 1171.01 232.39V232.29C1171.01 232.38 1170.94 232.47 1170.9 232.57C1170.88 232.645 1170.85 232.718 1170.82 232.79C1170.78 232.861 1170.72 232.928 1170.66 232.99L1170.55 233.12L1170.67 232.97L1170.26 233.51C1170.2 233.568 1170.13 233.612 1170.06 233.64C1169.93 233.785 1169.79 233.916 1169.64 234.03C1169.57 234.062 1169.5 234.078 1169.43 234.078C1169.36 234.078 1169.3 234.062 1169.23 234.03C1169.17 234.006 1169.11 233.966 1169.06 233.914C1169.01 233.861 1168.98 233.798 1168.96 233.73C1168.95 233.647 1168.95 233.563 1168.96 233.48C1168.96 233.393 1168.97 233.306 1168.98 233.22Z" fill="#507B3C"/>
  <path style="mix-blend-mode:screen" d="M1166.97 244.57C1167.04 245.62 1167.25 246.656 1167.6 247.65C1167.91 244.413 1168.79 241.256 1170.22 238.33C1171.7 235.318 1174.19 232.916 1177.27 231.54C1178.71 230.95 1181.4 230.2 1181.5 228.29L1181.14 228.02C1178.36 226.09 1174.32 226.64 1171.67 228.76C1169.1 231.033 1167.52 234.205 1167.26 237.61C1166.93 239.915 1166.83 242.246 1166.97 244.57Z" fill="url(#paint24_linear_100_2)"/>
  <path d="M1153.52 269.02C1153.04 268.32 1152.51 267.63 1152.09 266.94C1152.02 266.84 1151.96 266.71 1152.09 266.62C1152.14 266.597 1152.2 266.585 1152.26 266.585C1152.32 266.585 1152.38 266.597 1152.43 266.62C1154.24 266.846 1156.02 267.338 1157.68 268.08L1156.42 264.78C1156.36 264.61 1156.32 264.39 1156.51 264.3C1156.64 264.255 1156.78 264.255 1156.91 264.3C1158.2 264.462 1159.43 264.897 1160.54 265.575C1161.64 266.253 1162.58 267.159 1163.3 268.23C1163.36 266.638 1163.76 265.077 1164.48 263.654C1165.2 262.231 1166.22 260.981 1167.48 259.99C1168.01 261.095 1168.29 262.3 1168.31 263.524C1168.33 264.748 1168.08 265.961 1167.58 267.08C1169.03 264.866 1171.14 263.157 1173.62 262.19C1173.78 262.1 1173.96 262.046 1174.15 262.032C1174.33 262.018 1174.51 262.045 1174.69 262.11C1174.78 262.191 1174.85 262.298 1174.88 262.418C1174.91 262.538 1174.9 262.664 1174.86 262.78C1174.34 265.213 1172.99 267.394 1171.04 268.96C1165.21 269.466 1159.35 269.486 1153.52 269.02Z" fill="#9C7240"/>
  <path d="M1181.83 228.8L1181.47 228.53C1178.69 226.6 1174.64 227.15 1171.99 229.28C1169.43 231.554 1167.85 234.725 1167.58 238.13C1167.26 240.449 1167.17 242.794 1167.31 245.13C1165.37 245.05 1163.43 245.438 1161.67 246.26C1161.1 246.532 1160.54 246.846 1160.01 247.2C1159.95 247 1159.88 246.81 1159.81 246.61C1160.29 246.297 1160.79 246.017 1161.31 245.77C1163.07 244.921 1165.01 244.509 1166.97 244.57C1166.82 242.234 1166.92 239.889 1167.24 237.57C1167.5 234.165 1169.08 230.993 1171.65 228.72C1174.3 226.6 1178.34 226.05 1181.12 227.98L1181.49 228.25C1182.1 228.747 1182.62 229.346 1183.04 230.02V230.08C1182.69 229.603 1182.28 229.173 1181.83 228.8Z" fill="#FFF3C7"/>
  <path d="M1152.24 256.35L1152.71 256.52C1152.6 256.81 1152.48 257.11 1152.38 257.4C1151.83 258.911 1151.59 260.516 1151.69 262.12C1151.79 263.508 1152.25 264.845 1153.04 266C1152.04 264.745 1151.45 263.223 1151.33 261.63C1151.24 260.026 1151.47 258.419 1152.03 256.91C1152.09 256.72 1152.17 256.57 1152.24 256.35Z" fill="#FFF3C7"/>
  <path d="M1144.65 244.09C1145.01 242.808 1145.72 241.653 1146.71 240.754C1147.7 239.856 1148.92 239.252 1150.24 239.01C1152.14 238.796 1154.05 239.319 1155.57 240.47C1156.36 241.029 1157.06 241.704 1157.65 242.47C1157.74 242.59 1157.82 242.73 1157.91 242.85C1157.33 242.124 1156.65 241.484 1155.89 240.95C1154.37 239.8 1152.47 239.277 1150.57 239.49C1149.25 239.732 1148.02 240.338 1147.03 241.238C1146.05 242.138 1145.33 243.296 1144.97 244.58C1144.49 246.379 1144.61 248.285 1145.31 250.01C1145.51 250.498 1145.74 250.97 1146.01 251.42C1146.1 251.58 1146.2 251.73 1146.3 251.88C1146.24 251.79 1146.17 251.72 1146.11 251.63C1145.94 251.406 1145.79 251.172 1145.65 250.93C1145.38 250.475 1145.15 250 1144.96 249.51C1144.26 247.786 1144.15 245.882 1144.65 244.09Z" fill="#FFF3C7"/>
  <path d="M1360.26 266.7C1362.89 266.982 1365.53 267.085 1368.17 267.01C1368.9 266.523 1369.53 265.898 1370.02 265.17C1372.63 264.86 1375.29 264.41 1377.9 264.1C1378.18 262.66 1378.46 261.23 1378.73 259.79C1378.73 259.66 1378.73 259.53 1378.81 259.4C1378.9 258.96 1378.98 258.52 1379.06 258.08L1378.96 257.97L1377.39 257.81C1376 257.67 1374.66 257.54 1373.37 257.43C1373.19 257.43 1373.01 257.43 1372.83 257.43C1371.13 257.31 1369.42 257.24 1367.6 257.26C1366.15 257.26 1365.37 258.16 1364.04 258.75L1362.18 262.75C1362.09 262.96 1362 263.16 1361.9 263.37C1361.8 263.58 1361.74 263.71 1361.66 263.88C1361.11 264.77 1360.67 265.73 1360.26 266.7Z" fill="#E0623F"/>
  <path d="M1381.4 264.93C1381.52 265.302 1381.72 265.644 1381.98 265.93C1383.64 265.437 1385.19 264.658 1386.57 263.63L1387.24 259.37C1387.24 259.01 1387.35 258.64 1387.41 258.28C1387.64 256.81 1387.86 255.34 1388.09 253.88C1387.83 253.891 1387.57 253.935 1387.32 254.01L1387.03 254.1C1385.54 256.15 1384.16 258.1 1382.7 260.1L1381.93 261.15C1381.89 261.101 1381.84 261.054 1381.79 261.01C1381.61 262.84 1381.4 264.93 1381.4 264.93Z" fill="#E0623F"/>
  <path d="M1388.54 270.57C1394.37 270.47 1400.17 270.49 1405.99 270.51C1409.99 269.503 1413.88 268.113 1417.61 266.36C1417.3 263.42 1416.84 260.48 1416.25 257.59C1416.25 257.42 1416.18 257.24 1416.14 257.07C1415.62 254.63 1415.01 252.217 1414.3 249.83C1413.94 249.3 1413.57 248.77 1413.2 248.26C1412.36 248.26 1411.54 248.26 1410.71 248.26H1409.33H1408.33C1402.78 248.401 1397.24 248.852 1391.74 249.61C1391.07 250.99 1390.4 252.55 1389.72 253.94C1389.44 255.86 1389.21 257.8 1389.04 259.73C1389.04 259.98 1389.04 260.22 1388.98 260.46C1388.87 261.847 1388.79 263.237 1388.74 264.63C1388.74 264.92 1388.74 265.2 1388.74 265.49V267.02C1388.74 267.61 1388.74 268.21 1388.74 268.81H1388.87C1388.76 269.36 1388.66 270.03 1388.54 270.57Z" fill="#E0623F"/>
  <path d="M1380.5 266.5C1380.4 266.86 1380.63 267.27 1380.5 267.63C1383.24 267.92 1385.95 268.53 1388.7 268.83C1388.63 263.851 1388.97 258.876 1389.7 253.95C1389.14 253.889 1388.57 253.865 1388 253.88C1387.5 257.13 1387 260.38 1386.48 263.63C1385.1 264.658 1383.55 265.437 1381.89 265.93C1381.62 265.644 1381.43 265.302 1381.31 264.93C1381.31 264.93 1381.55 262.84 1381.7 261.03C1380.69 260.03 1379.99 259.12 1378.96 258.08C1378.57 260.08 1378.19 262.08 1377.79 264.08C1375.19 264.39 1372.53 264.84 1369.92 265.15C1369.43 265.878 1368.8 266.503 1368.07 266.99C1365.43 267.065 1362.78 266.962 1360.16 266.68L1359.42 268.22C1362.87 268.51 1366.17 269.27 1369.62 269.55C1370.13 268.78 1370.63 267.77 1371.18 267C1374.23 266.91 1377.51 266.57 1380.5 266.5Z" fill="#C32E2D"/>
  <path d="M1405.99 270.48C1411.63 270.48 1417.28 270.48 1422.93 270.42C1422.79 269.32 1422.57 268.233 1422.25 267.17C1420.58 260.985 1417.89 255.116 1414.3 249.8C1415.91 255.197 1417.02 260.73 1417.61 266.33C1413.88 268.083 1409.99 269.473 1405.99 270.48Z" fill="#C32E2D"/>
  <path d="M1361.56 263.81L1364.41 264.51L1369.1 262.86L1378.69 259.79C1378.69 259.66 1378.69 259.53 1378.77 259.4L1369.8 262.01L1368.86 262.31L1370.33 261.03L1373.27 257.43C1373.1 257.43 1372.92 257.43 1372.74 257.43L1370.16 260.07L1367.14 263.07L1365.13 263.64L1361.82 263.32C1361.72 263.47 1361.64 263.64 1361.56 263.81ZM1382.93 260.4L1384.46 261.21L1384.92 260.95L1386.01 260.5L1387.21 259.37C1387.21 259.01 1387.32 258.64 1387.38 258.28L1385.28 259.91L1384.28 260.39L1383.64 260L1383.06 259.88L1382.93 260.4ZM1388.97 260.47L1395.77 258.47L1403.23 255.95L1407.64 252.44L1409.26 248.16H1408.26L1406.77 251.74L1404.75 254.18L1401.26 255.82L1394.14 258.31L1388.95 259.63L1388.97 260.47ZM1388.71 265.47L1393.5 266L1398 265.34L1402.02 265.67L1410.68 262.67L1412.41 260.87L1415.06 259.08L1416.15 257.49C1416.15 257.32 1416.08 257.14 1416.04 256.97L1412.46 259.69L1408.75 262.24L1400.59 264.39H1395.85L1388.68 264.56C1388.77 264.94 1388.76 265.22 1388.76 265.51L1388.71 265.47Z" fill="#DA543F"/>
  <path d="M1381.7 265.18C1381.7 265.18 1381.94 263.09 1382.09 261.28L1382.22 261.42L1383 260.37C1384.46 258.37 1385.83 256.37 1387.33 254.37L1387.61 254.28L1388.02 254.19V253.9C1387.76 253.911 1387.5 253.955 1387.25 254.03L1386.95 254.12C1385.46 256.17 1384.08 258.12 1382.62 260.12L1381.86 261.17C1381.82 261.121 1381.77 261.074 1381.72 261.03C1381.57 262.84 1381.33 264.93 1381.33 264.93C1381.44 265.302 1381.64 265.644 1381.91 265.93H1382.01C1381.88 265.691 1381.78 265.44 1381.7 265.18Z" fill="#FFF6CF"/>
  <path d="M1361.9 264.06C1361.97 263.893 1362.05 263.724 1362.14 263.55C1362.23 263.34 1362.33 263.14 1362.42 262.93C1363.03 261.62 1363.64 260.31 1364.28 258.93C1365.61 258.34 1366.38 257.47 1367.84 257.44C1369.65 257.44 1371.37 257.44 1373.06 257.61H1373.6C1374.94 257.72 1376.29 257.85 1377.63 257.99L1378.95 258.13V258.01L1378.85 257.9L1377.28 257.74C1375.89 257.6 1374.55 257.47 1373.25 257.36C1373.08 257.36 1372.9 257.36 1372.72 257.36C1371.02 257.24 1369.31 257.17 1367.48 257.19C1366.03 257.19 1365.26 258.09 1363.93 258.68L1362.07 262.68C1361.98 262.89 1361.89 263.09 1361.79 263.3C1361.69 263.51 1361.62 263.64 1361.54 263.81C1361.09 264.81 1360.65 265.73 1360.2 266.7L1360.62 266.75C1361.06 265.85 1361.47 264.95 1361.9 264.06Z" fill="#FFF6CF"/>
  <path d="M1388.93 270.57C1389.02 270.1 1389.1 269.57 1389.19 269.12H1389.06C1389.06 268.52 1389.06 267.92 1389.06 267.33C1389.06 266.74 1389.06 266.33 1389.06 265.8C1389.06 265.51 1389.06 265.23 1389.06 264.94C1389.06 263.55 1389.19 262.16 1389.29 260.77C1389.29 260.53 1389.29 260.28 1389.36 260.04C1389.52 258.11 1389.75 256.17 1390.04 254.25C1390.71 252.86 1391.38 251.3 1392.06 249.92C1397.56 249.162 1403.1 248.711 1408.65 248.57H1409.59H1410.98C1411.76 248.57 1412.53 248.57 1413.31 248.57L1413.14 248.32C1412.3 248.32 1411.48 248.32 1410.65 248.32H1409.27H1408.27C1402.71 248.461 1397.18 248.912 1391.68 249.67C1391.01 251.05 1390.34 252.61 1389.66 254C1389.38 255.92 1389.15 257.86 1388.98 259.79C1388.98 260.04 1388.98 260.28 1388.92 260.52C1388.81 261.907 1388.73 263.297 1388.68 264.69C1388.68 264.98 1388.68 265.26 1388.68 265.55V267.08C1388.68 267.67 1388.68 268.27 1388.68 268.87H1388.81C1388.71 269.39 1388.6 270.06 1388.49 270.57H1388.93Z" fill="#FFF6CF"/>
  <path d="M1157.03 313.04C1144.84 313.37 1123.51 314.66 1099.56 316.34L1148.52 308.05C1140.39 295.96 515.308 287.46 515.308 287.46C511.438 291.76 450.45 290.06 448.835 287.89C447.219 285.72 343.958 297.18 347.514 289.2C349.78 284.1 161.016 288.45 -2.83594 296.02V329.11C1.22786 328.79 5.2307 328.5 8.96939 328.28C30.9749 326.99 6.61239 329.57 -1.49488 332.15L-2.83594 332.61V333.25C0.211911 333.09 9.49769 331.75 19.7994 331.02C35.7397 329.88 53.0311 328.07 73.726 328.28C94.4209 328.49 78.0743 329.57 82.0974 332.15C86.1206 334.73 119.21 329.57 138.716 328.5C158.223 327.43 163.424 328.28 168.799 329.57C174.173 330.86 180.807 329.57 161.504 334.65C142.201 339.73 183.469 333.65 229.969 329.57C276.469 325.49 265.74 326.99 272.151 326.99C278.562 326.99 285.673 327.85 281.965 332.15C278.257 336.45 304.926 332.15 306.866 332.15C308.807 332.15 325.935 331.02 354.89 329.85C383.845 328.68 362.56 331.02 360.254 332.15C357.948 333.28 368.382 332.15 366.594 335.78C364.806 339.41 389.828 333.66 439.173 329.57C488.518 325.48 502.111 325.84 505.891 328.07C509.67 330.3 505.027 332.15 514.607 333.66C524.188 335.17 550.592 332.15 567.152 331.02C583.712 329.89 609.192 328.28 627.571 327.85C645.949 327.42 636.714 327.85 636.501 329.57C636.288 331.29 639.925 332.15 623.812 337.18C607.699 342.21 778.998 325.7 799.266 324.84C819.534 323.98 799.591 325.84 756.485 334.65C713.378 343.46 785.947 333.45 852.604 329.57C919.26 325.69 961.31 325.84 954.778 327.85C948.245 329.86 917.248 337.54 925.579 337.18C929.511 337.02 959.867 333.83 990.813 330.5C1011.26 329.3 1039.7 326.59 1039.47 328.07C1039.17 330 1043.53 329.57 1047.75 331.59C1051.96 333.61 1051.02 332.82 1053.59 333.02C1056.16 333.22 1087.33 329.57 1109.33 328.28C1131.34 326.99 1106.98 329.57 1098.87 332.15C1090.76 334.73 1104.23 332.15 1120.2 331.02C1136.18 329.89 1153.43 328.07 1174.12 328.28C1194.82 328.49 1178.48 329.57 1182.5 332.15C1186.53 334.73 1219.57 329.57 1239.11 328.5C1258.65 327.43 1263.82 328.28 1269.2 329.57C1274.59 330.86 1281.21 329.57 1261.9 334.65C1242.59 339.73 1283.86 333.65 1330.37 329.57C1376.88 325.49 1366.15 326.99 1372.56 326.99C1378.97 326.99 1386.07 327.85 1382.37 332.15C1378.67 336.45 1405.32 332.15 1407.26 332.15C1409.2 332.15 1426.33 331.02 1455.3 329.85C1484.26 328.68 1462.97 331.02 1460.66 332.15C1458.35 333.28 1468.79 332.15 1467 335.78C1465.21 339.41 1490.22 333.66 1539.58 329.57C1588.93 325.48 1602.51 325.84 1606.3 328.07C1610.09 330.3 1605.43 332.15 1615 333.66C1620.67 334.55 1632.27 333.86 1644.17 332.91V308.13C1452.22 308.75 1262.6 310.15 1157.03 313.04Z" fill="url(#paint25_linear_100_2)"/>
  <defs>
    <linearGradient id="paint0_linear_100_2" x1="821.549" y1="221.89" x2="821.549" y2="439.16" gradientUnits="userSpaceOnUse">
      <stop offset="0.19" stop-color="#F5D46F"/>
      <stop offset="1" stop-color="#FC8332"/>
    </linearGradient>
    <linearGradient id="paint1_linear_100_2" x1="1064.62" y1="67.3001" x2="1435.68" y2="232.85" gradientUnits="userSpaceOnUse">
      <stop stop-color="#F5D46F"/>
      <stop offset="1" stop-color="#FCA141"/>
    </linearGradient>
    <linearGradient id="paint2_linear_100_2" x1="1160.51" y1="18.2701" x2="1184.36" y2="221.757" gradientUnits="userSpaceOnUse">
      <stop stop-color="#AEA079"/>
      <stop offset="0.3" stop-color="#766C52"/>
      <stop offset="0.78" stop-color="#211F17"/>
      <stop offset="1"/>
    </linearGradient>
    <linearGradient id="paint3_linear_100_2" x1="1402.71" y1="116.54" x2="1620.2" y2="159.885" gradientUnits="userSpaceOnUse">
      <stop stop-color="#F5C057"/>
      <stop offset="1" stop-color="#FC7D2F"/>
    </linearGradient>
    <linearGradient id="paint4_linear_100_2" x1="1459.82" y1="45.2899" x2="1470.21" y2="253.307" gradientUnits="userSpaceOnUse">
      <stop stop-color="#A07B60"/>
      <stop offset="0.24" stop-color="#765B47"/>
      <stop offset="0.76" stop-color="#211A14"/>
      <stop offset="1"/>
    </linearGradient>
    <linearGradient id="paint5_linear_100_2" x1="1408.19" y1="123.95" x2="1423.12" y2="263.861" gradientUnits="userSpaceOnUse">
      <stop stop-color="#A07B60"/>
      <stop offset="0.24" stop-color="#765B47"/>
      <stop offset="0.76" stop-color="#211A14"/>
      <stop offset="1"/>
    </linearGradient>
    <linearGradient id="paint6_linear_100_2" x1="613.817" y1="105.53" x2="415.707" y2="265.925" gradientUnits="userSpaceOnUse">
      <stop stop-color="#F5D46F"/>
      <stop offset="1" stop-color="#FCA141"/>
    </linearGradient>
    <linearGradient id="paint7_linear_100_2" x1="510.785" y1="186.274" x2="220.647" y2="322.893" gradientUnits="userSpaceOnUse">
      <stop stop-color="#F5C057"/>
      <stop offset="1" stop-color="#FC7D2F"/>
    </linearGradient>
    <linearGradient id="paint8_linear_100_2" x1="522.267" y1="-45.3554" x2="435.908" y2="252.295" gradientUnits="userSpaceOnUse">
      <stop stop-color="#A07B60"/>
      <stop offset="0.24" stop-color="#765B47"/>
      <stop offset="0.76" stop-color="#211A14"/>
      <stop offset="1"/>
    </linearGradient>
    <linearGradient id="paint9_linear_100_2" x1="536.139" y1="57.8902" x2="498.138" y2="222.352" gradientUnits="userSpaceOnUse">
      <stop stop-color="#AEA079"/>
      <stop offset="0.3" stop-color="#766C52"/>
      <stop offset="0.78" stop-color="#211F17"/>
      <stop offset="1"/>
    </linearGradient>
    <linearGradient id="paint10_linear_100_2" x1="639.637" y1="163.45" x2="624.682" y2="249.244" gradientUnits="userSpaceOnUse">
      <stop stop-color="#AEA079"/>
      <stop offset="0.3" stop-color="#766C52"/>
      <stop offset="0.78" stop-color="#211F17"/>
      <stop offset="1"/>
    </linearGradient>
    <linearGradient id="paint11_linear_100_2" x1="253.271" y1="105.53" x2="451.381" y2="265.925" gradientUnits="userSpaceOnUse">
      <stop stop-color="#F5D46F"/>
      <stop offset="1" stop-color="#FCA141"/>
    </linearGradient>
    <linearGradient id="paint12_linear_100_2" x1="350.097" y1="200.662" x2="640.235" y2="337.281" gradientUnits="userSpaceOnUse">
      <stop stop-color="#F5C057"/>
      <stop offset="1" stop-color="#FC7D2F"/>
    </linearGradient>
    <linearGradient id="paint13_linear_100_2" x1="338.616" y1="-30.9574" x2="424.976" y2="266.683" gradientUnits="userSpaceOnUse">
      <stop stop-color="#A07B60"/>
      <stop offset="0.24" stop-color="#765B47"/>
      <stop offset="0.76" stop-color="#211A14"/>
      <stop offset="1"/>
    </linearGradient>
    <linearGradient id="paint14_linear_100_2" x1="330.95" y1="57.8902" x2="368.951" y2="222.352" gradientUnits="userSpaceOnUse">
      <stop stop-color="#AEA079"/>
      <stop offset="0.3" stop-color="#766C52"/>
      <stop offset="0.78" stop-color="#211F17"/>
      <stop offset="1"/>
    </linearGradient>
    <linearGradient id="paint15_linear_100_2" x1="1401.31" y1="-23.93" x2="1568.03" y2="325.641" gradientUnits="userSpaceOnUse">
      <stop stop-color="#F5C057"/>
      <stop offset="1" stop-color="#FC7D2F"/>
    </linearGradient>
    <linearGradient id="paint16_linear_100_2" x1="1427.94" y1="22.85" x2="1543.89" y2="263.15" gradientUnits="userSpaceOnUse">
      <stop stop-color="#A07B60"/>
      <stop offset="0.24" stop-color="#765B47"/>
      <stop offset="0.76" stop-color="#211A14"/>
      <stop offset="1"/>
    </linearGradient>
    <linearGradient id="paint17_linear_100_2" x1="1700.55" y1="-23.93" x2="1533.83" y2="325.641" gradientUnits="userSpaceOnUse">
      <stop stop-color="#F5C057"/>
      <stop offset="1" stop-color="#FC7D2F"/>
    </linearGradient>
    <linearGradient id="paint18_linear_100_2" x1="1673.92" y1="22.85" x2="1557.97" y2="263.15" gradientUnits="userSpaceOnUse">
      <stop stop-color="#A07B60"/>
      <stop offset="0.24" stop-color="#765B47"/>
      <stop offset="0.76" stop-color="#211A14"/>
      <stop offset="1"/>
    </linearGradient>
    <linearGradient id="paint19_linear_100_2" x1="1149.15" y1="226.08" x2="1153.36" y2="255.998" gradientUnits="userSpaceOnUse">
      <stop stop-color="#E3E734"/>
      <stop offset="0.06" stop-color="#D8DD2B"/>
      <stop offset="0.24" stop-color="#B7C010"/>
      <stop offset="0.35" stop-color="#ABB506"/>
      <stop offset="1" stop-color="#6C9500"/>
    </linearGradient>
    <linearGradient id="paint20_linear_100_2" x1="1151.1" y1="227.93" x2="1149.56" y2="250.522" gradientUnits="userSpaceOnUse">
      <stop stop-color="#AA8768"/>
      <stop offset="0.29" stop-color="#765E48"/>
      <stop offset="0.78" stop-color="#211B14"/>
      <stop offset="1"/>
    </linearGradient>
    <linearGradient id="paint21_linear_100_2" x1="1158.63" y1="236.73" x2="1165.86" y2="266.163" gradientUnits="userSpaceOnUse">
      <stop stop-color="#E3E734"/>
      <stop offset="0.06" stop-color="#D8DD2B"/>
      <stop offset="0.24" stop-color="#B7C010"/>
      <stop offset="0.35" stop-color="#ABB506"/>
      <stop offset="1" stop-color="#6C9500"/>
    </linearGradient>
    <linearGradient id="paint22_linear_100_2" x1="1168.76" y1="250.75" x2="1152.03" y2="250.75" gradientUnits="userSpaceOnUse">
      <stop stop-color="#AA8768"/>
      <stop offset="0.29" stop-color="#765E48"/>
      <stop offset="0.78" stop-color="#211B14"/>
      <stop offset="1"/>
    </linearGradient>
    <linearGradient id="paint23_linear_100_2" x1="1178.9" y1="221.03" x2="1173.18" y2="250.275" gradientUnits="userSpaceOnUse">
      <stop stop-color="#E3E734"/>
      <stop offset="0.06" stop-color="#D8DD2B"/>
      <stop offset="0.24" stop-color="#B7C010"/>
      <stop offset="0.35" stop-color="#ABB506"/>
      <stop offset="1" stop-color="#6C9500"/>
    </linearGradient>
    <linearGradient id="paint24_linear_100_2" x1="1180.3" y1="214.65" x2="1170.92" y2="243.237" gradientUnits="userSpaceOnUse">
      <stop stop-color="#AA8768"/>
      <stop offset="0.29" stop-color="#765E48"/>
      <stop offset="0.78" stop-color="#211B14"/>
      <stop offset="1"/>
    </linearGradient>
    <linearGradient id="paint25_linear_100_2" x1="81.2813" y1="393.7" x2="81.2813" y2="272.74" gradientUnits="userSpaceOnUse">
      <stop offset="0.19" stop-color="#F5D46F"/>
      <stop offset="1" stop-color="#FC8332"/>
    </linearGradient>
  </defs>
</svg>
