<svg width="1644" height="537" viewBox="0 0 1644 537" fill="none" xmlns="http://www.w3.org/2000/svg">
  <path opacity="0.5" d="M820.572 318.858C820.572 318.858 712.963 313.719 753.732 307.111C795.611 300.504 729.326 305.888 726.276 305.398C708.248 302.217 706.584 299.035 684.397 295.12C673.026 293.162 536.019 290.47 523.816 288.267C518.547 287.288 638.636 287.044 633.366 286.065C468.348 257.187 255.904 219.988 271.435 222.191C420.368 244.216 398.735 209.22 422.309 209.709C475.004 210.933 518.547 253.026 518.547 253.026C518.547 253.026 529.64 241.769 574.015 266.242C618.112 290.715 671.917 233.448 722.947 244.216C745.967 249.111 753.455 270.647 768.154 271.136C909.599 276.031 776.474 244.216 700.76 235.895C581.503 222.925 342.989 162.966 323.853 158.561C298.06 152.443 365.454 151.219 326.626 139.228C287.798 127.481 -2.85594 57.9778 9.90178 58.2226C186.291 62.8724 81.7333 79.5139 190.174 101.54C224.287 108.392 401.508 135.067 404.559 135.801C417.594 138.738 391.247 143.633 404.282 146.814C417.317 149.751 488.594 154.156 488.594 154.156C488.594 154.156 509.117 113.776 573.738 125.033C600.917 129.683 630.87 156.114 637.526 156.359C644.182 156.603 654.167 139.228 683.842 149.506C740.143 168.595 734.596 204.081 754.01 209.954C773.424 215.828 1197.76 417.973 1197.76 417.973L820.572 318.858Z" fill="url(#paint1_linear_100_2)"/>
  <path opacity="0.5" d="M1541.66 280.79L1492.29 281.28H1492.02L1438.21 281.769C1438.21 281.769 1302.59 265.128 1285.95 266.596C1280.96 267.085 1278.74 264.638 1275.41 260.722C1267.37 251.423 1253.23 234.047 1184.17 225.971C1185 225.971 1193.6 226.705 1205.8 227.684C1237.97 230.131 1295.94 235.026 1305.92 238.207C1319.79 242.857 1304.53 251.667 1304.53 251.667L1449.03 263.659L1449.86 263.904L1541.66 280.79Z" fill="url(#paint2_linear_100_2)"/>
  <path opacity="0.5" d="M964.791 242.857L1065.47 272.959L1124.54 287.887C1124.54 287.887 1135.08 308.689 1159.21 311.381C1183.06 314.073 1275.69 318.723 1275.69 318.723C1275.69 318.723 1203.03 280.79 1211.63 298.655C1220.22 316.276 1189.72 282.993 1161.43 273.693C1153.66 271.001 1145.34 269.043 1137.02 267.819C1101.24 262.925 1076.28 262.925 1065.74 263.17C1064.63 263.17 1063.8 263.17 1063.25 263.17C1054.1 263.17 964.791 242.857 964.791 242.857Z" fill="url(#paint3_linear_100_2)"/>
  <path opacity="0.5" d="M869.384 361.829C869.384 361.829 828.892 348.369 828.892 355.221C828.892 362.074 786.736 354.977 786.736 354.977C786.736 354.977 514.387 323.407 514.387 330.259C514.387 337.111 440.059 339.314 432.016 339.314C423.696 339.314 382.372 316.554 337.165 316.554C291.959 316.554 -44.457 279.111 -44.457 279.111C-44.457 279.111 229.834 323.651 238.154 326.099C246.474 328.301 254.795 332.951 254.795 332.951C254.795 332.951 370.169 346.411 374.329 346.411C378.489 346.411 432.016 348.614 436.176 346.411C440.336 344.209 696.045 382.631 708.526 382.631C721.006 382.631 704.366 375.779 741.529 377.981C778.693 380.184 1050.77 391.441 1050.77 391.441L988.918 384.589C988.918 384.589 914.591 366.479 906.27 364.276C897.95 362.074 889.907 368.926 889.907 368.926L869.384 361.829Z" fill="url(#paint4_linear_100_2)"/>
  <path opacity="0.5" d="M980.321 165.278L1118.44 191.22C1118.44 191.22 1070.46 192.933 1078.78 189.751C1086.82 186.57 1149.78 206.393 1149.78 206.393L1181.12 218.14L1217.45 208.84C1217.45 208.84 1264.87 217.65 1272.64 221.321C1280.41 224.992 1336.15 227.195 1336.15 227.195L1249.62 206.638L1237.97 199.296C1237.97 199.296 1238.8 178.249 1207.19 173.599C1175.57 168.949 1179.18 179.717 1179.18 179.717C1179.18 179.717 1136.19 164.055 1132.03 164.055C1128.14 163.81 1128.14 163.81 1119.82 167.236C1111.78 170.418 1091.81 169.684 1091.81 169.684L1052.15 168.215C1052.15 168.215 997.517 145.211 993.356 144.966C989.474 144.721 989.196 148.392 977.271 151.329C965.068 154.51 866.334 136.89 866.334 136.89L980.321 165.278Z" fill="url(#paint5_linear_100_2)"/>
  <path d="M300.893 471.46L200.85 478.58L99.2842 478.41L-0.677731 472.64L-2.69727 472.63V473.75L13.2155 473.83L109.311 479.05L210.825 479.54L404.873 469.62L405.716 468.42L300.893 471.46Z" fill="#F2A14B"/>
  <path d="M1273.02 452.12C1272.95 452.089 1272.88 452.062 1272.8 452.04L1273.02 452.12Z" fill="#9C7240"/>
  <defs>
    <linearGradient id="paint1_linear_100_2" x1="586.394" y1="362.832" x2="612.946" y2="116.469" gradientUnits="userSpaceOnUse">
      <stop stop-color="#E48793"/>
      <stop offset="0.996" stop-color="#5083D4"/>
    </linearGradient>
    <linearGradient id="paint2_linear_100_2" x1="1325.3" y1="613.289" x2="1363.02" y2="151.412" gradientUnits="userSpaceOnUse">
      <stop offset="0.5734" stop-color="#E48793"/>
      <stop offset="0.996" stop-color="#5083D4"/>
    </linearGradient>
    <linearGradient id="paint3_linear_100_2" x1="560.166" y1="607.959" x2="1205.44" y2="123.424" gradientUnits="userSpaceOnUse">
      <stop offset="0.5734" stop-color="#E48793"/>
      <stop offset="0.996" stop-color="#5083D4"/>
    </linearGradient>
    <linearGradient id="paint4_linear_100_2" x1="495.834" y1="387.943" x2="527.921" y2="95.7838" gradientUnits="userSpaceOnUse">
      <stop stop-color="#E48793"/>
      <stop offset="0.996" stop-color="#5083D4"/>
    </linearGradient>
    <linearGradient id="paint5_linear_100_2" x1="1057.97" y1="591.466" x2="1095.69" y2="129.578" gradientUnits="userSpaceOnUse">
      <stop offset="0.5734" stop-color="#E48793"/>
      <stop offset="0.996" stop-color="#5083D4"/>
    </linearGradient>
  </defs>
</svg>
