<svg width="1648" height="197" viewBox="0 0 1648 197" fill="none" xmlns="http://www.w3.org/2000/svg">
  <path d="M1671.54 196.465H-21.0938V8.20658C-21.0938 8.20658 214.384 0.645996 253.211 0.645996C292.038 0.645996 651.761 11.9869 651.761 11.9869C651.761 11.9869 1018.83 4.42629 1078.22 4.42629C1137.62 4.42629 1386.11 6.31643 1421.16 6.31643C1456.42 6.31643 1671.54 8.20658 1671.54 8.20658V196.465Z" fill="#67759A"/>
  <path d="M-17.5234 23.4474L1697.32 15.207" stroke="#AFB2C3" stroke-width="5" stroke-linejoin="round"/>
  <path d="M151.58 96.8603H-25.6406L-4.64047 89.6499H163.873L151.58 96.8603Z" fill="#D9D9D9"/>
  <path d="M913.807 96.8603H736.586L757.586 89.6499H926.1L913.807 96.8603Z" fill="#D9D9D9"/>
  <path d="M405.658 96.8603H228.438L249.438 89.6499H417.951L405.658 96.8603Z" fill="#D9D9D9"/>
  <path d="M1167.88 96.8603H990.656L1011.66 89.6499H1180.17L1167.88 96.8603Z" fill="#D9D9D9"/>
  <path d="M1676.03 96.8603H1498.81L1519.81 89.6499H1688.32L1676.03 96.8603Z" fill="#D9D9D9"/>
  <path d="M659.729 96.8603H482.508L503.508 89.6499H672.021L659.729 96.8603Z" fill="#D9D9D9"/>
  <path d="M1421.96 96.8603H1244.73L1265.73 89.6499H1434.25L1421.96 96.8603Z" fill="#D9D9D9"/>
</svg>
