<svg width="1648" height="120" viewBox="0 0 1648 120" fill="none" xmlns="http://www.w3.org/2000/svg">
  <path opacity="0.5" d="M819.032 41.2063C818.823 40.8277 818.823 40.8277 819.032 41.2063V41.2063Z" fill="url(#paint0_linear_22057_76)"/>
  <path d="M1683.08 75.7952C1674.06 73.7161 1486.01 76.1733 1375.83 75.9842C1377.3 73.5271 1379.18 71.2589 1381.07 68.9907C1375.62 69.9358 1370.79 72.582 1366.8 75.9842C1364.91 75.9842 1363.02 75.9842 1361.14 75.9842C1362.18 72.96 1363.65 69.9358 1364.91 67.1005C1360.51 67.8566 1356.31 71.8259 1353.79 75.9842C1353.16 75.9842 1352.32 75.9842 1351.69 75.9842C1351.69 68.2346 1353.79 60.6741 1351.27 53.1135C1348.75 45.1749 1342.67 38.5594 1338.47 30.8098C1342.67 41.7726 1348.33 54.6256 1338.26 64.8324C1338.05 61.8082 1337 58.5949 1336.58 55.7597C1331.75 57.4608 1328.61 63.1312 1326.93 67.1005C1325.46 63.3202 1326.51 59.1619 1328.19 55.7597C1322.73 56.5157 1320 61.9971 1319.16 66.9115C1312.65 56.7047 1314.75 48.0101 1314.75 37.2363C1307.83 42.7177 1304.47 52.3574 1306.57 60.6741C1299.22 51.6014 1301.11 39.1264 1301.11 28.5416C1290.41 42.7177 1303.63 57.0828 1299.43 70.3138C1295.86 66.3445 1293.35 61.9971 1291.25 57.6498C1291.88 60.674 1292.3 63.8873 1292.3 67.2896C1288.52 63.6983 1284.11 59.351 1280.54 56.1377C1280.96 58.2169 1280.54 60.6741 1281.17 62.7532C1279.49 61.2411 1276.98 59.729 1275.51 57.8388C1277.82 61.4301 1279.07 65.3994 1279.07 69.5578C1274.25 63.6983 1263.33 60.296 1255.15 57.0828V57.4608C1262.5 61.6191 1267.95 65.9665 1272.57 71.4479C1250.95 71.8259 1223.46 75.4172 1211.71 73.716C1197.85 71.8259 1180.22 68.9907 1166.37 73.149C1159.66 75.2282 1156.72 76.9293 1149.58 75.2282C1146.02 74.2831 1144.76 72.5819 1140.56 72.5819C1137.83 72.5819 1135.31 74.0941 1132.37 74.0941C1132.16 70.5028 1135.1 65.7774 1138.25 63.5093C1131.95 64.4543 1126.92 66.5335 1121.67 69.9358C1124.19 62.5642 1130.48 56.3267 1138.04 53.1135C1130.9 54.4366 1107.82 61.8081 1109.71 69.1797C1096.28 72.582 1082.21 62.1862 1067.94 63.5093C1054.72 64.6434 1043.39 69.9358 1029.75 69.5578C1015.89 69.1797 1002.25 65.7774 988.4 65.2104C974.758 64.8324 960.277 62.7532 946.845 64.2653C944.747 64.4543 937.401 66.3445 935.932 65.3994C934.463 64.4543 935.932 61.0521 935.512 60.8631C930.685 58.4059 925.438 63.3202 919.562 64.0763C920.191 62.3752 920.821 60.674 922.92 59.54C917.253 59.729 912.636 61.4301 907.809 64.2653C908.858 58.9729 916.833 53.1135 922.92 52.1684C908.858 53.6805 895.216 55.1926 882.834 61.9972C882.624 57.8389 889.76 51.7904 893.957 51.0343C889.34 51.6013 883.883 51.6014 879.686 53.4915C875.488 55.1926 873.18 59.918 868.143 59.54C868.143 58.4059 867.303 56.8937 867.513 55.5706C865.414 57.4608 863.945 59.5399 861.427 60.296C860.797 57.4608 860.377 54.4366 860.168 51.4123C855.97 59.1619 853.661 57.8388 852.402 50.4673C850.094 52.5464 848.415 55.5707 846.736 57.8388C844.427 55.7597 841.069 51.9794 840.649 48.7662C839.39 52.3574 837.081 59.5399 832.044 59.3509C830.365 50.8453 828.477 44.6078 818.822 40.8275C820.292 46.876 820.501 51.9794 815.255 56.3267C774.329 47.065 725.009 51.4123 682.405 48.9551C656.171 47.254 630.566 47.065 604.332 46.876C589.221 46.876 573.061 43.2847 560.048 43.4737C560.258 41.5836 559.839 38.7483 560.468 36.6692C556.9 38.7483 552.283 40.8275 549.555 44.7968C550.394 41.9616 549.975 37.9923 551.234 34.9681C545.777 35.7241 541.16 38.5594 538.222 42.9067C536.123 33.267 538.641 21.359 548.086 15.6886C531.296 17.3897 521.642 31.3768 513.666 43.2847C514.086 39.8824 511.987 36.1022 511.987 32.6999C506.321 34.9681 503.173 41.5836 500.025 46.1199C496.247 41.0165 497.506 35.5351 501.494 30.8098C493.309 32.1329 486.173 36.6692 481.346 42.7177C479.247 36.2912 482.395 30.4317 488.062 26.4624C478.408 29.6757 468.753 33.834 464.346 42.1506C465.605 23.0602 483.864 9.45112 500.864 0.378418C481.766 6.04885 454.692 15.4996 449.235 35.1571C449.445 27.4075 448.606 19.2799 450.704 11.7193C442.519 18.5238 440.63 27.5965 435.593 35.9131C434.754 35.9131 433.705 35.9132 432.865 35.5351C429.927 28.5416 425.1 22.8712 420.692 16.6337C422.162 25.5174 422.162 34.968 425.939 43.2847C401.594 40.8275 380.187 42.1506 356.051 42.9067C345.138 43.2847 307.781 49.5222 303.793 39.1264C300.015 42.3396 295.188 45.5529 289.941 45.9309C289.312 43.4737 286.373 41.2055 285.744 39.5044C277.139 42.7176 268.324 55.1926 266.645 37.8033C262.658 41.9616 260.349 48.0101 255.312 51.2233C252.584 47.8211 249.646 44.2298 248.386 39.8825C246.497 43.4737 242.51 48.1991 239.781 50.2782C237.263 43.2847 232.016 37.8033 229.078 30.9987C229.078 37.9923 225.51 46.687 219.843 51.2233C213.757 34.212 202.844 25.3283 192.77 11.3412C199.486 22.1151 204.103 38.7484 199.486 52.1684C183.535 42.1506 185.634 35.1571 176.819 55.9487C170.313 54.8146 162.968 56.3267 156.042 56.8938C153.943 51.4123 154.363 45.3639 157.931 40.8275C150.165 44.2298 141.771 50.4672 140.511 58.4059C138.622 52.1684 138.622 45.1749 143.659 40.2605C134.845 43.6628 126.24 49.3332 122.252 57.6498C119.944 50.0892 120.783 42.1506 126.03 35.5351C116.796 39.8825 106.722 51.0343 106.932 60.6741C104.413 45.7419 110.08 19.6579 126.24 11.1522C104.623 21.548 81.9566 40.6385 81.327 65.2104C75.0308 62.5642 72.932 55.9487 72.932 49.9002C67.2654 54.0585 62.8581 60.296 61.8087 67.2896C58.6606 61.6191 57.8212 53.8695 58.8705 47.443C51.7348 53.1135 50.0558 62.7532 48.5867 70.5028C42.5004 59.918 41.6609 41.0165 50.2657 31.5658C40.4016 39.5044 35.1548 50.6563 33.4758 62.1861C33.8956 55.1926 33.2659 48.1991 32.2166 41.0165C28.0191 47.065 24.6611 54.0586 24.2414 61.0521C15.007 56.5158 15.007 45.9309 12.4885 34.5901C8.08113 44.7969 9.96999 58.9729 11.4391 68.0456C9.76012 60.485 -6.32523 59.1619 -17.2387 56.1377L-17.5234 133.445L1688.33 125.128L1683.08 75.7952ZM1336.58 75.7952C1335.74 75.7952 1334.69 75.7952 1333.85 75.7952C1333.01 74.6611 1332.17 73.716 1331.33 72.771C1333.01 73.527 1334.9 74.6611 1336.58 75.7952ZM1320.84 75.4172C1320 75.4172 1319.16 75.4172 1318.32 75.4172C1317.9 74.6611 1317.27 73.9051 1316.64 73.149C1317.9 73.9051 1319.37 74.6611 1320.84 75.4172Z" fill="url(#paint1_linear_22057_76)"/>
  <path d="M1565.97 64.4541C1557.79 64.2651 1548.55 65.0211 1540.58 70.1245C1541.42 65.0211 1548.76 54.2473 1553.17 50.089C1544.57 57.2715 1535.96 62.5639 1530.08 71.6366C1530.29 64.4541 1533.86 53.3022 1530.08 47.4428C1525.68 53.6802 1522.32 63.32 1520.22 69.9355C1515.81 67.8563 1520.43 52.7352 1519.38 47.4428C1515.81 51.6011 1513.71 60.6738 1512.66 66.1552C1511.2 61.8079 1512.46 56.3264 1511.2 51.7901C1510.15 47.4427 1507.84 43.2844 1505.53 39.5041C1501.12 31.5655 1494.2 21.9258 1484.96 18.1455C1486.64 21.7368 1491.05 24.761 1493.36 28.1633C1496.29 32.1326 1497.97 36.8579 1500.07 41.3943C1503.01 48.3878 1507.84 63.32 1502.59 71.2586C1500.28 65.5882 1496.92 59.9177 1495.25 53.6802C1496.29 59.5397 1496.5 67.1003 1495.46 73.1488C1493.15 69.9355 1492.52 65.0211 1490.63 61.2408C1488.53 56.8935 1485.38 53.6802 1482.23 50.089C1479.09 46.4977 1475.73 42.9064 1471.95 40.0712C1469.85 38.5591 1467.33 37.236 1464.81 35.9129C1469.64 40.8272 1473.63 47.6318 1476.99 52.3572C1481.18 58.4056 1487.27 66.5332 1487.27 74.6608C1481.81 68.4234 1464.18 68.6124 1454.95 63.698C1456.84 66.5332 1459.15 69.3685 1462.51 71.2586C1466.7 73.7158 1473.21 77.6851 1478.46 78.6302C1471.95 77.4961 1463.97 80.3313 1457.05 82.4105C1449.49 84.6786 1443.62 83.9226 1437.32 81.4654C1442.78 83.3555 1446.97 86.3798 1453.27 86.1908C1457.89 86.1908 1469.85 84.3006 1473.42 82.2214L1483.91 83.9225C1512.46 84.1116 1540.16 76.173 1569.12 72.5817C1561.36 72.5817 1552.96 72.9597 1545.2 72.9597C1552.12 69.7465 1558.63 67.2893 1565.97 64.4541Z" fill="#AFC63A"/>
  <defs>
    <linearGradient id="paint0_linear_22057_76" x1="818.822" y1="41.0509" x2="819.062" y2="41.0509" gradientUnits="userSpaceOnUse">
      <stop stop-color="#167700"/>
      <stop offset="1" stop-color="#AAD201"/>
    </linearGradient>
    <linearGradient id="paint1_linear_22057_76" x1="-17.1112" y1="67.4141" x2="1688.66" y2="67.4141" gradientUnits="userSpaceOnUse">
      <stop stop-color="#167700"/>
      <stop offset="1" stop-color="#AAD201"/>
    </linearGradient>
  </defs>
</svg>
