<svg width="1649" height="334" viewBox="0 0 1649 334" fill="none" xmlns="http://www.w3.org/2000/svg">
  <path d="M247.593 85.2408C245.914 80.8934 239.198 82.7836 234.371 82.4055C233.951 81.0824 233.322 80.3264 233.112 79.0033C226.186 80.1374 223.248 75.79 216.112 76.9241C214.643 68.6075 203.729 74.2779 198.692 75.223C191.557 76.5461 182.322 75.79 175.816 76.1681C172.248 76.3571 166.792 78.2472 163.644 77.8692C160.705 77.4912 158.607 74.0889 153.989 74.4669C144.755 75.223 142.446 87.5089 133.842 85.0517C135.311 76.3571 122.298 80.3264 124.397 71.6317C116.212 72.0097 116.002 68.0404 111.175 67.0954C105.718 65.9613 101.311 67.8514 96.0643 68.9855C87.6694 70.8756 91.8668 71.8207 85.1509 68.7965C79.904 66.3393 82.0028 62.181 72.9782 63.126C71.5091 54.0533 53.0402 58.0227 46.9539 57.6446C41.4972 57.4556 40.4478 54.6204 33.7319 56.3215C30.5838 57.0776 23.4481 59.3458 20.5098 60.4798C11.0655 64.2601 5.60881 72.9548 -1.31702 77.3021C-3.8355 79.0033 -7.8231 79.3813 -10.5515 82.2165C-13.2798 85.2408 -10.3416 91.2892 -12.6502 93.9354C-13.6996 95.0695 -15.1687 95.6365 -16.8477 95.8256V123.8C3.3002 133.061 42.1268 121.532 56.8179 120.019C127.755 113.026 198.063 99.7949 269 95.8256C269.63 87.5089 254.519 85.4298 247.593 85.2408Z" fill="#7FDDB7"/>
  <path d="M1452.69 65.2049C1447.86 63.8818 1441.56 64.0708 1436.53 65.0159C1435.69 58.4004 1417.22 57.4553 1412.18 59.5345C1411.76 55.5652 1409.03 54.2421 1405.04 55.7542C1401.06 52.73 1386.79 56.6993 1386.37 60.2906C1381.96 56.3213 1374.61 56.6993 1376.29 63.8818C1373.56 62.9368 1370.21 63.6928 1367.48 63.3148C1367.9 64.8269 1366.85 67.0951 1367.27 68.6072C1362.02 68.2292 1354.88 65.961 1356.14 73.1436C1353.84 73.8996 1349.85 74.4667 1347.33 74.8447C1349.22 63.6928 1329.07 69.9303 1329.7 75.9788C1325.5 75.2227 1321.1 75.6007 1320.47 79.7591C1316.27 76.9238 1303.05 78.814 1302.21 84.2954C1293.6 85.9966 1283.74 78.436 1277.86 81.6492C1272.61 76.3568 1247.22 86.1856 1240.5 90.7219C1255.2 94.5022 1270.1 94.6912 1284.79 97.1484C1303.89 100.362 1323.4 104.709 1342.29 109.056C1371.05 115.483 1406.51 126.446 1436.11 119.452C1466.33 112.459 1481.23 83.9174 1452.69 65.2049Z" fill="#7FDDB7"/>
  <g opacity="0.5">
    <path opacity="0.25" d="M239.408 82.4054C214.433 80.1373 189.668 81.8384 165.532 85.2407C154.409 86.7528 144.335 91.1001 133.632 92.6122C124.187 93.9353 122.928 89.21 118.941 87.5088C114.533 85.6187 112.434 78.2471 105.089 86.1857C103.83 72.9547 88.299 72.3877 92.2866 87.1308C81.583 79.5702 86.8298 97.3376 86.4101 102.441C83.262 102.819 78.4349 102.441 75.7066 101.118C74.4473 93.5573 65.2129 92.8012 61.2253 98.6607C60.5957 96.5815 58.4969 96.2035 58.4969 92.6122C53.2501 92.2342 48.423 92.9902 43.5959 93.5573C43.8058 90.7221 41.707 89.2099 41.707 86.3747C33.7319 85.6187 25.3369 85.6187 22.3987 92.6122C13.584 73.7108 -5.09474 94.3133 -5.93423 106.221C-9.92183 105.654 -13.9094 106.032 -16.8477 107.733V127.013C-5.30462 125.69 5.60881 122.855 17.9913 119.83C41.9169 114.16 66.8919 117.94 91.6569 113.782C123.348 108.489 155.039 106.41 186.939 102.819C223.038 98.6607 257.667 92.8012 294.605 92.6122C278.234 89.966 257.037 84.1066 239.408 82.4054Z" fill="#416400"/>
    <path opacity="0.25" d="M1455.21 97.3378C1448.7 84.2958 1443.87 74.8451 1426.24 78.4364C1426.87 74.8451 1424.78 70.3087 1424.78 67.4735C1420.79 68.9856 1419.11 67.2845 1415.12 67.0955C1415.12 65.5834 1414.7 63.8822 1414.7 62.3701C1405.89 60.48 1402.95 66.3394 1404.84 73.522C1397.49 63.6932 1381.33 73.522 1383.85 84.8628C1377.55 83.7288 1371.89 85.0519 1371.26 91.1003C1369.37 90.7223 1366.85 91.4784 1364.75 91.1003C1362.02 89.0212 1356.36 89.9662 1351.95 89.3992C1348.8 89.0212 1347.12 82.7837 1338.1 86.375C1337.47 94.6916 1325.5 97.1488 1322.15 88.8322C1302.63 89.3992 1285.84 89.7772 1264.85 89.9663C1271.36 90.9113 1278.91 95.6367 1287.73 97.5268C1299.27 99.984 1311.44 99.606 1323.2 101.307C1344.39 104.331 1365.8 104.52 1386.79 101.874C1396.65 100.551 1399.8 101.307 1406.1 93.7465C1410.08 89.0212 1406.73 82.7837 1415.12 80.1375C1424.57 77.3023 1426.03 86.375 1430.23 88.8322C1436.53 92.6124 1445.97 92.4234 1442.82 102.252C1445.97 98.8499 1449.96 97.3378 1455.21 97.3378Z" fill="#416400"/>
  </g>
  <path d="M1524.05 107.545C1489 106.221 1453.95 106.788 1418.9 104.709C1396.86 103.386 1373.78 104.709 1351.74 101.307C1326.35 97.3378 1301.16 96.0146 1275.98 91.1003C1253.1 86.7529 1228.96 82.7836 1205.67 81.6495C1181.74 80.7045 1158.87 77.3022 1135.36 75.034C1111.85 72.7659 1087.72 74.467 1064.21 72.5768C1018.25 68.6075 970.82 66.3394 924.648 64.2602C852.241 61.236 779.835 64.0712 707.638 67.0954C649.713 69.5526 590.529 71.4428 533.863 79.0033C507.209 82.5946 478.876 82.4056 452.432 88.2651C439.21 91.1003 428.087 94.1245 414.865 95.2586C401.643 96.3927 385.273 102.819 372.26 100.74C367.014 96.2037 351.273 102.63 342.039 104.331C325.039 107.734 308.039 108.679 290.62 110.38C271.521 112.27 252.633 116.806 233.324 116.239C301.533 118.129 371.001 126.446 437.531 139.488C478.666 147.616 522.74 149.317 564.714 152.152C631.034 156.688 697.354 157.822 763.674 161.981C832.513 166.328 900.512 175.779 969.141 180.126C1019.09 183.339 1069.67 180.882 1119.41 179.181C1207.77 176.346 1294.02 162.737 1380.7 148.372C1419.74 141.945 1458.57 134.196 1497.6 126.635C1523.42 121.532 1549.86 120.02 1574 109.813C1559.72 105.465 1539.16 108.112 1524.05 107.545Z" fill="url(#paint0_linear_22057_76)"/>
  <path opacity="0.1" d="M389.257 95.0694C406.047 95.0694 417.59 97.9046 433.331 93.7463C440.257 91.8561 445.923 88.0758 452.849 86.3747C460.404 84.4845 468.589 85.8076 475.725 83.9175C470.688 88.2648 459.565 89.2099 460.824 97.3375C484.12 102.063 506.577 101.307 531.971 102.63C557.156 103.953 581.082 107.733 606.266 108.867C618.649 109.434 631.451 108.678 643.414 109.812C656.426 111.136 667.759 116.428 680.562 117.751C704.697 120.208 731.981 115.105 752.338 120.019C780.042 126.635 793.474 109.434 814.881 95.2584C810.054 108.111 795.572 117.184 794.313 132.872C806.066 134.951 807.115 123.422 815.3 119.074C828.313 135.896 846.152 136.842 868.398 136.842C884.978 136.842 900.089 143.457 916.669 144.402C933.039 145.536 934.719 140.433 947.101 134.573C970.187 123.611 1005.87 144.402 1029.37 149.506C1067.57 157.822 1115.63 152.53 1150.05 135.518C1162.01 129.659 1167.68 125.879 1181.95 125.312C1194.54 124.934 1207.13 124.745 1219.52 123.233C1227.49 122.287 1247.64 120.208 1250.37 111.514C1252.68 104.709 1244.7 102.441 1243.65 96.5815C1264.01 95.4474 1278.7 101.118 1298.22 103.953C1319.84 107.166 1345.02 103.008 1366.85 100.173C1404.84 95.2584 1445.55 97.3375 1483.96 99.0386C1487.53 117.94 1438.41 128.903 1425.82 134.573C1369.58 159.145 1308.71 180.504 1246.8 189.766C1164.95 202.052 1079.11 197.893 996.421 197.515C909.324 197.326 825.374 178.425 739.116 171.998C703.858 169.352 667.969 167.084 632.501 166.139C598.711 165.194 564.502 168.029 530.922 163.493C493.564 158.389 451.8 154.987 418.01 139.488C407.097 134.573 364.912 123.8 365.122 107.733C365.542 91.2891 397.652 95.0694 389.257 95.0694Z" fill="#F96715"/>
  <path d="M960.325 158.956C921.079 149.883 881.623 149.694 841.537 142.89C819.71 139.11 798.932 138.921 776.896 136.652C756.958 134.762 738.279 127.202 718.551 125.501C645.305 119.263 572.269 111.135 498.603 107.166C430.604 103.575 364.075 88.4538 295.656 86.9416C240.879 85.8076 181.904 85.4295 128.177 92.4231C80.1157 98.6605 28.2769 103.575 -15.3768 121.72C-16.0064 121.72 -16.636 121.72 -17.2656 121.72V330.014C8.75869 331.337 34.5731 333.795 60.8073 333.795C111.177 333.795 161.337 334.551 211.706 332.85C295.236 330.014 378.556 321.32 461.666 314.704C525.257 309.601 586.541 304.686 648.663 290.888C672.169 285.596 695.675 299.205 718.971 294.102C746.254 288.242 770.809 297.126 799.142 295.047C831.463 292.779 863.573 175.022 895.894 174.833C912.054 174.833 927.165 171.809 942.906 168.785C954.868 166.517 968.72 167.273 980.053 162.925C972.918 163.871 966.831 160.468 960.325 158.956Z" fill="url(#paint1_linear_22057_76)"/>
  <path d="M1661.93 1.50707C1654.38 3.01919 1648.71 6.98849 1643.88 12.2809C1636.12 5.28736 1630.03 0.751018 1619.33 4.90934C1608.42 9.06766 1610.3 13.415 1600.65 8.87863C1596.03 6.79947 1596.87 2.07411 1590.16 0.940021C1585.54 0.183963 1582.81 1.88508 1579.03 3.58621C1568.75 8.31158 1572.11 13.226 1568.54 21.1646C1556.37 17.7623 1542.51 22.4877 1543.14 35.9077C1521.53 21.9206 1513.55 50.6508 1513.97 64.0709C1509.14 60.1016 1501.38 58.7785 1496.55 63.6929C1491.94 56.6993 1478.29 55.1872 1475.98 65.0159C1459.4 44.2243 1437.16 71.0644 1436.32 86.3746C1430.65 80.1371 1421.63 85.6186 1419.11 91.856C1416.8 97.9045 1421.84 110.568 1408.62 103.953C1403.16 101.118 1402.11 95.2583 1395.39 92.9901C1388.47 90.5329 1383.22 92.4231 1377.13 95.2583C1373.78 96.7704 1375.04 98.8496 1370.63 99.7946C1367.9 100.362 1365.59 97.1484 1361.18 98.4715C1357.62 99.6056 1356.57 103.575 1354.05 104.709C1350.48 106.221 1350.69 105.087 1346.49 105.654C1334.95 106.977 1336.21 105.843 1329.7 113.971C1325.51 119.263 1324.04 120.775 1316.48 122.098C1302.21 124.745 1287.1 121.342 1278.91 133.061C1273.88 133.25 1267.16 138.354 1278.91 141.378C1291.09 144.591 1311.23 142.323 1324.04 142.323C1399.17 142.512 1474.52 143.268 1549.86 143.268C1587.22 143.268 1624.58 140.244 1661.93 140.811V1.50707Z" fill="#398230"/>
  <path opacity="0.35" d="M1661.93 33.6395C1650.39 38.9319 1647.03 52.1629 1652.91 68.4182C1638.64 59.3455 1621.22 74.2776 1618.07 86.1856C1607.78 80.3261 1595.19 85.0515 1592.67 96.0143C1592.67 88.4537 1589.95 73.5216 1598.55 68.4182C1604.64 64.8269 1610.93 65.0159 1613.45 71.2534C1614.92 56.1322 1631.29 50.0838 1645.98 53.108C1645.98 44.7914 1638.22 38.7429 1629.19 39.31C1628.77 33.6395 1632.34 30.0482 1638.43 30.8043C1624.78 14.7381 1615.13 15.3051 1600.65 30.8043C1595.82 20.4085 1587.22 21.3536 1575.88 23.0547C1584.49 22.1096 1589.11 27.9691 1587.01 35.3406C1596.45 33.2615 1612.19 32.1274 1611.98 44.2243C1601.28 43.2792 1591.83 46.8705 1597.92 56.8883C1583.02 54.2421 1563.08 61.0466 1578.19 75.7898C1547.34 74.2776 1561.61 86.7526 1562.87 103.575C1550.91 106.221 1547.34 105.654 1537.27 102.63C1533.7 101.496 1533.49 98.8495 1529.5 97.9045C1526.14 96.9594 1519.64 99.4166 1515.44 98.8495C1515.44 93.5571 1518.59 89.5878 1524.05 87.5087C1511.66 86.7526 1516.28 73.1435 1516.91 64.0708C1508.51 76.3568 1501.17 75.4117 1503.9 91.2889C1496.55 91.856 1484.17 86.9416 1478.71 93.9351C1471.58 103.386 1487.95 105.654 1484.38 113.404C1481.23 120.208 1455.84 113.971 1448.28 114.349C1443.66 121.72 1430.86 116.05 1422.89 117.373C1410.5 119.263 1408.61 121.531 1394.76 119.074C1380.91 116.617 1380.07 118.696 1368.53 122.287C1335.58 132.872 1294.02 126.257 1258.97 129.659C1221.83 133.25 1185.94 143.835 1149.42 148.938C1122.35 152.719 1094.01 149.316 1066.94 149.127C1011.53 148.56 957.177 154.42 901.77 154.609C849.512 154.798 798.932 152.341 746.884 152.341C698.403 152.341 653.49 162.547 607.108 172.565C584.861 177.48 564.923 181.449 541.837 179.559C520.43 177.858 498.394 174.266 476.777 171.62C431.864 165.95 385.062 161.98 344.346 182.583C316.433 196.57 278.656 195.814 246.965 191.656C239.829 190.711 229.965 191.656 222.83 190.144C215.694 188.631 209.398 182.772 202.472 180.315C188.83 175.4 167.213 168.029 152.102 171.242C137.831 174.266 128.806 188.253 113.905 191.278C106.14 192.79 95.6463 192.034 87.6711 191.656C80.5354 191.278 71.7207 191.089 64.1653 190.144C62.906 180.504 77.8071 165.005 73.8195 157.444C69.2022 148.749 47.1655 157.255 38.7706 160.09C31.0053 162.736 0.783495 168.407 -17.2656 166.139V267.261C-11.1793 266.505 -5.09296 303.363 0.363749 303.174C42.1286 301.662 84.1033 300.15 126.078 298.827C179.806 297.126 233.743 295.803 287.471 292.967C331.964 290.699 377.506 293.345 422 288.998C467.122 284.462 512.455 277.279 557.158 270.286C608.787 262.347 661.255 282.383 713.094 276.145C822.438 262.725 931.363 204.32 1041.13 201.673C1201.26 197.704 1361.18 191.278 1520.9 180.504C1566.86 177.48 1615.13 174.455 1661.93 168.218V33.6395Z" fill="#2D5601"/>
  <path d="M230.596 196.381C225.349 191.656 211.288 185.985 203.522 185.607C198.905 185.229 195.337 190.144 190.51 189.954C187.992 189.954 185.893 186.174 182.745 185.607C176.029 184.473 167.844 190.333 167.214 180.504C161.128 179.559 156.091 182.961 150.005 182.205C148.116 165.194 138.462 166.328 125.869 172.754C126.709 157.444 110.968 164.816 104.252 163.492C99.635 162.547 99.0053 157.066 91.6598 158.2C86.2031 158.956 82.2155 160.468 81.7957 166.706C80.5365 159.145 68.1539 152.908 58.9195 154.798C44.858 157.633 44.4382 171.053 35.8334 179.181C26.3891 172.187 15.6856 180.504 13.5868 190.522C4.98203 182.961 -6.35114 188.82 -17.0547 195.436V217.929C1.62405 223.788 24.7101 229.648 30.1668 231.349C55.7714 239.287 86.6228 236.452 113.067 233.428C131.955 231.349 150.424 227.757 168.893 222.843C184.214 218.685 242.349 213.77 256.62 206.777C270.262 200.161 236.682 202.051 230.596 196.381Z" fill="#386B1A"/>
  <path d="M447.814 173.132C443.197 171.998 440.888 173.7 436.271 172.943C432.493 172.376 432.703 165.761 426.407 171.053C422.629 167.651 417.383 168.785 413.395 170.864C410.667 165.572 404.37 168.974 399.124 168.785C399.543 158.956 388.63 164.438 383.803 165.572C385.482 149.128 361.136 151.585 363.865 167.462C359.248 162.548 352.532 164.438 351.482 170.864C348.124 170.297 345.186 169.541 342.877 166.706C334.902 169.73 337.421 175.401 333.853 180.504C330.285 185.418 307.619 198.838 301.742 200.918C320.211 196.948 452.222 199.027 481.394 197.893C476.147 192.412 454.53 175.023 447.814 173.132Z" fill="#398230"/>
  <path d="M850.77 160.846C856.436 160.279 862.522 160.657 868.189 160.468C874.275 160.279 880.152 159.334 886.448 158.956C898.411 158.2 910.164 157.444 922.546 157.444C934.719 157.444 946.472 155.365 958.225 154.042C972.286 152.341 986.348 154.042 1000.62 154.042C1009.01 154.042 1017.2 155.743 1025.59 155.932C1032.31 156.121 1039.03 155.932 1045.74 155.932C1055.19 155.932 1064.63 155.932 1073.87 156.31C1083.94 156.688 1112.27 154.798 1122.14 154.231C1142.28 152.908 1143.96 153.475 1163.9 150.262C1192.65 145.536 1220.57 137.409 1249.74 133.817C1259.39 132.683 1268.84 130.793 1278.49 129.848C1282.27 129.47 1285.21 128.336 1288.99 128.147C1303.47 127.958 1318.37 126.257 1333.06 125.501C1347.75 124.934 1362.02 125.312 1376.5 123.232C1383.22 122.287 1389.51 121.909 1396.23 122.476C1405.89 123.232 1417.64 123.988 1426.66 126.446C1417.43 128.903 1407.14 128.147 1397.7 128.525C1385.74 129.092 1373.56 130.226 1361.6 131.36C1334.53 133.817 1307.45 134.195 1280.59 138.165C1256.66 141.756 1232.74 145.725 1209.23 150.829C1147.74 163.871 1083.94 169.352 1020.98 168.218C972.706 167.273 924.435 162.358 876.164 162.358C867.979 161.98 856.016 164.06 850.77 160.846Z" fill="#867F0C"/>
  <path d="M1661.93 88.2652C1661.72 88.2652 1661.51 88.2652 1661.3 88.0762C1653.53 89.2103 1645.98 97.3379 1638.63 100.74C1631.5 103.953 1624.15 106.222 1616.81 109.057C1602.54 114.349 1588.47 115.861 1573.36 117.751C1537.26 122.477 1502.01 124.934 1464.65 124.934C1377.13 124.934 1287.94 125.879 1202.94 142.134C1187.62 144.97 1173.13 151.963 1157.39 154.987C1138.92 158.579 1127.59 161.792 1108.49 160.658C1047.84 157.255 990.335 151.396 929.051 158.957C895.472 163.115 861.052 160.658 827.053 158.957C782.35 156.499 741.005 159.335 696.722 165.005C643.624 171.81 590.526 183.907 544.773 207.155C527.983 215.661 546.662 219.063 559.045 223.033C571.007 227.002 583.18 227.002 595.562 228.325C614.031 230.404 631.661 235.508 649.92 238.91C684.759 245.336 718.968 255.165 753.387 262.915C795.572 272.554 836.497 272.365 879.941 272.365C911.212 272.365 942.483 274.445 973.755 271.609C1019.72 267.262 1065.68 280.304 1111.85 276.713C1214.9 268.396 1317.74 280.493 1420.79 280.493C1469.06 280.493 1516.49 274.256 1564.34 267.64C1596.66 263.104 1629.61 282.95 1661.93 278.036V88.2652Z" fill="url(#paint2_linear_22057_76)"/>
  <path opacity="0.7" d="M439.837 181.26C434.171 180.504 431.022 177.669 425.566 177.669C423.887 177.669 423.467 180.504 420.948 180.504C419.899 180.504 417.171 178.236 415.702 178.047C410.245 176.913 405.418 180.126 400.591 179.748C398.072 179.559 394.714 177.48 392.196 176.724C390.937 176.346 387.998 177.48 386.949 176.724C384.221 175.023 383.171 167.273 380.863 167.273C376.875 167.273 378.554 175.401 378.554 178.047C375.826 176.535 372.468 175.779 370.999 179.559C364.912 178.236 359.456 180.126 353.789 179.559C350.011 179.181 342.876 175.401 343.085 183.717C339.518 183.906 335.74 183.339 332.592 184.473C328.184 185.985 327.345 189.199 323.357 191.656C308.666 201.485 279.284 199.405 262.074 199.594C246.124 199.594 229.964 201.107 214.013 200.35C209.396 200.161 204.359 200.729 199.952 200.54C194.285 200.161 187.569 196.381 182.112 201.863C175.396 196.003 170.779 203.564 164.063 202.43C163.434 199.216 165.532 196.381 166.792 193.924C159.866 193.357 151.891 196.381 153.15 204.509C144.965 199.216 140.138 209.612 132.792 207.722C129.014 206.777 129.224 202.241 123.977 202.241C120.829 202.241 117.262 204.509 115.373 206.777C112.225 198.649 106.978 206.588 102.57 205.265C98.163 203.942 98.3729 196.381 91.8668 202.052C91.657 191.467 100.472 196.003 103.2 190.144C107.188 181.638 94.5952 181.449 89.7681 181.449C89.978 180.504 89.3483 178.992 89.5582 178.047C80.5337 176.913 80.3238 183.339 78.4349 189.199C75.2868 198.46 74.6572 189.388 66.0524 191.656C58.4969 193.735 62.4845 199.216 55.139 202.241C48.0033 205.265 44.0157 202.052 44.4354 212.447C38.7688 211.88 34.3615 210.557 29.3245 209.045C23.2382 207.344 19.8802 209.234 13.584 208.856C5.39894 208.478 -7.19347 196.948 -15.1687 201.674C-15.7983 201.485 -16.4279 201.485 -16.8477 201.296V210.179C-14.539 210.746 -12.4403 211.313 -10.5515 212.258C-5.51449 214.527 -1.31702 218.307 3.71995 220.764C33.3121 235.507 66.8919 243.257 100.052 243.446C145.594 243.824 192.186 235.696 237.309 230.026C263.753 226.624 289.778 219.63 316.222 215.472C369.11 207.344 425.985 195.247 479.923 194.68C466.911 192.979 452.639 182.961 439.837 181.26Z" fill="#2D5601"/>
  <path opacity="0.35" d="M594.515 192.79C630.193 199.028 666.501 194.68 702.599 198.65C708.056 199.217 720.439 199.406 724.426 203.186C728.834 207.533 724.216 209.99 725.685 214.149C729.253 225.112 741.636 223.221 752.969 223.221C782.351 223.221 809.425 221.142 838.388 216.795C865.881 212.637 892.535 203.753 920.028 200.162C928.004 199.217 938.917 196.948 938.707 206.021C938.497 213.582 926.534 216.795 926.534 224.734C948.151 225.679 967.879 221.331 988.867 220.197C1039.03 217.551 1086.25 209.423 1133.05 197.326C1133.47 194.113 1132.21 191.278 1129.27 189.766C1129.27 189.01 1129.48 186.931 1129.27 186.364C1134.31 185.23 1139.35 185.23 1144.8 185.041C1147.11 175.968 1117.52 171.621 1110.17 168.218C1103.25 165.005 1103.67 163.115 1095.48 161.603C1089.19 160.469 1082.05 160.091 1075.54 159.524C1061.27 158.2 1046.37 158.579 1032.52 156.121C1032.31 156.121 1032.31 156.121 1032.1 156.121C998.101 154.609 964.312 154.609 929.263 158.957C895.683 163.115 861.264 160.658 827.264 158.957C782.561 156.499 741.216 159.335 696.933 165.005C662.514 169.352 628.304 175.968 595.774 186.364C593.885 188.443 593.255 190.522 594.515 192.79Z" fill="url(#paint3_linear_22057_76)"/>
  <g opacity="0.25">
    <path d="M519.591 81.6495C511.616 85.4298 500.912 91.4783 495.875 98.6608C505.109 94.8805 513.504 88.265 522.529 83.7287C525.887 82.2166 529.035 80.7044 532.393 79.3813C528.825 79.7594 525.467 80.1374 521.899 80.5154C521.06 80.8935 520.43 81.2715 519.591 81.6495Z" fill="#57A100"/>
    <path d="M554.85 80.3266C548.134 84.6739 539.11 92.9906 537.641 100.362C541.418 95.0697 551.282 88.4542 557.579 83.7289C561.566 80.8936 565.764 77.6804 569.541 75.0342C567.023 75.2232 564.504 75.6012 561.986 75.7903C559.258 77.4914 556.739 79.1925 554.85 80.3266Z" fill="#57A100"/>
    <path d="M608.788 77.6801C598.294 83.9176 590.949 94.5024 585.492 104.331C599.973 91.1001 614.245 79.9482 628.516 70.6865C625.788 70.8755 623.06 71.0646 620.121 71.0646C615.924 73.5218 611.726 75.979 608.788 77.6801Z" fill="#57A100"/>
    <path d="M669.65 75.9786C661.465 81.271 653.07 88.4535 647.194 95.8251C643.836 100.172 641.317 104.898 639.219 109.434C649.712 94.124 668.391 79.5699 685.181 71.0642C687.07 70.1191 688.749 69.1741 690.428 68.229C688.119 68.418 685.811 68.418 683.292 68.607C678.465 70.6862 673.428 73.5214 669.65 75.9786Z" fill="#57A100"/>
    <path d="M700.291 97.9045C696.723 103.008 695.044 108.3 693.785 113.782C699.032 96.2034 722.958 79.9481 739.538 68.4182C741.217 67.2841 742.896 66.3391 744.575 65.583C742.476 65.583 740.587 65.772 738.488 65.772C722.958 73.5216 709.106 85.2405 700.291 97.9045Z" fill="#57A100"/>
    <path d="M795.994 68.0402C790.117 71.4425 784.031 74.4667 778.784 78.436C769.55 85.4296 761.994 94.1243 755.069 102.63C752.76 105.654 750.451 108.867 748.562 112.081C753.809 104.331 763.464 96.2034 769.76 90.533C778.574 82.5944 787.599 75.6008 797.463 68.6073C799.982 66.7171 802.71 65.205 805.019 63.5039C803.969 63.5039 802.92 63.5039 801.661 63.5039C799.772 65.3941 797.673 66.9062 795.994 68.0402Z" fill="#57A100"/>
    <path d="M884.14 84.8625C879.103 92.9901 875.536 101.874 872.178 110.19C870.708 113.782 869.869 117.94 869.449 121.72C871.128 113.782 877.634 104.331 881.412 98.2825C886.659 89.7769 892.955 81.2712 897.572 72.5765C898.831 70.1194 900.511 66.7171 902.609 63.6929C901.98 63.6929 901.14 63.6929 900.511 63.6929C894.214 69.9304 886.869 80.7042 884.14 84.8625Z" fill="#57A100"/>
    <path d="M939.339 65.0161C938.709 74.2778 933.252 86.5638 932.203 95.4475C930.734 107.922 931.154 120.208 932.832 132.494C932.832 119.83 936.19 107.544 938.079 95.2584C939.339 86.5638 942.697 74.6559 940.808 65.0161C940.388 65.0161 939.758 65.0161 939.339 65.0161Z" fill="#57A100"/>
    <path d="M987.819 75.9789C986.77 72.7656 985.721 69.9304 984.042 67.0952C983.622 67.0952 983.412 67.0952 982.992 67.0952C986.56 74.0888 988.029 82.4054 989.918 89.777C992.646 100.173 995.165 110.38 998.313 120.586C999.152 123.611 1000.41 127.958 1000.83 131.738C1000.83 122.287 1000.2 113.593 997.893 104.898C995.165 94.8804 990.757 85.4296 987.819 75.9789Z" fill="#57A100"/>
    <path d="M1035.67 70.3087C1034.2 70.1197 1032.73 70.1197 1031.05 69.9307C1037.77 75.4121 1044.49 81.6496 1048.68 87.887C1055.4 97.7158 1060.86 110.947 1065.05 121.721C1067.78 128.525 1071.35 135.33 1073.24 142.323C1073.03 118.507 1057.5 91.4783 1040.08 74.089C1038.61 72.5769 1037.14 71.4428 1035.67 70.3087Z" fill="#57A100"/>
    <path d="M1111.86 89.7767C1108.71 84.8623 1103.46 81.082 1098.42 77.6798C1096.32 76.1676 1094.23 75.0336 1092.13 73.7104C1090.45 73.7104 1088.77 73.7104 1087.09 73.7104C1090.24 75.6006 1093.81 77.3017 1095.9 79.0029C1100.73 82.7832 1104.09 87.5085 1108.29 92.0449C1116.89 101.307 1127.18 112.458 1131.37 123.61C1133.89 130.415 1137.04 136.652 1139.35 143.646C1140.4 130.037 1134.52 116.239 1125.08 105.465C1120.04 99.6054 1115.84 95.8252 1111.86 89.7767Z" fill="#57A100"/>
    <path d="M1181.74 99.9834C1172.93 92.0448 1166.63 83.3501 1154.67 77.8687C1154.04 77.4907 1153.41 77.3016 1152.57 76.9236C1149.21 76.5456 1145.85 76.1676 1142.5 75.7896C1152.36 80.3259 1164.32 86.7524 1166.63 88.8315C1171.25 92.9899 1176.29 97.9042 1180.27 102.441C1184.47 107.355 1189.93 111.135 1193.92 116.05C1198.11 120.964 1201.47 126.634 1205.88 131.36C1205.88 120.586 1189.3 106.599 1181.74 99.9834Z" fill="#57A100"/>
    <path d="M1221.2 86.7528C1219.94 84.1066 1217 82.9725 1213.02 82.0274C1210.92 81.8384 1209.03 81.8384 1206.93 81.6494C1212.39 84.1066 1217.63 87.1308 1221.83 89.21C1231.27 94.1244 1240.09 99.9838 1249.95 104.709C1255.2 107.355 1260.45 110.38 1264.64 114.538C1258.77 101.118 1235.05 90.9111 1221.2 86.7528Z" fill="#57A100"/>
  </g>
  <g opacity="0.25">
    <path d="M741.008 65.7725C738.07 68.9857 733.873 72.0099 730.934 75.0342C726.527 79.5705 724.009 84.2959 721.07 89.5883C716.873 97.1489 715.194 103.386 715.824 112.081C730.725 116.617 743.947 93.3686 755.28 87.3201C770.391 79.1925 785.082 68.9857 801.872 63.8823C781.514 64.2604 761.156 65.0164 741.008 65.7725Z" fill="url(#paint4_linear_22057_76)"/>
    <path d="M579.193 74.2777C576.884 75.6008 574.786 77.3019 572.897 78.814C567.23 83.3503 555.477 92.9901 556.946 100.74C562.823 102.063 569.749 94.8803 574.995 92.8011C581.501 90.1549 585.489 87.3197 591.575 84.1064C598.921 80.1371 611.304 73.5216 622.007 71.2534C607.526 72.0095 593.254 72.9546 579.193 74.2777Z" fill="url(#paint5_linear_22057_76)"/>
    <path d="M533.65 79.1922C531.971 79.3813 530.292 79.5703 528.613 79.7593C529.662 81.6494 523.366 86.1858 523.786 91.1002C535.749 93.1793 548.131 80.3263 559.254 75.979C550.65 77.1131 542.255 78.0582 533.65 79.1922Z" fill="url(#paint6_linear_22057_76)"/>
    <path d="M807.118 63.693C806.069 68.0404 799.562 72.3877 796.414 75.0339C789.489 81.0824 782.982 87.6979 777.106 94.6914C773.328 99.4168 763.884 110.002 765.353 116.428C774.587 119.641 779.415 112.837 784.661 107.922C791.167 101.496 800.822 98.2827 807.957 92.6123C822.858 80.7043 840.908 68.6074 860.006 63.126C842.377 63.126 824.747 63.315 807.118 63.693Z" fill="url(#paint7_linear_22057_76)"/>
    <path d="M730.091 66.3394C722.536 66.7174 714.981 66.9064 707.635 67.2844C702.178 67.4734 696.931 67.6624 691.475 68.0405C683.08 77.4912 655.376 101.685 663.981 108.301C670.487 113.215 686.857 94.3135 691.055 91.4783C699.66 85.8078 708.474 80.3264 716.869 74.656C720.647 72.0098 725.264 68.9856 730.091 66.3394Z" fill="url(#paint8_linear_22057_76)"/>
    <path d="M676.368 68.6074C661.467 69.1745 646.356 69.9305 631.245 70.6866C630.196 75.2229 593.468 110.947 621.171 99.7948C638.171 92.8013 649.295 80.5153 666.294 73.1438C669.442 71.8207 672.8 70.1195 676.368 68.6074Z" fill="url(#paint9_linear_22057_76)"/>
    <path d="M449.492 91.2893C449.912 91.8563 450.542 92.6124 450.961 92.9904C457.258 93.3684 464.813 94.1245 470.48 94.5025C478.665 94.8805 486.64 89.5881 493.985 86.9419C498.812 85.2408 503.43 83.3507 508.467 82.4056C509.936 82.2166 511.405 81.6495 513.084 81.2715C492.936 82.9726 472.159 83.9177 452.64 88.265C450.961 89.2101 449.912 90.1552 449.492 91.2893Z" fill="url(#paint10_linear_22057_76)"/>
    <path d="M1029.79 69.9302C1018.88 69.1742 1007.97 68.4181 997.055 67.8511C997.474 68.9852 998.104 70.1193 998.524 71.0643C999.993 74.8446 1001.04 78.2469 1003.35 81.6491C1005.24 84.4844 1008.6 86.3745 1010.49 89.2097C1017.83 101.496 1019.93 117.184 1035.88 123.799C1056.45 132.305 1044.91 108.678 1043.23 99.9835C1041.13 89.9658 1031.47 79.759 1029.79 69.9302Z" fill="url(#paint11_linear_22057_76)"/>
    <path d="M989.495 97.5266C988.656 87.8868 987.606 77.302 985.717 67.2842C971.866 66.5282 957.804 65.7721 943.953 65.2051C943.953 66.9062 943.743 68.6073 943.953 69.9304C945.212 76.1679 950.459 80.5153 952.348 86.3747C955.286 96.2035 953.607 108.111 959.483 117.184C962.841 122.476 978.582 131.738 985.088 126.446C988.656 123.611 985.927 117.373 986.767 113.782C988.236 107.733 990.125 103.953 989.495 97.5266Z" fill="url(#paint12_linear_22057_76)"/>
    <path d="M907.438 63.6934C904.29 71.632 896.945 80.8937 894.216 87.5092C891.698 93.9357 891.278 99.9842 890.019 106.411C889.179 110.569 885.402 116.428 885.821 120.398C886.451 127.391 896.735 131.172 903.241 128.336C907.229 126.635 915.414 118.508 918.142 115.294C921.71 110.758 922.549 103.953 924.438 98.8501C928.636 87.8872 932.204 75.4123 937.241 64.8275C933.043 64.6384 928.846 64.4494 924.648 64.2604C918.982 64.0714 913.105 63.8824 907.438 63.6934Z" fill="url(#paint13_linear_22057_76)"/>
    <path d="M896.523 63.504C886.029 63.315 875.326 63.126 864.832 63.126C860.635 67.6623 856.857 72.7657 854.129 75.979C846.783 85.4297 837.129 91.8562 833.141 102.441C831.252 107.355 830.623 111.325 829.783 116.806C828.734 123.233 827.055 126.635 836.079 123.422C843.845 120.775 851.19 115.483 856.437 110.191C862.733 103.764 868.82 97.3376 874.906 90.9111C880.573 85.0517 885.819 78.2471 890.647 71.6316C892.326 69.7415 894.214 66.3392 896.523 63.504Z" fill="url(#paint14_linear_22057_76)"/>
    <path d="M1087.93 73.7108C1079.95 73.5218 1071.98 73.3327 1064 72.5767C1055.82 71.8206 1047.42 71.2536 1039.03 70.6865C1041.13 72.9547 1042.81 75.6009 1044.69 77.6801C1050.15 83.5395 1058.76 85.9967 1064 91.8562C1069.88 98.6607 1073.03 102.819 1081.63 107.733C1088.14 111.325 1093.59 117.373 1100.31 120.397C1115 127.202 1112.48 113.026 1109.33 104.709C1105.56 93.5573 1090.45 85.6187 1087.93 73.7108Z" fill="url(#paint15_linear_22057_76)"/>
    <path d="M1254.36 87.131C1238.2 84.4848 1221.83 82.4056 1205.88 81.6495C1181.95 80.7045 1159.07 77.3022 1135.57 75.034C1123.4 73.8999 1111.01 73.7109 1098.84 73.7109C1101.36 75.2231 1103.67 77.3022 1105.56 79.3814C1112.06 86.5639 1114.37 90.1552 1123.81 94.3135C1135.57 99.4169 1142.28 110.569 1154.67 114.538C1163.48 117.184 1170.62 115.861 1164.32 106.599C1160.75 101.118 1144.17 92.8014 1156.56 89.3992C1163.69 87.32 1167.05 90.9113 1172.09 94.6916C1179.43 99.984 1185.94 102.252 1195.17 103.764C1198.95 104.331 1207.34 106.599 1210.28 103.575C1213.01 100.74 1209.23 99.0389 1212.8 96.3927C1221.41 90.1552 1252.89 103.386 1254.57 89.0211C1254.36 88.2651 1254.36 87.698 1254.36 87.131Z" fill="url(#paint16_linear_22057_76)"/>
  </g>
  <path opacity="0.6" d="M790.329 137.975C785.502 137.597 780.674 137.219 775.638 136.841C757.169 135.14 739.749 129.47 721.7 126.824C715.824 126.635 710.157 126.257 705.12 125.879C688.33 124.366 671.75 122.854 654.96 120.964C618.442 117.751 581.924 114.727 545.406 111.891C540.159 111.702 535.122 111.324 529.876 110.757C511.617 109.434 493.358 109.245 475.309 107.355C412.346 100.929 358.619 87.5086 284.743 85.9964C255.361 85.4294 203.732 87.5086 173.301 88.0756C153.782 89.0207 119.363 93.368 100.474 95.6362C56.8208 100.74 -10.7585 116.428 -17.0547 123.421V125.311C-16.2152 125.879 -14.5362 126.446 -11.8079 126.635C1.62405 137.408 36.6729 132.872 54.9319 132.872C81.376 132.872 108.66 125.879 135.104 129.281C173.091 134.384 208.979 153.475 248.435 157.066C256.201 157.822 280.966 160.846 287.052 155.554C292.719 150.639 285.793 141 286.212 134.195C309.508 120.964 361.137 131.171 385.902 136.463C421.791 144.024 458.938 147.048 495.876 149.316C514.135 150.45 545.406 160.657 561.147 149.316C551.283 141 540.579 136.274 564.085 133.25C584.233 130.604 608.368 132.116 628.726 133.061C667.763 134.573 705.75 140.244 744.786 141.945C755.909 142.323 785.502 145.536 793.057 139.488C792.008 138.732 791.168 138.353 790.329 137.975Z" fill="url(#paint17_linear_22057_76)"/>
  <path opacity="0.5" d="M1640.95 136.086C1631.29 135.708 1582.81 160.091 1583.44 170.108C1598.55 175.59 1611.35 163.493 1626.25 165.761C1622.48 181.449 1636.96 174.267 1647.66 171.999C1653.12 170.864 1657.94 170.297 1662.14 169.163V125.501C1653.12 130.604 1644.3 134.763 1640.95 136.086Z" fill="url(#paint18_linear_22057_76)"/>
  <path opacity="0.7" d="M68.1539 223.032C66.2651 221.898 64.1664 220.953 61.8577 220.008C36.8828 216.227 13.5868 209.045 -10.5486 198.082C-10.5486 198.271 -13.4868 196.381 -13.277 196.57C-14.5362 195.814 -15.7954 194.869 -17.0547 194.113V261.024C-7.61038 261.969 4.35241 261.024 8.54988 254.597C15.8955 243.068 -5.30177 242.122 -1.31418 230.404C16.1053 229.648 31.2162 233.995 48.6357 233.995C59.5491 233.995 85.7833 233.806 68.1539 223.032Z" fill="url(#paint19_linear_22057_76)"/>
  <path opacity="0.7" d="M469.639 254.22C497.972 268.018 535.749 272.554 567.86 271.987C574.786 271.798 581.292 272.554 585.909 266.884C589.687 262.347 585.279 254.976 589.057 251.384C599.131 241.556 642.365 243.257 654.957 244.391C676.365 246.47 704.697 250.439 732.611 248.738C756.956 247.415 728.623 236.641 716.87 235.129C678.883 230.215 658.735 227.191 617.39 221.52C615.501 221.331 610.884 220.575 608.995 220.008C557.996 210.179 508.676 195.814 455.997 193.546C395.554 190.9 332.802 194.68 273.407 201.863C225.346 207.533 181.903 220.197 134.681 223.221C121.039 229.837 321.259 182.016 469.639 254.22Z" fill="url(#paint20_linear_22057_76)"/>
  <g opacity="0.25">
    <path d="M869.659 184.284C862.733 186.741 856.017 189.387 849.301 191.844C836.498 196.57 824.326 201.862 811.524 206.587C797.252 211.88 786.758 217.55 775.215 226.434C769.339 230.97 762.833 232.671 756.747 236.641C750.241 240.799 744.574 244.768 739.117 249.683C747.932 241.366 762.203 237.397 773.327 232.482C784.87 227.19 794.524 218.873 806.487 214.526C820.968 209.423 834.4 203.563 848.881 197.893C862.523 192.6 875.745 184.095 889.806 181.448C895.263 180.503 900.72 179.558 905.967 178.613C893.794 180.314 881.831 182.205 869.659 184.284Z" fill="#4A8300"/>
    <path d="M984.041 170.485C973.967 175.4 963.893 181.637 954.658 187.686C944.794 194.301 936.819 199.216 929.054 208.099C925.486 212.258 920.869 215.66 917.511 219.818C913.733 224.355 912.264 229.647 908.276 234.183C901.351 242.311 894.635 251.762 891.906 261.401C901.98 244.012 922.338 232.482 936.609 218.117C940.387 214.337 942.696 209.422 946.263 205.453C950.461 200.917 956.547 197.893 960.955 193.545C968.09 186.552 975.646 182.582 983.411 176.345C988.238 172.565 993.695 169.54 998.942 166.327C996.213 166.705 993.695 167.083 990.966 167.272C988.868 168.406 986.349 169.351 984.041 170.485Z" fill="#4A8300"/>
    <path d="M1088.14 163.303C1079.74 170.486 1071.14 178.235 1064.42 186.93C1052.67 202.429 1047 220.386 1037.35 237.019C1032.94 244.39 1031.47 251.951 1029.38 259.512C1032.1 252.896 1037.77 246.47 1040.92 240.61C1045.12 233.049 1049.31 225.111 1054.14 217.928C1060.02 209.234 1066.31 201.295 1071.98 192.411C1078.28 182.583 1087.09 176.345 1095.07 168.028C1099.89 162.925 1103.46 157.066 1106.82 152.529C1106.4 152.529 1105.77 152.718 1105.35 152.718C1099.26 156.499 1091.08 160.657 1088.14 163.303Z" fill="#4A8300"/>
    <path d="M1190.98 144.78C1192.44 150.639 1185.73 166.138 1184.47 170.675C1181.74 180.125 1179.43 187.686 1178.38 197.326C1177.33 205.642 1174.4 214.148 1173.56 222.465C1172.72 230.592 1173.14 239.287 1172.3 247.226C1171.46 254.786 1170.83 265.938 1175.02 272.365C1174.61 255.164 1180.48 236.452 1185.1 219.819C1189.93 202.24 1192.65 182.394 1193.91 164.437C1194.12 160.657 1194.54 156.877 1194.54 152.907C1194.54 149.316 1193.28 146.859 1191.6 144.969C1191.39 144.78 1191.18 144.78 1190.98 144.78Z" fill="#4A8300"/>
    <path d="M1289.62 146.103C1285.21 138.542 1282.9 134.195 1276.18 131.549C1275.56 131.549 1274.72 131.549 1274.09 131.738C1279.12 136.841 1282.9 149.694 1284.37 153.475C1287.52 162.358 1290.25 171.62 1292.34 180.693C1296.54 199.405 1300.32 218.874 1304.52 237.586C1306.62 247.226 1309.97 256.676 1309.97 267.072C1315.85 247.226 1306.2 224.166 1303.89 204.13C1301.37 184.473 1299.69 163.492 1289.62 146.103Z" fill="#4A8300"/>
    <path d="M1486.69 237.208C1481.65 229.08 1474.3 223.032 1469.48 214.526C1460.87 199.216 1447.44 189.198 1435.69 175.967C1431.07 170.675 1428.55 164.248 1423.51 159.145C1418.27 153.852 1413.02 146.859 1407.35 142.511C1403.58 139.487 1398.12 138.353 1393.92 135.707C1389.94 133.061 1386.58 129.848 1382.17 127.957C1381.12 127.39 1379.86 127.012 1378.81 126.634C1375.24 126.823 1371.47 127.201 1367.9 127.39C1375.66 130.982 1383.43 136.841 1388.05 140.621C1394.13 145.536 1398.54 150.45 1403.16 156.688C1407.77 162.736 1414.91 167.083 1420.79 172.187C1432.96 182.772 1440.09 195.625 1450.38 207.722C1461.29 220.575 1470.53 234.562 1481.23 247.226C1487.32 254.408 1495.5 261.78 1499.49 270.285C1502.43 276.901 1503.9 283.138 1508.09 289.187C1510.19 292.4 1512.71 295.613 1515.02 298.638C1507.04 286.73 1503.9 272.365 1496.76 260.268C1492.35 253.274 1491.09 244.39 1486.69 237.208Z" fill="#4A8300"/>
    <path d="M1671.17 232.483C1668.65 227.946 1665.29 223.788 1661.51 219.441C1655.22 212.258 1648.92 204.508 1642.2 197.704C1635.49 190.899 1629.19 184.851 1620.38 180.693C1611.14 176.156 1602.75 172.565 1594.77 166.138C1577.56 152.529 1556.79 142.512 1536.64 133.25C1529.92 130.226 1522.16 127.39 1514.6 125.122C1506.42 124.933 1498.02 124.933 1489.84 125.122C1500.12 128.714 1510.19 134.195 1520.06 137.597C1529.08 140.81 1537.06 144.402 1545.87 148.371C1554.48 152.34 1565.18 154.798 1572.95 159.712C1580.29 164.248 1587.22 170.108 1594.56 174.833C1603.8 180.693 1614.08 184.851 1622.9 191.277C1631.5 197.515 1634.65 206.588 1641.99 213.959C1649.13 220.953 1654.59 228.513 1661.72 235.318C1665.29 238.72 1668.23 242.689 1670.96 246.848V232.483H1671.17Z" fill="#4A8300"/>
  </g>
  <path opacity="0.08" d="M863.362 264.237C857.276 268.018 811.943 288.242 822.856 299.205C827.893 304.309 846.782 296.559 853.498 295.803C864.201 294.48 874.485 292.401 884.349 287.675C905.546 277.658 926.534 267.262 946.052 255.354C956.546 249.116 967.249 246.281 978.372 240.989C980.891 239.855 985.298 237.964 989.496 235.885C981.94 236.83 974.175 237.775 966.62 238.72C947.731 240.989 928.842 243.446 909.954 246.092C909.324 246.281 908.485 246.47 907.855 246.659C892.115 250.817 876.794 256.11 863.362 264.237Z" fill="white"/>
  <path opacity="0.08" d="M985.929 247.226C982.151 251.006 980.053 255.543 975.855 259.134C970.399 263.859 969.349 266.127 965.991 271.987C959.485 283.517 951.3 290.321 952.349 304.119C956.547 305.82 960.325 302.418 963.892 303.552C967.67 304.875 965.991 309.601 970.608 311.869C974.596 313.759 980.892 312.436 984.25 310.924C987.398 309.601 989.707 307.522 993.065 306.766C995.583 306.198 998.522 306.766 1000.83 306.009C1012.58 302.418 1022.45 289.376 1030.21 281.249C1035.04 276.145 1040.5 271.609 1045.32 266.316C1049.52 261.591 1051.83 255.732 1056.24 251.006C1064.21 242.123 1081.84 234.94 1085.41 223.41C1084.99 223.41 1084.36 223.41 1083.94 223.41C1058.97 226.623 1033.99 230.026 1009.02 233.239C1005.45 235.129 1002.3 237.586 998.522 239.098C993.694 241.177 989.707 243.635 985.929 247.226Z" fill="white"/>
  <path opacity="0.08" d="M1109.13 230.215C1107.45 233.05 1109.13 237.208 1107.66 240.421C1103.88 249.305 1094.23 255.354 1095.27 266.127C1095.9 272.932 1099.26 280.871 1100.94 287.675C1102.41 294.291 1103.67 302.229 1111.85 304.119C1120.88 306.199 1130.95 299.961 1137.46 295.425C1152.78 284.462 1165.16 265.182 1171.04 248.738C1174.19 240.043 1176.71 232.672 1177.96 223.788C1178.38 220.197 1181.32 217.929 1177.34 215.094C1176.92 214.715 1176.29 214.526 1175.87 214.148C1166.63 214.904 1157.4 215.661 1148.16 216.417C1146.69 216.795 1145.43 216.984 1144.38 216.984L1145.22 216.606C1141.45 216.984 1137.88 217.362 1134.1 217.74C1128.85 219.063 1123.82 220.953 1118.78 223.977C1116.26 225.489 1110.6 227.946 1109.13 230.215Z" fill="white"/>
  <path opacity="0.08" d="M1201.47 145.536C1198.95 152.341 1203.78 160.468 1203.78 168.218C1203.78 176.913 1203.99 186.174 1205.25 194.869C1206.51 203.753 1213.01 206.777 1218.68 212.258C1226.44 219.819 1232.95 216.228 1243.65 216.228C1248.69 216.228 1254.99 217.362 1259.81 216.228C1264.64 215.282 1265.48 212.447 1269.05 209.612C1277.44 202.807 1278.91 200.161 1280.59 189.955C1281.22 186.363 1283.74 181.449 1283.53 177.858C1283.32 173.888 1280.59 171.431 1279.54 167.462C1278.49 163.114 1280.17 158.389 1279.12 154.042C1278.07 149.505 1274.93 146.481 1273.04 142.323C1271.15 138.543 1271.57 136.274 1268.21 134.573C1247.43 135.896 1226.86 137.219 1206.09 138.732C1204.2 140.433 1202.52 142.701 1201.47 145.536Z" fill="white"/>
  <path opacity="0.08" d="M1296.33 153.097C1302.42 159.901 1306.62 164.816 1311.03 172.944C1316.27 182.394 1318.16 190.9 1329.7 194.869C1335.79 196.948 1342.3 197.893 1347.96 201.296C1353.21 204.509 1357.41 210.368 1363.28 212.448C1368.53 214.338 1375.25 213.015 1380.91 214.527C1386.16 215.85 1391.2 218.307 1396.65 218.874C1404.42 220.008 1416.8 214.905 1414.07 205.454C1412.81 201.296 1407.57 199.217 1406.31 194.68C1404.42 188.065 1406.73 186.931 1401.48 181.26C1393.93 173.133 1389.52 162.737 1385.11 152.908C1382.8 147.805 1382.38 144.591 1377.35 141.378C1372.1 138.165 1365.59 133.628 1359.09 129.659C1353 130.037 1347.12 130.415 1341.04 130.793C1324.25 131.549 1307.67 132.494 1290.88 133.439C1290.04 133.818 1289.2 134.385 1288.57 134.952C1282.69 139.677 1291.51 147.805 1296.33 153.097Z" fill="white"/>
  <path opacity="0.08" d="M1413.23 140.811C1420.79 145.536 1426.04 151.396 1435.06 154.987C1450.8 161.413 1464.44 169.541 1482.07 168.785C1495.09 168.218 1506.84 171.998 1519.85 172.754C1523.21 172.943 1532.86 173.699 1533.91 168.974C1534.54 165.95 1526.99 157.633 1524.68 155.365C1520.69 151.018 1516.28 146.859 1512.29 142.701C1502.22 132.494 1490.26 130.982 1473.68 124.745C1448.91 125.501 1424.15 127.58 1399.59 129.659C1397.7 139.11 1406.31 136.464 1413.23 140.811Z" fill="white"/>
  <path opacity="0.08" d="M1540 130.604C1540.21 134.384 1557.42 141.378 1560.98 141.945C1566.65 142.89 1569.59 142.701 1574.63 145.347C1578.4 147.426 1582.18 149.695 1586.59 150.64C1592.46 151.963 1603.8 150.073 1608.62 146.292C1621.01 136.275 1585.33 130.793 1580.71 128.525L1575.88 128.147C1564.34 128.525 1552.8 128.525 1541.47 128.336C1540.42 129.092 1540 129.848 1540 130.604Z" fill="white"/>
  <path d="M1657.74 248.275C1657.74 247.897 1657.53 247.519 1657.53 247.141C1650.6 244.873 1647.66 251.489 1641.58 251.3C1642.21 248.275 1643.47 244.873 1645.35 242.038C1641.37 245.251 1634.44 248.653 1631.29 251.3C1631.71 249.787 1631.08 247.897 1631.5 246.385C1629.4 247.897 1626.68 248.842 1624.37 249.22C1624.37 246.196 1624.58 242.794 1626.47 240.337C1623.11 243.55 1619.54 247.141 1615.76 249.976C1616.18 248.653 1615.55 246.763 1615.97 245.251C1613.45 247.141 1611.35 249.409 1608.63 249.976C1608.42 249.031 1608 248.086 1607.79 247.141C1606.32 248.275 1603.59 249.409 1602.12 250.922C1599.81 248.464 1582.18 249.976 1576.94 248.842C1566.86 246.574 1555.74 247.708 1545.87 250.544C1546.92 245.44 1551.75 239.77 1557 237.312C1545.66 237.312 1538.74 243.55 1531.81 250.165C1532.02 247.519 1532.02 245.062 1532.23 242.416C1528.87 243.172 1524.47 245.251 1521.53 247.708C1521.32 246.574 1520.27 245.062 1520.27 243.55C1519.01 244.873 1516.07 246.574 1514.6 247.897C1514.18 246.196 1512.29 244.306 1512.08 242.794C1511.24 244.495 1509.15 245.629 1508.1 247.33C1507.47 246.385 1505.79 245.818 1505.16 244.306C1504.11 245.629 1501.38 246.952 1500.33 248.086C1497.6 243.172 1489.21 250.922 1483.12 248.086C1475.15 244.495 1479.13 231.453 1473.47 226.161C1473.47 230.508 1475.36 244.306 1470.32 245.629C1469.69 241.849 1468.85 237.502 1465.07 235.422C1464.86 239.959 1459.2 248.653 1456.47 239.581C1449.96 244.684 1452.48 243.172 1445.76 242.983C1441.15 242.794 1436.74 244.306 1432.12 244.117C1432.33 239.959 1432.33 235.233 1433.8 231.453C1430.65 235.611 1425.41 239.203 1421.21 242.416C1421.21 241.282 1420.16 239.014 1420.37 237.69C1417.01 239.014 1411.14 245.062 1409.88 238.825C1407.99 239.959 1404.63 240.148 1402.74 241.093C1402.32 239.581 1400.43 237.691 1400.01 236.367C1399.38 236.934 1398.12 237.501 1397.7 238.069C1394.35 234.666 1392.88 229.752 1388.68 227.295C1388.68 231.453 1389.73 236.934 1386.58 240.148C1384.27 237.88 1382.38 235.422 1380.91 232.587C1380.91 234.288 1379.65 236.178 1379.44 237.88C1377.98 236.934 1375.25 236.745 1373.78 235.422C1373.57 236.745 1371.89 238.069 1371.47 239.392C1369.79 238.636 1367.27 237.88 1365.8 236.178C1365.17 237.501 1362.86 238.825 1362.23 239.959C1360.98 237.88 1359.09 238.258 1357.62 236.934C1354.68 238.825 1351.32 241.282 1347.96 241.471C1348.17 239.392 1346.7 236.556 1346.28 235.044C1340.62 241.471 1333.27 241.471 1325.72 244.117C1325.72 239.959 1327.19 235.233 1328.65 231.453C1326.77 235.044 1322.15 237.691 1318.37 239.959C1318.58 237.501 1318.37 235.044 1318.16 232.587C1316.48 234.099 1313.54 235.044 1311.86 236.367C1311.86 235.233 1310.61 233.532 1310.61 232.587C1308.3 233.721 1305.99 234.855 1303.68 235.989C1303.47 234.288 1301.79 238.447 1301.79 236.556C1296.33 238.258 1291.93 243.928 1286.05 244.495C1283.74 239.77 1285.63 233.343 1286.26 228.429C1283.32 232.209 1277.24 238.069 1272.41 240.148C1272.2 238.447 1270.73 236.367 1270.73 234.477C1269.89 235.611 1267.58 236.556 1266.53 237.88C1265.9 237.312 1264.85 236.934 1264.22 236.556C1263.38 237.88 1261.5 238.825 1260.66 240.148C1259.61 240.148 1259.19 239.581 1258.35 239.014C1257.72 239.581 1257.3 240.148 1256.67 240.715C1253.1 235.422 1249.53 238.069 1246.38 242.227C1243.87 240.526 1242.19 238.069 1240.09 235.989C1236.1 238.258 1234.63 242.794 1230.01 240.526C1226.66 238.825 1223.72 229.374 1220.78 226.35C1222.88 231.075 1224.14 236.367 1219.73 240.526C1215.32 238.447 1214.06 231.264 1209.24 229.941C1208.4 233.91 1208.4 237.88 1207.77 241.849C1207.14 240.526 1205.46 239.392 1204.83 237.88C1203.99 240.526 1202.94 243.172 1201.26 245.44C1200 243.55 1198.11 241.849 1197.27 239.77C1197.06 241.093 1195.39 242.794 1195.18 244.306C1194.13 243.172 1191.61 242.605 1190.56 241.282C1190.14 242.794 1187.41 244.684 1186.78 245.818C1185.1 244.306 1183 243.361 1181.95 241.093C1180.9 242.038 1178.18 242.605 1177.13 243.928C1167.26 239.014 1168.31 243.928 1158.03 244.117C1151.1 244.306 1153.83 241.66 1148.37 237.88C1144.6 239.959 1146.06 245.062 1140.82 246.574C1140.4 245.062 1138.51 242.983 1138.93 240.526C1137.04 242.794 1134.73 245.062 1132 246.574C1126.76 242.605 1128.23 233.91 1133.47 230.13C1127.39 233.343 1124.87 240.715 1123.19 246.574C1121.3 244.117 1120.67 241.282 1118.36 239.392C1116.26 241.471 1113.53 243.172 1110.6 243.928C1110.18 241.849 1107.87 239.959 1107.24 238.447C1105.35 240.148 1102.83 240.337 1100.94 241.093C1100.52 239.392 1098.84 237.88 1098.42 236.745C1097.37 238.447 1095.28 239.203 1094.02 240.715C1091.92 236.556 1089.61 232.209 1085.83 229.185C1086.04 233.343 1087.51 238.069 1083.94 241.282C1082.89 240.148 1079.74 239.014 1078.91 237.69C1077.86 247.141 1062.75 242.038 1060.86 235.989C1060.65 238.636 1058.76 239.392 1056.45 240.715C1055.61 238.825 1053.51 237.501 1052.04 236.178C1050.99 240.337 1046.79 236.367 1044.91 231.453C1033.99 246.385 1033.99 228.429 1031.05 226.728C1030.84 232.587 1028.54 238.636 1022.66 241.471C1022.45 239.959 1021.19 238.069 1021.19 236.556C1018.46 239.392 1016.78 246.385 1011.12 244.873C1009.02 244.306 1009.23 240.904 1007.34 239.581C1005.24 238.069 1001.88 237.312 999.363 236.934C999.573 239.77 998.944 242.794 996.215 244.495C992.228 238.069 982.364 230.13 973.339 230.697C979.006 238.069 988.87 242.227 985.722 253.379C981.104 250.544 979.215 245.062 972.08 243.928C972.08 247.33 973.549 250.922 973.129 254.513C968.722 254.891 967.253 250.732 963.685 249.031C962.635 252.434 960.537 253.001 957.389 253.379C955.71 253.568 953.611 250.543 951.722 250.354C950.673 250.354 950.043 253.19 949.204 253.19C946.265 253.001 943.327 250.922 940.809 251.111C937.661 251.3 936.191 255.269 931.784 254.135C929.475 249.409 930.315 242.227 932.204 237.69C926.117 240.904 924.019 245.251 920.241 249.787C918.142 247.708 916.253 244.117 912.895 243.55C910.167 252.056 905.34 240.904 901.562 248.275C895.896 242.605 891.698 250.354 887.501 244.495C882.464 260.75 874.908 238.636 865.254 236.934C865.254 242.416 867.773 246.574 866.723 252.434C862.526 251.678 859.797 246.574 856.859 243.928C857.069 245.629 856.02 247.708 856.02 249.409C853.081 249.22 851.402 250.355 850.353 252.623C848.464 250.733 845.736 249.22 842.798 249.22C842.588 249.787 842.588 250.543 842.378 251.111C837.971 251.3 834.403 248.842 830.205 248.653C828.946 248.653 827.687 248.842 826.428 249.031C825.168 248.842 823.909 248.653 822.65 248.653C818.662 248.842 814.885 251.3 810.477 251.111C810.267 250.543 810.267 249.787 810.057 249.22C807.119 249.22 804.601 250.733 802.502 252.623C801.453 250.355 799.774 249.031 796.835 249.409C796.835 247.708 795.786 245.44 795.996 243.928C793.058 246.574 790.329 251.678 786.132 252.434C785.083 246.574 787.601 242.416 787.601 236.934C777.947 238.636 770.601 260.75 765.354 244.495C761.157 250.354 756.75 242.605 751.293 248.275C747.305 241.093 742.688 252.245 739.96 243.55C736.602 244.306 734.923 247.708 732.614 249.787C728.836 245.251 726.738 240.904 720.651 237.69C722.54 242.227 723.38 249.409 721.071 254.135C716.454 255.08 715.195 251.3 712.047 251.111C709.528 250.922 706.59 252.812 703.652 253.19C702.812 253.19 702.392 250.354 701.133 250.354C699.244 250.543 697.146 253.568 695.466 253.379C692.318 253.19 690.22 252.434 689.17 249.031C685.602 250.732 684.343 254.891 679.726 254.513C679.306 251.111 680.775 247.519 680.775 243.928C673.64 245.062 671.541 250.544 667.134 253.379C663.985 242.227 674.059 238.069 679.516 230.697C670.492 230.13 660.628 238.069 656.64 244.495C653.912 242.983 653.282 239.959 653.492 236.934C650.973 237.501 647.825 238.069 645.517 239.581C643.628 240.904 643.838 244.306 641.739 244.873C636.072 246.385 634.393 239.203 631.665 236.556C631.665 238.069 630.406 239.959 630.196 241.471C624.319 238.636 621.801 232.587 621.801 226.728C618.863 228.429 618.863 246.196 607.949 231.453C606.06 236.556 601.863 240.337 600.814 236.178C599.344 237.501 597.246 238.825 596.406 240.715C594.098 239.392 592.209 238.636 591.999 235.989C590.11 242.038 574.999 247.141 573.95 237.69C573.11 239.014 569.752 240.148 568.913 241.282C565.135 238.069 566.814 233.532 567.024 229.185C563.246 232.209 560.938 236.556 558.839 240.715C557.789 239.203 555.481 238.447 554.431 236.745C554.012 238.069 552.123 239.392 551.913 241.093C549.814 240.337 547.506 240.148 545.617 238.447C544.987 239.959 542.679 241.849 542.259 243.928C539.321 243.172 536.592 241.471 534.493 239.392C532.395 241.471 531.555 244.306 529.666 246.574C527.987 240.715 525.679 233.343 519.383 230.13C524.63 233.721 526.099 242.605 520.852 246.574C518.123 245.062 515.815 242.794 513.926 240.526C514.346 242.983 512.457 244.873 512.037 246.574C506.79 244.873 508.259 239.959 504.482 237.88C498.815 241.66 501.543 244.306 494.827 244.117C484.544 243.928 485.593 239.014 475.729 243.928C474.68 242.605 471.951 242.038 470.902 241.093C469.853 243.361 467.754 244.306 466.075 245.818C465.445 244.495 462.927 242.605 462.297 241.282C461.248 242.794 458.729 243.361 457.68 244.306C457.47 242.983 455.791 241.093 455.581 239.77C454.742 241.849 452.853 243.55 451.594 245.44C449.915 243.172 448.865 240.337 448.026 237.88C447.396 239.392 445.717 240.526 445.087 241.849C444.458 237.88 444.458 233.91 443.618 229.941C438.791 231.453 437.532 238.447 433.125 240.526C428.717 236.367 429.977 231.075 432.075 226.35C429.137 229.185 426.409 238.825 422.841 240.526C418.224 242.794 416.755 238.258 412.767 235.989C410.668 238.069 408.989 240.526 406.471 242.227C403.323 238.069 399.755 235.422 396.187 240.715C395.767 240.148 395.138 239.581 394.508 239.014C393.668 239.392 393.249 240.148 392.199 240.148C391.36 238.825 389.471 237.88 388.631 236.556C388.002 237.123 386.952 237.501 386.323 237.88C385.273 236.556 382.965 235.611 382.125 234.477C382.125 236.367 380.656 238.258 380.446 240.148C375.619 238.258 369.533 232.209 366.595 228.429C367.224 233.343 369.113 239.77 366.805 244.495C360.928 243.928 356.731 238.258 351.064 236.556C351.064 238.447 349.385 234.288 349.175 235.989C347.077 234.855 344.558 233.721 342.249 232.587C342.249 233.532 340.99 235.422 340.99 236.367C339.311 234.855 336.373 234.099 334.694 232.587C334.274 235.044 334.274 237.501 334.484 239.959C330.916 237.691 326.299 235.044 324.2 231.453C325.669 235.044 327.139 239.77 327.139 244.117C319.793 241.471 312.237 241.471 306.571 235.044C306.151 236.367 304.892 239.392 304.892 241.471C301.534 241.282 298.176 239.014 295.238 236.934C293.769 238.258 291.88 237.88 290.621 239.959C289.991 238.825 287.682 237.501 287.053 236.178C285.584 237.88 283.065 238.447 281.386 239.392C280.966 238.069 279.287 236.745 279.077 235.422C277.608 236.934 274.67 236.934 273.411 237.88C273.411 236.178 272.152 234.288 271.942 232.587C270.473 235.422 268.584 237.88 266.275 240.148C263.127 236.934 264.176 231.453 264.176 227.295C259.979 229.941 258.3 234.855 255.152 238.069C254.522 237.501 253.473 236.934 252.843 236.367C252.633 237.691 250.535 239.581 250.115 241.093C248.016 240.148 244.868 239.959 242.979 238.825C241.72 245.062 235.844 239.014 232.486 237.69C232.486 239.014 231.436 241.282 231.646 242.416C227.449 239.203 222.202 235.611 219.054 231.453C220.523 235.233 220.523 239.959 220.733 244.117C216.115 244.495 211.498 242.794 207.091 242.983C200.375 243.361 202.893 244.873 196.387 239.581C193.659 248.464 187.992 239.959 187.783 235.422C184.005 237.502 183.165 241.849 182.536 245.629C177.499 244.306 179.388 230.508 179.388 226.161C173.721 231.453 177.709 244.495 169.733 248.086C163.647 250.922 155.252 242.983 152.524 248.086C151.474 246.952 148.746 245.629 147.697 244.306C147.067 245.629 145.388 246.385 144.758 247.33C143.709 245.629 141.61 244.495 140.771 242.794C140.351 244.306 138.672 246.196 138.252 247.897C136.993 246.385 134.055 244.684 132.586 243.55C132.586 245.062 131.536 246.385 131.327 247.708C128.598 245.44 124.191 243.172 120.623 242.416C120.833 245.062 121.043 247.519 121.043 250.165C114.117 243.55 107.191 237.312 95.8579 237.312C100.895 239.77 105.932 245.44 106.981 250.544C97.327 247.708 85.9938 246.574 75.9199 248.842C70.6731 249.976 53.0437 248.464 50.7351 250.922C49.266 249.409 46.5376 248.275 45.0685 247.141C44.8586 248.086 44.4389 249.031 44.229 249.976C41.5007 249.22 39.4019 246.952 36.8834 245.251C37.0933 246.574 36.6736 248.464 37.0933 249.976C33.3156 247.33 29.7477 243.55 26.3898 240.337C28.2786 242.794 28.4885 246.196 28.4885 249.22C26.1799 248.842 23.4515 247.897 21.3528 246.385C21.5627 247.897 21.1429 249.787 21.5627 251.3C18.4146 248.653 11.4888 245.251 7.50115 242.038C9.39001 244.873 10.8591 248.275 11.2789 251.3C5.19254 251.489 2.46419 244.873 -4.67151 247.141C-4.67151 247.519 -4.67151 247.897 -4.88138 248.275C-5.30113 248.275 -5.72088 248.275 -6.14062 248.086C-5.511 249.598 -4.46164 251.111 -2.3629 252.434C2.88394 255.647 19.4639 256.025 25.7601 256.592C53.8832 259.427 82.426 261.695 111.808 260.372C126.709 259.616 140.771 260.939 155.462 261.128C172.881 261.317 190.301 257.159 207.72 257.348C228.918 257.537 246.967 260.372 268.794 258.671C291.67 256.781 313.077 255.458 335.743 257.915C353.792 259.805 368.484 260.183 386.743 262.829C406.051 265.665 429.137 266.421 448.655 264.72C474.889 262.64 504.692 262.451 530.926 264.72C552.962 266.61 568.703 257.348 590.53 259.805C694.417 271.713 701.763 253.19 756.12 262.64C773.33 265.665 790.329 258.293 807.749 259.616C810.057 259.805 815.094 260.939 820.971 261.695L820.761 262.451C822.44 262.451 824.329 262.262 826.008 262.262C827.687 262.451 829.576 262.451 831.255 262.451L831.045 261.695C836.921 260.939 841.958 259.805 844.267 259.616C861.686 258.293 878.686 265.665 895.896 262.64C950.253 253.379 957.599 271.902 1061.49 259.805C1083.31 257.348 1099.05 266.61 1121.09 264.72C1147.32 262.451 1177.13 262.64 1203.36 264.72C1222.88 266.232 1246.17 265.665 1265.27 262.829C1283.53 260.183 1298.22 259.805 1316.27 257.915C1338.73 255.458 1360.35 256.97 1383.22 258.671C1405.05 260.372 1423.1 257.537 1444.3 257.348C1461.71 257.159 1479.13 261.317 1496.55 261.128C1511.04 261.128 1525.31 259.805 1540.21 260.372C1569.8 261.884 1598.34 259.427 1626.26 256.592C1632.55 256.025 1649.13 255.647 1654.38 252.434C1656.48 251.111 1657.74 249.787 1658.16 248.086C1658.58 248.086 1658.16 248.275 1657.74 248.275Z" fill="url(#paint21_linear_22057_76)"/>
  <defs>
    <linearGradient id="paint0_linear_22057_76" x1="1069.47" y1="372.515" x2="786.663" y2="-171.375" gradientUnits="userSpaceOnUse">
      <stop stop-color="#AAD201"/>
      <stop offset="0.1494" stop-color="#AFD407"/>
      <stop offset="0.3576" stop-color="#BCD81A"/>
      <stop offset="0.6005" stop-color="#D1DF37"/>
      <stop offset="0.8673" stop-color="#EFE960"/>
      <stop offset="0.9926" stop-color="#FFEE76"/>
    </linearGradient>
    <linearGradient id="paint1_linear_22057_76" x1="114.352" y1="473.575" x2="656.425" y2="-128.319" gradientUnits="userSpaceOnUse">
      <stop stop-color="#55BC66"/>
      <stop offset="0.1633" stop-color="#5BBE5F"/>
      <stop offset="0.4013" stop-color="#6BC24C"/>
      <stop offset="0.6847" stop-color="#86C92C"/>
      <stop offset="0.9926" stop-color="#AAD201"/>
    </linearGradient>
    <linearGradient id="paint2_linear_22057_76" x1="538.384" y1="184.243" x2="1724.97" y2="184.243" gradientUnits="userSpaceOnUse">
      <stop stop-color="#57A100"/>
      <stop offset="0.1291" stop-color="#5EA706"/>
      <stop offset="0.312" stop-color="#70B616"/>
      <stop offset="0.4777" stop-color="#87C92A"/>
      <stop offset="0.6951" stop-color="#6BB752"/>
      <stop offset="0.8893" stop-color="#57A96F"/>
      <stop offset="1" stop-color="#4FA47A"/>
    </linearGradient>
    <linearGradient id="paint3_linear_22057_76" x1="869.408" y1="149.271" x2="869.408" y2="265.855" gradientUnits="userSpaceOnUse">
      <stop stop-color="white"/>
      <stop offset="0.0912106" stop-color="#FAFDF1"/>
      <stop offset="0.2623" stop-color="#EEF6CE"/>
      <stop offset="0.4949" stop-color="#DBEC94"/>
      <stop offset="0.7766" stop-color="#C1DE45"/>
      <stop offset="1" stop-color="#AAD201"/>
    </linearGradient>
    <linearGradient id="paint4_linear_22057_76" x1="724.951" y1="79.7195" x2="1172.72" y2="214.062" gradientUnits="userSpaceOnUse">
      <stop stop-color="white"/>
      <stop offset="0.3052" stop-color="#FCFDEA"/>
      <stop offset="0.7348" stop-color="#F8FAD2"/>
      <stop offset="1" stop-color="#F7F9C9"/>
    </linearGradient>
    <linearGradient id="paint5_linear_22057_76" x1="713.946" y1="116.295" x2="1161.72" y2="250.638" gradientUnits="userSpaceOnUse">
      <stop stop-color="white"/>
      <stop offset="0.3052" stop-color="#FCFDEA"/>
      <stop offset="0.7348" stop-color="#F8FAD2"/>
      <stop offset="1" stop-color="#F7F9C9"/>
    </linearGradient>
    <linearGradient id="paint6_linear_22057_76" x1="711.322" y1="125.019" x2="1159.1" y2="259.364" gradientUnits="userSpaceOnUse">
      <stop stop-color="white"/>
      <stop offset="0.3052" stop-color="#FCFDEA"/>
      <stop offset="0.7348" stop-color="#F8FAD2"/>
      <stop offset="1" stop-color="#F7F9C9"/>
    </linearGradient>
    <linearGradient id="paint7_linear_22057_76" x1="728.122" y1="69.2049" x2="1175.87" y2="203.54" gradientUnits="userSpaceOnUse">
      <stop stop-color="white"/>
      <stop offset="0.3052" stop-color="#FCFDEA"/>
      <stop offset="0.7348" stop-color="#F8FAD2"/>
      <stop offset="1" stop-color="#F7F9C9"/>
    </linearGradient>
    <linearGradient id="paint8_linear_22057_76" x1="720.88" y1="93.2391" x2="1168.62" y2="227.573" gradientUnits="userSpaceOnUse">
      <stop stop-color="white"/>
      <stop offset="0.3052" stop-color="#FCFDEA"/>
      <stop offset="0.7348" stop-color="#F8FAD2"/>
      <stop offset="1" stop-color="#F7F9C9"/>
    </linearGradient>
    <linearGradient id="paint9_linear_22057_76" x1="717.919" y1="103.09" x2="1165.68" y2="237.43" gradientUnits="userSpaceOnUse">
      <stop stop-color="white"/>
      <stop offset="0.3052" stop-color="#FCFDEA"/>
      <stop offset="0.7348" stop-color="#F8FAD2"/>
      <stop offset="1" stop-color="#F7F9C9"/>
    </linearGradient>
    <linearGradient id="paint10_linear_22057_76" x1="706.299" y1="141.815" x2="1154.12" y2="276.173" gradientUnits="userSpaceOnUse">
      <stop stop-color="white"/>
      <stop offset="0.3052" stop-color="#FCFDEA"/>
      <stop offset="0.7348" stop-color="#F8FAD2"/>
      <stop offset="1" stop-color="#F7F9C9"/>
    </linearGradient>
    <linearGradient id="paint11_linear_22057_76" x1="740.948" y1="26.0891" x2="1188.93" y2="160.497" gradientUnits="userSpaceOnUse">
      <stop stop-color="white"/>
      <stop offset="0.3052" stop-color="#FCFDEA"/>
      <stop offset="0.7348" stop-color="#F8FAD2"/>
      <stop offset="1" stop-color="#F7F9C9"/>
    </linearGradient>
    <linearGradient id="paint12_linear_22057_76" x1="737.332" y1="38.1384" x2="1185.34" y2="172.555" gradientUnits="userSpaceOnUse">
      <stop stop-color="white"/>
      <stop offset="0.3052" stop-color="#FCFDEA"/>
      <stop offset="0.7348" stop-color="#F8FAD2"/>
      <stop offset="1" stop-color="#F7F9C9"/>
    </linearGradient>
    <linearGradient id="paint13_linear_22057_76" x1="733.164" y1="52.4933" x2="1180.89" y2="186.823" gradientUnits="userSpaceOnUse">
      <stop stop-color="white"/>
      <stop offset="0.3052" stop-color="#FCFDEA"/>
      <stop offset="0.7348" stop-color="#F8FAD2"/>
      <stop offset="1" stop-color="#F7F9C9"/>
    </linearGradient>
    <linearGradient id="paint14_linear_22057_76" x1="730.397" y1="61.6893" x2="1178.11" y2="196.015" gradientUnits="userSpaceOnUse">
      <stop stop-color="white"/>
      <stop offset="0.3052" stop-color="#FCFDEA"/>
      <stop offset="0.7348" stop-color="#F8FAD2"/>
      <stop offset="1" stop-color="#F7F9C9"/>
    </linearGradient>
    <linearGradient id="paint15_linear_22057_76" x1="745.111" y1="12.2708" x2="1193.05" y2="146.666" gradientUnits="userSpaceOnUse">
      <stop stop-color="white"/>
      <stop offset="0.3052" stop-color="#FCFDEA"/>
      <stop offset="0.7348" stop-color="#F8FAD2"/>
      <stop offset="1" stop-color="#F7F9C9"/>
    </linearGradient>
    <linearGradient id="paint16_linear_22057_76" x1="751.629" y1="-9.28386" x2="1199.49" y2="125.088" gradientUnits="userSpaceOnUse">
      <stop stop-color="white"/>
      <stop offset="0.3052" stop-color="#FCFDEA"/>
      <stop offset="0.7348" stop-color="#F8FAD2"/>
      <stop offset="1" stop-color="#F7F9C9"/>
    </linearGradient>
    <linearGradient id="paint17_linear_22057_76" x1="387.891" y1="85.9309" x2="387.891" y2="158.805" gradientUnits="userSpaceOnUse">
      <stop stop-color="white"/>
      <stop offset="0.0912106" stop-color="#FAFDF1"/>
      <stop offset="0.2623" stop-color="#EEF6CE"/>
      <stop offset="0.4949" stop-color="#DBEC94"/>
      <stop offset="0.7766" stop-color="#C1DE45"/>
      <stop offset="1" stop-color="#AAD201"/>
    </linearGradient>
    <linearGradient id="paint18_linear_22057_76" x1="1581.18" y1="-22.2901" x2="1619.92" y2="173.666" gradientUnits="userSpaceOnUse">
      <stop stop-color="white"/>
      <stop offset="0.0912106" stop-color="#FAFDF1"/>
      <stop offset="0.2623" stop-color="#EEF6CE"/>
      <stop offset="0.4949" stop-color="#DBEC94"/>
      <stop offset="0.7766" stop-color="#C1DE45"/>
      <stop offset="1" stop-color="#AAD201"/>
    </linearGradient>
    <linearGradient id="paint19_linear_22057_76" x1="117.949" y1="13.4954" x2="42.005" y2="221.066" gradientUnits="userSpaceOnUse">
      <stop stop-color="white"/>
      <stop offset="0.0912106" stop-color="#FAFDF1"/>
      <stop offset="0.2623" stop-color="#EEF6CE"/>
      <stop offset="0.4949" stop-color="#DBEC94"/>
      <stop offset="0.7766" stop-color="#C1DE45"/>
      <stop offset="1" stop-color="#AAD201"/>
    </linearGradient>
    <linearGradient id="paint20_linear_22057_76" x1="479.541" y1="143.142" x2="410.103" y2="332.928" gradientUnits="userSpaceOnUse">
      <stop stop-color="#FFEE76"/>
      <stop offset="0.1715" stop-color="#F5EB68"/>
      <stop offset="0.4929" stop-color="#DBE245"/>
      <stop offset="0.9264" stop-color="#B2D40B"/>
      <stop offset="1" stop-color="#AAD201"/>
    </linearGradient>
    <linearGradient id="paint21_linear_22057_76" x1="-4.97226" y1="245.941" x2="1659.09" y2="245.941" gradientUnits="userSpaceOnUse">
      <stop stop-color="#57A100"/>
      <stop offset="0.2214" stop-color="#529600"/>
      <stop offset="0.6441" stop-color="#4C8800"/>
      <stop offset="1" stop-color="#4A8300"/>
    </linearGradient>
  </defs>
</svg>
