<svg width="1649" height="457" viewBox="0 0 1649 457" fill="none" xmlns="http://www.w3.org/2000/svg">
  <path d="M255.468 228.381C255.468 219.308 252.32 210.992 240.986 209.291C234.69 208.345 222.727 209.858 218.53 214.016C226.295 203.242 223.987 190.2 210.555 183.963C193.345 176.024 189.777 185.286 178.234 191.712C177.814 177.158 152.63 170.354 141.506 178.67C143.605 163.549 126.815 149.184 112.124 145.782C100.161 143.135 60.705 146.538 69.3098 166.006C60.2853 159.202 50.0015 159.202 39.5078 163.36C27.1253 168.274 25.2364 173.756 24.6068 185.286C16.6316 181.883 9.4959 177.158 -0.368149 179.993C-7.92359 182.261 -16.7383 191.523 -15.8988 199.084C-16.1087 198.517 -16.3185 197.95 -16.7383 197.383V286.787C-8.34334 289.811 0.471344 290.189 9.70578 287.165C19.1501 284.14 15.5822 283.006 25.866 285.463C42.0263 289.622 67.6309 290 78.1245 275.257C86.5195 283.006 97.4329 283.951 105.618 273.745C114.223 275.446 119.47 280.171 128.704 280.738C140.247 281.494 150.111 279.415 159.346 273.556C174.456 263.916 183.271 273.745 201.53 272.043C212.234 271.098 221.678 268.452 229.443 261.459C234.27 257.111 235.11 253.331 240.147 251.441C250.85 247.282 269.739 251.441 273.936 236.698C277.085 224.223 264.072 225.168 255.468 228.381Z" fill="url(#paint1_linear_22057_76)"/>
  <path d="M320.742 215.906C333.124 227.625 340.68 214.016 351.383 212.126C357.05 211.181 381.185 218.931 376.148 203.999C371.741 203.053 367.753 202.297 363.136 201.919C365.025 190.39 347.396 186.609 339.84 193.792C334.593 176.969 300.174 186.231 306.051 202.108C295.557 200.218 289.471 212.126 295.977 218.931C302.483 226.113 316.334 223.656 320.742 215.906Z" fill="url(#paint2_linear_22057_76)"/>
  <path d="M894.953 317.218C899.15 305.877 885.928 307.767 878.582 307.2C880.681 292.079 868.299 292.646 855.916 295.481C859.484 272.799 833.879 272.043 823.386 290.567C816.88 277.903 808.904 276.958 796.102 283.573C794.213 269.397 777.004 276.58 769.868 281.872C764.621 265.995 742.375 248.606 723.066 256.922C706.066 264.105 698.931 287.353 699.56 302.664C686.758 292.646 657.376 296.237 659.684 315.517C644.783 311.547 637.438 321.187 634.29 332.906C630.092 331.772 630.512 328.181 627.154 326.29C622.957 323.833 618.759 326.101 615.611 324.778C606.167 321.187 604.278 311.925 590.846 317.407C592.945 305.121 576.365 309.468 569.439 310.98C570.698 300.963 557.266 300.017 549.711 304.176C555.587 298.505 552.229 286.975 544.674 284.518C532.711 280.549 519.909 290 515.291 298.883C515.082 278.092 485.489 281.494 470.798 285.463C484.02 271.854 458.416 244.447 448.342 261.459C442.885 247.471 425.885 254.276 422.947 265.05C419.589 244.825 382.022 248.606 384.12 269.397C378.874 245.014 355.788 234.618 329.134 239.344C304.159 243.88 288.628 255.977 287.369 279.415C280.233 273.744 265.962 274.879 258.826 279.415C250.011 285.274 251.48 293.402 253.789 301.53C246.653 301.719 239.518 303.231 236.789 307.578C227.135 303.987 214.753 310.224 216.432 320.809C208.666 315.139 191.037 314.383 187.259 324.4C179.914 314.95 160.815 317.785 165.013 330.638C146.963 330.071 135.211 344.247 136.05 359.935C161.655 360.124 187.889 365.606 213.493 368.063C246.443 371.276 280.233 372.032 313.393 371.843C400.071 371.654 486.119 362.959 572.377 357.667C675.635 351.807 778.893 348.216 881.311 336.875C889.076 335.93 905.446 336.875 911.952 332.339C915.73 329.693 916.989 329.693 915.94 323.833C914.051 313.627 903.767 316.462 894.953 317.218ZM239.937 309.279C239.728 309.279 239.728 309.279 239.937 309.279C239.937 308.712 240.147 307.956 239.937 309.279Z" fill="url(#paint3_linear_22057_76)"/>
  <path d="M1015.63 237.454C1024.87 240.478 1050.89 243.502 1050.26 229.326C1053.2 236.887 1074.19 238.021 1075.66 226.68C1077.55 212.882 1054.88 207.4 1043.34 206.455C1044.39 190.578 1025.92 184.341 1010.81 188.31C1033.89 177.725 998.424 160.903 986.671 161.659C965.893 162.793 962.955 177.914 962.955 193.791L961.906 176.402C949.523 158.068 908.388 181.694 922.24 200.974C911.956 200.596 903.351 203.809 904.82 214.583C893.487 205.51 865.154 219.119 874.808 232.161C883.203 243.691 903.141 233.862 911.956 230.649C915.314 238.399 925.598 241.045 934.622 239.722C938.82 239.155 943.017 234.808 946.795 234.619C950.992 234.43 953.721 238.021 957.918 239.911C967.782 244.258 983.103 244.258 991.498 237.832C995.905 234.43 995.485 230.271 1002.2 230.46C1005.56 230.46 1011.65 236.131 1015.63 237.454Z" fill="url(#paint4_linear_22057_76)"/>
  <path d="M1662.05 121.777C1655.54 120.265 1648.19 119.32 1638.96 116.107C1641.48 106.089 1626.58 97.2051 1617.13 95.882C1604.96 94.3698 1591.95 101.552 1585.02 109.869C1576.21 93.2358 1547.45 81.1388 1526.89 84.1631C1500.23 88.3214 1496.25 107.601 1496.66 128.581C1479.87 111.57 1436.64 107.412 1438.53 138.977C1428.25 131.984 1421.74 138.599 1416.49 146.16C1410.2 155.233 1411.46 153.909 1401.38 149.562C1385.22 142.569 1360.67 147.105 1362.35 167.329C1351.85 164.116 1342.62 157.69 1330.86 163.171C1319.95 168.275 1318.69 179.426 1327.51 186.609C1320.16 184.152 1307.15 182.64 1301.69 189.066C1297.49 193.981 1298.33 201.73 1303.16 205.888C1293.51 206.455 1267.27 202.864 1276.3 219.308C1285.95 236.698 1315.12 226.68 1328.35 221.766C1335.06 236.887 1369.9 239.911 1376.2 223.467C1373.05 246.149 1415.65 244.636 1428.04 234.43C1428.46 255.032 1464.55 246.527 1475.47 250.496C1478.83 251.63 1481.13 256.922 1485.33 258.434C1489.95 260.136 1499.6 260.136 1504.43 259.191C1517.44 256.922 1526.47 247.661 1529.2 236.32C1550.39 259.38 1585.86 284.518 1616.29 256.733C1619.02 264.861 1632.45 265.239 1639.8 262.782C1644.42 261.27 1647.56 256.544 1651.97 255.41C1654.49 254.843 1658.27 255.599 1661.84 256.166V121.777H1662.05Z" fill="url(#paint5_linear_22057_76)"/>
  <path d="M1509.04 302.664C1506.95 279.793 1480.71 291.323 1466.23 293.591C1465.18 277.336 1436.85 263.916 1424.47 277.714C1425.09 267.129 1421.11 253.331 1408.72 249.551C1396.97 245.96 1383.12 250.874 1372.84 253.898C1373.47 245.96 1366.96 238.21 1358.77 235.753C1348.07 232.729 1342.4 238.777 1335.27 243.692C1324.57 230.839 1297.7 253.331 1299.59 265.617C1295.39 258.246 1290.57 254.843 1282.38 260.325C1281.12 245.204 1253.84 246.149 1251.74 260.703C1251.95 249.929 1236.42 247.094 1226.76 250.307C1216.27 253.898 1212.91 266.562 1213.96 275.635C1212.07 267.696 1199.06 264.105 1193.39 270.91C1189.62 266.184 1181.85 269.209 1179.33 273.745C1174.3 265.239 1159.6 273.178 1161.07 282.062C1154.36 270.532 1143.44 263.538 1128.75 267.507C1109.24 272.611 1111.12 281.683 1110.07 296.994C1097.9 283.196 1074.4 301.719 1082.16 314.194C1075.24 307.578 1058.66 313.249 1053.62 320.81C1054.46 318.352 1052.78 319.675 1050.89 321.188C1049.84 310.036 1030.95 307.389 1030.74 314.383C1028.64 307.957 1016.26 313.627 1013.53 317.974C998.842 307.578 996.743 335.931 1014.79 332.15C1014.37 358.234 1065.37 345.759 1081.11 353.131C1088.04 356.344 1093.49 361.637 1100.21 365.228C1115.74 373.734 1131.06 378.648 1148.9 381.483C1192.14 388.666 1233.9 394.147 1278.18 395.281C1314.07 396.226 1349.96 392.446 1385.85 393.769C1402.22 394.336 1413.76 393.58 1429.29 389.611C1439.58 386.965 1450.91 388.288 1462.24 386.398C1467.49 385.452 1474.83 384.129 1479.03 380.727C1482.39 377.892 1482.6 373.356 1485.33 370.898C1489.11 367.496 1491.2 367.118 1497.71 365.417C1510.3 361.826 1524.78 344.625 1505.48 338.955C1517.44 338.01 1536.96 330.638 1538.01 317.785C1538.64 300.396 1521.64 300.963 1509.04 302.664Z" fill="url(#paint6_linear_22057_76)"/>
  <path d="M1162.54 161.47C1163.17 174.89 1187.52 168.653 1191.5 159.769C1196.12 167.708 1203.89 163.738 1210.6 163.36C1213.54 163.171 1214.17 162.604 1217.74 162.982C1220.68 163.171 1224.24 165.628 1227.81 166.006C1247.96 167.708 1243.76 149.562 1225.92 150.318C1227.81 141.246 1214.17 139.166 1210.6 145.026C1213.33 132.362 1190.45 131.606 1190.03 142.191C1182.27 141.624 1162.33 138.41 1163.59 150.507C1157.08 149.373 1131.06 148.428 1132.11 159.391C1133.16 167.897 1157.08 163.549 1162.54 161.47Z" fill="url(#paint7_linear_22057_76)"/>
  <g opacity="0.1">
    <path d="M243.923 214.583C236.368 211.37 227.343 213.26 219.578 212.882C219.158 208.157 219.158 203.62 212.862 202.297C204.887 200.596 199.43 206.456 197.751 212.315C196.912 208.724 191.245 208.346 187.887 208.913C183.48 209.669 181.801 213.071 178.233 215.15C172.776 211.559 170.678 205.322 162.073 208.157C159.974 196.249 140.456 189.255 129.752 196.438C129.542 192.091 121.357 189.066 117.58 188.31C114.222 187.554 107.296 189.633 105.197 188.31C111.074 188.121 115.901 187.176 119.468 182.262C124.086 176.024 118.629 172.622 116.74 167.141C125.135 160.714 121.357 154.855 118.209 150.885C116.32 145.971 99.9502 146.16 94.9133 146.916C87.3578 147.861 79.5925 152.02 76.6543 158.446C74.9753 162.226 74.9753 165.44 74.7654 169.409C68.2593 163.549 60.494 166.952 54.6175 172.433C54.6175 164.683 46.4325 161.848 38.877 162.793C30.9018 163.738 25.2353 171.866 24.6056 178.671C24.1859 182.64 26.2846 186.231 25.8649 189.822C18.3094 183.396 7.18614 185.664 5.50715 195.304C1.30968 195.115 -1.62855 192.658 -5.1964 196.06C-8.13463 198.706 -9.18399 202.297 -8.97412 206.078C-8.76425 209.669 -8.13463 214.016 -4.14703 215.906C-1.62855 217.041 3.61829 217.23 5.9269 215.717C3.40842 223.467 13.0626 229.515 19.5687 232.54C23.3464 234.241 27.5439 234.997 31.9512 234.241C35.3092 233.674 38.2474 233.107 41.6054 232.918C44.3337 232.729 48.1115 233.485 50.2102 231.784C40.1363 231.406 36.1487 222.333 36.9882 214.394C38.4573 201.352 51.4694 196.249 64.2717 198.895C64.6915 190.767 63.6421 183.207 74.5555 180.75C85.6788 178.293 95.5429 184.341 96.1725 194.737C96.3824 197.005 95.1231 199.651 98.0614 199.84C99.1107 199.84 102.049 197.005 103.098 196.627C105.407 195.682 109.185 195.304 111.703 195.304C120.308 195.871 127.024 200.785 127.024 208.535C130.802 207.212 133.53 203.809 138.357 203.053C143.814 202.108 150.11 202.675 155.147 204.566C163.332 207.59 164.801 216.852 162.912 223.845C166.48 221.955 172.776 220.443 176.554 222.144C179.702 223.467 181.801 228.003 179.282 230.65C187.258 228.192 197.541 229.326 202.578 236.32C208.035 243.692 201.109 248.417 193.134 248.795C196.282 250.874 204.047 249.929 207.405 248.417C211.393 246.716 213.702 243.692 213.702 239.533C213.492 232.54 210.554 230.083 202.788 228.57C202.998 224.412 206.776 217.986 211.603 216.852C215.8 215.906 217.06 217.608 219.578 219.687C224.825 214.583 232.59 212.504 239.936 214.961C246.022 217.041 251.479 223.278 247.701 228.948C253.158 225.357 249.8 217.041 243.923 214.583Z" fill="#81E3F0"/>
    <path d="M458.205 288.11C459.045 286.031 458.835 284.519 457.785 283.574C458.205 285.086 458.415 286.598 458.205 288.11Z" fill="#81E3F0"/>
    <path d="M445.402 277.714C444.982 272.611 440.365 266.751 434.488 265.806C431.131 265.239 422.526 267.507 422.945 271.666C423.155 263.916 413.081 262.971 406.995 265.239C397.551 268.642 398.81 278.848 398.81 286.409C399.02 280.36 394.822 275.257 388.946 272.8C386.637 271.855 377.823 269.587 377.193 273.178C377.193 267.886 377.193 261.27 373.205 256.923C364.181 247.094 350.329 241.802 336.268 242.558C321.996 243.314 305.836 253.142 304.787 267.129C291.145 267.129 294.083 277.147 293.873 284.708C294.923 272.8 316.12 265.617 321.157 279.415C326.404 277.147 331.021 275.824 336.687 278.47C342.984 281.495 345.502 289.244 345.502 295.104C354.946 295.293 365.65 292.268 371.317 301.53C375.094 307.768 372.996 314.005 372.576 320.621C376.983 313.438 407.625 292.079 414.551 306.066C414.551 300.018 416.439 292.457 420.637 287.543C424.624 282.818 432.81 281.117 437.007 287.165C442.674 283.574 444.982 280.36 452.538 281.306C455.056 281.684 456.945 282.251 457.994 283.385C456.945 278.092 453.167 274.312 445.402 277.714Z" fill="#81E3F0"/>
    <path d="M848.988 290C849.828 290.567 850.877 291.134 851.717 291.89C851.087 291.134 850.248 290.567 848.988 290Z" fill="#81E3F0"/>
    <path d="M820.866 298.317C814.78 285.653 794.632 292.079 788.126 300.396C788.126 293.402 786.237 288.677 778.471 285.842C774.274 284.329 765.249 283.006 762.731 286.787C760.422 281.305 757.484 277.147 752.237 272.989C743.423 266.184 727.682 259.191 717.608 267.507C706.485 276.58 712.571 291.512 714.88 302.286C716.769 284.14 739.645 283.951 739.435 302.097C745.941 285.653 773.015 295.481 775.113 309.846C783.508 304.932 795.471 303.42 797.57 314.95C801.558 309.09 815.619 296.993 822.545 307.2C824.014 301.719 826.323 294.725 832.199 291.512C835.557 289.622 843.952 288.299 848.569 290.189C839.545 284.329 825.903 289.433 820.866 298.317Z" fill="#81E3F0"/>
    <path d="M1002.41 176.402C1004.09 177.725 1005.34 179.616 1005.55 182.073C1005.97 179.427 1004.71 177.536 1002.41 176.402Z" fill="#81E3F0"/>
    <path d="M986.457 173.567C976.803 173.945 972.395 181.506 964.42 184.908C960.642 175.835 943.643 173 934.828 176.97C924.544 181.695 922.026 195.304 924.964 204.566C915.52 204.377 913.001 205.322 910.902 214.016C915.31 208.157 930.84 205.511 935.248 212.504C934.408 209.858 934.828 206.645 933.359 203.621C917.828 193.225 949.099 171.866 952.457 189.633C957.494 181.317 968.618 189.823 968.408 197.005C966.729 181.695 992.963 172.055 1002.2 176.781C998.629 173.567 991.914 173.189 986.457 173.567Z" fill="#81E3F0"/>
    <path d="M1170.3 156.367C1169.04 145.593 1194.44 142.38 1194.23 153.721C1196.33 149.751 1204.51 148.617 1207.66 152.397C1208.29 146.349 1199.9 145.971 1195.07 146.16C1193.81 140.679 1184.78 141.813 1185.83 143.703C1178.28 137.843 1165.9 144.081 1166.11 152.397C1159.18 151.641 1152.88 150.318 1150.79 158.068C1153.93 152.586 1165.27 155.611 1170.3 156.367Z" fill="#81E3F0"/>
    <path d="M1204.72 143.892C1206.19 141.435 1205.98 135.764 1199.89 136.899V134.441C1196.33 135.197 1194.23 137.844 1192.76 140.49C1196.75 135.386 1203.88 138.978 1204.72 143.892Z" fill="#81E3F0"/>
    <path d="M1240.4 268.83C1240.82 260.136 1230.75 254.276 1222.77 258.624C1215.64 262.404 1215.43 273.178 1217.32 279.415C1213.12 269.019 1195.91 268.074 1193.39 279.604C1182.9 272.044 1177.86 278.281 1171.78 286.031C1157.92 270.342 1145.54 293.213 1144.91 303.42C1135.05 303.609 1131.27 306.066 1128.96 310.981C1133.58 307.011 1143.02 306.444 1152.05 306.066C1148.06 299.829 1165.69 295.103 1170.52 295.292C1177.65 295.67 1184.16 299.262 1188.98 303.42C1186.68 286.598 1220.26 296.426 1220.68 310.224C1222.14 301.719 1236.84 294.347 1243.13 303.231C1242.92 288.866 1250.06 276.769 1267.48 275.635C1261.81 265.239 1252.16 259.191 1240.4 268.83Z" fill="#81E3F0"/>
    <path d="M1126.23 319.297C1127.28 316.084 1128.12 313.438 1129.17 311.169C1126.86 313.06 1125.81 315.517 1126.23 319.297Z" fill="#81E3F0"/>
    <path d="M1100.84 308.901C1100.21 309.846 1099.58 310.981 1099.58 312.304C1100 310.981 1100.42 309.846 1100.84 308.901Z" fill="#81E3F0"/>
    <path d="M1137.98 289.622C1136.93 284.33 1140.92 281.683 1146.38 282.061C1145.12 277.903 1136.93 275.257 1135.88 273.367C1119.09 273.556 1109.86 285.653 1115.53 299.829C1107.34 299.451 1103.35 303.231 1100.84 308.901C1104.4 304.176 1114.69 305.688 1120.35 305.499C1119.72 294.914 1128.12 290.189 1137.98 289.622Z" fill="#81E3F0"/>
    <path d="M1329.81 251.063C1324.77 243.124 1311.13 252.197 1306.93 256.544C1301.27 262.215 1300.85 274.501 1304.41 280.927C1288.46 267.696 1274.61 296.049 1282.17 309.28C1280.07 294.536 1301.27 291.134 1311.55 296.994C1311.34 291.134 1309.87 282.25 1314.28 277.336C1318.69 272.233 1331.49 269.208 1337.99 272.422C1333.38 265.239 1332.75 255.41 1340.51 249.929C1348.7 244.259 1358.14 246.149 1363.18 253.52C1361.5 236.131 1337.99 242.179 1329.81 251.063Z" fill="#81E3F0"/>
    <path d="M1624.05 148.806C1622.38 145.215 1619.65 142.758 1616.29 141.057C1618.81 143.892 1620.91 146.916 1624.05 148.806Z" fill="#81E3F0"/>
    <path d="M1595.3 128.393C1590.26 127.069 1578.72 125.746 1576.62 131.606C1573.47 125.557 1572.63 119.698 1567.8 114.216C1561.09 106.656 1551.43 100.418 1540.52 100.229C1524.57 100.04 1505.89 111.192 1517.85 126.691C1512.4 124.99 1506.73 121.399 1501.69 126.691C1498.76 129.716 1499.6 133.118 1500.43 136.709C1488.89 114.216 1423.2 109.869 1434.53 143.136C1421.31 142.191 1414.39 154.855 1417.95 165.061C1408.51 156.745 1397.6 153.721 1384.58 156.178C1373.67 158.257 1368.84 167.141 1373.04 176.402C1366.33 173.945 1355.62 168.464 1348.07 172.244C1339.46 176.591 1345.55 186.609 1353.73 187.365C1349.33 186.987 1345.55 187.176 1343.45 190.956C1341.77 193.792 1343.03 199.84 1344.92 200.029C1346.81 194.359 1352.68 197.761 1357.51 198.706C1356.88 186.987 1367.17 188.31 1374.3 193.792C1374.09 188.499 1376.61 178.67 1382.91 176.213C1391.09 173.189 1395.71 180.75 1395.29 187.365C1399.49 178.292 1407.25 174.323 1418.16 174.89C1426.14 175.268 1437.68 178.859 1439.36 185.853C1438.1 171.677 1437.26 163.927 1451.11 153.532C1459.09 147.483 1466.65 145.593 1476.72 148.995C1486.79 152.397 1487.42 157.312 1492.04 164.683C1496.66 156.745 1503.16 148.995 1513.87 152.964C1522.05 155.989 1521.42 161.659 1525.62 153.721C1528.35 148.428 1527.09 143.136 1532.55 138.788C1536.95 135.386 1545.98 134.441 1551.85 136.142C1563.4 139.544 1565.29 152.019 1573.89 156.745C1579.14 146.727 1586.9 140.49 1599.49 138.977C1605.58 138.221 1611.67 138.977 1616.49 141.246C1615.66 140.301 1614.82 139.355 1613.77 138.41C1608.94 133.874 1602.01 129.905 1595.3 128.393Z" fill="#81E3F0"/>
  </g>
  <g opacity="0.25">
    <path d="M119.261 232.917C119.471 231.594 120.311 230.649 119.891 229.137C118.632 222.333 107.509 219.686 101.632 222.9C98.0643 213.827 81.0645 216.662 81.904 226.68C76.867 228.003 69.1017 229.137 69.7313 235.564C69.3116 230.271 80.8546 230.838 84.4225 229.893C85.0521 226.302 87.1508 223.278 92.1878 222.9C98.0643 222.522 99.5334 225.168 100.793 229.326C104.151 218.174 125.348 230.271 114.225 237.265C117.583 236.509 121.15 237.454 121.15 240.856C123.039 238.021 121.15 237.454 119.681 235.564C118.842 233.863 119.052 235.186 119.261 232.917Z" fill="#81E3F0"/>
    <path d="M344.879 199.084C342.57 197.383 340.472 193.98 337.114 193.602C336.694 184.341 316.756 184.908 314.867 194.169C316.126 191.523 323.262 191.523 322.423 191.712C329.768 190.389 338.583 193.98 335.015 201.541C338.583 200.218 340.682 201.541 340.891 204.754C340.472 200.974 349.916 197.572 350.336 201.352C349.916 198.517 350.965 196.438 353.484 194.925C350.336 194.547 346.768 197.194 344.879 199.084Z" fill="#81E3F0"/>
    <path d="M550.551 316.084C551.391 308.334 541.527 299.262 533.132 303.42C533.971 293.78 523.058 295.67 516.342 299.64C510.675 291.89 499.552 289.622 489.688 291.512C483.182 292.646 475.207 298.316 472.059 306.822C477.725 299.64 496.194 300.018 499.552 310.98C503.12 296.804 522.638 302.664 521.799 315.328C523.058 305.121 550.551 316.462 538.589 325.535C545.095 321.565 557.477 320.809 559.576 327.614C559.786 323.077 565.033 318.919 570.279 319.297C565.242 316.462 558.107 312.682 550.551 316.084Z" fill="#81E3F0"/>
    <path d="M470.591 313.06C470.801 310.792 471.22 308.712 472.06 306.822C470.591 308.523 469.961 310.603 470.591 313.06Z" fill="#81E3F0"/>
    <path d="M538.588 325.724C538.168 326.102 537.748 326.291 537.328 326.669C537.748 326.291 538.168 325.913 538.588 325.724Z" fill="#81E3F0"/>
    <path d="M672.908 316.84C675.636 308.523 698.723 307.578 706.698 314.005C701.871 300.585 669.55 299.45 672.908 316.84Z" fill="#81E3F0"/>
    <path d="M961.063 213.071C961.063 213.638 960.854 214.016 961.063 214.583C960.854 214.016 960.854 213.449 961.063 213.071Z" fill="#81E3F0"/>
    <path d="M1026.12 211.37C1026.75 200.596 1012.48 195.304 1002.62 194.359C991.073 193.224 982.678 197.005 975.333 204.376C964.839 201.73 961.481 206.077 960.852 213.071C962.111 206.455 975.962 203.431 980.37 208.724C976.382 193.602 1023.6 194.359 1020.88 216.851C1026.75 215.15 1031.79 214.205 1036.83 218.363C1036.41 214.583 1030.11 212.315 1026.12 211.37Z" fill="#81E3F0"/>
    <path d="M1424.47 285.652C1419.22 266.562 1396.55 248.984 1379.76 271.287C1370.32 267.696 1364.02 267.696 1362.13 278.281C1353.32 277.714 1346.39 287.543 1355.21 294.725C1353.32 283.951 1376.82 280.36 1378.08 290.756C1377.24 279.793 1392.56 273.555 1403.48 276.58C1411.66 278.848 1417.54 290 1416.49 297.371C1420.06 292.268 1431.81 292.079 1436.22 295.859C1435.59 290.567 1442.93 283.951 1448.18 285.652C1440.84 280.549 1433.07 280.171 1424.47 285.652Z" fill="#81E3F0"/>
    <path d="M1448.18 285.652C1449.23 286.219 1450.07 286.975 1451.12 287.732C1450.28 286.597 1449.23 285.841 1448.18 285.652Z" fill="#81E3F0"/>
    <path d="M1416.49 297.372C1415.86 298.317 1415.44 299.262 1415.44 300.585C1416.07 299.64 1416.28 298.506 1416.49 297.372Z" fill="#81E3F0"/>
    <path d="M1313.86 191.145L1314.49 189.822C1306.31 188.121 1302.32 198.517 1307.99 202.486C1305.68 192.09 1326.66 195.304 1331.91 198.895C1328.34 194.17 1321.63 190.389 1313.86 191.145Z" fill="#81E3F0"/>
    <path d="M1606 186.231C1596.14 172.622 1573.26 169.408 1555.21 175.079C1571.58 173.756 1591.52 182.829 1585.02 199.084C1591.1 193.413 1598.87 194.358 1601.18 201.541C1599.71 194.169 1615.45 190.767 1619.86 195.303C1619.65 181.883 1630.14 179.048 1642.73 179.615C1630.35 171.11 1617.13 180.371 1606 186.231Z" fill="#81E3F0"/>
    <path d="M1496.66 199.084C1497.08 198.517 1497.71 197.761 1498.55 197.005C1497.71 197.761 1497.08 198.328 1496.66 199.084Z" fill="#81E3F0"/>
    <path d="M1643.79 179.993C1643.58 179.993 1643.16 179.993 1642.95 179.993C1643.37 180.371 1644 180.749 1644.42 181.127C1644 180.749 1644 180.56 1643.79 179.993Z" fill="#81E3F0"/>
    <path d="M1498.55 197.194C1501.7 195.114 1507.16 195.871 1509.46 199.462C1508.83 185.097 1531.29 190.578 1537.38 196.816C1536.12 192.468 1536.12 188.877 1537.17 185.853C1536.54 186.42 1536.12 187.176 1535.49 187.743C1527.3 172.622 1506.53 188.688 1498.55 197.194Z" fill="#81E3F0"/>
    <path d="M1536.96 185.853C1541.58 180.939 1547.87 177.347 1555.01 175.079C1546.82 175.835 1539.48 179.237 1536.96 185.853Z" fill="#81E3F0"/>
  </g>
  <defs>
    <linearGradient id="paint1_linear_22057_76" x1="129.542" y1="329.522" x2="126.883" y2="103.175" gradientUnits="userSpaceOnUse">
      <stop stop-color="#81E3F0"/>
      <stop offset="0.0184006" stop-color="#88E5F1"/>
      <stop offset="0.1398" stop-color="#B1EEF6"/>
      <stop offset="0.2584" stop-color="#D2F5FA"/>
      <stop offset="0.3719" stop-color="#E9FAFD"/>
      <stop offset="0.4781" stop-color="#F7FDFE"/>
      <stop offset="0.5697" stop-color="#FCFEFF"/>
      <stop offset="0.9926" stop-color="white"/>
    </linearGradient>
    <linearGradient id="paint2_linear_22057_76" x1="338.415" y1="439.776" x2="335.002" y2="149.215" gradientUnits="userSpaceOnUse">
      <stop stop-color="white"/>
      <stop offset="1" stop-color="white"/>
    </linearGradient>
    <linearGradient id="paint3_linear_22057_76" x1="528.973" y1="375.926" x2="519.902" y2="239.952" gradientUnits="userSpaceOnUse">
      <stop stop-color="#81E3F0"/>
      <stop offset="0.0184006" stop-color="#88E5F1"/>
      <stop offset="0.1398" stop-color="#B1EEF6"/>
      <stop offset="0.2584" stop-color="#D2F5FA"/>
      <stop offset="0.3719" stop-color="#E9FAFD"/>
      <stop offset="0.4781" stop-color="#F7FDFE"/>
      <stop offset="0.5697" stop-color="#FCFEFF"/>
      <stop offset="0.9926" stop-color="white"/>
    </linearGradient>
    <linearGradient id="paint4_linear_22057_76" x1="975.066" y1="280.826" x2="973.664" y2="161.483" gradientUnits="userSpaceOnUse">
      <stop stop-color="#81E3F0"/>
      <stop offset="0.0179902" stop-color="#87E4F1"/>
      <stop offset="0.1528" stop-color="#ABECF5"/>
      <stop offset="0.2945" stop-color="#CAF3F9"/>
      <stop offset="0.4426" stop-color="#E1F8FB"/>
      <stop offset="0.6" stop-color="#F2FCFD"/>
      <stop offset="0.7732" stop-color="#FCFEFF"/>
      <stop offset="0.9926" stop-color="white"/>
    </linearGradient>
    <linearGradient id="paint5_linear_22057_76" x1="1470.21" y1="295.691" x2="1466.8" y2="5.13279" gradientUnits="userSpaceOnUse">
      <stop stop-color="#81E3F0"/>
      <stop offset="0.0893606" stop-color="#AEEDF5"/>
      <stop offset="0.1757" stop-color="#D1F5FA"/>
      <stop offset="0.2566" stop-color="#EAFAFD"/>
      <stop offset="0.3298" stop-color="#FAFEFE"/>
      <stop offset="0.3886" stop-color="white"/>
      <stop offset="1" stop-color="white"/>
    </linearGradient>
    <linearGradient id="paint6_linear_22057_76" x1="1271.17" y1="428.803" x2="1267.75" y2="138.243" gradientUnits="userSpaceOnUse">
      <stop stop-color="#81E3F0"/>
      <stop offset="0.0749372" stop-color="#8EE6F2"/>
      <stop offset="0.2136" stop-color="#B0EDF6"/>
      <stop offset="0.3995" stop-color="#E7FAFC"/>
      <stop offset="0.4728" stop-color="white"/>
      <stop offset="0.5155" stop-color="white"/>
      <stop offset="0.8045" stop-color="white"/>
      <stop offset="0.8322" stop-color="white"/>
      <stop offset="1" stop-color="white"/>
    </linearGradient>
    <linearGradient id="paint7_linear_22057_76" x1="1190.65" y1="429.753" x2="1187.23" y2="139.192" gradientUnits="userSpaceOnUse">
      <stop stop-color="white"/>
      <stop offset="1" stop-color="white"/>
    </linearGradient>
  </defs>
</svg>
