<svg width="60" height="48" viewBox="0 0 60 48" fill="none" xmlns="http://www.w3.org/2000/svg">
  <mask id="path-1-outside-1_28641_17259" maskUnits="userSpaceOnUse" x="10" y="2" width="40" height="33" fill="black">
    <rect fill="white" x="10" y="2" width="40" height="33"/>
    <path fill-rule="evenodd" clip-rule="evenodd" d="M23.6307 28.1554L17.6991 22.452C14.699 19.6036 13.5474 14.1036 17.6991 9.95193C21.5473 6.10376 27.1989 6.60364 30.6991 9.45193C34.1989 6.10364 39.851 6.10376 43.6991 9.95194C46.3509 12.6038 46.6991 18.6036 43.6991 21.952L37.6328 28.0182C33.7816 31.8694 27.5566 31.9304 23.6307 28.1554Z"/>
  </mask>
  <path fill-rule="evenodd" clip-rule="evenodd" d="M23.6307 28.1554L17.6991 22.452C14.699 19.6036 13.5474 14.1036 17.6991 9.95193C21.5473 6.10376 27.1989 6.60364 30.6991 9.45193C34.1989 6.10364 39.851 6.10376 43.6991 9.95194C46.3509 12.6038 46.6991 18.6036 43.6991 21.952L37.6328 28.0182C33.7816 31.8694 27.5566 31.9304 23.6307 28.1554Z" fill="#4B371F"/>
  <path d="M17.6991 22.452L20.4715 19.5686L20.4624 19.5599L20.4532 19.5511L17.6991 22.452ZM23.6307 28.1554L20.8582 31.0388L23.6307 28.1554ZM17.6991 9.95193L20.5275 12.7804H20.5275L17.6991 9.95193ZM30.6991 9.45193L28.1743 12.5545L30.9129 14.783L33.4642 12.3423L30.6991 9.45193ZM43.6991 9.95194L46.5275 7.12355V7.12355L43.6991 9.95194ZM43.6991 21.952L46.5275 24.7804L46.605 24.7029L46.6782 24.6212L43.6991 21.952ZM14.9266 25.3353L20.8582 31.0388L26.4031 25.2721L20.4715 19.5686L14.9266 25.3353ZM14.8707 7.1235C8.85996 13.1342 10.6024 21.2298 14.945 25.3528L20.4532 19.5511C18.7956 17.9773 18.2349 15.073 20.5275 12.7804L14.8707 7.1235ZM33.2238 6.34941C28.4259 2.44502 20.4215 1.5727 14.8707 7.1235L20.5275 12.7804C22.6731 10.6348 25.972 10.7623 28.1743 12.5545L33.2238 6.34941ZM46.5275 7.12355C41.2254 1.82129 33.0893 1.62952 27.9339 6.56159L33.4642 12.3423C35.3086 10.5778 38.4766 10.3862 40.8706 12.7803L46.5275 7.12355ZM46.6782 24.6212C49.0076 22.0213 49.8758 18.6174 49.8177 15.6134C49.7606 12.6609 48.7895 9.38556 46.5275 7.12355L40.8706 12.7803C41.2605 13.1702 41.7893 14.2207 41.8192 15.7681C41.8482 17.2641 41.3905 18.5343 40.7199 19.2828L46.6782 24.6212ZM40.4613 30.8466L46.5275 24.7804L40.8706 19.1235L34.8044 25.1898L40.4613 30.8466ZM20.8582 31.0388C26.3546 36.3238 35.0696 36.2383 40.4613 30.8466L34.8044 25.1898C32.4937 27.5005 28.7587 27.5371 26.4031 25.2721L20.8582 31.0388Z" fill="#4B371F" mask="url(#path-1-outside-1_28641_17259)"/>
  <path d="M17.6991 22.452L23.6307 28.1554C27.5566 31.9304 33.7816 31.8694 37.6328 28.0182L43.6991 21.952C46.6991 18.6036 46.3509 12.6038 43.6991 9.95194C39.851 6.10376 34.1989 6.10364 30.6991 9.45193C27.1989 6.60364 21.5473 6.10376 17.6991 9.95193C13.5474 14.1036 14.699 19.6036 17.6991 22.452Z" fill="#FFB5DD"/>
  <path d="M30.6991 9.45193C27.1989 6.60364 21.5473 6.10376 17.6991 9.95193C13.5474 14.1036 14.699 19.6036 17.6991 22.452L23.6307 28.1554C27.5566 31.9304 33.7816 31.8694 37.6328 28.0182L43.6991 21.952C46.6991 18.6036 46.3509 12.6038 43.6991 9.95194C39.851 6.10376 34.1989 6.10364 30.6991 9.45193ZM30.6991 9.45193L26.699 13.6036" stroke="#4B371F" stroke-width="1.2" stroke-linecap="round" stroke-linejoin="round"/>
  <ellipse cx="31.9114" cy="21.5024" rx="5.67118" ry="6.5073" transform="rotate(41.6329 31.9114 21.5024)" fill="#4B371F"/>
  <ellipse cx="33.5541" cy="11.6307" rx="1.56088" ry="2.14603" transform="rotate(18.2691 33.5541 11.6307)" fill="#4B371F"/>
  <ellipse cx="41.1381" cy="20.0902" rx="1.56088" ry="2.00655" transform="rotate(80.0493 41.1381 20.0902)" fill="#4B371F"/>
  <ellipse cx="37.9508" cy="12.2382" rx="1.78986" ry="2.69908" transform="rotate(34.4206 37.9508 12.2382)" fill="#4B371F"/>
  <ellipse cx="40.886" cy="15.9586" rx="1.74716" ry="2.63469" transform="rotate(54.1824 40.886 15.9586)" fill="#4B371F"/>
  <mask id="path-10-outside-2_28641_17259" maskUnits="userSpaceOnUse" x="4" y="24.9951" width="54" height="19" fill="black">
    <rect fill="white" x="4" y="24.9951" width="54" height="19"/>
    <path d="M10.8851 33.5631H15.8131V36.4111H10.8851V33.5631ZM11.1411 39.9951H7.36513V28.7951H16.4691V31.6431H11.1411V39.9951ZM17.3938 39.9951V31.2431H20.8338V33.8831L20.2738 33.1311C20.5404 32.4485 20.9671 31.9365 21.5538 31.5951C22.1404 31.2538 22.8444 31.0831 23.6658 31.0831V34.2831C23.5058 34.2618 23.3618 34.2458 23.2338 34.2351C23.1164 34.2245 22.9938 34.2191 22.8658 34.2191C22.3218 34.2191 21.8738 34.3631 21.5218 34.6511C21.1804 34.9285 21.0098 35.4138 21.0098 36.1071V39.9951H17.3938ZM29.4445 40.1551C28.3778 40.1551 27.4445 39.9578 26.6445 39.5631C25.8552 39.1685 25.2418 38.6298 24.8045 37.9471C24.3672 37.2538 24.1485 36.4751 24.1485 35.6111C24.1485 34.7258 24.3618 33.9418 24.7885 33.2591C25.2258 32.5765 25.8178 32.0431 26.5645 31.6591C27.3218 31.2751 28.1698 31.0831 29.1085 31.0831C29.9725 31.0831 30.7672 31.2538 31.4925 31.5951C32.2285 31.9365 32.8152 32.4431 33.2525 33.1151C33.7005 33.7871 33.9245 34.6191 33.9245 35.6111C33.9245 35.7391 33.9192 35.8831 33.9085 36.0431C33.8978 36.1925 33.8872 36.3311 33.8765 36.4591H27.1405V34.7151H31.9565L30.5965 35.1791C30.5965 34.8378 30.5325 34.5498 30.4045 34.3151C30.2872 34.0698 30.1218 33.8831 29.9085 33.7551C29.6952 33.6165 29.4392 33.5471 29.1405 33.5471C28.8418 33.5471 28.5805 33.6165 28.3565 33.7551C28.1432 33.8831 27.9778 34.0698 27.8605 34.3151C27.7432 34.5498 27.6845 34.8378 27.6845 35.1791V35.7231C27.6845 36.0965 27.7592 36.4165 27.9085 36.6831C28.0578 36.9498 28.2712 37.1525 28.5485 37.2911C28.8258 37.4191 29.1618 37.4831 29.5565 37.4831C29.9618 37.4831 30.2925 37.4298 30.5485 37.3231C30.8152 37.2165 31.0925 37.0565 31.3805 36.8431L33.2685 38.7471C32.8418 39.2058 32.3138 39.5578 31.6845 39.8031C31.0658 40.0378 30.3192 40.1551 29.4445 40.1551ZM41.1456 31.0831C41.8176 31.0831 42.4256 31.2218 42.9696 31.4991C43.5136 31.7658 43.9403 32.1871 44.2496 32.7631C44.5696 33.3391 44.7296 34.0858 44.7296 35.0031V39.9951H41.1136V35.6271C41.1136 35.0831 41.0176 34.6991 40.8256 34.4751C40.6336 34.2405 40.3723 34.1231 40.0416 34.1231C39.7963 34.1231 39.567 34.1818 39.3536 34.2991C39.151 34.4058 38.9856 34.5871 38.8576 34.8431C38.7403 35.0991 38.6816 35.4458 38.6816 35.8831V39.9951H35.0656V31.2431H38.5056V33.8031L37.8176 33.0671C38.159 32.4058 38.6176 31.9098 39.1936 31.5791C39.7803 31.2484 40.431 31.0831 41.1456 31.0831ZM49.724 40.1551C48.9773 40.1551 48.2413 40.0751 47.516 39.9151C46.7907 39.7551 46.204 39.5471 45.756 39.2911L46.748 36.9071C47.164 37.1525 47.644 37.3445 48.188 37.4831C48.7427 37.6218 49.2813 37.6911 49.804 37.6911C50.2413 37.6911 50.5347 37.6538 50.684 37.5791C50.844 37.5045 50.924 37.4031 50.924 37.2751C50.924 37.1471 50.8333 37.0565 50.652 37.0031C50.4707 36.9391 50.2307 36.8911 49.932 36.8591C49.6333 36.8271 49.3027 36.7898 48.94 36.7471C48.588 36.6938 48.2307 36.6191 47.868 36.5231C47.5053 36.4271 47.1747 36.2831 46.876 36.0911C46.5773 35.8991 46.3373 35.6431 46.156 35.3231C45.9747 34.9925 45.884 34.5765 45.884 34.0751C45.884 33.5205 46.0493 33.0191 46.38 32.5711C46.7213 32.1231 47.2227 31.7658 47.884 31.4991C48.556 31.2218 49.3827 31.0831 50.364 31.0831C51.004 31.0831 51.644 31.1418 52.284 31.2591C52.924 31.3765 53.4733 31.5578 53.932 31.8031L52.94 34.1871C52.492 33.9418 52.0493 33.7765 51.612 33.6911C51.1853 33.5951 50.7853 33.5471 50.412 33.5471C49.9533 33.5471 49.6387 33.5898 49.468 33.6751C49.308 33.7605 49.228 33.8565 49.228 33.9631C49.228 34.0911 49.3187 34.1871 49.5 34.2511C49.6813 34.3151 49.9213 34.3631 50.22 34.3951C50.5187 34.4271 50.844 34.4698 51.196 34.5231C51.5587 34.5658 51.916 34.6405 52.268 34.7471C52.6307 34.8431 52.9613 34.9871 53.26 35.1791C53.5587 35.3711 53.7987 35.6325 53.98 35.9631C54.1613 36.2831 54.252 36.6938 54.252 37.1951C54.252 37.7178 54.0867 38.2085 53.756 38.6671C53.4253 39.1151 52.924 39.4778 52.252 39.7551C51.58 40.0218 50.7373 40.1551 49.724 40.1551Z"/>
  </mask>
  <path d="M10.8851 33.5631H15.8131V36.4111H10.8851V33.5631ZM11.1411 39.9951H7.36513V28.7951H16.4691V31.6431H11.1411V39.9951ZM17.3938 39.9951V31.2431H20.8338V33.8831L20.2738 33.1311C20.5404 32.4485 20.9671 31.9365 21.5538 31.5951C22.1404 31.2538 22.8444 31.0831 23.6658 31.0831V34.2831C23.5058 34.2618 23.3618 34.2458 23.2338 34.2351C23.1164 34.2245 22.9938 34.2191 22.8658 34.2191C22.3218 34.2191 21.8738 34.3631 21.5218 34.6511C21.1804 34.9285 21.0098 35.4138 21.0098 36.1071V39.9951H17.3938ZM29.4445 40.1551C28.3778 40.1551 27.4445 39.9578 26.6445 39.5631C25.8552 39.1685 25.2418 38.6298 24.8045 37.9471C24.3672 37.2538 24.1485 36.4751 24.1485 35.6111C24.1485 34.7258 24.3618 33.9418 24.7885 33.2591C25.2258 32.5765 25.8178 32.0431 26.5645 31.6591C27.3218 31.2751 28.1698 31.0831 29.1085 31.0831C29.9725 31.0831 30.7672 31.2538 31.4925 31.5951C32.2285 31.9365 32.8152 32.4431 33.2525 33.1151C33.7005 33.7871 33.9245 34.6191 33.9245 35.6111C33.9245 35.7391 33.9192 35.8831 33.9085 36.0431C33.8978 36.1925 33.8872 36.3311 33.8765 36.4591H27.1405V34.7151H31.9565L30.5965 35.1791C30.5965 34.8378 30.5325 34.5498 30.4045 34.3151C30.2872 34.0698 30.1218 33.8831 29.9085 33.7551C29.6952 33.6165 29.4392 33.5471 29.1405 33.5471C28.8418 33.5471 28.5805 33.6165 28.3565 33.7551C28.1432 33.8831 27.9778 34.0698 27.8605 34.3151C27.7432 34.5498 27.6845 34.8378 27.6845 35.1791V35.7231C27.6845 36.0965 27.7592 36.4165 27.9085 36.6831C28.0578 36.9498 28.2712 37.1525 28.5485 37.2911C28.8258 37.4191 29.1618 37.4831 29.5565 37.4831C29.9618 37.4831 30.2925 37.4298 30.5485 37.3231C30.8152 37.2165 31.0925 37.0565 31.3805 36.8431L33.2685 38.7471C32.8418 39.2058 32.3138 39.5578 31.6845 39.8031C31.0658 40.0378 30.3192 40.1551 29.4445 40.1551ZM41.1456 31.0831C41.8176 31.0831 42.4256 31.2218 42.9696 31.4991C43.5136 31.7658 43.9403 32.1871 44.2496 32.7631C44.5696 33.3391 44.7296 34.0858 44.7296 35.0031V39.9951H41.1136V35.6271C41.1136 35.0831 41.0176 34.6991 40.8256 34.4751C40.6336 34.2405 40.3723 34.1231 40.0416 34.1231C39.7963 34.1231 39.567 34.1818 39.3536 34.2991C39.151 34.4058 38.9856 34.5871 38.8576 34.8431C38.7403 35.0991 38.6816 35.4458 38.6816 35.8831V39.9951H35.0656V31.2431H38.5056V33.8031L37.8176 33.0671C38.159 32.4058 38.6176 31.9098 39.1936 31.5791C39.7803 31.2484 40.431 31.0831 41.1456 31.0831ZM49.724 40.1551C48.9773 40.1551 48.2413 40.0751 47.516 39.9151C46.7907 39.7551 46.204 39.5471 45.756 39.2911L46.748 36.9071C47.164 37.1525 47.644 37.3445 48.188 37.4831C48.7427 37.6218 49.2813 37.6911 49.804 37.6911C50.2413 37.6911 50.5347 37.6538 50.684 37.5791C50.844 37.5045 50.924 37.4031 50.924 37.2751C50.924 37.1471 50.8333 37.0565 50.652 37.0031C50.4707 36.9391 50.2307 36.8911 49.932 36.8591C49.6333 36.8271 49.3027 36.7898 48.94 36.7471C48.588 36.6938 48.2307 36.6191 47.868 36.5231C47.5053 36.4271 47.1747 36.2831 46.876 36.0911C46.5773 35.8991 46.3373 35.6431 46.156 35.3231C45.9747 34.9925 45.884 34.5765 45.884 34.0751C45.884 33.5205 46.0493 33.0191 46.38 32.5711C46.7213 32.1231 47.2227 31.7658 47.884 31.4991C48.556 31.2218 49.3827 31.0831 50.364 31.0831C51.004 31.0831 51.644 31.1418 52.284 31.2591C52.924 31.3765 53.4733 31.5578 53.932 31.8031L52.94 34.1871C52.492 33.9418 52.0493 33.7765 51.612 33.6911C51.1853 33.5951 50.7853 33.5471 50.412 33.5471C49.9533 33.5471 49.6387 33.5898 49.468 33.6751C49.308 33.7605 49.228 33.8565 49.228 33.9631C49.228 34.0911 49.3187 34.1871 49.5 34.2511C49.6813 34.3151 49.9213 34.3631 50.22 34.3951C50.5187 34.4271 50.844 34.4698 51.196 34.5231C51.5587 34.5658 51.916 34.6405 52.268 34.7471C52.6307 34.8431 52.9613 34.9871 53.26 35.1791C53.5587 35.3711 53.7987 35.6325 53.98 35.9631C54.1613 36.2831 54.252 36.6938 54.252 37.1951C54.252 37.7178 54.0867 38.2085 53.756 38.6671C53.4253 39.1151 52.924 39.4778 52.252 39.7551C51.58 40.0218 50.7373 40.1551 49.724 40.1551Z" fill="white"/>
  <path d="M10.8851 33.5631V30.5631C9.22827 30.5631 7.88513 31.9063 7.88513 33.5631H10.8851ZM15.8131 33.5631H18.8131C18.8131 31.9063 17.47 30.5631 15.8131 30.5631V33.5631ZM15.8131 36.4111V39.4111C17.47 39.4111 18.8131 38.068 18.8131 36.4111H15.8131ZM10.8851 36.4111H7.88513C7.88513 38.068 9.22827 39.4111 10.8851 39.4111V36.4111ZM11.1411 39.9951V42.9951C12.798 42.9951 14.1411 41.652 14.1411 39.9951H11.1411ZM7.36513 39.9951H4.36513C4.36513 41.652 5.70827 42.9951 7.36513 42.9951V39.9951ZM7.36513 28.7951V25.7951C5.70827 25.7951 4.36513 27.1383 4.36513 28.7951H7.36513ZM16.4691 28.7951H19.4691C19.4691 27.1383 18.126 25.7951 16.4691 25.7951V28.7951ZM16.4691 31.6431V34.6431C18.126 34.6431 19.4691 33.3 19.4691 31.6431H16.4691ZM11.1411 31.6431V28.6431C9.48427 28.6431 8.14113 29.9863 8.14113 31.6431H11.1411ZM10.8851 36.5631H15.8131V30.5631H10.8851V36.5631ZM12.8131 33.5631V36.4111H18.8131V33.5631H12.8131ZM15.8131 33.4111H10.8851V39.4111H15.8131V33.4111ZM13.8851 36.4111V33.5631H7.88513V36.4111H13.8851ZM11.1411 36.9951H7.36513V42.9951H11.1411V36.9951ZM10.3651 39.9951V28.7951H4.36513V39.9951H10.3651ZM7.36513 31.7951H16.4691V25.7951H7.36513V31.7951ZM13.4691 28.7951V31.6431H19.4691V28.7951H13.4691ZM16.4691 28.6431H11.1411V34.6431H16.4691V28.6431ZM8.14113 31.6431V39.9951H14.1411V31.6431H8.14113ZM17.3938 39.9951H14.3938C14.3938 41.652 15.7369 42.9951 17.3938 42.9951V39.9951ZM17.3938 31.2431V28.2431C15.7369 28.2431 14.3938 29.5863 14.3938 31.2431H17.3938ZM20.8337 31.2431H23.8337C23.8337 29.5863 22.4906 28.2431 20.8337 28.2431V31.2431ZM20.8337 33.8831L18.4276 35.6749C19.2 36.7121 20.5501 37.1376 21.7776 36.7308C23.0051 36.3239 23.8337 35.1763 23.8337 33.8831H20.8337ZM20.2738 33.1311L17.4794 32.0396C17.1029 33.0033 17.2496 34.0931 17.8676 34.9229L20.2738 33.1311ZM21.5538 31.5951L20.0451 29.0021L20.0451 29.0021L21.5538 31.5951ZM23.6658 31.0831H26.6658C26.6658 29.4263 25.3226 28.0831 23.6658 28.0831V31.0831ZM23.6658 34.2831L23.2693 37.2568C24.1265 37.3711 24.9913 37.1099 25.6419 36.5403C26.2926 35.9706 26.6658 35.1479 26.6658 34.2831H23.6658ZM23.2337 34.2351L22.9621 37.2228C22.9696 37.2235 22.9771 37.2241 22.9846 37.2248L23.2337 34.2351ZM21.5218 34.6511L23.4135 36.9795L23.4215 36.973L21.5218 34.6511ZM21.0098 39.9951V42.9951C22.6666 42.9951 24.0098 41.652 24.0098 39.9951H21.0098ZM20.3938 39.9951V31.2431H14.3938V39.9951H20.3938ZM17.3938 34.2431H20.8337V28.2431H17.3938V34.2431ZM17.8337 31.2431V33.8831H23.8337V31.2431H17.8337ZM23.2399 32.0913L22.6799 31.3393L17.8676 34.9229L18.4276 35.6749L23.2399 32.0913ZM23.0681 34.2227C23.0823 34.1864 23.0934 34.1657 23.0984 34.157C23.1033 34.1485 23.1038 34.1492 23.0984 34.1557C23.0929 34.1623 23.0852 34.1703 23.0762 34.1778C23.0672 34.1854 23.0617 34.1886 23.0624 34.1882L20.0451 29.0021C18.8244 29.7123 17.9716 30.7794 17.4794 32.0396L23.0681 34.2227ZM23.0624 34.1882C23.1036 34.1642 23.2632 34.0831 23.6658 34.0831V28.0831C22.4256 28.0831 21.1773 28.3433 20.0451 29.0021L23.0624 34.1882ZM20.6658 31.0831V34.2831H26.6658V31.0831H20.6658ZM24.0622 31.3094C23.865 31.2831 23.6707 31.2611 23.4829 31.2455L22.9846 37.2248C23.0528 37.2304 23.1465 37.2404 23.2693 37.2568L24.0622 31.3094ZM23.5054 31.2474C23.2904 31.2279 23.0767 31.2191 22.8657 31.2191V37.2191C22.9108 37.2191 22.9424 37.221 22.9621 37.2228L23.5054 31.2474ZM22.8657 31.2191C21.7706 31.2191 20.6101 31.5208 19.622 32.3292L23.4215 36.973C23.2965 37.0752 23.161 37.1443 23.0398 37.1832C22.925 37.2201 22.8578 37.2191 22.8657 37.2191V31.2191ZM19.63 32.3228C18.264 33.4326 18.0098 35.0319 18.0098 36.1071H24.0098C24.0098 35.9893 24.0265 36.0517 23.9679 36.2183C23.9011 36.4081 23.7412 36.7133 23.4135 36.9795L19.63 32.3228ZM18.0098 36.1071V39.9951H24.0098V36.1071H18.0098ZM21.0098 36.9951H17.3938V42.9951H21.0098V36.9951ZM26.6445 39.5631L25.3029 42.2464C25.3076 42.2488 25.3124 42.2512 25.3172 42.2535L26.6445 39.5631ZM24.8045 37.9471L22.2671 39.5476C22.2709 39.5536 22.2746 39.5595 22.2784 39.5654L24.8045 37.9471ZM24.7885 33.2591L22.2624 31.6408C22.2564 31.6502 22.2504 31.6597 22.2445 31.6691L24.7885 33.2591ZM26.5645 31.6591L25.2078 28.9834C25.2027 28.986 25.1976 28.9886 25.1925 28.9913L26.5645 31.6591ZM31.4925 31.5951L30.2151 34.3096C30.2202 34.312 30.2252 34.3143 30.2303 34.3167L31.4925 31.5951ZM33.2525 33.1151L30.7381 34.7515C30.7441 34.7608 30.7502 34.77 30.7563 34.7792L33.2525 33.1151ZM33.9085 36.0431L36.9009 36.2569C36.9012 36.2521 36.9015 36.2474 36.9019 36.2427L33.9085 36.0431ZM33.8765 36.4591V39.4591C35.4368 39.4591 36.7366 38.2631 36.8661 36.7083L33.8765 36.4591ZM27.1405 36.4591H24.1405C24.1405 38.116 25.4836 39.4591 27.1405 39.4591V36.4591ZM27.1405 34.7151V31.7151C25.4836 31.7151 24.1405 33.0583 24.1405 34.7151H27.1405ZM31.9565 34.7151L32.9252 37.5544C34.314 37.0806 35.1562 35.6717 34.9161 34.2241C34.6759 32.7766 33.4239 31.7151 31.9565 31.7151V34.7151ZM30.5965 35.1791H27.5965C27.5965 36.1472 28.0636 37.0557 28.851 37.619C29.6383 38.1823 30.649 38.331 31.5652 38.0184L30.5965 35.1791ZM30.4045 34.3151L27.6981 35.6095C27.7211 35.6575 27.7453 35.7049 27.7708 35.7517L30.4045 34.3151ZM29.9085 33.7551L28.2735 36.2704C28.3037 36.29 28.3342 36.3091 28.365 36.3276L29.9085 33.7551ZM28.3565 33.7551L29.9 36.3276C29.9119 36.3205 29.9238 36.3132 29.9356 36.3059L28.3565 33.7551ZM27.8605 34.3151L30.5438 35.6568C30.5516 35.6411 30.5593 35.6253 30.5669 35.6095L27.8605 34.3151ZM27.9085 36.6831L30.526 35.2173V35.2173L27.9085 36.6831ZM28.5485 37.2911L27.2069 39.9744C27.2348 39.9884 27.263 40.0019 27.2913 40.015L28.5485 37.2911ZM30.5485 37.3231L29.4343 34.5377C29.4211 34.543 29.4078 34.5484 29.3947 34.5539L30.5485 37.3231ZM31.3805 36.8431L33.5108 34.7308C32.4609 33.672 30.7929 33.545 29.5948 34.4324L31.3805 36.8431ZM33.2685 38.7471L35.4651 40.7904C36.5615 39.6118 36.5322 37.7778 35.3988 36.6348L33.2685 38.7471ZM31.6845 39.8031L32.7485 42.6081C32.757 42.6049 32.7656 42.6016 32.7741 42.5982L31.6845 39.8031ZM29.4445 37.1551C28.749 37.1551 28.2858 37.0276 27.9718 36.8727L25.3172 42.2535C26.6032 42.8879 28.0067 43.1551 29.4445 43.1551V37.1551ZM27.9861 36.8798C27.6362 36.7048 27.4507 36.5164 27.3306 36.3288L22.2784 39.5654C23.0329 40.7432 24.0742 41.6321 25.3029 42.2464L27.9861 36.8798ZM27.3419 36.3466C27.2234 36.1588 27.1485 35.9407 27.1485 35.6111H21.1485C21.1485 37.0095 21.5109 38.3488 22.2671 39.5476L27.3419 36.3466ZM27.1485 35.6111C27.1485 35.23 27.2332 35.0081 27.3325 34.8491L22.2445 31.6691C21.4905 32.8755 21.1485 34.2216 21.1485 35.6111H27.1485ZM27.3146 34.8774C27.4561 34.6565 27.6429 34.478 27.9365 34.327L25.1925 28.9913C23.9928 29.6082 22.9956 30.4964 22.2624 31.6408L27.3146 34.8774ZM27.9212 34.3348C28.2152 34.1857 28.5908 34.0831 29.1085 34.0831V28.0831C27.7489 28.0831 26.4284 28.3645 25.2078 28.9834L27.9212 34.3348ZM29.1085 34.0831C29.5658 34.0831 29.9198 34.1706 30.2151 34.3096L32.7699 28.8807C31.6145 28.337 30.3792 28.0831 29.1085 28.0831V34.0831ZM30.2303 34.3167C30.4617 34.424 30.6118 34.5575 30.7381 34.7515L35.7669 31.4787C35.0185 30.3287 33.9953 29.4489 32.7547 28.8736L30.2303 34.3167ZM30.7563 34.7792C30.8076 34.8561 30.9245 35.0752 30.9245 35.6111H36.9245C36.9245 34.163 36.5934 32.7181 35.7487 31.451L30.7563 34.7792ZM30.9245 35.6111C30.9245 35.6584 30.9224 35.7342 30.9151 35.8436L36.9019 36.2427C36.9159 36.032 36.9245 35.8198 36.9245 35.6111H30.9245ZM30.9161 35.8294C30.9062 35.9688 30.8964 36.0955 30.8869 36.21L36.8661 36.7083C36.8779 36.5667 36.8895 36.4161 36.9009 36.2569L30.9161 35.8294ZM33.8765 33.4591H27.1405V39.4591H33.8765V33.4591ZM30.1405 36.4591V34.7151H24.1405V36.4591H30.1405ZM27.1405 37.7151H31.9565V31.7151H27.1405V37.7151ZM30.9878 31.8758L29.6278 32.3398L31.5652 38.0184L32.9252 37.5544L30.9878 31.8758ZM33.5965 35.1791C33.5965 34.4716 33.4641 33.6594 33.0382 32.8786L27.7708 35.7517C27.6009 35.4402 27.5965 35.204 27.5965 35.1791H33.5965ZM33.1109 33.0207C32.7643 32.2961 32.2168 31.6415 31.452 31.1826L28.365 36.3276C28.0269 36.1247 27.81 35.8435 27.6981 35.6095L33.1109 33.0207ZM31.5435 31.2398C30.7639 30.7331 29.9167 30.5471 29.1405 30.5471V36.5471C28.9616 36.5471 28.6264 36.4998 28.2735 36.2704L31.5435 31.2398ZM29.1405 30.5471C28.3604 30.5471 27.5368 30.7342 26.7774 31.2043L29.9356 36.3059C29.6242 36.4987 29.3233 36.5471 29.1405 36.5471V30.5471ZM26.813 31.1826C26.0482 31.6415 25.5007 32.2961 25.1541 33.0208L30.5669 35.6095C30.455 35.8435 30.2381 36.1247 29.9 36.3276L26.813 31.1826ZM25.1772 32.9735C24.7986 33.7307 24.6845 34.5072 24.6845 35.1791H30.6845C30.6845 35.1794 30.6845 35.1907 30.6826 35.2116C30.6806 35.2325 30.6766 35.2645 30.6681 35.3059C30.6512 35.3892 30.6159 35.5125 30.5438 35.6568L25.1772 32.9735ZM24.6845 35.1791V35.7231H30.6845V35.1791H24.6845ZM24.6845 35.7231C24.6845 36.4968 24.8409 37.3453 25.291 38.1489L30.526 35.2173C30.6774 35.4876 30.6845 35.6961 30.6845 35.7231H24.6845ZM25.291 38.1489C25.7385 38.9481 26.4002 39.5711 27.2069 39.9744L29.8901 34.6078C30.0025 34.664 30.127 34.7464 30.2467 34.8601C30.3667 34.9741 30.4593 35.0982 30.526 35.2173L25.291 38.1489ZM27.2913 40.015C28.0602 40.3699 28.8496 40.4831 29.5565 40.4831V34.4831C29.4741 34.4831 29.5915 34.4684 29.8057 34.5672L27.2913 40.015ZM29.5565 40.4831C30.1907 40.4831 30.9529 40.4046 31.7023 40.0923L29.3947 34.5539C29.523 34.5004 29.6102 34.4847 29.6308 34.4814C29.6522 34.4779 29.6312 34.4831 29.5565 34.4831V40.4831ZM31.6627 40.1085C32.2187 39.8861 32.7201 39.5842 33.1662 39.2538L29.5948 34.4324C29.4649 34.5287 29.4116 34.5468 29.4343 34.5377L31.6627 40.1085ZM29.2502 38.9555L31.1382 40.8595L35.3988 36.6348L33.5108 34.7308L29.2502 38.9555ZM31.0719 36.7038C30.9766 36.8063 30.8369 36.9136 30.5949 37.008L32.7741 42.5982C33.7908 42.2019 34.7071 41.6052 35.4651 40.7904L31.0719 36.7038ZM30.6205 36.9981C30.4317 37.0698 30.0661 37.1551 29.4445 37.1551V43.1551C30.5723 43.1551 31.7 43.0058 32.7485 42.6081L30.6205 36.9981ZM42.9696 31.4991L41.6071 34.1718C41.621 34.179 41.6351 34.186 41.6492 34.1929L42.9696 31.4991ZM44.2496 32.7631L41.6066 34.1825C41.6134 34.1951 41.6202 34.2076 41.6272 34.22L44.2496 32.7631ZM44.7296 39.9951V42.9951C46.3865 42.9951 47.7296 41.652 47.7296 39.9951H44.7296ZM41.1136 39.9951H38.1136C38.1136 41.652 39.4568 42.9951 41.1136 42.9951V39.9951ZM40.8256 34.4751L38.5038 36.3748C38.5183 36.3926 38.533 36.4101 38.5479 36.4275L40.8256 34.4751ZM39.3536 34.2991L40.7509 36.9539C40.7671 36.9453 40.7833 36.9366 40.7994 36.9278L39.3536 34.2991ZM38.8576 34.8431L36.1743 33.5015C36.1592 33.5318 36.1445 33.5623 36.1304 33.5932L38.8576 34.8431ZM38.6816 39.9951V42.9951C40.3385 42.9951 41.6816 41.652 41.6816 39.9951H38.6816ZM35.0656 39.9951H32.0656C32.0656 41.652 33.4088 42.9951 35.0656 42.9951V39.9951ZM35.0656 31.2431V28.2431C33.4088 28.2431 32.0656 29.5863 32.0656 31.2431H35.0656ZM38.5056 31.2431H41.5056C41.5056 29.5863 40.1625 28.2431 38.5056 28.2431V31.2431ZM38.5056 33.8031L36.314 35.8518C37.1552 36.7516 38.461 37.0459 39.6068 36.5937C40.7526 36.1416 41.5056 35.0349 41.5056 33.8031H38.5056ZM37.8176 33.0671L35.1518 31.6912C34.5701 32.8182 34.76 34.1893 35.626 35.1158L37.8176 33.0671ZM39.1936 31.5791L37.7206 28.9657C37.7137 28.9695 37.7069 28.9734 37.7 28.9774L39.1936 31.5791ZM41.1456 34.0831C41.3924 34.0831 41.5262 34.1306 41.6071 34.1718L44.3322 28.8264C43.3251 28.313 42.2429 28.0831 41.1456 28.0831V34.0831ZM41.6492 34.1929C41.6433 34.19 41.6332 34.1844 41.6208 34.1757C41.6084 34.1669 41.5978 34.1577 41.5897 34.1497C41.5817 34.1418 41.5793 34.1381 41.5818 34.1415C41.5844 34.145 41.5933 34.1576 41.6066 34.1825L46.8926 31.3437C46.3113 30.2613 45.4426 29.3703 44.2901 28.8054L41.6492 34.1929ZM41.6272 34.22C41.6214 34.2096 41.7296 34.4059 41.7296 35.0031H47.7296C47.7296 33.7657 47.5179 32.4686 46.8721 31.3062L41.6272 34.22ZM41.7296 35.0031V39.9951H47.7296V35.0031H41.7296ZM44.7296 36.9951H41.1136V42.9951H44.7296V36.9951ZM44.1136 39.9951V35.6271H38.1136V39.9951H44.1136ZM44.1136 35.6271C44.1136 34.9012 44.0195 33.5915 43.1034 32.5227L38.5479 36.4275C38.2554 36.0863 38.1593 35.7713 38.1312 35.6587C38.1022 35.5429 38.1136 35.516 38.1136 35.6271H44.1136ZM43.1475 32.5754C42.3294 31.5755 41.1793 31.1231 40.0416 31.1231V37.1231C39.8484 37.1231 39.5678 37.0875 39.2569 36.9479C38.9385 36.805 38.6846 36.5959 38.5038 36.3748L43.1475 32.5754ZM40.0416 31.1231C39.2948 31.1231 38.5677 31.3076 37.9079 31.6705L40.7994 36.9278C40.5662 37.056 40.2978 37.1231 40.0416 37.1231V31.1231ZM37.9564 31.6444C37.0728 32.1094 36.5123 32.8256 36.1743 33.5015L41.5409 36.1848C41.459 36.3486 41.2291 36.7022 40.7509 36.9539L37.9564 31.6444ZM36.1304 33.5932C35.7615 34.3981 35.6816 35.2286 35.6816 35.8831H41.6816C41.6816 35.7935 41.688 35.7695 41.6836 35.7957C41.6795 35.82 41.6587 35.932 41.5848 36.0931L36.1304 33.5932ZM35.6816 35.8831V39.9951H41.6816V35.8831H35.6816ZM38.6816 36.9951H35.0656V42.9951H38.6816V36.9951ZM38.0656 39.9951V31.2431H32.0656V39.9951H38.0656ZM35.0656 34.2431H38.5056V28.2431H35.0656V34.2431ZM35.5056 31.2431V33.8031H41.5056V31.2431H35.5056ZM40.6972 31.7545L40.0092 31.0185L35.626 35.1158L36.314 35.8518L40.6972 31.7545ZM40.4835 34.443C40.5931 34.2307 40.6706 34.1904 40.6872 34.1809L37.7 28.9774C36.5646 29.6292 35.7249 30.5808 35.1518 31.6912L40.4835 34.443ZM40.6667 34.1926C40.7761 34.1309 40.9143 34.0831 41.1456 34.0831V28.0831C39.9476 28.0831 38.7845 28.366 37.7206 28.9657L40.6667 34.1926ZM47.516 39.9151L46.8698 42.8447L47.516 39.9151ZM45.756 39.2911L42.9862 38.1386C42.4052 39.535 42.9544 41.1455 44.2676 41.8958L45.756 39.2911ZM46.748 36.9071L48.272 34.323C47.5244 33.8821 46.6225 33.7866 45.7991 34.0611C44.9758 34.3356 44.3116 34.9533 43.9782 35.7546L46.748 36.9071ZM48.188 37.4831L47.447 40.3902L47.4604 40.3935L48.188 37.4831ZM50.684 37.5791L49.4153 34.8606C49.3909 34.872 49.3665 34.8838 49.3424 34.8958L50.684 37.5791ZM50.652 37.0031L49.6535 39.8321C49.7038 39.8498 49.7544 39.8662 49.8055 39.8812L50.652 37.0031ZM48.94 36.7471L48.4906 39.7133C48.5235 39.7182 48.5564 39.7227 48.5895 39.7266L48.94 36.7471ZM47.868 36.5231L47.1003 39.4232L47.868 36.5231ZM46.876 36.0911L45.2537 38.6147V38.6147L46.876 36.0911ZM46.156 35.3231L43.5256 36.7656C43.5323 36.7778 43.5391 36.79 43.5459 36.8022L46.156 35.3231ZM46.38 32.5711L43.9937 30.753C43.9845 30.7651 43.9753 30.7773 43.9663 30.7896L46.38 32.5711ZM47.884 31.4991L49.0059 34.2814C49.0134 34.2784 49.021 34.2753 49.0285 34.2722L47.884 31.4991ZM52.284 31.2591L51.743 34.2099L51.743 34.2099L52.284 31.2591ZM53.932 31.8031L56.7018 32.9556C57.2951 31.5297 56.7089 29.8862 55.347 29.1578L53.932 31.8031ZM52.94 34.1871L51.4991 36.8184C52.2457 37.2273 53.1309 37.2997 53.9341 37.0176C54.7372 36.7356 55.3827 36.1256 55.7098 35.3396L52.94 34.1871ZM51.612 33.6911L50.9535 36.6179C50.9814 36.6242 51.0094 36.6301 51.0375 36.6356L51.612 33.6911ZM49.468 33.6751L48.1264 30.9918C48.1028 31.0036 48.0794 31.0157 48.0562 31.0281L49.468 33.6751ZM49.5 34.2511L50.4985 31.4221L50.4985 31.4221L49.5 34.2511ZM50.22 34.3951L50.5396 31.4122L50.22 34.3951ZM51.196 34.5231L50.7466 37.4893C50.7795 37.4942 50.8124 37.4987 50.8455 37.5026L51.196 34.5231ZM52.268 34.7471L51.398 37.6182C51.4319 37.6285 51.466 37.6382 51.5003 37.6472L52.268 34.7471ZM53.26 35.1791L54.8823 32.6556L54.8823 32.6556L53.26 35.1791ZM53.98 35.9631L51.3496 37.4056C51.3563 37.4178 51.3631 37.43 51.3699 37.4422L53.98 35.9631ZM53.756 38.6671L56.1697 40.4487C56.1764 40.4397 56.183 40.4306 56.1895 40.4215L53.756 38.6671ZM52.252 39.7551L53.3585 42.5436C53.3712 42.5386 53.3839 42.5334 53.3965 42.5282L52.252 39.7551ZM49.724 37.1551C49.1935 37.1551 48.6742 37.0985 48.1622 36.9855L46.8698 42.8447C47.8084 43.0517 48.7612 43.1551 49.724 43.1551V37.1551ZM48.1622 36.9855C47.6144 36.8647 47.3421 36.7422 47.2444 36.6864L44.2676 41.8958C45.0659 42.352 45.967 42.6455 46.8698 42.8447L48.1622 36.9855ZM48.5258 40.4436L49.5178 38.0596L43.9782 35.7546L42.9862 38.1386L48.5258 40.4436ZM45.224 39.4912C45.9203 39.9018 46.6716 40.1925 47.447 40.3902L48.929 34.5761C48.6164 34.4964 48.4077 34.4031 48.272 34.323L45.224 39.4912ZM47.4604 40.3935C48.231 40.5862 49.0143 40.6911 49.804 40.6911V34.6911C49.5484 34.6911 49.2544 34.6574 48.9156 34.5727L47.4604 40.3935ZM49.804 40.6911C50.0955 40.6911 50.4145 40.6794 50.7308 40.6391C50.9958 40.6054 51.501 40.5247 52.0256 40.2624L49.3424 34.8958C49.5541 34.79 49.7257 34.7409 49.8092 34.7198C49.8997 34.6968 49.9593 34.6889 49.9732 34.6871C49.9962 34.6842 49.9499 34.6911 49.804 34.6911V40.6911ZM51.9527 40.2977C52.7002 39.9488 53.924 39.0097 53.924 37.2751H47.924C47.924 36.6582 48.1353 36.062 48.5094 35.5882C48.8458 35.162 49.219 34.9522 49.4153 34.8606L51.9527 40.2977ZM53.924 37.2751C53.924 36.4139 53.5842 35.5966 52.9773 34.9898C52.4482 34.4607 51.8589 34.231 51.4985 34.125L49.8055 39.8812C49.6264 39.8285 49.1731 39.6709 48.7347 39.2324C48.2185 38.7163 47.924 38.0083 47.924 37.2751H53.924ZM51.6505 34.1741C51.163 34.0021 50.6679 33.9208 50.2516 33.8762L49.6124 39.842C49.6507 39.8461 49.6811 39.8501 49.7043 39.8536C49.7276 39.857 49.7417 39.8597 49.7477 39.8609C49.7537 39.8621 49.7487 39.8613 49.7343 39.8574C49.7201 39.8537 49.6923 39.8458 49.6535 39.8321L51.6505 34.1741ZM50.2516 33.8762C49.9652 33.8455 49.645 33.8094 49.2905 33.7677L48.5895 39.7266C48.9603 39.7702 49.3015 39.8087 49.6124 39.842L50.2516 33.8762ZM49.3894 33.781C49.1502 33.7447 48.8991 33.6927 48.6357 33.623L47.1003 39.4232C47.5622 39.5455 48.0258 39.6428 48.4906 39.7133L49.3894 33.781ZM48.6357 33.623C48.5586 33.6026 48.5189 33.5808 48.4983 33.5676L45.2537 38.6147C45.8304 38.9854 46.4521 39.2516 47.1003 39.4232L48.6357 33.623ZM48.4983 33.5676C48.5539 33.6034 48.6099 33.6492 48.6606 33.7033C48.711 33.757 48.7451 33.8071 48.7661 33.8441L43.5459 36.8022C43.9581 37.5295 44.5311 38.1501 45.2537 38.6147L48.4983 33.5676ZM48.7864 33.8806C48.8505 33.9975 48.8751 34.087 48.8832 34.1243C48.8908 34.1592 48.884 34.1477 48.884 34.0751H42.884C42.884 34.9207 43.035 35.871 43.5256 36.7656L48.7864 33.8806ZM48.884 34.0751C48.884 34.1007 48.8794 34.1551 48.8571 34.2227C48.8348 34.2902 48.8068 34.3349 48.7937 34.3527L43.9663 30.7896C43.2564 31.7513 42.884 32.8765 42.884 34.0751H48.884ZM48.7663 34.3892C48.7042 34.4707 48.7137 34.3993 49.0059 34.2814L46.7621 28.7168C45.7316 29.1323 44.7384 29.7755 43.9937 30.753L48.7663 34.3892ZM49.0285 34.2722C49.2346 34.1872 49.6461 34.0831 50.364 34.0831V28.0831C49.1193 28.0831 47.8774 28.2564 46.7395 28.726L49.0285 34.2722ZM50.364 34.0831C50.8195 34.0831 51.2785 34.1248 51.743 34.2099L52.825 28.3083C52.0095 28.1588 51.1884 28.0831 50.364 28.0831V34.0831ZM51.743 34.2099C52.1508 34.2847 52.3908 34.381 52.517 34.4485L55.347 29.1578C54.5559 28.7346 53.6972 28.4682 52.825 28.3083L51.743 34.2099ZM51.1622 30.6506L50.1702 33.0346L55.7098 35.3396L56.7018 32.9556L51.1622 30.6506ZM54.3809 31.5558C53.7009 31.1834 52.9677 30.8991 52.1865 30.7466L51.0375 36.6356C51.1309 36.6538 51.2831 36.7002 51.4991 36.8184L54.3809 31.5558ZM52.2705 30.7643C51.6635 30.6277 51.0408 30.5471 50.412 30.5471V36.5471C50.5299 36.5471 50.7071 36.5625 50.9535 36.6179L52.2705 30.7643ZM50.412 30.5471C50.1015 30.5471 49.7642 30.5609 49.4289 30.6063C49.1317 30.6466 48.6377 30.7361 48.1264 30.9918L50.8096 36.3584C50.621 36.4527 50.4682 36.4988 50.3881 36.5199C50.3033 36.5423 50.2481 36.5501 50.2351 36.5519C50.2145 36.5547 50.2638 36.5471 50.412 36.5471V30.5471ZM48.0562 31.0281C47.6328 31.2539 46.228 32.1239 46.228 33.9631H52.228C52.228 34.7284 51.921 35.3376 51.5927 35.7317C51.2995 36.0834 51.0003 36.2579 50.8798 36.3222L48.0562 31.0281ZM46.228 33.9631C46.228 34.8195 46.5621 35.6056 47.115 36.191C47.6028 36.7075 48.1515 36.9566 48.5015 37.0801L50.4985 31.4221C50.6671 31.4817 51.0798 31.6507 51.477 32.0712C51.9392 32.5606 52.228 33.2347 52.228 33.9631H46.228ZM48.5015 37.0801C48.989 37.2521 49.4841 37.3334 49.9004 37.378L50.5396 31.4122C50.5013 31.4081 50.4709 31.4041 50.4477 31.4007C50.4244 31.3972 50.4103 31.3946 50.4044 31.3934C50.3983 31.3922 50.4033 31.393 50.4177 31.3968C50.4319 31.4006 50.4597 31.4085 50.4985 31.4221L48.5015 37.0801ZM49.9004 37.378C50.1486 37.4046 50.4301 37.4413 50.7466 37.4893L51.6454 31.557C51.2579 31.4983 50.8887 31.4496 50.5396 31.4122L49.9004 37.378ZM50.8455 37.5026C51.0308 37.5244 51.2144 37.5626 51.398 37.6182L53.138 31.876C52.6176 31.7183 52.0865 31.6072 51.5465 31.5437L50.8455 37.5026ZM51.5003 37.6472C51.5774 37.6676 51.6171 37.6894 51.6377 37.7027L54.8823 32.6556C54.3056 32.2848 53.6839 32.0186 53.0357 31.847L51.5003 37.6472ZM51.6377 37.7027C51.5711 37.6598 51.5083 37.607 51.4544 37.5483C51.4011 37.4903 51.3678 37.4388 51.3496 37.4056L56.6104 34.5206C56.2039 33.7793 55.6281 33.135 54.8823 32.6556L51.6377 37.7027ZM51.3699 37.4422C51.2939 37.308 51.2646 37.2033 51.2545 37.1579C51.2451 37.1149 51.252 37.1218 51.252 37.1951H57.252C57.252 36.3556 57.1032 35.3896 56.5901 34.4841L51.3699 37.4422ZM51.252 37.1951C51.252 37.1339 51.2627 37.0635 51.2851 36.9972C51.3066 36.9331 51.3283 36.9046 51.3225 36.9127L56.1895 40.4215C56.8567 39.4961 57.252 38.3998 57.252 37.1951H51.252ZM51.3423 36.8856C51.4214 36.7784 51.425 36.851 51.1075 36.982L53.3965 42.5282C54.423 42.1046 55.4293 41.4519 56.1697 40.4487L51.3423 36.8856ZM51.1455 36.9666C50.9365 37.0496 50.4994 37.1551 49.724 37.1551V43.1551C50.9752 43.1551 52.2235 42.994 53.3585 42.5436L51.1455 36.9666Z" fill="#4B371F" mask="url(#path-10-outside-2_28641_17259)"/>
</svg>
