<svg width="33" height="29" viewBox="0 0 33 29" fill="none" xmlns="http://www.w3.org/2000/svg">
  <path d="M3.69908 16.452L9.63068 22.1554C13.5566 25.9304 19.7816 25.8694 23.6328 22.0182L29.6991 15.952C32.6991 12.6036 32.3509 6.60383 29.6991 3.95194C25.851 0.103764 20.1989 0.103643 16.6991 3.45193C13.1989 0.603643 7.54729 0.10376 3.69912 3.95193C-0.452588 8.10364 0.698957 13.6036 3.69908 16.452Z" fill="#FFB5DD"/>
  <path d="M16.6991 3.45193C13.1989 0.603643 7.54729 0.10376 3.69912 3.95193C-0.452588 8.10364 0.698957 13.6036 3.69908 16.452L9.63068 22.1554C13.5566 25.9304 19.7816 25.8694 23.6328 22.0182L29.6991 15.952C32.6991 12.6036 32.3509 6.60383 29.6991 3.95194C25.851 0.103764 20.1989 0.103643 16.6991 3.45193ZM16.6991 3.45193L12.699 7.60359" stroke="#4B371F" stroke-width="1.2" stroke-linecap="round" stroke-linejoin="round"/>
  <ellipse cx="17.9114" cy="15.5024" rx="5.67118" ry="6.5073" transform="rotate(41.6329 17.9114 15.5024)" fill="#4B371F"/>
  <ellipse cx="19.5541" cy="5.63068" rx="1.56088" ry="2.14603" transform="rotate(18.2691 19.5541 5.63068)" fill="#4B371F"/>
  <ellipse cx="27.1381" cy="14.0902" rx="1.56088" ry="2.00655" transform="rotate(80.0493 27.1381 14.0902)" fill="#4B371F"/>
  <ellipse cx="23.9508" cy="6.23824" rx="1.78986" ry="2.69908" transform="rotate(34.4206 23.9508 6.23824)" fill="#4B371F"/>
  <ellipse cx="26.886" cy="9.95858" rx="1.74716" ry="2.63469" transform="rotate(54.1824 26.886 9.95858)" fill="#4B371F"/>
</svg>
