<svg width="56" height="39" viewBox="0 0 56 39" fill="none" xmlns="http://www.w3.org/2000/svg">
  <path d="M47.4375 13.6981C45.9078 6.75109 41.7013 1.78251 37.7872 2.00733H37.6298C36.0696 2.00503 34.5606 2.56361 33.3783 3.58109C32.9546 4.05663 32.4347 4.43682 31.8531 4.69649C31.2714 4.95617 30.6411 5.08941 30.0041 5.0874C29.3926 5.08524 28.788 4.95852 28.2272 4.71499C27.6664 4.47147 27.1612 4.11625 26.7423 3.67102C25.5499 2.6005 24.0037 2.00801 22.4008 2.00733H22.2209C18.3068 1.78251 14.1003 6.75109 12.5707 13.6981C10.9285 21.0723 12.9531 27.8844 17.0696 28.8737C20.0839 29.6156 23.3906 27.0076 25.5951 22.691H34.503C36.7525 27.0301 40.0142 29.6156 43.0285 28.8737C47.055 27.862 49.0571 21.0723 47.4375 13.6981Z" fill="#FFB5DD" stroke="#4B371F" stroke-width="4" stroke-linejoin="round"/>
  <path d="M25.9162 13.2578H24.0051H23.0051V14.2578V16.3154H22.6456V14.2578V13.2578H21.6456H19.7263V12.7998H21.6456H22.6456V11.7998V9.74219H23.0051V11.7998V12.7998H24.0051H25.9125L25.9162 13.2578ZM35.2761 13.558L35.2633 13.5583L35.2505 13.559C35.1426 13.5646 35.0356 13.5377 34.9432 13.4819C34.8508 13.4262 34.7774 13.3441 34.7323 13.2463C34.6872 13.1485 34.6725 13.0395 34.69 12.9334C34.7075 12.8272 34.7564 12.7286 34.8306 12.6504C34.9048 12.5722 35.0008 12.5179 35.1063 12.4947C35.2118 12.4715 35.3218 12.4805 35.4221 12.5204C35.5224 12.5602 35.6084 12.6292 35.669 12.7183C35.7295 12.8074 35.7619 12.9126 35.7621 13.0202L35.7621 13.033L35.7624 13.0458C35.7642 13.1113 35.7531 13.1764 35.7296 13.2376C35.7062 13.2987 35.6709 13.3547 35.6258 13.4023C35.5806 13.4499 35.5265 13.4881 35.4665 13.5149C35.4065 13.5416 35.3418 13.5562 35.2761 13.558ZM39.9413 13.5576H39.9153L39.8894 13.559C39.7815 13.5646 39.6745 13.5377 39.5821 13.4819C39.4897 13.4262 39.4163 13.3441 39.3712 13.2463C39.3261 13.1485 39.3114 13.0395 39.3289 12.9334C39.3464 12.8272 39.3954 12.7286 39.4695 12.6504C39.5437 12.5722 39.6397 12.5179 39.7452 12.4947C39.8507 12.4715 39.9607 12.4805 40.061 12.5204C40.1613 12.5602 40.2473 12.6292 40.3079 12.7183C40.3684 12.8074 40.4008 12.9126 40.401 13.0202L40.401 13.0339L40.4014 13.0477C40.4051 13.1765 40.3587 13.3019 40.2719 13.3974C40.1904 13.487 40.0793 13.5438 39.9593 13.5576H39.9413Z" fill="#4B371F" stroke="#4B371F" stroke-width="2"/>
  <mask id="path-3-outside-1_29620_2" maskUnits="userSpaceOnUse" x="0" y="20" width="56" height="19" fill="black">
    <rect fill="white" y="20" width="56" height="19"/>
    <path d="M9.83719 35.256C8.93052 35.256 8.09319 35.1173 7.32519 34.84C6.56785 34.552 5.90652 34.1467 5.34119 33.624C4.78652 33.1013 4.35452 32.4827 4.04519 31.768C3.73585 31.0533 3.58119 30.264 3.58119 29.4C3.58119 28.536 3.73585 27.7467 4.04519 27.032C4.35452 26.3173 4.79185 25.6987 5.35719 25.176C5.92252 24.6533 6.58919 24.2533 7.35719 23.976C8.13585 23.688 8.98919 23.544 9.91719 23.544C11.0265 23.544 12.0132 23.7307 12.8772 24.104C13.7519 24.4773 14.4719 25.0107 15.0372 25.704L12.6212 27.832C12.2692 27.4267 11.8852 27.1227 11.4692 26.92C11.0639 26.7067 10.6105 26.6 10.1092 26.6C9.69319 26.6 9.31452 26.664 8.97319 26.792C8.64252 26.92 8.35985 27.1067 8.12519 27.352C7.89052 27.5973 7.70919 27.8907 7.58119 28.232C7.45319 28.5733 7.38919 28.9627 7.38919 29.4C7.38919 29.816 7.45319 30.2 7.58119 30.552C7.70919 30.8933 7.89052 31.1867 8.12519 31.432C8.35985 31.6773 8.63719 31.8693 8.95719 32.008C9.28785 32.136 9.65585 32.2 10.0612 32.2C10.4879 32.2 10.9039 32.1307 11.3092 31.992C11.7145 31.8427 12.1465 31.592 12.6052 31.24L14.7172 33.832C14.0345 34.2907 13.2559 34.6427 12.3812 34.888C11.5065 35.1333 10.6585 35.256 9.83719 35.256ZM11.4372 33.352V29.096H14.7172V33.832L11.4372 33.352ZM21.5101 35V33.448L21.2541 33.032V30.088C21.2541 29.6613 21.1207 29.336 20.8541 29.112C20.5981 28.888 20.1767 28.776 19.5901 28.776C19.1954 28.776 18.7954 28.84 18.3901 28.968C17.9847 29.0853 17.6381 29.2507 17.3501 29.464L16.1981 27.08C16.7101 26.76 17.3234 26.5147 18.0381 26.344C18.7527 26.1733 19.4514 26.088 20.1341 26.088C21.6381 26.088 22.8007 26.424 23.6221 27.096C24.4541 27.768 24.8701 28.8347 24.8701 30.296V35H21.5101ZM19.0301 35.16C18.3154 35.16 17.7181 35.0373 17.2381 34.792C16.7581 34.5467 16.3954 34.2213 16.1501 33.816C15.9047 33.4 15.7821 32.9413 15.7821 32.44C15.7821 31.8747 15.9261 31.3947 16.2141 31C16.5021 30.6053 16.9394 30.3067 17.5261 30.104C18.1234 29.9013 18.8754 29.8 19.7821 29.8H21.6061V31.544H20.3581C19.9741 31.544 19.6914 31.608 19.5101 31.736C19.3394 31.8533 19.2541 32.0347 19.2541 32.28C19.2541 32.4827 19.3287 32.6533 19.4781 32.792C19.6381 32.92 19.8514 32.984 20.1181 32.984C20.3634 32.984 20.5874 32.92 20.7901 32.792C21.0034 32.6533 21.1581 32.44 21.2541 32.152L21.7181 33.224C21.5794 33.8747 21.2861 34.36 20.8381 34.68C20.3901 35 19.7874 35.16 19.0301 35.16ZM38.0168 26.088C38.6781 26.088 39.2701 26.2267 39.7928 26.504C40.3261 26.7707 40.7421 27.192 41.0408 27.768C41.3501 28.344 41.5048 29.0907 41.5048 30.008V35H37.8888V30.632C37.8888 30.088 37.7981 29.704 37.6168 29.48C37.4355 29.2453 37.2008 29.128 36.9128 29.128C36.6995 29.128 36.5075 29.1813 36.3368 29.288C36.1661 29.3947 36.0275 29.5653 35.9208 29.8C35.8248 30.024 35.7768 30.3333 35.7768 30.728V35H32.1608V30.632C32.1608 30.088 32.0755 29.704 31.9048 29.48C31.7341 29.2453 31.4941 29.128 31.1848 29.128C30.9715 29.128 30.7795 29.1813 30.6088 29.288C30.4381 29.3947 30.2995 29.5653 30.1928 29.8C30.0968 30.024 30.0488 30.3333 30.0488 30.728V35H26.4328V26.248H29.8728V28.76L29.1688 28.056C29.4995 27.3947 29.9421 26.904 30.4968 26.584C31.0515 26.2533 31.6701 26.088 32.3528 26.088C33.1208 26.088 33.7981 26.2907 34.3848 26.696C34.9821 27.0907 35.3821 27.72 35.5848 28.584L34.4808 28.408C34.8008 27.6827 35.2648 27.1173 35.8728 26.712C36.4915 26.296 37.2061 26.088 38.0168 26.088ZM48.0617 35.16C46.995 35.16 46.0617 34.9627 45.2617 34.568C44.4724 34.1733 43.859 33.6347 43.4217 32.952C42.9844 32.2587 42.7657 31.48 42.7657 30.616C42.7657 29.7307 42.979 28.9467 43.4057 28.264C43.843 27.5813 44.435 27.048 45.1817 26.664C45.939 26.28 46.787 26.088 47.7257 26.088C48.5897 26.088 49.3844 26.2587 50.1097 26.6C50.8457 26.9413 51.4324 27.448 51.8697 28.12C52.3177 28.792 52.5417 29.624 52.5417 30.616C52.5417 30.744 52.5364 30.888 52.5257 31.048C52.515 31.1973 52.5044 31.336 52.4937 31.464H45.7577V29.72H50.5737L49.2137 30.184C49.2137 29.8427 49.1497 29.5547 49.0217 29.32C48.9044 29.0747 48.739 28.888 48.5257 28.76C48.3124 28.6213 48.0564 28.552 47.7577 28.552C47.459 28.552 47.1977 28.6213 46.9737 28.76C46.7604 28.888 46.595 29.0747 46.4777 29.32C46.3604 29.5547 46.3017 29.8427 46.3017 30.184V30.728C46.3017 31.1013 46.3764 31.4213 46.5257 31.688C46.675 31.9547 46.8884 32.1573 47.1657 32.296C47.443 32.424 47.779 32.488 48.1737 32.488C48.579 32.488 48.9097 32.4347 49.1657 32.328C49.4324 32.2213 49.7097 32.0613 49.9977 31.848L51.8857 33.752C51.459 34.2107 50.931 34.5627 50.3017 34.808C49.683 35.0427 48.9364 35.16 48.0617 35.16Z"/>
  </mask>
  <path d="M9.83719 35.256C8.93052 35.256 8.09319 35.1173 7.32519 34.84C6.56785 34.552 5.90652 34.1467 5.34119 33.624C4.78652 33.1013 4.35452 32.4827 4.04519 31.768C3.73585 31.0533 3.58119 30.264 3.58119 29.4C3.58119 28.536 3.73585 27.7467 4.04519 27.032C4.35452 26.3173 4.79185 25.6987 5.35719 25.176C5.92252 24.6533 6.58919 24.2533 7.35719 23.976C8.13585 23.688 8.98919 23.544 9.91719 23.544C11.0265 23.544 12.0132 23.7307 12.8772 24.104C13.7519 24.4773 14.4719 25.0107 15.0372 25.704L12.6212 27.832C12.2692 27.4267 11.8852 27.1227 11.4692 26.92C11.0639 26.7067 10.6105 26.6 10.1092 26.6C9.69319 26.6 9.31452 26.664 8.97319 26.792C8.64252 26.92 8.35985 27.1067 8.12519 27.352C7.89052 27.5973 7.70919 27.8907 7.58119 28.232C7.45319 28.5733 7.38919 28.9627 7.38919 29.4C7.38919 29.816 7.45319 30.2 7.58119 30.552C7.70919 30.8933 7.89052 31.1867 8.12519 31.432C8.35985 31.6773 8.63719 31.8693 8.95719 32.008C9.28785 32.136 9.65585 32.2 10.0612 32.2C10.4879 32.2 10.9039 32.1307 11.3092 31.992C11.7145 31.8427 12.1465 31.592 12.6052 31.24L14.7172 33.832C14.0345 34.2907 13.2559 34.6427 12.3812 34.888C11.5065 35.1333 10.6585 35.256 9.83719 35.256ZM11.4372 33.352V29.096H14.7172V33.832L11.4372 33.352ZM21.5101 35V33.448L21.2541 33.032V30.088C21.2541 29.6613 21.1207 29.336 20.8541 29.112C20.5981 28.888 20.1767 28.776 19.5901 28.776C19.1954 28.776 18.7954 28.84 18.3901 28.968C17.9847 29.0853 17.6381 29.2507 17.3501 29.464L16.1981 27.08C16.7101 26.76 17.3234 26.5147 18.0381 26.344C18.7527 26.1733 19.4514 26.088 20.1341 26.088C21.6381 26.088 22.8007 26.424 23.6221 27.096C24.4541 27.768 24.8701 28.8347 24.8701 30.296V35H21.5101ZM19.0301 35.16C18.3154 35.16 17.7181 35.0373 17.2381 34.792C16.7581 34.5467 16.3954 34.2213 16.1501 33.816C15.9047 33.4 15.7821 32.9413 15.7821 32.44C15.7821 31.8747 15.9261 31.3947 16.2141 31C16.5021 30.6053 16.9394 30.3067 17.5261 30.104C18.1234 29.9013 18.8754 29.8 19.7821 29.8H21.6061V31.544H20.3581C19.9741 31.544 19.6914 31.608 19.5101 31.736C19.3394 31.8533 19.2541 32.0347 19.2541 32.28C19.2541 32.4827 19.3287 32.6533 19.4781 32.792C19.6381 32.92 19.8514 32.984 20.1181 32.984C20.3634 32.984 20.5874 32.92 20.7901 32.792C21.0034 32.6533 21.1581 32.44 21.2541 32.152L21.7181 33.224C21.5794 33.8747 21.2861 34.36 20.8381 34.68C20.3901 35 19.7874 35.16 19.0301 35.16ZM38.0168 26.088C38.6781 26.088 39.2701 26.2267 39.7928 26.504C40.3261 26.7707 40.7421 27.192 41.0408 27.768C41.3501 28.344 41.5048 29.0907 41.5048 30.008V35H37.8888V30.632C37.8888 30.088 37.7981 29.704 37.6168 29.48C37.4355 29.2453 37.2008 29.128 36.9128 29.128C36.6995 29.128 36.5075 29.1813 36.3368 29.288C36.1661 29.3947 36.0275 29.5653 35.9208 29.8C35.8248 30.024 35.7768 30.3333 35.7768 30.728V35H32.1608V30.632C32.1608 30.088 32.0755 29.704 31.9048 29.48C31.7341 29.2453 31.4941 29.128 31.1848 29.128C30.9715 29.128 30.7795 29.1813 30.6088 29.288C30.4381 29.3947 30.2995 29.5653 30.1928 29.8C30.0968 30.024 30.0488 30.3333 30.0488 30.728V35H26.4328V26.248H29.8728V28.76L29.1688 28.056C29.4995 27.3947 29.9421 26.904 30.4968 26.584C31.0515 26.2533 31.6701 26.088 32.3528 26.088C33.1208 26.088 33.7981 26.2907 34.3848 26.696C34.9821 27.0907 35.3821 27.72 35.5848 28.584L34.4808 28.408C34.8008 27.6827 35.2648 27.1173 35.8728 26.712C36.4915 26.296 37.2061 26.088 38.0168 26.088ZM48.0617 35.16C46.995 35.16 46.0617 34.9627 45.2617 34.568C44.4724 34.1733 43.859 33.6347 43.4217 32.952C42.9844 32.2587 42.7657 31.48 42.7657 30.616C42.7657 29.7307 42.979 28.9467 43.4057 28.264C43.843 27.5813 44.435 27.048 45.1817 26.664C45.939 26.28 46.787 26.088 47.7257 26.088C48.5897 26.088 49.3844 26.2587 50.1097 26.6C50.8457 26.9413 51.4324 27.448 51.8697 28.12C52.3177 28.792 52.5417 29.624 52.5417 30.616C52.5417 30.744 52.5364 30.888 52.5257 31.048C52.515 31.1973 52.5044 31.336 52.4937 31.464H45.7577V29.72H50.5737L49.2137 30.184C49.2137 29.8427 49.1497 29.5547 49.0217 29.32C48.9044 29.0747 48.739 28.888 48.5257 28.76C48.3124 28.6213 48.0564 28.552 47.7577 28.552C47.459 28.552 47.1977 28.6213 46.9737 28.76C46.7604 28.888 46.595 29.0747 46.4777 29.32C46.3604 29.5547 46.3017 29.8427 46.3017 30.184V30.728C46.3017 31.1013 46.3764 31.4213 46.5257 31.688C46.675 31.9547 46.8884 32.1573 47.1657 32.296C47.443 32.424 47.779 32.488 48.1737 32.488C48.579 32.488 48.9097 32.4347 49.1657 32.328C49.4324 32.2213 49.7097 32.0613 49.9977 31.848L51.8857 33.752C51.459 34.2107 50.931 34.5627 50.3017 34.808C49.683 35.0427 48.9364 35.16 48.0617 35.16Z" fill="white"/>
  <path d="M7.32519 34.84L6.25884 37.6441C6.2746 37.6501 6.2904 37.6559 6.30625 37.6617L7.32519 34.84ZM5.34119 33.624L3.28378 35.8074C3.2907 35.8139 3.29765 35.8204 3.30462 35.8268L5.34119 33.624ZM4.04519 31.768L1.29202 32.9597L1.29202 32.9597L4.04519 31.768ZM4.04519 27.032L1.29202 25.8403L1.29202 25.8403L4.04519 27.032ZM5.35719 25.176L3.32062 22.9732L3.32062 22.9732L5.35719 25.176ZM7.35719 23.976L8.37612 26.7977C8.38338 26.795 8.39063 26.7924 8.39788 26.7897L7.35719 23.976ZM12.8772 24.104L11.6872 26.8579L11.6995 26.8632L12.8772 24.104ZM15.0372 25.704L17.0201 27.9553C18.2301 26.8895 18.3812 25.0579 17.3622 23.8082L15.0372 25.704ZM12.6212 27.832L10.3561 29.7991C10.8802 30.4026 11.6234 30.772 12.4209 30.8253C13.2184 30.8787 14.0043 30.6116 14.6041 30.0833L12.6212 27.832ZM11.4692 26.92L10.0719 29.5748C10.0995 29.5893 10.1273 29.6033 10.1553 29.617L11.4692 26.92ZM8.97319 26.792L7.91982 23.983C7.90993 23.9867 7.90006 23.9905 7.89021 23.9943L8.97319 26.792ZM8.12519 27.352L10.2931 29.4257L10.2931 29.4257L8.12519 27.352ZM7.58119 28.232L10.3902 29.2854L10.3902 29.2854L7.58119 28.232ZM7.58119 30.552L4.76181 31.5772C4.76522 31.5866 4.76869 31.596 4.7722 31.6054L7.58119 30.552ZM8.12519 31.432L10.2931 29.3583L10.2931 29.3583L8.12519 31.432ZM8.95719 32.008L7.76437 34.7607C7.80068 34.7764 7.8373 34.7914 7.87421 34.8057L8.95719 32.008ZM11.3092 31.992L12.2803 34.8305C12.3024 34.8229 12.3244 34.8151 12.3463 34.807L11.3092 31.992ZM12.6052 31.24L14.9309 29.345C13.9058 28.0869 12.0661 27.8721 10.7787 28.8601L12.6052 31.24ZM14.7172 33.832L16.3903 36.3221C17.0905 35.8517 17.5603 35.1081 17.6845 34.2736C17.8087 33.4392 17.5758 32.591 17.0429 31.937L14.7172 33.832ZM12.3812 34.888L13.1914 37.7765L13.1914 37.7765L12.3812 34.888ZM11.4372 33.352H8.43719C8.43719 34.8411 9.52942 36.1048 11.0028 36.3204L11.4372 33.352ZM11.4372 29.096V26.096C9.78033 26.096 8.43719 27.4391 8.43719 29.096H11.4372ZM14.7172 29.096H17.7172C17.7172 27.4391 16.374 26.096 14.7172 26.096V29.096ZM14.7172 33.832L14.2828 36.8004C15.1451 36.9266 16.0196 36.6716 16.6789 36.1017C17.3382 35.5319 17.7172 34.7035 17.7172 33.832H14.7172ZM9.83719 32.256C9.23979 32.256 8.75132 32.1654 8.34412 32.0183L6.30625 37.6617C7.43506 38.0693 8.62126 38.256 9.83719 38.256V32.256ZM8.39153 32.0359C7.97403 31.8771 7.64654 31.6697 7.37775 31.4212L3.30462 35.8268C4.16651 36.6237 5.16168 37.2269 6.25884 37.6441L8.39153 32.0359ZM7.39859 31.4406C7.14744 31.204 6.94924 30.9249 6.79835 30.5763L1.29202 32.9597C1.7598 34.0404 2.4256 34.9987 3.28378 35.8074L7.39859 31.4406ZM6.79835 30.5763C6.66884 30.2771 6.58119 29.8991 6.58119 29.4H0.581188C0.581188 30.6289 0.80287 31.8296 1.29202 32.9597L6.79835 30.5763ZM6.58119 29.4C6.58119 28.9009 6.66884 28.5229 6.79835 28.2237L1.29202 25.8403C0.80287 26.9704 0.581188 28.1711 0.581188 29.4H6.58119ZM6.79835 28.2237C6.94376 27.8877 7.13866 27.6147 7.39375 27.3788L3.32062 22.9732C2.44505 23.7827 1.76528 24.7469 1.29202 25.8403L6.79835 28.2237ZM7.39375 27.3788C7.64707 27.1446 7.9621 26.9472 8.37612 26.7977L6.33826 21.1543C5.21627 21.5595 4.19797 22.1621 3.32062 22.9732L7.39375 27.3788ZM8.39788 26.7897C8.80653 26.6386 9.3028 26.544 9.91719 26.544V20.544C8.67557 20.544 7.46518 20.7374 6.3165 21.1623L8.39788 26.7897ZM9.91719 26.544C10.6893 26.544 11.2599 26.6733 11.6872 26.8579L14.0671 21.3501C12.7665 20.7881 11.3637 20.544 9.91719 20.544V26.544ZM11.6995 26.8632C12.1564 27.0582 12.473 27.3066 12.7121 27.5998L17.3622 23.8082C16.4707 22.7147 15.3473 21.8965 14.0549 21.3448L11.6995 26.8632ZM13.0543 23.4527L10.6383 25.5807L14.6041 30.0833L17.0201 27.9553L13.0543 23.4527ZM14.8863 25.8649C14.3115 25.2031 13.6155 24.6285 12.7831 24.223L10.1553 29.617C10.1577 29.6181 10.175 29.6267 10.2071 29.6521C10.2399 29.6781 10.2906 29.7237 10.3561 29.7991L14.8863 25.8649ZM12.8664 24.2652C11.9905 23.8042 11.0504 23.6 10.1092 23.6V29.6C10.146 29.6 10.153 29.6038 10.1381 29.6003C10.1311 29.5986 10.1209 29.5957 10.1086 29.5911C10.0962 29.5865 10.0837 29.581 10.0719 29.5748L12.8664 24.2652ZM10.1092 23.6C9.38365 23.6 8.64198 23.7122 7.91982 23.983L10.0266 29.601C10.0087 29.6077 10.0026 29.6078 10.0131 29.606C10.0243 29.6042 10.055 29.6 10.1092 29.6V23.6ZM7.89021 23.9943C7.16786 24.2739 6.50966 24.7008 5.95726 25.2783L10.2931 29.4257C10.2558 29.4647 10.2126 29.5009 10.1664 29.5314C10.1206 29.5617 10.0816 29.5799 10.0562 29.5897L7.89021 23.9943ZM5.95726 25.2783C5.42188 25.838 5.03204 26.4857 4.7722 27.1786L10.3902 29.2854C10.3896 29.287 10.3825 29.3051 10.365 29.3335C10.3471 29.3623 10.323 29.3944 10.2931 29.4257L5.95726 25.2783ZM4.7722 27.1786C4.49546 27.9166 4.38919 28.6729 4.38919 29.4H10.3892C10.3892 29.2525 10.4109 29.2301 10.3902 29.2854L4.7722 27.1786ZM4.38919 29.4C4.38919 30.1272 4.50183 30.8623 4.76181 31.5772L10.4006 29.5268C10.4018 29.5301 10.3993 29.5247 10.3964 29.5068C10.3933 29.4885 10.3892 29.454 10.3892 29.4H4.38919ZM4.7722 31.6054C5.03204 32.2983 5.42188 32.946 5.95726 33.5057L10.2931 29.3583C10.323 29.3896 10.3471 29.4217 10.365 29.4505C10.3825 29.4789 10.3896 29.497 10.3902 29.4986L4.7722 31.6054ZM5.95726 33.5057C6.47606 34.048 7.08756 34.4674 7.76437 34.7607L10.15 29.2553C10.1645 29.2616 10.1883 29.2737 10.2168 29.2934C10.2455 29.3133 10.2716 29.3358 10.2931 29.3583L5.95726 33.5057ZM7.87421 34.8057C8.59605 35.0851 9.33793 35.2 10.0612 35.2V29.2C10.0164 29.2 9.9958 29.1965 9.99521 29.1964C9.99489 29.1963 9.99908 29.197 10.0071 29.1992C10.0152 29.2015 10.0265 29.205 10.0402 29.2103L7.87421 34.8057ZM10.0612 35.2C10.8196 35.2 11.5636 35.0757 12.2803 34.8305L10.3381 29.1535C10.2441 29.1857 10.1561 29.2 10.0612 29.2V35.2ZM12.3463 34.807C13.1126 34.5247 13.809 34.0978 14.4316 33.6199L10.7787 28.8601C10.4841 29.0862 10.3165 29.1606 10.2721 29.177L12.3463 34.807ZM10.2795 33.135L12.3915 35.727L17.0429 31.937L14.9309 29.345L10.2795 33.135ZM13.0441 31.3419C12.6522 31.6052 12.1705 31.8313 11.571 31.9995L13.1914 37.7765C14.3412 37.454 15.4168 36.9762 16.3903 36.3221L13.0441 31.3419ZM11.571 31.9995C10.9324 32.1786 10.3574 32.256 9.83719 32.256V38.256C10.9597 38.256 12.0806 38.0881 13.1914 37.7765L11.571 31.9995ZM14.4372 33.352V29.096H8.43719V33.352H14.4372ZM11.4372 32.096H14.7172V26.096H11.4372V32.096ZM11.7172 29.096V33.832H17.7172V29.096H11.7172ZM15.1516 30.8636L11.8716 30.3836L11.0028 36.3204L14.2828 36.8004L15.1516 30.8636ZM21.5101 35H18.5101C18.5101 36.6569 19.8532 38 21.5101 38V35ZM21.5101 33.448H24.5101C24.5101 32.8928 24.356 32.3485 24.065 31.8757L21.5101 33.448ZM21.2541 33.032H18.2541C18.2541 33.5872 18.4081 34.1315 18.6991 34.6043L21.2541 33.032ZM20.8541 29.112L18.8785 31.3697C18.8937 31.383 18.909 31.3961 18.9245 31.4091L20.8541 29.112ZM18.3901 28.968L19.2242 31.8497C19.2474 31.843 19.2705 31.836 19.2935 31.8287L18.3901 28.968ZM17.3501 29.464L14.6489 30.7693C15.0377 31.5738 15.7648 32.1632 16.6324 32.3769C17.5 32.5906 18.4177 32.4065 19.1357 31.8747L17.3501 29.464ZM16.1981 27.08L14.6081 24.536C13.3096 25.3475 12.8307 27.0066 13.4969 28.3853L16.1981 27.08ZM18.0381 26.344L18.7349 29.262L18.7349 29.262L18.0381 26.344ZM23.6221 27.096L21.7223 29.4179C21.7272 29.4219 21.7321 29.4259 21.7371 29.4298L23.6221 27.096ZM24.8701 35V38C26.5269 38 27.8701 36.6569 27.8701 35H24.8701ZM17.2381 34.792L15.8727 37.4633L17.2381 34.792ZM16.1501 33.816L13.566 35.34C13.5718 35.3498 13.5776 35.3596 13.5836 35.3694L16.1501 33.816ZM16.2141 31L18.6374 32.7684L18.6374 32.7684L16.2141 31ZM17.5261 30.104L16.5622 27.2631C16.5569 27.2648 16.5517 27.2666 16.5465 27.2684L17.5261 30.104ZM21.6061 29.8H24.6061C24.6061 28.1431 23.2629 26.8 21.6061 26.8V29.8ZM21.6061 31.544V34.544C23.2629 34.544 24.6061 33.2009 24.6061 31.544H21.6061ZM19.5101 31.736L21.2096 34.2081C21.2198 34.2011 21.23 34.194 21.2401 34.1869L19.5101 31.736ZM19.4781 32.792L17.4367 34.9904C17.4907 35.0405 17.5465 35.0886 17.604 35.1346L19.4781 32.792ZM20.7901 32.792L22.392 35.3285C22.4031 35.3215 22.4141 35.3144 22.425 35.3073L20.7901 32.792ZM21.2541 32.152L24.0072 30.9603C23.5133 29.8191 22.3664 29.1009 21.124 29.1548C19.8816 29.2087 18.8013 30.0236 18.408 31.2033L21.2541 32.152ZM21.7181 33.224L24.6522 33.8493C24.7821 33.2396 24.7189 32.6045 24.4712 32.0323L21.7181 33.224ZM20.8381 34.68L19.0943 32.2388L19.0943 32.2388L20.8381 34.68ZM24.5101 35V33.448H18.5101V35H24.5101ZM24.065 31.8757L23.809 31.4597L18.6991 34.6043L18.9551 35.0203L24.065 31.8757ZM24.2541 33.032V30.088H18.2541V33.032H24.2541ZM24.2541 30.088C24.2541 28.9934 23.88 27.7358 22.7836 26.8149L18.9245 31.4091C18.6823 31.2057 18.4938 30.9438 18.3781 30.6617C18.2689 30.3951 18.2541 30.1837 18.2541 30.088H24.2541ZM22.8296 26.8543C21.7494 25.9091 20.4221 25.776 19.5901 25.776V31.776C19.7066 31.776 19.6857 31.7886 19.5754 31.7593C19.462 31.7292 19.1811 31.6345 18.8785 31.3697L22.8296 26.8543ZM19.5901 25.776C18.8662 25.776 18.1618 25.8941 17.4867 26.1073L19.2935 31.8287C19.429 31.7859 19.5246 31.776 19.5901 31.776V25.776ZM17.5559 26.0863C16.8674 26.2856 16.1849 26.5937 15.5644 27.0533L19.1357 31.8747C19.0912 31.9076 19.1021 31.8851 19.2242 31.8497L17.5559 26.0863ZM20.0512 28.1587L18.8992 25.7747L13.4969 28.3853L14.6489 30.7693L20.0512 28.1587ZM17.7881 29.624C17.9722 29.5089 18.2701 29.373 18.7349 29.262L17.3412 23.426C16.3767 23.6564 15.4479 24.0111 14.6081 24.536L17.7881 29.624ZM18.7349 29.262C19.2386 29.1417 19.7032 29.088 20.1341 29.088V23.088C19.1996 23.088 18.2669 23.205 17.3412 23.426L18.7349 29.262ZM20.1341 29.088C21.2293 29.088 21.6217 29.3355 21.7223 29.4179L25.5218 24.7741C23.9797 23.5125 22.0469 23.088 20.1341 23.088V29.088ZM21.7371 29.4298C21.7373 29.4301 21.7359 29.4289 21.7337 29.4266C21.7316 29.4243 21.7306 29.4229 21.7309 29.4234C21.7313 29.4239 21.7345 29.4284 21.7397 29.4382C21.7451 29.4481 21.7533 29.4649 21.7631 29.49C21.8039 29.5946 21.8701 29.8397 21.8701 30.296H27.8701C27.8701 28.2805 27.279 26.1933 25.5071 24.7622L21.7371 29.4298ZM21.8701 30.296V35H27.8701V30.296H21.8701ZM24.8701 32H21.5101V38H24.8701V32ZM19.0301 32.16C18.6417 32.16 18.5459 32.0913 18.6034 32.1207L15.8727 37.4633C16.8902 37.9834 17.9891 38.16 19.0301 38.16V32.16ZM18.6034 32.1207C18.5699 32.1036 18.5786 32.1033 18.6093 32.1309C18.6419 32.1601 18.6817 32.205 18.7166 32.2626L13.5836 35.3694C14.1558 36.3148 14.9662 37 15.8727 37.4633L18.6034 32.1207ZM18.7342 32.292C18.7472 32.3142 18.7621 32.347 18.7722 32.3849C18.7822 32.4221 18.7821 32.4436 18.7821 32.44H12.7821C12.7821 33.456 13.0377 34.4442 13.566 35.34L18.7342 32.292ZM18.7821 32.44C18.7821 32.4125 18.7854 32.4452 18.7635 32.518C18.7405 32.595 18.6989 32.6842 18.6374 32.7684L13.7907 29.2316C13.0712 30.2175 12.7821 31.3425 12.7821 32.44H18.7821ZM18.6374 32.7684C18.5635 32.8697 18.49 32.93 18.4499 32.9574C18.4142 32.9818 18.4225 32.9683 18.5056 32.9396L16.5465 27.2684C15.5376 27.617 14.5265 28.2233 13.7907 29.2316L18.6374 32.7684ZM18.49 32.9449C18.6734 32.8827 19.0725 32.8 19.7821 32.8V26.8C18.6783 26.8 17.5734 26.92 16.5622 27.2631L18.49 32.9449ZM19.7821 32.8H21.6061V26.8H19.7821V32.8ZM18.6061 29.8V31.544H24.6061V29.8H18.6061ZM21.6061 28.544H20.3581V34.544H21.6061V28.544ZM20.3581 28.544C19.7568 28.544 18.7187 28.6225 17.78 29.2851L21.2401 34.1869C20.9276 34.4075 20.6511 34.4884 20.5205 34.5179C20.3874 34.5481 20.3217 34.544 20.3581 34.544V28.544ZM17.8105 29.2639C16.6674 30.0498 16.2541 31.2559 16.2541 32.28H22.2541C22.2541 32.502 22.2152 32.8491 22.0325 33.2374C21.841 33.6444 21.5472 33.9761 21.2096 34.2081L17.8105 29.2639ZM16.2541 32.28C16.2541 33.3221 16.6799 34.2876 17.4367 34.9904L21.5194 30.5936C21.7177 30.7777 21.916 31.0318 22.0585 31.3575C22.2012 31.6837 22.2541 32.0042 22.2541 32.28H16.2541ZM17.604 35.1346C18.4379 35.8017 19.3775 35.984 20.1181 35.984V29.984C20.3253 29.984 20.8382 30.0383 21.3521 30.4494L17.604 35.1346ZM20.1181 35.984C20.9164 35.984 21.6982 35.7667 22.392 35.3285L19.1881 30.2555C19.4766 30.0733 19.8104 29.984 20.1181 29.984V35.984ZM22.425 35.3073C23.3123 34.7306 23.8324 33.9038 24.1001 33.1007L18.408 31.2033C18.4837 30.9762 18.6945 30.576 19.1551 30.2767L22.425 35.3073ZM18.5009 33.3437L18.9649 34.4157L24.4712 32.0323L24.0072 30.9603L18.5009 33.3437ZM18.784 32.5987C18.7725 32.6523 18.7732 32.6125 18.8266 32.5242C18.8846 32.4282 18.976 32.3233 19.0943 32.2388L22.5818 37.1212C23.7612 36.2788 24.3916 35.0718 24.6522 33.8493L18.784 32.5987ZM19.0943 32.2388C19.1459 32.202 19.1918 32.1771 19.2264 32.1613C19.2606 32.1457 19.2803 32.1404 19.2803 32.1404C19.2799 32.1405 19.2606 32.1456 19.2185 32.1505C19.1763 32.1555 19.1144 32.16 19.0301 32.16V38.16C20.1833 38.16 21.4657 37.9184 22.5818 37.1212L19.0943 32.2388ZM39.7928 26.504L38.3867 29.154C38.408 29.1654 38.4295 29.1765 38.4512 29.1873L39.7928 26.504ZM41.0408 27.768L38.3775 29.149C38.3842 29.1618 38.391 29.1746 38.3978 29.1874L41.0408 27.768ZM41.5048 35V38C43.1617 38 44.5048 36.6569 44.5048 35H41.5048ZM37.8888 35H34.8888C34.8888 36.6569 36.232 38 37.8888 38V35ZM37.6168 29.48L35.243 31.3143C35.2568 31.3322 35.2708 31.35 35.2851 31.3676L37.6168 29.48ZM36.3368 29.288L34.7468 26.744L34.7468 26.744L36.3368 29.288ZM35.9208 29.8L33.1897 28.5586C33.1807 28.5784 33.1719 28.5983 33.1634 28.6182L35.9208 29.8ZM35.7768 35V38C37.4337 38 38.7768 36.6569 38.7768 35H35.7768ZM32.1608 35H29.1608C29.1608 36.6569 30.504 38 32.1608 38V35ZM31.9048 29.48L29.4786 31.2445C29.4917 31.2625 29.505 31.2804 29.5185 31.2981L31.9048 29.48ZM30.6088 29.288L29.0188 26.744L29.0188 26.744L30.6088 29.288ZM30.1928 29.8L27.4617 28.5586C27.4527 28.5784 27.4439 28.5983 27.4354 28.6182L30.1928 29.8ZM30.0488 35V38C31.7057 38 33.0488 36.6569 33.0488 35H30.0488ZM26.4328 35H23.4328C23.4328 36.6569 24.776 38 26.4328 38V35ZM26.4328 26.248V23.248C24.776 23.248 23.4328 24.5911 23.4328 26.248H26.4328ZM29.8728 26.248H32.8728C32.8728 24.5911 31.5297 23.248 29.8728 23.248V26.248ZM29.8728 28.76L27.7515 30.8813C28.6095 31.7393 29.8998 31.996 31.0209 31.5316C32.1419 31.0673 32.8728 29.9734 32.8728 28.76H29.8728ZM29.1688 28.056L26.4855 26.7144C25.908 27.8693 26.1344 29.2642 27.0475 30.1773L29.1688 28.056ZM30.4968 26.584L31.996 29.1826C32.0084 29.1754 32.0207 29.1682 32.033 29.1608L30.4968 26.584ZM34.3848 26.696L32.6795 29.1642C32.6966 29.176 32.7137 29.1876 32.731 29.199L34.3848 26.696ZM35.5848 28.584L35.1125 31.5466C36.0998 31.704 37.1005 31.3592 37.7814 30.6273C38.4623 29.8953 38.7338 28.8722 38.5055 27.8989L35.5848 28.584ZM34.4808 28.408L31.7361 27.1971C31.3605 28.0483 31.4012 29.0255 31.8461 29.8426C32.291 30.6597 33.0898 31.2241 34.0085 31.3706L34.4808 28.408ZM35.8728 26.712L37.5369 29.2082L37.5468 29.2015L35.8728 26.712ZM38.0168 29.088C38.2465 29.088 38.346 29.1325 38.3867 29.154L41.199 23.854C40.1943 23.3208 39.1098 23.088 38.0168 23.088V29.088ZM38.4512 29.1873C38.4407 29.1821 38.4264 29.1738 38.4104 29.1622C38.3943 29.1505 38.3806 29.1385 38.37 29.1278C38.3471 29.1046 38.3537 29.1029 38.3775 29.149L43.7041 26.387C43.1407 25.3005 42.2854 24.3962 41.1345 23.8207L38.4512 29.1873ZM38.3978 29.1874C38.3974 29.1867 38.5048 29.3976 38.5048 30.008H44.5048C44.5048 28.7838 44.3029 27.5013 43.6838 26.3486L38.3978 29.1874ZM38.5048 30.008V35H44.5048V30.008H38.5048ZM41.5048 32H37.8888V38H41.5048V32ZM40.8888 35V30.632H34.8888V35H40.8888ZM40.8888 30.632C40.8888 29.9302 40.8068 28.6526 39.9485 27.5924L35.2851 31.3676C35.0077 31.025 34.9232 30.719 34.9011 30.6254C34.8773 30.5246 34.8888 30.5115 34.8888 30.632H40.8888ZM39.9907 27.6457C39.261 26.7014 38.1617 26.128 36.9128 26.128V32.128C36.6373 32.128 36.3019 32.0686 35.9632 31.8993C35.6272 31.7313 35.392 31.5072 35.243 31.3143L39.9907 27.6457ZM36.9128 26.128C36.1725 26.128 35.4233 26.3212 34.7468 26.744L37.9268 31.832C37.5916 32.0415 37.2265 32.128 36.9128 32.128V26.128ZM34.7468 26.744C33.9527 27.2403 33.4724 27.9367 33.1897 28.5586L38.6519 31.0414C38.5826 31.1939 38.3796 31.549 37.9268 31.832L34.7468 26.744ZM33.1634 28.6182C32.8386 29.3761 32.7768 30.1484 32.7768 30.728H38.7768C38.7768 30.6469 38.7821 30.6292 38.7773 30.66C38.7731 30.6872 38.7526 30.8082 38.6782 30.9818L33.1634 28.6182ZM32.7768 30.728V35H38.7768V30.728H32.7768ZM35.7768 32H32.1608V38H35.7768V32ZM35.1608 35V30.632H29.1608V35H35.1608ZM35.1608 30.632C35.1608 29.9528 35.0895 28.7098 34.2911 27.6619L29.5185 31.2981C29.258 30.9562 29.1848 30.6612 29.1683 30.5868C29.1493 30.5014 29.1608 30.5022 29.1608 30.632H35.1608ZM34.331 27.7155C33.5535 26.6464 32.3797 26.128 31.1848 26.128V32.128C30.9548 32.128 30.6296 32.0825 30.2792 31.9112C29.922 31.7365 29.6559 31.4883 29.4786 31.2445L34.331 27.7155ZM31.1848 26.128C30.4445 26.128 29.6953 26.3212 29.0188 26.744L32.1988 31.832C31.8636 32.0415 31.4985 32.128 31.1848 32.128V26.128ZM29.0188 26.744C28.2247 27.2403 27.7444 27.9367 27.4617 28.5586L32.9239 31.0414C32.8546 31.1939 32.6516 31.549 32.1988 31.832L29.0188 26.744ZM27.4354 28.6182C27.1106 29.3761 27.0488 30.1484 27.0488 30.728H33.0488C33.0488 30.6469 33.0541 30.6292 33.0493 30.66C33.0451 30.6872 33.0246 30.8082 32.9502 30.9818L27.4354 28.6182ZM27.0488 30.728V35H33.0488V30.728H27.0488ZM30.0488 32H26.4328V38H30.0488V32ZM29.4328 35V26.248H23.4328V35H29.4328ZM26.4328 29.248H29.8728V23.248H26.4328V29.248ZM26.8728 26.248V28.76H32.8728V26.248H26.8728ZM31.9941 26.6387L31.2901 25.9347L27.0475 30.1773L27.7515 30.8813L31.9941 26.6387ZM31.8521 29.3976C31.9105 29.2808 31.9564 29.2236 31.9763 29.2016C31.9865 29.1903 31.9925 29.1852 31.9941 29.184C31.9955 29.1828 31.9958 29.1827 31.996 29.1826L28.9976 23.9854C27.8584 24.6427 27.0375 25.6105 26.4855 26.7144L31.8521 29.3976ZM32.033 29.1608C32.0962 29.1232 32.1788 29.088 32.3528 29.088V23.088C31.1615 23.088 30.0067 23.3835 28.9606 24.0072L32.033 29.1608ZM32.3528 29.088C32.5609 29.088 32.6332 29.1322 32.6795 29.1642L36.0901 24.2278C34.9631 23.4491 33.6807 23.088 32.3528 23.088V29.088ZM32.731 29.199C32.7014 29.1794 32.6722 29.1554 32.6467 29.1292C32.6214 29.1032 32.6068 29.0824 32.6009 29.0732C32.5898 29.0557 32.6254 29.1042 32.6641 29.2691L38.5055 27.8989C38.172 26.4769 37.4191 25.1051 36.0386 24.193L32.731 29.199ZM36.0571 25.6214L34.9531 25.4454L34.0085 31.3706L35.1125 31.5466L36.0571 25.6214ZM37.2256 29.6189C37.3354 29.3699 37.4445 29.2698 37.5369 29.2082L34.2087 24.2158C33.0852 24.9649 32.2662 25.9954 31.7361 27.1971L37.2256 29.6189ZM37.5468 29.2015C37.6272 29.1474 37.748 29.088 38.0168 29.088V23.088C36.6643 23.088 35.3557 23.4446 34.1988 24.2225L37.5468 29.2015ZM45.2617 34.568L43.92 37.2513C43.9248 37.2537 43.9296 37.2561 43.9344 37.2584L45.2617 34.568ZM43.4217 32.952L40.8843 34.5525C40.888 34.5584 40.8918 34.5644 40.8956 34.5703L43.4217 32.952ZM43.4057 28.264L40.8796 26.6457C40.8736 26.6551 40.8676 26.6645 40.8617 26.674L43.4057 28.264ZM45.1817 26.664L43.825 23.9883C43.8199 23.9909 43.8148 23.9935 43.8096 23.9961L45.1817 26.664ZM50.1097 26.6L48.8323 29.3145C48.8374 29.3168 48.8424 29.3192 48.8475 29.3216L50.1097 26.6ZM51.8697 28.12L49.3553 29.7564C49.3613 29.7656 49.3674 29.7749 49.3735 29.7841L51.8697 28.12ZM52.5257 31.048L55.5181 31.2617C55.5184 31.257 55.5187 31.2523 55.519 31.2476L52.5257 31.048ZM52.4937 31.464V34.464C54.0539 34.464 55.3537 33.268 55.4833 31.7131L52.4937 31.464ZM45.7577 31.464H42.7577C42.7577 33.1209 44.1008 34.464 45.7577 34.464V31.464ZM45.7577 29.72V26.72C44.1008 26.72 42.7577 28.0631 42.7577 29.72H45.7577ZM50.5737 29.72L51.5424 32.5593C52.9312 32.0855 53.7734 30.6766 53.5332 29.229C53.2931 27.7814 52.0411 26.72 50.5737 26.72V29.72ZM49.2137 30.184H46.2137C46.2137 31.1521 46.6808 32.0606 47.4681 32.6239C48.2555 33.1872 49.2662 33.3359 50.1824 33.0233L49.2137 30.184ZM49.0217 29.32L46.3153 30.6144C46.3383 30.6624 46.3625 30.7098 46.388 30.7566L49.0217 29.32ZM48.5257 28.76L46.8907 31.2753C46.9209 31.2949 46.9514 31.314 46.9822 31.3325L48.5257 28.76ZM46.9737 28.76L48.5172 31.3325C48.5291 31.3253 48.5409 31.3181 48.5528 31.3108L46.9737 28.76ZM46.4777 29.32L49.161 30.6616C49.1688 30.6459 49.1765 30.6302 49.1841 30.6144L46.4777 29.32ZM46.5257 31.688L49.1432 30.2222L49.1432 30.2222L46.5257 31.688ZM47.1657 32.296L45.824 34.9793C45.852 34.9933 45.8801 35.0068 45.9085 35.0199L47.1657 32.296ZM49.1657 32.328L48.0515 29.5426C48.0383 29.5479 48.025 29.5533 48.0118 29.5588L49.1657 32.328ZM49.9977 31.848L52.1279 29.7356C51.0781 28.6769 49.4101 28.5499 48.212 29.4373L49.9977 31.848ZM51.8857 33.752L54.0822 35.7953C55.1787 34.6167 55.1494 32.7827 54.0159 31.6396L51.8857 33.752ZM50.3017 34.808L51.3657 37.613C51.3742 37.6097 51.3828 37.6065 51.3913 37.6031L50.3017 34.808ZM48.0617 32.16C47.3661 32.16 46.903 32.0325 46.589 31.8776L43.9344 37.2584C45.2204 37.8928 46.6239 38.16 48.0617 38.16V32.16ZM46.6033 31.8847C46.2533 31.7097 46.0679 31.5212 45.9478 31.3337L40.8956 34.5703C41.6501 35.7481 42.6914 36.6369 43.92 37.2513L46.6033 31.8847ZM45.9591 31.3515C45.8406 31.1637 45.7657 30.9456 45.7657 30.616H39.7657C39.7657 32.0144 40.1281 33.3536 40.8843 34.5525L45.9591 31.3515ZM45.7657 30.616C45.7657 30.2349 45.8503 30.0129 45.9497 29.854L40.8617 26.674C40.1077 27.8804 39.7657 29.2264 39.7657 30.616H45.7657ZM45.9318 29.8823C46.0733 29.6614 46.2601 29.4829 46.5537 29.3319L43.8096 23.9961C42.61 24.6131 41.6128 25.5013 40.8796 26.6457L45.9318 29.8823ZM46.5384 29.3397C46.8324 29.1906 47.208 29.088 47.7257 29.088V23.088C46.3661 23.088 45.0456 23.3694 43.825 23.9883L46.5384 29.3397ZM47.7257 29.088C48.183 29.088 48.537 29.1755 48.8323 29.3145L51.3871 23.8855C50.2317 23.3418 48.9964 23.088 47.7257 23.088V29.088ZM48.8475 29.3216C49.0789 29.4289 49.229 29.5624 49.3553 29.7564L54.3841 26.4836C53.6357 25.3336 52.6125 24.4538 51.3719 23.8784L48.8475 29.3216ZM49.3735 29.7841C49.4248 29.861 49.5417 30.0801 49.5417 30.616H55.5417C55.5417 29.1679 55.2106 27.723 54.3658 26.4559L49.3735 29.7841ZM49.5417 30.616C49.5417 30.6633 49.5396 30.7391 49.5323 30.8484L55.519 31.2476C55.5331 31.0369 55.5417 30.8247 55.5417 30.616H49.5417ZM49.5333 30.8343C49.5234 30.9737 49.5136 31.1004 49.5041 31.2149L55.4833 31.7131C55.4951 31.5716 55.5067 31.421 55.5181 31.2617L49.5333 30.8343ZM52.4937 28.464H45.7577V34.464H52.4937V28.464ZM48.7577 31.464V29.72H42.7577V31.464H48.7577ZM45.7577 32.72H50.5737V26.72H45.7577V32.72ZM49.605 26.8807L48.245 27.3447L50.1824 33.0233L51.5424 32.5593L49.605 26.8807ZM52.2137 30.184C52.2137 29.4765 52.0813 28.6643 51.6554 27.8834L46.388 30.7566C46.2181 30.445 46.2137 30.2089 46.2137 30.184H52.2137ZM51.7281 28.0256C51.3815 27.3009 50.8339 26.6464 50.0692 26.1875L46.9822 31.3325C46.6441 31.1296 46.4272 30.8484 46.3153 30.6144L51.7281 28.0256ZM50.1607 26.2447C49.3811 25.738 48.5339 25.552 47.7577 25.552V31.552C47.5788 31.552 47.2436 31.5047 46.8907 31.2753L50.1607 26.2447ZM47.7577 25.552C46.9776 25.552 46.154 25.7391 45.3946 26.2092L48.5528 31.3108C48.2414 31.5036 47.9405 31.552 47.7577 31.552V25.552ZM45.4302 26.1875C44.6654 26.6464 44.1179 27.3009 43.7713 28.0256L49.1841 30.6144C49.0722 30.8484 48.8553 31.1296 48.5172 31.3325L45.4302 26.1875ZM43.7944 27.9784C43.4158 28.7356 43.3017 29.5121 43.3017 30.184H49.3017C49.3017 30.1843 49.3017 30.1956 49.2997 30.2165C49.2978 30.2374 49.2938 30.2694 49.2853 30.3108C49.2683 30.3941 49.2331 30.5174 49.161 30.6616L43.7944 27.9784ZM43.3017 30.184V30.728H49.3017V30.184H43.3017ZM43.3017 30.728C43.3017 31.5017 43.4581 32.3502 43.9082 33.1538L49.1432 30.2222C49.2946 30.4925 49.3017 30.7009 49.3017 30.728H43.3017ZM43.9082 33.1538C44.3557 33.953 45.0174 34.5759 45.824 34.9793L48.5073 29.6127C48.6197 29.6689 48.7442 29.7513 48.8639 29.865C48.9839 29.979 49.0765 30.103 49.1432 30.2222L43.9082 33.1538ZM45.9085 35.0199C46.6774 35.3747 47.4668 35.488 48.1737 35.488V29.488C48.0912 29.488 48.2086 29.4733 48.4229 29.5721L45.9085 35.0199ZM48.1737 35.488C48.8079 35.488 49.57 35.4095 50.3195 35.0972L48.0118 29.5588C48.1402 29.5053 48.2274 29.4896 48.248 29.4863C48.2694 29.4828 48.2484 29.488 48.1737 29.488V35.488ZM50.2799 35.1134C50.8359 34.891 51.3373 34.5891 51.7834 34.2587L48.212 29.4373C48.0821 29.5335 48.0288 29.5517 48.0515 29.5426L50.2799 35.1134ZM47.8674 33.9604L49.7554 35.8644L54.0159 31.6396L52.1279 29.7356L47.8674 33.9604ZM49.6891 31.7087C49.5938 31.8112 49.4541 31.9185 49.2121 32.0129L51.3913 37.6031C52.408 37.2068 53.3243 36.6101 54.0822 35.7953L49.6891 31.7087ZM49.2377 32.003C49.0489 32.0746 48.6833 32.16 48.0617 32.16V38.16C49.1894 38.16 50.3172 38.0107 51.3657 37.613L49.2377 32.003Z" fill="#4B371F" mask="url(#path-3-outside-1_29620_2)"/>
</svg>
