<svg width="21" height="26" viewBox="0 0 21 26" fill="none" xmlns="http://www.w3.org/2000/svg">
  <path d="M17.2927 9.65255V7.38333C17.2927 4.14249 14.6654 1.5 11.4233 1.5H9.57674C6.33458 1.5 3.70728 4.14249 3.70728 7.38333V9.65255C3.26759 9.82759 2.86382 10.0917 2.52332 10.4333C1.87008 11.0886 1.50274 11.9756 1.5 12.9003V12.9048L1.49999 21L1.50001 21.0044C1.50274 21.9291 1.87009 22.8161 2.52332 23.4715C3.17672 24.1269 4.06313 24.4972 4.98921 24.5H4.99367L16.0063 24.5L16.0108 24.5C16.9369 24.4972 17.8233 24.1269 18.4767 23.4715C19.1299 22.8161 19.4973 21.9291 19.5 21.0044V21L19.5 12.9048L19.5 12.9003C19.4973 11.9756 19.1299 11.0886 18.4767 10.4333C18.1362 10.0917 17.7324 9.82759 17.2927 9.65255ZM10.8183 16.4765L10.4993 16.6846L10.1802 16.4765C10.074 16.4072 9.99199 16.3046 9.94751 16.1835C9.903 16.0623 9.8987 15.9298 9.93533 15.8058C9.97195 15.6819 10.0472 15.5741 10.149 15.4979C10.2507 15.4218 10.3736 15.3811 10.4993 15.3811C10.625 15.3811 10.7479 15.4218 10.8496 15.4979C10.9513 15.5741 11.0266 15.6819 11.0632 15.8058C11.0999 15.9298 11.0956 16.0623 11.0511 16.1835C11.0066 16.3046 10.9246 16.4072 10.8183 16.4765ZM12.394 9.40476H8.60601V7.38441C8.60648 7.12322 8.71016 6.87379 8.89284 6.69053C9.07537 6.50743 9.32177 6.40523 9.57783 6.40476H11.4222C11.6782 6.40523 11.9246 6.50743 12.1072 6.69053C12.2898 6.8738 12.3935 7.12321 12.394 7.38441C12.394 7.38462 12.394 7.38484 12.394 7.38505L12.394 9.40476Z" fill="#494848" stroke="white" stroke-width="3"/>
</svg>
