<svg width="54" height="41" viewBox="0 0 54 41" fill="none" xmlns="http://www.w3.org/2000/svg">
  <mask id="path-1-outside-1_29626_9" maskUnits="userSpaceOnUse" x="6" y="-1" width="40" height="33" fill="black">
    <rect fill="white" x="6" y="-1" width="40" height="33"/>
    <path fill-rule="evenodd" clip-rule="evenodd" d="M19.6307 25.1554L13.6991 19.452C10.699 16.6036 9.54741 11.1036 13.6991 6.95193C17.5473 3.10376 23.1989 3.60364 26.6991 6.45193C30.1989 3.10364 35.851 3.10376 39.6991 6.95194C42.3509 9.60383 42.6991 15.6036 39.6991 18.952L33.6328 25.0182C29.7816 28.8694 23.5566 28.9304 19.6307 25.1554Z"/>
  </mask>
  <path fill-rule="evenodd" clip-rule="evenodd" d="M19.6307 25.1554L13.6991 19.452C10.699 16.6036 9.54741 11.1036 13.6991 6.95193C17.5473 3.10376 23.1989 3.60364 26.6991 6.45193C30.1989 3.10364 35.851 3.10376 39.6991 6.95194C42.3509 9.60383 42.6991 15.6036 39.6991 18.952L33.6328 25.0182C29.7816 28.8694 23.5566 28.9304 19.6307 25.1554Z" fill="#4B371F"/>
  <path d="M13.6991 19.452L16.4715 16.5686L16.4624 16.5599L16.4532 16.5511L13.6991 19.452ZM19.6307 25.1554L16.8582 28.0388L16.8582 28.0388L19.6307 25.1554ZM13.6991 6.95193L16.5275 9.78036L16.5275 9.78036L13.6991 6.95193ZM26.6991 6.45193L24.1743 9.55445L26.9129 11.783L29.4642 9.34226L26.6991 6.45193ZM39.6991 6.95194L42.5275 4.12355L42.5275 4.12355L39.6991 6.95194ZM39.6991 18.952L42.5275 21.7804L42.605 21.7029L42.6782 21.6212L39.6991 18.952ZM10.9266 22.3353L16.8582 28.0388L22.4031 22.2721L16.4715 16.5686L10.9266 22.3353ZM10.8707 4.1235C4.85996 10.1342 6.60235 18.2298 10.945 22.3528L16.4532 16.5511C14.7956 14.9773 14.2349 12.073 16.5275 9.78036L10.8707 4.1235ZM29.2238 3.34941C24.4259 -0.554984 16.4215 -1.4273 10.8707 4.1235L16.5275 9.78036C18.6731 7.63482 21.972 7.76227 24.1743 9.55445L29.2238 3.34941ZM42.5275 4.12355C37.2254 -1.17871 29.0893 -1.37048 23.9339 3.56159L29.4642 9.34226C31.3086 7.57777 34.4766 7.38624 36.8706 9.78032L42.5275 4.12355ZM42.6782 21.6212C45.0076 19.0213 45.8758 15.6174 45.8177 12.6134C45.7606 9.66086 44.7895 6.38556 42.5275 4.12355L36.8706 9.78032C37.2605 10.1702 37.7893 11.2207 37.8192 12.7681C37.8482 14.2641 37.3905 15.5343 36.7199 16.2828L42.6782 21.6212ZM36.4613 27.8466L42.5275 21.7804L36.8706 16.1235L30.8044 22.1898L36.4613 27.8466ZM16.8582 28.0388C22.3546 33.3238 31.0696 33.2383 36.4613 27.8466L30.8044 22.1898C28.4937 24.5005 24.7587 24.5371 22.4031 22.2721L16.8582 28.0388Z" fill="#4B371F" mask="url(#path-1-outside-1_29626_9)"/>
  <path d="M13.6991 19.452L19.6307 25.1554C23.5566 28.9304 29.7816 28.8694 33.6328 25.0182L39.6991 18.952C42.6991 15.6036 42.3509 9.60383 39.6991 6.95194C35.851 3.10376 30.1989 3.10364 26.6991 6.45193C23.1989 3.60364 17.5473 3.10376 13.6991 6.95193C9.54741 11.1036 10.699 16.6036 13.6991 19.452Z" fill="#8A8A8A"/>
  <path d="M26.6991 6.45193C23.1989 3.60364 17.5473 3.10376 13.6991 6.95193C9.54741 11.1036 10.699 16.6036 13.6991 19.452L19.6307 25.1554C23.5566 28.9304 29.7816 28.8694 33.6328 25.0182L39.6991 18.952C42.6991 15.6036 42.3509 9.60383 39.6991 6.95194C35.851 3.10376 30.1989 3.10364 26.6991 6.45193ZM26.6991 6.45193L22.699 10.6036" stroke="#4B371F" stroke-width="1.2" stroke-linecap="round" stroke-linejoin="round"/>
  <ellipse cx="27.9114" cy="18.5024" rx="5.67118" ry="6.5073" transform="rotate(41.6329 27.9114 18.5024)" fill="#4B371F"/>
  <ellipse cx="29.5541" cy="8.63068" rx="1.56088" ry="2.14603" transform="rotate(18.2691 29.5541 8.63068)" fill="#4B371F"/>
  <ellipse cx="37.1381" cy="17.0902" rx="1.56088" ry="2.00655" transform="rotate(80.0493 37.1381 17.0902)" fill="#4B371F"/>
  <ellipse cx="33.9508" cy="9.23824" rx="1.78986" ry="2.69908" transform="rotate(34.4206 33.9508 9.23824)" fill="#4B371F"/>
  <ellipse cx="36.886" cy="12.9586" rx="1.74716" ry="2.63469" transform="rotate(54.1824 36.886 12.9586)" fill="#4B371F"/>
  <mask id="path-10-outside-2_29626_9" maskUnits="userSpaceOnUse" x="0" y="21.9951" width="54" height="19" fill="black">
    <rect fill="white" y="21.9951" width="54" height="19"/>
    <path d="M6.88513 30.5631H11.8131V33.4111H6.88513V30.5631ZM7.14113 36.9951H3.36513V25.7951H12.4691V28.6431H7.14113V36.9951ZM13.3938 36.9951V28.2431H16.8338V30.8831L16.2738 30.1311C16.5404 29.4485 16.9671 28.9365 17.5538 28.5951C18.1404 28.2538 18.8444 28.0831 19.6658 28.0831V31.2831C19.5058 31.2618 19.3618 31.2458 19.2338 31.2351C19.1164 31.2245 18.9938 31.2191 18.8658 31.2191C18.3218 31.2191 17.8738 31.3631 17.5218 31.6511C17.1804 31.9285 17.0098 32.4138 17.0098 33.1071V36.9951H13.3938ZM25.4445 37.1551C24.3778 37.1551 23.4445 36.9578 22.6445 36.5631C21.8552 36.1685 21.2418 35.6298 20.8045 34.9471C20.3672 34.2538 20.1485 33.4751 20.1485 32.6111C20.1485 31.7258 20.3618 30.9418 20.7885 30.2591C21.2258 29.5765 21.8178 29.0431 22.5645 28.6591C23.3218 28.2751 24.1698 28.0831 25.1085 28.0831C25.9725 28.0831 26.7672 28.2538 27.4925 28.5951C28.2285 28.9365 28.8152 29.4431 29.2525 30.1151C29.7005 30.7871 29.9245 31.6191 29.9245 32.6111C29.9245 32.7391 29.9192 32.8831 29.9085 33.0431C29.8978 33.1925 29.8872 33.3311 29.8765 33.4591H23.1405V31.7151H27.9565L26.5965 32.1791C26.5965 31.8378 26.5325 31.5498 26.4045 31.3151C26.2872 31.0698 26.1218 30.8831 25.9085 30.7551C25.6952 30.6165 25.4392 30.5471 25.1405 30.5471C24.8418 30.5471 24.5805 30.6165 24.3565 30.7551C24.1432 30.8831 23.9778 31.0698 23.8605 31.3151C23.7432 31.5498 23.6845 31.8378 23.6845 32.1791V32.7231C23.6845 33.0965 23.7592 33.4165 23.9085 33.6831C24.0578 33.9498 24.2712 34.1525 24.5485 34.2911C24.8258 34.4191 25.1618 34.4831 25.5565 34.4831C25.9618 34.4831 26.2925 34.4298 26.5485 34.3231C26.8152 34.2165 27.0925 34.0565 27.3805 33.8431L29.2685 35.7471C28.8418 36.2058 28.3138 36.5578 27.6845 36.8031C27.0658 37.0378 26.3192 37.1551 25.4445 37.1551ZM37.1456 28.0831C37.8176 28.0831 38.4256 28.2218 38.9696 28.4991C39.5136 28.7658 39.9403 29.1871 40.2496 29.7631C40.5696 30.3391 40.7296 31.0858 40.7296 32.0031V36.9951H37.1136V32.6271C37.1136 32.0831 37.0176 31.6991 36.8256 31.4751C36.6336 31.2405 36.3723 31.1231 36.0416 31.1231C35.7963 31.1231 35.567 31.1818 35.3536 31.2991C35.151 31.4058 34.9856 31.5871 34.8576 31.8431C34.7403 32.0991 34.6816 32.4458 34.6816 32.8831V36.9951H31.0656V28.2431H34.5056V30.8031L33.8176 30.0671C34.159 29.4058 34.6176 28.9098 35.1936 28.5791C35.7803 28.2484 36.431 28.0831 37.1456 28.0831ZM45.724 37.1551C44.9773 37.1551 44.2413 37.0751 43.516 36.9151C42.7907 36.7551 42.204 36.5471 41.756 36.2911L42.748 33.9071C43.164 34.1525 43.644 34.3445 44.188 34.4831C44.7427 34.6218 45.2813 34.6911 45.804 34.6911C46.2413 34.6911 46.5347 34.6538 46.684 34.5791C46.844 34.5045 46.924 34.4031 46.924 34.2751C46.924 34.1471 46.8333 34.0565 46.652 34.0031C46.4707 33.9391 46.2307 33.8911 45.932 33.8591C45.6333 33.8271 45.3027 33.7898 44.94 33.7471C44.588 33.6938 44.2307 33.6191 43.868 33.5231C43.5053 33.4271 43.1747 33.2831 42.876 33.0911C42.5773 32.8991 42.3373 32.6431 42.156 32.3231C41.9747 31.9925 41.884 31.5765 41.884 31.0751C41.884 30.5205 42.0493 30.0191 42.38 29.5711C42.7213 29.1231 43.2227 28.7658 43.884 28.4991C44.556 28.2218 45.3827 28.0831 46.364 28.0831C47.004 28.0831 47.644 28.1418 48.284 28.2591C48.924 28.3765 49.4733 28.5578 49.932 28.8031L48.94 31.1871C48.492 30.9418 48.0493 30.7765 47.612 30.6911C47.1853 30.5951 46.7853 30.5471 46.412 30.5471C45.9533 30.5471 45.6387 30.5898 45.468 30.6751C45.308 30.7605 45.228 30.8565 45.228 30.9631C45.228 31.0911 45.3187 31.1871 45.5 31.2511C45.6813 31.3151 45.9213 31.3631 46.22 31.3951C46.5187 31.4271 46.844 31.4698 47.196 31.5231C47.5587 31.5658 47.916 31.6405 48.268 31.7471C48.6307 31.8431 48.9613 31.9871 49.26 32.1791C49.5587 32.3711 49.7987 32.6325 49.98 32.9631C50.1613 33.2831 50.252 33.6938 50.252 34.1951C50.252 34.7178 50.0867 35.2085 49.756 35.6671C49.4253 36.1151 48.924 36.4778 48.252 36.7551C47.58 37.0218 46.7373 37.1551 45.724 37.1551Z"/>
  </mask>
  <path d="M6.88513 30.5631H11.8131V33.4111H6.88513V30.5631ZM7.14113 36.9951H3.36513V25.7951H12.4691V28.6431H7.14113V36.9951ZM13.3938 36.9951V28.2431H16.8338V30.8831L16.2738 30.1311C16.5404 29.4485 16.9671 28.9365 17.5538 28.5951C18.1404 28.2538 18.8444 28.0831 19.6658 28.0831V31.2831C19.5058 31.2618 19.3618 31.2458 19.2338 31.2351C19.1164 31.2245 18.9938 31.2191 18.8658 31.2191C18.3218 31.2191 17.8738 31.3631 17.5218 31.6511C17.1804 31.9285 17.0098 32.4138 17.0098 33.1071V36.9951H13.3938ZM25.4445 37.1551C24.3778 37.1551 23.4445 36.9578 22.6445 36.5631C21.8552 36.1685 21.2418 35.6298 20.8045 34.9471C20.3672 34.2538 20.1485 33.4751 20.1485 32.6111C20.1485 31.7258 20.3618 30.9418 20.7885 30.2591C21.2258 29.5765 21.8178 29.0431 22.5645 28.6591C23.3218 28.2751 24.1698 28.0831 25.1085 28.0831C25.9725 28.0831 26.7672 28.2538 27.4925 28.5951C28.2285 28.9365 28.8152 29.4431 29.2525 30.1151C29.7005 30.7871 29.9245 31.6191 29.9245 32.6111C29.9245 32.7391 29.9192 32.8831 29.9085 33.0431C29.8978 33.1925 29.8872 33.3311 29.8765 33.4591H23.1405V31.7151H27.9565L26.5965 32.1791C26.5965 31.8378 26.5325 31.5498 26.4045 31.3151C26.2872 31.0698 26.1218 30.8831 25.9085 30.7551C25.6952 30.6165 25.4392 30.5471 25.1405 30.5471C24.8418 30.5471 24.5805 30.6165 24.3565 30.7551C24.1432 30.8831 23.9778 31.0698 23.8605 31.3151C23.7432 31.5498 23.6845 31.8378 23.6845 32.1791V32.7231C23.6845 33.0965 23.7592 33.4165 23.9085 33.6831C24.0578 33.9498 24.2712 34.1525 24.5485 34.2911C24.8258 34.4191 25.1618 34.4831 25.5565 34.4831C25.9618 34.4831 26.2925 34.4298 26.5485 34.3231C26.8152 34.2165 27.0925 34.0565 27.3805 33.8431L29.2685 35.7471C28.8418 36.2058 28.3138 36.5578 27.6845 36.8031C27.0658 37.0378 26.3192 37.1551 25.4445 37.1551ZM37.1456 28.0831C37.8176 28.0831 38.4256 28.2218 38.9696 28.4991C39.5136 28.7658 39.9403 29.1871 40.2496 29.7631C40.5696 30.3391 40.7296 31.0858 40.7296 32.0031V36.9951H37.1136V32.6271C37.1136 32.0831 37.0176 31.6991 36.8256 31.4751C36.6336 31.2405 36.3723 31.1231 36.0416 31.1231C35.7963 31.1231 35.567 31.1818 35.3536 31.2991C35.151 31.4058 34.9856 31.5871 34.8576 31.8431C34.7403 32.0991 34.6816 32.4458 34.6816 32.8831V36.9951H31.0656V28.2431H34.5056V30.8031L33.8176 30.0671C34.159 29.4058 34.6176 28.9098 35.1936 28.5791C35.7803 28.2484 36.431 28.0831 37.1456 28.0831ZM45.724 37.1551C44.9773 37.1551 44.2413 37.0751 43.516 36.9151C42.7907 36.7551 42.204 36.5471 41.756 36.2911L42.748 33.9071C43.164 34.1525 43.644 34.3445 44.188 34.4831C44.7427 34.6218 45.2813 34.6911 45.804 34.6911C46.2413 34.6911 46.5347 34.6538 46.684 34.5791C46.844 34.5045 46.924 34.4031 46.924 34.2751C46.924 34.1471 46.8333 34.0565 46.652 34.0031C46.4707 33.9391 46.2307 33.8911 45.932 33.8591C45.6333 33.8271 45.3027 33.7898 44.94 33.7471C44.588 33.6938 44.2307 33.6191 43.868 33.5231C43.5053 33.4271 43.1747 33.2831 42.876 33.0911C42.5773 32.8991 42.3373 32.6431 42.156 32.3231C41.9747 31.9925 41.884 31.5765 41.884 31.0751C41.884 30.5205 42.0493 30.0191 42.38 29.5711C42.7213 29.1231 43.2227 28.7658 43.884 28.4991C44.556 28.2218 45.3827 28.0831 46.364 28.0831C47.004 28.0831 47.644 28.1418 48.284 28.2591C48.924 28.3765 49.4733 28.5578 49.932 28.8031L48.94 31.1871C48.492 30.9418 48.0493 30.7765 47.612 30.6911C47.1853 30.5951 46.7853 30.5471 46.412 30.5471C45.9533 30.5471 45.6387 30.5898 45.468 30.6751C45.308 30.7605 45.228 30.8565 45.228 30.9631C45.228 31.0911 45.3187 31.1871 45.5 31.2511C45.6813 31.3151 45.9213 31.3631 46.22 31.3951C46.5187 31.4271 46.844 31.4698 47.196 31.5231C47.5587 31.5658 47.916 31.6405 48.268 31.7471C48.6307 31.8431 48.9613 31.9871 49.26 32.1791C49.5587 32.3711 49.7987 32.6325 49.98 32.9631C50.1613 33.2831 50.252 33.6938 50.252 34.1951C50.252 34.7178 50.0867 35.2085 49.756 35.6671C49.4253 36.1151 48.924 36.4778 48.252 36.7551C47.58 37.0218 46.7373 37.1551 45.724 37.1551Z" fill="#8A8A8A"/>
  <path d="M6.88513 30.5631V27.5631C5.22827 27.5631 3.88513 28.9063 3.88513 30.5631H6.88513ZM11.8131 30.5631H14.8131C14.8131 28.9063 13.47 27.5631 11.8131 27.5631V30.5631ZM11.8131 33.4111V36.4111C13.47 36.4111 14.8131 35.068 14.8131 33.4111H11.8131ZM6.88513 33.4111H3.88513C3.88513 35.068 5.22827 36.4111 6.88513 36.4111L6.88513 33.4111ZM7.14113 36.9951V39.9951C8.79798 39.9951 10.1411 38.652 10.1411 36.9951H7.14113ZM3.36513 36.9951H0.365125C0.365125 38.652 1.70827 39.9951 3.36513 39.9951L3.36513 36.9951ZM3.36513 25.7951V22.7951C1.70827 22.7951 0.365125 24.1383 0.365125 25.7951H3.36513ZM12.4691 25.7951H15.4691C15.4691 24.1383 14.126 22.7951 12.4691 22.7951V25.7951ZM12.4691 28.6431V31.6431C14.126 31.6431 15.4691 30.3 15.4691 28.6431H12.4691ZM7.14113 28.6431V25.6431C5.48427 25.6431 4.14113 26.9863 4.14113 28.6431H7.14113ZM6.88513 33.5631H11.8131V27.5631H6.88513V33.5631ZM8.81313 30.5631V33.4111H14.8131V30.5631H8.81313ZM11.8131 30.4111H6.88513V36.4111H11.8131V30.4111ZM9.88513 33.4111V30.5631H3.88513V33.4111H9.88513ZM7.14113 33.9951H3.36513V39.9951H7.14113V33.9951ZM6.36513 36.9951V25.7951H0.365125V36.9951H6.36513ZM3.36513 28.7951H12.4691V22.7951H3.36513V28.7951ZM9.46913 25.7951V28.6431H15.4691V25.7951H9.46913ZM12.4691 25.6431H7.14113V31.6431H12.4691V25.6431ZM4.14113 28.6431V36.9951H10.1411V28.6431H4.14113ZM13.3938 36.9951H10.3938C10.3938 38.652 11.7369 39.9951 13.3938 39.9951V36.9951ZM13.3938 28.2431V25.2431C11.7369 25.2431 10.3938 26.5863 10.3938 28.2431H13.3938ZM16.8338 28.2431H19.8338C19.8338 26.5863 18.4906 25.2431 16.8338 25.2431V28.2431ZM16.8338 30.8831L14.4276 32.6749C15.2 33.7121 16.5501 34.1376 17.7776 33.7308C19.0051 33.3239 19.8338 32.1763 19.8338 30.8831H16.8338ZM16.2738 30.1311L13.4794 29.0396C13.1029 30.0033 13.2496 31.0931 13.8676 31.9229L16.2738 30.1311ZM17.5538 28.5951L16.0451 26.0021L16.0451 26.0021L17.5538 28.5951ZM19.6658 28.0831H22.6658C22.6658 26.4263 21.3226 25.0831 19.6658 25.0831V28.0831ZM19.6658 31.2831L19.2693 34.2568C20.1265 34.3711 20.9913 34.1099 21.6419 33.5403C22.2926 32.9706 22.6658 32.1479 22.6658 31.2831H19.6658ZM19.2338 31.2351L18.9621 34.2228C18.9696 34.2235 18.9771 34.2241 18.9846 34.2248L19.2338 31.2351ZM17.5218 31.6511L19.4135 33.9795L19.4215 33.973L17.5218 31.6511ZM17.0098 36.9951V39.9951C18.6666 39.9951 20.0098 38.652 20.0098 36.9951H17.0098ZM16.3938 36.9951V28.2431H10.3938V36.9951H16.3938ZM13.3938 31.2431H16.8338V25.2431H13.3938V31.2431ZM13.8338 28.2431V30.8831H19.8338V28.2431H13.8338ZM19.2399 29.0913L18.6799 28.3393L13.8676 31.9229L14.4276 32.6749L19.2399 29.0913ZM19.0681 31.2227C19.0823 31.1864 19.0934 31.1657 19.0984 31.157C19.1033 31.1485 19.1038 31.1492 19.0984 31.1557C19.0929 31.1623 19.0852 31.1703 19.0762 31.1778C19.0672 31.1854 19.0617 31.1886 19.0624 31.1882L16.0451 26.0021C14.8244 26.7123 13.9716 27.7794 13.4794 29.0396L19.0681 31.2227ZM19.0624 31.1882C19.1036 31.1642 19.2632 31.0831 19.6658 31.0831V25.0831C18.4256 25.0831 17.1773 25.3433 16.0451 26.0021L19.0624 31.1882ZM16.6658 28.0831V31.2831H22.6658V28.0831H16.6658ZM20.0622 28.3094C19.865 28.2831 19.6707 28.2611 19.4829 28.2455L18.9846 34.2248C19.0528 34.2304 19.1465 34.2404 19.2693 34.2568L20.0622 28.3094ZM19.5054 28.2474C19.2904 28.2279 19.0767 28.2191 18.8658 28.2191V34.2191C18.9108 34.2191 18.9424 34.221 18.9621 34.2228L19.5054 28.2474ZM18.8658 28.2191C17.7706 28.2191 16.6101 28.5208 15.622 29.3292L19.4215 33.973C19.2965 34.0752 19.161 34.1443 19.0398 34.1832C18.925 34.2201 18.8578 34.2191 18.8658 34.2191V28.2191ZM15.63 29.3228C14.264 30.4326 14.0098 32.0319 14.0098 33.1071H20.0098C20.0098 32.9893 20.0265 33.0517 19.9679 33.2183C19.9011 33.4081 19.7412 33.7133 19.4135 33.9795L15.63 29.3228ZM14.0098 33.1071V36.9951H20.0098V33.1071H14.0098ZM17.0098 33.9951H13.3938V39.9951H17.0098V33.9951ZM22.6445 36.5631L21.3029 39.2464C21.3076 39.2488 21.3124 39.2512 21.3172 39.2535L22.6445 36.5631ZM20.8045 34.9471L18.2671 36.5476C18.2709 36.5536 18.2746 36.5595 18.2784 36.5654L20.8045 34.9471ZM20.7885 30.2591L18.2624 28.6408C18.2564 28.6502 18.2504 28.6597 18.2445 28.6691L20.7885 30.2591ZM22.5645 28.6591L21.2078 25.9834C21.2027 25.986 21.1976 25.9886 21.1925 25.9913L22.5645 28.6591ZM27.4925 28.5951L26.2151 31.3096C26.2202 31.312 26.2252 31.3143 26.2303 31.3167L27.4925 28.5951ZM29.2525 30.1151L26.7381 31.7515C26.7441 31.7608 26.7502 31.77 26.7563 31.7792L29.2525 30.1151ZM29.9085 33.0431L32.9009 33.2569C32.9012 33.2521 32.9015 33.2474 32.9019 33.2427L29.9085 33.0431ZM29.8765 33.4591V36.4591C31.4368 36.4591 32.7366 35.2631 32.8661 33.7083L29.8765 33.4591ZM23.1405 33.4591H20.1405C20.1405 35.116 21.4836 36.4591 23.1405 36.4591V33.4591ZM23.1405 31.7151V28.7151C21.4836 28.7151 20.1405 30.0583 20.1405 31.7151H23.1405ZM27.9565 31.7151L28.9252 34.5544C30.314 34.0806 31.1562 32.6717 30.9161 31.2241C30.6759 29.7766 29.4239 28.7151 27.9565 28.7151V31.7151ZM26.5965 32.1791H23.5965C23.5965 33.1472 24.0636 34.0557 24.8509 34.619C25.6383 35.1823 26.649 35.331 27.5652 35.0184L26.5965 32.1791ZM26.4045 31.3151L23.6981 32.6095C23.7211 32.6575 23.7453 32.7049 23.7708 32.7517L26.4045 31.3151ZM25.9085 30.7551L24.2735 33.2704C24.3037 33.29 24.3342 33.3091 24.365 33.3276L25.9085 30.7551ZM24.3565 30.7551L25.9 33.3276C25.9119 33.3205 25.9238 33.3132 25.9356 33.3059L24.3565 30.7551ZM23.8605 31.3151L26.5438 32.6568C26.5516 32.6411 26.5593 32.6253 26.5669 32.6095L23.8605 31.3151ZM23.9085 33.6831L26.526 32.2173L26.526 32.2173L23.9085 33.6831ZM24.5485 34.2911L23.2069 36.9744C23.2348 36.9884 23.263 37.0019 23.2913 37.015L24.5485 34.2911ZM26.5485 34.3231L25.4343 31.5377C25.4211 31.543 25.4078 31.5484 25.3947 31.5539L26.5485 34.3231ZM27.3805 33.8431L29.5108 31.7308C28.4609 30.672 26.7929 30.545 25.5948 31.4324L27.3805 33.8431ZM29.2685 35.7471L31.4651 37.7904C32.5615 36.6118 32.5322 34.7778 31.3988 33.6348L29.2685 35.7471ZM27.6845 36.8031L28.7485 39.6081C28.757 39.6049 28.7656 39.6016 28.7741 39.5982L27.6845 36.8031ZM25.4445 34.1551C24.749 34.1551 24.2858 34.0276 23.9718 33.8727L21.3172 39.2535C22.6032 39.8879 24.0067 40.1551 25.4445 40.1551V34.1551ZM23.9861 33.8798C23.6362 33.7048 23.4507 33.5164 23.3306 33.3288L18.2784 36.5654C19.0329 37.7432 20.0742 38.6321 21.3029 39.2464L23.9861 33.8798ZM23.3419 33.3466C23.2234 33.1588 23.1485 32.9407 23.1485 32.6111H17.1485C17.1485 34.0095 17.5109 35.3488 18.2671 36.5476L23.3419 33.3466ZM23.1485 32.6111C23.1485 32.23 23.2332 32.0081 23.3325 31.8491L18.2445 28.6691C17.4905 29.8755 17.1485 31.2216 17.1485 32.6111H23.1485ZM23.3146 31.8774C23.4561 31.6565 23.6429 31.478 23.9365 31.327L21.1925 25.9913C19.9928 26.6082 18.9956 27.4964 18.2624 28.6408L23.3146 31.8774ZM23.9212 31.3348C24.2152 31.1857 24.5908 31.0831 25.1085 31.0831V25.0831C23.7489 25.0831 22.4284 25.3645 21.2078 25.9834L23.9212 31.3348ZM25.1085 31.0831C25.5658 31.0831 25.9198 31.1706 26.2151 31.3096L28.7699 25.8807C27.6145 25.337 26.3792 25.0831 25.1085 25.0831V31.0831ZM26.2303 31.3167C26.4617 31.424 26.6118 31.5575 26.7381 31.7515L31.7669 28.4787C31.0185 27.3287 29.9953 26.4489 28.7547 25.8736L26.2303 31.3167ZM26.7563 31.7792C26.8076 31.8561 26.9245 32.0752 26.9245 32.6111H32.9245C32.9245 31.163 32.5934 29.7181 31.7487 28.451L26.7563 31.7792ZM26.9245 32.6111C26.9245 32.6584 26.9224 32.7342 26.9151 32.8436L32.9019 33.2427C32.9159 33.032 32.9245 32.8198 32.9245 32.6111H26.9245ZM26.9161 32.8294C26.9062 32.9688 26.8964 33.0955 26.8869 33.21L32.8661 33.7083C32.8779 33.5667 32.8895 33.4161 32.9009 33.2569L26.9161 32.8294ZM29.8765 30.4591H23.1405V36.4591H29.8765V30.4591ZM26.1405 33.4591V31.7151H20.1405V33.4591H26.1405ZM23.1405 34.7151H27.9565V28.7151H23.1405V34.7151ZM26.9878 28.8758L25.6278 29.3398L27.5652 35.0184L28.9252 34.5544L26.9878 28.8758ZM29.5965 32.1791C29.5965 31.4716 29.4641 30.6594 29.0382 29.8786L23.7708 32.7517C23.6009 32.4402 23.5965 32.204 23.5965 32.1791H29.5965ZM29.1109 30.0207C28.7643 29.2961 28.2168 28.6415 27.452 28.1826L24.365 33.3276C24.0269 33.1247 23.81 32.8435 23.6981 32.6095L29.1109 30.0207ZM27.5435 28.2398C26.7639 27.7331 25.9167 27.5471 25.1405 27.5471V33.5471C24.9616 33.5471 24.6264 33.4998 24.2735 33.2704L27.5435 28.2398ZM25.1405 27.5471C24.3604 27.5471 23.5368 27.7342 22.7774 28.2043L25.9356 33.3059C25.6242 33.4987 25.3233 33.5471 25.1405 33.5471V27.5471ZM22.813 28.1826C22.0482 28.6415 21.5007 29.2961 21.1541 30.0208L26.5669 32.6095C26.455 32.8435 26.2381 33.1247 25.9 33.3276L22.813 28.1826ZM21.1772 29.9735C20.7986 30.7307 20.6845 31.5072 20.6845 32.1791H26.6845C26.6845 32.1794 26.6845 32.1907 26.6825 32.2116C26.6806 32.2325 26.6766 32.2645 26.6681 32.3059C26.6512 32.3892 26.6159 32.5125 26.5438 32.6568L21.1772 29.9735ZM20.6845 32.1791V32.7231H26.6845V32.1791H20.6845ZM20.6845 32.7231C20.6845 33.4968 20.8409 34.3453 21.291 35.1489L26.526 32.2173C26.6774 32.4876 26.6845 32.6961 26.6845 32.7231H20.6845ZM21.291 35.1489C21.7385 35.9481 22.4002 36.5711 23.2069 36.9744L25.8901 31.6078C26.0025 31.664 26.127 31.7464 26.2467 31.8601C26.3667 31.9741 26.4593 32.0982 26.526 32.2173L21.291 35.1489ZM23.2913 37.015C24.0602 37.3699 24.8496 37.4831 25.5565 37.4831V31.4831C25.4741 31.4831 25.5915 31.4684 25.8057 31.5672L23.2913 37.015ZM25.5565 37.4831C26.1907 37.4831 26.9529 37.4046 27.7023 37.0923L25.3947 31.5539C25.523 31.5004 25.6102 31.4847 25.6308 31.4814C25.6522 31.4779 25.6312 31.4831 25.5565 31.4831V37.4831ZM27.6627 37.1085C28.2187 36.8861 28.7201 36.5842 29.1662 36.2538L25.5948 31.4324C25.4649 31.5287 25.4116 31.5468 25.4343 31.5377L27.6627 37.1085ZM25.2502 35.9555L27.1382 37.8595L31.3988 33.6348L29.5108 31.7308L25.2502 35.9555ZM27.0719 33.7038C26.9766 33.8063 26.8369 33.9136 26.5949 34.008L28.7741 39.5982C29.7908 39.2019 30.7071 38.6052 31.4651 37.7904L27.0719 33.7038ZM26.6205 33.9981C26.4317 34.0698 26.0661 34.1551 25.4445 34.1551V40.1551C26.5723 40.1551 27.7 40.0058 28.7485 39.6081L26.6205 33.9981ZM38.9696 28.4991L37.6071 31.1718C37.621 31.179 37.6351 31.186 37.6492 31.1929L38.9696 28.4991ZM40.2496 29.7631L37.6066 31.1825C37.6134 31.1951 37.6202 31.2076 37.6272 31.22L40.2496 29.7631ZM40.7296 36.9951V39.9951C42.3865 39.9951 43.7296 38.652 43.7296 36.9951H40.7296ZM37.1136 36.9951H34.1136C34.1136 38.652 35.4568 39.9951 37.1136 39.9951V36.9951ZM36.8256 31.4751L34.5038 33.3748C34.5183 33.3926 34.533 33.4101 34.5479 33.4275L36.8256 31.4751ZM35.3536 31.2991L36.7509 33.9539C36.7671 33.9453 36.7833 33.9366 36.7994 33.9278L35.3536 31.2991ZM34.8576 31.8431L32.1743 30.5015C32.1592 30.5318 32.1445 30.5623 32.1304 30.5932L34.8576 31.8431ZM34.6816 36.9951V39.9951C36.3385 39.9951 37.6816 38.652 37.6816 36.9951H34.6816ZM31.0656 36.9951H28.0656C28.0656 38.652 29.4088 39.9951 31.0656 39.9951V36.9951ZM31.0656 28.2431V25.2431C29.4088 25.2431 28.0656 26.5863 28.0656 28.2431H31.0656ZM34.5056 28.2431H37.5056C37.5056 26.5863 36.1625 25.2431 34.5056 25.2431V28.2431ZM34.5056 30.8031L32.314 32.8518C33.1552 33.7516 34.461 34.0459 35.6068 33.5937C36.7526 33.1415 37.5056 32.0349 37.5056 30.8031H34.5056ZM33.8176 30.0671L31.1518 28.6912C30.5701 29.8182 30.76 31.1893 31.626 32.1158L33.8176 30.0671ZM35.1936 28.5791L33.7206 25.9657C33.7137 25.9695 33.7069 25.9734 33.7 25.9774L35.1936 28.5791ZM37.1456 31.0831C37.3924 31.0831 37.5262 31.1306 37.6071 31.1718L40.3322 25.8264C39.3251 25.313 38.2429 25.0831 37.1456 25.0831V31.0831ZM37.6492 31.1929C37.6433 31.19 37.6332 31.1844 37.6208 31.1757C37.6084 31.1669 37.5978 31.1577 37.5897 31.1497C37.5817 31.1418 37.5793 31.1381 37.5818 31.1415C37.5844 31.145 37.5933 31.1576 37.6066 31.1825L42.8926 28.3437C42.3113 27.2613 41.4426 26.3703 40.2901 25.8054L37.6492 31.1929ZM37.6272 31.22C37.6214 31.2096 37.7296 31.4059 37.7296 32.0031H43.7296C43.7296 30.7657 43.5179 29.4686 42.8721 28.3062L37.6272 31.22ZM37.7296 32.0031V36.9951H43.7296V32.0031H37.7296ZM40.7296 33.9951H37.1136V39.9951H40.7296V33.9951ZM40.1136 36.9951V32.6271H34.1136V36.9951H40.1136ZM40.1136 32.6271C40.1136 31.9012 40.0195 30.5915 39.1034 29.5227L34.5479 33.4275C34.2554 33.0863 34.1593 32.7713 34.1312 32.6587C34.1022 32.5429 34.1136 32.516 34.1136 32.6271H40.1136ZM39.1475 29.5754C38.3294 28.5755 37.1793 28.1231 36.0416 28.1231V34.1231C35.8484 34.1231 35.5678 34.0875 35.2569 33.9479C34.9385 33.805 34.6846 33.5959 34.5038 33.3748L39.1475 29.5754ZM36.0416 28.1231C35.2948 28.1231 34.5677 28.3076 33.9079 28.6705L36.7994 33.9278C36.5662 34.056 36.2978 34.1231 36.0416 34.1231V28.1231ZM33.9564 28.6444C33.0728 29.1094 32.5123 29.8256 32.1743 30.5015L37.5409 33.1848C37.459 33.3486 37.2291 33.7022 36.7509 33.9539L33.9564 28.6444ZM32.1304 30.5932C31.7615 31.3981 31.6816 32.2286 31.6816 32.8831H37.6816C37.6816 32.7935 37.688 32.7695 37.6836 32.7957C37.6795 32.82 37.6587 32.932 37.5848 33.0931L32.1304 30.5932ZM31.6816 32.8831V36.9951H37.6816V32.8831H31.6816ZM34.6816 33.9951H31.0656V39.9951H34.6816V33.9951ZM34.0656 36.9951V28.2431H28.0656V36.9951H34.0656ZM31.0656 31.2431H34.5056V25.2431H31.0656V31.2431ZM31.5056 28.2431V30.8031H37.5056V28.2431H31.5056ZM36.6972 28.7545L36.0092 28.0185L31.626 32.1158L32.314 32.8518L36.6972 28.7545ZM36.4835 31.443C36.5931 31.2307 36.6706 31.1904 36.6872 31.1809L33.7 25.9774C32.5646 26.6292 31.7249 27.5808 31.1518 28.6912L36.4835 31.443ZM36.6667 31.1926C36.7761 31.1309 36.9143 31.0831 37.1456 31.0831V25.0831C35.9476 25.0831 34.7845 25.366 33.7206 25.9657L36.6667 31.1926ZM43.516 36.9151L42.8698 39.8447L43.516 36.9151ZM41.756 36.2911L38.9862 35.1386C38.4052 36.535 38.9544 38.1455 40.2676 38.8958L41.756 36.2911ZM42.748 33.9071L44.272 31.323C43.5244 30.8821 42.6225 30.7866 41.7991 31.0611C40.9758 31.3356 40.3116 31.9533 39.9782 32.7546L42.748 33.9071ZM44.188 34.4831L43.447 37.3902L43.4604 37.3935L44.188 34.4831ZM46.684 34.5791L45.4153 31.8606C45.3909 31.872 45.3665 31.8838 45.3424 31.8958L46.684 34.5791ZM46.652 34.0031L45.6535 36.8321C45.7037 36.8498 45.7544 36.8662 45.8055 36.8812L46.652 34.0031ZM44.94 33.7471L44.4906 36.7133C44.5235 36.7182 44.5564 36.7227 44.5895 36.7266L44.94 33.7471ZM43.868 33.5231L43.1003 36.4232L43.1003 36.4232L43.868 33.5231ZM42.876 33.0911L41.2537 35.6147L41.2537 35.6147L42.876 33.0911ZM42.156 32.3231L39.5256 33.7656C39.5323 33.7778 39.5391 33.79 39.5459 33.8022L42.156 32.3231ZM42.38 29.5711L39.9937 27.753C39.9845 27.7651 39.9753 27.7773 39.9663 27.7896L42.38 29.5711ZM43.884 28.4991L45.0059 31.2814C45.0134 31.2784 45.021 31.2753 45.0285 31.2722L43.884 28.4991ZM48.284 28.2591L47.743 31.2099L47.743 31.2099L48.284 28.2591ZM49.932 28.8031L52.7018 29.9556C53.2951 28.5297 52.7089 26.8862 51.347 26.1578L49.932 28.8031ZM48.94 31.1871L47.4991 33.8184C48.2457 34.2273 49.1309 34.2997 49.9341 34.0176C50.7372 33.7356 51.3827 33.1256 51.7098 32.3396L48.94 31.1871ZM47.612 30.6911L46.9535 33.6179C46.9814 33.6242 47.0094 33.6301 47.0375 33.6356L47.612 30.6911ZM45.468 30.6751L44.1264 27.9918C44.1028 28.0036 44.0795 28.0157 44.0562 28.0281L45.468 30.6751ZM45.5 31.2511L46.4985 28.4221L46.4985 28.4221L45.5 31.2511ZM46.22 31.3951L46.5396 28.4122L46.5396 28.4122L46.22 31.3951ZM47.196 31.5231L46.7466 34.4893C46.7795 34.4942 46.8124 34.4987 46.8455 34.5026L47.196 31.5231ZM48.268 31.7471L47.398 34.6182C47.4319 34.6285 47.466 34.6382 47.5003 34.6472L48.268 31.7471ZM49.26 32.1791L50.8823 29.6556L50.8823 29.6556L49.26 32.1791ZM49.98 32.9631L47.3496 34.4056C47.3563 34.4178 47.3631 34.43 47.3699 34.4422L49.98 32.9631ZM49.756 35.6671L52.1697 37.4487C52.1764 37.4397 52.183 37.4306 52.1895 37.4215L49.756 35.6671ZM48.252 36.7551L49.3585 39.5436C49.3712 39.5386 49.3839 39.5334 49.3965 39.5282L48.252 36.7551ZM45.724 34.1551C45.1935 34.1551 44.6742 34.0985 44.1622 33.9855L42.8698 39.8447C43.8084 40.0517 44.7612 40.1551 45.724 40.1551V34.1551ZM44.1622 33.9855C43.6144 33.8647 43.3421 33.7422 43.2444 33.6864L40.2676 38.8958C41.0659 39.352 41.967 39.6455 42.8698 39.8447L44.1622 33.9855ZM44.5258 37.4436L45.5178 35.0596L39.9782 32.7546L38.9862 35.1386L44.5258 37.4436ZM41.224 36.4912C41.9203 36.9018 42.6716 37.1925 43.447 37.3902L44.929 31.5761C44.6164 31.4964 44.4077 31.4031 44.272 31.323L41.224 36.4912ZM43.4604 37.3935C44.231 37.5862 45.0143 37.6911 45.804 37.6911V31.6911C45.5484 31.6911 45.2544 31.6574 44.9156 31.5727L43.4604 37.3935ZM45.804 37.6911C46.0955 37.6911 46.4145 37.6794 46.7308 37.6391C46.9958 37.6054 47.501 37.5247 48.0256 37.2624L45.3424 31.8958C45.5541 31.79 45.7257 31.7409 45.8092 31.7198C45.8997 31.6968 45.9593 31.6889 45.9732 31.6871C45.9962 31.6842 45.9499 31.6911 45.804 31.6911V37.6911ZM47.9527 37.2977C48.7002 36.9488 49.924 36.0097 49.924 34.2751H43.924C43.924 33.6582 44.1353 33.062 44.5094 32.5882C44.8458 32.162 45.219 31.9522 45.4153 31.8606L47.9527 37.2977ZM49.924 34.2751C49.924 33.4139 49.5842 32.5966 48.9773 31.9898C48.4482 31.4607 47.8589 31.231 47.4985 31.125L45.8055 36.8812C45.6264 36.8285 45.1731 36.6709 44.7347 36.2324C44.2185 35.7163 43.924 35.0083 43.924 34.2751H49.924ZM47.6505 31.1741C47.163 31.0021 46.6679 30.9208 46.2516 30.8762L45.6124 36.842C45.6507 36.8461 45.6811 36.8501 45.7043 36.8536C45.7276 36.857 45.7417 36.8597 45.7477 36.8609C45.7537 36.8621 45.7487 36.8613 45.7343 36.8574C45.7201 36.8536 45.6923 36.8458 45.6535 36.8321L47.6505 31.1741ZM46.2516 30.8762C45.9652 30.8455 45.645 30.8094 45.2905 30.7677L44.5895 36.7266C44.9603 36.7702 45.3015 36.8087 45.6124 36.842L46.2516 30.8762ZM45.3894 30.781C45.1502 30.7447 44.8991 30.6927 44.6357 30.623L43.1003 36.4232C43.5622 36.5455 44.0258 36.6428 44.4906 36.7133L45.3894 30.781ZM44.6357 30.623C44.5586 30.6026 44.5189 30.5808 44.4983 30.5676L41.2537 35.6147C41.8304 35.9854 42.4521 36.2516 43.1003 36.4232L44.6357 30.623ZM44.4983 30.5676C44.5539 30.6034 44.6099 30.6492 44.6606 30.7033C44.711 30.757 44.7451 30.8071 44.7661 30.8441L39.5459 33.8022C39.9581 34.5295 40.5311 35.1501 41.2537 35.6147L44.4983 30.5676ZM44.7864 30.8806C44.8505 30.9975 44.8751 31.087 44.8832 31.1243C44.8908 31.1592 44.884 31.1477 44.884 31.0751H38.884C38.884 31.9207 39.035 32.871 39.5256 33.7656L44.7864 30.8806ZM44.884 31.0751C44.884 31.1007 44.8794 31.1551 44.8571 31.2227C44.8348 31.2902 44.8068 31.3349 44.7937 31.3527L39.9663 27.7896C39.2564 28.7513 38.884 29.8765 38.884 31.0751H44.884ZM44.7663 31.3892C44.7042 31.4707 44.7137 31.3993 45.0059 31.2814L42.7621 25.7168C41.7316 26.1323 40.7384 26.7755 39.9937 27.753L44.7663 31.3892ZM45.0285 31.2722C45.2346 31.1872 45.6461 31.0831 46.364 31.0831V25.0831C45.1193 25.0831 43.8774 25.2564 42.7395 25.726L45.0285 31.2722ZM46.364 31.0831C46.8196 31.0831 47.2785 31.1248 47.743 31.2099L48.825 25.3083C48.0095 25.1588 47.1885 25.0831 46.364 25.0831V31.0831ZM47.743 31.2099C48.1508 31.2847 48.3908 31.381 48.517 31.4485L51.347 26.1578C50.5559 25.7346 49.6972 25.4682 48.825 25.3083L47.743 31.2099ZM47.1622 27.6506L46.1702 30.0346L51.7098 32.3396L52.7018 29.9556L47.1622 27.6506ZM50.3809 28.5558C49.7009 28.1834 48.9677 27.8991 48.1865 27.7466L47.0375 33.6356C47.1309 33.6538 47.2831 33.7002 47.4991 33.8184L50.3809 28.5558ZM48.2705 27.7643C47.6635 27.6277 47.0408 27.5471 46.412 27.5471V33.5471C46.5299 33.5471 46.7071 33.5625 46.9535 33.6179L48.2705 27.7643ZM46.412 27.5471C46.1015 27.5471 45.7642 27.5609 45.4289 27.6063C45.1317 27.6466 44.6377 27.7361 44.1264 27.9918L46.8096 33.3584C46.621 33.4527 46.4682 33.4988 46.3881 33.5199C46.3033 33.5423 46.2481 33.5501 46.2351 33.5519C46.2145 33.5547 46.2638 33.5471 46.412 33.5471V27.5471ZM44.0562 28.0281C43.6328 28.2539 42.228 29.1239 42.228 30.9631H48.228C48.228 31.7284 47.921 32.3376 47.5927 32.7317C47.2995 33.0834 47.0003 33.2579 46.8798 33.3222L44.0562 28.0281ZM42.228 30.9631C42.228 31.8195 42.5621 32.6056 43.115 33.191C43.6028 33.7075 44.1515 33.9566 44.5015 34.0801L46.4985 28.4221C46.6671 28.4817 47.0798 28.6507 47.477 29.0712C47.9392 29.5606 48.228 30.2347 48.228 30.9631H42.228ZM44.5015 34.0801C44.989 34.2521 45.4841 34.3334 45.9004 34.378L46.5396 28.4122C46.5013 28.4081 46.4709 28.4041 46.4477 28.4007C46.4244 28.3972 46.4103 28.3946 46.4043 28.3934C46.3983 28.3922 46.4033 28.393 46.4177 28.3968C46.4319 28.4006 46.4597 28.4085 46.4985 28.4221L44.5015 34.0801ZM45.9004 34.378C46.1486 34.4046 46.4301 34.4413 46.7466 34.4893L47.6454 28.557C47.2579 28.4983 46.8887 28.4496 46.5396 28.4122L45.9004 34.378ZM46.8455 34.5026C47.0308 34.5244 47.2144 34.5626 47.398 34.6182L49.138 28.876C48.6176 28.7183 48.0865 28.6072 47.5465 28.5437L46.8455 34.5026ZM47.5003 34.6472C47.5774 34.6676 47.6171 34.6894 47.6377 34.7027L50.8823 29.6556C50.3056 29.2848 49.6839 29.0186 49.0357 28.847L47.5003 34.6472ZM47.6377 34.7027C47.5711 34.6598 47.5083 34.607 47.4544 34.5483C47.4011 34.4903 47.3678 34.4388 47.3496 34.4056L52.6104 31.5206C52.2039 30.7793 51.6281 30.135 50.8823 29.6556L47.6377 34.7027ZM47.3699 34.4422C47.2939 34.308 47.2646 34.2033 47.2545 34.1579C47.2451 34.1149 47.252 34.1218 47.252 34.1951H53.252C53.252 33.3556 53.1032 32.3896 52.5901 31.4841L47.3699 34.4422ZM47.252 34.1951C47.252 34.1339 47.2627 34.0635 47.2851 33.9972C47.3066 33.9331 47.3283 33.9046 47.3225 33.9127L52.1895 37.4215C52.8567 36.4961 53.252 35.3998 53.252 34.1951H47.252ZM47.3423 33.8856C47.4214 33.7784 47.425 33.851 47.1075 33.982L49.3965 39.5282C50.423 39.1046 51.4293 38.4519 52.1697 37.4487L47.3423 33.8856ZM47.1455 33.9666C46.9365 34.0496 46.4994 34.1551 45.724 34.1551V40.1551C46.9752 40.1551 48.2235 39.994 49.3585 39.5436L47.1455 33.9666Z" fill="#4B371F" mask="url(#path-10-outside-2_29626_9)"/>
</svg>
