<svg width="36" height="31" viewBox="0 0 36 31" fill="none" xmlns="http://www.w3.org/2000/svg">
  <path d="M2.43091 8.20244C2.43091 7.55784 2.68697 6.93964 3.14278 6.48384C3.59858 6.02804 4.21677 5.77197 4.86137 5.77197H24.9127C25.5573 5.77197 26.1755 6.02804 26.6313 6.48384C27.0871 6.93964 27.3432 7.55784 27.3432 8.20244V19.7472H2.43091V8.20244Z" fill="#8A8A8A"/>
  <path d="M1.21509 20.9623C1.21509 20.8027 1.24652 20.6447 1.30759 20.4973C1.36866 20.3498 1.45818 20.2158 1.57102 20.103C1.68387 19.9902 1.81783 19.9006 1.96527 19.8396C2.11271 19.7785 2.27073 19.7471 2.43032 19.7471H27.3426C27.5022 19.7471 27.6602 19.7785 27.8076 19.8396C27.9551 19.9006 28.0891 19.9902 28.2019 20.103C28.3147 20.2158 28.4043 20.3498 28.4653 20.4973C28.5264 20.6447 28.5578 20.8027 28.5578 20.9623V25.2156C28.5578 25.6944 28.4635 26.1685 28.2803 26.6108C28.0971 27.0531 27.8286 27.455 27.49 27.7935C27.1515 28.1321 26.7496 28.4006 26.3073 28.5838C25.865 28.767 25.3909 28.8613 24.9121 28.8613H4.86079C4.38203 28.8613 3.90796 28.767 3.46564 28.5838C3.02332 28.4006 2.62142 28.1321 2.28289 27.7935C1.94435 27.455 1.67581 27.0531 1.4926 26.6108C1.30939 26.1685 1.21509 25.6944 1.21509 25.2156V20.9623Z" fill="#8A8A8A"/>
  <path d="M12.7597 8.20313C12.6001 8.20312 12.4421 8.23456 12.2946 8.29563C12.1472 8.3567 12.0132 8.44621 11.9004 8.55906C11.7875 8.6719 11.698 8.80587 11.6369 8.95331C11.5759 9.10075 11.5444 9.25877 11.5444 9.41836V16.1021C11.5444 16.2617 11.5759 16.4197 11.6369 16.5672C11.698 16.7146 11.7875 16.8486 11.9004 16.9614C12.0132 17.0743 12.1472 17.1638 12.2946 17.2249C12.4421 17.2859 12.6001 17.3174 12.7597 17.3174H17.013C17.1726 17.3174 17.3306 17.2859 17.478 17.2249C17.6255 17.1638 17.7594 17.0743 17.8723 16.9614C17.9851 16.8486 18.0746 16.7146 18.1357 16.5672C18.1968 16.4197 18.2282 16.2617 18.2282 16.1021V9.41836C18.2282 9.25877 18.1968 9.10075 18.1357 8.95331C18.0746 8.80587 17.9851 8.6719 17.8723 8.55906C17.7594 8.44621 17.6255 8.3567 17.478 8.29563C17.3306 8.23456 17.1726 8.20312 17.013 8.20313H12.7597ZM31.5958 17.6212C32.4015 17.6212 33.1743 17.3011 33.744 16.7313C34.3138 16.1616 34.6339 15.3888 34.6339 14.5831C34.6339 13.7773 34.3138 13.0046 33.744 12.4348C33.1743 11.8651 32.4015 11.545 31.5958 11.545C30.79 11.545 30.0173 11.8651 29.4475 12.4348C28.8778 13.0046 28.5577 13.7773 28.5577 14.5831C28.5577 15.3888 28.8778 16.1616 29.4475 16.7313C30.0173 17.3011 30.79 17.6212 31.5958 17.6212Z" fill="#8A8A8A"/>
  <path d="M30.8766 1.44152C31.0172 1.24475 31.0738 1.00023 31.034 0.761729C30.9942 0.523231 30.8613 0.3103 30.6646 0.169777C30.4678 0.0292544 30.2233 -0.0273489 29.9848 0.0124198C29.7463 0.0521884 29.5334 0.185071 29.3928 0.381835L27.8738 2.50849C27.7333 2.70526 27.6767 2.94978 27.7164 3.18828C27.7562 3.42678 27.8891 3.63971 28.0859 3.78023C28.2826 3.92076 28.5271 3.97736 28.7656 3.93759C29.0041 3.89782 29.2171 3.76494 29.3576 3.56818L30.8766 1.44152ZM32.18 5.45057C32.3964 5.34284 32.5612 5.15355 32.638 4.92434C32.7149 4.69513 32.6975 4.44478 32.5898 4.22835C32.4821 4.01193 32.2928 3.84716 32.0636 3.7703C31.8344 3.69344 31.584 3.71079 31.3676 3.81851L30.0327 4.48264C29.9246 4.53539 29.828 4.60901 29.7485 4.69925C29.669 4.7895 29.6082 4.89458 29.5695 5.00845C29.5308 5.12232 29.515 5.24273 29.523 5.36272C29.5311 5.48272 29.5628 5.59994 29.6164 5.70762C29.6699 5.8153 29.7443 5.91131 29.8351 5.99013C29.9259 6.06895 30.0315 6.12901 30.1456 6.16685C30.2598 6.20469 30.3803 6.21956 30.5003 6.21061C30.6202 6.20166 30.7372 6.16906 30.8444 6.1147L32.18 5.45057ZM25.7241 0.191043C25.8433 0.181052 25.9634 0.194659 26.0775 0.231088C26.1915 0.267517 26.2973 0.326054 26.3887 0.403356C26.4801 0.480658 26.5554 0.57521 26.6102 0.681612C26.6651 0.788014 26.6984 0.904181 26.7084 1.02348L26.8099 2.23628C26.8198 2.35557 26.8062 2.47566 26.7698 2.58969C26.7333 2.70371 26.6748 2.80945 26.5975 2.90085C26.5202 2.99226 26.4257 3.06754 26.3193 3.12241C26.2129 3.17727 26.0967 3.21065 25.9774 3.22062C25.8581 3.23059 25.7381 3.21697 25.624 3.18054C25.51 3.1441 25.4043 3.08556 25.3129 3.00827C25.2215 2.93097 25.1462 2.83642 25.0913 2.73003C25.0364 2.62363 25.0031 2.50748 24.9931 2.38818L24.8916 1.17538C24.8816 1.05609 24.8952 0.935993 24.9317 0.821959C24.9681 0.707924 25.0266 0.602183 25.1039 0.510775C25.1812 0.419367 25.2758 0.344083 25.3822 0.289222C25.4886 0.234362 25.6048 0.201001 25.7241 0.191043ZM4.86093 4.55738C4.38217 4.55738 3.9081 4.65167 3.46578 4.83489C3.02347 5.0181 2.62157 5.28664 2.28303 5.62518C1.9445 5.96371 1.67596 6.36561 1.49275 6.80793C1.30953 7.25024 1.21523 7.72432 1.21523 8.20308V18.8576C0.845593 19.0709 0.538657 19.3778 0.325321 19.7474C0.111986 20.117 -0.000218821 20.5363 3.2038e-07 20.963V25.2163C3.2038e-07 26.5055 0.512133 27.7419 1.42373 28.6535C2.33534 29.5651 3.57173 30.0773 4.86093 30.0773H24.9123C26.2015 30.0773 27.4379 29.5651 28.3495 28.6535C29.2611 27.7419 29.7732 26.5055 29.7732 25.2163C30.252 25.2163 30.726 25.122 31.1684 24.9388C31.6107 24.7556 32.0126 24.4871 32.3511 24.1485C32.6896 23.81 32.9582 23.4081 33.1414 22.9658C33.3246 22.5235 33.4189 22.0494 33.4189 21.5706V18.4268C33.9804 18.1602 34.4766 17.7738 34.8726 17.2947C35.2687 16.8156 35.5549 16.2556 35.7111 15.654C35.8674 15.0524 35.8899 14.4239 35.7771 13.8126C35.6643 13.2014 35.4188 12.6223 35.0581 12.1162C34.6974 11.61 34.2301 11.189 33.6891 10.8829C33.1481 10.5768 32.5467 10.393 31.927 10.3444C31.3074 10.2958 30.6846 10.3836 30.1025 10.6016C29.5204 10.8197 28.9932 11.1626 28.558 11.6063V8.20308C28.558 7.23618 28.1739 6.30888 27.4902 5.62518C26.8065 4.94147 25.8792 4.55738 24.9123 4.55738H4.86093ZM28.558 17.5598C29.2104 18.2271 30.0647 18.6606 30.9884 18.7932V21.5706C30.9884 21.8929 30.8604 22.202 30.6325 22.4299C30.4046 22.6578 30.0955 22.7859 29.7732 22.7859V20.963C29.7732 20.0637 29.2847 19.2781 28.558 18.8576V17.5604V17.5598ZM27.3427 20.963V25.2163C27.3427 25.8609 27.0867 26.4791 26.6309 26.9349C26.1751 27.3907 25.5569 27.6468 24.9123 27.6468H4.86093C4.21633 27.6468 3.59813 27.3907 3.14233 26.9349C2.68653 26.4791 2.43047 25.8609 2.43047 25.2163V20.963H27.3427ZM26.1275 18.5326H3.6457V8.20308C3.6457 8.04349 3.67713 7.88546 3.7382 7.73803C3.79927 7.59059 3.88879 7.45662 4.00163 7.34378C4.11448 7.23093 4.24844 7.14142 4.39588 7.08035C4.54332 7.01928 4.70135 6.98784 4.86093 6.98784H24.9123C25.0719 6.98784 25.2299 7.01928 25.3773 7.08035C25.5248 7.14142 25.6587 7.23093 25.7716 7.34378C25.8844 7.45662 25.9739 7.59059 26.035 7.73803C26.0961 7.88546 26.1275 8.04349 26.1275 8.20308V18.5326ZM9.72186 24.0011C9.72186 23.8415 9.7533 23.6835 9.81437 23.5361C9.87544 23.3886 9.96495 23.2547 10.0778 23.1418C10.1906 23.029 10.3246 22.9394 10.472 22.8784C10.6195 22.8173 10.7775 22.7859 10.9371 22.7859H19.4437C19.766 22.7859 20.0751 22.9139 20.303 23.1418C20.5309 23.3697 20.659 23.6788 20.659 24.0011C20.659 24.3234 20.5309 24.6325 20.303 24.8604C20.0751 25.0883 19.766 25.2163 19.4437 25.2163H10.9371C10.6148 25.2163 10.3057 25.0883 10.0778 24.8604C9.8499 24.6325 9.72186 24.3234 9.72186 24.0011ZM13.3676 10.0259H16.4056V15.4945H13.3676V10.0259ZM12.7599 8.20308C12.6004 8.20308 12.4423 8.23451 12.2949 8.29558C12.1475 8.35665 12.0135 8.44616 11.9006 8.55901C11.7878 8.67185 11.6983 8.80582 11.6372 8.95326C11.5761 9.1007 11.5447 9.25872 11.5447 9.41831V16.1021C11.5447 16.2617 11.5761 16.4197 11.6372 16.5671C11.6983 16.7146 11.7878 16.8485 11.9006 16.9614C12.0135 17.0742 12.1475 17.1637 12.2949 17.2248C12.4423 17.2859 12.6004 17.3173 12.7599 17.3173H17.0133C17.1728 17.3173 17.3309 17.2859 17.4783 17.2248C17.6257 17.1637 17.7597 17.0742 17.8726 16.9614C17.9854 16.8485 18.0749 16.7146 18.136 16.5671C18.1971 16.4197 18.2285 16.2617 18.2285 16.1021V9.41831C18.2285 9.25872 18.1971 9.1007 18.136 8.95326C18.0749 8.80582 17.9854 8.67185 17.8726 8.55901C17.7597 8.44616 17.6257 8.35665 17.4783 8.29558C17.3309 8.23451 17.1728 8.20308 17.0133 8.20308H12.7599ZM6.68378 10.3297H8.50663V15.1907H6.68378V10.3297ZM6.07617 8.50688C5.91658 8.50688 5.75855 8.53832 5.61112 8.59939C5.46368 8.66046 5.32971 8.74997 5.21687 8.86282C5.10402 8.97566 5.01451 9.10963 4.95344 9.25707C4.89236 9.40451 4.86093 9.56253 4.86093 9.72212V15.7983C4.86093 16.1206 4.98897 16.4297 5.21687 16.6576C5.44477 16.8855 5.75387 17.0135 6.07617 17.0135H9.11425C9.27384 17.0135 9.43186 16.9821 9.5793 16.921C9.72674 16.8599 9.8607 16.7704 9.97355 16.6576C10.0864 16.5447 10.1759 16.4108 10.237 16.2633C10.298 16.1159 10.3295 15.9579 10.3295 15.7983V9.72212C10.3295 9.56253 10.298 9.40451 10.237 9.25707C10.1759 9.10963 10.0864 8.97566 9.97355 8.86282C9.8607 8.74997 9.72674 8.66046 9.5793 8.59939C9.43186 8.53832 9.27384 8.50688 9.11425 8.50688H6.07617ZM21.2666 10.3297H23.0894V15.1907H21.2666V10.3297ZM20.659 8.50688C20.4994 8.50688 20.3414 8.53832 20.1939 8.59939C20.0465 8.66046 19.9125 8.74997 19.7997 8.86282C19.6868 8.97566 19.5973 9.10963 19.5362 9.25707C19.4752 9.40451 19.4437 9.56253 19.4437 9.72212V15.7983C19.4437 15.9579 19.4752 16.1159 19.5362 16.2633C19.5973 16.4108 19.6868 16.5447 19.7997 16.6576C19.9125 16.7704 20.0465 16.8599 20.1939 16.921C20.3414 16.9821 20.4994 17.0135 20.659 17.0135H23.697C24.0193 17.0135 24.3284 16.8855 24.5563 16.6576C24.7842 16.4297 24.9123 16.1206 24.9123 15.7983V9.72212C24.9123 9.56253 24.8808 9.40451 24.8198 9.25707C24.7587 9.10963 24.6692 8.97566 24.5563 8.86282C24.4435 8.74997 24.3095 8.66046 24.1621 8.59939C24.0147 8.53832 23.8566 8.50688 23.697 8.50688H20.659ZM31.5961 12.7602C31.8355 12.7602 32.0725 12.8073 32.2937 12.8989C32.5149 12.9905 32.7159 13.1247 32.8852 13.294C33.0545 13.4633 33.1888 13.6642 33.2804 13.8854C33.372 14.1066 33.4192 14.3436 33.4192 14.583C33.4192 14.8225 33.372 15.0595 33.2804 15.2807C33.1888 15.5019 33.0545 15.7028 32.8852 15.8721C32.7159 16.0414 32.5149 16.1756 32.2937 16.2672C32.0725 16.3588 31.8355 16.4059 31.5961 16.4059C31.1127 16.4058 30.6491 16.2137 30.3073 15.8719C29.9655 15.5301 29.7735 15.0665 29.7735 14.583C29.7735 14.0996 29.9655 13.636 30.3073 13.2942C30.6491 12.9524 31.1127 12.7603 31.5961 12.7602Z" fill="#4B371F"/>
</svg>
