<svg width="60" height="48" viewBox="0 0 60 48" fill="none" xmlns="http://www.w3.org/2000/svg">
  <path d="M49.4375 18.6981C47.9078 11.7511 43.7013 6.78251 39.7872 7.00733H39.6298C38.0696 7.00503 36.5606 7.56361 35.3783 8.58109C34.9546 9.05663 34.4347 9.43682 33.8531 9.69649C33.2714 9.95617 32.6411 10.0894 32.0041 10.0874C31.3926 10.0852 30.788 9.95852 30.2272 9.71499C29.6664 9.47147 29.1612 9.11625 28.7423 8.67102C27.5499 7.6005 26.0037 7.00801 24.4008 7.00733H24.2209C20.3068 6.78251 16.1003 11.7511 14.5707 18.6981C12.9285 26.0723 14.9531 32.8844 19.0696 33.8737C22.0839 34.6156 25.3906 32.0076 27.5951 27.691H36.503C38.7525 32.0301 42.0142 34.6156 45.0285 33.8737C49.055 32.862 51.0571 26.0723 49.4375 18.6981Z" fill="#8A8A8A" stroke="#4B371F" stroke-width="4" stroke-linejoin="round"/>
  <path d="M26.0051 18.2578H25.0051V19.2578V21.3154H24.6456V19.2578V18.2578H23.6456H21.7263V17.7998H23.6456H24.6456V16.7998V14.7422H25.0051V16.7998V17.7998H26.0051H27.9125L27.9162 18.2578H26.0051ZM37.2761 18.558L37.2633 18.5583L37.2505 18.559C37.1426 18.5646 37.0356 18.5377 36.9432 18.4819C36.8508 18.4262 36.7774 18.3441 36.7323 18.2463C36.6872 18.1485 36.6725 18.0395 36.69 17.9334C36.7075 17.8272 36.7564 17.7286 36.8306 17.6504C36.9048 17.5722 37.0008 17.5179 37.1063 17.4947C37.2118 17.4715 37.3218 17.4805 37.4221 17.5204C37.5224 17.5602 37.6084 17.6292 37.669 17.7183C37.7295 17.8074 37.7619 17.9126 37.7621 18.0202L37.7621 18.033L37.7624 18.0458C37.7642 18.1113 37.7531 18.1764 37.7296 18.2376C37.7062 18.2987 37.6709 18.3547 37.6258 18.4023C37.5806 18.4499 37.5265 18.4881 37.4665 18.5149C37.4065 18.5416 37.3418 18.5562 37.2761 18.558ZM41.9413 18.5576H41.9153L41.8894 18.559C41.7815 18.5646 41.6745 18.5377 41.5821 18.4819C41.4897 18.4262 41.4163 18.3441 41.3712 18.2463C41.3261 18.1485 41.3114 18.0395 41.3289 17.9334C41.3464 17.8272 41.3954 17.7286 41.4695 17.6504C41.5437 17.5722 41.6397 17.5179 41.7452 17.4947C41.8507 17.4715 41.9607 17.4805 42.061 17.5204C42.1613 17.5602 42.2473 17.6292 42.3079 17.7183C42.3684 17.8074 42.4008 17.9126 42.401 18.0202L42.401 18.0339L42.4014 18.0477C42.4051 18.1765 42.3587 18.3019 42.2719 18.3974C42.1904 18.487 42.0793 18.5438 41.9593 18.5576H41.9413Z" fill="#4B371F" stroke="#4B371F" stroke-width="2"/>
  <mask id="path-3-outside-1_28641_17191" maskUnits="userSpaceOnUse" x="2" y="25" width="56" height="19" fill="black">
    <rect fill="white" x="2" y="25" width="56" height="19"/>
    <path d="M11.8372 40.256C10.9305 40.256 10.0932 40.1173 9.32519 39.84C8.56785 39.552 7.90652 39.1467 7.34119 38.624C6.78652 38.1013 6.35452 37.4827 6.04519 36.768C5.73585 36.0533 5.58119 35.264 5.58119 34.4C5.58119 33.536 5.73585 32.7467 6.04519 32.032C6.35452 31.3173 6.79185 30.6987 7.35719 30.176C7.92252 29.6533 8.58919 29.2533 9.35719 28.976C10.1359 28.688 10.9892 28.544 11.9172 28.544C13.0265 28.544 14.0132 28.7307 14.8772 29.104C15.7519 29.4773 16.4719 30.0107 17.0372 30.704L14.6212 32.832C14.2692 32.4267 13.8852 32.1227 13.4692 31.92C13.0639 31.7067 12.6105 31.6 12.1092 31.6C11.6932 31.6 11.3145 31.664 10.9732 31.792C10.6425 31.92 10.3599 32.1067 10.1252 32.352C9.89052 32.5973 9.70919 32.8907 9.58119 33.232C9.45319 33.5733 9.38919 33.9627 9.38919 34.4C9.38919 34.816 9.45319 35.2 9.58119 35.552C9.70919 35.8933 9.89052 36.1867 10.1252 36.432C10.3599 36.6773 10.6372 36.8693 10.9572 37.008C11.2879 37.136 11.6559 37.2 12.0612 37.2C12.4879 37.2 12.9039 37.1307 13.3092 36.992C13.7145 36.8427 14.1465 36.592 14.6052 36.24L16.7172 38.832C16.0345 39.2907 15.2559 39.6427 14.3812 39.888C13.5065 40.1333 12.6585 40.256 11.8372 40.256ZM13.4372 38.352V34.096H16.7172V38.832L13.4372 38.352ZM23.5101 40V38.448L23.2541 38.032V35.088C23.2541 34.6613 23.1207 34.336 22.8541 34.112C22.5981 33.888 22.1767 33.776 21.5901 33.776C21.1954 33.776 20.7954 33.84 20.3901 33.968C19.9847 34.0853 19.6381 34.2507 19.3501 34.464L18.1981 32.08C18.7101 31.76 19.3234 31.5147 20.0381 31.344C20.7527 31.1733 21.4514 31.088 22.1341 31.088C23.6381 31.088 24.8007 31.424 25.6221 32.096C26.4541 32.768 26.8701 33.8347 26.8701 35.296V40H23.5101ZM21.0301 40.16C20.3154 40.16 19.7181 40.0373 19.2381 39.792C18.7581 39.5467 18.3954 39.2213 18.1501 38.816C17.9047 38.4 17.7821 37.9413 17.7821 37.44C17.7821 36.8747 17.9261 36.3947 18.2141 36C18.5021 35.6053 18.9394 35.3067 19.5261 35.104C20.1234 34.9013 20.8754 34.8 21.7821 34.8H23.6061V36.544H22.3581C21.9741 36.544 21.6914 36.608 21.5101 36.736C21.3394 36.8533 21.2541 37.0347 21.2541 37.28C21.2541 37.4827 21.3287 37.6533 21.4781 37.792C21.6381 37.92 21.8514 37.984 22.1181 37.984C22.3634 37.984 22.5874 37.92 22.7901 37.792C23.0034 37.6533 23.1581 37.44 23.2541 37.152L23.7181 38.224C23.5794 38.8747 23.2861 39.36 22.8381 39.68C22.3901 40 21.7874 40.16 21.0301 40.16ZM40.0168 31.088C40.6781 31.088 41.2701 31.2267 41.7928 31.504C42.3261 31.7707 42.7421 32.192 43.0408 32.768C43.3501 33.344 43.5048 34.0907 43.5048 35.008V40H39.8888V35.632C39.8888 35.088 39.7981 34.704 39.6168 34.48C39.4355 34.2453 39.2008 34.128 38.9128 34.128C38.6995 34.128 38.5075 34.1813 38.3368 34.288C38.1661 34.3947 38.0275 34.5653 37.9208 34.8C37.8248 35.024 37.7768 35.3333 37.7768 35.728V40H34.1608V35.632C34.1608 35.088 34.0755 34.704 33.9048 34.48C33.7341 34.2453 33.4941 34.128 33.1848 34.128C32.9715 34.128 32.7795 34.1813 32.6088 34.288C32.4381 34.3947 32.2995 34.5653 32.1928 34.8C32.0968 35.024 32.0488 35.3333 32.0488 35.728V40H28.4328V31.248H31.8728V33.76L31.1688 33.056C31.4995 32.3947 31.9421 31.904 32.4968 31.584C33.0515 31.2533 33.6701 31.088 34.3528 31.088C35.1208 31.088 35.7981 31.2907 36.3848 31.696C36.9821 32.0907 37.3821 32.72 37.5848 33.584L36.4808 33.408C36.8008 32.6827 37.2648 32.1173 37.8728 31.712C38.4915 31.296 39.2061 31.088 40.0168 31.088ZM50.0617 40.16C48.995 40.16 48.0617 39.9627 47.2617 39.568C46.4724 39.1733 45.859 38.6347 45.4217 37.952C44.9844 37.2587 44.7657 36.48 44.7657 35.616C44.7657 34.7307 44.979 33.9467 45.4057 33.264C45.843 32.5813 46.435 32.048 47.1817 31.664C47.939 31.28 48.787 31.088 49.7257 31.088C50.5897 31.088 51.3844 31.2587 52.1097 31.6C52.8457 31.9413 53.4324 32.448 53.8697 33.12C54.3177 33.792 54.5417 34.624 54.5417 35.616C54.5417 35.744 54.5364 35.888 54.5257 36.048C54.515 36.1973 54.5044 36.336 54.4937 36.464H47.7577V34.72H52.5737L51.2137 35.184C51.2137 34.8427 51.1497 34.5547 51.0217 34.32C50.9044 34.0747 50.739 33.888 50.5257 33.76C50.3124 33.6213 50.0564 33.552 49.7577 33.552C49.459 33.552 49.1977 33.6213 48.9737 33.76C48.7604 33.888 48.595 34.0747 48.4777 34.32C48.3604 34.5547 48.3017 34.8427 48.3017 35.184V35.728C48.3017 36.1013 48.3764 36.4213 48.5257 36.688C48.675 36.9547 48.8884 37.1573 49.1657 37.296C49.443 37.424 49.779 37.488 50.1737 37.488C50.579 37.488 50.9097 37.4347 51.1657 37.328C51.4324 37.2213 51.7097 37.0613 51.9977 36.848L53.8857 38.752C53.459 39.2107 52.931 39.5627 52.3017 39.808C51.683 40.0427 50.9364 40.16 50.0617 40.16Z"/>
  </mask>
  <path d="M11.8372 40.256C10.9305 40.256 10.0932 40.1173 9.32519 39.84C8.56785 39.552 7.90652 39.1467 7.34119 38.624C6.78652 38.1013 6.35452 37.4827 6.04519 36.768C5.73585 36.0533 5.58119 35.264 5.58119 34.4C5.58119 33.536 5.73585 32.7467 6.04519 32.032C6.35452 31.3173 6.79185 30.6987 7.35719 30.176C7.92252 29.6533 8.58919 29.2533 9.35719 28.976C10.1359 28.688 10.9892 28.544 11.9172 28.544C13.0265 28.544 14.0132 28.7307 14.8772 29.104C15.7519 29.4773 16.4719 30.0107 17.0372 30.704L14.6212 32.832C14.2692 32.4267 13.8852 32.1227 13.4692 31.92C13.0639 31.7067 12.6105 31.6 12.1092 31.6C11.6932 31.6 11.3145 31.664 10.9732 31.792C10.6425 31.92 10.3599 32.1067 10.1252 32.352C9.89052 32.5973 9.70919 32.8907 9.58119 33.232C9.45319 33.5733 9.38919 33.9627 9.38919 34.4C9.38919 34.816 9.45319 35.2 9.58119 35.552C9.70919 35.8933 9.89052 36.1867 10.1252 36.432C10.3599 36.6773 10.6372 36.8693 10.9572 37.008C11.2879 37.136 11.6559 37.2 12.0612 37.2C12.4879 37.2 12.9039 37.1307 13.3092 36.992C13.7145 36.8427 14.1465 36.592 14.6052 36.24L16.7172 38.832C16.0345 39.2907 15.2559 39.6427 14.3812 39.888C13.5065 40.1333 12.6585 40.256 11.8372 40.256ZM13.4372 38.352V34.096H16.7172V38.832L13.4372 38.352ZM23.5101 40V38.448L23.2541 38.032V35.088C23.2541 34.6613 23.1207 34.336 22.8541 34.112C22.5981 33.888 22.1767 33.776 21.5901 33.776C21.1954 33.776 20.7954 33.84 20.3901 33.968C19.9847 34.0853 19.6381 34.2507 19.3501 34.464L18.1981 32.08C18.7101 31.76 19.3234 31.5147 20.0381 31.344C20.7527 31.1733 21.4514 31.088 22.1341 31.088C23.6381 31.088 24.8007 31.424 25.6221 32.096C26.4541 32.768 26.8701 33.8347 26.8701 35.296V40H23.5101ZM21.0301 40.16C20.3154 40.16 19.7181 40.0373 19.2381 39.792C18.7581 39.5467 18.3954 39.2213 18.1501 38.816C17.9047 38.4 17.7821 37.9413 17.7821 37.44C17.7821 36.8747 17.9261 36.3947 18.2141 36C18.5021 35.6053 18.9394 35.3067 19.5261 35.104C20.1234 34.9013 20.8754 34.8 21.7821 34.8H23.6061V36.544H22.3581C21.9741 36.544 21.6914 36.608 21.5101 36.736C21.3394 36.8533 21.2541 37.0347 21.2541 37.28C21.2541 37.4827 21.3287 37.6533 21.4781 37.792C21.6381 37.92 21.8514 37.984 22.1181 37.984C22.3634 37.984 22.5874 37.92 22.7901 37.792C23.0034 37.6533 23.1581 37.44 23.2541 37.152L23.7181 38.224C23.5794 38.8747 23.2861 39.36 22.8381 39.68C22.3901 40 21.7874 40.16 21.0301 40.16ZM40.0168 31.088C40.6781 31.088 41.2701 31.2267 41.7928 31.504C42.3261 31.7707 42.7421 32.192 43.0408 32.768C43.3501 33.344 43.5048 34.0907 43.5048 35.008V40H39.8888V35.632C39.8888 35.088 39.7981 34.704 39.6168 34.48C39.4355 34.2453 39.2008 34.128 38.9128 34.128C38.6995 34.128 38.5075 34.1813 38.3368 34.288C38.1661 34.3947 38.0275 34.5653 37.9208 34.8C37.8248 35.024 37.7768 35.3333 37.7768 35.728V40H34.1608V35.632C34.1608 35.088 34.0755 34.704 33.9048 34.48C33.7341 34.2453 33.4941 34.128 33.1848 34.128C32.9715 34.128 32.7795 34.1813 32.6088 34.288C32.4381 34.3947 32.2995 34.5653 32.1928 34.8C32.0968 35.024 32.0488 35.3333 32.0488 35.728V40H28.4328V31.248H31.8728V33.76L31.1688 33.056C31.4995 32.3947 31.9421 31.904 32.4968 31.584C33.0515 31.2533 33.6701 31.088 34.3528 31.088C35.1208 31.088 35.7981 31.2907 36.3848 31.696C36.9821 32.0907 37.3821 32.72 37.5848 33.584L36.4808 33.408C36.8008 32.6827 37.2648 32.1173 37.8728 31.712C38.4915 31.296 39.2061 31.088 40.0168 31.088ZM50.0617 40.16C48.995 40.16 48.0617 39.9627 47.2617 39.568C46.4724 39.1733 45.859 38.6347 45.4217 37.952C44.9844 37.2587 44.7657 36.48 44.7657 35.616C44.7657 34.7307 44.979 33.9467 45.4057 33.264C45.843 32.5813 46.435 32.048 47.1817 31.664C47.939 31.28 48.787 31.088 49.7257 31.088C50.5897 31.088 51.3844 31.2587 52.1097 31.6C52.8457 31.9413 53.4324 32.448 53.8697 33.12C54.3177 33.792 54.5417 34.624 54.5417 35.616C54.5417 35.744 54.5364 35.888 54.5257 36.048C54.515 36.1973 54.5044 36.336 54.4937 36.464H47.7577V34.72H52.5737L51.2137 35.184C51.2137 34.8427 51.1497 34.5547 51.0217 34.32C50.9044 34.0747 50.739 33.888 50.5257 33.76C50.3124 33.6213 50.0564 33.552 49.7577 33.552C49.459 33.552 49.1977 33.6213 48.9737 33.76C48.7604 33.888 48.595 34.0747 48.4777 34.32C48.3604 34.5547 48.3017 34.8427 48.3017 35.184V35.728C48.3017 36.1013 48.3764 36.4213 48.5257 36.688C48.675 36.9547 48.8884 37.1573 49.1657 37.296C49.443 37.424 49.779 37.488 50.1737 37.488C50.579 37.488 50.9097 37.4347 51.1657 37.328C51.4324 37.2213 51.7097 37.0613 51.9977 36.848L53.8857 38.752C53.459 39.2107 52.931 39.5627 52.3017 39.808C51.683 40.0427 50.9364 40.16 50.0617 40.16Z" fill="#8A8A8A"/>
  <path d="M9.32519 39.84L8.25884 42.6441C8.2746 42.6501 8.2904 42.6559 8.30625 42.6617L9.32519 39.84ZM7.34119 38.624L5.28378 40.8074C5.2907 40.8139 5.29765 40.8204 5.30462 40.8268L7.34119 38.624ZM6.04519 36.768L3.29202 37.9597H3.29202L6.04519 36.768ZM6.04519 32.032L3.29202 30.8403L3.29202 30.8403L6.04519 32.032ZM7.35719 30.176L5.32062 27.9732L5.32062 27.9732L7.35719 30.176ZM9.35719 28.976L10.3761 31.7977C10.3834 31.795 10.3906 31.7924 10.3979 31.7897L9.35719 28.976ZM14.8772 29.104L13.6872 31.8579L13.6995 31.8632L14.8772 29.104ZM17.0372 30.704L19.0201 32.9553C20.2301 31.8895 20.3812 30.0579 19.3622 28.8082L17.0372 30.704ZM14.6212 32.832L12.3561 34.7991C12.8802 35.4026 13.6234 35.772 14.4209 35.8253C15.2184 35.8787 16.0043 35.6116 16.6041 35.0833L14.6212 32.832ZM13.4692 31.92L12.0719 34.5748C12.0995 34.5893 12.1273 34.6033 12.1553 34.617L13.4692 31.92ZM10.9732 31.792L9.91982 28.983C9.90993 28.9867 9.90006 28.9905 9.89021 28.9943L10.9732 31.792ZM10.1252 32.352L12.2931 34.4257L12.2931 34.4257L10.1252 32.352ZM9.58119 33.232L12.3902 34.2854V34.2854L9.58119 33.232ZM9.58119 35.552L6.76181 36.5772C6.76522 36.5866 6.76869 36.596 6.7722 36.6054L9.58119 35.552ZM10.1252 36.432L12.2931 34.3583L12.2931 34.3583L10.1252 36.432ZM10.9572 37.008L9.76437 39.7607C9.80068 39.7764 9.8373 39.7914 9.87421 39.8057L10.9572 37.008ZM13.3092 36.992L14.2803 39.8305C14.3024 39.8229 14.3244 39.8151 14.3463 39.807L13.3092 36.992ZM14.6052 36.24L16.9309 34.345C15.9058 33.0869 14.0661 32.8721 12.7787 33.8601L14.6052 36.24ZM16.7172 38.832L18.3903 41.3221C19.0905 40.8517 19.5603 40.1081 19.6845 39.2736C19.8087 38.4392 19.5758 37.591 19.0429 36.937L16.7172 38.832ZM14.3812 39.888L15.1914 42.7765H15.1914L14.3812 39.888ZM13.4372 38.352H10.4372C10.4372 39.8411 11.5294 41.1048 13.0028 41.3204L13.4372 38.352ZM13.4372 34.096V31.096C11.7803 31.096 10.4372 32.4391 10.4372 34.096H13.4372ZM16.7172 34.096H19.7172C19.7172 32.4391 18.374 31.096 16.7172 31.096V34.096ZM16.7172 38.832L16.2828 41.8004C17.1451 41.9266 18.0196 41.6716 18.6789 41.1017C19.3382 40.5319 19.7172 39.7035 19.7172 38.832H16.7172ZM11.8372 37.256C11.2398 37.256 10.7513 37.1654 10.3441 37.0183L8.30625 42.6617C9.43506 43.0693 10.6213 43.256 11.8372 43.256V37.256ZM10.3915 37.0359C9.97403 36.8771 9.64653 36.6697 9.37775 36.4212L5.30462 40.8268C6.16651 41.6237 7.16167 42.2269 8.25884 42.6441L10.3915 37.0359ZM9.39859 36.4406C9.14744 36.204 8.94924 35.9249 8.79835 35.5763L3.29202 37.9597C3.7598 39.0404 4.4256 39.9987 5.28378 40.8074L9.39859 36.4406ZM8.79835 35.5763C8.66884 35.2771 8.58119 34.8991 8.58119 34.4H2.58119C2.58119 35.6289 2.80287 36.8296 3.29202 37.9597L8.79835 35.5763ZM8.58119 34.4C8.58119 33.9009 8.66884 33.5229 8.79835 33.2237L3.29202 30.8403C2.80287 31.9704 2.58119 33.1711 2.58119 34.4H8.58119ZM8.79835 33.2237C8.94376 32.8877 9.13866 32.6147 9.39375 32.3788L5.32062 27.9732C4.44505 28.7827 3.76528 29.7469 3.29202 30.8403L8.79835 33.2237ZM9.39375 32.3788C9.64707 32.1446 9.9621 31.9472 10.3761 31.7977L8.33826 26.1543C7.21627 26.5595 6.19797 27.1621 5.32062 27.9732L9.39375 32.3788ZM10.3979 31.7897C10.8065 31.6386 11.3028 31.544 11.9172 31.544V25.544C10.6756 25.544 9.46518 25.7374 8.3165 26.1623L10.3979 31.7897ZM11.9172 31.544C12.6893 31.544 13.2599 31.6733 13.6872 31.8579L16.0671 26.3501C14.7665 25.7881 13.3637 25.544 11.9172 25.544V31.544ZM13.6995 31.8632C14.1564 32.0582 14.473 32.3066 14.7121 32.5998L19.3622 28.8082C18.4707 27.7147 17.3473 26.8965 16.0549 26.3448L13.6995 31.8632ZM15.0543 28.4527L12.6383 30.5807L16.6041 35.0833L19.0201 32.9553L15.0543 28.4527ZM16.8863 30.8649C16.3115 30.2031 15.6155 29.6285 14.7831 29.223L12.1553 34.617C12.1577 34.6181 12.175 34.6267 12.2071 34.6521C12.2399 34.6781 12.2906 34.7237 12.3561 34.7991L16.8863 30.8649ZM14.8664 29.2652C13.9905 28.8042 13.0504 28.6 12.1092 28.6V34.6C12.146 34.6 12.153 34.6038 12.1381 34.6003C12.1311 34.5986 12.1209 34.5957 12.1086 34.5911C12.0962 34.5865 12.0837 34.581 12.0719 34.5748L14.8664 29.2652ZM12.1092 28.6C11.3836 28.6 10.642 28.7122 9.91982 28.983L12.0266 34.601C12.0087 34.6077 12.0026 34.6078 12.0131 34.606C12.0243 34.6042 12.055 34.6 12.1092 34.6V28.6ZM9.89021 28.9943C9.16786 29.2739 8.50966 29.7008 7.95726 30.2783L12.2931 34.4257C12.2558 34.4647 12.2126 34.5009 12.1664 34.5314C12.1206 34.5617 12.0816 34.5799 12.0562 34.5897L9.89021 28.9943ZM7.95726 30.2783C7.42188 30.838 7.03204 31.4857 6.7722 32.1786L12.3902 34.2854C12.3896 34.287 12.3825 34.3051 12.365 34.3335C12.3471 34.3623 12.323 34.3944 12.2931 34.4257L7.95726 30.2783ZM6.7722 32.1786C6.49546 32.9166 6.38919 33.6729 6.38919 34.4H12.3892C12.3892 34.2525 12.4109 34.2301 12.3902 34.2854L6.7722 32.1786ZM6.38919 34.4C6.38919 35.1272 6.50183 35.8623 6.76181 36.5772L12.4006 34.5268C12.4018 34.5301 12.3993 34.5247 12.3964 34.5068C12.3933 34.4885 12.3892 34.454 12.3892 34.4H6.38919ZM6.7722 36.6054C7.03204 37.2983 7.42188 37.946 7.95726 38.5057L12.2931 34.3583C12.323 34.3896 12.3471 34.4217 12.365 34.4505C12.3825 34.4789 12.3896 34.497 12.3902 34.4986L6.7722 36.6054ZM7.95726 38.5057C8.47606 39.048 9.08756 39.4674 9.76437 39.7607L12.15 34.2553C12.1645 34.2616 12.1883 34.2737 12.2168 34.2934C12.2455 34.3133 12.2716 34.3358 12.2931 34.3583L7.95726 38.5057ZM9.87421 39.8057C10.596 40.0851 11.3379 40.2 12.0612 40.2V34.2C12.0164 34.2 11.9958 34.1965 11.9952 34.1964C11.9949 34.1963 11.9991 34.197 12.0071 34.1992C12.0152 34.2015 12.0265 34.205 12.0402 34.2103L9.87421 39.8057ZM12.0612 40.2C12.8196 40.2 13.5636 40.0757 14.2803 39.8305L12.3381 34.1535C12.2441 34.1857 12.1561 34.2 12.0612 34.2V40.2ZM14.3463 39.807C15.1126 39.5247 15.809 39.0978 16.4316 38.6199L12.7787 33.8601C12.4841 34.0862 12.3165 34.1606 12.2721 34.177L14.3463 39.807ZM12.2795 38.135L14.3915 40.727L19.0429 36.937L16.9309 34.345L12.2795 38.135ZM15.0441 36.3419C14.6522 36.6052 14.1705 36.8313 13.571 36.9995L15.1914 42.7765C16.3412 42.454 17.4168 41.9762 18.3903 41.3221L15.0441 36.3419ZM13.571 36.9995C12.9324 37.1786 12.3574 37.256 11.8372 37.256V43.256C12.9597 43.256 14.0806 43.0881 15.1914 42.7765L13.571 36.9995ZM16.4372 38.352V34.096H10.4372V38.352H16.4372ZM13.4372 37.096H16.7172V31.096H13.4372V37.096ZM13.7172 34.096V38.832H19.7172V34.096H13.7172ZM17.1516 35.8636L13.8716 35.3836L13.0028 41.3204L16.2828 41.8004L17.1516 35.8636ZM23.5101 40H20.5101C20.5101 41.6569 21.8532 43 23.5101 43V40ZM23.5101 38.448H26.5101C26.5101 37.8928 26.356 37.3485 26.065 36.8757L23.5101 38.448ZM23.2541 38.032H20.2541C20.2541 38.5872 20.4081 39.1315 20.6991 39.6043L23.2541 38.032ZM22.8541 34.112L20.8785 36.3697C20.8937 36.383 20.909 36.3961 20.9245 36.4091L22.8541 34.112ZM20.3901 33.968L21.2242 36.8497C21.2474 36.843 21.2705 36.836 21.2935 36.8287L20.3901 33.968ZM19.3501 34.464L16.6489 35.7693C17.0377 36.5738 17.7648 37.1632 18.6324 37.3769C19.5 37.5906 20.4177 37.4065 21.1357 36.8747L19.3501 34.464ZM18.1981 32.08L16.6081 29.536C15.3096 30.3475 14.8307 32.0066 15.4969 33.3853L18.1981 32.08ZM20.0381 31.344L20.7349 34.262H20.7349L20.0381 31.344ZM25.6221 32.096L23.7223 34.4179C23.7272 34.4219 23.7321 34.4259 23.7371 34.4298L25.6221 32.096ZM26.8701 40V43C28.5269 43 29.8701 41.6569 29.8701 40H26.8701ZM19.2381 39.792L17.8727 42.4633L19.2381 39.792ZM18.1501 38.816L15.566 40.34C15.5718 40.3498 15.5776 40.3596 15.5836 40.3694L18.1501 38.816ZM18.2141 36L20.6374 37.7684L18.2141 36ZM19.5261 35.104L18.5622 32.2631C18.5569 32.2648 18.5517 32.2666 18.5465 32.2684L19.5261 35.104ZM23.6061 34.8H26.6061C26.6061 33.1431 25.2629 31.8 23.6061 31.8V34.8ZM23.6061 36.544V39.544C25.2629 39.544 26.6061 38.2009 26.6061 36.544H23.6061ZM21.5101 36.736L23.2097 39.2081C23.2198 39.2011 23.23 39.194 23.2401 39.1869L21.5101 36.736ZM21.4781 37.792L19.4367 39.9904C19.4907 40.0405 19.5465 40.0886 19.604 40.1346L21.4781 37.792ZM22.7901 37.792L24.392 40.3285C24.4031 40.3215 24.4141 40.3144 24.425 40.3073L22.7901 37.792ZM23.2541 37.152L26.0072 35.9603C25.5133 34.8191 24.3664 34.1009 23.124 34.1548C21.8816 34.2087 20.8013 35.0236 20.408 36.2033L23.2541 37.152ZM23.7181 38.224L26.6522 38.8493C26.7821 38.2396 26.7189 37.6045 26.4712 37.0323L23.7181 38.224ZM22.8381 39.68L21.0943 37.2388L22.8381 39.68ZM26.5101 40V38.448H20.5101V40H26.5101ZM26.065 36.8757L25.809 36.4597L20.6991 39.6043L20.9551 40.0203L26.065 36.8757ZM26.2541 38.032V35.088H20.2541V38.032H26.2541ZM26.2541 35.088C26.2541 33.9934 25.88 32.7358 24.7836 31.8149L20.9245 36.4091C20.6823 36.2057 20.4938 35.9438 20.3781 35.6617C20.2689 35.3951 20.2541 35.1837 20.2541 35.088H26.2541ZM24.8296 31.8543C23.7494 30.9091 22.4221 30.776 21.5901 30.776V36.776C21.7066 36.776 21.6857 36.7886 21.5754 36.7593C21.462 36.7292 21.1811 36.6345 20.8785 36.3697L24.8296 31.8543ZM21.5901 30.776C20.8662 30.776 20.1618 30.8941 19.4867 31.1073L21.2935 36.8287C21.429 36.7859 21.5246 36.776 21.5901 36.776V30.776ZM19.5559 31.0863C18.8674 31.2856 18.1849 31.5937 17.5644 32.0533L21.1357 36.8747C21.0912 36.9076 21.1021 36.8851 21.2242 36.8497L19.5559 31.0863ZM22.0512 33.1587L20.8992 30.7747L15.4969 33.3853L16.6489 35.7693L22.0512 33.1587ZM19.7881 34.624C19.9722 34.5089 20.2701 34.373 20.7349 34.262L19.3412 28.426C18.3767 28.6564 17.4479 29.0111 16.6081 29.536L19.7881 34.624ZM20.7349 34.262C21.2386 34.1417 21.7032 34.088 22.1341 34.088V28.088C21.1996 28.088 20.2669 28.205 19.3412 28.426L20.7349 34.262ZM22.1341 34.088C23.2293 34.088 23.6217 34.3355 23.7223 34.4179L27.5218 29.7741C25.9797 28.5125 24.0469 28.088 22.1341 28.088V34.088ZM23.7371 34.4298C23.7373 34.4301 23.7359 34.4289 23.7337 34.4266C23.7316 34.4243 23.7306 34.4229 23.7309 34.4234C23.7313 34.4239 23.7345 34.4284 23.7397 34.4382C23.7451 34.4481 23.7533 34.4649 23.7631 34.49C23.8039 34.5946 23.8701 34.8397 23.8701 35.296H29.8701C29.8701 33.2805 29.279 31.1933 27.5071 29.7622L23.7371 34.4298ZM23.8701 35.296V40H29.8701V35.296H23.8701ZM26.8701 37H23.5101V43H26.8701V37ZM21.0301 37.16C20.6417 37.16 20.5459 37.0913 20.6034 37.1207L17.8727 42.4633C18.8902 42.9834 19.9891 43.16 21.0301 43.16V37.16ZM20.6034 37.1207C20.5699 37.1036 20.5786 37.1033 20.6093 37.1309C20.6419 37.1601 20.6817 37.205 20.7166 37.2626L15.5836 40.3694C16.1558 41.3148 16.9662 42 17.8727 42.4633L20.6034 37.1207ZM20.7342 37.292C20.7472 37.3142 20.7621 37.347 20.7722 37.3849C20.7822 37.4221 20.7821 37.4436 20.7821 37.44H14.7821C14.7821 38.456 15.0377 39.4442 15.566 40.34L20.7342 37.292ZM20.7821 37.44C20.7821 37.4125 20.7854 37.4452 20.7635 37.518C20.7405 37.595 20.6989 37.6842 20.6374 37.7684L15.7907 34.2316C15.0712 35.2175 14.7821 36.3425 14.7821 37.44H20.7821ZM20.6374 37.7684C20.5635 37.8697 20.49 37.93 20.4499 37.9574C20.4142 37.9818 20.4225 37.9683 20.5056 37.9396L18.5465 32.2684C17.5376 32.617 16.5265 33.2233 15.7907 34.2316L20.6374 37.7684ZM20.49 37.9449C20.6734 37.8827 21.0725 37.8 21.7821 37.8V31.8C20.6783 31.8 19.5734 31.92 18.5622 32.2631L20.49 37.9449ZM21.7821 37.8H23.6061V31.8H21.7821V37.8ZM20.6061 34.8V36.544H26.6061V34.8H20.6061ZM23.6061 33.544H22.3581V39.544H23.6061V33.544ZM22.3581 33.544C21.7568 33.544 20.7187 33.6225 19.78 34.2851L23.2401 39.1869C22.9276 39.4075 22.6511 39.4884 22.5205 39.5179C22.3874 39.5481 22.3217 39.544 22.3581 39.544V33.544ZM19.8105 34.2639C18.6674 35.0498 18.2541 36.2559 18.2541 37.28H24.2541C24.2541 37.502 24.2152 37.8491 24.0325 38.2374C23.841 38.6444 23.5472 38.9761 23.2097 39.2081L19.8105 34.2639ZM18.2541 37.28C18.2541 38.3221 18.6799 39.2876 19.4367 39.9904L23.5194 35.5936C23.7177 35.7777 23.916 36.0318 24.0585 36.3575C24.2012 36.6837 24.2541 37.0042 24.2541 37.28H18.2541ZM19.604 40.1346C20.4379 40.8017 21.3775 40.984 22.1181 40.984V34.984C22.3253 34.984 22.8382 35.0383 23.3521 35.4494L19.604 40.1346ZM22.1181 40.984C22.9164 40.984 23.6982 40.7667 24.392 40.3285L21.1881 35.2555C21.4766 35.0733 21.8104 34.984 22.1181 34.984V40.984ZM24.425 40.3073C25.3123 39.7306 25.8324 38.9038 26.1001 38.1007L20.408 36.2033C20.4837 35.9762 20.6945 35.576 21.1551 35.2767L24.425 40.3073ZM20.5009 38.3437L20.9649 39.4157L26.4712 37.0323L26.0072 35.9603L20.5009 38.3437ZM20.784 37.5987C20.7725 37.6523 20.7732 37.6125 20.8266 37.5242C20.8846 37.4282 20.976 37.3233 21.0943 37.2388L24.5818 42.1212C25.7612 41.2788 26.3916 40.0718 26.6522 38.8493L20.784 37.5987ZM21.0943 37.2388C21.1459 37.202 21.1918 37.1771 21.2264 37.1613C21.2606 37.1457 21.2803 37.1404 21.2803 37.1404C21.2799 37.1405 21.2606 37.1456 21.2185 37.1505C21.1763 37.1555 21.1144 37.16 21.0301 37.16V43.16C22.1833 43.16 23.4657 42.9184 24.5818 42.1212L21.0943 37.2388ZM41.7928 31.504L40.3867 34.154C40.408 34.1654 40.4295 34.1765 40.4512 34.1873L41.7928 31.504ZM43.0408 32.768L40.3775 34.149C40.3842 34.1618 40.391 34.1746 40.3978 34.1874L43.0408 32.768ZM43.5048 40V43C45.1617 43 46.5048 41.6569 46.5048 40H43.5048ZM39.8888 40H36.8888C36.8888 41.6569 38.232 43 39.8888 43V40ZM39.6168 34.48L37.243 36.3143C37.2568 36.3322 37.2708 36.35 37.2851 36.3676L39.6168 34.48ZM38.3368 34.288L36.7468 31.744L36.7468 31.744L38.3368 34.288ZM37.9208 34.8L35.1897 33.5586C35.1807 33.5784 35.1719 33.5983 35.1634 33.6182L37.9208 34.8ZM37.7768 40V43C39.4337 43 40.7768 41.6569 40.7768 40H37.7768ZM34.1608 40H31.1608C31.1608 41.6569 32.504 43 34.1608 43V40ZM33.9048 34.48L31.4786 36.2445C31.4917 36.2625 31.505 36.2804 31.5185 36.2981L33.9048 34.48ZM32.6088 34.288L31.0188 31.744L31.0188 31.744L32.6088 34.288ZM32.1928 34.8L29.4617 33.5586C29.4527 33.5784 29.4439 33.5983 29.4354 33.6182L32.1928 34.8ZM32.0488 40V43C33.7057 43 35.0488 41.6569 35.0488 40H32.0488ZM28.4328 40H25.4328C25.4328 41.6569 26.776 43 28.4328 43V40ZM28.4328 31.248V28.248C26.776 28.248 25.4328 29.5911 25.4328 31.248H28.4328ZM31.8728 31.248H34.8728C34.8728 29.5911 33.5297 28.248 31.8728 28.248V31.248ZM31.8728 33.76L29.7515 35.8813C30.6095 36.7393 31.8998 36.996 33.0209 36.5316C34.1419 36.0673 34.8728 34.9734 34.8728 33.76H31.8728ZM31.1688 33.056L28.4855 31.7144C27.908 32.8693 28.1344 34.2642 29.0475 35.1773L31.1688 33.056ZM32.4968 31.584L33.996 34.1826C34.0084 34.1754 34.0207 34.1682 34.033 34.1608L32.4968 31.584ZM36.3848 31.696L34.6795 34.1642C34.6966 34.176 34.7137 34.1876 34.731 34.199L36.3848 31.696ZM37.5848 33.584L37.1125 36.5466C38.0998 36.704 39.1005 36.3592 39.7814 35.6273C40.4623 34.8953 40.7338 33.8722 40.5055 32.8989L37.5848 33.584ZM36.4808 33.408L33.7361 32.1971C33.3605 33.0483 33.4012 34.0255 33.8461 34.8426C34.291 35.6597 35.0898 36.2241 36.0085 36.3706L36.4808 33.408ZM37.8728 31.712L39.5369 34.2082L39.5468 34.2015L37.8728 31.712ZM40.0168 34.088C40.2465 34.088 40.346 34.1325 40.3867 34.154L43.199 28.854C42.1943 28.3208 41.1098 28.088 40.0168 28.088V34.088ZM40.4512 34.1873C40.4407 34.1821 40.4264 34.1738 40.4104 34.1622C40.3943 34.1505 40.3806 34.1385 40.37 34.1278C40.3471 34.1046 40.3537 34.1029 40.3775 34.149L45.7041 31.387C45.1407 30.3005 44.2854 29.3962 43.1345 28.8207L40.4512 34.1873ZM40.3978 34.1874C40.3974 34.1867 40.5048 34.3976 40.5048 35.008H46.5048C46.5048 33.7838 46.3029 32.5013 45.6838 31.3486L40.3978 34.1874ZM40.5048 35.008V40H46.5048V35.008H40.5048ZM43.5048 37H39.8888V43H43.5048V37ZM42.8888 40V35.632H36.8888V40H42.8888ZM42.8888 35.632C42.8888 34.9302 42.8068 33.6526 41.9485 32.5924L37.2851 36.3676C37.0077 36.025 36.9232 35.719 36.9011 35.6254C36.8773 35.5246 36.8888 35.5115 36.8888 35.632H42.8888ZM41.9907 32.6457C41.261 31.7014 40.1617 31.128 38.9128 31.128V37.128C38.6373 37.128 38.3019 37.0686 37.9632 36.8993C37.6272 36.7313 37.392 36.5072 37.243 36.3143L41.9907 32.6457ZM38.9128 31.128C38.1725 31.128 37.4233 31.3212 36.7468 31.744L39.9268 36.832C39.5916 37.0415 39.2265 37.128 38.9128 37.128V31.128ZM36.7468 31.744C35.9527 32.2403 35.4724 32.9367 35.1897 33.5586L40.6519 36.0414C40.5826 36.1939 40.3796 36.549 39.9268 36.832L36.7468 31.744ZM35.1634 33.6182C34.8386 34.3761 34.7768 35.1484 34.7768 35.728H40.7768C40.7768 35.6469 40.7821 35.6292 40.7773 35.66C40.7731 35.6872 40.7526 35.8082 40.6782 35.9818L35.1634 33.6182ZM34.7768 35.728V40H40.7768V35.728H34.7768ZM37.7768 37H34.1608V43H37.7768V37ZM37.1608 40V35.632H31.1608V40H37.1608ZM37.1608 35.632C37.1608 34.9528 37.0895 33.7098 36.2911 32.6619L31.5185 36.2981C31.258 35.9562 31.1848 35.6612 31.1683 35.5868C31.1493 35.5014 31.1608 35.5022 31.1608 35.632H37.1608ZM36.331 32.7155C35.5535 31.6464 34.3797 31.128 33.1848 31.128V37.128C32.9548 37.128 32.6296 37.0825 32.2792 36.9112C31.922 36.7365 31.6559 36.4883 31.4786 36.2445L36.331 32.7155ZM33.1848 31.128C32.4445 31.128 31.6953 31.3212 31.0188 31.744L34.1988 36.832C33.8636 37.0415 33.4985 37.128 33.1848 37.128V31.128ZM31.0188 31.744C30.2247 32.2403 29.7444 32.9367 29.4617 33.5586L34.9239 36.0414C34.8546 36.1939 34.6516 36.549 34.1988 36.832L31.0188 31.744ZM29.4354 33.6182C29.1106 34.3761 29.0488 35.1484 29.0488 35.728H35.0488C35.0488 35.6469 35.0541 35.6292 35.0493 35.66C35.0451 35.6872 35.0246 35.8082 34.9502 35.9818L29.4354 33.6182ZM29.0488 35.728V40H35.0488V35.728H29.0488ZM32.0488 37H28.4328V43H32.0488V37ZM31.4328 40V31.248H25.4328V40H31.4328ZM28.4328 34.248H31.8728V28.248H28.4328V34.248ZM28.8728 31.248V33.76H34.8728V31.248H28.8728ZM33.9941 31.6387L33.2901 30.9347L29.0475 35.1773L29.7515 35.8813L33.9941 31.6387ZM33.8521 34.3976C33.9105 34.2808 33.9564 34.2236 33.9763 34.2016C33.9865 34.1903 33.9925 34.1852 33.9941 34.184C33.9955 34.1828 33.9958 34.1827 33.996 34.1826L30.9976 28.9854C29.8584 29.6427 29.0375 30.6105 28.4855 31.7144L33.8521 34.3976ZM34.033 34.1608C34.0962 34.1232 34.1788 34.088 34.3528 34.088V28.088C33.1615 28.088 32.0067 28.3835 30.9606 29.0072L34.033 34.1608ZM34.3528 34.088C34.5609 34.088 34.6332 34.1322 34.6795 34.1642L38.0901 29.2278C36.9631 28.4491 35.6807 28.088 34.3528 28.088V34.088ZM34.731 34.199C34.7014 34.1794 34.6722 34.1554 34.6467 34.1292C34.6214 34.1032 34.6068 34.0824 34.6009 34.0732C34.5898 34.0557 34.6254 34.1042 34.6641 34.2691L40.5055 32.8989C40.172 31.4769 39.4191 30.1051 38.0386 29.193L34.731 34.199ZM38.0571 30.6214L36.9531 30.4454L36.0085 36.3706L37.1125 36.5466L38.0571 30.6214ZM39.2256 34.6189C39.3354 34.3699 39.4445 34.2698 39.5369 34.2082L36.2087 29.2158C35.0852 29.9649 34.2662 30.9954 33.7361 32.1971L39.2256 34.6189ZM39.5468 34.2015C39.6272 34.1474 39.748 34.088 40.0168 34.088V28.088C38.6643 28.088 37.3557 28.4446 36.1988 29.2225L39.5468 34.2015ZM47.2617 39.568L45.92 42.2513C45.9248 42.2537 45.9296 42.2561 45.9344 42.2584L47.2617 39.568ZM45.4217 37.952L42.8843 39.5525C42.888 39.5584 42.8918 39.5644 42.8956 39.5703L45.4217 37.952ZM45.4057 33.264L42.8796 31.6457C42.8736 31.6551 42.8676 31.6645 42.8617 31.674L45.4057 33.264ZM47.1817 31.664L45.825 28.9883C45.8199 28.9909 45.8148 28.9935 45.8096 28.9961L47.1817 31.664ZM52.1097 31.6L50.8323 34.3145C50.8374 34.3168 50.8424 34.3192 50.8475 34.3216L52.1097 31.6ZM53.8697 33.12L51.3553 34.7564C51.3613 34.7656 51.3674 34.7749 51.3735 34.7841L53.8697 33.12ZM54.5257 36.048L57.5181 36.2617C57.5184 36.257 57.5187 36.2523 57.519 36.2476L54.5257 36.048ZM54.4937 36.464V39.464C56.0539 39.464 57.3537 38.268 57.4833 36.7131L54.4937 36.464ZM47.7577 36.464H44.7577C44.7577 38.1209 46.1008 39.464 47.7577 39.464V36.464ZM47.7577 34.72V31.72C46.1008 31.72 44.7577 33.0631 44.7577 34.72H47.7577ZM52.5737 34.72L53.5424 37.5593C54.9312 37.0855 55.7734 35.6766 55.5332 34.229C55.2931 32.7814 54.0411 31.72 52.5737 31.72V34.72ZM51.2137 35.184H48.2137C48.2137 36.1521 48.6808 37.0606 49.4681 37.6239C50.2555 38.1872 51.2662 38.3359 52.1824 38.0233L51.2137 35.184ZM51.0217 34.32L48.3153 35.6144C48.3383 35.6624 48.3625 35.7098 48.388 35.7566L51.0217 34.32ZM50.5257 33.76L48.8907 36.2753C48.9209 36.2949 48.9514 36.314 48.9822 36.3325L50.5257 33.76ZM48.9737 33.76L50.5172 36.3325C50.5291 36.3253 50.5409 36.3181 50.5528 36.3108L48.9737 33.76ZM48.4777 34.32L51.161 35.6616C51.1688 35.6459 51.1765 35.6302 51.1841 35.6144L48.4777 34.32ZM48.5257 36.688L51.1432 35.2222L51.1432 35.2222L48.5257 36.688ZM49.1657 37.296L47.824 39.9793C47.852 39.9933 47.8801 40.0068 47.9085 40.0199L49.1657 37.296ZM51.1657 37.328L50.0515 34.5426C50.0383 34.5479 50.025 34.5533 50.0118 34.5588L51.1657 37.328ZM51.9977 36.848L54.1279 34.7356C53.0781 33.6769 51.4101 33.5499 50.212 34.4373L51.9977 36.848ZM53.8857 38.752L56.0822 40.7953C57.1787 39.6167 57.1494 37.7827 56.0159 36.6396L53.8857 38.752ZM52.3017 39.808L53.3657 42.613C53.3742 42.6097 53.3828 42.6065 53.3913 42.6031L52.3017 39.808ZM50.0617 37.16C49.3661 37.16 48.903 37.0325 48.589 36.8776L45.9344 42.2584C47.2204 42.8928 48.6239 43.16 50.0617 43.16V37.16ZM48.6033 36.8847C48.2533 36.7097 48.0679 36.5212 47.9478 36.3337L42.8956 39.5703C43.6501 40.7481 44.6914 41.6369 45.92 42.2513L48.6033 36.8847ZM47.9591 36.3515C47.8406 36.1637 47.7657 35.9456 47.7657 35.616H41.7657C41.7657 37.0144 42.1281 38.3536 42.8843 39.5525L47.9591 36.3515ZM47.7657 35.616C47.7657 35.2349 47.8503 35.0129 47.9497 34.854L42.8617 31.674C42.1077 32.8804 41.7657 34.2264 41.7657 35.616H47.7657ZM47.9318 34.8823C48.0733 34.6614 48.2601 34.4829 48.5537 34.3319L45.8096 28.9961C44.61 29.6131 43.6128 30.5013 42.8796 31.6457L47.9318 34.8823ZM48.5384 34.3397C48.8324 34.1906 49.208 34.088 49.7257 34.088V28.088C48.3661 28.088 47.0456 28.3694 45.825 28.9883L48.5384 34.3397ZM49.7257 34.088C50.183 34.088 50.537 34.1755 50.8323 34.3145L53.3871 28.8855C52.2317 28.3418 50.9964 28.088 49.7257 28.088V34.088ZM50.8475 34.3216C51.0789 34.4289 51.229 34.5624 51.3553 34.7564L56.3841 31.4836C55.6357 30.3336 54.6125 29.4538 53.3719 28.8784L50.8475 34.3216ZM51.3735 34.7841C51.4248 34.861 51.5417 35.0801 51.5417 35.616H57.5417C57.5417 34.1679 57.2106 32.723 56.3658 31.4559L51.3735 34.7841ZM51.5417 35.616C51.5417 35.6633 51.5396 35.7391 51.5323 35.8484L57.519 36.2476C57.5331 36.0369 57.5417 35.8247 57.5417 35.616H51.5417ZM51.5333 35.8343C51.5234 35.9737 51.5136 36.1004 51.5041 36.2149L57.4833 36.7131C57.4951 36.5716 57.5067 36.421 57.5181 36.2617L51.5333 35.8343ZM54.4937 33.464H47.7577V39.464H54.4937V33.464ZM50.7577 36.464V34.72H44.7577V36.464H50.7577ZM47.7577 37.72H52.5737V31.72H47.7577V37.72ZM51.605 31.8807L50.245 32.3447L52.1824 38.0233L53.5424 37.5593L51.605 31.8807ZM54.2137 35.184C54.2137 34.4765 54.0813 33.6643 53.6554 32.8834L48.388 35.7566C48.2181 35.445 48.2137 35.2089 48.2137 35.184H54.2137ZM53.7281 33.0256C53.3815 32.3009 52.834 31.6464 52.0692 31.1875L48.9822 36.3325C48.6441 36.1296 48.4272 35.8484 48.3153 35.6144L53.7281 33.0256ZM52.1607 31.2447C51.3811 30.738 50.5339 30.552 49.7577 30.552V36.552C49.5788 36.552 49.2436 36.5047 48.8907 36.2753L52.1607 31.2447ZM49.7577 30.552C48.9776 30.552 48.154 30.7391 47.3946 31.2092L50.5528 36.3108C50.2414 36.5036 49.9405 36.552 49.7577 36.552V30.552ZM47.4302 31.1875C46.6654 31.6464 46.1179 32.3009 45.7713 33.0256L51.1841 35.6144C51.0722 35.8484 50.8553 36.1296 50.5172 36.3325L47.4302 31.1875ZM45.7944 32.9784C45.4158 33.7356 45.3017 34.5121 45.3017 35.184H51.3017C51.3017 35.1843 51.3017 35.1956 51.2997 35.2165C51.2978 35.2374 51.2938 35.2694 51.2853 35.3108C51.2683 35.3941 51.2331 35.5174 51.161 35.6616L45.7944 32.9784ZM45.3017 35.184V35.728H51.3017V35.184H45.3017ZM45.3017 35.728C45.3017 36.5017 45.4581 37.3502 45.9082 38.1538L51.1432 35.2222C51.2946 35.4925 51.3017 35.7009 51.3017 35.728H45.3017ZM45.9082 38.1538C46.3557 38.953 47.0174 39.5759 47.824 39.9793L50.5073 34.6127C50.6197 34.6689 50.7442 34.7513 50.8639 34.865C50.9839 34.979 51.0765 35.103 51.1432 35.2222L45.9082 38.1538ZM47.9085 40.0199C48.6774 40.3747 49.4668 40.488 50.1737 40.488V34.488C50.0912 34.488 50.2086 34.4733 50.4229 34.5721L47.9085 40.0199ZM50.1737 40.488C50.8079 40.488 51.57 40.4095 52.3195 40.0972L50.0118 34.5588C50.1402 34.5053 50.2274 34.4896 50.248 34.4863C50.2694 34.4828 50.2484 34.488 50.1737 34.488V40.488ZM52.2799 40.1134C52.8359 39.891 53.3373 39.5891 53.7834 39.2587L50.212 34.4373C50.0821 34.5335 50.0288 34.5517 50.0515 34.5426L52.2799 40.1134ZM49.8674 38.9604L51.7554 40.8644L56.0159 36.6396L54.1279 34.7356L49.8674 38.9604ZM51.6891 36.7087C51.5938 36.8112 51.4541 36.9185 51.2121 37.0129L53.3913 42.6031C54.408 42.2068 55.3243 41.6101 56.0822 40.7953L51.6891 36.7087ZM51.2377 37.003C51.0489 37.0746 50.6833 37.16 50.0617 37.16V43.16C51.1894 43.16 52.3172 43.0107 53.3657 42.613L51.2377 37.003Z" fill="#4B371F" mask="url(#path-3-outside-1_28641_17191)"/>
</svg>
