<svg width="60" height="48" viewBox="0 0 60 48" fill="none" xmlns="http://www.w3.org/2000/svg">
  <mask id="path-1-outside-1_28641_17198" maskUnits="userSpaceOnUse" x="13" y="5" width="37" height="32" fill="black">
    <rect fill="white" x="13" y="5" width="37" height="32"/>
    <path fill-rule="evenodd" clip-rule="evenodd" d="M17.8333 7H45.0496V8.02051H45.7327C45.8921 8.02053 46.0465 8.07635 46.1692 8.17828C46.2918 8.28021 46.3748 8.42183 46.404 8.5786L47.528 14.624L47.5311 14.6429L47.5333 14.6577C47.5459 14.7507 47.824 16.9419 46.5693 18.402V34.3171C46.5693 34.4983 46.4974 34.672 46.3693 34.8C46.2412 34.9281 46.0675 35.0001 45.8864 35.0001H17.1507C16.9696 35.0001 16.7959 34.9281 16.6678 34.8C16.5397 34.672 16.4678 34.4983 16.4678 34.3171V18.4342C15.5176 17.751 15 16.4875 15 14.7488C15 14.6945 15.0064 14.6404 15.0193 14.5877L16.4874 8.54226C16.5235 8.39349 16.6086 8.26118 16.729 8.16656C16.8491 8.07208 16.9975 8.02066 17.1504 8.02051L17.1511 8.02051H17.1511H17.8333V7Z"/>
  </mask>
  <path fill-rule="evenodd" clip-rule="evenodd" d="M17.8333 7H45.0496V8.02051H45.7327C45.8921 8.02053 46.0465 8.07635 46.1692 8.17828C46.2918 8.28021 46.3748 8.42183 46.404 8.5786L47.528 14.624L47.5311 14.6429L47.5333 14.6577C47.5459 14.7507 47.824 16.9419 46.5693 18.402V34.3171C46.5693 34.4983 46.4974 34.672 46.3693 34.8C46.2412 34.9281 46.0675 35.0001 45.8864 35.0001H17.1507C16.9696 35.0001 16.7959 34.9281 16.6678 34.8C16.5397 34.672 16.4678 34.4983 16.4678 34.3171V18.4342C15.5176 17.751 15 16.4875 15 14.7488C15 14.6945 15.0064 14.6404 15.0193 14.5877L16.4874 8.54226C16.5235 8.39349 16.6086 8.26118 16.729 8.16656C16.8491 8.07208 16.9975 8.02066 17.1504 8.02051L17.1511 8.02051H17.1511H17.8333V7Z" fill="#4B371F"/>
  <path d="M45.0496 7H47.0496C47.0496 5.89543 46.1542 5 45.0496 5V7ZM17.8333 7V5C16.7287 5 15.8333 5.89543 15.8333 7H17.8333ZM45.0496 8.02051H43.0496C43.0496 9.12508 43.945 10.0205 45.0496 10.0205V8.02051ZM45.7327 8.02051L45.733 6.02051H45.7327V8.02051ZM46.1692 8.17828L44.8906 9.71623L44.8906 9.71624L46.1692 8.17828ZM46.404 8.5786L48.3703 8.21302L48.3703 8.21299L46.404 8.5786ZM47.528 14.624L49.5009 14.296C49.4988 14.2835 49.4966 14.2709 49.4943 14.2584L47.528 14.624ZM47.5311 14.6429L49.5098 14.3518C49.508 14.3395 49.5061 14.3272 49.504 14.315L47.5311 14.6429ZM47.5333 14.6577L49.515 14.3883C49.5141 14.3811 49.513 14.3738 49.512 14.3666L47.5333 14.6577ZM46.5693 18.402L45.0524 17.0985C44.7407 17.4612 44.5693 17.9237 44.5693 18.402H46.5693ZM16.6678 34.8L18.082 33.3858L18.082 33.3858L16.6678 34.8ZM16.4678 18.4342H18.4678C18.4678 17.7905 18.158 17.1861 17.6353 16.8103L16.4678 18.4342ZM15 14.7488H17L17 14.7478L15 14.7488ZM15.0193 14.5877L16.9627 15.0599L16.9628 15.0597L15.0193 14.5877ZM16.4874 8.54226L14.5439 8.07026L14.5439 8.07027L16.4874 8.54226ZM16.729 8.16656L15.4929 6.59427L15.4929 6.59427L16.729 8.16656ZM17.1504 8.02051L17.1508 6.02051L17.1485 6.02051L17.1504 8.02051ZM17.1511 8.02051L17.1507 10.0205H17.1511V8.02051ZM17.8333 8.02051V10.0205C18.9379 10.0205 19.8333 9.12508 19.8333 8.02051H17.8333ZM45.0496 5H17.8333V9H45.0496V5ZM47.0496 8.02051V7H43.0496V8.02051H47.0496ZM45.7327 6.02051H45.0496V10.0205H45.7327V6.02051ZM47.4477 6.64033C46.966 6.23987 46.3594 6.0206 45.733 6.02051L45.7324 10.0205C45.4249 10.0205 45.1271 9.91282 44.8906 9.71623L47.4477 6.64033ZM48.3703 8.21299C48.2558 7.59716 47.9294 7.04078 47.4477 6.64032L44.8906 9.71624C44.6541 9.51964 44.4939 9.24651 44.4377 8.94421L48.3703 8.21299ZM49.4943 14.2584L48.3703 8.21302L44.4377 8.94417L45.5617 14.9896L49.4943 14.2584ZM49.504 14.315L49.5009 14.296L45.555 14.952L45.5582 14.9709L49.504 14.315ZM49.512 14.3666L49.5098 14.3518L45.5524 14.934L45.5546 14.9489L49.512 14.3666ZM48.0862 19.7054C49.0767 18.5528 49.404 17.1929 49.5133 16.2468C49.6249 15.2808 49.5343 14.5299 49.515 14.3883L45.5515 14.9272C45.5449 14.8785 45.5996 15.2697 45.5398 15.7876C45.4776 16.3253 45.3166 16.7911 45.0524 17.0985L48.0862 19.7054ZM48.5693 34.3171V18.402H44.5693V34.3171H48.5693ZM47.7835 36.2143C48.2866 35.7111 48.5693 35.0287 48.5693 34.3171H44.5693C44.5693 33.9678 44.7081 33.6328 44.9551 33.3858L47.7835 36.2143ZM45.8864 37.0001C46.5979 37.0001 47.2803 36.7174 47.7835 36.2143L44.9551 33.3858C45.2021 33.1388 45.5371 33.0001 45.8864 33.0001V37.0001ZM17.1507 37.0001H45.8864V33.0001H17.1507V37.0001ZM15.2536 36.2143C15.7567 36.7174 16.4392 37.0001 17.1507 37.0001V33.0001C17.5 33.0001 17.835 33.1388 18.082 33.3858L15.2536 36.2143ZM14.4678 34.3171C14.4678 35.0287 14.7504 35.7111 15.2536 36.2143L18.082 33.3858C18.329 33.6328 18.4678 33.9678 18.4678 34.3171H14.4678ZM14.4678 18.4342V34.3171H18.4678V18.4342H14.4678ZM13 14.7488C13 16.8306 13.6236 18.8525 15.3002 20.058L17.6353 16.8103C17.4116 16.6495 17 16.1445 17 14.7488H13ZM13.0758 14.1154C13.0253 14.3231 12.9999 14.5361 13 14.7499L17 14.7478C17.0001 14.853 16.9875 14.9577 16.9627 15.0599L13.0758 14.1154ZM14.5439 8.07027L13.0758 14.1157L16.9628 15.0597L18.4309 9.01425L14.5439 8.07027ZM15.4929 6.59427C15.0201 6.96599 14.6859 7.4858 14.5439 8.07026L18.4309 9.01426C18.3612 9.30118 18.1972 9.55636 17.9651 9.73884L15.4929 6.59427ZM17.1485 6.02051C16.548 6.02109 15.965 6.22311 15.4929 6.59427L17.9651 9.73884C17.7333 9.92105 17.4471 10.0202 17.1523 10.0205L17.1485 6.02051ZM17.1514 6.02051L17.1508 6.02051L17.15 10.0205H17.1507L17.1514 6.02051ZM17.1511 6.02051H17.1511V10.0205H17.1511V6.02051ZM17.8333 6.02051H17.1511V10.0205H17.8333V6.02051ZM15.8333 7V8.02051H19.8333V7H15.8333Z" fill="#4B371F" mask="url(#path-1-outside-1_28641_17198)"/>
  <path d="M45.8863 12.6699V33.3171H17.1506V12.6699" fill="#8A8A8A"/>
  <path d="M45.2037 12.6699V33.3171C45.2037 33.136 45.2756 32.9623 45.4037 32.8342C45.5318 32.7062 45.7055 32.6342 45.8866 32.6342H17.1509C17.3321 32.6342 17.5058 32.7062 17.6338 32.8342C17.7619 32.9623 17.8339 33.136 17.8339 33.3171V12.6699H16.468V33.3171C16.468 33.4983 16.54 33.672 16.668 33.8C16.7961 33.9281 16.9698 34.0001 17.1509 34.0001H45.8866C46.0677 34.0001 46.2414 33.9281 46.3695 33.8C46.4976 33.672 46.5695 33.4983 46.5695 33.3171V12.6699H45.2037Z" fill="#4B371F"/>
  <path opacity="0.15" d="M46.0412 15.9972L45.9303 15.3997C45.6678 16.4555 44.9343 17.6185 42.9703 17.6185C39.0529 17.6185 38.858 14.614 38.8687 13.8798C38.818 14.614 38.4018 17.6185 34.9955 17.6185C31.0535 17.6185 30.8864 14.5183 30.8962 13.8477C30.8589 14.5184 30.5125 17.6185 27.3052 17.6185C23.4583 17.6185 23.2077 14.6498 23.2062 13.8931C23.1108 15.6474 21.5872 17.0421 19.7219 17.0421C18.3657 17.0421 17.6455 16.3047 17.3375 15.2283L17.1506 15.9974C17.1506 17.8328 17.7949 19.3206 19.7217 19.3206C21.5871 19.3206 23.1107 17.926 23.206 16.1717C23.2075 16.9285 23.4582 19.8972 27.3051 19.8972C30.5122 19.8972 30.8588 16.7969 30.8961 16.1262C30.8862 16.7969 31.0533 19.8972 34.9954 19.8972C38.4018 19.8972 38.818 16.8926 38.8687 16.1583C38.8582 16.8926 39.0532 19.8972 42.9703 19.8972C43.3255 19.8972 43.6389 19.858 43.918 19.7894V31.1092H17.8333V32.7708H45.2031V19.0688C46.2988 17.9241 46.0412 15.9972 46.0412 15.9972Z" fill="#4B371F"/>
  <path d="M22.2223 13.7495C22.2223 15.73 20.5365 17.3353 18.4574 17.3353C16.3783 17.3353 15.6831 15.7299 15.6831 13.7495L17.1513 7.7041H22.9906L22.2223 13.7495Z" fill="#8A8A8A"/>
  <path d="M21.5392 13.7488C21.5392 15.3495 20.1566 16.6517 18.4573 16.6517C17.94 16.6517 16.3659 16.6517 16.3659 13.7488C16.3659 13.8029 16.3594 13.8572 16.3466 13.91L17.8148 7.86461C17.7786 8.01338 17.6936 8.14569 17.5732 8.24031C17.4528 8.33493 17.3042 8.38637 17.1511 8.38636H22.9904C22.8934 8.38641 22.7975 8.36579 22.7092 8.32588C22.6208 8.28598 22.5419 8.2277 22.4778 8.15493C22.4137 8.08216 22.3659 7.99657 22.3374 7.90386C22.309 7.81115 22.3006 7.71344 22.3129 7.61725L21.5446 13.6627C21.5409 13.6912 21.5392 13.72 21.5392 13.7488ZM22.9904 7.02051H17.1511C16.998 7.0205 16.8493 7.07194 16.729 7.16656C16.6086 7.26118 16.5235 7.39349 16.4874 7.54226L15.0193 13.5877C15.0064 13.6404 15 13.6945 15 13.7488C15 16.4617 16.2601 18.0176 18.4573 18.0176C20.9098 18.0176 22.905 16.1026 22.905 13.7488C22.905 13.7777 22.9032 13.8063 22.8996 13.8349L23.6679 7.78948C23.6801 7.6933 23.6718 7.5956 23.6433 7.50289C23.6149 7.41019 23.5671 7.32461 23.503 7.25185C23.4389 7.17909 23.36 7.12082 23.2716 7.08093C23.1832 7.04104 23.0874 7.02044 22.9904 7.02051Z" fill="#4B371F"/>
  <path d="M22.9909 7.7041L22.2226 13.7495C22.2226 13.7495 21.8834 17.9574 26.6404 17.9574C30.5204 17.9574 30.5205 13.7495 30.5205 13.7495V7.7041" fill="#8A8A8A"/>
  <path d="M22.3131 7.61621L21.5448 13.6616C21.5434 13.672 21.5423 13.6824 21.5415 13.6929C21.5348 13.7754 21.394 15.7293 22.7264 17.1732C23.6235 18.1459 24.9403 18.6387 26.6401 18.6387C30.2492 18.6387 31.203 15.4394 31.2031 13.7478V7.70226H29.8373V13.7477C29.8351 14.1066 29.7267 17.2727 26.6401 17.2727C25.3372 17.2727 24.3582 16.9275 23.7301 16.2469C22.8138 15.2538 22.9018 13.8168 22.9028 13.8026C22.902 13.813 22.9009 13.8235 22.8996 13.8339L23.6679 7.78845L22.3131 7.61621Z" fill="#4B371F"/>
  <path d="M30.5204 7.70711V13.7495C30.5204 13.7495 30.1697 17.9574 34.9384 17.9574C39.1258 17.9574 39.1257 13.7495 39.1257 13.7495V7.7041" fill="#8A8A8A"/>
  <path d="M29.8371 7.70711V13.7495C29.8371 13.7305 29.8379 13.7117 29.8394 13.6927C29.8326 13.7751 29.6866 15.7267 31.0156 17.1713C31.9125 18.1461 33.2322 18.6404 34.938 18.6404C36.3572 18.6404 37.5089 18.2081 38.3614 17.3555C39.7917 15.925 39.8081 13.8377 39.8081 13.7495V7.7041H38.4423V13.7495C38.4396 14.1082 38.3199 17.2745 34.938 17.2745C33.6298 17.2745 32.6483 16.9287 32.0209 16.2464C31.1078 15.2541 31.1996 13.8204 31.2008 13.8062C31.2023 13.7873 31.2031 13.7683 31.2031 13.7494V7.70711H29.8371Z" fill="#4B371F"/>
  <path d="M17.1504 7.7041H45.7327L46.8566 13.7495C46.8566 13.7495 47.4229 17.9574 43.5427 17.9574C38.7278 17.9574 39.1241 13.7495 39.1241 13.7495L39.1244 8.39003" fill="#8A8A8A"/>
  <path d="M17.1504 8.38636H45.7327C45.5732 8.38634 45.4188 8.33053 45.2961 8.2286C45.1735 8.12667 45.0904 7.98505 45.0612 7.82827L46.1852 13.8737C46.1831 13.8625 46.1814 13.8512 46.1799 13.8399C46.1818 13.8548 46.3873 15.5415 45.5178 16.5296C45.0773 17.0304 44.4313 17.2738 43.5427 17.2738C42.214 17.2738 41.2232 16.9249 40.5968 16.2369C39.6967 15.2481 39.803 13.827 39.8042 13.8129C39.8062 13.7916 39.8071 13.7702 39.8071 13.7488L39.8073 8.38937H38.4415L38.4413 13.7488C38.4413 13.7274 38.4424 13.7061 38.4442 13.6848C38.4364 13.7669 38.2702 15.7099 39.5865 17.1562C40.4825 18.1406 41.8135 18.6397 43.5424 18.6397C44.8327 18.6397 45.8445 18.2308 46.55 17.4242C47.8268 15.9643 47.546 13.7512 47.5333 13.6577C47.5317 13.6465 47.5299 13.6352 47.528 13.624L46.404 7.5786C46.3748 7.42183 46.2918 7.28021 46.1692 7.17828C46.0465 7.07635 45.8921 7.02053 45.7327 7.02051H17.1504V8.38636Z" fill="#4B371F"/>
  <path d="M20.2576 22.6992H30.8491V29.5184H20.2576V22.6992Z" fill="#8A8A8A"/>
  <path d="M20.2586 23.3815H30.8501C30.669 23.3815 30.4953 23.3095 30.3672 23.1815C30.2392 23.0534 30.1672 22.8797 30.1672 22.6986V29.5177C30.1672 29.3366 30.2392 29.1629 30.3672 29.0348C30.4953 28.9067 30.669 28.8348 30.8501 28.8348H20.2586C20.4397 28.8348 20.6134 28.9067 20.7415 29.0348C20.8696 29.1629 20.9415 29.3366 20.9415 29.5177V22.6986C20.9415 22.8797 20.8696 23.0534 20.7415 23.1815C20.6134 23.3095 20.4397 23.3815 20.2586 23.3815ZM20.2586 30.2006H30.8501C31.0313 30.2006 31.205 30.1287 31.333 30.0006C31.4611 29.8725 31.5331 29.6988 31.5331 29.5177V22.6986C31.5331 22.5174 31.4611 22.3437 31.333 22.2157C31.205 22.0876 31.0313 22.0156 30.8501 22.0156H20.2586C20.0775 22.0156 19.9038 22.0876 19.7757 22.2157C19.6476 22.3437 19.5757 22.5174 19.5757 22.6986V29.5177C19.5757 29.8947 19.8815 30.2006 20.2586 30.2006Z" fill="#4B371F"/>
  <path d="M34.4041 22.6992H42.5992V33.3171H34.4041V22.6992Z" fill="#8A8A8A"/>
  <path opacity="0.22" d="M20.9412 28.8351L26.3943 23.3818H30.1668L24.7137 28.8351H20.9412Z" fill="#8A8A8A"/>
  <path opacity="0.44" d="M27.051 28.8351L30.167 25.719V23.3818H28.0071L22.554 28.8351H27.051Z" fill="#8A8A8A"/>
  <path opacity="0.15" d="M20.9412 23.3818V28.8351H22.1566V24.325H30.1668V23.3818H20.9412Z" fill="#4B371F"/>
  <path opacity="0.22" d="M34.321 32.6536L40.7773 23.3813L42.3531 23.1357L37.6054 32.6536H34.321Z" fill="#8A8A8A"/>
  <path opacity="0.27" d="M39.6402 32.6536L42.3533 29.287V23.1357L41.9158 24.848L35.7251 32.6536H39.6402Z" fill="#8A8A8A"/>
  <path d="M42.5985 32.6335H34.4034C34.7808 32.6335 35.0863 32.9392 35.0863 33.3164V22.6986C35.0863 23.0758 34.7808 23.3815 34.4034 23.3815H42.5985C42.4174 23.3815 42.2437 23.3095 42.1156 23.1815C41.9875 23.0534 41.9156 22.8797 41.9156 22.6986V33.3164C41.9156 33.1353 41.9875 32.9616 42.1156 32.8335C42.2437 32.7055 42.4174 32.6335 42.5985 32.6335ZM42.5985 22.0156H34.4034C34.2223 22.0156 34.0486 22.0876 33.9205 22.2157C33.7924 22.3437 33.7205 22.5174 33.7205 22.6986V33.3164C33.7205 33.4976 33.7924 33.6713 33.9205 33.7993C34.0486 33.9274 34.2223 33.9994 34.4034 33.9994H42.5985C42.9759 33.9994 43.2814 33.6937 43.2814 33.3164V22.6986C43.2814 22.5174 43.2095 22.3437 43.0814 22.2157C42.9533 22.0876 42.7796 22.0156 42.5985 22.0156Z" fill="#4B371F"/>
  <path opacity="0.15" d="M35.0859 23.3821V32.7025H36.2696V24.5073H42.0062V23.3821H35.0859ZM17.8336 6H45.0499V7.02139H17.8336V6ZM17.1506 8.38724H45.4267V9.79312H17.1506V8.38724Z" fill="#4B371F"/>
  <path opacity="0.2" d="M34.9385 17.9578C38.2819 17.9578 38.9553 15.2768 39.0912 14.1953H30.5229C30.5868 15.2749 31.1284 17.9578 34.9385 17.9578ZM46.8853 14.1953H39.1233C39.1774 15.2767 39.6997 17.9578 43.5437 17.9578C46.6422 17.9578 46.9051 15.2765 46.8853 14.1953ZM26.6403 17.9578C29.7403 17.9578 30.3628 15.2749 30.4882 14.1953H22.226C22.2931 15.2765 22.8418 17.9578 26.6403 17.9578ZM18.4576 17.3357C20.3783 17.3357 21.962 15.9655 22.1924 14.1953H15.6963C15.7979 15.9653 16.537 17.3357 18.4576 17.3357Z" fill="#4B371F"/>
  <mask id="path-25-outside-2_28641_17198" maskUnits="userSpaceOnUse" x="5" y="25" width="50" height="22" fill="black">
    <rect fill="white" x="5" y="25" width="50" height="22"/>
    <path d="M13.1114 40.256C12.1728 40.256 11.2661 40.1493 10.3914 39.936C9.51677 39.7227 8.79677 39.4453 8.23144 39.104L9.44744 36.352C9.98077 36.6613 10.5728 36.912 11.2234 37.104C11.8848 37.2853 12.5248 37.376 13.1434 37.376C13.5061 37.376 13.7888 37.3547 13.9914 37.312C14.2048 37.2587 14.3594 37.1893 14.4554 37.104C14.5514 37.008 14.5994 36.896 14.5994 36.768C14.5994 36.5653 14.4874 36.4053 14.2634 36.288C14.0394 36.1707 13.7408 36.0747 13.3674 36C13.0048 35.9147 12.6048 35.8293 12.1674 35.744C11.7301 35.648 11.2874 35.5253 10.8394 35.376C10.4021 35.2267 9.99677 35.0293 9.62344 34.784C9.26077 34.5387 8.96744 34.2187 8.74344 33.824C8.51944 33.4187 8.40744 32.9173 8.40744 32.32C8.40744 31.6267 8.59944 30.9973 8.98344 30.432C9.3781 29.856 9.95944 29.3973 10.7274 29.056C11.5061 28.7147 12.4714 28.544 13.6234 28.544C14.3808 28.544 15.1274 28.624 15.8634 28.784C16.5994 28.944 17.2608 29.1893 17.8474 29.52L16.7114 32.256C16.1568 31.9787 15.6181 31.7707 15.0954 31.632C14.5834 31.4933 14.0821 31.424 13.5914 31.424C13.2288 31.424 12.9408 31.456 12.7274 31.52C12.5141 31.584 12.3594 31.6693 12.2634 31.776C12.1781 31.8827 12.1354 32 12.1354 32.128C12.1354 32.32 12.2474 32.4747 12.4714 32.592C12.6954 32.6987 12.9888 32.7893 13.3514 32.864C13.7248 32.9387 14.1301 33.0187 14.5674 33.104C15.0154 33.1893 15.4581 33.3067 15.8954 33.456C16.3328 33.6053 16.7328 33.8027 17.0954 34.048C17.4688 34.2933 17.7674 34.6133 17.9914 35.008C18.2154 35.4027 18.3274 35.8933 18.3274 36.48C18.3274 37.1627 18.1301 37.792 17.7354 38.368C17.3514 38.9333 16.7754 39.392 16.0074 39.744C15.2394 40.0853 14.2741 40.256 13.1114 40.256ZM25.4191 31.088C26.0911 31.088 26.6991 31.2267 27.2431 31.504C27.7871 31.7707 28.2137 32.192 28.5231 32.768C28.8431 33.344 29.0031 34.0907 29.0031 35.008V40H25.3871V35.632C25.3871 35.088 25.2911 34.704 25.0991 34.48C24.9071 34.2453 24.6457 34.128 24.3151 34.128C24.0697 34.128 23.8404 34.1867 23.6271 34.304C23.4244 34.4107 23.2591 34.592 23.1311 34.848C23.0137 35.104 22.9551 35.4507 22.9551 35.888V40H19.3391V28.128H22.9551V33.808L22.0911 33.072C22.4324 32.4107 22.8911 31.9147 23.4671 31.584C24.0537 31.2533 24.7044 31.088 25.4191 31.088ZM35.3537 40.16C34.3617 40.16 33.4817 39.968 32.7137 39.584C31.9564 39.1893 31.359 38.6507 30.9217 37.968C30.4844 37.2853 30.2657 36.5013 30.2657 35.616C30.2657 34.7307 30.4844 33.9467 30.9217 33.264C31.359 32.5813 31.9564 32.048 32.7137 31.664C33.4817 31.28 34.3617 31.088 35.3537 31.088C36.3457 31.088 37.2257 31.28 37.9937 31.664C38.7617 32.048 39.359 32.5813 39.7857 33.264C40.223 33.9467 40.4417 34.7307 40.4417 35.616C40.4417 36.5013 40.223 37.2853 39.7857 37.968C39.359 38.6507 38.7617 39.1893 37.9937 39.584C37.2257 39.968 36.3457 40.16 35.3537 40.16ZM35.3537 37.344C35.6204 37.344 35.8604 37.28 36.0737 37.152C36.287 37.024 36.4577 36.832 36.5857 36.576C36.7137 36.3093 36.7777 35.9893 36.7777 35.616C36.7777 35.232 36.7137 34.9173 36.5857 34.672C36.4577 34.416 36.287 34.224 36.0737 34.096C35.8604 33.968 35.6204 33.904 35.3537 33.904C35.087 33.904 34.847 33.968 34.6337 34.096C34.4204 34.224 34.2497 34.416 34.1217 34.672C33.9937 34.9173 33.9297 35.232 33.9297 35.616C33.9297 35.9893 33.9937 36.3093 34.1217 36.576C34.2497 36.832 34.4204 37.024 34.6337 37.152C34.847 37.28 35.087 37.344 35.3537 37.344ZM47.4134 40.16C46.6561 40.16 46.0268 40 45.5254 39.68C45.0348 39.3493 44.6721 38.8533 44.4374 38.192C44.2028 37.52 44.0854 36.6667 44.0854 35.632C44.0854 34.576 44.1921 33.7173 44.4054 33.056C44.6294 32.384 44.9868 31.888 45.4774 31.568C45.9681 31.248 46.6134 31.088 47.4134 31.088C48.1814 31.088 48.8854 31.2747 49.5254 31.648C50.1654 32.0107 50.6774 32.5333 51.0614 33.216C51.4454 33.888 51.6374 34.6933 51.6374 35.632C51.6374 36.5707 51.4454 37.3813 51.0614 38.064C50.6774 38.736 50.1654 39.2533 49.5254 39.616C48.8854 39.9787 48.1814 40.16 47.4134 40.16ZM41.5734 43.104V31.248H45.0134V32.432L45.0294 35.632L45.1894 38.832V43.104H41.5734ZM46.5494 37.344C46.8161 37.344 47.0561 37.28 47.2694 37.152C47.4828 37.024 47.6534 36.832 47.7814 36.576C47.9094 36.32 47.9734 36.0053 47.9734 35.632C47.9734 35.248 47.9094 34.928 47.7814 34.672C47.6534 34.416 47.4828 34.224 47.2694 34.096C47.0561 33.968 46.8161 33.904 46.5494 33.904C46.2828 33.904 46.0428 33.968 45.8294 34.096C45.6161 34.224 45.4454 34.416 45.3174 34.672C45.1894 34.928 45.1254 35.248 45.1254 35.632C45.1254 36.0053 45.1894 36.32 45.3174 36.576C45.4454 36.832 45.6161 37.024 45.8294 37.152C46.0428 37.28 46.2828 37.344 46.5494 37.344Z"/>
  </mask>
  <path d="M13.1114 40.256C12.1728 40.256 11.2661 40.1493 10.3914 39.936C9.51677 39.7227 8.79677 39.4453 8.23144 39.104L9.44744 36.352C9.98077 36.6613 10.5728 36.912 11.2234 37.104C11.8848 37.2853 12.5248 37.376 13.1434 37.376C13.5061 37.376 13.7888 37.3547 13.9914 37.312C14.2048 37.2587 14.3594 37.1893 14.4554 37.104C14.5514 37.008 14.5994 36.896 14.5994 36.768C14.5994 36.5653 14.4874 36.4053 14.2634 36.288C14.0394 36.1707 13.7408 36.0747 13.3674 36C13.0048 35.9147 12.6048 35.8293 12.1674 35.744C11.7301 35.648 11.2874 35.5253 10.8394 35.376C10.4021 35.2267 9.99677 35.0293 9.62344 34.784C9.26077 34.5387 8.96744 34.2187 8.74344 33.824C8.51944 33.4187 8.40744 32.9173 8.40744 32.32C8.40744 31.6267 8.59944 30.9973 8.98344 30.432C9.3781 29.856 9.95944 29.3973 10.7274 29.056C11.5061 28.7147 12.4714 28.544 13.6234 28.544C14.3808 28.544 15.1274 28.624 15.8634 28.784C16.5994 28.944 17.2608 29.1893 17.8474 29.52L16.7114 32.256C16.1568 31.9787 15.6181 31.7707 15.0954 31.632C14.5834 31.4933 14.0821 31.424 13.5914 31.424C13.2288 31.424 12.9408 31.456 12.7274 31.52C12.5141 31.584 12.3594 31.6693 12.2634 31.776C12.1781 31.8827 12.1354 32 12.1354 32.128C12.1354 32.32 12.2474 32.4747 12.4714 32.592C12.6954 32.6987 12.9888 32.7893 13.3514 32.864C13.7248 32.9387 14.1301 33.0187 14.5674 33.104C15.0154 33.1893 15.4581 33.3067 15.8954 33.456C16.3328 33.6053 16.7328 33.8027 17.0954 34.048C17.4688 34.2933 17.7674 34.6133 17.9914 35.008C18.2154 35.4027 18.3274 35.8933 18.3274 36.48C18.3274 37.1627 18.1301 37.792 17.7354 38.368C17.3514 38.9333 16.7754 39.392 16.0074 39.744C15.2394 40.0853 14.2741 40.256 13.1114 40.256ZM25.4191 31.088C26.0911 31.088 26.6991 31.2267 27.2431 31.504C27.7871 31.7707 28.2137 32.192 28.5231 32.768C28.8431 33.344 29.0031 34.0907 29.0031 35.008V40H25.3871V35.632C25.3871 35.088 25.2911 34.704 25.0991 34.48C24.9071 34.2453 24.6457 34.128 24.3151 34.128C24.0697 34.128 23.8404 34.1867 23.6271 34.304C23.4244 34.4107 23.2591 34.592 23.1311 34.848C23.0137 35.104 22.9551 35.4507 22.9551 35.888V40H19.3391V28.128H22.9551V33.808L22.0911 33.072C22.4324 32.4107 22.8911 31.9147 23.4671 31.584C24.0537 31.2533 24.7044 31.088 25.4191 31.088ZM35.3537 40.16C34.3617 40.16 33.4817 39.968 32.7137 39.584C31.9564 39.1893 31.359 38.6507 30.9217 37.968C30.4844 37.2853 30.2657 36.5013 30.2657 35.616C30.2657 34.7307 30.4844 33.9467 30.9217 33.264C31.359 32.5813 31.9564 32.048 32.7137 31.664C33.4817 31.28 34.3617 31.088 35.3537 31.088C36.3457 31.088 37.2257 31.28 37.9937 31.664C38.7617 32.048 39.359 32.5813 39.7857 33.264C40.223 33.9467 40.4417 34.7307 40.4417 35.616C40.4417 36.5013 40.223 37.2853 39.7857 37.968C39.359 38.6507 38.7617 39.1893 37.9937 39.584C37.2257 39.968 36.3457 40.16 35.3537 40.16ZM35.3537 37.344C35.6204 37.344 35.8604 37.28 36.0737 37.152C36.287 37.024 36.4577 36.832 36.5857 36.576C36.7137 36.3093 36.7777 35.9893 36.7777 35.616C36.7777 35.232 36.7137 34.9173 36.5857 34.672C36.4577 34.416 36.287 34.224 36.0737 34.096C35.8604 33.968 35.6204 33.904 35.3537 33.904C35.087 33.904 34.847 33.968 34.6337 34.096C34.4204 34.224 34.2497 34.416 34.1217 34.672C33.9937 34.9173 33.9297 35.232 33.9297 35.616C33.9297 35.9893 33.9937 36.3093 34.1217 36.576C34.2497 36.832 34.4204 37.024 34.6337 37.152C34.847 37.28 35.087 37.344 35.3537 37.344ZM47.4134 40.16C46.6561 40.16 46.0268 40 45.5254 39.68C45.0348 39.3493 44.6721 38.8533 44.4374 38.192C44.2028 37.52 44.0854 36.6667 44.0854 35.632C44.0854 34.576 44.1921 33.7173 44.4054 33.056C44.6294 32.384 44.9868 31.888 45.4774 31.568C45.9681 31.248 46.6134 31.088 47.4134 31.088C48.1814 31.088 48.8854 31.2747 49.5254 31.648C50.1654 32.0107 50.6774 32.5333 51.0614 33.216C51.4454 33.888 51.6374 34.6933 51.6374 35.632C51.6374 36.5707 51.4454 37.3813 51.0614 38.064C50.6774 38.736 50.1654 39.2533 49.5254 39.616C48.8854 39.9787 48.1814 40.16 47.4134 40.16ZM41.5734 43.104V31.248H45.0134V32.432L45.0294 35.632L45.1894 38.832V43.104H41.5734ZM46.5494 37.344C46.8161 37.344 47.0561 37.28 47.2694 37.152C47.4828 37.024 47.6534 36.832 47.7814 36.576C47.9094 36.32 47.9734 36.0053 47.9734 35.632C47.9734 35.248 47.9094 34.928 47.7814 34.672C47.6534 34.416 47.4828 34.224 47.2694 34.096C47.0561 33.968 46.8161 33.904 46.5494 33.904C46.2828 33.904 46.0428 33.968 45.8294 34.096C45.6161 34.224 45.4454 34.416 45.3174 34.672C45.1894 34.928 45.1254 35.248 45.1254 35.632C45.1254 36.0053 45.1894 36.32 45.3174 36.576C45.4454 36.832 45.6161 37.024 45.8294 37.152C46.0428 37.28 46.2828 37.344 46.5494 37.344Z" fill="#8A8A8A"/>
  <path d="M10.3914 39.936L11.1023 37.0214L10.3914 39.936ZM8.23144 39.104L5.48738 37.8915C4.87717 39.2725 5.38834 40.8918 6.68083 41.6722L8.23144 39.104ZM9.44744 36.352L10.9526 33.7569C10.2149 33.3291 9.33009 33.2354 8.5192 33.4992C7.70831 33.7631 7.04802 34.3595 6.70338 35.1395L9.44744 36.352ZM11.2234 37.104L10.3744 39.9813C10.3929 39.9868 10.4115 39.9921 10.4301 39.9972L11.2234 37.104ZM13.9914 37.312L14.6095 40.2476C14.6461 40.2399 14.6827 40.2315 14.719 40.2224L13.9914 37.312ZM14.4554 37.104L16.4485 39.3462C16.4924 39.3072 16.5352 39.2669 16.5768 39.2253L14.4554 37.104ZM14.2634 36.288L12.8714 38.9455L12.8714 38.9455L14.2634 36.288ZM13.3674 36L12.6803 38.9203C12.7131 38.928 12.746 38.9351 12.7791 38.9417L13.3674 36ZM12.1674 35.744L11.5242 38.6742C11.5471 38.6792 11.57 38.684 11.5929 38.6885L12.1674 35.744ZM10.8394 35.376L9.87001 38.215C9.87691 38.2174 9.88383 38.2197 9.89075 38.222L10.8394 35.376ZM9.62344 34.784L7.94251 37.2689C7.95359 37.2763 7.96472 37.2838 7.9759 37.2911L9.62344 34.784ZM8.74344 33.824L6.11771 35.2751C6.12321 35.285 6.12877 35.2949 6.13438 35.3048L8.74344 33.824ZM8.98344 30.432L6.50862 28.7363L6.50179 28.7464L8.98344 30.432ZM10.7274 29.056L9.52301 26.3084C9.51834 26.3104 9.51368 26.3125 9.50902 26.3146L10.7274 29.056ZM15.8634 28.784L15.2261 31.7155H15.2261L15.8634 28.784ZM17.8474 29.52L20.6181 30.6704C21.2003 29.2682 20.6431 27.652 19.3205 26.9065L17.8474 29.52ZM16.7114 32.256L15.3698 34.9393C16.1141 35.3114 16.9795 35.3577 17.7593 35.0671C18.539 34.7764 19.163 34.1749 19.4821 33.4064L16.7114 32.256ZM15.0954 31.632L14.3112 34.5277C14.3162 34.529 14.3212 34.5304 14.3261 34.5317L15.0954 31.632ZM12.7274 31.52L11.8654 28.6465L11.8654 28.6465L12.7274 31.52ZM12.2634 31.776L10.0336 29.7691C9.9947 29.8123 9.95711 29.8566 9.92083 29.9019L12.2634 31.776ZM12.4714 32.592L11.0794 35.2495C11.1132 35.2672 11.1472 35.2842 11.1816 35.3006L12.4714 32.592ZM13.3514 32.864L12.7465 35.8024C12.752 35.8035 12.7575 35.8046 12.7631 35.8057L13.3514 32.864ZM14.5674 33.104L13.9929 36.0485L14.0061 36.051L14.5674 33.104ZM15.8954 33.456L14.926 36.295H14.926L15.8954 33.456ZM17.0954 34.048L15.4145 36.5328C15.4256 36.5403 15.4367 36.5478 15.4479 36.5551L17.0954 34.048ZM17.9914 35.008L15.3824 36.4888L15.3824 36.4888L17.9914 35.008ZM17.7354 38.368L15.2606 36.6723L15.2538 36.6824L17.7354 38.368ZM16.0074 39.744L17.2259 42.4854C17.2364 42.4807 17.2469 42.476 17.2574 42.4712L16.0074 39.744ZM13.1114 37.256C12.4021 37.256 11.7346 37.1756 11.1023 37.0214L9.68057 42.8506C10.7976 43.123 11.9435 43.256 13.1114 43.256V37.256ZM11.1023 37.0214C10.4239 36.856 10.0114 36.6743 9.78204 36.5358L6.68083 41.6722C7.58215 42.2164 8.60968 42.5894 9.68057 42.8506L11.1023 37.0214ZM10.9755 40.3165L12.1915 37.5645L6.70338 35.1395L5.48738 37.8915L10.9755 40.3165ZM7.94228 38.9471C8.70178 39.3876 9.51721 39.7284 10.3744 39.9813L12.0725 34.2267C11.6283 34.0956 11.2598 33.9351 10.9526 33.7569L7.94228 38.9471ZM10.4301 39.9972C11.3223 40.2418 12.2295 40.376 13.1434 40.376V34.376C12.82 34.376 12.4472 34.3288 12.0167 34.2108L10.4301 39.9972ZM13.1434 40.376C13.5839 40.376 14.107 40.3534 14.6095 40.2476L13.3734 34.3764C13.4094 34.3688 13.4303 34.366 13.4322 34.3657C13.4347 34.3654 13.4252 34.3667 13.4017 34.3685C13.3528 34.3722 13.2691 34.376 13.1434 34.376V40.376ZM14.719 40.2224C15.1111 40.1244 15.8187 39.9061 16.4485 39.3462L12.4623 34.8618C12.7026 34.6482 12.9222 34.5354 13.0403 34.4825C13.1633 34.4273 13.2467 34.4059 13.2638 34.4016L14.719 40.2224ZM16.5768 39.2253C17.1975 38.6046 17.5994 37.7437 17.5994 36.768H11.5994C11.5994 36.4466 11.6619 36.1024 11.806 35.7662C11.9486 35.4336 12.143 35.1738 12.3341 34.9827L16.5768 39.2253ZM17.5994 36.768C17.5994 35.1554 16.5773 34.1134 15.6555 33.6305L12.8714 38.9455C12.6796 38.845 12.346 38.6281 12.0577 38.2164C11.7469 37.7723 11.5994 37.2575 11.5994 36.768H17.5994ZM15.6555 33.6305C15.0853 33.3318 14.4829 33.1637 13.9558 33.0583L12.7791 38.9417C12.8769 38.9613 12.9322 38.9773 12.9534 38.9841C12.9631 38.9872 12.9606 38.9868 12.9477 38.9815C12.9351 38.9764 12.9086 38.965 12.8714 38.9455L15.6555 33.6305ZM14.0546 33.0797C13.6481 32.9841 13.21 32.8908 12.742 32.7995L11.5929 38.6885C11.9996 38.7678 12.3614 38.8452 12.6803 38.9203L14.0546 33.0797ZM12.8107 32.8138C12.482 32.7416 12.1413 32.6477 11.7881 32.53L9.89075 38.222C10.4336 38.403 10.9782 38.5544 11.5242 38.6742L12.8107 32.8138ZM11.8089 32.537C11.6024 32.4664 11.426 32.3787 11.271 32.2769L7.9759 37.2911C8.56757 37.6799 9.20183 37.9869 9.87001 38.215L11.8089 32.537ZM11.3044 32.2991C11.3155 32.3067 11.3298 32.3186 11.3429 32.3328C11.3557 32.3468 11.358 32.3529 11.3525 32.3432L6.13438 35.3048C6.57778 36.086 7.18319 36.7552 7.94251 37.2689L11.3044 32.2991ZM11.3692 32.3729C11.4094 32.4458 11.4197 32.492 11.4193 32.4899C11.4182 32.4854 11.4074 32.4333 11.4074 32.32H5.40744C5.40744 33.2816 5.58714 34.315 6.11771 35.2751L11.3692 32.3729ZM11.4074 32.32C11.4074 32.2185 11.424 32.1781 11.4651 32.1176L6.50179 28.7464C5.77484 29.8166 5.40744 31.0348 5.40744 32.32H11.4074ZM11.4582 32.1277C11.4804 32.0954 11.5814 31.9594 11.9459 31.7974L9.50902 26.3146C8.33747 26.8353 7.27586 27.6166 6.50864 28.7363L11.4582 32.1277ZM11.9319 31.8036C12.2215 31.6766 12.7473 31.544 13.6234 31.544V25.544C12.1956 25.544 10.7907 25.7527 9.52301 26.3084L11.9319 31.8036ZM13.6234 31.544C14.1677 31.544 14.7007 31.6013 15.2261 31.7155L16.5007 25.8525C15.5542 25.6467 14.5938 25.544 13.6234 25.544V31.544ZM15.2261 31.7155C15.7035 31.8193 16.0777 31.9662 16.3744 32.1335L19.3205 26.9065C18.4438 26.4124 17.4954 26.0687 16.5007 25.8525L15.2261 31.7155ZM15.0768 28.3696L13.9408 31.1056L19.4821 33.4064L20.6181 30.6704L15.0768 28.3696ZM18.0531 29.5727C17.3416 29.217 16.6114 28.9304 15.8647 28.7323L14.3261 34.5317C14.6248 34.6109 14.972 34.7404 15.3698 34.9393L18.0531 29.5727ZM15.8797 28.7363C15.1326 28.534 14.3675 28.424 13.5914 28.424V34.424C13.7967 34.424 14.0343 34.4527 14.3112 34.5277L15.8797 28.7363ZM13.5914 28.424C13.0955 28.424 12.4779 28.4628 11.8654 28.6465L13.5895 34.3935C13.5603 34.4022 13.5352 34.4088 13.5149 34.4137C13.4945 34.4187 13.4779 34.4221 13.4657 34.4245C13.4417 34.4291 13.4306 34.4301 13.4347 34.4297C13.4386 34.4292 13.4535 34.4277 13.4808 34.4264C13.5079 34.425 13.5445 34.424 13.5914 34.424V28.424ZM11.8654 28.6465C11.3921 28.7885 10.6474 29.087 10.0336 29.7691L14.4933 33.7829C14.2726 34.0281 14.0512 34.1757 13.9007 34.2587C13.7507 34.3415 13.6365 34.3794 13.5895 34.3935L11.8654 28.6465ZM9.92083 29.9019C9.44063 30.5022 9.13544 31.2712 9.13544 32.128H15.1354C15.1354 32.7288 14.9156 33.2632 14.606 33.6501L9.92083 29.9019ZM9.13544 32.128C9.13544 33.7954 10.2319 34.8056 11.0794 35.2495L13.8635 29.9345C14.0346 30.0241 14.3599 30.2289 14.6493 30.6285C14.9661 31.0659 15.1354 31.5958 15.1354 32.128H9.13544ZM11.1816 35.3006C11.7024 35.5485 12.251 35.7004 12.7465 35.8024L13.9564 29.9256C13.8513 29.904 13.7831 29.8855 13.7454 29.8738C13.7059 29.8616 13.7162 29.862 13.7612 29.8834L11.1816 35.3006ZM12.7631 35.8057C13.1417 35.8815 13.5517 35.9624 13.9929 36.0485L15.142 30.1595C14.7085 30.0749 14.3078 29.9959 13.9398 29.9223L12.7631 35.8057ZM14.0061 36.051C14.3139 36.1096 14.6202 36.1906 14.926 36.295L16.8649 30.617C16.296 30.4227 15.717 30.269 15.1288 30.157L14.0061 36.051ZM14.926 36.295C15.1255 36.3632 15.2841 36.4447 15.4145 36.5328L18.7764 31.5631C18.1814 31.1607 17.5401 30.8475 16.8649 30.617L14.926 36.295ZM15.4479 36.5551C15.4392 36.5494 15.4232 36.5371 15.4063 36.519C15.3895 36.501 15.3821 36.4883 15.3824 36.4888L20.6005 33.5272C20.1457 32.7259 19.5201 32.0516 18.743 31.5409L15.4479 36.5551ZM15.3824 36.4888C15.3594 36.4483 15.3438 36.4132 15.3336 36.3865C15.3236 36.36 15.3195 36.3435 15.3187 36.3396C15.3172 36.3334 15.3274 36.3753 15.3274 36.48H21.3274C21.3274 35.5225 21.1451 34.4868 20.6005 33.5272L15.3824 36.4888ZM15.3274 36.48C15.3274 36.5429 15.3215 36.5835 15.2606 36.6723L20.2102 40.0637C20.9387 39.0005 21.3274 37.7825 21.3274 36.48H15.3274ZM15.2538 36.6824C15.2427 36.6987 15.1446 36.8394 14.7575 37.0168L17.2574 42.4712C18.4062 41.9446 19.4602 41.168 20.2171 40.0536L15.2538 36.6824ZM14.789 37.0026C14.5218 37.1213 14.0051 37.256 13.1114 37.256V43.256C14.5431 43.256 15.957 43.0494 17.2259 42.4854L14.789 37.0026ZM27.2431 31.504L25.8805 34.1767C25.8945 34.1838 25.9085 34.1909 25.9226 34.1978L27.2431 31.504ZM28.5231 32.768L25.8801 34.1874C25.8868 34.1999 25.8937 34.2125 25.9006 34.2249L28.5231 32.768ZM29.0031 40V43C30.6599 43 32.0031 41.6569 32.0031 40H29.0031ZM25.3871 40H22.3871C22.3871 41.6569 23.7302 43 25.3871 43V40ZM25.0991 34.48L22.7772 36.3797C22.7917 36.3974 22.8064 36.415 22.8213 36.4324L25.0991 34.48ZM23.6271 34.304L25.0243 36.9588C25.0406 36.9502 25.0567 36.9415 25.0728 36.9326L23.6271 34.304ZM23.1311 34.848L20.4478 33.5064C20.4326 33.5367 20.418 33.5672 20.4039 33.598L23.1311 34.848ZM22.9551 40V43C24.6119 43 25.9551 41.6569 25.9551 40H22.9551ZM19.3391 40H16.3391C16.3391 41.6569 17.6822 43 19.3391 43V40ZM19.3391 28.128V25.128C17.6822 25.128 16.3391 26.4711 16.3391 28.128H19.3391ZM22.9551 28.128H25.9551C25.9551 26.4711 24.6119 25.128 22.9551 25.128V28.128ZM22.9551 33.808L21.0097 36.0917C21.9003 36.8504 23.1507 37.0221 24.2128 36.5316C25.2749 36.0411 25.9551 34.9779 25.9551 33.808H22.9551ZM22.0911 33.072L19.4252 31.6961C18.7857 32.9352 19.0842 34.4515 20.1457 35.3557L22.0911 33.072ZM23.4671 31.584L21.994 28.9705C21.9872 28.9744 21.9803 28.9783 21.9735 28.9822L23.4671 31.584ZM25.4191 34.088C25.6658 34.088 25.7996 34.1355 25.8805 34.1767L28.6056 28.8313C27.5985 28.3179 26.5163 28.088 25.4191 28.088V34.088ZM25.9226 34.1978C25.9168 34.1949 25.9066 34.1893 25.8943 34.1805C25.8819 34.1718 25.8712 34.1626 25.8631 34.1546C25.8551 34.1467 25.8527 34.143 25.8552 34.1464C25.8578 34.1499 25.8667 34.1625 25.8801 34.1874L31.166 31.3486C30.5847 30.2662 29.7161 29.3752 28.5635 28.8102L25.9226 34.1978ZM25.9006 34.2249C25.8948 34.2145 26.0031 34.4107 26.0031 35.008H32.0031C32.0031 33.7706 31.7913 32.4735 31.1455 31.3111L25.9006 34.2249ZM26.0031 35.008V40H32.0031V35.008H26.0031ZM29.0031 37H25.3871V43H29.0031V37ZM28.3871 40V35.632H22.3871V40H28.3871ZM28.3871 35.632C28.3871 34.9061 28.2929 33.5964 27.3768 32.5276L22.8213 36.4324C22.5288 36.0912 22.4328 35.7762 22.4046 35.6636C22.3757 35.5477 22.3871 35.5209 22.3871 35.632H28.3871ZM27.4209 32.5803C26.6029 31.5804 25.4527 31.128 24.3151 31.128V37.128C24.1218 37.128 23.8412 37.0924 23.5303 36.9528C23.2119 36.8099 22.9581 36.6008 22.7772 36.3797L27.4209 32.5803ZM24.3151 31.128C23.5683 31.128 22.8411 31.3125 22.1813 31.6754L25.0728 36.9326C24.8397 37.0609 24.5712 37.128 24.3151 37.128V31.128ZM22.2298 31.6492C21.3463 32.1143 20.7857 32.8305 20.4478 33.5064L25.8143 36.1896C25.7324 36.3535 25.5025 36.7071 25.0243 36.9588L22.2298 31.6492ZM20.4039 33.598C20.0349 34.403 19.9551 35.2335 19.9551 35.888H25.9551C25.9551 35.7984 25.9614 35.7743 25.957 35.8006C25.9529 35.8249 25.9321 35.9369 25.8583 36.098L20.4039 33.598ZM19.9551 35.888V40H25.9551V35.888H19.9551ZM22.9551 37H19.3391V43H22.9551V37ZM22.3391 40V28.128H16.3391V40H22.3391ZM19.3391 31.128H22.9551V25.128H19.3391V31.128ZM19.9551 28.128V33.808H25.9551V28.128H19.9551ZM24.9005 31.5243L24.0365 30.7883L20.1457 35.3557L21.0097 36.0917L24.9005 31.5243ZM24.7569 34.4479C24.8665 34.2356 24.9441 34.1953 24.9607 34.1858L21.9735 28.9822C20.8381 29.634 19.9983 30.5857 19.4252 31.6961L24.7569 34.4479ZM24.9401 34.1975C25.0495 34.1358 25.1878 34.088 25.4191 34.088V28.088C24.221 28.088 23.0579 28.3709 21.994 28.9705L24.9401 34.1975ZM32.7137 39.584L31.3273 42.2444C31.3421 42.2522 31.3571 42.2598 31.372 42.2673L32.7137 39.584ZM30.9217 37.968L28.3956 39.5863L30.9217 37.968ZM30.9217 33.264L28.3956 31.6457V31.6457L30.9217 33.264ZM32.7137 31.664L31.372 28.9807C31.367 28.9832 31.362 28.9858 31.357 28.9883L32.7137 31.664ZM37.9937 31.664L36.652 34.3473V34.3473L37.9937 31.664ZM39.7857 33.264L37.2417 34.854C37.2476 34.8635 37.2536 34.8729 37.2596 34.8823L39.7857 33.264ZM39.7857 37.968L37.2596 36.3497C37.2536 36.3591 37.2476 36.3685 37.2417 36.378L39.7857 37.968ZM37.9937 39.584L39.3353 42.2673C39.3452 42.2623 39.3551 42.2573 39.3649 42.2523L37.9937 39.584ZM36.0737 37.152L34.5302 34.5795L36.0737 37.152ZM36.5857 36.576L39.269 37.9176C39.2762 37.9032 39.2833 37.8887 39.2903 37.8742L36.5857 36.576ZM36.5857 34.672L33.9024 36.0136C33.9101 36.0291 33.918 36.0444 33.9259 36.0597L36.5857 34.672ZM36.0737 34.096L34.5302 36.6685L34.5302 36.6685L36.0737 34.096ZM34.6337 34.096L33.0902 31.5235V31.5235L34.6337 34.096ZM34.1217 34.672L36.7814 36.0597C36.7894 36.0444 36.7973 36.0291 36.805 36.0136L34.1217 34.672ZM34.1217 36.576L31.4171 37.8742C31.4241 37.8887 31.4312 37.9032 31.4384 37.9176L34.1217 36.576ZM34.6337 37.152L33.0902 39.7245L33.0902 39.7245L34.6337 37.152ZM35.3537 37.16C34.755 37.16 34.3465 37.0463 34.0553 36.9007L31.372 42.2673C32.6169 42.8897 33.9684 43.16 35.3537 43.16V37.16ZM34.1001 36.9236C33.7814 36.7575 33.5874 36.5677 33.4478 36.3497L28.3956 39.5863C29.1306 40.7336 30.1313 41.6212 31.3273 42.2444L34.1001 36.9236ZM33.4478 36.3497C33.3482 36.1943 33.2657 35.9826 33.2657 35.616H27.2657C27.2657 37.0201 27.6205 38.3764 28.3956 39.5863L33.4478 36.3497ZM33.2657 35.616C33.2657 35.2494 33.3482 35.0377 33.4478 34.8823L28.3956 31.6457C27.6205 32.8556 27.2657 34.2119 27.2657 35.616H33.2657ZM33.4478 34.8823C33.5826 34.6718 33.7666 34.4937 34.0704 34.3397L31.357 28.9883C30.1461 29.6023 29.1354 30.4909 28.3956 31.6457L33.4478 34.8823ZM34.0553 34.3473C34.3465 34.2017 34.755 34.088 35.3537 34.088V28.088C33.9684 28.088 32.6169 28.3583 31.372 28.9807L34.0553 34.3473ZM35.3537 34.088C35.9524 34.088 36.3609 34.2017 36.652 34.3473L39.3353 28.9807C38.0905 28.3583 36.739 28.088 35.3537 28.088V34.088ZM36.652 34.3473C36.9606 34.5015 37.1272 34.6709 37.2417 34.854L42.3297 31.674C41.5908 30.4918 40.5628 29.5945 39.3353 28.9807L36.652 34.3473ZM37.2596 34.8823C37.3592 35.0377 37.4417 35.2494 37.4417 35.616H43.4417C43.4417 34.2119 43.0869 32.8556 42.3118 31.6457L37.2596 34.8823ZM37.4417 35.616C37.4417 35.9826 37.3592 36.1943 37.2596 36.3497L42.3118 39.5863C43.0869 38.3764 43.4417 37.0201 43.4417 35.616H37.4417ZM37.2417 36.378C37.1225 36.5688 36.9457 36.7496 36.6225 36.9157L39.3649 42.2523C40.5776 41.6291 41.5956 40.7326 42.3297 39.558L37.2417 36.378ZM36.652 36.9007C36.3609 37.0463 35.9524 37.16 35.3537 37.16V43.16C36.739 43.16 38.0905 42.8897 39.3353 42.2673L36.652 36.9007ZM35.3537 40.344C36.1235 40.344 36.904 40.1524 37.6172 39.7245L34.5302 34.5795C34.8167 34.4076 35.1172 34.344 35.3537 34.344V40.344ZM37.6172 39.7245C38.39 39.2608 38.9251 38.6054 39.269 37.9176L33.9024 35.2344C33.9903 35.0586 34.1841 34.7872 34.5302 34.5795L37.6172 39.7245ZM39.2903 37.8742C39.6568 37.1105 39.7777 36.3243 39.7777 35.616H33.7777C33.7777 35.6543 33.7706 35.5081 33.8811 35.2778L39.2903 37.8742ZM39.7777 35.616C39.7777 34.9259 39.6666 34.0915 39.2454 33.2843L33.9259 36.0597C33.8413 35.8974 33.8051 35.7647 33.7899 35.6899C33.775 35.6167 33.7777 35.5871 33.7777 35.616H39.7777ZM39.269 33.3304C38.9251 32.6426 38.39 31.9872 37.6172 31.5235L34.5302 36.6685C34.1841 36.4608 33.9903 36.1894 33.9024 36.0136L39.269 33.3304ZM37.6172 31.5235C36.904 31.0956 36.1235 30.904 35.3537 30.904V36.904C35.1172 36.904 34.8167 36.8404 34.5302 36.6685L37.6172 31.5235ZM35.3537 30.904C34.5839 30.904 33.8034 31.0956 33.0902 31.5235L36.1772 36.6685C35.8907 36.8404 35.5902 36.904 35.3537 36.904V30.904ZM33.0902 31.5235C32.3174 31.9872 31.7823 32.6426 31.4384 33.3304L36.805 36.0136C36.7171 36.1894 36.5233 36.4608 36.1772 36.6685L33.0902 31.5235ZM31.4619 33.2843C31.0408 34.0915 30.9297 34.9259 30.9297 35.616H36.9297C36.9297 35.5871 36.9324 35.6167 36.9175 35.6899C36.9023 35.7647 36.8661 35.8974 36.7814 36.0597L31.4619 33.2843ZM30.9297 35.616C30.9297 36.3243 31.0506 37.1105 31.4171 37.8742L36.8263 35.2778C36.9368 35.5081 36.9297 35.6543 36.9297 35.616H30.9297ZM31.4384 37.9176C31.7823 38.6054 32.3174 39.2608 33.0902 39.7245L36.1772 34.5795C36.5233 34.7872 36.7171 35.0586 36.805 35.2344L31.4384 37.9176ZM33.0902 39.7245C33.8034 40.1524 34.5839 40.344 35.3537 40.344V34.344C35.5902 34.344 35.8907 34.4076 36.1772 34.5795L33.0902 39.7245ZM45.5254 39.68L43.8489 42.1678C43.8695 42.1817 43.8903 42.1954 43.9113 42.2088L45.5254 39.68ZM44.4374 38.192L41.6052 39.181C41.6068 39.1858 41.6085 39.1905 41.6102 39.1952L44.4374 38.192ZM44.4054 33.056L41.5594 32.1073C41.5563 32.1165 41.5533 32.1258 41.5503 32.135L44.4054 33.056ZM45.4774 31.568L47.1162 34.0808V34.0808L45.4774 31.568ZM49.5254 31.648L48.0138 34.2393C48.0246 34.2456 48.0355 34.2519 48.0464 34.2581L49.5254 31.648ZM51.0614 33.216L48.4467 34.6868C48.45 34.6927 48.4534 34.6986 48.4567 34.7044L51.0614 33.216ZM51.0614 38.064L53.6662 39.5524C53.6695 39.5465 53.6729 39.5407 53.6762 39.5348L51.0614 38.064ZM49.5254 39.616L51.0045 42.2261L49.5254 39.616ZM41.5734 43.104H38.5734C38.5734 44.7609 39.9166 46.104 41.5734 46.104V43.104ZM41.5734 31.248V28.248C39.9166 28.248 38.5734 29.5911 38.5734 31.248H41.5734ZM45.0134 31.248H48.0134C48.0134 29.5911 46.6703 28.248 45.0134 28.248V31.248ZM45.0134 32.432H42.0134C42.0134 32.437 42.0135 32.442 42.0135 32.447L45.0134 32.432ZM45.0294 35.632L42.0295 35.647C42.0297 35.692 42.0309 35.7369 42.0332 35.7818L45.0294 35.632ZM45.1894 38.832H48.1894C48.1894 38.782 48.1882 38.7321 48.1857 38.6822L45.1894 38.832ZM45.1894 43.104V46.104C46.8463 46.104 48.1894 44.7609 48.1894 43.104H45.1894ZM47.2694 37.152L48.8129 39.7245V39.7245L47.2694 37.152ZM47.7814 36.576L45.0982 35.2344V35.2344L47.7814 36.576ZM47.7814 34.672L45.0982 36.0136V36.0136L47.7814 34.672ZM45.3174 34.672L48.0007 36.0136V36.0136L45.3174 34.672ZM45.3174 36.576L48.0007 35.2344V35.2344L45.3174 36.576ZM45.8294 37.152L44.2859 39.7245V39.7245L45.8294 37.152ZM47.4134 37.16C47.2439 37.16 47.1496 37.1419 47.1126 37.1325C47.0796 37.1241 47.097 37.1241 47.1395 37.1512L43.9113 42.2088C45.0106 42.9104 46.2391 43.16 47.4134 43.16V37.16ZM47.202 37.1922C47.2264 37.2086 47.2491 37.2272 47.2688 37.2463C47.2884 37.2652 47.3009 37.2807 47.3071 37.2893C47.3199 37.3067 47.2983 37.2835 47.2647 37.1888L41.6102 39.1952C42.0184 40.3458 42.7319 41.415 43.8489 42.1678L47.202 37.1922ZM47.2697 37.203C47.1841 36.9578 47.0854 36.4688 47.0854 35.632H41.0854C41.0854 36.8645 41.2214 38.0822 41.6052 39.181L47.2697 37.203ZM47.0854 35.632C47.0854 34.7438 47.1794 34.2287 47.2606 33.977L41.5503 32.135C41.2048 33.206 41.0854 34.4082 41.0854 35.632H47.0854ZM47.2515 34.0047C47.2825 33.9117 47.2996 33.9002 47.2755 33.9336C47.2635 33.9503 47.2435 33.9748 47.2146 34.0027C47.1854 34.0308 47.1521 34.0574 47.1162 34.0808L43.8386 29.0552C42.6689 29.818 41.9513 30.9315 41.5594 32.1073L47.2515 34.0047ZM47.1162 34.0808C47.0453 34.1271 47.0111 34.1298 47.0514 34.1198C47.0958 34.1088 47.2093 34.088 47.4134 34.088V28.088C46.2378 28.088 44.9648 28.3207 43.8386 29.0552L47.1162 34.0808ZM47.4134 34.088C47.6706 34.088 47.8498 34.1437 48.0138 34.2393L51.0371 29.0567C49.921 28.4057 48.6923 28.088 47.4134 28.088V34.088ZM48.0464 34.2581C48.1801 34.3339 48.3125 34.4481 48.4467 34.6868L53.6762 31.7452C53.0424 30.6186 52.1507 29.6875 51.0045 29.0379L48.0464 34.2581ZM48.4567 34.7044C48.5318 34.8358 48.6374 35.1047 48.6374 35.632H54.6374C54.6374 34.282 54.3591 32.9402 53.6662 31.7276L48.4567 34.7044ZM48.6374 35.632C48.6374 36.1576 48.5324 36.4409 48.4467 36.5932L53.6762 39.5348C54.3585 38.3217 54.6374 36.9837 54.6374 35.632H48.6374ZM48.4567 36.5756C48.3257 36.8048 48.1923 36.9233 48.0464 37.0059L51.0045 42.2261C52.1386 41.5834 53.0291 40.6672 53.6662 39.5524L48.4567 36.5756ZM48.0464 37.0059C47.8777 37.1016 47.6868 37.16 47.4134 37.16V43.16C48.6761 43.16 49.8932 42.8558 51.0045 42.2261L48.0464 37.0059ZM44.5734 43.104V31.248H38.5734V43.104H44.5734ZM41.5734 34.248H45.0134V28.248H41.5734V34.248ZM42.0134 31.248V32.432H48.0134V31.248H42.0134ZM42.0135 32.447L42.0295 35.647L48.0294 35.617L48.0134 32.417L42.0135 32.447ZM42.0332 35.7818L42.1932 38.9818L48.1857 38.6822L48.0257 35.4822L42.0332 35.7818ZM42.1894 38.832V43.104H48.1894V38.832H42.1894ZM45.1894 40.104H41.5734V46.104H45.1894V40.104ZM46.5494 40.344C47.3193 40.344 48.0997 40.1524 48.8129 39.7245L45.726 34.5795C46.0125 34.4076 46.3129 34.344 46.5494 34.344V40.344ZM48.8129 39.7245C49.5857 39.2608 50.1208 38.6054 50.4647 37.9176L45.0982 35.2344C45.186 35.0586 45.3798 34.7872 45.726 34.5795L48.8129 39.7245ZM50.4647 37.9176C50.8545 37.1381 50.9734 36.3345 50.9734 35.632H44.9734C44.9734 35.6761 44.9644 35.5019 45.0982 35.2344L50.4647 37.9176ZM50.9734 35.632C50.9734 34.9341 50.8597 34.1202 50.4647 33.3304L45.0982 36.0136C44.9592 35.7358 44.9734 35.5619 44.9734 35.632H50.9734ZM50.4647 33.3304C50.1208 32.6426 49.5857 31.9872 48.8129 31.5235L45.726 36.6685C45.3798 36.4608 45.186 36.1894 45.0982 36.0136L50.4647 33.3304ZM48.8129 31.5235C48.0997 31.0956 47.3193 30.904 46.5494 30.904V36.904C46.3129 36.904 46.0125 36.8404 45.726 36.6685L48.8129 31.5235ZM46.5494 30.904C45.7796 30.904 44.9991 31.0956 44.2859 31.5235L47.3729 36.6685C47.0864 36.8404 46.7859 36.904 46.5494 36.904V30.904ZM44.2859 31.5235C43.5132 31.9872 42.978 32.6426 42.6342 33.3304L48.0007 36.0136C47.9128 36.1894 47.7191 36.4608 47.3729 36.6685L44.2859 31.5235ZM42.6342 33.3304C42.2392 34.1202 42.1254 34.9341 42.1254 35.632H48.1254C48.1254 35.5619 48.1397 35.7358 48.0007 36.0136L42.6342 33.3304ZM42.1254 35.632C42.1254 36.3345 42.2444 37.1381 42.6342 37.9176L48.0007 35.2344C48.1345 35.5019 48.1254 35.6761 48.1254 35.632H42.1254ZM42.6342 37.9176C42.978 38.6054 43.5132 39.2608 44.2859 39.7245L47.3729 34.5795C47.7191 34.7872 47.9128 35.0586 48.0007 35.2344L42.6342 37.9176ZM44.2859 39.7245C44.9991 40.1524 45.7796 40.344 46.5494 40.344V34.344C46.7859 34.344 47.0864 34.4076 47.3729 34.5795L44.2859 39.7245Z" fill="#4B371F" mask="url(#path-25-outside-2_28641_17198)"/>
</svg>
