<svg width="38" height="37" viewBox="0 0 38 37" fill="none" xmlns="http://www.w3.org/2000/svg">
  <mask id="path-1-outside-1_28576_26109" maskUnits="userSpaceOnUse" x="2" y="1" width="36" height="36" fill="black">
    <rect fill="white" x="2" y="1" width="36" height="36"/>
    <path fill-rule="evenodd" clip-rule="evenodd" d="M27.3027 7.21081L27.3029 7.21102L31.4792 11.3874C33.0507 12.9588 33.7638 15.142 33.6841 17.5352C33.6262 19.2734 33.1501 21.1224 32.2811 22.9284C31.4614 24.6317 30.2922 26.2967 28.7945 27.7945C27.2967 29.2922 25.6317 30.4614 23.9284 31.2811C22.1224 32.1501 20.2734 32.6262 18.5352 32.6841C16.142 32.7638 13.9588 32.0507 12.3874 30.4792L8.21271 26.3046L8.21099 26.3029L8.21081 26.3027C4.4215 22.5134 5.62352 15.1677 10.8956 9.8956C16.1677 4.62352 23.5134 3.4215 27.3027 7.21081Z"/>
  </mask>
  <path fill-rule="evenodd" clip-rule="evenodd" d="M27.3027 7.21081L27.3029 7.21102L31.4792 11.3874C33.0507 12.9588 33.7638 15.142 33.6841 17.5352C33.6262 19.2734 33.1501 21.1224 32.2811 22.9284C31.4614 24.6317 30.2922 26.2967 28.7945 27.7945C27.2967 29.2922 25.6317 30.4614 23.9284 31.2811C22.1224 32.1501 20.2734 32.6262 18.5352 32.6841C16.142 32.7638 13.9588 32.0507 12.3874 30.4792L8.21271 26.3046L8.21099 26.3029L8.21081 26.3027C4.4215 22.5134 5.62352 15.1677 10.8956 9.8956C16.1677 4.62352 23.5134 3.4215 27.3027 7.21081Z" fill="#4B371F"/>
  <path d="M27.3029 7.21102L30.1313 4.38259V4.38259L27.3029 7.21102ZM27.3027 7.21081L30.1311 4.38238L30.1311 4.38238L27.3027 7.21081ZM31.4792 11.3874L34.3077 8.55894V8.55894L31.4792 11.3874ZM33.6841 17.5352L37.6818 17.6684L33.6841 17.5352ZM32.2811 22.9284L28.6767 21.1939V21.1939L32.2811 22.9284ZM28.7945 27.7945L31.6229 30.6229L31.6229 30.6229L28.7945 27.7945ZM23.9284 31.2811L22.1939 27.6767V27.6767L23.9284 31.2811ZM18.5352 32.6841L18.6684 36.6818L18.5352 32.6841ZM12.3874 30.4792L15.2158 27.6508L15.2158 27.6508L12.3874 30.4792ZM8.21271 26.3046L5.38369 29.1324L5.38428 29.133L8.21271 26.3046ZM8.21099 26.3029L11.04 23.475L11.0339 23.4689L8.21099 26.3029ZM8.21081 26.3027L5.38237 29.1311L5.3879 29.1366L8.21081 26.3027ZM10.8956 9.8956L13.724 12.724L10.8956 9.8956ZM30.1313 4.38259L30.1311 4.38238L24.4743 10.0392L24.4745 10.0394L30.1313 4.38259ZM34.3077 8.55894L30.1313 4.38259L24.4745 10.0394L28.6508 14.2158L34.3077 8.55894ZM37.6818 17.6684C37.7905 14.4064 36.8157 11.0669 34.3077 8.55894L28.6508 14.2158C29.2858 14.8507 29.737 15.8775 29.6863 17.4021L37.6818 17.6684ZM35.8855 24.6628C36.9638 22.4218 37.6032 20.0303 37.6818 17.6684L29.6863 17.4021C29.6492 18.5165 29.3364 19.8229 28.6767 21.1939L35.8855 24.6628ZM31.6229 30.6229C33.4299 28.8159 34.8651 26.7833 35.8855 24.6628L28.6767 21.1939C28.0578 22.4801 27.1544 23.7776 25.966 24.966L31.6229 30.6229ZM25.6628 34.8854C27.7833 33.8651 29.8159 32.4299 31.6229 30.6229L25.966 24.966C24.7776 26.1544 23.4801 27.0577 22.1939 27.6767L25.6628 34.8854ZM18.6684 36.6818C21.0303 36.6032 23.4218 35.9638 25.6628 34.8854L22.1939 27.6767C20.8229 28.3364 19.5165 28.6492 18.4021 28.6863L18.6684 36.6818ZM9.55894 33.3077C12.0669 35.8157 15.4064 36.7905 18.6684 36.6818L18.4021 28.6863C16.8775 28.737 15.8507 28.2858 15.2158 27.6508L9.55894 33.3077ZM5.38428 29.133L9.55894 33.3077L15.2158 27.6508L11.0411 23.4762L5.38428 29.133ZM5.38197 29.1307L5.38369 29.1324L11.0417 23.4767L11.04 23.475L5.38197 29.1307ZM5.3879 29.1366L5.38808 29.1368L11.0339 23.4689L11.0337 23.4688L5.3879 29.1366ZM8.06717 7.06717C4.90571 10.2286 2.84334 14.1247 2.20769 18.0092C1.57328 21.8861 2.34507 26.0938 5.38238 29.1311L11.0392 23.4743C10.2872 22.7223 9.76538 21.3624 10.1027 19.3011C10.4387 17.2475 11.6134 14.8346 13.724 12.724L8.06717 7.06717ZM30.1311 4.38238C27.0938 1.34507 22.8861 0.573284 19.0092 1.20769C15.1247 1.84334 11.2286 3.90571 8.06717 7.06717L13.724 12.724C15.8346 10.6134 18.2475 9.43873 20.3011 9.10268C22.3624 8.76538 23.7223 9.28723 24.4743 10.0392L30.1311 4.38238Z" fill="#4B371F" mask="url(#path-1-outside-1_28576_26109)"/>
  <path d="M26.8611 6.86135L31.0375 11.0377C32.6089 12.6092 33.322 14.7923 33.2423 17.1855C33.1844 18.9237 32.7083 20.7727 31.8393 22.5787C31.0196 24.282 29.8504 25.9471 28.3527 27.4448C26.855 28.9425 25.1899 30.1117 23.4866 30.9314C21.6806 31.8004 19.8316 32.2765 18.0934 32.3344C15.7002 32.4141 13.5171 31.7011 11.9456 30.1296L7.7692 25.9532L13.1388 20.5836L17.3152 16.4073L21.4915 12.2309L26.8611 6.86135Z" fill="#8A8A8A"/>
  <path d="M28.3527 27.4448L17.3152 16.4073M28.3527 27.4448C29.8504 25.9471 31.0196 24.282 31.8393 22.5787M28.3527 27.4448C26.855 28.9425 25.1899 30.1117 23.4866 30.9314M17.3152 16.4073C18.7575 14.9649 20.1908 13.5316 21.4915 12.2309L31.8393 22.5787M17.3152 16.4073C15.8924 17.8301 14.4607 19.2617 13.1388 20.5836L23.4866 30.9314M31.8393 22.5787C32.7083 20.7727 33.1844 18.9237 33.2423 17.1855C33.322 14.7923 32.6089 12.6092 31.0375 11.0377C29.6816 9.68181 26.8611 6.86135 26.8611 6.86135L7.7692 25.9532C7.7692 25.9532 10.5897 28.7737 11.9456 30.1296C13.5171 31.7011 15.7002 32.4141 18.0934 32.3344C19.8316 32.2765 21.6806 31.8004 23.4866 30.9314" stroke="#4B371F" stroke-width="1.2" stroke-linecap="round" stroke-linejoin="round"/>
  <ellipse cx="17.3152" cy="16.4071" rx="9.70312" ry="13.5" transform="rotate(45 17.3152 16.4071)" fill="#8A8A8A" stroke="#4B371F" stroke-width="1.2" stroke-linecap="round" stroke-linejoin="round"/>
  <ellipse cx="17.3151" cy="16.407" rx="5.6352" ry="8.4375" transform="rotate(45 17.3151 16.407)" fill="#8A8A8A" stroke="#4B371F" stroke-width="1.2" stroke-linecap="round" stroke-linejoin="round"/>
</svg>
