<svg width="60" height="48" viewBox="0 0 60 48" fill="none" xmlns="http://www.w3.org/2000/svg">
  <mask id="path-1-outside-1_28641_17247" maskUnits="userSpaceOnUse" x="13" y="3" width="36" height="36" fill="black">
    <rect fill="white" x="13" y="3" width="36" height="36"/>
    <path fill-rule="evenodd" clip-rule="evenodd" d="M38.3027 9.21081L38.3029 9.21102L42.4792 13.3874C44.0507 14.9588 44.7638 17.142 44.6841 19.5352C44.6262 21.2734 44.1501 23.1224 43.2811 24.9284C42.4614 26.6317 41.2922 28.2967 39.7945 29.7945C38.2967 31.2922 36.6317 32.4614 34.9284 33.2811C33.1224 34.1501 31.2734 34.6262 29.5352 34.6841C27.142 34.7638 24.9588 34.0507 23.3874 32.4792L19.2127 28.3046L19.211 28.3029L19.2108 28.3027C15.4215 24.5134 16.6235 17.1677 21.8956 11.8956C27.1677 6.62352 34.5134 5.4215 38.3027 9.21081Z"/>
  </mask>
  <path fill-rule="evenodd" clip-rule="evenodd" d="M38.3027 9.21081L38.3029 9.21102L42.4792 13.3874C44.0507 14.9588 44.7638 17.142 44.6841 19.5352C44.6262 21.2734 44.1501 23.1224 43.2811 24.9284C42.4614 26.6317 41.2922 28.2967 39.7945 29.7945C38.2967 31.2922 36.6317 32.4614 34.9284 33.2811C33.1224 34.1501 31.2734 34.6262 29.5352 34.6841C27.142 34.7638 24.9588 34.0507 23.3874 32.4792L19.2127 28.3046L19.211 28.3029L19.2108 28.3027C15.4215 24.5134 16.6235 17.1677 21.8956 11.8956C27.1677 6.62352 34.5134 5.4215 38.3027 9.21081Z" fill="#4B371F"/>
  <path d="M38.3029 9.21102L41.1313 6.38259V6.38259L38.3029 9.21102ZM38.3027 9.21081L41.1311 6.38238L41.1311 6.38238L38.3027 9.21081ZM42.4792 13.3874L45.3077 10.5589V10.5589L42.4792 13.3874ZM44.6841 19.5352L48.6818 19.6684L44.6841 19.5352ZM43.2811 24.9284L39.6767 23.1939V23.1939L43.2811 24.9284ZM39.7945 29.7945L42.6229 32.6229L42.6229 32.6229L39.7945 29.7945ZM34.9284 33.2811L33.1939 29.6767V29.6767L34.9284 33.2811ZM29.5352 34.6841L29.6684 38.6818L29.5352 34.6841ZM23.3874 32.4792L26.2158 29.6508L26.2158 29.6508L23.3874 32.4792ZM19.2127 28.3046L16.3837 31.1324L16.3843 31.133L19.2127 28.3046ZM19.211 28.3029L22.04 25.475L22.0339 25.4689L19.211 28.3029ZM19.2108 28.3027L16.3824 31.1311L16.3879 31.1366L19.2108 28.3027ZM21.8956 11.8956L24.724 14.724L21.8956 11.8956ZM41.1313 6.38259L41.1311 6.38238L35.4743 12.0392L35.4745 12.0394L41.1313 6.38259ZM45.3077 10.5589L41.1313 6.38259L35.4745 12.0394L39.6508 16.2158L45.3077 10.5589ZM48.6818 19.6684C48.7905 16.4064 47.8157 13.0669 45.3077 10.5589L39.6508 16.2158C40.2858 16.8507 40.737 17.8775 40.6863 19.4021L48.6818 19.6684ZM46.8855 26.6628C47.9638 24.4218 48.6032 22.0303 48.6818 19.6684L40.6863 19.4021C40.6492 20.5165 40.3364 21.8229 39.6767 23.1939L46.8855 26.6628ZM42.6229 32.6229C44.4299 30.8159 45.8651 28.7833 46.8855 26.6628L39.6767 23.1939C39.0578 24.4801 38.1544 25.7776 36.966 26.966L42.6229 32.6229ZM36.6628 36.8854C38.7833 35.8651 40.8159 34.4299 42.6229 32.6229L36.966 26.966C35.7776 28.1544 34.4801 29.0577 33.1939 29.6767L36.6628 36.8854ZM29.6684 38.6818C32.0303 38.6032 34.4218 37.9638 36.6628 36.8854L33.1939 29.6767C31.8229 30.3364 30.5165 30.6492 29.4021 30.6863L29.6684 38.6818ZM20.5589 35.3077C23.0669 37.8157 26.4064 38.7905 29.6684 38.6818L29.4021 30.6863C27.8775 30.737 26.8507 30.2858 26.2158 29.6508L20.5589 35.3077ZM16.3843 31.133L20.5589 35.3077L26.2158 29.6508L22.0411 25.4762L16.3843 31.133ZM16.382 31.1307L16.3837 31.1324L22.0417 25.4767L22.04 25.475L16.382 31.1307ZM16.3879 31.1366L16.3881 31.1368L22.0339 25.4689L22.0337 25.4688L16.3879 31.1366ZM19.0672 9.06717C15.9057 12.2286 13.8433 16.1247 13.2077 20.0092C12.5733 23.8861 13.3451 28.0938 16.3824 31.1311L22.0392 25.4743C21.2872 24.7223 20.7654 23.3624 21.1027 21.3011C21.4387 19.2475 22.6134 16.8346 24.724 14.724L19.0672 9.06717ZM41.1311 6.38238C38.0938 3.34507 33.8861 2.57328 30.0092 3.20769C26.1247 3.84334 22.2286 5.90571 19.0672 9.06717L24.724 14.724C26.8346 12.6134 29.2475 11.4387 31.3011 11.1027C33.3624 10.7654 34.7223 11.2872 35.4743 12.0392L41.1311 6.38238Z" fill="#4B371F" mask="url(#path-1-outside-1_28641_17247)"/>
  <path d="M37.8611 8.86135L42.0375 13.0377C43.6089 14.6092 44.322 16.7923 44.2423 19.1855C44.1844 20.9237 43.7083 22.7727 42.8393 24.5787C42.0196 26.282 40.8504 27.9471 39.3527 29.4448C37.855 30.9425 36.1899 32.1117 34.4866 32.9314C32.6806 33.8004 30.8316 34.2765 29.0934 34.3344C26.7002 34.4141 24.5171 33.7011 22.9456 32.1296L18.7692 27.9532L24.1388 22.5836L28.3152 18.4073L32.4915 14.2309L37.8611 8.86135Z" fill="#8A8A8A"/>
  <path d="M39.3527 29.4448L28.3152 18.4073M39.3527 29.4448C40.8504 27.9471 42.0196 26.282 42.8393 24.5787M39.3527 29.4448C37.855 30.9425 36.1899 32.1117 34.4866 32.9314M28.3152 18.4073C29.7575 16.9649 31.1908 15.5316 32.4915 14.2309L42.8393 24.5787M28.3152 18.4073C26.8924 19.8301 25.4607 21.2617 24.1388 22.5836L34.4866 32.9314M42.8393 24.5787C43.7083 22.7727 44.1844 20.9237 44.2423 19.1855C44.322 16.7923 43.6089 14.6092 42.0375 13.0377C40.6816 11.6818 37.8611 8.86135 37.8611 8.86135L18.7692 27.9532C18.7692 27.9532 21.5897 30.7737 22.9456 32.1296C24.5171 33.7011 26.7002 34.4141 29.0934 34.3344C30.8316 34.2765 32.6806 33.8004 34.4866 32.9314" stroke="#4B371F" stroke-width="1.2" stroke-linecap="round" stroke-linejoin="round"/>
  <ellipse cx="28.3152" cy="18.4071" rx="9.70312" ry="13.5" transform="rotate(45 28.3152 18.4071)" fill="#8A8A8A" stroke="#4B371F" stroke-width="1.2" stroke-linecap="round" stroke-linejoin="round"/>
  <ellipse cx="28.3151" cy="18.407" rx="5.6352" ry="8.4375" transform="rotate(45 28.3151 18.407)" fill="#8A8A8A" stroke="#4B371F" stroke-width="1.2" stroke-linecap="round" stroke-linejoin="round"/>
  <mask id="path-7-outside-2_28641_17247" maskUnits="userSpaceOnUse" x="8" y="24.9951" width="44" height="19" fill="black">
    <rect fill="white" x="8" y="24.9951" width="44" height="19"/>
    <path d="M14.6102 32.9551H19.6022V35.6751H14.6102V32.9551ZM14.8662 37.1471H20.4662V39.9951H11.1542V28.7951H20.2582V31.6431H14.8662V37.1471ZM27.1038 39.9951V38.4431L26.8478 38.0271V35.0831C26.8478 34.6565 26.7145 34.3311 26.4478 34.1071C26.1918 33.8831 25.7705 33.7711 25.1838 33.7711C24.7891 33.7711 24.3891 33.8351 23.9838 33.9631C23.5785 34.0805 23.2318 34.2458 22.9438 34.4591L21.7918 32.0751C22.3038 31.7551 22.9171 31.5098 23.6318 31.3391C24.3465 31.1685 25.0451 31.0831 25.7278 31.0831C27.2318 31.0831 28.3945 31.4191 29.2158 32.0911C30.0478 32.7631 30.4638 33.8298 30.4638 35.2911V39.9951H27.1038ZM24.6238 40.1551C23.9091 40.1551 23.3118 40.0325 22.8318 39.7871C22.3518 39.5418 21.9891 39.2165 21.7438 38.8111C21.4985 38.3951 21.3758 37.9365 21.3758 37.4351C21.3758 36.8698 21.5198 36.3898 21.8078 35.9951C22.0958 35.6005 22.5331 35.3018 23.1198 35.0991C23.7171 34.8965 24.4691 34.7951 25.3758 34.7951H27.1998V36.5391H25.9518C25.5678 36.5391 25.2851 36.6031 25.1038 36.7311C24.9331 36.8485 24.8478 37.0298 24.8478 37.2751C24.8478 37.4778 24.9225 37.6485 25.0718 37.7871C25.2318 37.9151 25.4451 37.9791 25.7118 37.9791C25.9571 37.9791 26.1811 37.9151 26.3838 37.7871C26.5971 37.6485 26.7518 37.4351 26.8478 37.1471L27.3118 38.2191C27.1731 38.8698 26.8798 39.3551 26.4318 39.6751C25.9838 39.9951 25.3811 40.1551 24.6238 40.1551ZM32.0266 39.9951V31.2431H35.4666V33.8831L34.9066 33.1311C35.1732 32.4485 35.5999 31.9365 36.1866 31.5951C36.7732 31.2538 37.4772 31.0831 38.2986 31.0831V34.2831C38.1386 34.2618 37.9946 34.2458 37.8666 34.2351C37.7492 34.2245 37.6266 34.2191 37.4986 34.2191C36.9546 34.2191 36.5066 34.3631 36.1546 34.6511C35.8132 34.9285 35.6426 35.4138 35.6426 36.1071V39.9951H32.0266ZM45.4034 31.0831C46.0754 31.0831 46.6834 31.2218 47.2274 31.4991C47.7714 31.7658 48.1981 32.1871 48.5074 32.7631C48.8274 33.3391 48.9874 34.0858 48.9874 35.0031V39.9951H45.3714V35.6271C45.3714 35.0831 45.2754 34.6991 45.0834 34.4751C44.8914 34.2405 44.6301 34.1231 44.2994 34.1231C44.0541 34.1231 43.8248 34.1818 43.6114 34.2991C43.4088 34.4058 43.2434 34.5871 43.1154 34.8431C42.9981 35.0991 42.9394 35.4458 42.9394 35.8831V39.9951H39.3234V31.2431H42.7634V33.8031L42.0754 33.0671C42.4168 32.4058 42.8754 31.9098 43.4514 31.5791C44.0381 31.2484 44.6888 31.0831 45.4034 31.0831Z"/>
  </mask>
  <path d="M14.6102 32.9551H19.6022V35.6751H14.6102V32.9551ZM14.8662 37.1471H20.4662V39.9951H11.1542V28.7951H20.2582V31.6431H14.8662V37.1471ZM27.1038 39.9951V38.4431L26.8478 38.0271V35.0831C26.8478 34.6565 26.7145 34.3311 26.4478 34.1071C26.1918 33.8831 25.7705 33.7711 25.1838 33.7711C24.7891 33.7711 24.3891 33.8351 23.9838 33.9631C23.5785 34.0805 23.2318 34.2458 22.9438 34.4591L21.7918 32.0751C22.3038 31.7551 22.9171 31.5098 23.6318 31.3391C24.3465 31.1685 25.0451 31.0831 25.7278 31.0831C27.2318 31.0831 28.3945 31.4191 29.2158 32.0911C30.0478 32.7631 30.4638 33.8298 30.4638 35.2911V39.9951H27.1038ZM24.6238 40.1551C23.9091 40.1551 23.3118 40.0325 22.8318 39.7871C22.3518 39.5418 21.9891 39.2165 21.7438 38.8111C21.4985 38.3951 21.3758 37.9365 21.3758 37.4351C21.3758 36.8698 21.5198 36.3898 21.8078 35.9951C22.0958 35.6005 22.5331 35.3018 23.1198 35.0991C23.7171 34.8965 24.4691 34.7951 25.3758 34.7951H27.1998V36.5391H25.9518C25.5678 36.5391 25.2851 36.6031 25.1038 36.7311C24.9331 36.8485 24.8478 37.0298 24.8478 37.2751C24.8478 37.4778 24.9225 37.6485 25.0718 37.7871C25.2318 37.9151 25.4451 37.9791 25.7118 37.9791C25.9571 37.9791 26.1811 37.9151 26.3838 37.7871C26.5971 37.6485 26.7518 37.4351 26.8478 37.1471L27.3118 38.2191C27.1731 38.8698 26.8798 39.3551 26.4318 39.6751C25.9838 39.9951 25.3811 40.1551 24.6238 40.1551ZM32.0266 39.9951V31.2431H35.4666V33.8831L34.9066 33.1311C35.1732 32.4485 35.5999 31.9365 36.1866 31.5951C36.7732 31.2538 37.4772 31.0831 38.2986 31.0831V34.2831C38.1386 34.2618 37.9946 34.2458 37.8666 34.2351C37.7492 34.2245 37.6266 34.2191 37.4986 34.2191C36.9546 34.2191 36.5066 34.3631 36.1546 34.6511C35.8132 34.9285 35.6426 35.4138 35.6426 36.1071V39.9951H32.0266ZM45.4034 31.0831C46.0754 31.0831 46.6834 31.2218 47.2274 31.4991C47.7714 31.7658 48.1981 32.1871 48.5074 32.7631C48.8274 33.3391 48.9874 34.0858 48.9874 35.0031V39.9951H45.3714V35.6271C45.3714 35.0831 45.2754 34.6991 45.0834 34.4751C44.8914 34.2405 44.6301 34.1231 44.2994 34.1231C44.0541 34.1231 43.8248 34.1818 43.6114 34.2991C43.4088 34.4058 43.2434 34.5871 43.1154 34.8431C42.9981 35.0991 42.9394 35.4458 42.9394 35.8831V39.9951H39.3234V31.2431H42.7634V33.8031L42.0754 33.0671C42.4168 32.4058 42.8754 31.9098 43.4514 31.5791C44.0381 31.2484 44.6888 31.0831 45.4034 31.0831Z" fill="#8A8A8A"/>
  <path d="M14.6102 32.9551V29.9551C12.9533 29.9551 11.6102 31.2983 11.6102 32.9551H14.6102ZM19.6022 32.9551H22.6022C22.6022 31.2983 21.259 29.9551 19.6022 29.9551V32.9551ZM19.6022 35.6751V38.6751C21.259 38.6751 22.6022 37.332 22.6022 35.6751H19.6022ZM14.6102 35.6751H11.6102C11.6102 37.332 12.9533 38.6751 14.6102 38.6751V35.6751ZM14.8662 37.1471H11.8662C11.8662 38.804 13.2093 40.1471 14.8662 40.1471V37.1471ZM20.4662 37.1471H23.4662C23.4662 35.4903 22.123 34.1471 20.4662 34.1471V37.1471ZM20.4662 39.9951V42.9951C22.123 42.9951 23.4662 41.652 23.4662 39.9951H20.4662ZM11.1542 39.9951H8.15419C8.15419 41.652 9.49733 42.9951 11.1542 42.9951V39.9951ZM11.1542 28.7951V25.7951C9.49733 25.7951 8.15419 27.1383 8.15419 28.7951H11.1542ZM20.2582 28.7951H23.2582C23.2582 27.1383 21.915 25.7951 20.2582 25.7951V28.7951ZM20.2582 31.6431V34.6431C21.915 34.6431 23.2582 33.3 23.2582 31.6431H20.2582ZM14.8662 31.6431V28.6431C13.2093 28.6431 11.8662 29.9863 11.8662 31.6431H14.8662ZM14.6102 35.9551H19.6022V29.9551H14.6102V35.9551ZM16.6022 32.9551V35.6751H22.6022V32.9551H16.6022ZM19.6022 32.6751H14.6102V38.6751H19.6022V32.6751ZM17.6102 35.6751V32.9551H11.6102V35.6751H17.6102ZM14.8662 40.1471H20.4662V34.1471H14.8662V40.1471ZM17.4662 37.1471V39.9951H23.4662V37.1471H17.4662ZM20.4662 36.9951H11.1542V42.9951H20.4662V36.9951ZM14.1542 39.9951V28.7951H8.15419V39.9951H14.1542ZM11.1542 31.7951H20.2582V25.7951H11.1542V31.7951ZM17.2582 28.7951V31.6431H23.2582V28.7951H17.2582ZM20.2582 28.6431H14.8662V34.6431H20.2582V28.6431ZM11.8662 31.6431V37.1471H17.8662V31.6431H11.8662ZM27.1038 39.9951H24.1038C24.1038 41.652 25.447 42.9951 27.1038 42.9951V39.9951ZM27.1038 38.4431H30.1038C30.1038 37.8879 29.9498 37.3436 29.6588 36.8708L27.1038 38.4431ZM26.8478 38.0271H23.8478C23.8478 38.5823 24.0019 39.1266 24.2928 39.5994L26.8478 38.0271ZM26.4478 34.1071L24.4723 36.3648C24.4875 36.3781 24.5028 36.3913 24.5182 36.4042L26.4478 34.1071ZM23.9838 33.9631L24.818 36.8448C24.8411 36.8381 24.8642 36.8311 24.8872 36.8239L23.9838 33.9631ZM22.9438 34.4591L20.2426 35.7644C20.6314 36.5689 21.3586 37.1583 22.2262 37.372C23.0938 37.5858 24.0115 37.4016 24.7295 36.8698L22.9438 34.4591ZM21.7918 32.0751L20.2018 29.5311C18.9034 30.3426 18.4245 32.0017 19.0906 33.3804L21.7918 32.0751ZM23.6318 31.3391L24.3286 34.2571H24.3286L23.6318 31.3391ZM29.2158 32.0911L27.3161 34.413C27.321 34.417 27.3259 34.421 27.3308 34.4249L29.2158 32.0911ZM30.4638 39.9951V42.9951C32.1207 42.9951 33.4638 41.652 33.4638 39.9951H30.4638ZM22.8318 39.7871L21.4665 42.4584L22.8318 39.7871ZM21.7438 38.8111L19.1597 40.3351C19.1655 40.3449 19.1714 40.3547 19.1773 40.3645L21.7438 38.8111ZM21.8078 35.9951L24.2312 37.7635L21.8078 35.9951ZM23.1198 35.0991L22.1559 32.2582C22.1507 32.26 22.1455 32.2617 22.1403 32.2635L23.1198 35.0991ZM27.1998 34.7951H30.1998C30.1998 33.1383 28.8567 31.7951 27.1998 31.7951V34.7951ZM27.1998 36.5391V39.5391C28.8567 39.5391 30.1998 38.196 30.1998 36.5391H27.1998ZM25.1038 36.7311L26.8034 39.2032C26.8136 39.1962 26.8238 39.1892 26.8339 39.182L25.1038 36.7311ZM25.0718 37.7871L23.0305 39.9855C23.0844 40.0356 23.1402 40.0837 23.1977 40.1297L25.0718 37.7871ZM26.3838 37.7871L27.9858 40.3236C27.9968 40.3166 28.0078 40.3096 28.0188 40.3024L26.3838 37.7871ZM26.8478 37.1471L29.601 35.9554C29.107 34.8142 27.9601 34.096 26.7177 34.1499C25.4753 34.2039 24.395 35.0187 24.0018 36.1984L26.8478 37.1471ZM27.3118 38.2191L30.2459 38.8444C30.3759 38.2347 30.3126 37.5996 30.065 37.0274L27.3118 38.2191ZM26.4318 39.6751L24.6881 37.2339L26.4318 39.6751ZM30.1038 39.9951V38.4431H24.1038V39.9951H30.1038ZM29.6588 36.8708L29.4028 36.4548L24.2928 39.5994L24.5488 40.0154L29.6588 36.8708ZM29.8478 38.0271V35.0831H23.8478V38.0271H29.8478ZM29.8478 35.0831C29.8478 33.9886 29.4737 32.7309 28.3774 31.81L24.5182 36.4042C24.2761 36.2008 24.0875 35.9389 23.9719 35.6568C23.8626 35.3902 23.8478 35.1788 23.8478 35.0831H29.8478ZM28.4233 31.8494C27.3431 30.9042 26.0159 30.7711 25.1838 30.7711V36.7711C25.3003 36.7711 25.2794 36.7837 25.1691 36.7544C25.0557 36.7243 24.7749 36.6296 24.4723 36.3648L28.4233 31.8494ZM25.1838 30.7711C24.46 30.7711 23.7555 30.8892 23.0804 31.1024L24.8872 36.8239C25.0228 36.7811 25.1183 36.7711 25.1838 36.7711V30.7711ZM23.1496 31.0814C22.4612 31.2807 21.7786 31.5888 21.1581 32.0484L24.7295 36.8698C24.685 36.9028 24.6958 36.8802 24.818 36.8448L23.1496 31.0814ZM25.645 33.1539L24.493 30.7699L19.0906 33.3804L20.2426 35.7644L25.645 33.1539ZM23.3818 34.6191C23.566 34.504 23.8638 34.3681 24.3286 34.2571L22.935 28.4212C21.9705 28.6515 21.0416 29.0062 20.2018 29.5311L23.3818 34.6191ZM24.3286 34.2571C24.8323 34.1368 25.2969 34.0831 25.7278 34.0831V28.0831C24.7934 28.0831 23.8607 28.2001 22.935 28.4212L24.3286 34.2571ZM25.7278 34.0831C26.823 34.0831 27.2155 34.3307 27.3161 34.413L31.1155 29.7692C29.5735 28.5076 27.6406 28.0831 25.7278 28.0831V34.0831ZM27.3308 34.4249C27.3311 34.4252 27.3297 34.424 27.3275 34.4217C27.3253 34.4194 27.3243 34.418 27.3247 34.4185C27.3251 34.419 27.3282 34.4235 27.3335 34.4333C27.3388 34.4432 27.347 34.46 27.3568 34.4852C27.3976 34.5897 27.4638 34.8348 27.4638 35.2911H33.4638C33.4638 33.2756 32.8727 31.1884 31.1008 29.7573L27.3308 34.4249ZM27.4638 35.2911V39.9951H33.4638V35.2911H27.4638ZM30.4638 36.9951H27.1038V42.9951H30.4638V36.9951ZM24.6238 37.1551C24.2355 37.1551 24.1396 37.0864 24.1971 37.1158L21.4665 42.4584C22.484 42.9785 23.5828 43.1551 24.6238 43.1551V37.1551ZM24.1971 37.1158C24.1636 37.0987 24.1723 37.0984 24.2031 37.126C24.2357 37.1552 24.2755 37.2001 24.3103 37.2577L19.1773 40.3645C19.7495 41.3099 20.56 41.9951 21.4665 42.4584L24.1971 37.1158ZM24.3279 37.2872C24.341 37.3093 24.3558 37.3421 24.366 37.38C24.3759 37.4173 24.3758 37.4387 24.3758 37.4351H18.3758C18.3758 38.4511 18.6315 39.4393 19.1597 40.3351L24.3279 37.2872ZM24.3758 37.4351C24.3758 37.4076 24.3791 37.4403 24.3573 37.5132C24.3342 37.5901 24.2926 37.6793 24.2312 37.7635L19.3844 34.2267C18.665 35.2126 18.3758 36.3376 18.3758 37.4351H24.3758ZM24.2312 37.7635C24.1573 37.8648 24.0838 37.9252 24.0437 37.9525C24.0079 37.9769 24.0163 37.9634 24.0994 37.9347L22.1403 32.2635C21.1313 32.6121 20.1202 33.2184 19.3844 34.2267L24.2312 37.7635ZM24.0837 37.9401C24.2671 37.8778 24.6662 37.7951 25.3758 37.7951V31.7951C24.2721 31.7951 23.1671 31.9151 22.1559 32.2582L24.0837 37.9401ZM25.3758 37.7951H27.1998V31.7951H25.3758V37.7951ZM24.1998 34.7951V36.5391H30.1998V34.7951H24.1998ZM27.1998 33.5391H25.9518V39.5391H27.1998V33.5391ZM25.9518 33.5391C25.3505 33.5391 24.3125 33.6176 23.3738 34.2802L26.8339 39.182C26.5214 39.4026 26.2449 39.4835 26.1143 39.5131C25.9812 39.5432 25.9154 39.5391 25.9518 39.5391V33.5391ZM23.4042 34.259C22.2611 35.0449 21.8478 36.251 21.8478 37.2751H27.8478C27.8478 37.4971 27.809 37.8443 27.6263 38.2325C27.4347 38.6395 27.1409 38.9712 26.8034 39.2032L23.4042 34.259ZM21.8478 37.2751C21.8478 38.3172 22.2737 39.2828 23.0305 39.9855L27.1132 35.5887C27.3115 35.7729 27.5098 36.0269 27.6523 36.3527C27.795 36.6788 27.8478 36.9993 27.8478 37.2751H21.8478ZM23.1977 40.1297C24.0316 40.7969 24.9712 40.9791 25.7118 40.9791V34.9791C25.9191 34.9791 26.432 35.0334 26.9459 35.4445L23.1977 40.1297ZM25.7118 40.9791C26.5102 40.9791 27.2919 40.7618 27.9858 40.3236L24.7818 35.2507C25.0704 35.0684 25.4041 34.9791 25.7118 34.9791V40.9791ZM28.0188 40.3024C28.906 39.7258 29.4262 38.8989 29.6939 38.0958L24.0018 36.1984C24.0775 35.9713 24.2883 35.5711 24.7488 35.2718L28.0188 40.3024ZM24.0946 38.3388L24.5586 39.4108L30.065 37.0274L29.601 35.9554L24.0946 38.3388ZM24.3777 37.5938C24.3663 37.6474 24.367 37.6076 24.4203 37.5193C24.4784 37.4233 24.5698 37.3184 24.6881 37.2339L28.1755 42.1163C29.3549 41.2739 29.9854 40.0669 30.2459 38.8444L24.3777 37.5938ZM24.6881 37.2339C24.7397 37.1971 24.7855 37.1722 24.8202 37.1564C24.8543 37.1408 24.874 37.1356 24.874 37.1356C24.8737 37.1357 24.8544 37.1407 24.8123 37.1457C24.7701 37.1506 24.7081 37.1551 24.6238 37.1551V43.1551C25.7771 43.1551 27.0594 42.9135 28.1755 42.1163L24.6881 37.2339ZM32.0266 39.9951H29.0266C29.0266 41.652 30.3697 42.9951 32.0266 42.9951V39.9951ZM32.0266 31.2431V28.2431C30.3697 28.2431 29.0266 29.5863 29.0266 31.2431H32.0266ZM35.4666 31.2431H38.4666C38.4666 29.5863 37.1234 28.2431 35.4666 28.2431V31.2431ZM35.4666 33.8831L33.0604 35.6749C33.8328 36.7121 35.1829 37.1376 36.4104 36.7308C37.6379 36.3239 38.4666 35.1763 38.4666 33.8831H35.4666ZM34.9066 33.1311L32.1122 32.0396C31.7357 33.0033 31.8825 34.0931 32.5004 34.9229L34.9066 33.1311ZM36.1866 31.5951L34.6779 29.0021V29.0021L36.1866 31.5951ZM38.2986 31.0831H41.2986C41.2986 29.4263 39.9554 28.0831 38.2986 28.0831V31.0831ZM38.2986 34.2831L37.9021 37.2568C38.7593 37.3711 39.6241 37.1099 40.2747 36.5403C40.9254 35.9706 41.2986 35.1479 41.2986 34.2831H38.2986ZM37.8666 34.2351L37.595 37.2228C37.6024 37.2235 37.6099 37.2241 37.6174 37.2248L37.8666 34.2351ZM36.1546 34.6511L38.0464 36.9795L38.0543 36.973L36.1546 34.6511ZM35.6426 39.9951V42.9951C37.2994 42.9951 38.6426 41.652 38.6426 39.9951H35.6426ZM35.0266 39.9951V31.2431H29.0266V39.9951H35.0266ZM32.0266 34.2431H35.4666V28.2431H32.0266V34.2431ZM32.4666 31.2431V33.8831H38.4666V31.2431H32.4666ZM37.8727 32.0913L37.3127 31.3393L32.5004 34.9229L33.0604 35.6749L37.8727 32.0913ZM37.7009 34.2227C37.7151 34.1864 37.7262 34.1657 37.7313 34.157C37.7362 34.1485 37.7366 34.1492 37.7312 34.1557C37.7257 34.1623 37.718 34.1703 37.709 34.1778C37.7 34.1854 37.6945 34.1886 37.6952 34.1882L34.6779 29.0021C33.4573 29.7123 32.6045 30.7794 32.1122 32.0396L37.7009 34.2227ZM37.6952 34.1882C37.7364 34.1642 37.896 34.0831 38.2986 34.0831V28.0831C37.0585 28.0831 35.8101 28.3433 34.6779 29.0021L37.6952 34.1882ZM35.2986 31.0831V34.2831H41.2986V31.0831H35.2986ZM38.6951 31.3094C38.4979 31.2831 38.3035 31.2611 38.1157 31.2455L37.6174 37.2248C37.6856 37.2304 37.7793 37.2404 37.9021 37.2568L38.6951 31.3094ZM38.1382 31.2474C37.9232 31.2279 37.7096 31.2191 37.4986 31.2191V37.2191C37.5436 37.2191 37.5753 37.221 37.595 37.2228L38.1382 31.2474ZM37.4986 31.2191C36.4034 31.2191 35.2429 31.5208 34.2548 32.3292L38.0543 36.973C37.9293 37.0752 37.7938 37.1443 37.6726 37.1832C37.5578 37.2201 37.4906 37.2191 37.4986 37.2191V31.2191ZM34.2628 32.3228C32.8968 33.4326 32.6426 35.0319 32.6426 36.1071H38.6426C38.6426 35.9893 38.6593 36.0517 38.6007 36.2183C38.5339 36.4081 38.374 36.7133 38.0463 36.9795L34.2628 32.3228ZM32.6426 36.1071V39.9951H38.6426V36.1071H32.6426ZM35.6426 36.9951H32.0266V42.9951H35.6426V36.9951ZM47.2274 31.4991L45.8649 34.1718C45.8788 34.179 45.8929 34.186 45.907 34.1929L47.2274 31.4991ZM48.5074 32.7631L45.8645 34.1825C45.8712 34.1951 45.878 34.2076 45.885 34.22L48.5074 32.7631ZM48.9874 39.9951V42.9951C50.6443 42.9951 51.9874 41.652 51.9874 39.9951H48.9874ZM45.3714 39.9951H42.3714C42.3714 41.652 43.7146 42.9951 45.3714 42.9951V39.9951ZM45.0834 34.4751L42.7616 36.3748C42.7761 36.3926 42.7908 36.4101 42.8057 36.4275L45.0834 34.4751ZM43.6114 34.2991L45.0087 36.9539C45.0249 36.9453 45.0411 36.9366 45.0572 36.9278L43.6114 34.2991ZM43.1154 34.8431L40.4322 33.5015C40.417 33.5318 40.4024 33.5623 40.3882 33.5932L43.1154 34.8431ZM42.9394 39.9951V42.9951C44.5963 42.9951 45.9394 41.652 45.9394 39.9951H42.9394ZM39.3234 39.9951H36.3234C36.3234 41.652 37.6666 42.9951 39.3234 42.9951V39.9951ZM39.3234 31.2431V28.2431C37.6666 28.2431 36.3234 29.5863 36.3234 31.2431H39.3234ZM42.7634 31.2431H45.7634C45.7634 29.5863 44.4203 28.2431 42.7634 28.2431V31.2431ZM42.7634 33.8031L40.5719 35.8518C41.413 36.7516 42.7188 37.0459 43.8646 36.5937C45.0105 36.1416 45.7634 35.0349 45.7634 33.8031H42.7634ZM42.0754 33.0671L39.4096 31.6912C38.8279 32.8182 39.0178 34.1893 39.8839 35.1158L42.0754 33.0671ZM43.4514 31.5791L41.9784 28.9657C41.9715 28.9695 41.9647 28.9734 41.9578 28.9774L43.4514 31.5791ZM45.4034 34.0831C45.6502 34.0831 45.784 34.1306 45.8649 34.1718L48.59 28.8264C47.5829 28.313 46.5007 28.0831 45.4034 28.0831V34.0831ZM45.907 34.1929C45.9011 34.19 45.891 34.1844 45.8786 34.1757C45.8663 34.1669 45.8556 34.1577 45.8475 34.1497C45.8395 34.1418 45.8371 34.1381 45.8396 34.1415C45.8422 34.145 45.8511 34.1576 45.8645 34.1825L51.1504 31.3437C50.5691 30.2613 49.7004 29.3703 48.5479 28.8054L45.907 34.1929ZM45.885 34.22C45.8792 34.2096 45.9874 34.4059 45.9874 35.0031H51.9874C51.9874 33.7657 51.7757 32.4686 51.1299 31.3062L45.885 34.22ZM45.9874 35.0031V39.9951H51.9874V35.0031H45.9874ZM48.9874 36.9951H45.3714V42.9951H48.9874V36.9951ZM48.3714 39.9951V35.6271H42.3714V39.9951H48.3714ZM48.3714 35.6271C48.3714 34.9012 48.2773 33.5915 47.3612 32.5227L42.8057 36.4275C42.5132 36.0863 42.4172 35.7713 42.389 35.6587C42.36 35.5429 42.3714 35.516 42.3714 35.6271H48.3714ZM47.4053 32.5754C46.5872 31.5755 45.4371 31.1231 44.2994 31.1231V37.1231C44.1062 37.1231 43.8256 37.0875 43.5147 36.9479C43.1963 36.805 42.9424 36.5959 42.7616 36.3748L47.4053 32.5754ZM44.2994 31.1231C43.5526 31.1231 42.8255 31.3076 42.1657 31.6705L45.0572 36.9278C44.8241 37.056 44.5556 37.1231 44.2994 37.1231V31.1231ZM42.2142 31.6444C41.3306 32.1094 40.7701 32.8256 40.4322 33.5015L45.7987 36.1848C45.7168 36.3486 45.4869 36.7022 45.0087 36.9539L42.2142 31.6444ZM40.3882 33.5932C40.0193 34.3981 39.9394 35.2286 39.9394 35.8831H45.9394C45.9394 35.7935 45.9458 35.7695 45.9414 35.7957C45.9373 35.82 45.9165 35.932 45.8426 36.0931L40.3882 33.5932ZM39.9394 35.8831V39.9951H45.9394V35.8831H39.9394ZM42.9394 36.9951H39.3234V42.9951H42.9394V36.9951ZM42.3234 39.9951V31.2431H36.3234V39.9951H42.3234ZM39.3234 34.2431H42.7634V28.2431H39.3234V34.2431ZM39.7634 31.2431V33.8031H45.7634V31.2431H39.7634ZM44.955 31.7545L44.267 31.0185L39.8839 35.1158L40.5719 35.8518L44.955 31.7545ZM44.7413 34.443C44.8509 34.2307 44.9284 34.1904 44.945 34.1809L41.9578 28.9774C40.8224 29.6292 39.9827 30.5808 39.4096 31.6912L44.7413 34.443ZM44.9245 34.1926C45.0339 34.1309 45.1721 34.0831 45.4034 34.0831V28.0831C44.2054 28.0831 43.0423 28.366 41.9784 28.9657L44.9245 34.1926Z" fill="#4B371F" mask="url(#path-7-outside-2_28641_17247)"/>
</svg>
