<svg width="33" height="28" viewBox="0 0 33 28" fill="none" xmlns="http://www.w3.org/2000/svg">
  <path d="M30.8863 6.66992V27.3171H2.15063V6.66992" fill="#8A8A8A"/>
  <path d="M30.2037 6.66992V27.3171C30.2037 27.136 30.2756 26.9623 30.4037 26.8342C30.5318 26.7062 30.7055 26.6342 30.8866 26.6342H2.15094C2.33207 26.6342 2.50577 26.7062 2.63385 26.8342C2.76192 26.9623 2.83387 27.136 2.83387 27.3171V6.66992H1.46802V27.3171C1.46802 27.4983 1.53997 27.672 1.66804 27.8C1.79612 27.9281 1.96982 28.0001 2.15094 28.0001H30.8866C31.0677 28.0001 31.2414 27.9281 31.3695 27.8C31.4976 27.672 31.5695 27.4983 31.5695 27.3171V6.66992H30.2037Z" fill="#4B371F"/>
  <path opacity="0.15" d="M31.0412 9.99724L30.9303 9.39968C30.6678 10.4555 29.9343 11.6185 27.9703 11.6185C24.0529 11.6185 23.858 8.61404 23.8687 7.87975C23.818 8.61404 23.4018 11.6185 19.9955 11.6185C16.0535 11.6185 15.8864 8.51829 15.8962 7.84766C15.8589 8.51843 15.5125 11.6185 12.3052 11.6185C8.45829 11.6185 8.20765 8.64982 8.20615 7.89314C8.11082 9.64744 6.5872 11.0421 4.72186 11.0421C3.3657 11.0421 2.64548 10.3047 2.33748 9.22826L2.15063 9.99738C2.15063 11.8328 2.79491 13.3206 4.72172 13.3206C6.58707 13.3206 8.11068 11.926 8.20602 10.1717C8.20752 10.9285 8.45815 13.8972 12.3051 13.8972C15.5122 13.8972 15.8588 10.7969 15.8961 10.1262C15.8862 10.7969 16.0533 13.8972 19.9954 13.8972C23.4018 13.8972 23.818 10.8926 23.8687 10.1583C23.8582 10.8926 24.0532 13.8972 27.9703 13.8972C28.3255 13.8972 28.6389 13.858 28.918 13.7894V25.1092H2.83329V26.7708H30.2031V13.0688C31.2988 11.9241 31.0412 9.99724 31.0412 9.99724Z" fill="#4B371F"/>
  <path d="M7.22227 7.74951C7.22227 9.73 5.53653 11.3353 3.45743 11.3353C1.37833 11.3353 0.683105 9.72986 0.683105 7.74951L2.15126 1.7041H7.99057L7.22227 7.74951Z" fill="#8A8A8A"/>
  <path d="M6.53917 7.74885C6.53917 9.34949 5.15665 10.6517 3.45725 10.6517C2.94 10.6517 1.36585 10.6517 1.36585 7.74885C1.36585 7.80293 1.35944 7.85716 1.3466 7.91002L2.81475 1.86461C2.77862 2.01338 2.69355 2.14569 2.5732 2.24031C2.45284 2.33493 2.30418 2.38637 2.15108 2.38636H7.99039C7.89341 2.38641 7.79754 2.36579 7.70916 2.32588C7.62078 2.28598 7.54191 2.2277 7.47782 2.15493C7.41372 2.08216 7.36586 1.99657 7.33743 1.90386C7.309 1.81115 7.30064 1.71344 7.31292 1.61725L6.54463 7.66266C6.54094 7.69121 6.53917 7.72003 6.53917 7.74885ZM7.99039 1.02051H2.15108C1.99799 1.0205 1.84933 1.07194 1.72897 1.16656C1.60862 1.26118 1.52355 1.39349 1.48742 1.54226L0.0192586 7.58767C0.00643677 7.64044 -2.86495e-05 7.69455 9.54264e-08 7.74885C9.54264e-08 10.4617 1.26014 12.0176 3.45725 12.0176C5.90978 12.0176 7.90502 10.1026 7.90502 7.74885C7.90502 7.77766 7.90325 7.80635 7.89956 7.83489L8.66785 1.78948C8.68014 1.6933 8.67178 1.5956 8.64335 1.50289C8.61492 1.41019 8.56706 1.32461 8.50296 1.25185C8.43886 1.17909 8.35999 1.12082 8.2716 1.08093C8.18322 1.04104 8.08735 1.02044 7.99039 1.02051Z" fill="#4B371F"/>
  <path d="M7.99086 1.7041L7.22257 7.74951C7.22257 7.74951 6.88343 11.9574 11.6404 11.9574C15.5204 11.9574 15.5205 7.74951 15.5205 7.74951V1.7041" fill="#8A8A8A"/>
  <path d="M7.31307 1.61621L6.54477 7.66162C6.5434 7.67202 6.54231 7.68245 6.5415 7.6929C6.5348 7.7754 6.39398 9.72925 7.72638 11.1732C8.62347 12.1459 9.94029 12.6387 11.6401 12.6387C15.2492 12.6387 16.203 9.43942 16.2031 7.74781V1.70226H14.8373V7.74767C14.8351 8.10662 14.7267 11.2727 11.6401 11.2727C10.3372 11.2727 9.35816 10.9275 8.73014 10.2469C7.81379 9.2538 7.90175 7.81678 7.90284 7.80258C7.90201 7.81303 7.90092 7.82346 7.89957 7.83385L8.66786 1.78845L7.31307 1.61621Z" fill="#4B371F"/>
  <path d="M15.5204 1.70711V7.74951C15.5204 7.74951 15.1697 11.9574 19.9384 11.9574C24.1258 11.9574 24.1257 7.74951 24.1257 7.74951V1.7041" fill="#8A8A8A"/>
  <path d="M14.8371 1.70711V7.74951C14.8371 7.73053 14.8379 7.71168 14.8394 7.69269C14.8326 7.77505 14.6866 9.72672 16.0156 11.1713C16.9125 12.1461 18.2322 12.6404 19.938 12.6404C21.3572 12.6404 22.5089 12.2081 23.3614 11.3555C24.7917 9.92505 24.8081 7.83775 24.8081 7.74951V1.7041H23.4423V7.74951C23.4396 8.10819 23.3199 11.2745 19.938 11.2745C18.6298 11.2745 17.6483 10.9287 17.0209 10.2464C16.1078 9.25414 16.1996 7.8204 16.2008 7.8062C16.2023 7.78729 16.2031 7.76834 16.2031 7.74938V1.70711H14.8371Z" fill="#4B371F"/>
  <path d="M2.15039 1.7041H30.7327L31.8566 7.74951C31.8566 7.74951 32.4229 11.9574 28.5427 11.9574C23.7278 11.9574 24.1241 7.74951 24.1241 7.74951L24.1244 2.39003" fill="#8A8A8A"/>
  <path d="M2.15039 2.38636H30.7327C30.5732 2.38634 30.4188 2.33053 30.2961 2.2286C30.1735 2.12667 30.0904 1.98505 30.0612 1.82827L31.1852 7.87368C31.1831 7.86248 31.1814 7.85123 31.1799 7.83995C31.1818 7.85483 31.3873 9.54153 30.5178 10.5296C30.0773 11.0304 29.4313 11.2738 28.5427 11.2738C27.214 11.2738 26.2232 10.9249 25.5968 10.2369C24.6967 9.24814 24.803 7.82697 24.8042 7.8129C24.8062 7.7916 24.8071 7.77015 24.8071 7.74884L24.8073 2.38937H23.4415L23.4413 7.74884C23.4413 7.7274 23.4424 7.70609 23.4442 7.68479C23.4364 7.76687 23.2702 9.70994 24.5865 11.1562C25.4825 12.1406 26.8135 12.6397 28.5424 12.6397C29.8327 12.6397 30.8445 12.2308 31.55 11.4242C32.8268 9.96426 32.546 7.75117 32.5333 7.65774C32.5317 7.64646 32.5299 7.63522 32.528 7.62401L31.404 1.5786C31.3748 1.42183 31.2918 1.28021 31.1692 1.17828C31.0465 1.07635 30.8921 1.02053 30.7327 1.02051H2.15039V2.38636Z" fill="#4B371F"/>
  <path d="M5.25757 16.6992H15.8491V23.5184H5.25757V16.6992Z" fill="#8A8A8A"/>
  <path d="M5.25861 17.3815H15.8501C15.669 17.3815 15.4953 17.3095 15.3672 17.1815C15.2392 17.0534 15.1672 16.8797 15.1672 16.6986V23.5177C15.1672 23.3366 15.2392 23.1629 15.3672 23.0348C15.4953 22.9067 15.669 22.8348 15.8501 22.8348H5.25861C5.43973 22.8348 5.61344 22.9067 5.74151 23.0348C5.86959 23.1629 5.94154 23.3366 5.94154 23.5177V16.6986C5.94154 16.8797 5.86959 17.0534 5.74151 17.1815C5.61344 17.3095 5.43973 17.3815 5.25861 17.3815ZM5.25861 24.2006H15.8501C16.0313 24.2006 16.205 24.1287 16.333 24.0006C16.4611 23.8725 16.5331 23.6988 16.5331 23.5177V16.6986C16.5331 16.5174 16.4611 16.3437 16.333 16.2157C16.205 16.0876 16.0313 16.0156 15.8501 16.0156H5.25861C5.07749 16.0156 4.90378 16.0876 4.77571 16.2157C4.64763 16.3437 4.57568 16.5174 4.57568 16.6986V23.5177C4.57568 23.8947 4.8815 24.2006 5.25861 24.2006Z" fill="#4B371F"/>
  <path d="M19.4041 16.6992H27.5992V27.3171H19.4041V16.6992Z" fill="#8A8A8A"/>
  <path opacity="0.22" d="M5.94116 22.8351L11.3943 17.3818H15.1668L9.71365 22.8351H5.94116Z" fill="#8A8A8A"/>
  <path opacity="0.44" d="M12.051 22.8351L15.167 19.719V17.3818H13.0071L7.55396 22.8351H12.051Z" fill="#8A8A8A"/>
  <path opacity="0.15" d="M5.94116 17.3818V22.8351H7.15664V18.325H15.1668V17.3818H5.94116Z" fill="#4B371F"/>
  <path opacity="0.22" d="M19.321 26.6536L25.7773 17.3813L27.3531 17.1357L22.6054 26.6536H19.321Z" fill="#8A8A8A"/>
  <path opacity="0.27" d="M24.6402 26.6536L27.3533 23.287V17.1357L26.9158 18.848L20.7251 26.6536H24.6402Z" fill="#8A8A8A"/>
  <path d="M27.5985 26.6335H19.4034C19.7808 26.6335 20.0863 26.9392 20.0863 27.3164V16.6986C20.0863 17.0758 19.7808 17.3815 19.4034 17.3815H27.5985C27.4174 17.3815 27.2437 17.3095 27.1156 17.1815C26.9875 17.0534 26.9156 16.8797 26.9156 16.6986V27.3164C26.9156 27.1353 26.9875 26.9616 27.1156 26.8335C27.2437 26.7055 27.4174 26.6335 27.5985 26.6335ZM27.5985 16.0156H19.4034C19.2223 16.0156 19.0486 16.0876 18.9205 16.2157C18.7924 16.3437 18.7205 16.5174 18.7205 16.6986V27.3164C18.7205 27.4976 18.7924 27.6713 18.9205 27.7993C19.0486 27.9274 19.2223 27.9994 19.4034 27.9994H27.5985C27.9759 27.9994 28.2814 27.6937 28.2814 27.3164V16.6986C28.2814 16.5174 28.2095 16.3437 28.0814 16.2157C27.9533 16.0876 27.7796 16.0156 27.5985 16.0156Z" fill="#4B371F"/>
  <path opacity="0.15" d="M20.0859 17.3821V26.7025H21.2696V18.5073H27.0062V17.3821H20.0859ZM2.83356 0H30.0499V1.02139H2.83356V0ZM2.15063 2.38724H30.4267V3.79312H2.15063V2.38724Z" fill="#4B371F"/>
  <path opacity="0.2" d="M19.9385 11.9578C23.2819 11.9578 23.9553 9.2768 24.0912 8.19531H15.5229C15.5868 9.27488 16.1284 11.9578 19.9385 11.9578ZM31.8853 8.19531H24.1233C24.1774 9.27666 24.6997 11.9578 28.5437 11.9578C31.6422 11.9578 31.9051 9.27652 31.8853 8.19531ZM11.6403 11.9578C14.7403 11.9578 15.3628 9.27488 15.4882 8.19531H7.22603C7.2931 9.27652 7.84176 11.9578 11.6403 11.9578ZM3.45764 11.3357C5.3783 11.3357 6.96201 9.96546 7.19243 8.19531H0.696289C0.797909 9.96532 1.53697 11.3357 3.45764 11.3357Z" fill="#4B371F"/>
</svg>
