<svg width="40" height="31" viewBox="0 0 40 31" fill="none" xmlns="http://www.w3.org/2000/svg">
  <path d="M37.4375 13.6981C35.9078 6.75109 31.7013 1.78251 27.7872 2.00733H27.6298C26.0696 2.00503 24.5606 2.56361 23.3783 3.58109C22.9546 4.05663 22.4347 4.43682 21.8531 4.69649C21.2714 4.95617 20.6411 5.08941 20.0041 5.0874C19.3926 5.08524 18.788 4.95852 18.2272 4.71499C17.6664 4.47147 17.1612 4.11625 16.7423 3.67102C15.5499 2.6005 14.0037 2.00801 12.4008 2.00733H12.2209C8.30681 1.78251 4.1003 6.75109 2.57066 13.6981C0.92855 21.0723 2.95307 27.8844 7.0696 28.8737C10.0839 29.6156 13.3906 27.0076 15.5951 22.691H24.503C26.7525 27.0301 30.0142 29.6156 33.0285 28.8737C37.055 27.862 39.0571 21.0723 37.4375 13.6981Z" fill="#8A8A8A" stroke="#4B371F" stroke-width="4" stroke-linejoin="round"/>
  <path d="M14.0051 13.2578H13.0051V14.2578V16.3154H12.6456V14.2578V13.2578H11.6456H9.72632V12.7998H11.6456H12.6456V11.7998V9.74219H13.0051V11.7998V12.7998H14.0051H15.9125L15.9162 13.2578H14.0051ZM25.2761 13.558L25.2633 13.5583L25.2505 13.559C25.1426 13.5646 25.0356 13.5377 24.9432 13.4819C24.8508 13.4262 24.7774 13.3441 24.7323 13.2463C24.6872 13.1485 24.6725 13.0395 24.69 12.9334C24.7075 12.8272 24.7564 12.7286 24.8306 12.6504C24.9048 12.5722 25.0008 12.5179 25.1063 12.4947C25.2118 12.4715 25.3218 12.4805 25.4221 12.5204C25.5224 12.5602 25.6084 12.6292 25.669 12.7183C25.7295 12.8074 25.7619 12.9126 25.7621 13.0202L25.7621 13.033L25.7624 13.0458C25.7642 13.1113 25.7531 13.1764 25.7296 13.2376C25.7062 13.2987 25.6709 13.3547 25.6258 13.4023C25.5806 13.4499 25.5265 13.4881 25.4665 13.5149C25.4065 13.5416 25.3418 13.5562 25.2761 13.558ZM29.9413 13.5576H29.9153L29.8894 13.559C29.7815 13.5646 29.6745 13.5377 29.5821 13.4819C29.4897 13.4262 29.4163 13.3441 29.3712 13.2463C29.3261 13.1485 29.3114 13.0395 29.3289 12.9334C29.3464 12.8272 29.3954 12.7286 29.4695 12.6504C29.5437 12.5722 29.6397 12.5179 29.7452 12.4947C29.8507 12.4715 29.9607 12.4805 30.061 12.5204C30.1613 12.5602 30.2473 12.6292 30.3079 12.7183C30.3684 12.8074 30.4008 12.9126 30.401 13.0202L30.401 13.0339L30.4014 13.0477C30.4051 13.1765 30.3587 13.3019 30.2719 13.3974C30.1904 13.487 30.0793 13.5438 29.9593 13.5576H29.9413Z" fill="#4B371F" stroke="#4B371F" stroke-width="2"/>
</svg>
