<svg width="60" height="48" viewBox="0 0 60 48" fill="none" xmlns="http://www.w3.org/2000/svg">
  <mask id="path-1-outside-1_28641_17276" maskUnits="userSpaceOnUse" x="13" y="1" width="38" height="33" fill="black">
    <rect fill="white" x="13" y="1" width="38" height="33"/>
    <path fill-rule="evenodd" clip-rule="evenodd" d="M45.034 2.76173C45.0738 3.00023 45.0172 3.24475 44.8766 3.44152L43.3576 5.56818C43.2171 5.76494 43.0041 5.89782 42.7656 5.93759C42.5272 5.97736 42.2826 5.92076 42.0859 5.78023C41.8891 5.63971 41.7562 5.42678 41.7164 5.18828C41.6767 4.94978 41.7333 4.70526 41.8738 4.50849L43.3928 2.38183C43.5334 2.18507 43.7463 2.05219 43.9848 2.01242C44.2233 1.97265 44.4678 2.02925 44.6646 2.16978C44.8613 2.3103 44.9942 2.52323 45.034 2.76173ZM46.638 6.92434C46.5612 7.15355 46.3964 7.34284 46.18 7.45057L44.8444 8.1147C44.7372 8.16906 44.6202 8.20166 44.5003 8.21061C44.3803 8.21956 44.2598 8.20469 44.1456 8.16685C44.0315 8.12901 43.9259 8.06895 43.8351 7.99013C43.7443 7.91131 43.6699 7.8153 43.6164 7.70762C43.5628 7.59994 43.5311 7.48272 43.523 7.36272C43.515 7.24273 43.5308 7.12232 43.5695 7.00845C43.6082 6.89458 43.669 6.7895 43.7485 6.69925C43.828 6.60901 43.9246 6.53539 44.0327 6.48264L45.3676 5.81851C45.584 5.71079 45.8344 5.69344 46.0636 5.7703C46.2928 5.84716 46.4821 6.01193 46.5898 6.22835C46.6975 6.44478 46.7149 6.69513 46.638 6.92434ZM40.0775 2.23109C39.9634 2.19466 39.8433 2.18105 39.7241 2.19104C39.6048 2.201 39.4886 2.23436 39.3822 2.28922C39.2758 2.34408 39.1812 2.41937 39.1039 2.51077C39.0266 2.60218 38.9681 2.70792 38.9317 2.82196C38.8952 2.93599 38.8816 3.05609 38.8916 3.17538L38.9931 4.38818C39.0031 4.50748 39.0364 4.62363 39.0913 4.73003C39.1462 4.83642 39.2215 4.93097 39.3129 5.00827C39.4043 5.08556 39.51 5.1441 39.624 5.18054C39.7381 5.21697 39.8581 5.23059 39.9774 5.22062C40.0967 5.21065 40.2129 5.17727 40.3193 5.12241C40.4257 5.06754 40.5202 4.99226 40.5975 4.90085C40.6748 4.80945 40.7333 4.70371 40.7698 4.58969C40.8062 4.47566 40.8198 4.35557 40.8099 4.23628L40.7084 3.02348C40.6984 2.90418 40.6651 2.78801 40.6102 2.68161C40.5554 2.57521 40.4801 2.48066 40.3887 2.40336C40.2973 2.32605 40.1915 2.26752 40.0775 2.23109ZM17.4658 6.83489C17.9081 6.65167 18.3822 6.55738 18.8609 6.55738H38.9123C39.8792 6.55738 40.8065 6.94148 41.4902 7.62518C42.1739 8.30888 42.558 9.23618 42.558 10.2031V13.6063C42.9932 13.1626 43.5204 12.8197 44.1025 12.6016C44.6846 12.3836 45.3074 12.2958 45.927 12.3444C46.5467 12.393 47.1481 12.5768 47.6891 12.8829C48.2301 13.189 48.6974 13.61 49.0581 14.1162C49.4188 14.6223 49.6643 15.2014 49.7771 15.8126C49.8899 16.4239 49.8674 17.0524 49.7111 17.654C49.5549 18.2556 49.2687 18.8156 48.8726 19.2947C48.4766 19.7738 47.9804 20.1602 47.4189 20.4268V23.5706C47.4189 24.0494 47.3246 24.5235 47.1414 24.9658C46.9582 25.4081 46.6896 25.81 46.3511 26.1485C46.0126 26.4871 45.6107 26.7556 45.1684 26.9388C44.726 27.122 44.252 27.2163 43.7732 27.2163C43.7732 28.5055 43.2611 29.7419 42.3495 30.6535C41.4379 31.5651 40.2015 32.0773 38.9123 32.0773H18.8609C17.5717 32.0773 16.3353 31.5651 15.4237 30.6535C14.5121 29.7419 14 28.5055 14 27.2163V22.963C13.9998 22.5363 14.112 22.117 14.3253 21.7474C14.5387 21.3778 14.8456 21.0709 15.2152 20.8576V10.2031C15.2152 9.72432 15.3095 9.25024 15.4927 8.80793C15.676 8.36561 15.9445 7.96371 16.283 7.62518C16.6216 7.28664 17.0235 7.0181 17.4658 6.83489ZM44.9884 20.7932C44.0647 20.6606 43.2104 20.2271 42.558 19.5598V19.5604V20.8576C43.2847 21.2781 43.7732 22.0637 43.7732 22.963V24.7859C44.0955 24.7859 44.4046 24.6578 44.6325 24.4299C44.8604 24.202 44.9884 23.8929 44.9884 23.5706V20.7932Z"/>
  </mask>
  <path fill-rule="evenodd" clip-rule="evenodd" d="M45.034 2.76173C45.0738 3.00023 45.0172 3.24475 44.8766 3.44152L43.3576 5.56818C43.2171 5.76494 43.0041 5.89782 42.7656 5.93759C42.5272 5.97736 42.2826 5.92076 42.0859 5.78023C41.8891 5.63971 41.7562 5.42678 41.7164 5.18828C41.6767 4.94978 41.7333 4.70526 41.8738 4.50849L43.3928 2.38183C43.5334 2.18507 43.7463 2.05219 43.9848 2.01242C44.2233 1.97265 44.4678 2.02925 44.6646 2.16978C44.8613 2.3103 44.9942 2.52323 45.034 2.76173ZM46.638 6.92434C46.5612 7.15355 46.3964 7.34284 46.18 7.45057L44.8444 8.1147C44.7372 8.16906 44.6202 8.20166 44.5003 8.21061C44.3803 8.21956 44.2598 8.20469 44.1456 8.16685C44.0315 8.12901 43.9259 8.06895 43.8351 7.99013C43.7443 7.91131 43.6699 7.8153 43.6164 7.70762C43.5628 7.59994 43.5311 7.48272 43.523 7.36272C43.515 7.24273 43.5308 7.12232 43.5695 7.00845C43.6082 6.89458 43.669 6.7895 43.7485 6.69925C43.828 6.60901 43.9246 6.53539 44.0327 6.48264L45.3676 5.81851C45.584 5.71079 45.8344 5.69344 46.0636 5.7703C46.2928 5.84716 46.4821 6.01193 46.5898 6.22835C46.6975 6.44478 46.7149 6.69513 46.638 6.92434ZM40.0775 2.23109C39.9634 2.19466 39.8433 2.18105 39.7241 2.19104C39.6048 2.201 39.4886 2.23436 39.3822 2.28922C39.2758 2.34408 39.1812 2.41937 39.1039 2.51077C39.0266 2.60218 38.9681 2.70792 38.9317 2.82196C38.8952 2.93599 38.8816 3.05609 38.8916 3.17538L38.9931 4.38818C39.0031 4.50748 39.0364 4.62363 39.0913 4.73003C39.1462 4.83642 39.2215 4.93097 39.3129 5.00827C39.4043 5.08556 39.51 5.1441 39.624 5.18054C39.7381 5.21697 39.8581 5.23059 39.9774 5.22062C40.0967 5.21065 40.2129 5.17727 40.3193 5.12241C40.4257 5.06754 40.5202 4.99226 40.5975 4.90085C40.6748 4.80945 40.7333 4.70371 40.7698 4.58969C40.8062 4.47566 40.8198 4.35557 40.8099 4.23628L40.7084 3.02348C40.6984 2.90418 40.6651 2.78801 40.6102 2.68161C40.5554 2.57521 40.4801 2.48066 40.3887 2.40336C40.2973 2.32605 40.1915 2.26752 40.0775 2.23109ZM17.4658 6.83489C17.9081 6.65167 18.3822 6.55738 18.8609 6.55738H38.9123C39.8792 6.55738 40.8065 6.94148 41.4902 7.62518C42.1739 8.30888 42.558 9.23618 42.558 10.2031V13.6063C42.9932 13.1626 43.5204 12.8197 44.1025 12.6016C44.6846 12.3836 45.3074 12.2958 45.927 12.3444C46.5467 12.393 47.1481 12.5768 47.6891 12.8829C48.2301 13.189 48.6974 13.61 49.0581 14.1162C49.4188 14.6223 49.6643 15.2014 49.7771 15.8126C49.8899 16.4239 49.8674 17.0524 49.7111 17.654C49.5549 18.2556 49.2687 18.8156 48.8726 19.2947C48.4766 19.7738 47.9804 20.1602 47.4189 20.4268V23.5706C47.4189 24.0494 47.3246 24.5235 47.1414 24.9658C46.9582 25.4081 46.6896 25.81 46.3511 26.1485C46.0126 26.4871 45.6107 26.7556 45.1684 26.9388C44.726 27.122 44.252 27.2163 43.7732 27.2163C43.7732 28.5055 43.2611 29.7419 42.3495 30.6535C41.4379 31.5651 40.2015 32.0773 38.9123 32.0773H18.8609C17.5717 32.0773 16.3353 31.5651 15.4237 30.6535C14.5121 29.7419 14 28.5055 14 27.2163V22.963C13.9998 22.5363 14.112 22.117 14.3253 21.7474C14.5387 21.3778 14.8456 21.0709 15.2152 20.8576V10.2031C15.2152 9.72432 15.3095 9.25024 15.4927 8.80793C15.676 8.36561 15.9445 7.96371 16.283 7.62518C16.6216 7.28664 17.0235 7.0181 17.4658 6.83489ZM44.9884 20.7932C44.0647 20.6606 43.2104 20.2271 42.558 19.5598V19.5604V20.8576C43.2847 21.2781 43.7732 22.0637 43.7732 22.963V24.7859C44.0955 24.7859 44.4046 24.6578 44.6325 24.4299C44.8604 24.202 44.9884 23.8929 44.9884 23.5706V20.7932Z" fill="#4B371F"/>
  <path d="M44.8766 3.44152L45.6904 4.02276L45.6904 4.0227L44.8766 3.44152ZM43.3576 5.56818L42.5439 4.98694L42.5438 4.987L43.3576 5.56818ZM42.7656 5.93759L42.6012 4.95121L42.6012 4.95121L42.7656 5.93759ZM41.8738 4.50849L41.0601 3.92726L41.06 3.92732L41.8738 4.50849ZM43.3928 2.38183L44.2066 2.96307L44.2066 2.96301L43.3928 2.38183ZM43.9848 2.01242L43.8203 1.02604L43.8203 1.02604L43.9848 2.01242ZM44.6646 2.16978L44.0834 2.98356L44.6646 2.16978ZM46.18 7.45057L46.6252 8.34598L46.6256 8.3458L46.18 7.45057ZM44.8444 8.1147L44.3992 7.21927L44.3924 7.22271L44.8444 8.1147ZM44.1456 8.16685L43.831 9.11606L43.831 9.11606L44.1456 8.16685ZM43.523 7.36272L42.5253 7.42965V7.42966L43.523 7.36272ZM43.5695 7.00845L42.6226 6.68668L42.6226 6.6867L43.5695 7.00845ZM43.7485 6.69925L42.9981 6.03823L42.9981 6.03824L43.7485 6.69925ZM44.0327 6.48264L44.4713 7.38134L44.4781 7.37796L44.0327 6.48264ZM45.3676 5.81851L45.813 6.71384L45.8132 6.71374L45.3676 5.81851ZM46.5898 6.22835L45.6946 6.67396L45.6946 6.67397L46.5898 6.22835ZM39.7241 2.19104L39.8072 3.18758L39.8075 3.18755L39.7241 2.19104ZM40.0775 2.23109L39.7732 3.18366L40.0775 2.23109ZM39.3822 2.28922L39.8405 3.17804L39.3822 2.28922ZM39.1039 2.51077L38.3404 1.86504L38.3404 1.86505L39.1039 2.51077ZM38.8916 3.17538L39.8881 3.09201L39.8881 3.09193L38.8916 3.17538ZM38.9931 4.38818L39.9896 4.30485L39.9896 4.30481L38.9931 4.38818ZM39.0913 4.73003L38.2025 5.18835L38.2025 5.18837L39.0913 4.73003ZM39.624 5.18054L39.9284 4.22799L39.9284 4.22799L39.624 5.18054ZM39.9774 5.22062L39.8941 4.2241L39.8941 4.2241L39.9774 5.22062ZM40.5975 4.90085L39.8339 4.25512V4.25512L40.5975 4.90085ZM40.8099 4.23628L41.8064 4.15295L41.8064 4.1529L40.8099 4.23628ZM40.7084 3.02348L39.7119 3.10665L39.7119 3.10686L40.7084 3.02348ZM40.6102 2.68161L39.7214 3.13987L39.7214 3.13989L40.6102 2.68161ZM40.3887 2.40336L39.7429 3.16692V3.16692L40.3887 2.40336ZM17.4658 6.83489L17.0831 5.91101L17.0831 5.91101L17.4658 6.83489ZM41.4902 7.62518L40.7831 8.33228L40.7831 8.33228L41.4902 7.62518ZM42.558 13.6063H41.558V16.0539L43.2719 14.3066L42.558 13.6063ZM44.1025 12.6016L43.7517 11.6652L44.1025 12.6016ZM45.927 12.3444L45.8488 13.3413L45.927 12.3444ZM49.7771 15.8126L48.7937 15.9942V15.9942L49.7771 15.8126ZM49.7111 17.654L50.679 17.9054L49.7111 17.654ZM48.8726 19.2947L48.1019 18.6576L48.1019 18.6576L48.8726 19.2947ZM47.4189 20.4268L46.99 19.5235L46.4189 19.7947V20.4268H47.4189ZM47.1414 24.9658L48.0653 25.3485V25.3485L47.1414 24.9658ZM46.3511 26.1485L47.0582 26.8556L47.0582 26.8556L46.3511 26.1485ZM45.1684 26.9388L45.551 27.8627L45.551 27.8627L45.1684 26.9388ZM43.7732 27.2163V26.2163H42.7732V27.2163H43.7732ZM42.3495 30.6535L43.0566 31.3606H43.0566L42.3495 30.6535ZM15.4237 30.6535L14.7166 31.3606H14.7166L15.4237 30.6535ZM14 22.963H15L15 22.9625L14 22.963ZM14.3253 21.7474L15.1914 22.2473L15.1914 22.2473L14.3253 21.7474ZM15.2152 20.8576L15.715 21.7238L16.2152 21.4352V20.8576H15.2152ZM15.4927 8.80793L16.4166 9.19061V9.19061L15.4927 8.80793ZM16.283 7.62518L15.5759 6.91807H15.5759L16.283 7.62518ZM42.558 19.5598L43.273 18.8607L41.558 17.1066V19.5598H42.558ZM44.9884 20.7932H45.9884V19.9265L45.1306 19.8034L44.9884 20.7932ZM42.558 20.8576H41.558V21.4344L42.0572 21.7232L42.558 20.8576ZM43.7732 24.7859H42.7732V25.7859H43.7732V24.7859ZM45.6904 4.0227C45.9851 3.61011 46.1038 3.09736 46.0204 2.59725L44.0476 2.9262C44.0438 2.90309 44.0493 2.8794 44.0629 2.86034L45.6904 4.0227ZM44.1713 6.14941L45.6904 4.02276L44.0629 2.86028L42.5439 4.98694L44.1713 6.14941ZM42.9301 6.92397C43.4302 6.84058 43.8767 6.56194 44.1714 6.14935L42.5438 4.987C42.5574 4.96794 42.5781 4.95506 42.6012 4.95121L42.9301 6.92397ZM41.5047 6.59401C41.9173 6.88867 42.43 7.00736 42.9301 6.92397L42.6012 4.95121C42.6243 4.94736 42.648 4.95284 42.667 4.96646L41.5047 6.59401ZM40.7301 5.35276C40.8135 5.85286 41.0921 6.29936 41.5047 6.59401L42.667 4.96646C42.6861 4.98007 42.699 5.00069 42.7028 5.02381L40.7301 5.35276ZM41.06 3.92732C40.7654 4.3399 40.6467 4.85264 40.7301 5.35276L42.7028 5.02381C42.7067 5.04692 42.7012 5.07061 42.6876 5.08967L41.06 3.92732ZM42.5791 1.8006L41.0601 3.92726L42.6875 5.08973L44.2066 2.96307L42.5791 1.8006ZM43.8203 1.02604C43.3202 1.10943 42.8737 1.38807 42.5791 1.80066L44.2066 2.96301C44.193 2.98207 44.1724 2.99495 44.1493 2.9988L43.8203 1.02604ZM45.2458 1.356C44.8332 1.06134 44.3204 0.942648 43.8203 1.02604L44.1493 2.9988C44.1262 3.00265 44.1025 2.99717 44.0834 2.98356L45.2458 1.356ZM46.0204 2.59725C45.937 2.09714 45.6583 1.65065 45.2458 1.356L44.0834 2.98356C44.0644 2.96994 44.0515 2.94932 44.0476 2.9262L46.0204 2.59725ZM46.6256 8.3458C47.0794 8.11989 47.425 7.72294 47.5861 7.24226L45.6899 6.60642C45.6974 6.58417 45.7134 6.5658 45.7344 6.55535L46.6256 8.3458ZM45.2897 9.0101L46.6252 8.34597L45.7347 6.55517L44.3992 7.21929L45.2897 9.0101ZM44.5747 9.20784C44.8262 9.18907 45.0715 9.12071 45.2965 9.00668L44.3924 7.22271C44.4028 7.21742 44.4142 7.21426 44.4258 7.21339L44.5747 9.20784ZM43.831 9.11606C44.0704 9.19542 44.3232 9.22661 44.5747 9.20784L44.4258 7.21339C44.4375 7.21252 44.4492 7.21396 44.4603 7.21764L43.831 9.11606ZM43.1798 8.74545C43.3703 8.91074 43.5916 9.0367 43.831 9.11606L44.4603 7.21764C44.4714 7.22132 44.4816 7.22716 44.4905 7.23481L43.1798 8.74545ZM42.721 8.15296C42.8333 8.37879 42.9892 8.58015 43.1798 8.74545L44.4905 7.23481C44.4993 7.24248 44.5065 7.25181 44.5117 7.26227L42.721 8.15296ZM42.5253 7.42966C42.5422 7.6813 42.6087 7.92713 42.721 8.15296L44.5117 7.26227C44.5169 7.27274 44.52 7.28413 44.5208 7.29578L42.5253 7.42966ZM42.6226 6.6867C42.5415 6.9255 42.5084 7.178 42.5253 7.42965L44.5208 7.29579C44.5216 7.30745 44.52 7.31914 44.5163 7.33021L42.6226 6.6867ZM42.9981 6.03824C42.8314 6.2275 42.7038 6.44788 42.6226 6.68668L44.5163 7.33022C44.5125 7.34129 44.5066 7.3515 44.4989 7.36026L42.9981 6.03824ZM43.5941 5.58396C43.3674 5.69459 43.1649 5.84898 42.9981 6.03823L44.4989 7.36027C44.4912 7.36904 44.4818 7.37619 44.4713 7.38132L43.5941 5.58396ZM44.9222 4.92319L43.5872 5.58732L44.4781 7.37796L45.813 6.71384L44.9222 4.92319ZM46.3815 4.82219C45.9008 4.66101 45.3758 4.69738 44.922 4.92329L45.8132 6.71374C45.7922 6.72419 45.7679 6.72588 45.7457 6.71842L46.3815 4.82219ZM47.485 5.78274C47.2591 5.32888 46.8622 4.98336 46.3815 4.82219L45.7457 6.71842C45.7234 6.71096 45.705 6.69497 45.6946 6.67396L47.485 5.78274ZM47.5861 7.24226C47.7473 6.76161 47.711 6.2366 47.485 5.78273L45.6946 6.67397C45.6841 6.65295 45.6825 6.62865 45.6899 6.60642L47.5861 7.24226ZM39.8075 3.18755C39.7959 3.18853 39.7843 3.1872 39.7732 3.18366L40.3818 1.27851C40.1426 1.20211 39.8908 1.17358 39.6406 1.19453L39.8075 3.18755ZM39.8405 3.17804C39.8301 3.18337 39.8188 3.18661 39.8072 3.18758L39.6409 1.19451C39.3907 1.21539 39.1471 1.28536 38.9239 1.40041L39.8405 3.17804ZM39.8675 3.15651C39.86 3.16539 39.8508 3.17271 39.8405 3.17804L38.9239 1.40041C38.7008 1.51546 38.5025 1.67334 38.3404 1.86504L39.8675 3.15651ZM39.8842 3.12626C39.8807 3.13735 39.875 3.14762 39.8675 3.1565L38.3404 1.86505C38.1783 2.05674 38.0555 2.2785 37.9791 2.51766L39.8842 3.12626ZM39.8881 3.09193C39.8891 3.10351 39.8878 3.11518 39.8842 3.12626L37.9791 2.51766C37.9027 2.75681 37.8742 3.00866 37.8951 3.25884L39.8881 3.09193ZM39.9896 4.30481L39.8881 3.09201L37.8951 3.25876L37.9966 4.47156L39.9896 4.30481ZM39.9801 4.2717C39.9854 4.28202 39.9886 4.29328 39.9896 4.30485L37.9966 4.47152C38.0175 4.72167 38.0875 4.96525 38.2025 5.18835L39.9801 4.2717ZM39.9586 4.2447C39.9675 4.25221 39.9748 4.26138 39.9801 4.27169L38.2025 5.18837C38.3176 5.41146 38.4754 5.60972 38.6671 5.77183L39.9586 4.2447ZM39.9284 4.22799C39.9395 4.23152 39.9497 4.2372 39.9586 4.2447L38.6671 5.77183C38.8588 5.93393 39.0805 6.05668 39.3197 6.13309L39.9284 4.22799ZM39.8941 4.2241C39.9057 4.22313 39.9173 4.22445 39.9284 4.22799L39.3196 6.13309C39.5588 6.2095 39.8106 6.23806 40.0608 6.21714L39.8941 4.2241ZM39.8609 4.23363C39.8713 4.2283 39.8825 4.22506 39.8941 4.2241L40.0608 6.21714C40.3109 6.19623 40.5545 6.12624 40.7776 6.01119L39.8609 4.23363ZM39.8339 4.25512C39.8414 4.24625 39.8506 4.23895 39.8609 4.23363L40.7776 6.01119C41.0007 5.89613 41.199 5.73826 41.3611 5.54659L39.8339 4.25512ZM39.8172 4.28531C39.8208 4.27426 39.8264 4.264 39.8339 4.25512L41.3611 5.54659C41.5232 5.3549 41.6459 5.13317 41.7223 4.89406L39.8172 4.28531ZM39.8133 4.31961C39.8124 4.30803 39.8137 4.29637 39.8172 4.28531L41.7223 4.89406C41.7987 4.65495 41.8273 4.40312 41.8064 4.15295L39.8133 4.31961ZM39.7119 3.10686L39.8133 4.31966L41.8064 4.1529L41.7049 2.9401L39.7119 3.10686ZM39.7214 3.13989C39.7161 3.12954 39.7128 3.11825 39.7119 3.10665L41.7049 2.94031C41.684 2.69012 41.6141 2.44649 41.499 2.22334L39.7214 3.13989ZM39.7429 3.16692C39.734 3.15941 39.7267 3.15021 39.7214 3.13987L41.499 2.22335C41.384 2.00021 41.2261 1.80191 41.0344 1.63979L39.7429 3.16692ZM39.7732 3.18366C39.7621 3.18012 39.7518 3.17443 39.7429 3.16692L41.0344 1.63979C40.8427 1.47768 40.6209 1.35491 40.3818 1.27851L39.7732 3.18366ZM18.8609 5.55738C18.2509 5.55738 17.6467 5.67754 17.0831 5.91101L17.8485 7.75877C18.1695 7.62581 18.5135 7.55738 18.8609 7.55738V5.55738ZM38.9123 5.55738H18.8609V7.55738H38.9123V5.55738ZM42.1973 6.91807C41.326 6.04683 40.1444 5.55738 38.9123 5.55738V7.55738C39.614 7.55738 40.2869 7.83612 40.7831 8.33228L42.1973 6.91807ZM43.558 10.2031C43.558 8.97096 43.0685 7.78931 42.1973 6.91807L40.7831 8.33228C41.2792 8.82845 41.558 9.50139 41.558 10.2031H43.558ZM43.558 13.6063V10.2031H41.558V13.6063H43.558ZM43.7517 11.6652C43.0328 11.9345 42.3817 12.358 41.8441 12.9061L43.2719 14.3066C43.6048 13.9672 44.0081 13.7049 44.4533 13.5381L43.7517 11.6652ZM46.0052 11.3475C45.2399 11.2874 44.4707 11.3959 43.7517 11.6652L44.4533 13.5381C44.8985 13.3713 45.3748 13.3042 45.8488 13.3413L46.0052 11.3475ZM48.1816 12.0126C47.5134 11.6345 46.7705 11.4075 46.0052 11.3475L45.8488 13.3413C46.3228 13.3785 46.7829 13.5191 47.1966 13.7533L48.1816 12.0126ZM49.8724 13.5358C49.4269 12.9106 48.8497 12.3907 48.1816 12.0126L47.1966 13.7533C47.6104 13.9874 47.9678 14.3094 48.2438 14.6965L49.8724 13.5358ZM50.7605 15.6311C50.6211 14.8762 50.318 14.161 49.8724 13.5358L48.2438 14.6965C48.5197 15.0837 48.7074 15.5266 48.7937 15.9942L50.7605 15.6311ZM50.679 17.9054C50.872 17.1624 50.8998 16.3861 50.7605 15.6311L48.7937 15.9942C48.88 16.4617 48.8628 16.9424 48.7433 17.4026L50.679 17.9054ZM49.6434 19.9319C50.1325 19.3402 50.486 18.6485 50.679 17.9054L48.7433 17.4026C48.6237 17.8628 48.4048 18.2911 48.1019 18.6576L49.6434 19.9319ZM47.8479 21.3302C48.5413 21.0009 49.1542 20.5236 49.6434 19.9319L48.1019 18.6576C47.799 19.024 47.4194 19.3196 46.99 19.5235L47.8479 21.3302ZM48.4189 23.5706V20.4268H46.4189V23.5706H48.4189ZM48.0653 25.3485C48.2987 24.7848 48.4189 24.1807 48.4189 23.5706H46.4189C46.4189 23.9181 46.3505 24.2621 46.2175 24.5831L48.0653 25.3485ZM47.0582 26.8556C47.4896 26.4242 47.8318 25.9121 48.0653 25.3485L46.2175 24.5831C46.0846 24.9041 45.8897 25.1958 45.644 25.4414L47.0582 26.8556ZM45.551 27.8627C46.1147 27.6292 46.6268 27.287 47.0582 26.8556L45.644 25.4414C45.3983 25.6871 45.1067 25.882 44.7857 26.0149L45.551 27.8627ZM43.7732 28.2163C44.3833 28.2163 44.9874 28.0962 45.551 27.8627L44.7857 26.0149C44.4647 26.1479 44.1206 26.2163 43.7732 26.2163V28.2163ZM43.0566 31.3606C44.1557 30.2615 44.7732 28.7708 44.7732 27.2163H42.7732C42.7732 28.2403 42.3664 29.2224 41.6424 29.9464L43.0566 31.3606ZM38.9123 33.0773C40.4667 33.0773 41.9574 32.4598 43.0566 31.3606L41.6424 29.9464C40.9183 30.6705 39.9363 31.0773 38.9123 31.0773V33.0773ZM18.8609 33.0773H38.9123V31.0773H18.8609V33.0773ZM14.7166 31.3606C15.8158 32.4598 17.3065 33.0773 18.8609 33.0773V31.0773C17.837 31.0773 16.8549 30.6705 16.1308 29.9464L14.7166 31.3606ZM13 27.2163C13 28.7708 13.6175 30.2615 14.7166 31.3606L16.1308 29.9464C15.4068 29.2224 15 28.2403 15 27.2163H13ZM13 22.963V27.2163H15V22.963H13ZM13.4592 21.2475C13.1581 21.7692 12.9997 22.3611 13 22.9635L15 22.9625C14.9999 22.7114 15.0659 22.4647 15.1914 22.2473L13.4592 21.2475ZM14.7155 19.9915C14.1937 20.2925 13.7604 20.7257 13.4592 21.2475L15.1914 22.2473C15.3169 22.0298 15.4975 21.8493 15.715 21.7238L14.7155 19.9915ZM14.2152 10.2031V20.8576H16.2152V10.2031H14.2152ZM14.5689 8.42524C14.3354 8.98888 14.2152 9.59299 14.2152 10.2031H16.2152C16.2152 9.85564 16.2837 9.5116 16.4166 9.19061L14.5689 8.42524ZM15.5759 6.91807C15.1445 7.34946 14.8023 7.8616 14.5689 8.42524L16.4166 9.19061C16.5496 8.86962 16.7445 8.57796 16.9901 8.33228L15.5759 6.91807ZM17.0831 5.91101C16.5195 6.14448 16.0073 6.48668 15.5759 6.91807L16.9901 8.33228C17.2358 8.08661 17.5275 7.89173 17.8485 7.75877L17.0831 5.91101ZM41.843 20.2589C42.6492 21.0834 43.7048 21.6192 44.8463 21.7831L45.1306 19.8034C44.4245 19.702 43.7716 19.3707 43.273 18.8607L41.843 20.2589ZM43.558 19.5604V19.5598H41.558V19.5604H43.558ZM43.558 20.8576V19.5604H41.558V20.8576H43.558ZM44.7732 22.963C44.7732 21.6925 44.0818 20.584 43.0588 19.9921L42.0572 21.7232C42.4876 21.9722 42.7732 22.435 42.7732 22.963H44.7732ZM44.7732 24.7859V22.963H42.7732V24.7859H44.7732ZM43.9254 23.7228C43.885 23.7632 43.8303 23.7859 43.7732 23.7859V25.7859C44.3607 25.7859 44.9242 25.5525 45.3396 25.137L43.9254 23.7228ZM43.9884 23.5706C43.9884 23.6277 43.9658 23.6825 43.9254 23.7228L45.3396 25.137C45.7551 24.7216 45.9884 24.1581 45.9884 23.5706H43.9884ZM43.9884 20.7932V23.5706H45.9884V20.7932H43.9884Z" fill="#8A8A8A" mask="url(#path-1-outside-1_28641_17276)"/>
  <path d="M16.4309 10.202C16.4309 9.55735 16.687 8.93915 17.1428 8.48335C17.5986 8.02755 18.2168 7.77148 18.8614 7.77148H38.9127C39.5573 7.77148 40.1755 8.02755 40.6313 8.48335C41.0871 8.93915 41.3432 9.55735 41.3432 10.202V21.7467H16.4309V10.202Z" fill="#8A8A8A"/>
  <path d="M15.2151 22.9623C15.2151 22.8027 15.2465 22.6447 15.3076 22.4973C15.3687 22.3498 15.4582 22.2158 15.571 22.103C15.6839 21.9902 15.8178 21.9006 15.9653 21.8396C16.1127 21.7785 16.2707 21.7471 16.4303 21.7471H41.3426C41.5022 21.7471 41.6602 21.7785 41.8076 21.8396C41.9551 21.9006 42.0891 21.9902 42.2019 22.103C42.3147 22.2158 42.4043 22.3498 42.4653 22.4973C42.5264 22.6447 42.5578 22.8027 42.5578 22.9623V27.2156C42.5578 27.6944 42.4635 28.1685 42.2803 28.6108C42.0971 29.0531 41.8286 29.455 41.49 29.7935C41.1515 30.1321 40.7496 30.4006 40.3073 30.5838C39.865 30.767 39.3909 30.8613 38.9121 30.8613H18.8608C18.382 30.8613 17.908 30.767 17.4656 30.5838C17.0233 30.4006 16.6214 30.1321 16.2829 29.7935C15.9444 29.455 15.6758 29.0531 15.4926 28.6108C15.3094 28.1685 15.2151 27.6944 15.2151 27.2156V22.9623Z" fill="#8A8A8A"/>
  <path d="M26.7597 10.2031C26.6001 10.2031 26.4421 10.2346 26.2946 10.2956C26.1472 10.3567 26.0132 10.4462 25.9004 10.5591C25.7875 10.6719 25.698 10.8059 25.6369 10.9533C25.5759 11.1007 25.5444 11.2588 25.5444 11.4184V18.1021C25.5444 18.2617 25.5759 18.4197 25.6369 18.5672C25.698 18.7146 25.7875 18.8486 25.9004 18.9614C26.0132 19.0743 26.1472 19.1638 26.2946 19.2249C26.4421 19.2859 26.6001 19.3174 26.7597 19.3174H31.013C31.1726 19.3174 31.3306 19.2859 31.478 19.2249C31.6255 19.1638 31.7594 19.0743 31.8723 18.9614C31.9851 18.8486 32.0746 18.7146 32.1357 18.5672C32.1968 18.4197 32.2282 18.2617 32.2282 18.1021V11.4184C32.2282 11.2588 32.1968 11.1007 32.1357 10.9533C32.0746 10.8059 31.9851 10.6719 31.8723 10.5591C31.7594 10.4462 31.6255 10.3567 31.478 10.2956C31.3306 10.2346 31.1726 10.2031 31.013 10.2031H26.7597ZM45.5958 19.6212C46.4015 19.6212 47.1743 19.3011 47.744 18.7313C48.3138 18.1616 48.6339 17.3888 48.6339 16.5831C48.6339 15.7773 48.3138 15.0046 47.744 14.4348C47.1743 13.8651 46.4015 13.545 45.5958 13.545C44.79 13.545 44.0173 13.8651 43.4475 14.4348C42.8778 15.0046 42.5577 15.7773 42.5577 16.5831C42.5577 17.3888 42.8778 18.1616 43.4475 18.7313C44.0173 19.3011 44.79 19.6212 45.5958 19.6212Z" fill="#8A8A8A"/>
  <path d="M44.8766 3.44152C45.0172 3.24475 45.0738 3.00023 45.034 2.76173C44.9942 2.52323 44.8613 2.3103 44.6646 2.16978C44.4678 2.02925 44.2233 1.97265 43.9848 2.01242C43.7463 2.05219 43.5334 2.18507 43.3928 2.38183L41.8738 4.50849C41.7333 4.70526 41.6767 4.94978 41.7164 5.18828C41.7562 5.42678 41.8891 5.63971 42.0859 5.78023C42.2826 5.92076 42.5271 5.97736 42.7656 5.93759C43.0041 5.89782 43.2171 5.76494 43.3576 5.56818L44.8766 3.44152ZM46.18 7.45057C46.3964 7.34284 46.5612 7.15355 46.638 6.92434C46.7149 6.69513 46.6975 6.44478 46.5898 6.22835C46.4821 6.01193 46.2928 5.84716 46.0636 5.7703C45.8344 5.69344 45.584 5.71079 45.3676 5.81851L44.0327 6.48264C43.9246 6.53539 43.828 6.60901 43.7485 6.69925C43.669 6.7895 43.6082 6.89458 43.5695 7.00845C43.5308 7.12232 43.515 7.24273 43.523 7.36272C43.5311 7.48272 43.5628 7.59994 43.6164 7.70762C43.6699 7.8153 43.7443 7.91131 43.8351 7.99013C43.9259 8.06895 44.0315 8.12901 44.1456 8.16685C44.2598 8.20469 44.3803 8.21956 44.5003 8.21061C44.6202 8.20166 44.7372 8.16906 44.8444 8.1147L46.18 7.45057ZM39.7241 2.19104C39.8433 2.18105 39.9634 2.19466 40.0775 2.23109C40.1915 2.26752 40.2973 2.32605 40.3887 2.40336C40.4801 2.48066 40.5554 2.57521 40.6102 2.68161C40.6651 2.78801 40.6984 2.90418 40.7084 3.02348L40.8099 4.23628C40.8198 4.35557 40.8062 4.47566 40.7698 4.58969C40.7333 4.70371 40.6748 4.80945 40.5975 4.90085C40.5202 4.99226 40.4257 5.06754 40.3193 5.12241C40.2129 5.17727 40.0967 5.21065 39.9774 5.22062C39.8581 5.23059 39.7381 5.21697 39.624 5.18054C39.51 5.1441 39.4043 5.08556 39.3129 5.00827C39.2215 4.93097 39.1462 4.83642 39.0913 4.73003C39.0364 4.62363 39.0031 4.50748 38.9931 4.38818L38.8916 3.17538C38.8816 3.05609 38.8952 2.93599 38.9317 2.82196C38.9681 2.70792 39.0266 2.60218 39.1039 2.51077C39.1812 2.41937 39.2758 2.34408 39.3822 2.28922C39.4886 2.23436 39.6048 2.201 39.7241 2.19104ZM18.8609 6.55738C18.3822 6.55738 17.9081 6.65167 17.4658 6.83489C17.0235 7.0181 16.6216 7.28664 16.283 7.62518C15.9445 7.96371 15.676 8.36561 15.4927 8.80793C15.3095 9.25024 15.2152 9.72432 15.2152 10.2031V20.8576C14.8456 21.0709 14.5387 21.3778 14.3253 21.7474C14.112 22.117 13.9998 22.5363 14 22.963V27.2163C14 28.5055 14.5121 29.7419 15.4237 30.6535C16.3353 31.5651 17.5717 32.0773 18.8609 32.0773H38.9123C40.2015 32.0773 41.4379 31.5651 42.3495 30.6535C43.2611 29.7419 43.7732 28.5055 43.7732 27.2163C44.252 27.2163 44.726 27.122 45.1684 26.9388C45.6107 26.7556 46.0126 26.4871 46.3511 26.1485C46.6896 25.81 46.9582 25.4081 47.1414 24.9658C47.3246 24.5235 47.4189 24.0494 47.4189 23.5706V20.4268C47.9804 20.1602 48.4766 19.7738 48.8726 19.2947C49.2687 18.8156 49.5549 18.2556 49.7111 17.654C49.8674 17.0524 49.8899 16.4239 49.7771 15.8126C49.6643 15.2014 49.4188 14.6223 49.0581 14.1162C48.6974 13.61 48.2301 13.189 47.6891 12.8829C47.1481 12.5768 46.5467 12.393 45.927 12.3444C45.3074 12.2958 44.6846 12.3836 44.1025 12.6016C43.5204 12.8197 42.9932 13.1626 42.558 13.6063V10.2031C42.558 9.23618 42.1739 8.30888 41.4902 7.62518C40.8065 6.94147 39.8792 6.55738 38.9123 6.55738H18.8609ZM42.558 19.5598C43.2104 20.2271 44.0647 20.6606 44.9884 20.7932V23.5706C44.9884 23.8929 44.8604 24.202 44.6325 24.4299C44.4046 24.6578 44.0955 24.7859 43.7732 24.7859V22.963C43.7732 22.0637 43.2847 21.2781 42.558 20.8576V19.5604V19.5598ZM41.3427 22.963V27.2163C41.3427 27.8609 41.0867 28.4791 40.6309 28.9349C40.1751 29.3907 39.5569 29.6468 38.9123 29.6468H18.8609C18.2163 29.6468 17.5981 29.3907 17.1423 28.9349C16.6865 28.4791 16.4305 27.8609 16.4305 27.2163V22.963H41.3427ZM40.1275 20.5326H17.6457V10.2031C17.6457 10.0435 17.6771 9.88546 17.7382 9.73803C17.7993 9.59059 17.8888 9.45662 18.0016 9.34378C18.1145 9.23093 18.2484 9.14142 18.3959 9.08035C18.5433 9.01928 18.7013 8.98784 18.8609 8.98784H38.9123C39.0719 8.98784 39.2299 9.01928 39.3773 9.08035C39.5248 9.14142 39.6587 9.23093 39.7716 9.34378C39.8844 9.45662 39.9739 9.59059 40.035 9.73803C40.0961 9.88546 40.1275 10.0435 40.1275 10.2031V20.5326ZM23.7219 26.0011C23.7219 25.8415 23.7533 25.6835 23.8144 25.5361C23.8754 25.3886 23.965 25.2547 24.0778 25.1418C24.1906 25.029 24.3246 24.9394 24.472 24.8784C24.6195 24.8173 24.7775 24.7859 24.9371 24.7859H33.4437C33.766 24.7859 34.0751 24.9139 34.303 25.1418C34.5309 25.3697 34.659 25.6788 34.659 26.0011C34.659 26.3234 34.5309 26.6325 34.303 26.8604C34.0751 27.0883 33.766 27.2163 33.4437 27.2163H24.9371C24.6148 27.2163 24.3057 27.0883 24.0778 26.8604C23.8499 26.6325 23.7219 26.3234 23.7219 26.0011ZM27.3676 12.0259H30.4056V17.4945H27.3676V12.0259ZM26.7599 10.2031C26.6004 10.2031 26.4423 10.2345 26.2949 10.2956C26.1475 10.3567 26.0135 10.4462 25.9006 10.559C25.7878 10.6719 25.6983 10.8058 25.6372 10.9533C25.5761 11.1007 25.5447 11.2587 25.5447 11.4183V18.1021C25.5447 18.2617 25.5761 18.4197 25.6372 18.5671C25.6983 18.7146 25.7878 18.8485 25.9006 18.9614C26.0135 19.0742 26.1475 19.1637 26.2949 19.2248C26.4423 19.2859 26.6004 19.3173 26.7599 19.3173H31.0133C31.1728 19.3173 31.3309 19.2859 31.4783 19.2248C31.6257 19.1637 31.7597 19.0742 31.8726 18.9614C31.9854 18.8485 32.0749 18.7146 32.136 18.5671C32.1971 18.4197 32.2285 18.2617 32.2285 18.1021V11.4183C32.2285 11.2587 32.1971 11.1007 32.136 10.9533C32.0749 10.8058 31.9854 10.6719 31.8726 10.559C31.7597 10.4462 31.6257 10.3567 31.4783 10.2956C31.3309 10.2345 31.1728 10.2031 31.0133 10.2031H26.7599ZM20.6838 12.3297H22.5066V17.1907H20.6838V12.3297ZM20.0762 10.5069C19.9166 10.5069 19.7586 10.5383 19.6111 10.5994C19.4637 10.6605 19.3297 10.75 19.2169 10.8628C19.104 10.9757 19.0145 11.1096 18.9534 11.2571C18.8924 11.4045 18.8609 11.5625 18.8609 11.7221V17.7983C18.8609 18.1206 18.989 18.4297 19.2169 18.6576C19.4448 18.8855 19.7539 19.0135 20.0762 19.0135H23.1142C23.2738 19.0135 23.4319 18.9821 23.5793 18.921C23.7267 18.8599 23.8607 18.7704 23.9735 18.6576C24.0864 18.5447 24.1759 18.4108 24.237 18.2633C24.298 18.1159 24.3295 17.9579 24.3295 17.7983V11.7221C24.3295 11.5625 24.298 11.4045 24.237 11.2571C24.1759 11.1096 24.0864 10.9757 23.9735 10.8628C23.8607 10.75 23.7267 10.6605 23.5793 10.5994C23.4319 10.5383 23.2738 10.5069 23.1142 10.5069H20.0762ZM35.2666 12.3297H37.0894V17.1907H35.2666V12.3297ZM34.659 10.5069C34.4994 10.5069 34.3414 10.5383 34.1939 10.5994C34.0465 10.6605 33.9125 10.75 33.7997 10.8628C33.6868 10.9757 33.5973 11.1096 33.5362 11.2571C33.4752 11.4045 33.4437 11.5625 33.4437 11.7221V17.7983C33.4437 17.9579 33.4752 18.1159 33.5362 18.2633C33.5973 18.4108 33.6868 18.5447 33.7997 18.6576C33.9125 18.7704 34.0465 18.8599 34.1939 18.921C34.3414 18.9821 34.4994 19.0135 34.659 19.0135H37.697C38.0193 19.0135 38.3284 18.8855 38.5563 18.6576C38.7842 18.4297 38.9123 18.1206 38.9123 17.7983V11.7221C38.9123 11.5625 38.8808 11.4045 38.8198 11.2571C38.7587 11.1096 38.6692 10.9757 38.5563 10.8628C38.4435 10.75 38.3095 10.6605 38.1621 10.5994C38.0147 10.5383 37.8566 10.5069 37.697 10.5069H34.659ZM45.5961 14.7602C45.8355 14.7602 46.0725 14.8073 46.2937 14.8989C46.5149 14.9905 46.7159 15.1247 46.8852 15.294C47.0545 15.4633 47.1888 15.6642 47.2804 15.8854C47.372 16.1066 47.4192 16.3436 47.4192 16.583C47.4192 16.8225 47.372 17.0595 47.2804 17.2807C47.1888 17.5019 47.0545 17.7028 46.8852 17.8721C46.7159 18.0414 46.5149 18.1756 46.2937 18.2672C46.0725 18.3588 45.8355 18.4059 45.5961 18.4059C45.1127 18.4058 44.6491 18.2137 44.3073 17.8719C43.9655 17.5301 43.7735 17.0665 43.7735 16.583C43.7735 16.0996 43.9655 15.636 44.3073 15.2942C44.6491 14.9524 45.1127 14.7603 45.5961 14.7602Z" fill="#4B371F"/>
  <mask id="path-7-outside-2_28641_17276" maskUnits="userSpaceOnUse" x="7" y="23" width="44" height="24" fill="black">
    <rect fill="white" x="7" y="23" width="44" height="24"/>
    <path d="M15.5021 40.256C14.5634 40.256 13.6567 40.1493 12.7821 39.936C11.9074 39.7227 11.1874 39.4453 10.6221 39.104L11.8381 36.352C12.3714 36.6613 12.9634 36.912 13.6141 37.104C14.2754 37.2853 14.9154 37.376 15.5341 37.376C15.8967 37.376 16.1794 37.3547 16.3821 37.312C16.5954 37.2587 16.7501 37.1893 16.8461 37.104C16.9421 37.008 16.9901 36.896 16.9901 36.768C16.9901 36.5653 16.8781 36.4053 16.6541 36.288C16.4301 36.1707 16.1314 36.0747 15.7581 36C15.3954 35.9147 14.9954 35.8293 14.5581 35.744C14.1207 35.648 13.6781 35.5253 13.2301 35.376C12.7927 35.2267 12.3874 35.0293 12.0141 34.784C11.6514 34.5387 11.3581 34.2187 11.1341 33.824C10.9101 33.4187 10.7981 32.9173 10.7981 32.32C10.7981 31.6267 10.9901 30.9973 11.3741 30.432C11.7687 29.856 12.3501 29.3973 13.1181 29.056C13.8967 28.7147 14.8621 28.544 16.0141 28.544C16.7714 28.544 17.5181 28.624 18.2541 28.784C18.9901 28.944 19.6514 29.1893 20.2381 29.52L19.1021 32.256C18.5474 31.9787 18.0087 31.7707 17.4861 31.632C16.9741 31.4933 16.4727 31.424 15.9821 31.424C15.6194 31.424 15.3314 31.456 15.1181 31.52C14.9047 31.584 14.7501 31.6693 14.6541 31.776C14.5687 31.8827 14.5261 32 14.5261 32.128C14.5261 32.32 14.6381 32.4747 14.8621 32.592C15.0861 32.6987 15.3794 32.7893 15.7421 32.864C16.1154 32.9387 16.5207 33.0187 16.9581 33.104C17.4061 33.1893 17.8487 33.3067 18.2861 33.456C18.7234 33.6053 19.1234 33.8027 19.4861 34.048C19.8594 34.2933 20.1581 34.6133 20.3821 35.008C20.6061 35.4027 20.7181 35.8933 20.7181 36.48C20.7181 37.1627 20.5207 37.792 20.1261 38.368C19.7421 38.9333 19.1661 39.392 18.3981 39.744C17.6301 40.0853 16.6647 40.256 15.5021 40.256ZM27.5697 40.16C26.8124 40.16 26.183 40 25.6817 39.68C25.191 39.3493 24.8284 38.8533 24.5937 38.192C24.359 37.52 24.2417 36.6667 24.2417 35.632C24.2417 34.576 24.3484 33.7173 24.5617 33.056C24.7857 32.384 25.143 31.888 25.6337 31.568C26.1244 31.248 26.7697 31.088 27.5697 31.088C28.3377 31.088 29.0417 31.2747 29.6817 31.648C30.3217 32.0107 30.8337 32.5333 31.2177 33.216C31.6017 33.888 31.7937 34.6933 31.7937 35.632C31.7937 36.5707 31.6017 37.3813 31.2177 38.064C30.8337 38.736 30.3217 39.2533 29.6817 39.616C29.0417 39.9787 28.3377 40.16 27.5697 40.16ZM21.7297 43.104V31.248H25.1697V32.432L25.1857 35.632L25.3457 38.832V43.104H21.7297ZM26.7057 37.344C26.9724 37.344 27.2124 37.28 27.4257 37.152C27.639 37.024 27.8097 36.832 27.9377 36.576C28.0657 36.32 28.1297 36.0053 28.1297 35.632C28.1297 35.248 28.0657 34.928 27.9377 34.672C27.8097 34.416 27.639 34.224 27.4257 34.096C27.2124 33.968 26.9724 33.904 26.7057 33.904C26.439 33.904 26.199 33.968 25.9857 34.096C25.7724 34.224 25.6017 34.416 25.4737 34.672C25.3457 34.928 25.2817 35.248 25.2817 35.632C25.2817 36.0053 25.3457 36.32 25.4737 36.576C25.6017 36.832 25.7724 37.024 25.9857 37.152C26.199 37.28 26.439 37.344 26.7057 37.344ZM32.9328 40V31.248H36.5488V40H32.9328ZM34.7408 30.544C34.0795 30.544 33.5515 30.368 33.1568 30.016C32.7621 29.664 32.5648 29.2267 32.5648 28.704C32.5648 28.1813 32.7621 27.744 33.1568 27.392C33.5515 27.04 34.0795 26.864 34.7408 26.864C35.4021 26.864 35.9301 27.0293 36.3248 27.36C36.7195 27.6907 36.9168 28.1173 36.9168 28.64C36.9168 29.1947 36.7195 29.6533 36.3248 30.016C35.9301 30.368 35.4021 30.544 34.7408 30.544ZM44.2316 31.088C44.9036 31.088 45.5116 31.2267 46.0556 31.504C46.5996 31.7707 47.0262 32.192 47.3356 32.768C47.6556 33.344 47.8156 34.0907 47.8156 35.008V40H44.1996V35.632C44.1996 35.088 44.1036 34.704 43.9116 34.48C43.7196 34.2453 43.4582 34.128 43.1276 34.128C42.8822 34.128 42.6529 34.1867 42.4396 34.304C42.2369 34.4107 42.0716 34.592 41.9436 34.848C41.8262 35.104 41.7676 35.4507 41.7676 35.888V40H38.1516V31.248H41.5916V33.808L40.9036 33.072C41.2449 32.4107 41.7036 31.9147 42.2796 31.584C42.8662 31.2533 43.5169 31.088 44.2316 31.088Z"/>
  </mask>
  <path d="M15.5021 40.256C14.5634 40.256 13.6567 40.1493 12.7821 39.936C11.9074 39.7227 11.1874 39.4453 10.6221 39.104L11.8381 36.352C12.3714 36.6613 12.9634 36.912 13.6141 37.104C14.2754 37.2853 14.9154 37.376 15.5341 37.376C15.8967 37.376 16.1794 37.3547 16.3821 37.312C16.5954 37.2587 16.7501 37.1893 16.8461 37.104C16.9421 37.008 16.9901 36.896 16.9901 36.768C16.9901 36.5653 16.8781 36.4053 16.6541 36.288C16.4301 36.1707 16.1314 36.0747 15.7581 36C15.3954 35.9147 14.9954 35.8293 14.5581 35.744C14.1207 35.648 13.6781 35.5253 13.2301 35.376C12.7927 35.2267 12.3874 35.0293 12.0141 34.784C11.6514 34.5387 11.3581 34.2187 11.1341 33.824C10.9101 33.4187 10.7981 32.9173 10.7981 32.32C10.7981 31.6267 10.9901 30.9973 11.3741 30.432C11.7687 29.856 12.3501 29.3973 13.1181 29.056C13.8967 28.7147 14.8621 28.544 16.0141 28.544C16.7714 28.544 17.5181 28.624 18.2541 28.784C18.9901 28.944 19.6514 29.1893 20.2381 29.52L19.1021 32.256C18.5474 31.9787 18.0087 31.7707 17.4861 31.632C16.9741 31.4933 16.4727 31.424 15.9821 31.424C15.6194 31.424 15.3314 31.456 15.1181 31.52C14.9047 31.584 14.7501 31.6693 14.6541 31.776C14.5687 31.8827 14.5261 32 14.5261 32.128C14.5261 32.32 14.6381 32.4747 14.8621 32.592C15.0861 32.6987 15.3794 32.7893 15.7421 32.864C16.1154 32.9387 16.5207 33.0187 16.9581 33.104C17.4061 33.1893 17.8487 33.3067 18.2861 33.456C18.7234 33.6053 19.1234 33.8027 19.4861 34.048C19.8594 34.2933 20.1581 34.6133 20.3821 35.008C20.6061 35.4027 20.7181 35.8933 20.7181 36.48C20.7181 37.1627 20.5207 37.792 20.1261 38.368C19.7421 38.9333 19.1661 39.392 18.3981 39.744C17.6301 40.0853 16.6647 40.256 15.5021 40.256ZM27.5697 40.16C26.8124 40.16 26.183 40 25.6817 39.68C25.191 39.3493 24.8284 38.8533 24.5937 38.192C24.359 37.52 24.2417 36.6667 24.2417 35.632C24.2417 34.576 24.3484 33.7173 24.5617 33.056C24.7857 32.384 25.143 31.888 25.6337 31.568C26.1244 31.248 26.7697 31.088 27.5697 31.088C28.3377 31.088 29.0417 31.2747 29.6817 31.648C30.3217 32.0107 30.8337 32.5333 31.2177 33.216C31.6017 33.888 31.7937 34.6933 31.7937 35.632C31.7937 36.5707 31.6017 37.3813 31.2177 38.064C30.8337 38.736 30.3217 39.2533 29.6817 39.616C29.0417 39.9787 28.3377 40.16 27.5697 40.16ZM21.7297 43.104V31.248H25.1697V32.432L25.1857 35.632L25.3457 38.832V43.104H21.7297ZM26.7057 37.344C26.9724 37.344 27.2124 37.28 27.4257 37.152C27.639 37.024 27.8097 36.832 27.9377 36.576C28.0657 36.32 28.1297 36.0053 28.1297 35.632C28.1297 35.248 28.0657 34.928 27.9377 34.672C27.8097 34.416 27.639 34.224 27.4257 34.096C27.2124 33.968 26.9724 33.904 26.7057 33.904C26.439 33.904 26.199 33.968 25.9857 34.096C25.7724 34.224 25.6017 34.416 25.4737 34.672C25.3457 34.928 25.2817 35.248 25.2817 35.632C25.2817 36.0053 25.3457 36.32 25.4737 36.576C25.6017 36.832 25.7724 37.024 25.9857 37.152C26.199 37.28 26.439 37.344 26.7057 37.344ZM32.9328 40V31.248H36.5488V40H32.9328ZM34.7408 30.544C34.0795 30.544 33.5515 30.368 33.1568 30.016C32.7621 29.664 32.5648 29.2267 32.5648 28.704C32.5648 28.1813 32.7621 27.744 33.1568 27.392C33.5515 27.04 34.0795 26.864 34.7408 26.864C35.4021 26.864 35.9301 27.0293 36.3248 27.36C36.7195 27.6907 36.9168 28.1173 36.9168 28.64C36.9168 29.1947 36.7195 29.6533 36.3248 30.016C35.9301 30.368 35.4021 30.544 34.7408 30.544ZM44.2316 31.088C44.9036 31.088 45.5116 31.2267 46.0556 31.504C46.5996 31.7707 47.0262 32.192 47.3356 32.768C47.6556 33.344 47.8156 34.0907 47.8156 35.008V40H44.1996V35.632C44.1996 35.088 44.1036 34.704 43.9116 34.48C43.7196 34.2453 43.4582 34.128 43.1276 34.128C42.8822 34.128 42.6529 34.1867 42.4396 34.304C42.2369 34.4107 42.0716 34.592 41.9436 34.848C41.8262 35.104 41.7676 35.4507 41.7676 35.888V40H38.1516V31.248H41.5916V33.808L40.9036 33.072C41.2449 32.4107 41.7036 31.9147 42.2796 31.584C42.8662 31.2533 43.5169 31.088 44.2316 31.088Z" fill="#8A8A8A"/>
  <path d="M12.7821 39.936L13.4929 37.0214L12.7821 39.936ZM10.6221 39.104L7.878 37.8915C7.26779 39.2725 7.77897 40.8918 9.07146 41.6722L10.6221 39.104ZM11.8381 36.352L13.3432 33.7569C12.6056 33.3291 11.7207 33.2354 10.9098 33.4992C10.0989 33.7631 9.43865 34.3595 9.094 35.1395L11.8381 36.352ZM13.6141 37.104L12.765 39.9813C12.7835 39.9868 12.8021 39.9921 12.8208 39.9972L13.6141 37.104ZM16.3821 37.312L17.0001 40.2476C17.0368 40.2399 17.0733 40.2315 17.1097 40.2224L16.3821 37.312ZM16.8461 37.104L18.8392 39.3462C18.8831 39.3072 18.9258 39.2669 18.9674 39.2253L16.8461 37.104ZM16.6541 36.288L15.262 38.9455L15.262 38.9455L16.6541 36.288ZM15.7581 36L15.0709 38.9203C15.1037 38.928 15.1367 38.9351 15.1697 38.9417L15.7581 36ZM14.5581 35.744L13.9148 38.6742C13.9377 38.6792 13.9606 38.684 13.9835 38.6885L14.5581 35.744ZM13.2301 35.376L12.2606 38.215C12.2675 38.2174 12.2745 38.2197 12.2814 38.222L13.2301 35.376ZM12.0141 34.784L10.3331 37.2689C10.3442 37.2763 10.3553 37.2838 10.3665 37.2911L12.0141 34.784ZM11.1341 33.824L8.50834 35.2751C8.51384 35.285 8.51939 35.2949 8.525 35.3048L11.1341 33.824ZM11.3741 30.432L8.89925 28.7363L8.89241 28.7464L11.3741 30.432ZM13.1181 29.056L11.9136 26.3084C11.909 26.3104 11.9043 26.3125 11.8996 26.3146L13.1181 29.056ZM18.2541 28.784L17.6168 31.7155H17.6168L18.2541 28.784ZM20.2381 29.52L23.0087 30.6704C23.5909 29.2682 23.0338 27.652 21.7111 26.9065L20.2381 29.52ZM19.1021 32.256L17.7604 34.9393C18.5047 35.3114 19.3702 35.3577 20.1499 35.0671C20.9296 34.7764 21.5536 34.1749 21.8727 33.4064L19.1021 32.256ZM17.4861 31.632L16.7018 34.5277C16.7068 34.529 16.7118 34.5304 16.7168 34.5317L17.4861 31.632ZM15.1181 31.52L14.256 28.6465L14.256 28.6465L15.1181 31.52ZM14.6541 31.776L12.4242 29.7691C12.3853 29.8123 12.3477 29.8566 12.3115 29.9019L14.6541 31.776ZM14.8621 32.592L13.47 35.2495C13.5038 35.2672 13.5379 35.2842 13.5723 35.3006L14.8621 32.592ZM15.7421 32.864L15.1371 35.8024C15.1426 35.8035 15.1482 35.8046 15.1537 35.8057L15.7421 32.864ZM16.9581 33.104L16.3835 36.0485L16.3967 36.051L16.9581 33.104ZM18.2861 33.456L17.3166 36.295H17.3166L18.2861 33.456ZM19.4861 34.048L17.8051 36.5328C17.8162 36.5403 17.8273 36.5478 17.8385 36.5551L19.4861 34.048ZM20.3821 35.008L17.773 36.4888L17.773 36.4888L20.3821 35.008ZM20.1261 38.368L17.6512 36.6723L17.6444 36.6824L20.1261 38.368ZM18.3981 39.744L19.6165 42.4854C19.627 42.4807 19.6375 42.476 19.648 42.4712L18.3981 39.744ZM15.5021 37.256C14.7927 37.256 14.1252 37.1756 13.4929 37.0214L12.0712 42.8506C13.1883 43.123 14.3341 43.256 15.5021 43.256V37.256ZM13.4929 37.0214C12.8145 36.856 12.402 36.6743 12.1727 36.5358L9.07146 41.6722C9.97277 42.2164 11.0003 42.5894 12.0712 42.8506L13.4929 37.0214ZM13.3661 40.3165L14.5821 37.5645L9.094 35.1395L7.878 37.8915L13.3661 40.3165ZM10.3329 38.9471C11.0924 39.3876 11.9078 39.7284 12.765 39.9813L14.4631 34.2267C14.019 34.0956 13.6504 33.9351 13.3432 33.7569L10.3329 38.9471ZM12.8208 39.9972C13.7129 40.2418 14.6202 40.376 15.5341 40.376V34.376C15.2106 34.376 14.8379 34.3288 14.4074 34.2108L12.8208 39.9972ZM15.5341 40.376C15.9745 40.376 16.4976 40.3534 17.0001 40.2476L15.764 34.3764C15.8001 34.3688 15.8209 34.366 15.8229 34.3657C15.8253 34.3654 15.8158 34.3667 15.7923 34.3685C15.7434 34.3722 15.6597 34.376 15.5341 34.376V40.376ZM17.1097 40.2224C17.5017 40.1244 18.2093 39.9061 18.8392 39.3462L14.853 34.8618C15.0932 34.6482 15.3128 34.5354 15.4309 34.4825C15.5539 34.4273 15.6373 34.4059 15.6545 34.4016L17.1097 40.2224ZM18.9674 39.2253C19.5881 38.6046 19.9901 37.7437 19.9901 36.768H13.9901C13.9901 36.4466 14.0526 36.1024 14.1966 35.7662C14.3392 35.4336 14.5336 35.1738 14.7247 34.9827L18.9674 39.2253ZM19.9901 36.768C19.9901 35.1554 18.9679 34.1134 18.0461 33.6305L15.262 38.9455C15.0703 38.845 14.7366 38.6281 14.4484 38.2164C14.1375 37.7723 13.9901 37.2575 13.9901 36.768H19.9901ZM18.0461 33.6305C17.4759 33.3318 16.8735 33.1637 16.3464 33.0583L15.1697 38.9417C15.2676 38.9613 15.3228 38.9773 15.344 38.9841C15.3537 38.9872 15.3512 38.9868 15.3384 38.9815C15.3257 38.9764 15.2992 38.965 15.262 38.9455L18.0461 33.6305ZM16.4452 33.0797C16.0388 32.9841 15.6006 32.8908 15.1326 32.7995L13.9835 38.6885C14.3902 38.7678 14.752 38.8452 15.0709 38.9203L16.4452 33.0797ZM15.2013 32.8138C14.8726 32.7416 14.5319 32.6477 14.1787 32.53L12.2814 38.222C12.8242 38.403 13.3688 38.5544 13.9148 38.6742L15.2013 32.8138ZM14.1995 32.537C13.993 32.4664 13.8166 32.3787 13.6616 32.2769L10.3665 37.2911C10.9582 37.6799 11.5925 37.9869 12.2606 38.215L14.1995 32.537ZM13.695 32.2991C13.7061 32.3067 13.7205 32.3186 13.7335 32.3328C13.7463 32.3468 13.7486 32.3529 13.7431 32.3432L8.525 35.3048C8.96841 36.086 9.57381 36.7552 10.3331 37.2689L13.695 32.2991ZM13.7598 32.3729C13.8001 32.4458 13.8103 32.492 13.8099 32.4899C13.8089 32.4854 13.7981 32.4333 13.7981 32.32H7.79806C7.79806 33.2816 7.97777 34.315 8.50834 35.2751L13.7598 32.3729ZM13.7981 32.32C13.7981 32.2185 13.8147 32.1781 13.8557 32.1176L8.89241 28.7464C8.16546 29.8166 7.79806 31.0348 7.79806 32.32H13.7981ZM13.8489 32.1277C13.871 32.0954 13.972 31.9594 14.3365 31.7974L11.8996 26.3146C10.7281 26.8353 9.66648 27.6166 8.89927 28.7363L13.8489 32.1277ZM14.3225 31.8036C14.6122 31.6766 15.1379 31.544 16.0141 31.544V25.544C14.5862 25.544 13.1813 25.7527 11.9136 26.3084L14.3225 31.8036ZM16.0141 31.544C16.5583 31.544 17.0913 31.6013 17.6168 31.7155L18.8914 25.8525C17.9448 25.6467 16.9845 25.544 16.0141 25.544V31.544ZM17.6168 31.7155C18.0941 31.8193 18.4683 31.9662 18.765 32.1335L21.7111 26.9065C20.8344 26.4124 19.886 26.0687 18.8914 25.8525L17.6168 31.7155ZM17.4674 28.3696L16.3314 31.1056L21.8727 33.4064L23.0087 30.6704L17.4674 28.3696ZM20.4437 29.5727C19.7322 29.217 19.002 28.9304 18.2554 28.7323L16.7168 34.5317C17.0155 34.6109 17.3626 34.7404 17.7604 34.9393L20.4437 29.5727ZM18.2703 28.7363C17.5232 28.534 16.7581 28.424 15.9821 28.424V34.424C16.1874 34.424 16.4249 34.4527 16.7018 34.5277L18.2703 28.7363ZM15.9821 28.424C15.4861 28.424 14.8686 28.4628 14.256 28.6465L15.9801 34.3935C15.9509 34.4022 15.9258 34.4088 15.9055 34.4137C15.8851 34.4187 15.8686 34.4221 15.8563 34.4245C15.8323 34.4291 15.8212 34.4301 15.8254 34.4297C15.8293 34.4292 15.8441 34.4277 15.8714 34.4264C15.8985 34.425 15.9351 34.424 15.9821 34.424V28.424ZM14.256 28.6465C13.7827 28.7885 13.0381 29.087 12.4242 29.7691L16.8839 33.7829C16.6633 34.0281 16.4418 34.1757 16.2913 34.2587C16.1413 34.3415 16.0272 34.3794 15.9801 34.3935L14.256 28.6465ZM12.3115 29.9019C11.8313 30.5022 11.5261 31.2712 11.5261 32.128H17.5261C17.5261 32.7288 17.3062 33.2632 16.9967 33.6501L12.3115 29.9019ZM11.5261 32.128C11.5261 33.7954 12.6225 34.8056 13.47 35.2495L16.2541 29.9345C16.4252 30.0241 16.7505 30.2289 17.0399 30.6285C17.3567 31.0659 17.5261 31.5958 17.5261 32.128H11.5261ZM13.5723 35.3006C14.093 35.5485 14.6416 35.7004 15.1371 35.8024L16.347 29.9256C16.2419 29.904 16.1737 29.8855 16.136 29.8738C16.0965 29.8616 16.1068 29.862 16.1519 29.8834L13.5723 35.3006ZM15.1537 35.8057C15.5323 35.8815 15.9423 35.9624 16.3835 36.0485L17.5326 30.1595C17.0991 30.0749 16.6984 29.9959 16.3304 29.9223L15.1537 35.8057ZM16.3967 36.051C16.7045 36.1096 17.0108 36.1906 17.3166 36.295L19.2555 30.617C18.6866 30.4227 18.1076 30.269 17.5194 30.157L16.3967 36.051ZM17.3166 36.295C17.5161 36.3632 17.6748 36.4447 17.8051 36.5328L21.167 31.5631C20.572 31.1607 19.9307 30.8475 19.2555 30.617L17.3166 36.295ZM17.8385 36.5551C17.8298 36.5494 17.8138 36.5371 17.7969 36.519C17.7801 36.501 17.7727 36.4883 17.773 36.4888L22.9911 33.5272C22.5363 32.7259 21.9107 32.0516 21.1336 31.5409L17.8385 36.5551ZM17.773 36.4888C17.75 36.4483 17.7344 36.4132 17.7243 36.3865C17.7142 36.36 17.7102 36.3435 17.7093 36.3396C17.7079 36.3334 17.7181 36.3753 17.7181 36.48H23.7181C23.7181 35.5225 23.5358 34.4868 22.9911 33.5272L17.773 36.4888ZM17.7181 36.48C17.7181 36.5429 17.7121 36.5835 17.6513 36.6723L22.6009 40.0637C23.3293 39.0005 23.7181 37.7825 23.7181 36.48H17.7181ZM17.6444 36.6824C17.6333 36.6987 17.5353 36.8394 17.1481 37.0168L19.648 42.4712C20.7969 41.9446 21.8508 41.168 22.6077 40.0536L17.6444 36.6824ZM17.1796 37.0026C16.9125 37.1213 16.3957 37.256 15.5021 37.256V43.256C16.9338 43.256 18.3477 43.0494 19.6165 42.4854L17.1796 37.0026ZM25.6817 39.68L24.0051 42.1678C24.0258 42.1817 24.0466 42.1954 24.0676 42.2088L25.6817 39.68ZM24.5937 38.192L21.7614 39.181C21.7631 39.1858 21.7647 39.1905 21.7664 39.1952L24.5937 38.192ZM24.5617 33.056L21.7156 32.1073C21.7126 32.1165 21.7095 32.1258 21.7066 32.135L24.5617 33.056ZM25.6337 31.568L27.2725 34.0808V34.0808L25.6337 31.568ZM29.6817 31.648L28.1701 34.2393C28.1809 34.2456 28.1918 34.2519 28.2027 34.2581L29.6817 31.648ZM31.2177 33.216L28.603 34.6868C28.6063 34.6927 28.6096 34.6986 28.613 34.7044L31.2177 33.216ZM31.2177 38.064L33.8224 39.5524C33.8258 39.5465 33.8291 39.5407 33.8324 39.5348L31.2177 38.064ZM29.6817 39.616L31.1607 42.2261H31.1607L29.6817 39.616ZM21.7297 43.104H18.7297C18.7297 44.7609 20.0728 46.104 21.7297 46.104V43.104ZM21.7297 31.248V28.248C20.0728 28.248 18.7297 29.5911 18.7297 31.248H21.7297ZM25.1697 31.248H28.1697C28.1697 29.5911 26.8265 28.248 25.1697 28.248V31.248ZM25.1697 32.432H22.1697C22.1697 32.437 22.1697 32.442 22.1697 32.447L25.1697 32.432ZM25.1857 35.632L22.1857 35.647C22.186 35.692 22.1872 35.7369 22.1894 35.7818L25.1857 35.632ZM25.3457 38.832H28.3457C28.3457 38.782 28.3444 38.7321 28.3419 38.6822L25.3457 38.832ZM25.3457 43.104V46.104C27.0025 46.104 28.3457 44.7609 28.3457 43.104H25.3457ZM27.4257 37.152L28.9692 39.7245L28.9692 39.7245L27.4257 37.152ZM27.9377 36.576L25.2544 35.2344V35.2344L27.9377 36.576ZM27.9377 34.672L25.2544 36.0136V36.0136L27.9377 34.672ZM25.4737 34.672L28.157 36.0136V36.0136L25.4737 34.672ZM25.4737 36.576L28.157 35.2344V35.2344L25.4737 36.576ZM25.9857 37.152L24.4422 39.7245L24.4422 39.7245L25.9857 37.152ZM27.5697 37.16C27.4001 37.16 27.3059 37.1419 27.2689 37.1325C27.2358 37.1241 27.2533 37.1241 27.2958 37.1512L24.0676 42.2088C25.1668 42.9104 26.3954 43.16 27.5697 43.16V37.16ZM27.3582 37.1922C27.3826 37.2086 27.4054 37.2272 27.4251 37.2463C27.4446 37.2652 27.4571 37.2807 27.4634 37.2893C27.4761 37.3067 27.4546 37.2835 27.421 37.1888L21.7664 39.1952C22.1747 40.3458 22.8881 41.415 24.0051 42.1678L27.3582 37.1922ZM27.426 37.203C27.3404 36.9578 27.2417 36.4688 27.2417 35.632H21.2417C21.2417 36.8645 21.3777 38.0822 21.7614 39.181L27.426 37.203ZM27.2417 35.632C27.2417 34.7438 27.3356 34.2287 27.4168 33.977L21.7066 32.135C21.3611 33.206 21.2417 34.4082 21.2417 35.632H27.2417ZM27.4077 34.0047C27.4387 33.9117 27.4559 33.9002 27.4318 33.9336C27.4197 33.9503 27.3998 33.9748 27.3708 34.0027C27.3417 34.0308 27.3083 34.0574 27.2725 34.0808L23.9949 29.0552C22.8251 29.818 22.1076 30.9315 21.7156 32.1073L27.4077 34.0047ZM27.2725 34.0808C27.2015 34.1271 27.1673 34.1298 27.2076 34.1198C27.2521 34.1088 27.3655 34.088 27.5697 34.088V28.088C26.3941 28.088 25.1211 28.3207 23.9949 29.0552L27.2725 34.0808ZM27.5697 34.088C27.8268 34.088 28.0061 34.1437 28.1701 34.2393L31.1933 29.0567C30.0773 28.4057 28.8486 28.088 27.5697 28.088V34.088ZM28.2027 34.2581C28.3364 34.3339 28.4687 34.4481 28.603 34.6868L33.8324 31.7452C33.1987 30.6186 32.307 29.6875 31.1607 29.0379L28.2027 34.2581ZM28.613 34.7044C28.688 34.8358 28.7937 35.1047 28.7937 35.632H34.7937C34.7937 34.282 34.5153 32.9402 33.8224 31.7276L28.613 34.7044ZM28.7937 35.632C28.7937 36.1576 28.6886 36.4409 28.603 36.5932L33.8324 39.5348C34.5148 38.3217 34.7937 36.9837 34.7937 35.632H28.7937ZM28.613 36.5756C28.482 36.8048 28.3485 36.9233 28.2027 37.0059L31.1607 42.2261C32.2948 41.5834 33.1854 40.6672 33.8224 39.5524L28.613 36.5756ZM28.2027 37.0059C28.0339 37.1016 27.843 37.16 27.5697 37.16V43.16C28.8324 43.16 30.0495 42.8558 31.1607 42.2261L28.2027 37.0059ZM24.7297 43.104V31.248H18.7297V43.104H24.7297ZM21.7297 34.248H25.1697V28.248H21.7297V34.248ZM22.1697 31.248V32.432H28.1697V31.248H22.1697ZM22.1697 32.447L22.1857 35.647L28.1856 35.617L28.1697 32.417L22.1697 32.447ZM22.1894 35.7818L22.3494 38.9818L28.3419 38.6822L28.1819 35.4822L22.1894 35.7818ZM22.3457 38.832V43.104H28.3457V38.832H22.3457ZM25.3457 40.104H21.7297V46.104H25.3457V40.104ZM26.7057 40.344C27.4755 40.344 28.256 40.1524 28.9692 39.7245L25.8822 34.5795C26.1687 34.4076 26.4692 34.344 26.7057 34.344V40.344ZM28.9692 39.7245C29.742 39.2608 30.2771 38.6054 30.621 37.9176L25.2544 35.2344C25.3423 35.0586 25.5361 34.7872 25.8822 34.5795L28.9692 39.7245ZM30.621 37.9176C31.0108 37.1381 31.1297 36.3345 31.1297 35.632H25.1297C25.1297 35.6761 25.1206 35.5019 25.2544 35.2344L30.621 37.9176ZM31.1297 35.632C31.1297 34.9341 31.0159 34.1202 30.621 33.3304L25.2544 36.0136C25.1155 35.7358 25.1297 35.5619 25.1297 35.632H31.1297ZM30.621 33.3304C30.2771 32.6426 29.742 31.9872 28.9692 31.5235L25.8822 36.6685C25.5361 36.4608 25.3423 36.1894 25.2544 36.0136L30.621 33.3304ZM28.9692 31.5235C28.256 31.0956 27.4755 30.904 26.7057 30.904V36.904C26.4692 36.904 26.1687 36.8404 25.8822 36.6685L28.9692 31.5235ZM26.7057 30.904C25.9359 30.904 25.1554 31.0956 24.4422 31.5235L27.5292 36.6685C27.2427 36.8404 26.9422 36.904 26.7057 36.904V30.904ZM24.4422 31.5235C23.6694 31.9872 23.1343 32.6426 22.7904 33.3304L28.157 36.0136C28.0691 36.1894 27.8753 36.4608 27.5292 36.6685L24.4422 31.5235ZM22.7904 33.3304C22.3955 34.1202 22.2817 34.9341 22.2817 35.632H28.2817C28.2817 35.5619 28.2959 35.7358 28.157 36.0136L22.7904 33.3304ZM22.2817 35.632C22.2817 36.3345 22.4006 37.1381 22.7904 37.9176L28.157 35.2344C28.2908 35.5019 28.2817 35.6761 28.2817 35.632H22.2817ZM22.7904 37.9176C23.1343 38.6054 23.6694 39.2608 24.4422 39.7245L27.5292 34.5795C27.8753 34.7872 28.0691 35.0586 28.157 35.2344L22.7904 37.9176ZM24.4422 39.7245C25.1554 40.1524 25.9359 40.344 26.7057 40.344V34.344C26.9422 34.344 27.2427 34.4076 27.5292 34.5795L24.4422 39.7245ZM32.9328 40H29.9328C29.9328 41.6569 31.276 43 32.9328 43V40ZM32.9328 31.248V28.248C31.276 28.248 29.9328 29.5911 29.9328 31.248H32.9328ZM36.5488 31.248H39.5488C39.5488 29.5911 38.2057 28.248 36.5488 28.248V31.248ZM36.5488 40V43C38.2057 43 39.5488 41.6569 39.5488 40H36.5488ZM33.1568 30.016L35.1537 27.7771L33.1568 30.016ZM33.1568 27.392L35.1537 29.6309L33.1568 27.392ZM36.3248 27.36L34.3982 29.6596L34.3982 29.6596L36.3248 27.36ZM36.3248 30.016L38.3217 32.2549C38.3327 32.245 38.3438 32.235 38.3547 32.225L36.3248 30.016ZM35.9328 40V31.248H29.9328V40H35.9328ZM32.9328 34.248H36.5488V28.248H32.9328V34.248ZM33.5488 31.248V40H39.5488V31.248H33.5488ZM36.5488 37H32.9328V43H36.5488V37ZM34.7408 27.544C34.6736 27.544 34.7042 27.5349 34.7975 27.5659C34.8999 27.6001 35.0307 27.6674 35.1537 27.7771L31.16 32.2549C32.2322 33.2112 33.5346 33.544 34.7408 33.544V27.544ZM35.1537 27.7771C35.2376 27.852 35.3562 27.9883 35.4473 28.1901C35.5388 28.3929 35.5648 28.5783 35.5648 28.704H29.5648C29.5648 30.0933 30.1357 31.3414 31.16 32.2549L35.1537 27.7771ZM35.5648 28.704C35.5648 28.8297 35.5388 29.0151 35.4473 29.2179C35.3562 29.4197 35.2376 29.556 35.1537 29.6309L31.16 25.1531C30.1357 26.0666 29.5648 27.3147 29.5648 28.704H35.5648ZM35.1537 29.6309C35.0307 29.7406 34.8999 29.8079 34.7975 29.842C34.7042 29.8731 34.6736 29.864 34.7408 29.864V23.864C33.5346 23.864 32.2322 24.1968 31.16 25.1531L35.1537 29.6309ZM34.7408 29.864C34.8249 29.864 34.8127 29.8748 34.7363 29.8509C34.6516 29.8244 34.5258 29.7665 34.3982 29.6596L38.2515 25.0604C37.1784 24.1614 35.9023 23.864 34.7408 23.864V29.864ZM34.3982 29.6596C34.2894 29.5684 34.1499 29.4121 34.0459 29.1873C33.9425 28.9638 33.9168 28.7646 33.9168 28.64H39.9168C39.9168 27.2453 39.3383 25.971 38.2515 25.0604L34.3982 29.6596ZM33.9168 28.64C33.9168 28.555 33.9336 28.3991 34.013 28.2144C34.0935 28.0273 34.2041 27.8905 34.2949 27.807L38.3547 32.225C39.3916 31.2722 39.9168 30.0012 39.9168 28.64H33.9168ZM34.328 27.7771C34.4509 27.6674 34.5818 27.6001 34.6841 27.5659C34.7774 27.5349 34.808 27.544 34.7408 27.544V33.544C35.947 33.544 37.2495 33.2112 38.3217 32.2549L34.328 27.7771ZM46.0556 31.504L44.693 34.1767C44.707 34.1838 44.721 34.1909 44.7351 34.1978L46.0556 31.504ZM47.3356 32.768L44.6926 34.1874C44.6993 34.1999 44.7062 34.2125 44.7131 34.2249L47.3356 32.768ZM47.8156 40V43C49.4724 43 50.8156 41.6569 50.8156 40H47.8156ZM44.1996 40H41.1996C41.1996 41.6569 42.5427 43 44.1996 43V40ZM43.9116 34.48L41.5897 36.3797C41.6042 36.3974 41.6189 36.415 41.6338 36.4324L43.9116 34.48ZM42.4396 34.304L43.8368 36.9588C43.8531 36.9502 43.8692 36.9415 43.8853 36.9326L42.4396 34.304ZM41.9436 34.848L39.2603 33.5064C39.2451 33.5367 39.2305 33.5672 39.2164 33.598L41.9436 34.848ZM41.7676 40V43C43.4244 43 44.7676 41.6569 44.7676 40H41.7676ZM38.1516 40H35.1516C35.1516 41.6569 36.4947 43 38.1516 43V40ZM38.1516 31.248V28.248C36.4947 28.248 35.1516 29.5911 35.1516 31.248H38.1516ZM41.5916 31.248H44.5916C44.5916 29.5911 43.2484 28.248 41.5916 28.248V31.248ZM41.5916 33.808L39.4 35.8567C40.2412 36.7565 41.5469 37.0507 42.6928 36.5986C43.8386 36.1464 44.5916 35.0398 44.5916 33.808H41.5916ZM40.9036 33.072L38.2377 31.6961C37.656 32.8231 37.8459 34.1941 38.712 35.1207L40.9036 33.072ZM42.2796 31.584L40.8065 28.9705C40.7997 28.9744 40.7928 28.9783 40.786 28.9822L42.2796 31.584ZM44.2316 34.088C44.4783 34.088 44.6121 34.1355 44.693 34.1767L47.4181 28.8313C46.411 28.3179 45.3288 28.088 44.2316 28.088V34.088ZM44.7351 34.1978C44.7293 34.1949 44.7191 34.1893 44.7068 34.1805C44.6944 34.1718 44.6837 34.1626 44.6756 34.1546C44.6676 34.1467 44.6652 34.143 44.6677 34.1464C44.6703 34.1499 44.6792 34.1625 44.6926 34.1874L49.9785 31.3486C49.3972 30.2662 48.5286 29.3752 47.376 28.8102L44.7351 34.1978ZM44.7131 34.2249C44.7073 34.2145 44.8156 34.4107 44.8156 35.008H50.8156C50.8156 33.7706 50.6038 32.4735 49.958 31.3111L44.7131 34.2249ZM44.8156 35.008V40H50.8156V35.008H44.8156ZM47.8156 37H44.1996V43H47.8156V37ZM47.1996 40V35.632H41.1996V40H47.1996ZM47.1996 35.632C47.1996 34.9061 47.1054 33.5964 46.1893 32.5276L41.6338 36.4324C41.3413 36.0912 41.2453 35.7762 41.2171 35.6636C41.1882 35.5477 41.1996 35.5209 41.1996 35.632H47.1996ZM46.2334 32.5803C45.4154 31.5804 44.2652 31.128 43.1276 31.128V37.128C42.9343 37.128 42.6537 37.0924 42.3428 36.9528C42.0244 36.8099 41.7706 36.6008 41.5897 36.3797L46.2334 32.5803ZM43.1276 31.128C42.3808 31.128 41.6536 31.3125 40.9938 31.6754L43.8853 36.9326C43.6522 37.0609 43.3837 37.128 43.1276 37.128V31.128ZM41.0423 31.6492C40.1588 32.1143 39.5982 32.8305 39.2603 33.5064L44.6268 36.1896C44.5449 36.3535 44.315 36.7071 43.8368 36.9588L41.0423 31.6492ZM39.2164 33.598C38.8474 34.403 38.7676 35.2335 38.7676 35.888H44.7676C44.7676 35.7984 44.7739 35.7743 44.7695 35.8006C44.7654 35.8249 44.7446 35.9369 44.6708 36.098L39.2164 33.598ZM38.7676 35.888V40H44.7676V35.888H38.7676ZM41.7676 37H38.1516V43H41.7676V37ZM41.1516 40V31.248H35.1516V40H41.1516ZM38.1516 34.248H41.5916V28.248H38.1516V34.248ZM38.5916 31.248V33.808H44.5916V31.248H38.5916ZM43.7831 31.7593L43.0951 31.0233L38.712 35.1207L39.4 35.8567L43.7831 31.7593ZM43.5694 34.4479C43.679 34.2356 43.7566 34.1953 43.7732 34.1858L40.786 28.9822C39.6506 29.634 38.8108 30.5857 38.2377 31.6961L43.5694 34.4479ZM43.7526 34.1975C43.862 34.1358 44.0003 34.088 44.2316 34.088V28.088C43.0335 28.088 41.8704 28.3709 40.8065 28.9705L43.7526 34.1975Z" fill="#4B371F" mask="url(#path-7-outside-2_28641_17276)"/>
</svg>
