<svg width="70" height="20" viewBox="0 0 70 20" fill="none" xmlns="http://www.w3.org/2000/svg">
<mask id="path-1-outside-1_24346_3350" maskUnits="userSpaceOnUse" x="-2" y="-2" width="74" height="24" fill="black">
<rect fill="white" x="-2" y="-2" width="74" height="24"/>
<path d="M9.256 18.974C6.37867 18.9567 4.22067 18.246 2.782 16.842C1.36067 15.438 0.65 13.1587 0.65 10.004C0.65 7.144 1.34333 4.89933 2.73 3.27C4.11667 1.62333 6.07533 0.799999 8.606 0.799999C10.166 0.799999 11.5267 1.034 12.688 1.502C13.8493 1.97 14.742 2.63733 15.366 3.504C15.99 4.37067 16.302 5.39333 16.302 6.572C16.302 7.508 16.094 8.34 15.678 9.068C15.2793 9.796 14.6813 10.446 13.884 11.018C14.5253 11.122 15.08 11.4687 15.548 12.058C16.0333 12.6473 16.276 13.332 16.276 14.112C16.276 14.944 16.0507 15.7327 15.6 16.478C15.1667 17.206 14.4213 17.804 13.364 18.272C12.324 18.74 10.9547 18.974 9.256 18.974ZM7.462 9.276C7.774 9.432 8.164 9.51 8.632 9.51C9.18667 9.51 9.66333 9.38 10.062 9.12C10.478 8.84267 10.686 8.43533 10.686 7.898C10.686 7.378 10.478 6.988 10.062 6.728C9.66333 6.45067 9.178 6.312 8.606 6.312C8.15533 6.312 7.774 6.39 7.462 6.546C7.21933 6.65 7.03733 6.832 6.916 7.092C6.79467 7.352 6.734 7.62933 6.734 7.924C6.734 8.21867 6.79467 8.496 6.916 8.756C7.03733 8.99867 7.21933 9.172 7.462 9.276ZM7.462 15.36C7.79133 15.4987 8.18133 15.568 8.632 15.568C9.18667 15.568 9.66333 15.4553 10.062 15.23C10.478 14.9873 10.686 14.632 10.686 14.164C10.686 13.7133 10.478 13.3667 10.062 13.124C9.646 12.8813 9.16067 12.76 8.606 12.76C8.17267 12.76 7.79133 12.8293 7.462 12.968C7.21933 13.072 7.03733 13.2367 6.916 13.462C6.79467 13.67 6.734 13.904 6.734 14.164C6.734 14.424 6.79467 14.6667 6.916 14.892C7.03733 15.1 7.21933 15.256 7.462 15.36ZM23.6031 19.026C22.3551 19.0433 21.2371 18.7833 20.2491 18.246C19.2785 17.7087 18.5158 16.972 17.9611 16.036C17.4238 15.0827 17.1378 14.0253 17.1031 12.864C17.0858 11.7027 17.3545 10.6627 17.9091 9.744C18.4638 8.82533 19.2351 8.09733 20.2231 7.56C21.2285 7.02267 22.3551 6.754 23.6031 6.754C24.8165 6.754 25.9085 7.014 26.8791 7.534C27.8671 8.054 28.6471 8.782 29.2191 9.718C29.7911 10.654 30.0945 11.7027 30.1291 12.864C30.1465 13.9907 29.8778 15.022 29.3231 15.958C28.7685 16.8767 27.9885 17.6133 26.9831 18.168C25.9951 18.7227 24.8685 19.0087 23.6031 19.026ZM23.6811 15.23C24.1491 15.23 24.5565 15.048 24.9031 14.684C25.2498 14.32 25.4231 13.8953 25.4231 13.41C25.4231 12.9247 25.2498 12.5087 24.9031 12.162C24.5565 11.798 24.1491 11.616 23.6811 11.616C23.2131 11.616 22.8058 11.798 22.4591 12.162C22.1125 12.5087 21.9391 12.9247 21.9391 13.41C21.9391 13.8953 22.1125 14.32 22.4591 14.684C22.8058 15.048 23.2131 15.23 23.6811 15.23ZM37.4156 19.026C36.1676 19.0433 35.0496 18.7833 34.0616 18.246C33.091 17.7087 32.3283 16.972 31.7736 16.036C31.2363 15.0827 30.9503 14.0253 30.9156 12.864C30.8983 11.7027 31.167 10.6627 31.7216 9.744C32.2763 8.82533 33.0476 8.09733 34.0356 7.56C35.041 7.02267 36.1676 6.754 37.4156 6.754C38.629 6.754 39.721 7.014 40.6916 7.534C41.6796 8.054 42.4596 8.782 43.0316 9.718C43.6036 10.654 43.907 11.7027 43.9416 12.864C43.959 13.9907 43.6903 15.022 43.1356 15.958C42.581 16.8767 41.801 17.6133 40.7956 18.168C39.8076 18.7227 38.681 19.0087 37.4156 19.026ZM37.4936 15.23C37.9616 15.23 38.369 15.048 38.7156 14.684C39.0623 14.32 39.2356 13.8953 39.2356 13.41C39.2356 12.9247 39.0623 12.5087 38.7156 12.162C38.369 11.798 37.9616 11.616 37.4936 11.616C37.0256 11.616 36.6183 11.798 36.2716 12.162C35.925 12.5087 35.7516 12.9247 35.7516 13.41C35.7516 13.8953 35.925 14.32 36.2716 14.684C36.6183 15.048 37.0256 15.23 37.4936 15.23ZM49.7201 19C48.1948 19 46.9815 18.7487 46.0801 18.246C45.1788 17.7433 44.7281 17.0933 44.7281 16.296C44.7281 15.776 44.9015 15.3773 45.2481 15.1C45.6121 14.8053 46.0715 14.658 46.6261 14.658C46.9381 14.658 47.1895 14.7013 47.3801 14.788C47.5708 14.8747 47.7615 14.996 47.9521 15.152C48.0908 15.2733 48.2035 15.36 48.2901 15.412C48.3941 15.464 48.5155 15.49 48.6541 15.49C49.0181 15.49 49.2001 15.36 49.2001 15.1C49.2001 14.8573 49.1048 14.6753 48.9141 14.554C48.7235 14.4153 48.3941 14.2507 47.9261 14.06C47.4928 13.8867 47.2068 13.7653 47.0681 13.696C46.2708 13.3147 45.6815 12.864 45.3001 12.344C44.9188 11.824 44.7281 11.2693 44.7281 10.68C44.7281 10.0213 44.9621 9.39733 45.4301 8.808C45.9155 8.20133 46.5915 7.716 47.4581 7.352C48.3421 6.97067 49.3561 6.78 50.5001 6.78C51.4881 6.78 52.3808 6.91867 53.1781 7.196C53.9928 7.47333 54.6341 7.85467 55.1021 8.34C55.5701 8.808 55.8041 9.328 55.8041 9.9C55.8041 10.4373 55.6308 10.8447 55.2841 11.122C54.9548 11.3993 54.5041 11.538 53.9321 11.538C53.7068 11.538 53.5248 11.5207 53.3861 11.486C53.2648 11.434 53.1001 11.356 52.8921 11.252C52.7708 11.1827 52.6408 11.122 52.5021 11.07C52.3808 11.018 52.2421 10.992 52.0861 10.992C51.9475 10.992 51.8261 11.044 51.7221 11.148C51.6181 11.2347 51.5661 11.3473 51.5661 11.486C51.5661 11.746 51.7568 11.9367 52.1381 12.058C53.1435 12.3873 53.9495 12.8033 54.5561 13.306C55.1801 13.8087 55.4921 14.502 55.4921 15.386C55.4921 16.5127 54.9635 17.3967 53.9061 18.038C52.8661 18.6793 51.4708 19 49.7201 19ZM69.7814 7.742C69.7814 8.64333 69.3567 9.25867 68.5074 9.588C67.658 9.9 66.4967 10.0647 65.0234 10.082C65.006 10.5153 64.9974 11.2173 64.9974 12.188C64.9974 13.176 65.0667 13.878 65.2054 14.294C65.292 14.5887 65.422 14.7793 65.5954 14.866C65.786 14.9527 66.0634 15.0133 66.4274 15.048C66.5487 15.0653 66.6787 15.0913 66.8174 15.126C66.9734 15.1433 67.1467 15.1693 67.3374 15.204C67.736 15.2907 68.048 15.5073 68.2734 15.854C68.4987 16.1833 68.6114 16.608 68.6114 17.128C68.6114 17.7173 68.308 18.1767 67.7014 18.506C67.0947 18.8353 66.2627 19 65.2054 19C64.2347 19 63.3074 18.7227 62.4234 18.168C61.5394 17.596 60.9327 16.8333 60.6034 15.88C60.2567 14.8573 60.0834 12.9247 60.0834 10.082C58.87 10.0473 57.8907 9.89133 57.1454 9.614C56.4174 9.31933 56.0534 8.79933 56.0534 8.054C56.0534 7.118 56.4 6.494 57.0934 6.182C57.7867 5.85267 58.7834 5.67933 60.0834 5.662C60.1354 4.27533 60.352 3.12267 60.7334 2.204C61.1147 1.268 61.7994 0.799999 62.7874 0.799999C63.7927 0.799999 64.4427 1.23333 64.7374 2.1C65.0494 2.96667 65.188 4.154 65.1534 5.662C66.7307 5.64467 67.892 5.766 68.6374 6.026C69.4 6.286 69.7814 6.858 69.7814 7.742Z"/>
</mask>
<path d="M9.256 18.974C6.37867 18.9567 4.22067 18.246 2.782 16.842C1.36067 15.438 0.65 13.1587 0.65 10.004C0.65 7.144 1.34333 4.89933 2.73 3.27C4.11667 1.62333 6.07533 0.799999 8.606 0.799999C10.166 0.799999 11.5267 1.034 12.688 1.502C13.8493 1.97 14.742 2.63733 15.366 3.504C15.99 4.37067 16.302 5.39333 16.302 6.572C16.302 7.508 16.094 8.34 15.678 9.068C15.2793 9.796 14.6813 10.446 13.884 11.018C14.5253 11.122 15.08 11.4687 15.548 12.058C16.0333 12.6473 16.276 13.332 16.276 14.112C16.276 14.944 16.0507 15.7327 15.6 16.478C15.1667 17.206 14.4213 17.804 13.364 18.272C12.324 18.74 10.9547 18.974 9.256 18.974ZM7.462 9.276C7.774 9.432 8.164 9.51 8.632 9.51C9.18667 9.51 9.66333 9.38 10.062 9.12C10.478 8.84267 10.686 8.43533 10.686 7.898C10.686 7.378 10.478 6.988 10.062 6.728C9.66333 6.45067 9.178 6.312 8.606 6.312C8.15533 6.312 7.774 6.39 7.462 6.546C7.21933 6.65 7.03733 6.832 6.916 7.092C6.79467 7.352 6.734 7.62933 6.734 7.924C6.734 8.21867 6.79467 8.496 6.916 8.756C7.03733 8.99867 7.21933 9.172 7.462 9.276ZM7.462 15.36C7.79133 15.4987 8.18133 15.568 8.632 15.568C9.18667 15.568 9.66333 15.4553 10.062 15.23C10.478 14.9873 10.686 14.632 10.686 14.164C10.686 13.7133 10.478 13.3667 10.062 13.124C9.646 12.8813 9.16067 12.76 8.606 12.76C8.17267 12.76 7.79133 12.8293 7.462 12.968C7.21933 13.072 7.03733 13.2367 6.916 13.462C6.79467 13.67 6.734 13.904 6.734 14.164C6.734 14.424 6.79467 14.6667 6.916 14.892C7.03733 15.1 7.21933 15.256 7.462 15.36ZM23.6031 19.026C22.3551 19.0433 21.2371 18.7833 20.2491 18.246C19.2785 17.7087 18.5158 16.972 17.9611 16.036C17.4238 15.0827 17.1378 14.0253 17.1031 12.864C17.0858 11.7027 17.3545 10.6627 17.9091 9.744C18.4638 8.82533 19.2351 8.09733 20.2231 7.56C21.2285 7.02267 22.3551 6.754 23.6031 6.754C24.8165 6.754 25.9085 7.014 26.8791 7.534C27.8671 8.054 28.6471 8.782 29.2191 9.718C29.7911 10.654 30.0945 11.7027 30.1291 12.864C30.1465 13.9907 29.8778 15.022 29.3231 15.958C28.7685 16.8767 27.9885 17.6133 26.9831 18.168C25.9951 18.7227 24.8685 19.0087 23.6031 19.026ZM23.6811 15.23C24.1491 15.23 24.5565 15.048 24.9031 14.684C25.2498 14.32 25.4231 13.8953 25.4231 13.41C25.4231 12.9247 25.2498 12.5087 24.9031 12.162C24.5565 11.798 24.1491 11.616 23.6811 11.616C23.2131 11.616 22.8058 11.798 22.4591 12.162C22.1125 12.5087 21.9391 12.9247 21.9391 13.41C21.9391 13.8953 22.1125 14.32 22.4591 14.684C22.8058 15.048 23.2131 15.23 23.6811 15.23ZM37.4156 19.026C36.1676 19.0433 35.0496 18.7833 34.0616 18.246C33.091 17.7087 32.3283 16.972 31.7736 16.036C31.2363 15.0827 30.9503 14.0253 30.9156 12.864C30.8983 11.7027 31.167 10.6627 31.7216 9.744C32.2763 8.82533 33.0476 8.09733 34.0356 7.56C35.041 7.02267 36.1676 6.754 37.4156 6.754C38.629 6.754 39.721 7.014 40.6916 7.534C41.6796 8.054 42.4596 8.782 43.0316 9.718C43.6036 10.654 43.907 11.7027 43.9416 12.864C43.959 13.9907 43.6903 15.022 43.1356 15.958C42.581 16.8767 41.801 17.6133 40.7956 18.168C39.8076 18.7227 38.681 19.0087 37.4156 19.026ZM37.4936 15.23C37.9616 15.23 38.369 15.048 38.7156 14.684C39.0623 14.32 39.2356 13.8953 39.2356 13.41C39.2356 12.9247 39.0623 12.5087 38.7156 12.162C38.369 11.798 37.9616 11.616 37.4936 11.616C37.0256 11.616 36.6183 11.798 36.2716 12.162C35.925 12.5087 35.7516 12.9247 35.7516 13.41C35.7516 13.8953 35.925 14.32 36.2716 14.684C36.6183 15.048 37.0256 15.23 37.4936 15.23ZM49.7201 19C48.1948 19 46.9815 18.7487 46.0801 18.246C45.1788 17.7433 44.7281 17.0933 44.7281 16.296C44.7281 15.776 44.9015 15.3773 45.2481 15.1C45.6121 14.8053 46.0715 14.658 46.6261 14.658C46.9381 14.658 47.1895 14.7013 47.3801 14.788C47.5708 14.8747 47.7615 14.996 47.9521 15.152C48.0908 15.2733 48.2035 15.36 48.2901 15.412C48.3941 15.464 48.5155 15.49 48.6541 15.49C49.0181 15.49 49.2001 15.36 49.2001 15.1C49.2001 14.8573 49.1048 14.6753 48.9141 14.554C48.7235 14.4153 48.3941 14.2507 47.9261 14.06C47.4928 13.8867 47.2068 13.7653 47.0681 13.696C46.2708 13.3147 45.6815 12.864 45.3001 12.344C44.9188 11.824 44.7281 11.2693 44.7281 10.68C44.7281 10.0213 44.9621 9.39733 45.4301 8.808C45.9155 8.20133 46.5915 7.716 47.4581 7.352C48.3421 6.97067 49.3561 6.78 50.5001 6.78C51.4881 6.78 52.3808 6.91867 53.1781 7.196C53.9928 7.47333 54.6341 7.85467 55.1021 8.34C55.5701 8.808 55.8041 9.328 55.8041 9.9C55.8041 10.4373 55.6308 10.8447 55.2841 11.122C54.9548 11.3993 54.5041 11.538 53.9321 11.538C53.7068 11.538 53.5248 11.5207 53.3861 11.486C53.2648 11.434 53.1001 11.356 52.8921 11.252C52.7708 11.1827 52.6408 11.122 52.5021 11.07C52.3808 11.018 52.2421 10.992 52.0861 10.992C51.9475 10.992 51.8261 11.044 51.7221 11.148C51.6181 11.2347 51.5661 11.3473 51.5661 11.486C51.5661 11.746 51.7568 11.9367 52.1381 12.058C53.1435 12.3873 53.9495 12.8033 54.5561 13.306C55.1801 13.8087 55.4921 14.502 55.4921 15.386C55.4921 16.5127 54.9635 17.3967 53.9061 18.038C52.8661 18.6793 51.4708 19 49.7201 19ZM69.7814 7.742C69.7814 8.64333 69.3567 9.25867 68.5074 9.588C67.658 9.9 66.4967 10.0647 65.0234 10.082C65.006 10.5153 64.9974 11.2173 64.9974 12.188C64.9974 13.176 65.0667 13.878 65.2054 14.294C65.292 14.5887 65.422 14.7793 65.5954 14.866C65.786 14.9527 66.0634 15.0133 66.4274 15.048C66.5487 15.0653 66.6787 15.0913 66.8174 15.126C66.9734 15.1433 67.1467 15.1693 67.3374 15.204C67.736 15.2907 68.048 15.5073 68.2734 15.854C68.4987 16.1833 68.6114 16.608 68.6114 17.128C68.6114 17.7173 68.308 18.1767 67.7014 18.506C67.0947 18.8353 66.2627 19 65.2054 19C64.2347 19 63.3074 18.7227 62.4234 18.168C61.5394 17.596 60.9327 16.8333 60.6034 15.88C60.2567 14.8573 60.0834 12.9247 60.0834 10.082C58.87 10.0473 57.8907 9.89133 57.1454 9.614C56.4174 9.31933 56.0534 8.79933 56.0534 8.054C56.0534 7.118 56.4 6.494 57.0934 6.182C57.7867 5.85267 58.7834 5.67933 60.0834 5.662C60.1354 4.27533 60.352 3.12267 60.7334 2.204C61.1147 1.268 61.7994 0.799999 62.7874 0.799999C63.7927 0.799999 64.4427 1.23333 64.7374 2.1C65.0494 2.96667 65.188 4.154 65.1534 5.662C66.7307 5.64467 67.892 5.766 68.6374 6.026C69.4 6.286 69.7814 6.858 69.7814 7.742Z" fill="#F7F9EA"/>
<path d="M9.256 18.974L9.24395 20.974H9.256V18.974ZM2.782 16.842L1.37646 18.2649L1.38514 18.2734L2.782 16.842ZM2.73 3.27L4.2531 4.56625L4.25982 4.55827L2.73 3.27ZM12.688 1.502L13.4356 -0.353039V-0.353039L12.688 1.502ZM15.678 9.068L13.9415 8.07572L13.9325 8.09147L13.9238 8.10737L15.678 9.068ZM13.884 11.018L12.7182 9.39292L8.78192 12.2168L13.5639 12.9922L13.884 11.018ZM15.548 12.058L13.9818 13.3018L13.9928 13.3157L14.0041 13.3294L15.548 12.058ZM15.6 16.478L13.8885 15.4431L13.8814 15.455L15.6 16.478ZM13.364 18.272L12.5545 16.4431L12.5433 16.4482L13.364 18.272ZM7.462 9.276L8.35643 7.48715L8.30386 7.46086L8.24984 7.43771L7.462 9.276ZM10.062 9.12L11.1545 10.7952L11.163 10.7897L11.1714 10.7841L10.062 9.12ZM10.062 6.728L8.91987 8.36981L8.96027 8.39791L9.002 8.424L10.062 6.728ZM7.462 6.546L8.24984 8.38429L8.30386 8.36114L8.35643 8.33485L7.462 6.546ZM6.916 7.092L5.10363 6.24623L5.10363 6.24623L6.916 7.092ZM6.916 8.756L5.10363 9.60177L5.11506 9.62626L5.12715 9.65043L6.916 8.756ZM7.462 15.36L6.67414 17.1983L6.68589 17.2033L7.462 15.36ZM10.062 15.23L11.0461 16.9711L11.058 16.9644L11.0697 16.9576L10.062 15.23ZM10.062 13.124L11.0697 11.3964L11.0697 11.3964L10.062 13.124ZM7.462 12.968L6.68587 11.1247L6.67416 11.1297L7.462 12.968ZM6.916 13.462L8.64356 14.4697L8.66076 14.4403L8.67694 14.4102L6.916 13.462ZM6.916 14.892L5.15506 15.8402L5.17124 15.8703L5.18844 15.8997L6.916 14.892ZM9.26805 16.974C6.68495 16.9585 5.11298 16.3222 4.17886 15.4106L1.38514 18.2734C3.32836 20.1698 6.07238 20.9549 9.24395 20.974L9.26805 16.974ZM4.18751 15.4191C3.31709 14.5593 2.65 12.9241 2.65 10.004H-1.35C-1.35 13.3932 -0.595755 16.3167 1.37649 18.2649L4.18751 15.4191ZM2.65 10.004C2.65 7.45773 3.26476 5.72751 4.25308 4.56624L1.20692 1.97376C-0.57809 4.07115 -1.35 6.83027 -1.35 10.004H2.65ZM4.25982 4.55827C5.19828 3.44386 6.5505 2.8 8.606 2.8V-1.2C5.60016 -1.2 3.03506 -0.197193 1.20018 1.98173L4.25982 4.55827ZM8.606 2.8C9.97065 2.8 11.0673 3.00516 11.9404 3.35704L13.4356 -0.353039C11.9861 -0.937162 10.3613 -1.2 8.606 -1.2V2.8ZM11.9404 3.35704C12.8124 3.70842 13.3758 4.16266 13.7429 4.67261L16.9891 2.33539C16.1082 1.112 14.8863 0.231574 13.4356 -0.353039L11.9404 3.35704ZM13.7429 4.67261C14.0965 5.16365 14.302 5.76712 14.302 6.572H18.302C18.302 5.01955 17.8835 3.57769 16.9891 2.33539L13.7429 4.67261ZM14.302 6.572C14.302 7.20132 14.1654 7.68392 13.9415 8.07572L17.4145 10.0603C18.0226 8.99608 18.302 7.81468 18.302 6.572H14.302ZM13.9238 8.10737C13.6929 8.52894 13.3161 8.96399 12.7182 9.39292L15.0498 12.6431C16.0466 11.928 16.8657 11.0631 17.4322 10.0286L13.9238 8.10737ZM13.5639 12.9922C13.6362 13.0039 13.7713 13.0367 13.9818 13.3018L17.1142 10.8142C16.3887 9.9006 15.4145 9.24007 14.2041 9.04379L13.5639 12.9922ZM14.0041 13.3294C14.1877 13.5523 14.276 13.7849 14.276 14.112H18.276C18.276 12.8791 17.879 11.7424 17.0919 10.7866L14.0041 13.3294ZM14.276 14.112C14.276 14.5617 14.1597 14.9947 13.8885 15.4432L17.3115 17.5128C17.9416 16.4706 18.276 15.3263 18.276 14.112H14.276ZM13.8814 15.455C13.7251 15.7176 13.368 16.0831 12.5545 16.4431L14.1735 20.1009C15.4747 19.5249 16.6082 18.6944 17.3186 17.501L13.8814 15.455ZM12.5433 16.4482C11.8559 16.7575 10.798 16.974 9.256 16.974V20.974C11.1113 20.974 12.7921 20.7225 14.1847 20.0958L12.5433 16.4482ZM6.56757 11.0649C7.23549 11.3988 7.9547 11.51 8.632 11.51V7.51C8.3733 7.51 8.31251 7.46519 8.35643 7.48715L6.56757 11.0649ZM8.632 11.51C9.50908 11.51 10.38 11.3003 11.1545 10.7952L8.96946 7.44478C8.94664 7.45967 8.86425 7.51 8.632 7.51V11.51ZM11.1714 10.7841C12.1914 10.1041 12.686 9.04469 12.686 7.898H8.686C8.686 7.90561 8.68583 7.82023 8.74879 7.69695C8.8147 7.56787 8.90301 7.48896 8.9526 7.4559L11.1714 10.7841ZM12.686 7.898C12.686 6.73835 12.1639 5.68318 11.122 5.032L9.002 8.424C8.94649 8.3893 8.84368 8.30364 8.76529 8.15668C8.68966 8.01486 8.686 7.90832 8.686 7.898H12.686ZM11.2041 5.08619C10.4139 4.53648 9.51189 4.312 8.606 4.312V8.312C8.84411 8.312 8.91275 8.36486 8.91987 8.36981L11.2041 5.08619ZM8.606 4.312C7.93244 4.312 7.22625 4.4278 6.56757 4.75714L8.35643 8.33485C8.32175 8.35219 8.37822 8.312 8.606 8.312V4.312ZM6.67416 4.70771C5.93884 5.02285 5.41333 5.5826 5.10363 6.24623L8.72837 7.93777C8.7017 7.99492 8.64935 8.08308 8.55771 8.17471C8.46413 8.2683 8.35622 8.3387 8.24984 8.38429L6.67416 4.70771ZM5.10363 6.24623C4.85532 6.77833 4.734 7.34521 4.734 7.924H8.734C8.734 7.91907 8.73425 7.91693 8.73422 7.91719C8.73419 7.91748 8.73397 7.91934 8.7333 7.92239C8.73263 7.92546 8.73173 7.92872 8.73066 7.93186C8.7296 7.93499 8.72871 7.93703 8.72837 7.93777L5.10363 6.24623ZM4.734 7.924C4.734 8.50278 4.85532 9.06967 5.10363 9.60177L8.72837 7.91023C8.72871 7.91096 8.7296 7.913 8.73066 7.91613C8.73173 7.91927 8.73263 7.92254 8.7333 7.92561C8.73397 7.92866 8.73419 7.93052 8.73422 7.93081C8.73425 7.93107 8.734 7.92893 8.734 7.924H4.734ZM5.12715 9.65043C5.45365 10.3034 5.98376 10.8184 6.67416 11.1143L8.24984 7.43771C8.33614 7.4747 8.43285 7.53405 8.52281 7.61972C8.61218 7.70483 8.67031 7.79248 8.70485 7.86157L5.12715 9.65043ZM6.68589 17.2033C7.31599 17.4686 7.98187 17.568 8.632 17.568V13.568C8.38079 13.568 8.26668 13.5288 8.23811 13.5167L6.68589 17.2033ZM8.632 17.568C9.45897 17.568 10.2898 17.3986 11.0461 16.9711L9.07789 13.4889C9.03687 13.5121 8.91437 13.568 8.632 13.568V17.568ZM11.0697 16.9576C12.0782 16.3693 12.686 15.3685 12.686 14.164H8.686C8.686 14.0923 8.70513 13.94 8.80397 13.7711C8.9012 13.6051 9.0159 13.5248 9.05426 13.5024L11.0697 16.9576ZM12.686 14.164C12.686 12.9444 12.0487 11.9675 11.0697 11.3964L9.05426 14.8516C9.02704 14.8357 8.91454 14.7609 8.81501 14.595C8.7117 14.4228 8.686 14.2584 8.686 14.164H12.686ZM11.0697 11.3964C10.304 10.9498 9.46028 10.76 8.606 10.76V14.76C8.86106 14.76 8.988 14.8129 9.05426 14.8516L11.0697 11.3964ZM8.606 10.76C7.96144 10.76 7.30721 10.8631 6.68589 11.1247L8.23811 14.8113C8.27545 14.7955 8.3839 14.76 8.606 14.76V10.76ZM6.67416 11.1297C6.03004 11.4058 5.49802 11.8769 5.15506 12.5138L8.67694 14.4102C8.63411 14.4897 8.57068 14.5753 8.48533 14.6526C8.40057 14.7293 8.31613 14.7779 8.24984 14.8063L6.67416 11.1297ZM5.18844 12.4543C4.87454 12.9924 4.734 13.5791 4.734 14.164H8.734C8.734 14.1906 8.73073 14.2366 8.71549 14.2954C8.70003 14.3551 8.67557 14.4149 8.64356 14.4697L5.18844 12.4543ZM4.734 14.164C4.734 14.7495 4.87422 15.3186 5.15506 15.8402L8.67694 13.9438C8.69323 13.9741 8.70888 14.0123 8.71978 14.0559C8.73065 14.0994 8.734 14.1369 8.734 14.164H4.734ZM5.18844 15.8997C5.54685 16.5142 6.07739 16.9425 6.67416 17.1983L8.24984 13.5217C8.29623 13.5416 8.36729 13.5798 8.44508 13.6465C8.52437 13.7145 8.59226 13.7963 8.64356 13.8843L5.18844 15.8997ZM23.6031 19.026L23.5757 17.0262L23.5753 17.0262L23.6031 19.026ZM20.2491 18.246L19.2805 19.9958L19.287 19.9994L19.2936 20.003L20.2491 18.246ZM17.9611 16.036L16.2188 17.018L16.2295 17.0369L16.2405 17.0556L17.9611 16.036ZM17.1031 12.864L15.1033 12.8938L15.1036 12.9088L15.104 12.9237L17.1031 12.864ZM17.9091 9.744L16.197 8.71026L17.9091 9.744ZM20.2231 7.56L19.2804 5.79614L19.274 5.79956L19.2676 5.80303L20.2231 7.56ZM26.8791 7.534L25.9347 9.29696L25.9411 9.30042L25.9476 9.30384L26.8791 7.534ZM29.2191 9.718L27.5126 10.7609L29.2191 9.718ZM30.1291 12.864L32.1289 12.8332L32.1287 12.8188L32.1282 12.8043L30.1291 12.864ZM29.3231 15.958L31.0353 16.9917L31.0395 16.9847L31.0437 16.9776L29.3231 15.958ZM26.9831 18.168L26.017 16.4168L26.0105 16.4204L26.0041 16.424L26.9831 18.168ZM24.9031 12.162L23.4548 13.5413L23.4717 13.559L23.4889 13.5762L24.9031 12.162ZM22.4591 12.162L23.8733 13.5762L23.8906 13.559L23.9074 13.5413L22.4591 12.162ZM22.4591 14.684L21.0108 16.0633L22.4591 14.684ZM23.5753 17.0262C22.632 17.0393 21.859 16.8449 21.2047 16.489L19.2936 20.003C20.6152 20.7217 22.0782 21.0474 23.6309 21.0258L23.5753 17.0262ZM21.2178 16.4962C20.5518 16.1275 20.0514 15.6402 19.6817 15.0164L16.2405 17.0556C16.9802 18.3038 18.0052 19.2898 19.2805 19.9958L21.2178 16.4962ZM19.7034 15.054C19.3349 14.4002 19.1279 13.6625 19.1022 12.8043L15.104 12.9237C15.1477 14.3882 15.5127 15.7652 16.2188 17.018L19.7034 15.054ZM19.1029 12.8342C19.0907 12.0153 19.2761 11.3494 19.6213 10.7777L16.197 8.71026C15.4328 9.9759 15.0809 11.3901 15.1033 12.8938L19.1029 12.8342ZM19.6213 10.7777C19.9834 10.1779 20.487 9.69315 21.1787 9.31697L19.2676 5.80303C17.9833 6.50152 16.9442 7.47277 16.197 8.71026L19.6213 10.7777ZM21.1659 9.32386C21.8543 8.95592 22.6521 8.754 23.6031 8.754V4.754C22.0581 4.754 20.6026 5.08942 19.2804 5.79614L21.1659 9.32386ZM23.6031 8.754C24.5212 8.754 25.2833 8.94798 25.9347 9.29696L27.8236 5.77104C26.5337 5.08002 25.1117 4.754 23.6031 4.754V8.754ZM25.9476 9.30384C26.6224 9.659 27.1321 10.1384 27.5126 10.7609L30.9257 8.6751C30.1621 7.42561 29.1118 6.449 27.8106 5.76416L25.9476 9.30384ZM27.5126 10.7609C27.8924 11.3825 28.1051 12.0886 28.13 12.9237L32.1282 12.8043C32.0838 11.3167 31.6898 9.92552 30.9257 8.6751L27.5126 10.7609ZM28.1294 12.8948C28.1412 13.6661 27.9621 14.3317 27.6025 14.9384L31.0437 16.9776C31.7935 15.7123 32.1517 14.3153 32.1289 12.8332L28.1294 12.8948ZM27.611 14.9243C27.2504 15.5214 26.7373 16.0194 26.017 16.4168L27.9493 19.9192C29.2397 19.2072 30.2865 18.2319 31.0353 16.9917L27.611 14.9243ZM26.0041 16.424C25.3397 16.797 24.5471 17.0129 23.5757 17.0262L23.6305 21.0258C25.1898 21.0045 26.6505 20.6483 27.9622 19.912L26.0041 16.424ZM23.6811 17.23C24.7401 17.23 25.6584 16.7909 26.3514 16.0633L23.4548 13.3047C23.4385 13.3218 23.4592 13.2954 23.5217 13.2675C23.5873 13.2382 23.648 13.23 23.6811 13.23V17.23ZM26.3514 16.0633C27.0382 15.3421 27.4231 14.4289 27.4231 13.41H23.4231C23.4231 13.4117 23.423 13.4037 23.4259 13.3884C23.4289 13.3728 23.434 13.3549 23.4414 13.3367C23.4488 13.3186 23.4563 13.3057 23.4609 13.2987C23.4653 13.292 23.4648 13.2943 23.4548 13.3047L26.3514 16.0633ZM27.4231 13.41C27.4231 12.3882 27.0348 11.4652 26.3173 10.7478L23.4889 13.5762C23.4939 13.5812 23.4693 13.5568 23.447 13.5032C23.4368 13.4788 23.4303 13.4558 23.4266 13.4367C23.423 13.418 23.4231 13.4082 23.4231 13.41H27.4231ZM26.3514 10.7827C25.6584 10.0551 24.7401 9.616 23.6811 9.616V13.616C23.648 13.616 23.5873 13.6078 23.5217 13.5785C23.4592 13.5506 23.4385 13.5242 23.4548 13.5413L26.3514 10.7827ZM23.6811 9.616C22.6222 9.616 21.7038 10.0551 21.0108 10.7827L23.9074 13.5413C23.9237 13.5242 23.903 13.5506 23.8405 13.5785C23.7749 13.6078 23.7142 13.616 23.6811 13.616V9.616ZM21.0449 10.7478C20.3275 11.4652 19.9391 12.3882 19.9391 13.41H23.9391C23.9391 13.4082 23.9392 13.418 23.9356 13.4367C23.932 13.4558 23.9255 13.4788 23.9153 13.5032C23.893 13.5568 23.8684 13.5812 23.8733 13.5762L21.0449 10.7478ZM19.9391 13.41C19.9391 14.4289 20.324 15.3421 21.0108 16.0633L23.9074 13.3047C23.8975 13.2943 23.8969 13.292 23.9014 13.2987C23.906 13.3057 23.9134 13.3186 23.9208 13.3367C23.9282 13.3549 23.9333 13.3728 23.9363 13.3884C23.9392 13.4037 23.9391 13.4117 23.9391 13.41H19.9391ZM21.0108 16.0633C21.7038 16.7909 22.6222 17.23 23.6811 17.23V13.23C23.7142 13.23 23.7749 13.2382 23.8405 13.2675C23.903 13.2954 23.9237 13.3218 23.9074 13.3047L21.0108 16.0633ZM37.4156 19.026L37.3882 17.0262L37.3879 17.0262L37.4156 19.026ZM34.0616 18.246L33.093 19.9958L33.0995 19.9994L33.1061 20.003L34.0616 18.246ZM31.7736 16.036L30.0313 17.018L30.042 17.0369L30.053 17.0556L31.7736 16.036ZM30.9156 12.864L28.9158 12.8938L28.9161 12.9088L28.9165 12.9237L30.9156 12.864ZM31.7216 9.744L30.0095 8.71026L31.7216 9.744ZM34.0356 7.56L33.0929 5.79614L33.0865 5.79956L33.0801 5.80303L34.0356 7.56ZM40.6916 7.534L39.7472 9.29696L39.7536 9.30042L39.7601 9.30384L40.6916 7.534ZM43.0316 9.718L41.3251 10.7609L43.0316 9.718ZM43.9416 12.864L45.9414 12.8332L45.9412 12.8188L45.9407 12.8043L43.9416 12.864ZM43.1356 15.958L44.8478 16.9917L44.852 16.9847L44.8562 16.9776L43.1356 15.958ZM40.7956 18.168L39.8295 16.4168L39.823 16.4204L39.8166 16.424L40.7956 18.168ZM38.7156 12.162L37.2673 13.5413L37.2842 13.559L37.3014 13.5762L38.7156 12.162ZM36.2716 12.162L37.6858 13.5762L37.7031 13.559L37.7199 13.5413L36.2716 12.162ZM36.2716 14.684L34.8233 16.0633L36.2716 14.684ZM37.3879 17.0262C36.4445 17.0393 35.6715 16.8449 35.0172 16.489L33.1061 20.003C34.4277 20.7217 35.8907 21.0474 37.4434 21.0258L37.3879 17.0262ZM35.0303 16.4962C34.3643 16.1275 33.8639 15.6402 33.4942 15.0164L30.053 17.0556C30.7927 18.3038 31.8177 19.2898 33.093 19.9958L35.0303 16.4962ZM33.5159 15.054C33.1474 14.4002 32.9404 13.6625 32.9147 12.8043L28.9165 12.9237C28.9602 14.3882 29.3252 15.7652 30.0313 17.018L33.5159 15.054ZM32.9154 12.8342C32.9032 12.0153 33.0886 11.3494 33.4338 10.7777L30.0095 8.71026C29.2453 9.9759 28.8934 11.3901 28.9158 12.8938L32.9154 12.8342ZM33.4338 10.7777C33.7959 10.1779 34.2995 9.69315 34.9912 9.31697L33.0801 5.80303C31.7958 6.50152 30.7567 7.47277 30.0095 8.71026L33.4338 10.7777ZM34.9784 9.32386C35.6668 8.95592 36.4646 8.754 37.4156 8.754V4.754C35.8706 4.754 34.4151 5.08942 33.0929 5.79614L34.9784 9.32386ZM37.4156 8.754C38.3337 8.754 39.0958 8.94798 39.7472 9.29696L41.6361 5.77104C40.3462 5.08002 38.9242 4.754 37.4156 4.754V8.754ZM39.7601 9.30384C40.4349 9.659 40.9446 10.1384 41.3251 10.7609L44.7382 8.6751C43.9746 7.42561 42.9243 6.449 41.6231 5.76416L39.7601 9.30384ZM41.3251 10.7609C41.7049 11.3825 41.9176 12.0886 41.9425 12.9237L45.9407 12.8043C45.8963 11.3167 45.5023 9.92552 44.7382 8.6751L41.3251 10.7609ZM41.9419 12.8948C41.9537 13.6661 41.7746 14.3317 41.415 14.9384L44.8562 16.9776C45.606 15.7123 45.9642 14.3153 45.9414 12.8332L41.9419 12.8948ZM41.4235 14.9243C41.0629 15.5214 40.5498 16.0194 39.8295 16.4168L41.7618 19.9192C43.0522 19.2072 44.099 18.2319 44.8478 16.9917L41.4235 14.9243ZM39.8166 16.424C39.1522 16.797 38.3596 17.0129 37.3882 17.0262L37.443 21.0258C39.0023 21.0045 40.463 20.6483 41.7747 19.912L39.8166 16.424ZM37.4936 17.23C38.5526 17.23 39.4709 16.7909 40.1639 16.0633L37.2673 13.3047C37.251 13.3218 37.2717 13.2954 37.3342 13.2675C37.3998 13.2382 37.4605 13.23 37.4936 13.23V17.23ZM40.1639 16.0633C40.8507 15.3421 41.2356 14.4289 41.2356 13.41H37.2356C37.2356 13.4117 37.2355 13.4037 37.2384 13.3884C37.2414 13.3728 37.2465 13.3549 37.2539 13.3367C37.2613 13.3186 37.2688 13.3057 37.2734 13.2987C37.2778 13.292 37.2773 13.2943 37.2673 13.3047L40.1639 16.0633ZM41.2356 13.41C41.2356 12.3882 40.8473 11.4652 40.1298 10.7478L37.3014 13.5762C37.3064 13.5812 37.2818 13.5568 37.2595 13.5032C37.2493 13.4788 37.2428 13.4558 37.2391 13.4367C37.2355 13.418 37.2356 13.4082 37.2356 13.41H41.2356ZM40.1639 10.7827C39.4709 10.0551 38.5526 9.616 37.4936 9.616V13.616C37.4605 13.616 37.3998 13.6078 37.3342 13.5785C37.2717 13.5506 37.251 13.5242 37.2673 13.5413L40.1639 10.7827ZM37.4936 9.616C36.4347 9.616 35.5163 10.0551 34.8233 10.7827L37.7199 13.5413C37.7362 13.5242 37.7155 13.5506 37.653 13.5785C37.5874 13.6078 37.5267 13.616 37.4936 13.616V9.616ZM34.8574 10.7478C34.14 11.4652 33.7516 12.3882 33.7516 13.41H37.7516C37.7516 13.4082 37.7517 13.418 37.7481 13.4367C37.7445 13.4558 37.738 13.4788 37.7278 13.5032C37.7055 13.5568 37.6809 13.5812 37.6858 13.5762L34.8574 10.7478ZM33.7516 13.41C33.7516 14.4289 34.1365 15.3421 34.8233 16.0633L37.7199 13.3047C37.71 13.2943 37.7094 13.292 37.7139 13.2987C37.7185 13.3057 37.7259 13.3186 37.7333 13.3367C37.7407 13.3549 37.7458 13.3728 37.7488 13.3884C37.7517 13.4037 37.7516 13.4117 37.7516 13.41H33.7516ZM34.8233 16.0633C35.5163 16.7909 36.4347 17.23 37.4936 17.23V13.23C37.5267 13.23 37.5874 13.2382 37.653 13.2675C37.7155 13.2954 37.7362 13.3218 37.7199 13.3047L34.8233 16.0633ZM46.0801 18.246L47.0543 16.4993L46.0801 18.246ZM45.2481 15.1L46.4975 16.6618L46.5065 16.6545L45.2481 15.1ZM47.3801 14.788L46.5525 16.6087L46.5525 16.6087L47.3801 14.788ZM47.9521 15.152L49.2691 13.6468L49.2442 13.625L49.2186 13.6041L47.9521 15.152ZM48.2901 15.412L47.2611 17.127L47.327 17.1665L47.3957 17.2009L48.2901 15.412ZM48.9141 14.554L47.7378 16.1715L47.788 16.208L47.8404 16.2413L48.9141 14.554ZM47.9261 14.06L48.6807 12.2078L48.6689 12.203L47.9261 14.06ZM47.0681 13.696L47.9626 11.9071L47.9469 11.8993L47.931 11.8917L47.0681 13.696ZM45.3001 12.344L43.6873 13.5267L45.3001 12.344ZM45.4301 8.808L43.8684 7.5586L43.8639 7.56424L45.4301 8.808ZM47.4581 7.352L48.2326 9.19596L48.2415 9.19224L48.2503 9.18842L47.4581 7.352ZM53.1781 7.196L52.5211 9.08503L52.5336 9.0893L53.1781 7.196ZM55.1021 8.34L53.6624 9.72827L53.6751 9.74136L53.6879 9.75421L55.1021 8.34ZM55.2841 11.122L54.0347 9.56026L54.0151 9.57598L53.9959 9.59218L55.2841 11.122ZM53.3861 11.486L52.5983 13.3243L52.7456 13.3874L52.9011 13.4263L53.3861 11.486ZM52.8921 11.252L51.8998 12.9885L51.948 13.016L51.9977 13.0409L52.8921 11.252ZM52.5021 11.07L51.7143 12.9083L51.7567 12.9265L51.7999 12.9427L52.5021 11.07ZM51.7221 11.148L53.0025 12.6844L53.0722 12.6264L53.1363 12.5622L51.7221 11.148ZM52.1381 12.058L52.7607 10.1574L52.7526 10.1547L52.7445 10.1521L52.1381 12.058ZM54.5561 13.306L53.2801 14.846L53.2907 14.8548L53.3015 14.8635L54.5561 13.306ZM53.9061 18.038L52.8689 16.328L52.8626 16.3318L52.8563 16.3357L53.9061 18.038ZM49.7201 17C48.3845 17 47.5489 16.7751 47.0543 16.4993L45.106 19.9927C46.4141 20.7222 48.0051 21 49.7201 21V17ZM47.0543 16.4993C46.792 16.353 46.7165 16.2517 46.7097 16.2419C46.7078 16.2392 46.7155 16.2502 46.7222 16.2718C46.7289 16.2932 46.7281 16.3042 46.7281 16.296H42.7281C42.7281 18.036 43.7873 19.2573 45.106 19.9927L47.0543 16.4993ZM46.7281 16.296C46.7281 16.2575 46.7343 16.3078 46.6923 16.4045C46.6463 16.5102 46.5728 16.6015 46.4975 16.6617L43.9987 13.5383C43.0935 14.2624 42.7281 15.285 42.7281 16.296H46.7281ZM46.5065 16.6545C46.5003 16.6595 46.4927 16.6646 46.485 16.6688C46.4773 16.6729 46.4737 16.6738 46.4765 16.6729C46.4817 16.6713 46.5257 16.658 46.6261 16.658V12.658C45.7014 12.658 44.7727 12.9117 43.9897 13.5455L46.5065 16.6545ZM46.6261 16.658C46.6924 16.658 46.7169 16.6628 46.7088 16.6614C46.7012 16.6601 46.6421 16.6495 46.5525 16.6087L48.2077 12.9673C47.6618 12.7191 47.0961 12.658 46.6261 12.658V16.658ZM46.5525 16.6087C46.5609 16.6126 46.606 16.6348 46.6856 16.6999L49.2186 13.6041C48.9169 13.3572 48.5807 13.1368 48.2077 12.9673L46.5525 16.6087ZM46.6351 16.6572C46.8032 16.8042 47.0213 16.9831 47.2611 17.127L49.3191 13.697C49.3427 13.7112 49.3575 13.7213 49.3624 13.7247C49.3676 13.7283 49.367 13.7281 49.36 13.7228C49.3451 13.7113 49.3155 13.6874 49.2691 13.6468L46.6351 16.6572ZM47.3957 17.2009C47.826 17.416 48.2643 17.49 48.6541 17.49V13.49C48.7667 13.49 48.9623 13.512 49.1846 13.6231L47.3957 17.2009ZM48.6541 17.49C49.0138 17.49 49.6428 17.4366 50.2261 17.02C50.9334 16.5147 51.2001 15.7557 51.2001 15.1H47.2001C47.2001 14.9326 47.2298 14.6903 47.3536 14.4249C47.4824 14.1489 47.6778 13.9246 47.9011 13.765C48.1121 13.6144 48.3083 13.5489 48.4298 13.52C48.5504 13.4913 48.6325 13.49 48.6541 13.49V17.49ZM51.2001 15.1C51.2001 14.234 50.8046 13.3864 49.9879 12.8667L47.8404 16.2413C47.671 16.1335 47.4874 15.9586 47.357 15.7095C47.2297 15.4665 47.2001 15.2435 47.2001 15.1H51.2001ZM50.0905 12.9365C49.6907 12.6458 49.1684 12.4065 48.6807 12.2078L47.1715 15.9122C47.3742 15.9948 47.5241 16.0625 47.6297 16.1154C47.744 16.1725 47.7665 16.1924 47.7378 16.1715L50.0905 12.9365ZM48.6689 12.203C48.4594 12.1192 48.2934 12.0512 48.1677 11.9978C48.1051 11.9712 48.056 11.9499 48.0189 11.9332C48.0006 11.925 47.9866 11.9185 47.9765 11.9138C47.9661 11.9089 47.9618 11.9068 47.9626 11.9071L46.1737 15.4849C46.3992 15.5976 46.7631 15.7489 47.1833 15.917L48.6689 12.203ZM47.931 11.8917C47.3262 11.6025 47.0406 11.3353 46.9129 11.1613L43.6873 13.5267C44.3224 14.3927 45.2154 15.0269 46.2052 15.5003L47.931 11.8917ZM46.9129 11.1613C46.7582 10.9502 46.7281 10.8036 46.7281 10.68H42.7281C42.7281 11.7351 43.0794 12.6978 43.6873 13.5267L46.9129 11.1613ZM46.7281 10.68C46.7281 10.5363 46.7671 10.3404 46.9963 10.0518L43.8639 7.56424C43.1571 8.45427 42.7281 9.50632 42.7281 10.68H46.7281ZM46.9919 10.0574C47.229 9.76101 47.6097 9.4576 48.2326 9.19596L46.6837 5.50804C45.5733 5.9744 44.602 6.64166 43.8684 7.55861L46.9919 10.0574ZM48.2503 9.18842C48.8416 8.93334 49.5781 8.78 50.5001 8.78V4.78C49.1341 4.78 47.8426 5.008 46.6659 5.51558L48.2503 9.18842ZM50.5001 8.78C51.3017 8.78 51.9676 8.89246 52.5211 9.08499L53.8352 5.30701C52.794 4.94487 51.6745 4.78 50.5001 4.78V8.78ZM52.5336 9.0893C53.1278 9.29158 53.4681 9.52675 53.6624 9.72827L56.5418 6.95173C55.8001 6.18258 54.8578 5.65508 53.8227 5.3027L52.5336 9.0893ZM53.6879 9.75421C53.7776 9.84394 53.8018 9.89519 53.8048 9.90173C53.8065 9.90561 53.8056 9.90438 53.8046 9.89981C53.8037 9.89525 53.8041 9.89442 53.8041 9.9H57.8041C57.8041 8.71371 57.2956 7.70508 56.5163 6.92579L53.6879 9.75421ZM53.8041 9.9C53.8041 9.95572 53.7951 9.91629 53.8338 9.82539C53.8771 9.72372 53.9505 9.62765 54.0347 9.56026L56.5335 12.6837C57.4552 11.9464 57.8041 10.9033 57.8041 9.9H53.8041ZM53.9959 9.59218C54.0235 9.5689 54.0504 9.55146 54.0732 9.53929C54.0956 9.52733 54.1096 9.52286 54.111 9.52244C54.1117 9.52221 54.0597 9.538 53.9321 9.538V13.538C54.8193 13.538 55.7787 13.3202 56.5724 12.6518L53.9959 9.59218ZM53.9321 9.538C53.8689 9.538 53.8317 9.53549 53.8162 9.53401C53.8091 9.53333 53.8102 9.53321 53.8184 9.53454C53.8264 9.53584 53.8446 9.53908 53.8712 9.54572L52.9011 13.4263C53.2621 13.5165 53.6255 13.538 53.9321 13.538V9.538ZM54.174 9.64771C54.1058 9.61848 53.9815 9.56063 53.7866 9.46314L51.9977 13.0409C52.2187 13.1514 52.4238 13.2495 52.5983 13.3243L54.174 9.64771ZM53.8844 9.51551C53.6649 9.39006 53.4373 9.28468 53.2044 9.19734L51.7999 12.9427C51.8443 12.9593 51.8767 12.9753 51.8998 12.9885L53.8844 9.51551ZM53.29 9.23171C52.8787 9.05545 52.4645 8.992 52.0861 8.992V12.992C52.0197 12.992 51.8829 12.9806 51.7143 12.9083L53.29 9.23171ZM52.0861 8.992C51.3824 8.992 50.7617 9.27996 50.3079 9.73379L53.1363 12.5622C53.0289 12.6696 52.8774 12.7842 52.679 12.8693C52.4782 12.9553 52.2737 12.992 52.0861 12.992V8.992ZM50.4418 9.61156C49.8691 10.0887 49.5661 10.7704 49.5661 11.486H53.5661C53.5661 11.6719 53.5299 11.8998 53.421 12.1356C53.3116 12.3728 53.1576 12.5552 53.0025 12.6844L50.4418 9.61156ZM49.5661 11.486C49.5661 12.168 49.84 12.7833 50.2949 13.2382C50.6993 13.6426 51.1723 13.8495 51.5317 13.9639L52.7445 10.1521C52.7457 10.1525 52.7552 10.1556 52.7716 10.1624C52.7879 10.1692 52.8133 10.1806 52.8456 10.1982C52.9082 10.2323 53.0113 10.2977 53.1233 10.4098C53.2392 10.5256 53.3575 10.6847 53.4438 10.8887C53.5307 11.0942 53.5661 11.3003 53.5661 11.486H49.5661ZM51.5155 13.9586C52.3592 14.235 52.9205 14.5481 53.2801 14.846L55.8322 11.766C54.9784 11.0586 53.9277 10.5397 52.7607 10.1574L51.5155 13.9586ZM53.3015 14.8635C53.4014 14.944 53.4921 15.0361 53.4921 15.386H57.4921C57.4921 13.9679 56.9588 12.6733 55.8108 11.7485L53.3015 14.8635ZM53.4921 15.386C53.4921 15.7353 53.3986 16.0067 52.8689 16.328L54.9434 19.748C56.5283 18.7867 57.4921 17.29 57.4921 15.386H53.4921ZM52.8563 16.3357C52.2402 16.7156 51.2521 17 49.7201 17V21C51.6895 21 53.492 20.6431 54.9559 19.7403L52.8563 16.3357ZM68.5074 9.588L69.197 11.4653L69.2138 11.4592L69.2304 11.4527L68.5074 9.588ZM65.0234 10.082L64.9998 8.08214L63.1009 8.10448L63.025 10.0021L65.0234 10.082ZM65.2054 14.294L67.1241 13.7297L67.114 13.6954L67.1027 13.6615L65.2054 14.294ZM65.5954 14.866L64.7009 16.6549L64.734 16.6714L64.7678 16.6867L65.5954 14.866ZM66.4274 15.048L66.7102 13.0681L66.6637 13.0615L66.617 13.057L66.4274 15.048ZM66.8174 15.126L66.3323 17.0663L66.4628 17.0989L66.5965 17.1138L66.8174 15.126ZM67.3374 15.204L67.7622 13.2496L67.7288 13.2424L67.6951 13.2363L67.3374 15.204ZM68.2734 15.854L66.5965 16.944L66.6094 16.9638L66.6227 16.9834L68.2734 15.854ZM67.7014 18.506L66.7472 16.7483L67.7014 18.506ZM62.4234 18.168L61.3369 19.8471L61.3486 19.8547L61.3604 19.8621L62.4234 18.168ZM60.6034 15.88L58.7092 16.5221L58.713 16.533L60.6034 15.88ZM60.0834 10.082H62.0834V8.13833L60.1405 8.08282L60.0834 10.082ZM57.1454 9.614L56.395 11.4679L56.4213 11.4785L56.4479 11.4884L57.1454 9.614ZM57.0934 6.182L57.9141 8.00584L57.9329 7.99739L57.9515 7.98855L57.0934 6.182ZM60.0834 5.662L60.11 7.66182L62.0107 7.63648L62.082 5.73695L60.0834 5.662ZM60.7334 2.204L62.5806 2.97077L62.5855 2.95859L60.7334 2.204ZM64.7374 2.1L62.8438 2.7438L62.8495 2.76067L62.8556 2.77744L64.7374 2.1ZM65.1534 5.662L63.1539 5.61603L63.1063 7.68462L65.1753 7.66188L65.1534 5.662ZM68.6374 6.026L67.9786 7.9144L67.9853 7.91673L67.992 7.91902L68.6374 6.026ZM67.7814 7.742C67.7814 7.8108 67.7732 7.83426 67.7758 7.82512C67.7771 7.8205 67.7806 7.80947 67.7878 7.79396C67.7951 7.77832 67.8047 7.76101 67.8168 7.74349C67.8289 7.72598 67.8413 7.71131 67.8525 7.69984C67.8636 7.68849 67.8714 7.68241 67.8735 7.68084C67.8775 7.67785 67.854 7.69627 67.7843 7.72328L69.2304 11.4527C69.9462 11.1752 70.6233 10.7192 71.1089 10.0155C71.5956 9.31023 71.7814 8.51362 71.7814 7.742H67.7814ZM67.8177 7.71066C67.2736 7.91053 66.3701 8.06602 64.9998 8.08214L65.0469 12.0819C66.6233 12.0633 68.0424 11.8895 69.197 11.4653L67.8177 7.71066ZM63.025 10.0021C63.0059 10.4785 62.9974 11.215 62.9974 12.188H66.9974C66.9974 11.2197 67.0061 10.5522 67.0218 10.1619L63.025 10.0021ZM62.9974 12.188C62.9974 13.19 63.0583 14.1774 63.308 14.9265L67.1027 13.6615C67.1042 13.6659 67.0945 13.6369 67.0806 13.5626C67.0672 13.4903 67.0527 13.3906 67.0397 13.2589C67.0134 12.9933 66.9974 12.6401 66.9974 12.188H62.9974ZM63.2866 14.8583C63.4404 15.3813 63.8048 16.2068 64.7009 16.6549L66.4898 13.0771C66.7615 13.213 66.9299 13.3987 67.0203 13.5313C67.0641 13.5955 67.0904 13.6481 67.1048 13.6802C67.1121 13.6967 67.117 13.7093 67.1199 13.7174C67.1214 13.7214 67.1224 13.7245 67.1231 13.7266C67.1238 13.7286 67.1241 13.7296 67.1241 13.7297L63.2866 14.8583ZM64.7678 16.6867C65.2568 16.909 65.7919 16.9965 66.2377 17.039L66.617 13.057C66.4935 13.0452 66.4154 13.0318 66.3738 13.0227C66.354 13.0184 66.3487 13.0164 66.3552 13.0184C66.3613 13.0204 66.3856 13.0283 66.423 13.0453L64.7678 16.6867ZM66.1445 17.0279C66.1877 17.0341 66.2497 17.0456 66.3323 17.0663L67.3024 13.1857C67.1077 13.137 66.9096 13.0966 66.7102 13.0681L66.1445 17.0279ZM66.5965 17.1138C66.6975 17.125 66.8243 17.1435 66.9796 17.1717L67.6951 13.2363C67.4691 13.1952 67.2492 13.1617 67.0382 13.1382L66.5965 17.1138ZM66.9125 17.1584C66.8743 17.15 66.805 17.1266 66.7296 17.0742C66.6546 17.0222 66.6124 16.9685 66.5965 16.944L69.9502 14.764C69.4421 13.9822 68.6835 13.4499 67.7622 13.2496L66.9125 17.1584ZM66.6227 16.9834C66.5945 16.9421 66.5899 16.918 66.5937 16.9324C66.5984 16.9501 66.6114 17.0104 66.6114 17.128H70.6114C70.6114 16.326 70.4368 15.4742 69.924 14.7246L66.6227 16.9834ZM66.6114 17.128C66.6114 17.1022 66.6149 17.0532 66.6332 16.9899C66.6519 16.9255 66.6805 16.8645 66.7149 16.8124C66.7844 16.7072 66.8339 16.7012 66.7472 16.7483L68.6555 20.2637C69.7738 19.6567 70.6114 18.5904 70.6114 17.128H66.6114ZM66.7472 16.7483C66.5487 16.8561 66.0913 17 65.2054 17V21C66.4341 21 67.6407 20.8146 68.6555 20.2637L66.7472 16.7483ZM65.2054 17C64.6391 17 64.0768 16.8443 63.4863 16.4739L61.3604 19.8621C62.538 20.601 63.8303 21 65.2054 21V17ZM63.5099 16.4889C62.9832 16.1481 62.6705 15.7385 62.4937 15.227L58.713 16.533C59.1949 17.9281 60.0956 19.0439 61.3369 19.8471L63.5099 16.4889ZM62.4975 15.2379C62.2707 14.5688 62.0834 12.9508 62.0834 10.082H58.0834C58.0834 12.8985 58.2427 15.1459 58.7092 16.5221L62.4975 15.2379ZM60.1405 8.08282C59.0433 8.05147 58.3049 7.91148 57.8428 7.73956L56.4479 11.4884C57.4765 11.8712 58.6967 12.0432 60.0262 12.0812L60.1405 8.08282ZM57.8957 7.76011C57.8047 7.72324 57.8779 7.7319 57.9648 7.85607C58.0052 7.91373 58.0304 7.97167 58.0437 8.01783C58.0562 8.06133 58.0534 8.07755 58.0534 8.054H54.0534C54.0534 8.76358 54.2317 9.49823 54.6879 10.1499C55.1388 10.7941 55.7581 11.2101 56.395 11.4679L57.8957 7.76011ZM58.0534 8.054C58.0534 7.82335 58.0969 7.79184 58.0617 7.85529C58.0432 7.88856 58.014 7.92716 57.9763 7.96109C57.9396 7.99409 57.9132 8.00622 57.9141 8.00584L56.2726 4.35816C55.5602 4.67874 54.9617 5.19873 54.565 5.91271C54.1831 6.60015 54.0534 7.34864 54.0534 8.054H58.0534ZM57.9515 7.98855C58.2641 7.84004 58.9248 7.67762 60.11 7.66182L60.0567 3.66218C58.6419 3.68104 57.3093 3.86529 56.2352 4.37544L57.9515 7.98855ZM62.082 5.73695C62.1283 4.50112 62.3187 3.60156 62.5805 2.97076L58.8862 1.43724C58.3854 2.64377 58.1424 4.04954 58.0848 5.58705L62.082 5.73695ZM62.5855 2.95859C62.6242 2.86367 62.656 2.81641 62.6691 2.79917C62.6806 2.78411 62.6787 2.79038 62.6615 2.80213C62.644 2.81406 62.6333 2.81625 62.6421 2.81378C62.6536 2.81057 62.698 2.8 62.7874 2.8V-1.2C61.9692 -1.2 61.1385 -1.00204 60.4042 -0.500128C59.6732 -0.000453234 59.1872 0.698243 58.8812 1.44941L62.5855 2.95859ZM62.7874 2.8C62.8967 2.8 62.9525 2.81194 62.9682 2.81605C62.9756 2.81797 62.9731 2.81788 62.9632 2.81352C62.953 2.80906 62.9377 2.80126 62.9195 2.7891C62.9011 2.77687 62.8832 2.7625 62.867 2.74681C62.8508 2.73118 62.8392 2.71713 62.8318 2.70695C62.8167 2.68618 62.826 2.69127 62.8438 2.7438L66.6309 1.45619C66.367 0.680128 65.8904 -0.0376987 65.1383 -0.539102C64.4022 -1.02978 63.5725 -1.2 62.7874 -1.2V2.8ZM62.8556 2.77744C63.0478 3.31128 63.186 4.21756 63.1539 5.61603L67.1528 5.70796C67.19 4.09044 67.0509 2.62205 66.6191 1.42256L62.8556 2.77744ZM65.1753 7.66188C66.7048 7.64507 67.576 7.77396 67.9786 7.9144L69.2961 4.1376C68.208 3.75804 66.7566 3.64426 65.1314 3.66212L65.1753 7.66188ZM67.992 7.91902C68.0188 7.92816 68.0015 7.92603 67.9615 7.89697C67.9188 7.86588 67.871 7.81896 67.8313 7.7594C67.7481 7.63462 67.7814 7.58283 67.7814 7.742H71.7814C71.7814 7.01717 71.624 6.23738 71.1595 5.5406C70.6844 4.82795 70.0061 4.3796 69.2827 4.13298L67.992 7.91902Z" fill="#4B371F" mask="url(#path-1-outside-1_24346_3350)"/>
</svg>
