<svg width="71" height="71" viewBox="0 0 71 71" fill="none" xmlns="http://www.w3.org/2000/svg">
<circle cx="35.5" cy="35.5" r="25.5" transform="rotate(22.1459 35.5 35.5)" fill="#FFB050" stroke="#4B371F" stroke-width="2"/>
<circle cx="35.5" cy="35.5" r="18.587" transform="rotate(22.1459 35.5 35.5)" fill="#FFCF23" stroke="#AF7026" stroke-width="2"/>
<path d="M45.0333 28.4115C44.222 27.6834 43.2076 27.2205 42.126 27.0847L42.1255 27.0846C41.216 26.9701 40.2923 27.0914 39.4432 27.4369C38.8061 27.6961 38.227 28.075 37.7363 28.5509C36.9928 28.367 36.2302 28.2715 35.4643 28.2661C35.1809 27.8058 34.8287 27.39 34.4188 27.0336C33.8364 26.5272 33.1513 26.1527 32.4105 25.9359C31.6698 25.7191 30.8909 25.6651 30.1273 25.7777C29.3637 25.8902 28.6335 26.1666 27.9868 26.5879L28.5326 27.4258L27.9868 26.5879C27.34 27.0091 26.7921 27.5653 26.3805 28.2183C25.9689 28.8712 25.7035 29.6055 25.6023 30.3707C25.5012 31.1359 25.5668 31.9139 25.7946 32.6513C25.9549 33.1702 26.1929 33.6604 26.4993 34.1056C25.9662 35.3349 25.6926 36.6635 25.6984 38.008C25.7051 39.57 26.0888 41.1072 26.8169 42.4892C27.545 43.8711 28.5959 45.0569 29.8804 45.9457C31.1648 46.8345 32.6449 47.4001 34.1947 47.5944C35.7446 47.7887 37.3184 47.606 38.7825 47.0617C40.2466 46.5175 41.5578 45.6279 42.6044 44.4685C43.6511 43.309 44.4024 41.9141 44.7946 40.4021C45.1321 39.1006 45.1949 37.7456 44.9818 36.4229C45.6252 35.8603 46.127 35.1495 46.4414 34.3477C46.8394 33.3326 46.9178 32.2202 46.6662 31.1593C46.4145 30.0984 45.8448 29.1397 45.0333 28.4115Z" fill="#FFB050" stroke="#AF7026" stroke-width="2"/>
<path d="M24.4312 26.0194C25.3661 24.7412 28.5635 21.979 33.8746 21.1551" stroke="white" stroke-width="2" stroke-linecap="round" stroke-linejoin="round"/>
</svg>
