<svg width="66" height="19" viewBox="0 0 66 19" fill="none" xmlns="http://www.w3.org/2000/svg">
<mask id="path-1-outside-1_24346_4618" maskUnits="userSpaceOnUse" x="-2" y="-2" width="70" height="23" fill="black">
<rect fill="white" x="-2" y="-2" width="70" height="23"/>
<path d="M9.984 10.056C11.0067 10.056 11.8473 10.108 12.506 10.212C13.182 10.2987 13.728 10.5067 14.144 10.836C14.5773 11.148 14.794 11.6247 14.794 12.266C14.794 13.1847 14.4387 13.7913 13.728 14.086C13.0347 14.3807 12.0207 14.528 10.686 14.528L8.528 14.502L6.89 14.528C6.95933 15.1867 6.994 15.7067 6.994 16.088C6.994 18.012 6.23133 18.974 4.706 18.974C3.44067 18.974 2.444 18.272 1.716 16.868C1.00533 15.464 0.65 13.2713 0.65 10.29C0.65 8.45267 1.03133 6.81467 1.794 5.376C2.574 3.93733 3.63133 2.81933 4.966 2.022C6.30067 1.20733 7.76533 0.799999 9.36 0.799999C11.336 0.799999 12.8353 1.138 13.858 1.814C14.898 2.49 15.418 3.43467 15.418 4.648C15.418 5.49733 15.21 6.14733 14.794 6.598C14.3953 7.03133 13.832 7.326 13.104 7.482C12.3933 7.62067 11.4487 7.69 10.27 7.69C9.31667 7.69 8.49333 7.88067 7.8 8.262C7.124 8.64333 6.75133 9.172 6.682 9.848L6.656 10.082C6.864 10.0647 7.176 10.056 7.592 10.056H8.528H9.984ZM19.5043 19C18.3949 19 17.6496 18.35 17.2683 17.05C16.9043 15.75 16.7223 13.956 16.7223 11.668C16.7223 10.628 16.7656 9.76133 16.8523 9.068C16.9563 8.35733 17.1903 7.75933 17.5543 7.274C17.9356 6.77133 18.5163 6.52 19.2963 6.52C19.7816 6.52 20.2063 6.63267 20.5703 6.858C20.9516 7.08333 21.1943 7.404 21.2983 7.82C21.6796 7.47333 22.1736 7.21333 22.7803 7.04C23.3869 6.86667 24.0369 6.78 24.7303 6.78C25.2849 6.78 25.8483 6.91867 26.4203 7.196C27.0096 7.47333 27.4949 7.85467 27.8763 8.34C28.2749 8.808 28.4743 9.31933 28.4743 9.874C28.4743 10.4287 28.2749 10.9227 27.8763 11.356C27.4949 11.772 26.9836 11.98 26.3423 11.98C26.1343 11.98 25.9349 11.954 25.7443 11.902C25.5709 11.85 25.4149 11.798 25.2763 11.746C24.9296 11.6073 24.6523 11.538 24.4443 11.538C23.7683 11.538 23.1703 11.8067 22.6503 12.344C22.1476 12.864 21.8963 13.54 21.8963 14.372C21.8963 15.2907 21.8616 16.0533 21.7923 16.66C21.7229 17.2667 21.5149 17.8127 21.1683 18.298C20.8216 18.766 20.2669 19 19.5043 19ZM35.0041 19C33.7215 19 32.5861 18.7487 31.5981 18.246C30.6101 17.7433 29.8388 17.0413 29.2841 16.14C28.7468 15.2213 28.4781 14.19 28.4781 13.046C28.4781 11.9193 28.7468 10.8793 29.2841 9.926C29.8388 8.97267 30.6015 8.21 31.5721 7.638C32.5428 7.066 33.6435 6.78 34.8741 6.78C35.9835 6.78 36.9628 7.00533 37.8121 7.456C38.6615 7.90667 39.3115 8.50467 39.7621 9.25C40.2128 9.978 40.4381 10.7407 40.4381 11.538C40.4381 12.838 39.9441 13.7913 38.9561 14.398C37.9855 14.9873 36.8241 15.282 35.4721 15.282C34.5708 15.282 33.8081 15.1693 33.1841 14.944C33.7041 15.7933 34.5621 16.218 35.7581 16.218C36.2435 16.218 36.7635 16.1573 37.3181 16.036C37.5261 15.984 37.7255 15.958 37.9161 15.958C38.2975 15.958 38.6008 16.0533 38.8261 16.244C39.0688 16.4347 39.1901 16.6947 39.1901 17.024C39.1901 17.5613 38.8608 18.0293 38.2021 18.428C37.5435 18.8093 36.4775 19 35.0041 19ZM33.2621 11.772C33.4181 12.0147 33.6261 12.1967 33.8861 12.318C34.1635 12.422 34.4668 12.474 34.7961 12.474C35.1775 12.474 35.5068 12.3873 35.7841 12.214C36.0788 12.0407 36.2261 11.8153 36.2261 11.538C36.2261 11.226 36.0961 10.9573 35.8361 10.732C35.5935 10.5067 35.2381 10.394 34.7701 10.394C34.3021 10.394 33.9295 10.5413 33.6521 10.836C33.3921 11.1133 33.2621 11.4253 33.2621 11.772ZM51.4942 19C50.8702 19 50.4022 18.8267 50.0902 18.48C49.7956 18.1333 49.6136 17.7087 49.5442 17.206C49.4749 16.7033 49.4402 16.0533 49.4402 15.256C49.4402 14.2333 49.3016 13.4447 49.0242 12.89C48.7469 12.3353 48.2962 12.058 47.6722 12.058C47.1002 12.058 46.6669 12.3353 46.3722 12.89C46.0949 13.4273 45.9562 14.1727 45.9562 15.126C45.9562 16.0447 45.9302 16.738 45.8782 17.206C45.8262 17.674 45.6529 18.09 45.3582 18.454C45.0636 18.8007 44.5782 18.974 43.9022 18.974C42.9142 18.974 42.2209 18.3413 41.8222 17.076C41.4236 15.7933 41.2242 14.294 41.2242 12.578C41.2242 8.418 42.0996 6.338 43.8502 6.338C44.3356 6.338 44.7342 6.45933 45.0462 6.702C45.3582 6.92733 45.5749 7.25667 45.6962 7.69C45.9216 7.44733 46.2682 7.23067 46.7362 7.04C47.2216 6.84933 47.7329 6.754 48.2702 6.754C50.1769 6.754 51.5982 7.44733 52.5342 8.834C53.4876 10.2207 53.9642 12.1013 53.9642 14.476C53.9642 15.88 53.7822 16.9893 53.4182 17.804C53.0542 18.6013 52.4129 19 51.4942 19ZM59.7494 19C58.2241 19 57.0108 18.7487 56.1094 18.246C55.2081 17.7433 54.7574 17.0933 54.7574 16.296C54.7574 15.776 54.9308 15.3773 55.2774 15.1C55.6414 14.8053 56.1008 14.658 56.6554 14.658C56.9674 14.658 57.2188 14.7013 57.4094 14.788C57.6001 14.8747 57.7908 14.996 57.9814 15.152C58.1201 15.2733 58.2328 15.36 58.3194 15.412C58.4234 15.464 58.5448 15.49 58.6834 15.49C59.0474 15.49 59.2294 15.36 59.2294 15.1C59.2294 14.8573 59.1341 14.6753 58.9434 14.554C58.7528 14.4153 58.4234 14.2507 57.9554 14.06C57.5221 13.8867 57.2361 13.7653 57.0974 13.696C56.3001 13.3147 55.7108 12.864 55.3294 12.344C54.9481 11.824 54.7574 11.2693 54.7574 10.68C54.7574 10.0213 54.9914 9.39733 55.4594 8.808C55.9448 8.20133 56.6208 7.716 57.4874 7.352C58.3714 6.97067 59.3854 6.78 60.5294 6.78C61.5174 6.78 62.4101 6.91867 63.2074 7.196C64.0221 7.47333 64.6634 7.85467 65.1314 8.34C65.5994 8.808 65.8334 9.328 65.8334 9.9C65.8334 10.4373 65.6601 10.8447 65.3134 11.122C64.9841 11.3993 64.5334 11.538 63.9614 11.538C63.7361 11.538 63.5541 11.5207 63.4154 11.486C63.2941 11.434 63.1294 11.356 62.9214 11.252C62.8001 11.1827 62.6701 11.122 62.5314 11.07C62.4101 11.018 62.2714 10.992 62.1154 10.992C61.9768 10.992 61.8554 11.044 61.7514 11.148C61.6474 11.2347 61.5954 11.3473 61.5954 11.486C61.5954 11.746 61.7861 11.9367 62.1674 12.058C63.1728 12.3873 63.9788 12.8033 64.5854 13.306C65.2094 13.8087 65.5214 14.502 65.5214 15.386C65.5214 16.5127 64.9928 17.3967 63.9354 18.038C62.8954 18.6793 61.5001 19 59.7494 19Z"/>
</mask>
<path d="M9.984 10.056C11.0067 10.056 11.8473 10.108 12.506 10.212C13.182 10.2987 13.728 10.5067 14.144 10.836C14.5773 11.148 14.794 11.6247 14.794 12.266C14.794 13.1847 14.4387 13.7913 13.728 14.086C13.0347 14.3807 12.0207 14.528 10.686 14.528L8.528 14.502L6.89 14.528C6.95933 15.1867 6.994 15.7067 6.994 16.088C6.994 18.012 6.23133 18.974 4.706 18.974C3.44067 18.974 2.444 18.272 1.716 16.868C1.00533 15.464 0.65 13.2713 0.65 10.29C0.65 8.45267 1.03133 6.81467 1.794 5.376C2.574 3.93733 3.63133 2.81933 4.966 2.022C6.30067 1.20733 7.76533 0.799999 9.36 0.799999C11.336 0.799999 12.8353 1.138 13.858 1.814C14.898 2.49 15.418 3.43467 15.418 4.648C15.418 5.49733 15.21 6.14733 14.794 6.598C14.3953 7.03133 13.832 7.326 13.104 7.482C12.3933 7.62067 11.4487 7.69 10.27 7.69C9.31667 7.69 8.49333 7.88067 7.8 8.262C7.124 8.64333 6.75133 9.172 6.682 9.848L6.656 10.082C6.864 10.0647 7.176 10.056 7.592 10.056H8.528H9.984ZM19.5043 19C18.3949 19 17.6496 18.35 17.2683 17.05C16.9043 15.75 16.7223 13.956 16.7223 11.668C16.7223 10.628 16.7656 9.76133 16.8523 9.068C16.9563 8.35733 17.1903 7.75933 17.5543 7.274C17.9356 6.77133 18.5163 6.52 19.2963 6.52C19.7816 6.52 20.2063 6.63267 20.5703 6.858C20.9516 7.08333 21.1943 7.404 21.2983 7.82C21.6796 7.47333 22.1736 7.21333 22.7803 7.04C23.3869 6.86667 24.0369 6.78 24.7303 6.78C25.2849 6.78 25.8483 6.91867 26.4203 7.196C27.0096 7.47333 27.4949 7.85467 27.8763 8.34C28.2749 8.808 28.4743 9.31933 28.4743 9.874C28.4743 10.4287 28.2749 10.9227 27.8763 11.356C27.4949 11.772 26.9836 11.98 26.3423 11.98C26.1343 11.98 25.9349 11.954 25.7443 11.902C25.5709 11.85 25.4149 11.798 25.2763 11.746C24.9296 11.6073 24.6523 11.538 24.4443 11.538C23.7683 11.538 23.1703 11.8067 22.6503 12.344C22.1476 12.864 21.8963 13.54 21.8963 14.372C21.8963 15.2907 21.8616 16.0533 21.7923 16.66C21.7229 17.2667 21.5149 17.8127 21.1683 18.298C20.8216 18.766 20.2669 19 19.5043 19ZM35.0041 19C33.7215 19 32.5861 18.7487 31.5981 18.246C30.6101 17.7433 29.8388 17.0413 29.2841 16.14C28.7468 15.2213 28.4781 14.19 28.4781 13.046C28.4781 11.9193 28.7468 10.8793 29.2841 9.926C29.8388 8.97267 30.6015 8.21 31.5721 7.638C32.5428 7.066 33.6435 6.78 34.8741 6.78C35.9835 6.78 36.9628 7.00533 37.8121 7.456C38.6615 7.90667 39.3115 8.50467 39.7621 9.25C40.2128 9.978 40.4381 10.7407 40.4381 11.538C40.4381 12.838 39.9441 13.7913 38.9561 14.398C37.9855 14.9873 36.8241 15.282 35.4721 15.282C34.5708 15.282 33.8081 15.1693 33.1841 14.944C33.7041 15.7933 34.5621 16.218 35.7581 16.218C36.2435 16.218 36.7635 16.1573 37.3181 16.036C37.5261 15.984 37.7255 15.958 37.9161 15.958C38.2975 15.958 38.6008 16.0533 38.8261 16.244C39.0688 16.4347 39.1901 16.6947 39.1901 17.024C39.1901 17.5613 38.8608 18.0293 38.2021 18.428C37.5435 18.8093 36.4775 19 35.0041 19ZM33.2621 11.772C33.4181 12.0147 33.6261 12.1967 33.8861 12.318C34.1635 12.422 34.4668 12.474 34.7961 12.474C35.1775 12.474 35.5068 12.3873 35.7841 12.214C36.0788 12.0407 36.2261 11.8153 36.2261 11.538C36.2261 11.226 36.0961 10.9573 35.8361 10.732C35.5935 10.5067 35.2381 10.394 34.7701 10.394C34.3021 10.394 33.9295 10.5413 33.6521 10.836C33.3921 11.1133 33.2621 11.4253 33.2621 11.772ZM51.4942 19C50.8702 19 50.4022 18.8267 50.0902 18.48C49.7956 18.1333 49.6136 17.7087 49.5442 17.206C49.4749 16.7033 49.4402 16.0533 49.4402 15.256C49.4402 14.2333 49.3016 13.4447 49.0242 12.89C48.7469 12.3353 48.2962 12.058 47.6722 12.058C47.1002 12.058 46.6669 12.3353 46.3722 12.89C46.0949 13.4273 45.9562 14.1727 45.9562 15.126C45.9562 16.0447 45.9302 16.738 45.8782 17.206C45.8262 17.674 45.6529 18.09 45.3582 18.454C45.0636 18.8007 44.5782 18.974 43.9022 18.974C42.9142 18.974 42.2209 18.3413 41.8222 17.076C41.4236 15.7933 41.2242 14.294 41.2242 12.578C41.2242 8.418 42.0996 6.338 43.8502 6.338C44.3356 6.338 44.7342 6.45933 45.0462 6.702C45.3582 6.92733 45.5749 7.25667 45.6962 7.69C45.9216 7.44733 46.2682 7.23067 46.7362 7.04C47.2216 6.84933 47.7329 6.754 48.2702 6.754C50.1769 6.754 51.5982 7.44733 52.5342 8.834C53.4876 10.2207 53.9642 12.1013 53.9642 14.476C53.9642 15.88 53.7822 16.9893 53.4182 17.804C53.0542 18.6013 52.4129 19 51.4942 19ZM59.7494 19C58.2241 19 57.0108 18.7487 56.1094 18.246C55.2081 17.7433 54.7574 17.0933 54.7574 16.296C54.7574 15.776 54.9308 15.3773 55.2774 15.1C55.6414 14.8053 56.1008 14.658 56.6554 14.658C56.9674 14.658 57.2188 14.7013 57.4094 14.788C57.6001 14.8747 57.7908 14.996 57.9814 15.152C58.1201 15.2733 58.2328 15.36 58.3194 15.412C58.4234 15.464 58.5448 15.49 58.6834 15.49C59.0474 15.49 59.2294 15.36 59.2294 15.1C59.2294 14.8573 59.1341 14.6753 58.9434 14.554C58.7528 14.4153 58.4234 14.2507 57.9554 14.06C57.5221 13.8867 57.2361 13.7653 57.0974 13.696C56.3001 13.3147 55.7108 12.864 55.3294 12.344C54.9481 11.824 54.7574 11.2693 54.7574 10.68C54.7574 10.0213 54.9914 9.39733 55.4594 8.808C55.9448 8.20133 56.6208 7.716 57.4874 7.352C58.3714 6.97067 59.3854 6.78 60.5294 6.78C61.5174 6.78 62.4101 6.91867 63.2074 7.196C64.0221 7.47333 64.6634 7.85467 65.1314 8.34C65.5994 8.808 65.8334 9.328 65.8334 9.9C65.8334 10.4373 65.6601 10.8447 65.3134 11.122C64.9841 11.3993 64.5334 11.538 63.9614 11.538C63.7361 11.538 63.5541 11.5207 63.4154 11.486C63.2941 11.434 63.1294 11.356 62.9214 11.252C62.8001 11.1827 62.6701 11.122 62.5314 11.07C62.4101 11.018 62.2714 10.992 62.1154 10.992C61.9768 10.992 61.8554 11.044 61.7514 11.148C61.6474 11.2347 61.5954 11.3473 61.5954 11.486C61.5954 11.746 61.7861 11.9367 62.1674 12.058C63.1728 12.3873 63.9788 12.8033 64.5854 13.306C65.2094 13.8087 65.5214 14.502 65.5214 15.386C65.5214 16.5127 64.9928 17.3967 63.9354 18.038C62.8954 18.6793 61.5001 19 59.7494 19Z" fill="#F7F9EA"/>
<path d="M12.506 10.212L12.1941 12.1875L12.2228 12.1921L12.2517 12.1958L12.506 10.212ZM14.144 10.836L12.9026 12.4041L12.9384 12.4324L12.9754 12.4591L14.144 10.836ZM13.728 14.086L12.962 12.2385L12.9538 12.2419L12.9457 12.2453L13.728 14.086ZM10.686 14.528L10.6619 16.5279L10.674 16.528H10.686V14.528ZM8.528 14.502L8.55209 12.5021L8.52418 12.5018L8.49626 12.5023L8.528 14.502ZM6.89 14.528L6.85826 12.5283L4.6721 12.563L4.90099 14.7374L6.89 14.528ZM1.716 16.868L-0.0684267 17.7712L-0.0640104 17.78L-0.0595091 17.7886L1.716 16.868ZM1.794 5.376L0.035786 4.42275L0.0313256 4.43098L0.0269423 4.43925L1.794 5.376ZM4.966 2.022L5.99171 3.73895L5.99988 3.73407L6.008 3.72911L4.966 2.022ZM13.858 1.814L12.7551 3.48244L12.7616 3.48669L12.768 3.49089L13.858 1.814ZM14.794 6.598L13.3244 5.24144L13.3221 5.24389L14.794 6.598ZM13.104 7.482L13.487 9.44498L13.5051 9.44146L13.5231 9.4376L13.104 7.482ZM7.8 8.262L6.83616 6.50957L6.82673 6.51475L6.81736 6.52004L7.8 8.262ZM6.682 9.848L8.66977 10.0689L8.6707 10.0605L8.67156 10.0521L6.682 9.848ZM6.656 10.082L4.66823 9.86114L4.39981 12.2769L6.82209 12.0751L6.656 10.082ZM9.984 12.056C10.9511 12.056 11.6776 12.106 12.1941 12.1875L12.8179 8.23647C12.017 8.11001 11.0623 8.056 9.984 8.056V12.056ZM12.2517 12.1958C12.6678 12.2491 12.8421 12.3562 12.9026 12.4041L15.3854 9.26791C14.6139 8.65714 13.6962 8.34822 12.7603 8.22824L12.2517 12.1958ZM12.9754 12.4591C12.9505 12.4412 12.9179 12.4128 12.885 12.3729C12.852 12.3328 12.8274 12.2916 12.8108 12.2551C12.7775 12.1819 12.794 12.1681 12.794 12.266H16.794C16.794 11.1279 16.3764 9.97887 15.3126 9.21293L12.9754 12.4591ZM12.794 12.266C12.794 12.4762 12.7528 12.4827 12.8017 12.3992C12.8266 12.3568 12.862 12.314 12.903 12.2793C12.9425 12.2459 12.9684 12.2359 12.962 12.2385L14.494 15.9335C15.2117 15.6359 15.8344 15.136 16.2533 14.4208C16.6575 13.7307 16.794 12.9744 16.794 12.266H12.794ZM12.9457 12.2453C12.6219 12.383 11.9274 12.528 10.686 12.528V16.528C12.114 16.528 13.4475 16.3784 14.5103 15.9267L12.9457 12.2453ZM10.7101 12.5281L8.55209 12.5021L8.50391 16.5019L10.6619 16.5279L10.7101 12.5281ZM8.49626 12.5023L6.85826 12.5283L6.92174 16.5277L8.55974 16.5017L8.49626 12.5023ZM4.90099 14.7374C4.96748 15.3691 4.994 15.8093 4.994 16.088H8.994C8.994 15.6041 8.95118 15.0043 8.87901 14.3186L4.90099 14.7374ZM4.994 16.088C4.994 16.4434 4.95809 16.6856 4.91738 16.8396C4.87762 16.9901 4.84145 17.0268 4.85477 17.01C4.87567 16.9836 4.91094 16.9587 4.93182 16.95C4.94053 16.9463 4.88039 16.974 4.706 16.974V20.974C5.91638 20.974 7.13768 20.5691 7.98923 19.495C8.77058 18.5094 8.994 17.2605 8.994 16.088H4.994ZM4.706 16.974C4.3862 16.974 3.97781 16.8852 3.49151 15.9474L-0.0595091 17.7886C0.91019 19.6588 2.49514 20.974 4.706 20.974V16.974ZM3.50043 15.9648C3.00851 14.9929 2.65 13.1903 2.65 10.29H-1.35C-1.35 13.3524 -0.997842 15.9351 -0.0684267 17.7712L3.50043 15.9648ZM2.65 10.29C2.65 8.7368 2.97007 7.42756 3.56106 6.31275L0.0269423 4.43925C-0.907408 6.20177 -1.35 8.16853 -1.35 10.29H2.65ZM3.55221 6.32925C4.17043 5.18898 4.98183 4.34225 5.99171 3.73895L3.94029 0.305048C2.28084 1.29641 0.97757 2.68568 0.035786 4.42275L3.55221 6.32925ZM6.008 3.72911C7.02236 3.10995 8.1253 2.8 9.36 2.8V-1.2C7.40536 -1.2 5.57897 -0.695291 3.924 0.314887L6.008 3.72911ZM9.36 2.8C11.1623 2.8 12.2037 3.11795 12.7551 3.48244L14.9609 0.145562C13.4669 -0.841957 11.5097 -1.2 9.36 -1.2V2.8ZM12.768 3.49089C13.2557 3.80791 13.418 4.12967 13.418 4.648H17.418C17.418 2.73966 16.5403 1.17209 14.948 0.137112L12.768 3.49089ZM13.418 4.648C13.418 5.18937 13.2869 5.28201 13.3244 5.24144L16.2636 7.95456C17.1331 7.01265 17.418 5.8053 17.418 4.648H13.418ZM13.3221 5.24389C13.2699 5.30063 13.1157 5.43409 12.6849 5.52639L13.5231 9.4376C14.5483 9.21791 15.5207 8.76204 16.2659 7.95211L13.3221 5.24389ZM12.721 5.51902C12.19 5.62263 11.3893 5.69 10.27 5.69V9.69C11.508 9.69 12.5967 9.6187 13.487 9.44498L12.721 5.51902ZM10.27 5.69C9.04838 5.69 7.87965 5.93565 6.83616 6.50957L8.76384 10.0144C9.10701 9.82568 9.58495 9.69 10.27 9.69V5.69ZM6.81736 6.52004C5.66877 7.16796 4.83815 8.2232 4.69244 9.64394L8.67156 10.0521C8.67291 10.0389 8.67387 10.0428 8.66848 10.0575C8.6629 10.0727 8.6551 10.087 8.64818 10.0968C8.63281 10.1186 8.65208 10.0776 8.78264 10.004L6.81736 6.52004ZM4.69423 9.62714L4.66823 9.86114L8.64377 10.3029L8.66977 10.0689L4.69423 9.62714ZM6.82209 12.0751C6.94423 12.0649 7.1885 12.056 7.592 12.056V8.056C7.16351 8.056 6.78377 8.06442 6.48991 8.08891L6.82209 12.0751ZM7.592 12.056H8.528V8.056H7.592V12.056ZM8.528 12.056H9.984V8.056H8.528V12.056ZM17.2683 17.05L15.3423 17.5893L15.3457 17.6011L15.3491 17.6129L17.2683 17.05ZM16.8523 9.068L14.8733 8.7784L14.8703 8.79914L14.8677 8.81993L16.8523 9.068ZM17.5543 7.274L15.9609 6.06521L15.9543 6.074L17.5543 7.274ZM20.5703 6.858L19.5176 8.55853L19.5351 8.56937L19.5528 8.57985L20.5703 6.858ZM21.2983 7.82L19.358 8.30507L20.1691 11.5495L22.6436 9.29988L21.2983 7.82ZM22.7803 7.04L23.3297 8.96305L23.3297 8.96305L22.7803 7.04ZM26.4203 7.196L25.5477 8.99563L25.5582 9.00069L25.5687 9.00564L26.4203 7.196ZM27.8763 8.34L26.3036 9.57564L26.3281 9.60678L26.3538 9.63693L27.8763 8.34ZM27.8763 11.356L26.4044 10.0019L26.402 10.0045L27.8763 11.356ZM25.7443 11.902L25.1696 13.8177L25.1937 13.8249L25.218 13.8315L25.7443 11.902ZM25.2763 11.746L24.5335 13.603L24.5537 13.611L24.574 13.6187L25.2763 11.746ZM22.6503 12.344L21.2131 10.9532L21.2123 10.954L22.6503 12.344ZM21.7923 16.66L23.7793 16.8871L21.7923 16.66ZM21.1683 18.298L22.7754 19.4885L22.7857 19.4746L22.7957 19.4605L21.1683 18.298ZM19.5043 17C19.4235 17 19.3957 16.9885 19.402 16.9907C19.4043 16.9915 19.41 16.9938 19.417 16.9979C19.4202 16.9998 19.4229 17.0016 19.425 17.0031C19.4271 17.0045 19.428 17.0054 19.4278 17.0052C19.4276 17.005 19.4208 16.9991 19.4085 16.9838C19.396 16.9683 19.3773 16.9424 19.3542 16.9026C19.3072 16.8212 19.2467 16.689 19.1874 16.4871L15.3491 17.6129C15.6088 18.4981 16.0507 19.3675 16.7987 20.0198C17.5805 20.7016 18.5293 21 19.5043 21V17ZM19.1942 16.5107C18.9017 15.4662 18.7223 13.8813 18.7223 11.668H14.7223C14.7223 14.0307 14.9068 16.0338 15.3423 17.5893L19.1942 16.5107ZM18.7223 11.668C18.7223 10.6751 18.7641 9.8979 18.8368 9.31607L14.8677 8.81993C14.7671 9.62477 14.7223 10.5809 14.7223 11.668H18.7223ZM18.8312 9.3576C18.8957 8.91651 19.0244 8.64709 19.1543 8.474L15.9543 6.074C15.3561 6.87158 15.0168 7.79816 14.8733 8.7784L18.8312 9.3576ZM19.1476 8.48277C19.1427 8.48936 19.1305 8.50325 19.1114 8.51824C19.0923 8.53321 19.0765 8.54122 19.0702 8.54394C19.0586 8.54896 19.1177 8.52 19.2963 8.52V4.52C18.0548 4.52 16.8096 4.94641 15.9609 6.06523L19.1476 8.48277ZM19.2963 8.52C19.4606 8.52 19.5105 8.55415 19.5176 8.55853L21.623 5.15747C20.902 4.71118 20.1026 4.52 19.2963 4.52V8.52ZM19.5528 8.57985C19.5421 8.57355 19.4945 8.54178 19.4435 8.47439C19.3916 8.40585 19.3669 8.34091 19.358 8.30507L23.2386 7.33493C23.0001 6.38097 22.4127 5.62365 21.5877 5.13615L19.5528 8.57985ZM22.6436 9.29988C22.7519 9.20144 22.9537 9.07048 23.3297 8.96305L22.2308 5.11695C21.3935 5.35618 20.6073 5.74523 19.9529 6.34012L22.6436 9.29988ZM23.3297 8.96305C23.741 8.84553 24.2046 8.78 24.7303 8.78V4.78C23.8693 4.78 23.0329 4.8878 22.2308 5.11695L23.3297 8.96305ZM24.7303 8.78C24.9414 8.78 25.2079 8.83087 25.5477 8.99563L27.2928 5.39637C26.4886 5.00646 25.6285 4.78 24.7303 4.78V8.78ZM25.5687 9.00564C25.8922 9.15791 26.1253 9.3487 26.3036 9.57564L29.4489 7.10436C28.8646 6.36064 28.127 5.78876 27.2719 5.38636L25.5687 9.00564ZM26.3538 9.63693C26.48 9.78509 26.4743 9.84704 26.4743 9.874H30.4743C30.4743 8.79162 30.0699 7.83091 29.3988 7.04307L26.3538 9.63693ZM26.4743 9.874C26.4743 9.89225 26.4727 9.9019 26.4721 9.90515C26.4715 9.90821 26.4709 9.90992 26.4701 9.91211C26.4695 9.91347 26.4578 9.9438 26.4044 10.0019L29.3481 12.7101C30.0635 11.9325 30.4743 10.9631 30.4743 9.874H26.4743ZM26.402 10.0045C26.4017 10.0048 26.4077 9.99841 26.42 9.98979C26.4325 9.98107 26.4446 9.9749 26.4532 9.97141C26.4613 9.96809 26.4596 9.96992 26.4437 9.97279C26.4273 9.97575 26.3946 9.98 26.3423 9.98V13.98C27.4598 13.98 28.5369 13.5951 29.3506 12.7075L26.402 10.0045ZM26.3423 9.98C26.3027 9.98 26.2809 9.97531 26.2705 9.97247L25.218 13.8315C25.589 13.9327 25.9658 13.98 26.3423 13.98V9.98ZM26.319 9.98635C26.1796 9.94454 26.0672 9.90659 25.9785 9.87334L24.574 13.6187C24.7627 13.6894 24.9623 13.7555 25.1696 13.8177L26.319 9.98635ZM26.019 9.88905C25.5937 9.71889 25.0341 9.538 24.4443 9.538V13.538C24.3867 13.538 24.3474 13.5333 24.3304 13.5309C24.313 13.5284 24.3099 13.527 24.3232 13.5303C24.3362 13.5335 24.3603 13.5402 24.3968 13.5524C24.4331 13.5645 24.4784 13.5809 24.5335 13.603L26.019 9.88905ZM24.4443 9.538C23.1662 9.538 22.0657 10.072 21.2131 10.9532L24.0875 13.7348C24.2748 13.5413 24.3704 13.538 24.4443 13.538V9.538ZM21.2123 10.954C20.2946 11.9033 19.8963 13.1054 19.8963 14.372H23.8963C23.8963 13.9746 24.0006 13.8247 24.0882 13.734L21.2123 10.954ZM19.8963 14.372C19.8963 15.2485 19.8628 15.929 19.8052 16.4329L23.7793 16.8871C23.8604 16.1777 23.8963 15.3328 23.8963 14.372H19.8963ZM19.8052 16.4329C19.7735 16.7107 19.6853 16.9332 19.5408 17.1355L22.7957 19.4605C23.3445 18.6921 23.6724 17.8226 23.7793 16.8871L19.8052 16.4329ZM19.5612 17.1075C19.5803 17.0817 19.6072 17.0531 19.6403 17.0272C19.6732 17.0017 19.7008 16.9877 19.7149 16.9818C19.7397 16.9713 19.6872 17 19.5043 17V21C20.6861 21 21.9398 20.6165 22.7754 19.4885L19.5612 17.1075ZM31.5981 18.246L32.505 16.4634L31.5981 18.246ZM29.2841 16.14L27.5578 17.1498L27.5691 17.1691L27.5808 17.1882L29.2841 16.14ZM29.2841 9.926L27.5554 8.92021L27.5485 8.93205L27.5418 8.94397L29.2841 9.926ZM31.5721 7.638L32.5875 9.36108V9.36108L31.5721 7.638ZM37.8121 7.456L38.7496 5.6893V5.6893L37.8121 7.456ZM39.7621 9.25L38.0507 10.2848L38.0561 10.2938L38.0616 10.3027L39.7621 9.25ZM38.9561 14.398L39.9941 16.1076L40.0027 16.1023L38.9561 14.398ZM33.1841 14.944L33.8634 13.0629L28.502 11.1268L31.4784 15.9883L33.1841 14.944ZM37.3181 16.036L37.7455 17.9898L37.7745 17.9835L37.8032 17.9763L37.3181 16.036ZM38.8261 16.244L37.5342 17.7708L37.5619 17.7942L37.5905 17.8166L38.8261 16.244ZM38.2021 18.428L39.2042 20.1589L39.2211 20.1491L39.2377 20.139L38.2021 18.428ZM33.2621 11.772H31.2621V12.3594L31.5798 12.8535L33.2621 11.772ZM33.8861 12.318L33.0404 14.1304L33.1109 14.1633L33.1839 14.1907L33.8861 12.318ZM35.7841 12.214L34.7701 10.4901L34.7469 10.5038L34.7241 10.518L35.7841 12.214ZM35.8361 10.732L34.4752 12.1976L34.5004 12.2209L34.5263 12.2434L35.8361 10.732ZM33.6521 10.836L32.1957 9.46527L32.1931 9.46812L33.6521 10.836ZM35.0041 17C33.9871 17 33.171 16.8023 32.505 16.4634L30.6912 20.0286C32.0013 20.6951 33.4559 21 35.0041 21V17ZM32.505 16.4634C31.8287 16.1194 31.3399 15.6646 30.9874 15.0918L27.5808 17.1882C28.3377 18.4181 29.3915 19.3673 30.6912 20.0286L32.505 16.4634ZM31.0105 15.1302C30.6658 14.5408 30.4781 13.8626 30.4781 13.046H26.4781C26.4781 14.5174 26.8278 15.9018 27.5578 17.1498L31.0105 15.1302ZM30.4781 13.046C30.4781 12.2528 30.6632 11.5525 31.0264 10.908L27.5418 8.94397C26.8304 10.2061 26.4781 11.5859 26.4781 13.046H30.4781ZM31.0128 10.9318C31.3913 10.2813 31.9055 9.76297 32.5875 9.36108L30.5567 5.91492C29.2974 6.65703 28.2863 7.66402 27.5554 8.92021L31.0128 10.9318ZM32.5875 9.36108C33.2225 8.98689 33.9666 8.78 34.8741 8.78V4.78C33.3203 4.78 31.8631 5.14511 30.5567 5.91492L32.5875 9.36108ZM34.8741 8.78C35.7072 8.78 36.3557 8.94729 36.8747 9.2227L38.7496 5.6893C37.5699 5.06337 36.2597 4.78 34.8741 4.78V8.78ZM36.8747 9.2227C37.4388 9.522 37.8061 9.88045 38.0507 10.2848L41.4736 8.21516C40.8168 7.12888 39.8842 6.29133 38.7496 5.6893L36.8747 9.2227ZM38.0616 10.3027C38.3315 10.7388 38.4381 11.1402 38.4381 11.538H42.4381C42.4381 10.3412 42.094 9.21722 41.4627 8.19729L38.0616 10.3027ZM38.4381 11.538C38.4381 12.2433 38.2243 12.5004 37.9096 12.6937L40.0027 16.1023C41.664 15.0822 42.4381 13.4327 42.4381 11.538H38.4381ZM37.9182 12.6884C37.3155 13.0543 36.5284 13.282 35.4721 13.282V17.282C37.1198 17.282 38.6554 16.9203 39.9941 16.1076L37.9182 12.6884ZM35.4721 13.282C34.7249 13.282 34.207 13.187 33.8634 13.0629L32.5048 16.8251C33.4093 17.1517 34.4167 17.282 35.4721 17.282V13.282ZM31.4784 15.9883C32.4397 17.5585 34.0293 18.218 35.7581 18.218V14.218C35.095 14.218 34.9685 14.0282 34.8898 13.8997L31.4784 15.9883ZM35.7581 18.218C36.409 18.218 37.0735 18.1368 37.7455 17.9898L36.8907 14.0822C36.4534 14.1779 36.0779 14.218 35.7581 14.218V18.218ZM37.8032 17.9763C37.8719 17.9591 37.9078 17.958 37.9161 17.958V13.958C37.5431 13.958 37.1803 14.0089 36.8331 14.0957L37.8032 17.9763ZM37.9161 17.958C37.9426 17.958 37.9065 17.9615 37.83 17.9375C37.7476 17.9116 37.6399 17.8602 37.5342 17.7708L40.118 14.7172C39.437 14.141 38.6297 13.958 37.9161 13.958V17.958ZM37.5905 17.8166C37.4843 17.7332 37.3686 17.6031 37.2868 17.4278C37.2068 17.2565 37.1901 17.1084 37.1901 17.024H41.1901C41.1901 16.1285 40.8232 15.2696 40.0618 14.6714L37.5905 17.8166ZM37.1901 17.024C37.1901 16.9502 37.202 16.8699 37.2278 16.7914C37.2531 16.714 37.2851 16.6588 37.3075 16.627C37.3468 16.5712 37.3365 16.6141 37.1665 16.717L39.2377 20.139C40.2106 19.5502 41.1901 18.5394 41.1901 17.024H37.1901ZM37.2001 16.6971C37.0173 16.8029 36.3986 17 35.0041 17V21C36.5563 21 38.0696 20.8157 39.2042 20.1589L37.2001 16.6971ZM31.5798 12.8535C31.9388 13.4121 32.4361 13.8484 33.0404 14.1304L34.7319 10.5056C34.7661 10.5216 34.809 10.5476 34.8521 10.5853C34.8952 10.6231 34.9256 10.6611 34.9445 10.6905L31.5798 12.8535ZM33.1839 14.1907C33.7095 14.3878 34.2537 14.474 34.7961 14.474V10.474C34.6799 10.474 34.6174 10.4562 34.5884 10.4453L33.1839 14.1907ZM34.7961 14.474C35.489 14.474 36.1992 14.3131 36.8441 13.91L34.7241 10.518C34.7631 10.4937 34.7983 10.4806 34.8201 10.4749C34.8401 10.4696 34.8352 10.474 34.7961 10.474V14.474ZM36.7982 13.9379C37.5379 13.5027 38.2261 12.6973 38.2261 11.538H34.2261C34.2261 11.3003 34.2959 11.0434 34.4417 10.8205C34.5758 10.6154 34.7215 10.5187 34.7701 10.4901L36.7982 13.9379ZM38.2261 11.538C38.2261 10.5822 37.7937 9.78196 37.146 9.22062L34.5263 12.2434C34.4821 12.2051 34.3983 12.1183 34.3283 11.9736C34.2559 11.824 34.2261 11.6697 34.2261 11.538H38.2261ZM37.197 9.26641C36.4556 8.57797 35.5343 8.394 34.7701 8.394V12.394C34.849 12.394 34.8435 12.4041 34.7831 12.385C34.7148 12.3633 34.5961 12.3099 34.4752 12.1976L37.197 9.26641ZM34.7701 8.394C33.845 8.394 32.9112 8.70512 32.1957 9.46527L35.1085 12.2067C35.0477 12.2713 34.9648 12.3289 34.8749 12.3644C34.7914 12.3975 34.7463 12.394 34.7701 12.394V8.394ZM32.1931 9.46812C31.6221 10.0772 31.2621 10.8662 31.2621 11.772H35.2621C35.2621 11.8558 35.245 11.9532 35.2058 12.0472C35.1679 12.1382 35.1248 12.1894 35.1112 12.2039L32.1931 9.46812ZM50.0902 18.48L48.5663 19.7753L48.5847 19.7969L48.6036 19.8179L50.0902 18.48ZM49.5442 17.206L51.5255 16.9327V16.9327L49.5442 17.206ZM46.3722 12.89L44.606 11.9517L44.6004 11.9622L44.595 11.9727L46.3722 12.89ZM45.8782 17.206L43.8905 16.9851L45.8782 17.206ZM45.3582 18.454L46.8821 19.7493L46.8976 19.731L46.9127 19.7124L45.3582 18.454ZM41.8222 17.076L39.9123 17.6696L39.9147 17.677L41.8222 17.076ZM45.0462 6.702L43.8183 8.2807L43.8464 8.30254L43.8752 8.32336L45.0462 6.702ZM45.6962 7.69L43.7703 8.22926L44.7328 11.6668L47.1618 9.0509L45.6962 7.69ZM46.7362 7.04L46.0049 5.1785L45.9932 5.18308L45.9816 5.18781L46.7362 7.04ZM52.5342 8.834L50.8765 9.95294L50.8813 9.96002L50.8861 9.96706L52.5342 8.834ZM53.4182 17.804L55.2376 18.6346L55.2409 18.6272L55.2442 18.6199L53.4182 17.804ZM51.4942 17C51.3623 17 51.3337 16.9811 51.3698 16.9945C51.3895 17.0018 51.4227 17.0166 51.4629 17.0434C51.5035 17.0705 51.5426 17.1041 51.5768 17.1421L48.6036 19.8179C49.4113 20.7154 50.5043 21 51.4942 21V17ZM51.6141 17.1847C51.5939 17.1609 51.549 17.103 51.5255 16.9327L47.563 17.4793C47.6782 18.3143 47.9972 19.1057 48.5663 19.7753L51.6141 17.1847ZM51.5255 16.9327C51.4736 16.5565 51.4402 16.0072 51.4402 15.256H47.4402C47.4402 16.0995 47.4762 16.8502 47.563 17.4793L51.5255 16.9327ZM51.4402 15.256C51.4402 14.1004 51.2914 12.9521 50.8131 11.9956L47.2354 13.7844C47.3117 13.9372 47.4402 14.3662 47.4402 15.256H51.4402ZM50.8131 11.9956C50.5368 11.443 50.1204 10.9282 49.5264 10.5627C48.9332 10.1976 48.2872 10.058 47.6722 10.058V14.058C47.6812 14.058 47.5726 14.057 47.43 13.9693C47.2867 13.8811 47.2343 13.7823 47.2354 13.7844L50.8131 11.9956ZM47.6722 10.058C47.0483 10.058 46.4139 10.2142 45.8401 10.5815C45.2762 10.9424 44.8793 11.4372 44.606 11.9517L48.1385 13.8283C48.1598 13.7881 48.1269 13.867 47.9963 13.9505C47.8559 14.0404 47.7242 14.058 47.6722 14.058V10.058ZM44.595 11.9727C44.1106 12.9112 43.9562 14.0191 43.9562 15.126H47.9562C47.9562 14.3263 48.0792 13.9435 48.1495 13.8073L44.595 11.9727ZM43.9562 15.126C43.9562 16.0262 43.9299 16.6302 43.8905 16.9851L47.866 17.4269C47.9305 16.8458 47.9562 16.0631 47.9562 15.126H43.9562ZM43.8905 16.9851C43.8804 17.0752 43.8563 17.1306 43.8037 17.1956L46.9127 19.7124C47.4494 19.0494 47.772 18.2728 47.866 17.4269L43.8905 16.9851ZM43.8343 17.1587C43.8846 17.0995 43.9396 17.0523 43.9921 17.0174C44.0434 16.9832 44.083 16.9668 44.1005 16.9605C44.1172 16.9546 44.1122 16.9583 44.0782 16.9634C44.0441 16.9685 43.9869 16.974 43.9022 16.974V20.974C44.8747 20.974 46.0529 20.7249 46.8821 19.7493L43.8343 17.1587ZM43.9022 16.974C43.8718 16.974 43.8844 16.9698 43.9208 16.9835C43.959 16.9979 43.9836 17.0169 43.9893 17.0221C43.9914 17.024 43.9603 16.9964 43.91 16.909C43.859 16.8202 43.7948 16.6812 43.7298 16.475L39.9147 17.677C40.1785 18.5143 40.6 19.3444 41.2931 19.9769C42.029 20.6483 42.9382 20.974 43.9022 20.974V16.974ZM43.7321 16.4824C43.4071 15.4367 43.2242 14.1457 43.2242 12.578H39.2242C39.2242 14.4423 39.44 16.15 39.9123 17.6696L43.7321 16.4824ZM43.2242 12.578C43.2242 10.5778 43.4435 9.34054 43.7241 8.67377C43.8558 8.36079 43.9548 8.28656 43.9431 8.29578C43.9012 8.32902 43.8414 8.338 43.8502 8.338V4.338C42.9837 4.338 42.158 4.60698 41.4595 5.16022C40.7914 5.68944 40.3433 6.39521 40.0373 7.12223C39.4426 8.53546 39.2242 10.4182 39.2242 12.578H43.2242ZM43.8502 8.338C43.9272 8.338 43.9484 8.34768 43.9309 8.34235C43.922 8.33963 43.9055 8.33375 43.8842 8.32284C43.8627 8.31183 43.8402 8.29768 43.8183 8.2807L46.2741 5.12329C45.537 4.54997 44.6764 4.338 43.8502 4.338V8.338ZM43.8752 8.32336C43.8542 8.30818 43.8336 8.29026 43.8146 8.27038C43.7957 8.25056 43.7816 8.23205 43.7719 8.21723C43.7521 8.18709 43.7575 8.18367 43.7703 8.22926L47.6221 7.15074C47.4004 6.35871 46.956 5.6142 46.2172 5.08064L43.8752 8.32336ZM47.1618 9.0509C47.1305 9.08464 47.1278 9.07737 47.1852 9.0415C47.2419 9.00609 47.3392 8.95396 47.4908 8.89219L45.9816 5.18781C45.3722 5.4361 44.731 5.79027 44.2306 6.3291L47.1618 9.0509ZM47.4675 8.9015C47.7128 8.80515 47.9754 8.754 48.2702 8.754V4.754C47.4904 4.754 46.7303 4.89351 46.0049 5.1785L47.4675 8.9015ZM48.2702 8.754C49.6204 8.754 50.369 9.20112 50.8765 9.95294L54.1919 7.71505C52.8274 5.69355 50.7334 4.754 48.2702 4.754V8.754ZM50.8861 9.96706C51.5337 10.909 51.9642 12.3456 51.9642 14.476H55.9642C55.9642 11.857 55.4414 9.53234 54.1823 7.70094L50.8861 9.96706ZM51.9642 14.476C51.9642 15.7427 51.7946 16.5352 51.5922 16.9881L55.2442 18.6199C55.7699 17.4435 55.9642 16.0173 55.9642 14.476H51.9642ZM51.5988 16.9734C51.5739 17.028 51.5584 17.0449 51.5622 17.0403C51.5675 17.0341 51.5835 17.0179 51.6084 17.0024C51.6327 16.9873 51.6461 16.9849 51.636 16.9875C51.6237 16.9907 51.5799 17 51.4942 17V21C52.2456 21 53.02 20.8347 53.7201 20.3996C54.4263 19.9606 54.919 19.3324 55.2376 18.6346L51.5988 16.9734ZM56.1094 18.246L57.0836 16.4993L56.1094 18.246ZM55.2774 15.1L56.5268 16.6618L56.5358 16.6545L55.2774 15.1ZM57.4094 14.788L56.5818 16.6087L56.5818 16.6087L57.4094 14.788ZM57.9814 15.152L59.2984 13.6468L59.2735 13.625L59.2479 13.6041L57.9814 15.152ZM58.3194 15.412L57.2904 17.127L57.3563 17.1665L57.425 17.2009L58.3194 15.412ZM58.9434 14.554L57.7671 16.1715L57.8173 16.208L57.8697 16.2413L58.9434 14.554ZM57.9554 14.06L58.71 12.2078L58.6982 12.203L57.9554 14.06ZM57.0974 13.696L57.9919 11.9071L57.9762 11.8993L57.9603 11.8917L57.0974 13.696ZM55.3294 12.344L53.7166 13.5267L55.3294 12.344ZM55.4594 8.808L53.8977 7.5586L53.8932 7.56424L55.4594 8.808ZM57.4874 7.352L58.2619 9.19596L58.2708 9.19224L58.2796 9.18842L57.4874 7.352ZM63.2074 7.196L62.5504 9.08503L62.5629 9.0893L63.2074 7.196ZM65.1314 8.34L63.6917 9.72827L63.7044 9.74136L63.7172 9.75421L65.1314 8.34ZM65.3134 11.122L64.064 9.56026L64.0444 9.57598L64.0252 9.59218L65.3134 11.122ZM63.4154 11.486L62.6276 13.3243L62.7749 13.3874L62.9304 13.4263L63.4154 11.486ZM62.9214 11.252L61.9291 12.9885L61.9773 13.016L62.027 13.0409L62.9214 11.252ZM62.5314 11.07L61.7436 12.9083L61.786 12.9265L61.8292 12.9427L62.5314 11.07ZM61.7514 11.148L63.0318 12.6844L63.1015 12.6264L63.1656 12.5622L61.7514 11.148ZM62.1674 12.058L62.79 10.1574L62.7819 10.1547L62.7738 10.1521L62.1674 12.058ZM64.5854 13.306L63.3094 14.846L63.32 14.8548L63.3308 14.8635L64.5854 13.306ZM63.9354 18.038L62.8982 16.328L62.8919 16.3318L62.8856 16.3357L63.9354 18.038ZM59.7494 17C58.4138 17 57.5782 16.7751 57.0836 16.4993L55.1353 19.9927C56.4433 20.7222 58.0344 21 59.7494 21V17ZM57.0836 16.4993C56.8213 16.353 56.7458 16.2517 56.739 16.2419C56.7371 16.2392 56.7448 16.2502 56.7515 16.2718C56.7582 16.2932 56.7574 16.3042 56.7574 16.296H52.7574C52.7574 18.036 53.8165 19.2573 55.1353 19.9927L57.0836 16.4993ZM56.7574 16.296C56.7574 16.2575 56.7636 16.3078 56.7216 16.4045C56.6756 16.5102 56.6021 16.6015 56.5268 16.6617L54.028 13.5383C53.1228 14.2624 52.7574 15.285 52.7574 16.296H56.7574ZM56.5358 16.6545C56.5296 16.6595 56.522 16.6646 56.5143 16.6688C56.5066 16.6729 56.503 16.6738 56.5058 16.6729C56.511 16.6713 56.555 16.658 56.6554 16.658V12.658C55.7307 12.658 54.802 12.9117 54.019 13.5455L56.5358 16.6545ZM56.6554 16.658C56.7217 16.658 56.7462 16.6628 56.7381 16.6614C56.7305 16.6601 56.6714 16.6495 56.5818 16.6087L58.237 12.9673C57.6911 12.7191 57.1254 12.658 56.6554 12.658V16.658ZM56.5818 16.6087C56.5902 16.6126 56.6353 16.6348 56.7149 16.6999L59.2479 13.6041C58.9462 13.3572 58.61 13.1368 58.237 12.9673L56.5818 16.6087ZM56.6644 16.6572C56.8325 16.8042 57.0506 16.9831 57.2904 17.127L59.3484 13.697C59.372 13.7112 59.3868 13.7213 59.3917 13.7247C59.3969 13.7283 59.3963 13.7281 59.3893 13.7228C59.3744 13.7113 59.3448 13.6874 59.2984 13.6468L56.6644 16.6572ZM57.425 17.2009C57.8553 17.416 58.2936 17.49 58.6834 17.49V13.49C58.796 13.49 58.9916 13.512 59.2138 13.6231L57.425 17.2009ZM58.6834 17.49C59.0431 17.49 59.6721 17.4366 60.2554 17.02C60.9627 16.5147 61.2294 15.7557 61.2294 15.1H57.2294C57.2294 14.9326 57.2591 14.6903 57.3829 14.4249C57.5117 14.1489 57.7071 13.9246 57.9304 13.765C58.1414 13.6144 58.3376 13.5489 58.4591 13.52C58.5797 13.4913 58.6618 13.49 58.6834 13.49V17.49ZM61.2294 15.1C61.2294 14.234 60.8339 13.3864 60.0172 12.8667L57.8697 16.2413C57.7003 16.1335 57.5167 15.9586 57.3863 15.7095C57.259 15.4665 57.2294 15.2435 57.2294 15.1H61.2294ZM60.1198 12.9365C59.72 12.6458 59.1977 12.4065 58.71 12.2078L57.2008 15.9122C57.4035 15.9948 57.5534 16.0625 57.659 16.1154C57.7733 16.1725 57.7958 16.1924 57.7671 16.1715L60.1198 12.9365ZM58.6982 12.203C58.4887 12.1192 58.3227 12.0512 58.197 11.9978C58.1344 11.9712 58.0853 11.9499 58.0482 11.9332C58.0299 11.925 58.0159 11.9185 58.0058 11.9138C57.9954 11.9089 57.9911 11.9068 57.9919 11.9071L56.203 15.4849C56.4285 15.5976 56.7924 15.7489 57.2126 15.917L58.6982 12.203ZM57.9603 11.8917C57.3555 11.6025 57.0699 11.3353 56.9422 11.1613L53.7166 13.5267C54.3517 14.3927 55.2447 15.0269 56.2345 15.5003L57.9603 11.8917ZM56.9422 11.1613C56.7875 10.9502 56.7574 10.8036 56.7574 10.68H52.7574C52.7574 11.7351 53.1087 12.6978 53.7166 13.5267L56.9422 11.1613ZM56.7574 10.68C56.7574 10.5363 56.7964 10.3404 57.0256 10.0518L53.8932 7.56424C53.1864 8.45427 52.7574 9.50632 52.7574 10.68H56.7574ZM57.0212 10.0574C57.2583 9.76101 57.639 9.4576 58.2619 9.19596L56.713 5.50804C55.6026 5.9744 54.6312 6.64166 53.8977 7.55861L57.0212 10.0574ZM58.2796 9.18842C58.8709 8.93334 59.6074 8.78 60.5294 8.78V4.78C59.1634 4.78 57.8719 5.008 56.6952 5.51558L58.2796 9.18842ZM60.5294 8.78C61.331 8.78 61.9969 8.89246 62.5504 9.08499L63.8645 5.30701C62.8233 4.94487 61.7038 4.78 60.5294 4.78V8.78ZM62.5629 9.0893C63.1571 9.29158 63.4974 9.52675 63.6917 9.72827L66.5711 6.95173C65.8294 6.18258 64.8871 5.65508 63.852 5.3027L62.5629 9.0893ZM63.7172 9.75421C63.8069 9.84394 63.8311 9.89519 63.8341 9.90173C63.8358 9.90561 63.8349 9.90438 63.8339 9.89981C63.833 9.89525 63.8334 9.89442 63.8334 9.9H67.8334C67.8334 8.71371 67.3249 7.70508 66.5456 6.92579L63.7172 9.75421ZM63.8334 9.9C63.8334 9.95572 63.8244 9.91629 63.8631 9.82539C63.9064 9.72372 63.9798 9.62765 64.064 9.56026L66.5628 12.6837C67.4845 11.9464 67.8334 10.9033 67.8334 9.9H63.8334ZM64.0252 9.59218C64.0528 9.5689 64.0797 9.55146 64.1025 9.53929C64.1249 9.52733 64.1389 9.52286 64.1403 9.52244C64.141 9.52221 64.089 9.538 63.9614 9.538V13.538C64.8486 13.538 65.808 13.3202 66.6017 12.6518L64.0252 9.59218ZM63.9614 9.538C63.8982 9.538 63.861 9.53549 63.8455 9.53401C63.8384 9.53333 63.8395 9.53321 63.8477 9.53454C63.8557 9.53584 63.8739 9.53908 63.9005 9.54572L62.9304 13.4263C63.2914 13.5165 63.6548 13.538 63.9614 13.538V9.538ZM64.2033 9.64771C64.1351 9.61848 64.0108 9.56063 63.8158 9.46314L62.027 13.0409C62.248 13.1514 62.4531 13.2495 62.6276 13.3243L64.2033 9.64771ZM63.9137 9.51551C63.6941 9.39006 63.4666 9.28468 63.2337 9.19734L61.8292 12.9427C61.8736 12.9593 61.906 12.9753 61.9291 12.9885L63.9137 9.51551ZM63.3193 9.23171C62.908 9.05545 62.4938 8.992 62.1154 8.992V12.992C62.049 12.992 61.9122 12.9806 61.7436 12.9083L63.3193 9.23171ZM62.1154 8.992C61.4116 8.992 60.791 9.27996 60.3372 9.73379L63.1656 12.5622C63.0582 12.6696 62.9067 12.7842 62.7083 12.8693C62.5075 12.9553 62.303 12.992 62.1154 12.992V8.992ZM60.4711 9.61156C59.8984 10.0887 59.5954 10.7704 59.5954 11.486H63.5954C63.5954 11.6719 63.5592 11.8998 63.4503 12.1356C63.3409 12.3728 63.1869 12.5552 63.0318 12.6844L60.4711 9.61156ZM59.5954 11.486C59.5954 12.168 59.8693 12.7833 60.3242 13.2382C60.7286 13.6426 61.2016 13.8495 61.561 13.9639L62.7738 10.1521C62.775 10.1525 62.7845 10.1556 62.8009 10.1624C62.8172 10.1692 62.8426 10.1806 62.8749 10.1982C62.9375 10.2323 63.0406 10.2977 63.1526 10.4098C63.2685 10.5256 63.3868 10.6847 63.4731 10.8887C63.56 11.0942 63.5954 11.3003 63.5954 11.486H59.5954ZM61.5448 13.9586C62.3885 14.235 62.9498 14.5481 63.3094 14.846L65.8615 11.766C65.0077 11.0586 63.957 10.5397 62.79 10.1574L61.5448 13.9586ZM63.3308 14.8635C63.4307 14.944 63.5214 15.0361 63.5214 15.386H67.5214C67.5214 13.9679 66.9881 12.6733 65.8401 11.7485L63.3308 14.8635ZM63.5214 15.386C63.5214 15.7353 63.4279 16.0067 62.8982 16.328L64.9726 19.748C66.5576 18.7867 67.5214 17.29 67.5214 15.386H63.5214ZM62.8856 16.3357C62.2695 16.7156 61.2814 17 59.7494 17V21C61.7188 21 63.5213 20.6431 64.9852 19.7403L62.8856 16.3357Z" fill="#4B371F" mask="url(#path-1-outside-1_24346_4618)"/>
</svg>
