<svg width="180" height="283" viewBox="0 0 180 283" fill="none" xmlns="http://www.w3.org/2000/svg">
        <circle cx="114.933" cy="21" r="20" fill="currentColor"/>
        <path d="M94.9331 21C94.9331 9.9543 103.887 1 114.933 1C125.979 1 134.933 9.9543 134.933 21C134.933 26.2032 132.946 30.9423 129.69 34.5" stroke="black" stroke-width="2"/>
        <circle cx="114.933" cy="22" r="12" fill="var(--ear-color)" stroke="black" stroke-width="2"/>
        <path d="M16.4998 126C-3.99982 103 10.1021 74.4976 23.4354 51.4976C31.5514 37.4976 54.9842 18.664 89.4354 20.4996C136.435 23.0037 153.435 61.5 158.935 94.5C162.935 96.8333 172.935 102 169.935 118C166.935 134 147.501 145.5 111.001 145.5C74.5012 145.5 36.9993 149 16.4998 126Z" fill="currentColor"/>
        <path d="M158.935 94.5C162.935 96.8333 172.935 102 169.935 118C166.935 134 147.501 145.5 111.001 145.5C74.5012 145.5 36.9993 149 16.4998 126C-3.99982 103 10.1021 74.4976 23.4354 51.4976C31.5514 37.4976 54.9842 18.664 89.4354 20.4996C136.435 23.0037 153.435 61.5 158.935 94.5ZM158.935 94.5C156.601 93.5 148.435 91 141.935 100.5M49.9345 100.5C56.9345 98.6667 71.4345 94.5 83.9345 107" stroke="black" stroke-width="2" stroke-linecap="round"/>
        <circle cx="35.4331" cy="30.5" r="24.5" fill="currentColor"/>
        <circle cx="35.4331" cy="30.5" r="13.5" fill="var(--ear-color)" stroke="black" stroke-width="2"/>
        <path d="M59.9331 30.5C59.9331 16.969 48.9641 6 35.4331 6C21.9021 6 10.9331 16.969 10.9331 30.5C10.9331 44.031 21.9021 55 35.4331 55" stroke="black" stroke-width="2"/>
</svg>