<svg width="361" height="340" viewBox="0 0 361 340" fill="none" xmlns="http://www.w3.org/2000/svg">
<circle cx="163.262" cy="41.4966" r="20" fill="currentColor"/>
<path d="M143.262 41.4966C143.262 30.4509 152.216 21.4966 163.262 21.4966C174.307 21.4966 183.262 30.4509 183.262 41.4966C183.262 46.6998 181.275 51.4389 178.018 54.9966" stroke="black" stroke-width="2"/>
<circle cx="163.262" cy="42.4966" r="12" fill="var(--ear-color)" stroke="black" stroke-width="2"/>
<path d="M64.8279 146.497C44.3283 123.497 58.4302 94.9941 71.7636 71.9941C79.8795 57.9941 103.312 39.1606 137.764 40.9962C184.764 43.5003 201.763 81.9966 207.263 114.997C211.263 117.33 221.263 122.497 218.263 138.497C215.263 154.497 195.829 165.997 159.329 165.997C122.829 165.997 85.3275 169.497 64.8279 146.497Z" fill="currentColor"/>
<path d="M207.263 114.997C211.263 117.33 221.263 122.497 218.263 138.497C215.263 154.497 195.829 165.997 159.329 165.997C122.829 165.997 85.3275 169.497 64.8279 146.497C44.3283 123.497 58.4302 94.9941 71.7636 71.9941C79.8795 57.9941 103.312 39.1606 137.764 40.9962C184.764 43.5003 201.763 81.9966 207.263 114.997ZM207.263 114.997C204.929 113.997 196.763 111.497 190.263 120.997M98.2627 120.997C105.263 119.163 119.763 114.997 132.263 127.497" stroke="black" stroke-width="2" stroke-linecap="round"/>
<circle cx="83.7617" cy="50.9966" r="24.5" fill="currentColor"/>
<circle cx="83.7617" cy="50.9966" r="13.5" fill="var(--ear-color)" stroke="black" stroke-width="2"/>
<path d="M108.262 50.9966C108.262 37.4656 97.2927 26.4966 83.7617 26.4966C70.2307 26.4966 59.2617 37.4656 59.2617 50.9966C59.2617 64.5276 70.2307 75.4966 83.7617 75.4966" stroke="black" stroke-width="2"/>
</svg>