<svg width="180" height="283" viewBox="0 0 180 283" fill="none" xmlns="http://www.w3.org/2000/svg">
    <ellipse cx="90.4785" cy="133.477" rx="90" ry="12.5" fill="black" fill-opacity="0.5"/>
    <path d="M160.357 101.35C159.557 91.3503 147.691 88.1837 141.857 87.8503C132.257 97.0503 108.857 96.017 98.3574 94.3503C103.191 99.1837 113.657 110.15 116.857 115.35C120.057 120.55 116.524 128.85 114.357 132.35H157.357C162.157 126.35 154.691 123.184 150.357 122.35C154.024 119.517 161.157 111.35 160.357 101.35Z" fill="currentColor" stroke="black" stroke-width="2"/>
    <circle cx="40.4785" cy="90.9773" r="15" fill="currentColor" stroke="black" stroke-width="2" stroke-linecap="round"/>
    <circle cx="40.4785" cy="90.9773" r="15" fill="currentColor" stroke="black" stroke-width="2"/>
    <path d="M69.8572 117.85C35.357 113.85 31.8569 77.3503 37.3569 66.3503C37.3569 66.3503 80.357 94.3503 97.857 95.8503C115.357 97.3503 125.857 94.8503 125.857 94.8503C144.357 100.85 134.357 125.85 121.357 125.85C133.357 127.35 131.043 136.85 125.857 136.85C118.357 136.85 95.8572 138.85 88.3572 136.85C80.8572 134.85 104.357 121.85 69.8572 117.85Z" fill="currentColor"/>
    <path d="M37.3569 66.3503C31.8569 77.3503 35.357 113.85 69.8572 117.85C104.357 121.85 80.8572 134.85 88.3572 136.85C95.8572 138.85 118.357 136.85 125.857 136.85C131.043 136.85 133.357 127.35 121.357 125.85C134.357 125.85 144.357 100.85 125.857 94.8503" stroke="black" stroke-width="2" stroke-linecap="round"/>
    <path d="M131.654 11.8598C148.169 15.5344 174.711 26.7526 185.918 31.9023C191.934 37.0306 188.64 49.7662 177.094 54.6329C165.547 59.4996 148.788 51.2766 131.63 42.0094C114.473 32.7422 111.01 7.26655 131.654 11.8598Z" fill="currentColor" stroke="black" stroke-width="2"/>
    <path d="M104.979 1.97857C94.9789 2.33489 66.46 7.97784 56.4788 6.97827C54.0816 14.7348 40.1271 46.831 37.3584 64.8503C37.3586 78.8503 44.4789 84.9783 44.4789 84.9783C49.8524 90.6876 69.4753 100.781 104.979 95.4783C122.754 96.2189 137.508 93.8998 145.979 84.9783C145.979 84.9783 149.923 80.4217 151.479 75.8572C152.341 72.4081 152.506 68.5595 152.117 64.4786C150.477 47.2627 138.988 25.9123 128.479 12.9783L126.979 2.97897C126.979 2.97897 116.179 1.5795 104.979 1.97857Z" fill="currentColor"/>
    <path d="M89.9789 90.9783C89.9789 90.9783 94.4789 95.4783 104.979 95.4783C122.754 96.2189 137.508 93.8998 145.979 84.9783C145.979 84.9783 149.923 80.4217 151.479 75.8572C152.341 72.4081 152.506 68.5595 152.117 64.4786C150.477 47.2627 138.988 25.9123 128.479 12.9783L126.979 2.97897C126.979 2.97897 116.179 1.5795 104.979 1.97857C94.9789 2.33489 66.46 7.97784 56.4788 6.97827C54.0816 14.7348 39.7472 48.4589 36.9785 66.4783" stroke="black" stroke-width="2" stroke-linecap="round"/>
    <path d="M104.808 31.5977C96.0082 29.1977 81.3082 24.0977 66.8082 22.0977C64.4082 22.0977 60.3082 23.431 59.8082 24.0977C74.3082 27.0977 82.8082 30.5977 97.8082 38.0977C99.3082 35.0977 102.642 32.7643 104.808 31.5977Z" fill="white"/>
    <path d="M67.8579 21.3495C84.6579 23.3495 112.191 31.8495 123.858 35.8495C130.358 40.3486 128.358 53.3503 117.358 59.3503C106.358 65.3503 88.8579 58.8495 70.8579 51.3495C52.8579 43.8495 46.8579 18.8495 67.8579 21.3495Z" fill="currentColor"/>
    <path d="M67.858 21.3496C84.658 23.3496 112.191 31.8496 123.858 35.8496C130.358 40.3488 128.358 53.3505 117.358 59.3505C106.358 65.3505 88.858 58.8496 70.858 51.3496C65.3553 49.0568 60.974 45.1286 58.1428 40.8505" stroke="black" stroke-width="2"/>
    <path d="M112.554 42.0964C108.848 47.095 107.887 53.596 108.554 56.596C110.998 67.5982 116.554 57.2627 117.054 54.096L119.224 55.096C116.41 58.7021 115.844 64.3862 120.054 68.596C127.054 75.596 143.054 68.7388 147.554 63.596C151.054 59.596 155.554 51.5979 145.554 42.0979C135.554 32.5979 119.224 33.0984 112.554 42.0964Z" fill="currentColor"/>
    <path d="M112.554 42.0962C119.224 33.0982 135.554 32.5977 145.554 42.0977C155.554 51.5977 151.054 59.5958 147.554 63.5958C143.054 68.7387 127.054 75.5958 120.054 68.5958C115.844 64.386 116.41 58.702 119.224 55.0958M120.054 54.0958C119.759 54.4321 119.483 54.7648 119.224 55.0958M119.224 55.0958L117.054 54.0958C116.683 56.4397 113.544 62.7109 110.946 61.3503" stroke="black" stroke-width="2" stroke-linecap="round"/>
    <ellipse cx="116.053" cy="56.5984" rx="5" ry="6.5" fill="black"/>
    <ellipse cx="176.357" cy="51.8503" rx="5" ry="6.5" fill="black"/>
    <path d="M170.554 36.2878C166.848 41.2864 165.887 47.7874 166.554 50.7874C168.998 61.7896 174.554 51.4541 175.054 48.2874L177.224 49.2874C174.41 52.8935 173.844 58.5776 178.054 62.7874C185.054 69.7874 201.054 62.9303 205.554 57.7874C209.054 53.7874 213.554 45.7893 203.554 36.2893C197.179 30.234 188.234 28.2417 180.857 29.9232C176.661 30.8797 172.972 33.0251 170.554 36.2878Z" fill="currentColor"/>
    <ellipse cx="174.053" cy="50.5984" rx="5" ry="6.5" fill="black"/>
    <path d="M203.553 36.289L202.865 37.014L203.553 36.289ZM205.553 57.7871L206.306 58.4456L205.553 57.7871ZM178.806 48.9456C179.17 48.53 179.128 47.8982 178.712 47.5345C178.296 47.1708 177.665 47.213 177.301 47.6286L178.806 48.9456ZM177.224 49.2871L178.013 49.9023L177.224 49.2871ZM175.053 48.2871L175.472 47.3788L174.272 46.826L174.066 48.1311L175.053 48.2871ZM180.857 29.9229L180.392 30.8079C180.603 30.919 180.847 30.9509 181.08 30.8978L180.857 29.9229ZM168.203 55.0382C167.651 55.0204 167.189 55.4535 167.171 56.0055C167.153 56.5575 167.586 57.0194 168.138 57.0372L168.203 55.0382ZM178.535 27.572C178.047 27.3149 177.442 27.5028 177.185 27.9916C176.928 28.4804 177.116 29.0851 177.605 29.3421L178.535 27.572ZM202.865 37.014C207.695 41.6031 208.901 45.695 208.62 49.0161C208.333 52.3959 206.49 55.1985 204.801 57.1286L206.306 58.4456C208.117 56.3757 210.274 53.1793 210.612 49.185C210.956 45.132 209.412 40.4749 204.242 35.564L202.865 37.014ZM204.801 57.1286C202.721 59.5055 197.796 62.4264 192.478 63.8759C187.121 65.336 181.859 65.1783 178.761 62.08L177.346 63.4942C181.248 67.3958 187.486 67.3096 193.004 65.8055C198.561 64.2906 203.886 61.2115 206.306 58.4456L204.801 57.1286ZM178.761 62.08C174.966 58.2856 175.456 53.1791 178.013 49.9023L176.436 48.6719C173.365 52.6074 172.721 58.869 177.346 63.4942L178.761 62.08ZM178.013 49.9023C178.258 49.5879 178.523 49.2696 178.806 48.9456L177.301 47.6286C176.996 47.9771 176.707 48.3243 176.436 48.6719L178.013 49.9023ZM177.643 48.3788L175.472 47.3788L174.635 49.1954L176.806 50.1954L177.643 48.3788ZM181.08 30.8978C188.144 29.2875 196.744 31.1991 202.865 37.014L204.242 35.564C197.615 29.2683 188.324 27.1952 180.635 28.9479L181.08 30.8978ZM174.066 48.1311C173.921 49.0471 173.239 50.8738 172.121 52.4484C170.981 54.0533 169.619 55.0839 168.203 55.0382L168.138 57.0372C170.596 57.1165 172.504 55.3626 173.751 53.6063C175.02 51.8198 175.841 49.7086 176.041 48.4431L174.066 48.1311ZM181.323 29.0378L178.535 27.572L177.605 29.3421L180.392 30.8079L181.323 29.0378Z" fill="black"/>
</svg>