<svg width="361" height="340" viewBox="0 0 361 340" fill="none" xmlns="http://www.w3.org/2000/svg">
<ellipse cx="138.107" cy="291.372" rx="90" ry="12.5" fill="black" fill-opacity="0.5"/>
<path d="M207.986 259.245C207.186 249.245 195.32 246.078 189.486 245.745C179.886 254.945 156.486 253.912 145.986 252.245C150.82 257.078 161.286 268.045 164.486 273.245C167.686 278.445 164.153 286.745 161.986 290.245H204.986C209.786 284.245 202.32 281.078 197.986 280.245C201.653 277.412 208.786 269.245 207.986 259.245Z" fill="currentColor" stroke="black" stroke-width="2"/>
<circle cx="88.1074" cy="248.872" r="15" fill="currentColor" stroke="black" stroke-width="2" stroke-linecap="round"/>
<circle cx="88.1074" cy="248.872" r="15" fill="currentColor" stroke="black" stroke-width="2"/>
<path d="M117.486 275.745C82.9859 271.745 79.4858 235.245 84.9858 224.245C84.9858 224.245 127.986 252.245 145.486 253.745C162.986 255.245 173.486 252.745 173.486 252.745C191.986 258.745 181.986 283.745 168.986 283.745C180.986 285.245 178.672 294.745 173.486 294.745C165.986 294.745 143.486 296.745 135.986 294.745C128.486 292.745 151.986 279.745 117.486 275.745Z" fill="currentColor"/>
<path d="M84.9858 224.245C79.4858 235.245 82.9859 271.745 117.486 275.745C151.986 279.745 128.486 292.745 135.986 294.745C143.486 296.745 165.986 294.745 173.486 294.745C178.672 294.745 180.986 285.245 168.986 283.745C181.986 283.745 191.986 258.745 173.486 252.745" stroke="black" stroke-width="2" stroke-linecap="round"/>
<path d="M179.283 169.755C195.798 173.429 222.34 184.647 233.547 189.797C239.563 194.925 236.269 207.661 224.723 212.528C213.177 217.394 196.417 209.171 179.26 199.904C162.102 190.637 158.64 165.161 179.283 169.755Z" fill="currentColor" stroke="black" stroke-width="2"/>
<path d="M152.485 166.45C118.128 167.316 114.09 165.873 104.109 164.873C101.712 172.63 87.757 204.726 84.9883 222.745C84.9885 236.745 92.1088 242.873 92.1088 242.873C97.4823 248.582 117.105 258.675 152.609 253.373C170.384 254.114 185.138 251.795 193.609 242.873C193.609 242.873 197.553 238.317 199.109 233.752C199.971 230.303 200.136 226.454 199.747 222.373C198.107 205.157 186.618 183.807 176.109 170.873L175.359 165.873C170.077 166.224 161.07 166.233 152.485 166.45Z" fill="currentColor"/>
<path d="M137.608 248.873C137.608 248.873 142.108 253.373 152.608 253.373C170.383 254.113 185.137 251.794 193.608 242.873C193.608 242.873 197.552 238.316 199.108 233.752C199.97 230.303 200.135 226.454 199.746 222.373C198.106 205.157 186.617 183.807 176.108 170.873L175.358 165.873C170.701 166.068 157.107 166.414 148.371 166.5C135.746 166.625 114.002 166.088 104.021 165.089C101.624 172.845 87.3761 206.354 84.6074 224.373" stroke="black" stroke-width="2" stroke-linecap="round"/>
<path d="M152.437 189.492C143.637 187.092 128.938 181.992 114.438 179.992C112.037 179.992 107.938 181.326 107.438 181.992C121.938 184.992 130.437 188.492 145.437 195.992C146.937 192.992 150.271 190.659 152.437 189.492Z" fill="white"/>
<path d="M115.487 179.244C132.287 181.244 159.82 189.744 171.487 193.744C177.987 198.243 175.987 211.245 164.987 217.245C153.987 223.245 136.487 216.744 118.487 209.244C100.487 201.744 94.4868 176.744 115.487 179.244Z" fill="currentColor"/>
<path d="M115.487 179.244C132.287 181.244 159.82 189.744 171.487 193.744C177.987 198.243 175.987 211.245 164.987 217.245C153.987 223.245 136.487 216.744 118.487 209.244C112.984 206.951 108.603 203.023 105.771 198.745" stroke="black" stroke-width="2"/>
<path d="M160.182 199.991C156.477 204.99 155.516 211.491 156.182 214.491C158.627 225.493 164.182 215.157 164.682 211.991L166.853 212.991C164.039 216.597 163.473 222.281 167.682 226.491C174.682 233.491 190.682 226.634 195.182 221.491C198.682 217.491 203.182 209.493 193.182 199.993C183.182 190.493 166.853 190.993 160.182 199.991Z" fill="currentColor"/>
<path d="M160.182 199.991C166.853 190.993 183.182 190.492 193.182 199.992C203.182 209.492 198.682 217.491 195.182 221.491C190.682 226.633 174.682 233.491 167.682 226.491C163.472 222.281 164.038 216.597 166.853 212.991M167.682 211.991C167.387 212.327 167.111 212.66 166.853 212.991M166.853 212.991L164.682 211.991C164.312 214.334 161.172 220.606 158.574 219.245" stroke="black" stroke-width="2" stroke-linecap="round"/>
<ellipse cx="163.682" cy="214.493" rx="5" ry="6.5" fill="black"/>
<ellipse cx="223.986" cy="209.745" rx="5" ry="6.5" fill="black"/>
<path d="M218.182 194.182C214.477 199.181 213.516 205.682 214.182 208.682C216.627 219.684 222.182 209.348 222.682 206.182L224.853 207.182C222.039 210.788 221.473 216.472 225.682 220.682C232.682 227.682 248.682 220.825 253.182 215.682C256.682 211.682 261.182 203.684 251.182 194.184C244.808 188.128 235.863 186.136 228.486 187.817C224.29 188.774 220.601 190.919 218.182 194.182Z" fill="currentColor"/>
<ellipse cx="221.682" cy="208.493" rx="5" ry="6.5" fill="black"/>
<path d="M251.182 194.184L250.493 194.909L251.182 194.184ZM253.182 215.682L253.935 216.34L253.182 215.682ZM226.435 206.84C226.798 206.424 226.756 205.793 226.341 205.429C225.925 205.065 225.293 205.107 224.929 205.523L226.435 206.84ZM224.853 207.182L225.641 207.797L224.853 207.182ZM222.682 206.182L223.1 205.273L221.9 204.721L221.694 206.026L222.682 206.182ZM228.486 187.817L228.021 188.702C228.232 188.814 228.476 188.845 228.708 188.792L228.486 187.817ZM215.831 212.933C215.279 212.915 214.817 213.348 214.799 213.9C214.782 214.452 215.215 214.914 215.767 214.932L215.831 212.933ZM226.164 185.466C225.675 185.209 225.071 185.397 224.813 185.886C224.556 186.375 224.744 186.98 225.233 187.237L226.164 185.466ZM250.493 194.909C255.324 199.498 256.53 203.59 256.248 206.911C255.962 210.29 254.118 213.093 252.429 215.023L253.935 216.34C255.746 214.27 257.902 211.074 258.241 207.08C258.584 203.027 257.04 198.369 251.871 193.459L250.493 194.909ZM252.429 215.023C250.35 217.4 245.424 220.321 240.107 221.77C234.75 223.231 229.488 223.073 226.389 219.975L224.975 221.389C228.877 225.29 235.114 225.204 240.633 223.7C246.19 222.185 251.514 219.106 253.935 216.34L252.429 215.023ZM226.389 219.975C222.595 216.18 223.084 211.074 225.641 207.797L224.065 206.566C220.993 210.502 220.35 216.764 224.975 221.389L226.389 219.975ZM225.641 207.797C225.887 207.482 226.151 207.164 226.435 206.84L224.929 205.523C224.625 205.872 224.336 206.219 224.065 206.566L225.641 207.797ZM225.271 206.273L223.1 205.273L222.264 207.09L224.435 208.09L225.271 206.273ZM228.708 188.792C235.773 187.182 244.372 189.094 250.493 194.909L251.871 193.459C245.244 187.163 235.953 185.09 228.264 186.842L228.708 188.792ZM221.694 206.026C221.55 206.942 220.867 208.768 219.749 210.343C218.609 211.948 217.248 212.978 215.831 212.933L215.767 214.932C218.225 215.011 220.133 213.257 221.38 211.501C222.648 209.714 223.47 207.603 223.67 206.338L221.694 206.026ZM228.951 186.932L226.164 185.466L225.233 187.237L228.021 188.702L228.951 186.932Z" fill="black"/>
</svg>
