<svg width="211" height="284" viewBox="0 0 211 284" fill="none" xmlns="http://www.w3.org/2000/svg">
<ellipse cx="90.5098" cy="270.557" rx="90" ry="12.5" fill="black" fill-opacity="0.5"/>
<path d="M160.389 238.43C159.589 228.43 147.722 225.263 141.889 224.93C132.289 234.13 108.889 233.097 98.3887 231.43C103.222 236.263 113.689 247.23 116.889 252.43C120.089 257.63 116.555 265.93 114.389 269.43H157.389C162.189 263.43 154.722 260.263 150.389 259.43C154.055 256.597 161.189 248.43 160.389 238.43Z" fill="#E49F63" stroke="black" stroke-width="2"/>
<circle cx="40.5098" cy="228.057" r="15" fill="#E49F63" stroke="black" stroke-width="2" stroke-linecap="round"/>
<circle cx="40.5098" cy="228.057" r="15" fill="#E49F63" stroke="black" stroke-width="2"/>
<path d="M69.8884 254.93C35.3882 250.93 31.8882 214.43 37.3882 203.43C37.3882 203.43 80.3882 231.43 97.8882 232.93C115.388 234.43 125.888 231.93 125.888 231.93C144.388 237.93 134.388 262.93 121.388 262.93C133.388 264.43 131.074 273.93 125.888 273.93C118.388 273.93 95.8884 275.93 88.3884 273.93C80.8884 271.93 104.389 258.93 69.8884 254.93Z" fill="#E49F63"/>
<path d="M37.3882 203.43C31.8882 214.43 35.3882 250.93 69.8884 254.93C104.389 258.93 80.8884 271.93 88.3884 273.93C95.8884 275.93 118.388 273.93 125.888 273.93C131.074 273.93 133.388 264.43 121.388 262.93C134.388 262.93 144.388 237.93 125.888 231.93" stroke="black" stroke-width="2" stroke-linecap="round"/>
<path d="M131.685 148.939C148.2 152.614 174.742 163.832 185.949 168.982C191.965 174.11 188.671 186.846 177.125 191.712C165.579 196.579 148.819 188.356 131.662 179.089C114.505 169.822 111.042 144.346 131.685 148.939Z" fill="#E49F63" stroke="black" stroke-width="2"/>
<path d="M105.011 139.058C95.0111 139.414 66.4922 145.057 56.511 144.058C54.1139 151.814 40.1593 183.911 37.3906 201.93C37.3909 215.93 44.5111 222.058 44.5111 222.058C49.8846 227.767 69.5075 237.86 105.011 232.558C122.786 233.299 137.541 230.979 146.011 222.058C146.011 222.058 149.955 217.501 151.511 212.937C152.373 209.488 152.538 205.639 152.149 201.558C150.509 184.342 139.02 162.992 128.511 150.058L127.011 140.059C127.011 140.059 116.211 138.659 105.011 139.058Z" fill="#E49F63"/>
<path d="M90.0102 228.058C90.0102 228.058 94.5102 232.558 105.01 232.558C122.785 233.298 137.54 230.979 146.01 222.058C146.01 222.058 149.954 217.501 151.51 212.937C152.372 209.488 152.537 205.639 152.148 201.558C150.508 184.342 139.019 162.992 128.51 150.058L127.01 140.059C127.01 140.059 116.21 138.659 105.01 139.058C95.0102 139.414 66.4912 145.057 56.51 144.058C54.1129 151.814 39.7785 185.539 37.0098 203.558" stroke="black" stroke-width="2" stroke-linecap="round"/>
<circle cx="115.441" cy="21.4299" r="20" fill="#E49F63"/>
<path d="M95.4414 21.4299C95.4414 10.3842 104.396 1.42993 115.441 1.42993C126.487 1.42993 135.441 10.3842 135.441 21.4299C135.441 26.6331 133.454 31.3723 130.198 34.9299" stroke="black" stroke-width="2"/>
<circle cx="115.441" cy="22.4299" r="12" fill="#FED2AB" stroke="black" stroke-width="2"/>
<path d="M17.0076 126.057C-3.49201 103.057 10.6099 74.5549 23.9433 51.5549C32.0592 37.5549 55.4921 18.7214 89.9432 20.557C136.943 23.0611 153.942 61.5574 159.442 94.5574C163.442 96.8907 173.442 102.057 170.442 118.057C167.442 134.057 148.009 145.557 111.509 145.557C75.009 145.557 37.5071 149.057 17.0076 126.057Z" fill="#E49F63"/>
<path d="M159.442 94.5574C163.442 96.8907 173.442 102.057 170.442 118.057C167.442 134.057 148.009 145.557 111.509 145.557C75.009 145.557 37.5071 149.057 17.0076 126.057C-3.49201 103.057 10.6099 74.5549 23.9433 51.5549C32.0592 37.5549 55.4921 18.7214 89.9432 20.557C136.943 23.0611 153.942 61.5574 159.442 94.5574ZM159.442 94.5574C157.109 93.5574 148.942 91.0574 142.442 100.557M50.4423 100.557C57.4423 98.724 71.9423 94.5574 84.4423 107.057" stroke="black" stroke-width="2" stroke-linecap="round"/>
<circle cx="35.9414" cy="30.5574" r="24.5" fill="#E49F63"/>
<circle cx="35.9414" cy="30.5574" r="13.5" fill="#FED2AB" stroke="black" stroke-width="2"/>
<path d="M60.4414 30.5574C60.4414 17.0264 49.4724 6.05737 35.9414 6.05737C22.4104 6.05737 11.4414 17.0264 11.4414 30.5574C11.4414 44.0883 22.4104 55.0574 35.9414 55.0574" stroke="black" stroke-width="2"/>
<ellipse cx="83.3094" cy="89.1529" rx="11.9512" ry="15.3523" transform="rotate(9.38454 83.3094 89.1529)" fill="black"/>
<ellipse cx="86.9759" cy="87.4809" rx="3.79148" ry="4.87045" transform="rotate(9.38454 86.9759 87.4809)" fill="white"/>
<ellipse cx="10.1385" cy="13.0236" rx="10.1385" ry="13.0236" transform="matrix(-0.986616 0.16306 0.16306 0.986616 146.447 71.0574)" fill="black"/>
<ellipse cx="84.0366" cy="72.9211" rx="12.6406" ry="6.89486" transform="rotate(9.38454 84.0366 72.9211)" fill="#FED2AB"/>
<ellipse cx="134.772" cy="71.22" rx="11" ry="6" transform="rotate(-18.3812 134.772 71.22)" fill="#FED2AB"/>
<ellipse cx="138.886" cy="86.1573" rx="3.79148" ry="4.87045" transform="rotate(-8.16564 138.886 86.1573)" fill="white"/>
<ellipse cx="115.441" cy="104.057" rx="24" ry="15" fill="#FED2AB"/>
<path d="M124.941 93.0575C121.741 92.6575 115.941 92.7797 112.441 93.5574C107.941 94.5573 115.941 102.557 120.441 101.557C124.941 100.557 128.941 93.5575 124.941 93.0575Z" fill="black"/>
<ellipse cx="119.441" cy="95.0574" rx="3" ry="1" fill="#D9D9D9"/>
<path d="M120.337 101.057C120.811 104.661 119.579 112.56 118.441 117.057" stroke="black" stroke-width="2" stroke-linecap="round"/>
<path d="M104.84 168.677C96.0398 166.277 81.3398 161.177 66.8398 159.177C64.4398 159.177 60.3398 160.511 59.8398 161.177C74.3398 164.177 82.8398 167.677 97.8398 175.177C99.3398 172.177 102.673 169.844 104.84 168.677Z" fill="white"/>
<path d="M67.8892 158.429C84.6892 160.429 112.223 168.929 123.889 172.929C130.389 177.428 128.389 190.43 117.389 196.43C106.389 202.43 88.8892 195.929 70.8892 188.429C52.8892 180.929 46.8892 155.929 67.8892 158.429Z" fill="#E49F63"/>
<path d="M67.889 158.429C84.689 160.429 112.222 168.929 123.889 172.929C130.389 177.428 128.389 190.43 117.389 196.43C106.389 202.43 88.889 195.929 70.889 188.429C65.3863 186.136 61.005 182.208 58.1738 177.93" stroke="black" stroke-width="2"/>
<path d="M112.585 179.176C108.879 184.175 107.918 190.676 108.585 193.676C111.03 204.678 116.585 194.342 117.085 191.176L119.256 192.176C116.441 195.782 115.875 201.466 120.085 205.676C127.085 212.676 143.085 205.818 147.585 200.676C151.085 196.676 155.585 188.677 145.585 179.177C135.585 169.677 119.256 170.178 112.585 179.176Z" fill="#E49F63"/>
<path d="M112.584 179.176C119.255 170.178 135.584 169.677 145.584 179.177C155.584 188.677 151.084 196.675 147.584 200.675C143.084 205.818 127.084 212.675 120.084 205.675C115.874 201.466 116.441 195.782 119.255 192.175M120.084 191.175C119.79 191.512 119.513 191.844 119.255 192.175M119.255 192.175L117.084 191.175C116.714 193.519 113.574 199.791 110.977 198.43" stroke="black" stroke-width="2" stroke-linecap="round"/>
<ellipse cx="116.084" cy="193.678" rx="5" ry="6.5" fill="black"/>
<ellipse cx="176.389" cy="188.93" rx="5" ry="6.5" fill="black"/>
<path d="M170.585 173.367C166.879 178.366 165.918 184.867 166.585 187.867C169.03 198.869 174.585 188.534 175.085 185.367L177.256 186.367C174.441 189.973 173.875 195.657 178.085 199.867C185.085 206.867 201.085 200.01 205.585 194.867C209.085 190.867 213.585 182.869 203.585 173.369C197.211 167.314 188.265 165.321 180.889 167.003C176.692 167.959 173.004 170.105 170.585 173.367Z" fill="#E49F63"/>
<ellipse cx="174.084" cy="187.678" rx="5" ry="6.5" fill="black"/>
<path d="M203.584 173.369L202.896 174.094L203.584 173.369ZM205.584 194.867L206.337 195.525L205.584 194.867ZM178.837 186.025C179.201 185.61 179.159 184.978 178.743 184.614C178.327 184.25 177.695 184.293 177.332 184.708L178.837 186.025ZM177.255 186.367L178.044 186.982L177.255 186.367ZM175.084 185.367L175.503 184.458L174.303 183.906L174.097 185.211L175.084 185.367ZM180.888 167.002L180.423 167.888C180.634 167.999 180.878 168.03 181.111 167.977L180.888 167.002ZM168.233 192.118C167.681 192.1 167.219 192.533 167.202 193.085C167.184 193.637 167.617 194.099 168.169 194.117L168.233 192.118ZM178.566 164.652C178.078 164.394 177.473 164.582 177.216 165.071C176.959 165.56 177.147 166.165 177.635 166.422L178.566 164.652ZM202.896 174.094C207.726 178.683 208.932 182.775 208.65 186.096C208.364 189.475 206.521 192.278 204.832 194.208L206.337 195.525C208.148 193.455 210.305 190.259 210.643 186.265C210.987 182.212 209.443 177.555 204.273 172.644L202.896 174.094ZM204.832 194.208C202.752 196.585 197.827 199.506 192.509 200.955C187.152 202.416 181.89 202.258 178.791 199.16L177.377 200.574C181.279 204.475 187.517 204.389 193.035 202.885C198.592 201.37 203.917 198.291 206.337 195.525L204.832 194.208ZM178.791 199.16C174.997 195.365 175.486 190.259 178.044 186.982L176.467 185.751C173.396 189.687 172.752 195.949 177.377 200.574L178.791 199.16ZM178.044 186.982C178.289 186.668 178.553 186.349 178.837 186.025L177.332 184.708C177.027 185.057 176.738 185.404 176.467 185.751L178.044 186.982ZM177.674 185.458L175.503 184.458L174.666 186.275L176.837 187.275L177.674 185.458ZM181.111 167.977C188.175 166.367 196.775 168.279 202.896 174.094L204.273 172.644C197.646 166.348 188.355 164.275 180.666 166.027L181.111 167.977ZM174.097 185.211C173.952 186.127 173.27 187.953 172.151 189.528C171.012 191.133 169.65 192.164 168.233 192.118L168.169 194.117C170.627 194.196 172.535 192.442 173.782 190.686C175.051 188.899 175.872 186.788 176.072 185.523L174.097 185.211ZM181.354 166.117L178.566 164.652L177.635 166.422L180.423 167.888L181.354 166.117Z" fill="black"/>
</svg>
