<svg width="180" height="283" viewBox="0 0 180 283" fill="none" xmlns="http://www.w3.org/2000/svg">
<ellipse cx="90" cy="270.5" rx="90" ry="12.5" fill="black" fill-opacity="0.5"/>
<circle cx="40" cy="228" r="15" fill="currentColor" stroke="black" stroke-width="2" stroke-linecap="round"/>
<circle cx="40" cy="228" r="15" stroke="black" stroke-width="2"/>
<path d="M161.614 186.501C157.091 175.194 140.5 146.834 126.5 140.001L128 150C138.509 162.934 149.998 184.285 151.638 201.501C152.027 205.581 151.862 209.43 151 212.879C163 212.879 169.614 206.5 161.614 186.501Z" fill="currentColor"/>
<path d="M126.5 140.001C140.5 146.834 157.091 175.194 161.614 186.501C169.614 206.5 163 212.879 151 212.879C151.862 209.43 152.027 205.581 151.638 201.501M128 150C138.509 162.934 149.998 184.285 151.638 201.501M155 196C154.092 196.334 152.149 197.901 151.638 201.501" stroke="black" stroke-width="2" stroke-linecap="round"/>
<path d="M110 267.5H141.5C150 267.5 148 253.336 141.5 251.5L145.5 222C137.03 230.921 122.276 233.241 104.5 232.5L100.5 237C100.5 248.5 103.5 267.5 110 267.5Z" fill="currentColor"/>
<path d="M56.0002 144C65.9814 145 94.5004 139.357 104.5 139C115.7 138.601 126.5 140.001 126.5 140.001L128 150C138.509 162.934 149.998 184.284 151.639 201.5C152.027 205.581 151.863 209.43 151 212.879C149.444 217.443 145.5 222 145.5 222L141.5 251.5C148 253.336 150 267.5 141.5 267.5H110C103.5 267.5 100.5 248.5 100.5 237C100.5 237 94.5004 244.836 92.0004 251.336C100.5 254.836 100.5 267.5 89.5004 267.5C78.5004 267.5 78.0004 268 55.0192 267.5C42.241 267.222 44.0004 222 44.0004 222C44.0004 222 36.5002 217.5 36.5 203.5C39.2687 185.481 53.6031 151.757 56.0002 144Z" fill="currentColor"/>
<path d="M126.5 140.001C126.5 140.001 115.7 138.601 104.5 139C94.5004 139.357 65.9814 145 56.0002 144C53.6031 151.757 39.2687 185.481 36.5 203.5C36.5002 217.5 44.0004 222 44.0004 222C44.0004 222 42.241 267.222 55.0192 267.5C78.0004 268 78.5004 267.5 89.5004 267.5C100.5 267.5 100.5 254.836 92.0004 251.336M128 150C138.509 162.934 149.998 184.284 151.639 201.5C152.027 205.581 151.863 209.43 151 212.879C149.444 217.443 145.5 222 145.5 222M89.5004 228C89.5004 228 94.0004 232.5 104.5 232.5M78.5004 251.5C88.5004 249.664 92.0004 251.336 92.0004 251.336M92.0004 251.336C94.5004 244.836 100.5 237 100.5 237M104.5 232.5L100.5 237M104.5 232.5C122.276 233.241 137.03 230.921 145.5 222M141.5 251.5C136 249.336 129.5 251.336 129.5 251.336M141.5 251.5C148 253.336 150 267.5 141.5 267.5H110C103.5 267.5 100.5 248.5 100.5 237M141.5 251.5L145.5 222" stroke="black" stroke-width="2" stroke-linecap="round"/>
<path d="M10.0215 203.526C9.0658 178.2 43.0267 150.149 53.5 146.501C63.9734 142.854 74.5299 149.651 64.9731 159.325C55.4163 169 52.0316 189.241 52.4298 195.836C56.0554 196.181 60.0475 197.864 60.792 202.331C61.7477 208.065 57.6064 209.897 55.4163 210.096C56.6109 211.49 58.5223 215.83 56.6109 222.042C55.7572 224.817 49.7179 227.286 42.2532 227.87C28.8268 228.921 10.7892 223.871 10.0215 203.526Z" fill="currentColor"/>
<path d="M54.5 146.001C39.5675 153.965 9.06626 178.2 10.0219 203.526C10.7897 223.871 28.8273 228.92 42.2536 227.87C49.7183 227.286 55.0479 224.488 56.6114 222.042C60.7925 215.501 56.6114 211.49 55.4167 210.096M55.4167 210.096C53.6248 209.897 50.1605 210.454 50.6383 214.277M55.4167 210.096C57.6069 209.897 61.7481 208.065 60.7925 202.331C60.048 197.864 56.0559 196.181 52.4302 195.836M47.0545 196.358C48.1799 195.908 50.2381 195.627 52.4302 195.836M52.4302 195.836C52.032 189.241 53.9832 172.705 64.9736 159.325" stroke="black" stroke-width="2" stroke-linecap="round"/>
</svg>