<svg width="360" height="340" viewBox="0 0 360 340" fill="none" xmlns="http://www.w3.org/2000/svg">
<ellipse cx="136.402" cy="291.372" rx="90" ry="12.5" fill="black" fill-opacity="0.5"/>
<circle cx="87.7471" cy="248.497" r="15" fill="currentColor" stroke="black" stroke-width="2" stroke-linecap="round"/>
<circle cx="87.7471" cy="248.497" r="15" stroke="black" stroke-width="2"/>
<path d="M198.747 233.376C210.747 233.376 217.361 226.997 209.361 206.997C205.466 197.259 192.617 174.869 180.182 164.48C177.728 164.917 175.105 165.292 171.956 165.375L175.456 169.5C185.965 182.434 197.745 204.781 199.385 221.997C199.774 226.078 199.609 229.927 198.747 233.376Z" fill="currentColor"/>
<path d="M175.747 170.497C186.256 183.431 197.745 204.781 199.385 221.997M202.747 216.497C201.839 216.831 199.896 218.398 199.385 221.997M199.385 221.997C199.774 226.078 199.609 229.927 198.747 233.376C210.747 233.376 217.361 226.997 209.361 206.997C205.428 197.164 192.898 174.869 180.351 164.617" stroke="black" stroke-width="2" stroke-linecap="round"/>
<path d="M157.748 287.997H189.248C197.748 287.997 195.748 273.833 189.248 271.997L193.248 242.497C184.777 251.418 170.023 253.737 152.248 252.997L148.248 257.497C148.248 268.996 151.248 287.997 157.748 287.997Z" fill="currentColor"/>
<path d="M104.875 164.842C115.368 166.866 143.818 166.398 153.818 166.041C165.019 165.642 175.33 165.442 175.33 165.442L175.747 170.497C186.256 183.431 197.746 204.781 199.386 221.997C199.774 226.078 199.61 229.926 198.747 233.376C197.191 237.94 193.247 242.497 193.247 242.497L189.247 271.997C195.747 273.833 197.747 287.997 189.247 287.997H157.747C151.247 287.997 148.247 268.996 148.247 257.497C148.247 257.497 142.247 265.333 139.747 271.833C148.247 275.333 148.247 287.997 137.247 287.997C126.247 287.997 125.747 288.497 102.766 287.997C89.9881 287.719 91.7475 242.497 91.7475 242.497C91.7475 242.497 84.2473 237.997 84.2471 223.997C87.0158 205.977 102.478 172.599 104.875 164.842Z" fill="currentColor"/>
<path d="M175.747 170.497C186.256 183.431 197.746 204.781 199.386 221.997C199.774 226.078 199.61 229.926 198.747 233.376C197.191 237.94 193.247 242.497 193.247 242.497M137.247 248.497C137.247 248.497 141.747 252.997 152.247 252.997M126.247 271.997C136.247 270.161 139.747 271.833 139.747 271.833M139.747 271.833C148.247 275.333 148.247 287.997 137.247 287.997C126.247 287.997 125.747 288.497 102.766 287.997C89.9881 287.719 91.7475 242.497 91.7475 242.497C91.7475 242.497 84.2473 237.997 84.2471 223.997C87.0158 205.977 101.054 172.823 103.451 165.067C113.432 166.066 140.555 166.591 150.555 166.234C161.755 165.835 165.238 166.315 175.081 165.186C177.162 164.947 180.406 164.54 180.406 164.54M139.747 271.833C142.247 265.333 148.247 257.497 148.247 257.497M152.247 252.997L148.247 257.497M152.247 252.997C170.023 253.737 184.777 251.418 193.247 242.497M189.247 271.997C183.747 269.833 177.247 271.833 177.247 271.833M189.247 271.997C195.747 273.833 197.747 287.997 189.247 287.997H157.747C151.247 287.997 148.247 268.996 148.247 257.497M189.247 271.997L193.247 242.497" stroke="black" stroke-width="2" stroke-linecap="round"/>
<path d="M57.7688 224.023C56.8131 198.697 90.774 170.645 101.247 166.998C103.493 166.216 103.376 165.891 105.025 164.992C102.102 172.712 107.274 174.886 112.72 179.822C103.164 189.497 99.7789 209.738 100.177 216.333C103.803 216.678 107.795 218.361 108.539 222.828C109.495 228.562 105.354 230.394 103.164 230.593C104.358 231.987 106.27 236.327 104.358 242.539C103.505 245.313 97.4652 247.783 90.0005 248.367C76.5741 249.417 58.5365 244.368 57.7688 224.023Z" fill="currentColor"/>
<path d="M103.164 230.592C104.358 231.986 108.54 235.997 104.358 242.539C102.795 244.984 97.4654 247.783 90.0007 248.367C76.5743 249.417 58.5368 244.368 57.769 224.022C56.8133 198.697 87.3145 174.461 102.247 166.497L104.575 165.142M103.164 230.592C101.372 230.393 97.9076 230.951 98.3854 234.774M103.164 230.592C105.354 230.393 109.495 228.562 108.54 222.828C107.795 218.361 103.803 216.678 100.177 216.333M94.8016 216.855C95.9269 216.404 97.9851 216.124 100.177 216.333M100.177 216.333C99.7791 209.737 101.73 193.201 112.721 179.822" stroke="black" stroke-width="2" stroke-linecap="round"/>
</svg>
