<svg width="361" height="340" viewBox="0 0 361 340" fill="none" xmlns="http://www.w3.org/2000/svg">
<path d="M184.342 171.644C203.244 177.579 225.401 183.722 228.467 188.145C221.842 189.457 213.217 191.77 212.717 206.27C212.59 209.958 213.331 212.57 214.486 214.424C216.41 214.555 221.357 214.378 221.699 215.147C221.972 215.762 223.065 218.022 223.577 219.076C220.503 219.93 211.249 217.775 206.111 216.492C203.264 215.781 200.984 215.177 198.456 214.193C198.69 211.62 198.737 209.282 197.333 206.474C195.577 202.785 194.133 202.164 193.017 200.392C187.276 187.553 180.106 177.612 176.729 174.047C176.604 171.797 176.588 170.796 176.592 169.895C178.689 170.157 182.006 170.911 184.342 171.644Z" fill="#F02E44"/>
<path d="M223.577 219.076C220.503 219.93 211.249 217.775 206.111 216.492C203.264 215.781 200.984 215.177 198.456 214.193C198.69 211.62 198.737 209.282 197.333 206.474C195.577 202.785 194.133 202.164 193.017 200.392C187.276 187.553 180.106 177.612 176.729 174.047C176.604 171.797 176.588 170.796 176.592 169.895C178.689 170.157 182.006 170.911 184.342 171.644C203.244 177.579 225.401 183.722 228.467 188.145C221.842 189.457 213.217 191.77 212.717 206.27C212.59 209.958 213.331 212.57 214.486 214.424M223.577 219.076C223.065 218.022 221.972 215.762 221.699 215.147C221.357 214.378 216.41 214.555 214.486 214.424M223.577 219.076C222.257 218.956 217.216 218.81 214.486 214.424" stroke="black" stroke-width="2"/>
<path fill-rule="evenodd" clip-rule="evenodd" d="M197.993 215.91C197.212 218.379 195.771 220.422 194.468 221.911C189.968 227.054 173.968 233.911 166.968 226.911C165.251 225.195 164.328 223.233 164.029 221.267C163.687 221.363 163.331 221.414 162.967 221.414C161.633 221.414 160.42 220.734 159.524 219.627C158.025 220.364 156.48 219.466 155.468 214.911C154.801 211.911 155.762 205.41 159.468 200.412C166.138 191.414 182.468 190.913 192.468 200.413C192.824 200.752 193.163 201.089 193.483 201.424C187.696 186.62 180.3 178.476 173.543 171.036C172.482 169.867 171.437 168.716 170.416 167.559C166.751 172.559 159.16 175.559 150.559 176.059C134.326 176.424 101.467 168.77 101.608 167.559C101.608 167.559 92.4668 189.52 83.4677 225.895C81.7168 258.645 144.255 257.188 168.968 253.52C199.813 248.941 201.389 230.658 197.993 215.91Z" fill="#EA343C"/>
<path d="M197.993 215.91L198.967 215.686L198.144 212.113L197.039 215.609L197.993 215.91ZM194.468 221.911L193.715 221.253L194.468 221.911ZM166.968 226.911L167.675 226.204L166.968 226.911ZM164.029 221.267L165.017 221.116L164.847 219.998L163.758 220.304L164.029 221.267ZM159.524 219.627L160.301 218.998L159.799 218.378L159.083 218.73L159.524 219.627ZM155.468 214.911L154.491 215.128L155.468 214.911ZM159.468 200.412L158.664 199.816L159.468 200.412ZM192.468 200.413L193.156 199.688L192.468 200.413ZM193.483 201.424L192.761 202.116L194.415 201.06L193.483 201.424ZM173.543 171.036L174.284 170.364L173.543 171.036ZM170.416 167.559L171.166 166.898L170.344 165.966L169.609 166.968L170.416 167.559ZM150.559 176.059L150.582 177.059L150.599 177.058L150.617 177.057L150.559 176.059ZM101.608 167.559L102.601 167.675L100.684 167.175L101.608 167.559ZM83.4677 225.895L82.4969 225.655L82.4742 225.747L82.4691 225.841L83.4677 225.895ZM168.968 253.52L168.821 252.531L168.968 253.52ZM197.039 215.609C196.315 217.898 194.967 219.822 193.715 221.253L195.22 222.57C196.574 221.022 198.109 218.86 198.946 216.212L197.039 215.609ZM193.715 221.253C191.635 223.63 186.71 226.55 181.392 228C176.035 229.46 170.773 229.302 167.675 226.204L166.26 227.618C170.162 231.52 176.4 231.434 181.918 229.93C187.475 228.415 192.8 225.336 195.22 222.57L193.715 221.253ZM167.675 226.204C166.107 224.637 165.285 222.869 165.017 221.116L163.04 221.417C163.372 223.596 164.394 225.752 166.26 227.618L167.675 226.204ZM163.758 220.304C163.502 220.376 163.238 220.414 162.967 220.414V222.414C163.425 222.414 163.871 222.35 164.299 222.229L163.758 220.304ZM162.967 220.414C161.994 220.414 161.049 219.921 160.301 218.998L158.747 220.256C159.792 221.548 161.272 222.414 162.967 222.414V220.414ZM159.083 218.73C158.84 218.849 158.665 218.869 158.538 218.851C158.419 218.834 158.245 218.772 158.021 218.547C157.53 218.055 156.94 216.928 156.444 214.694L154.491 215.128C155.007 217.449 155.696 219.049 156.605 219.96C157.081 220.437 157.639 220.745 158.262 220.832C158.878 220.918 159.458 220.774 159.965 220.525L159.083 218.73ZM156.444 214.694C156.155 213.393 156.201 211.18 156.801 208.641C157.396 206.122 158.513 203.378 160.271 201.007L158.664 199.816C156.716 202.444 155.5 205.45 154.855 208.181C154.214 210.892 154.114 213.43 154.491 215.128L156.444 214.694ZM160.271 201.007C163.374 196.821 168.791 194.536 174.729 194.476C180.656 194.416 186.981 196.58 191.779 201.138L193.156 199.688C187.954 194.746 181.115 192.411 174.709 192.476C168.315 192.54 162.232 195.004 158.664 199.816L160.271 201.007ZM191.779 201.138C192.125 201.467 192.452 201.792 192.761 202.116L194.206 200.733C193.874 200.386 193.524 200.038 193.156 199.688L191.779 201.138ZM194.415 201.06C188.558 186.078 181.056 177.821 174.284 170.364L172.803 171.708C179.544 179.13 186.835 187.163 192.552 201.788L194.415 201.06ZM174.284 170.364C173.222 169.194 172.181 168.048 171.166 166.898L169.666 168.221C170.693 169.384 171.743 170.54 172.803 171.708L174.284 170.364ZM169.609 166.968C166.2 171.62 158.97 174.568 150.501 175.061L150.617 177.057C159.351 176.549 167.303 173.498 171.222 168.15L169.609 166.968ZM150.537 175.059C142.537 175.239 130.356 173.437 120.137 171.419C115.04 170.412 110.46 169.358 107.171 168.483C105.523 168.044 104.218 167.655 103.338 167.344C102.893 167.186 102.59 167.06 102.415 166.97C102.321 166.921 102.311 166.907 102.339 166.93C102.353 166.942 102.413 166.995 102.474 167.091C102.535 167.19 102.633 167.397 102.601 167.675L100.614 167.444C100.578 167.759 100.688 168.007 100.777 168.15C100.864 168.29 100.968 168.39 101.04 168.452C101.185 168.575 101.353 168.672 101.497 168.746C101.795 168.901 102.2 169.063 102.671 169.23C103.625 169.567 104.99 169.972 106.657 170.416C109.997 171.305 114.62 172.368 119.749 173.381C129.983 175.402 142.348 177.244 150.582 177.059L150.537 175.059ZM101.608 167.559C100.684 167.175 100.684 167.175 100.684 167.175C100.684 167.175 100.684 167.176 100.684 167.176C100.684 167.177 100.683 167.178 100.682 167.18C100.681 167.183 100.679 167.187 100.677 167.193C100.672 167.204 100.666 167.22 100.657 167.242C100.638 167.286 100.612 167.351 100.577 167.437C100.507 167.609 100.403 167.865 100.268 168.204C99.9988 168.88 99.6047 169.885 99.1039 171.204C98.1024 173.841 96.6746 177.734 94.9655 182.765C91.5474 192.825 87.0041 207.436 82.4969 225.655L84.4384 226.135C88.9303 207.978 93.457 193.422 96.8592 183.408C98.5602 178.401 99.98 174.531 100.974 171.914C101.47 170.605 101.861 169.61 102.126 168.944C102.259 168.611 102.361 168.359 102.429 168.192C102.463 168.108 102.489 168.046 102.506 168.004C102.514 167.983 102.521 167.968 102.525 167.958C102.527 167.953 102.529 167.949 102.53 167.947C102.53 167.945 102.53 167.944 102.531 167.944C102.531 167.944 102.531 167.944 102.531 167.943C102.531 167.943 102.531 167.943 101.608 167.559ZM82.4691 225.841C82.0107 234.415 85.7893 240.769 92.021 245.349C98.2035 249.893 106.804 252.702 116.12 254.349C134.766 257.645 156.694 256.353 169.115 254.509L168.821 252.531C156.529 254.355 134.832 255.625 116.468 252.379C107.279 250.755 99.0286 248.017 93.2053 243.738C87.4313 239.494 84.0492 233.749 84.4662 225.948L82.4691 225.841ZM169.115 254.509C184.72 252.193 193.17 246.366 197.198 239.009C201.199 231.7 200.685 223.145 198.967 215.686L197.018 216.135C198.697 223.423 199.093 231.383 195.444 238.048C191.822 244.664 184.061 250.268 168.821 252.531L169.115 254.509Z" fill="black"/>
<path d="M118.828 243.561C128.209 244.498 148.532 248.092 158.949 244.812C159.658 240.402 154.803 227.867 152.967 212.707C151.422 199.951 153.115 184.898 151.131 175.62C144.621 172.771 135.503 171.014 124.432 169.06C117.295 175.62 112.325 190.744 109.199 204.098C99.8209 245.176 101.116 240.127 118.828 243.561Z" fill="#EA343C" stroke="black" stroke-width="2"/>
<path d="M134.738 230.186C135.009 229.822 135.425 229.199 135.718 228.469C136.208 227.247 136.462 225.435 134.946 223.942L134.946 223.942C133.477 222.496 131.745 222.616 130.53 223.022C129.927 223.224 129.417 223.502 129.061 223.726C129.011 223.758 128.963 223.789 128.918 223.818C128.603 223.728 128.287 223.659 127.971 223.611C127.443 223.497 126.849 223.459 126.415 223.446C126.185 223.439 125.985 223.439 125.842 223.441C125.77 223.442 125.713 223.443 125.672 223.444L125.623 223.446L125.618 223.446C125.299 223.45 124.976 223.474 124.652 223.519C124.611 223.483 124.568 223.446 124.522 223.407C124.202 223.136 123.736 222.789 123.167 222.506C122.022 221.936 120.324 221.577 118.664 222.806C116.953 224.074 116.948 225.904 117.26 227.182C117.446 227.943 117.758 228.601 117.985 229.016C117.939 229.122 117.866 229.234 117.752 229.37C117.634 229.511 117.534 229.613 117.411 229.739C117.313 229.839 117.2 229.954 117.052 230.115C116.45 230.771 115.822 231.659 115.714 233.169C115.608 234.66 116.062 236.09 117.147 237.177C118.219 238.251 119.815 238.897 121.832 239.038L122.941 239.115C123.022 239.194 123.118 239.279 123.23 239.365C123.629 239.672 124.225 239.99 125.028 240.082C125.042 240.084 125.06 240.086 125.081 240.089C125.129 240.095 125.195 240.103 125.281 240.112C125.451 240.129 125.697 240.148 126.03 240.16C126.885 240.216 127.56 239.987 128.028 239.73C128.168 239.652 128.29 239.573 128.392 239.498L129.496 239.575C131.513 239.715 133.185 239.296 134.399 238.381C135.626 237.456 136.279 236.104 136.386 234.614C136.5 233.106 136.007 232.14 135.505 231.405C135.381 231.224 135.286 231.094 135.203 230.981C135.1 230.84 135.016 230.726 134.919 230.57C134.825 230.418 134.769 230.297 134.738 230.186ZM127.795 224.595L127.797 224.57L127.803 224.543L127.795 224.595Z" fill="#FAF87D" stroke="black" stroke-width="2"/>
<path fill-rule="evenodd" clip-rule="evenodd" d="M158.401 219.842C159.257 230.296 159.611 239.052 159.703 243.844C159.713 244.368 160.123 244.794 160.648 244.813C173.338 245.272 186.663 240.206 193.386 234.145C196.386 230.835 200.327 226.351 198.171 215.293C197.45 218.039 195.878 220.3 194.468 221.911C189.968 227.054 173.968 233.911 166.968 226.911C165.251 225.195 164.328 223.233 164.029 221.267C163.686 221.363 163.331 221.414 162.967 221.414C161.633 221.414 160.42 220.734 159.524 219.627C159.149 219.811 158.772 219.893 158.401 219.842ZM156.926 204.975C157.564 203.409 158.402 201.848 159.468 200.412C166.138 191.414 182.468 190.913 192.468 200.413C192.862 200.788 193.234 201.16 193.584 201.53C193.087 200.401 192.548 199.232 191.966 198.02C185.889 186.395 181.267 178.31 168.306 168.31C165.059 170.083 162.504 170.681 160.136 171.235C157.382 171.878 154.879 172.464 151.83 174.77C154.099 184.356 155.744 194.926 156.926 204.975Z" fill="#EA343C"/>
<path d="M159.703 243.844L160.702 243.825L159.703 243.844ZM158.401 219.842L158.538 218.851L157.302 218.679L157.404 219.923L158.401 219.842ZM160.648 244.813L160.684 243.814H160.684L160.648 244.813ZM193.386 234.145L194.056 234.887L194.093 234.853L194.127 234.816L193.386 234.145ZM198.171 215.293L199.153 215.101L197.204 215.039L198.171 215.293ZM194.468 221.911L195.22 222.57H195.22L194.468 221.911ZM166.968 226.911L167.675 226.204L166.968 226.911ZM164.029 221.267L165.017 221.116L164.847 219.998L163.758 220.304L164.029 221.267ZM159.524 219.627L160.301 218.998L159.799 218.378L159.083 218.73L159.524 219.627ZM156.926 204.975L155.933 205.092L157.852 205.353L156.926 204.975ZM159.468 200.412L160.271 201.007L159.468 200.412ZM192.468 200.413L193.156 199.688V199.688L192.468 200.413ZM193.584 201.53L192.858 202.218L194.499 201.127L193.584 201.53ZM191.966 198.02L192.867 197.587L192.86 197.571L192.852 197.556L191.966 198.02ZM168.306 168.31L168.917 167.518L168.4 167.119L167.827 167.432L168.306 168.31ZM160.136 171.235L159.908 170.261L160.136 171.235ZM151.83 174.77L151.227 173.972L150.707 174.366L150.857 175L151.83 174.77ZM160.702 243.825C160.611 239.012 160.256 230.235 159.397 219.76L157.404 219.923C158.259 230.357 158.612 239.092 158.703 243.863L160.702 243.825ZM160.684 243.814C160.684 243.814 160.685 243.814 160.687 243.814C160.688 243.815 160.69 243.815 160.692 243.816C160.696 243.818 160.698 243.82 160.7 243.821C160.701 243.822 160.702 243.824 160.702 243.825C160.703 243.827 160.703 243.827 160.702 243.825L158.703 243.863C158.723 244.907 159.546 245.774 160.612 245.813L160.684 243.814ZM192.716 233.402C186.207 239.271 173.143 244.265 160.684 243.814L160.612 245.813C173.533 246.28 187.119 241.141 194.056 234.887L192.716 233.402ZM197.19 215.484C198.24 220.87 197.789 224.563 196.775 227.274C195.757 229.996 194.141 231.823 192.645 233.473L194.127 234.816C195.631 233.156 197.485 231.086 198.649 227.975C199.817 224.851 200.259 220.773 199.153 215.101L197.19 215.484ZM197.204 215.039C196.537 217.578 195.071 219.703 193.715 221.253L195.22 222.57C196.684 220.897 198.363 218.5 199.138 215.547L197.204 215.039ZM193.715 221.253C191.635 223.63 186.71 226.55 181.392 228C176.035 229.46 170.773 229.302 167.675 226.204L166.26 227.618C170.162 231.52 176.4 231.434 181.918 229.93C187.475 228.415 192.8 225.336 195.22 222.57L193.715 221.253ZM167.675 226.204C166.107 224.637 165.285 222.869 165.017 221.116L163.04 221.417C163.372 223.596 164.394 225.752 166.26 227.618L167.675 226.204ZM163.758 220.304C163.502 220.376 163.238 220.414 162.967 220.414V222.414C163.425 222.414 163.871 222.35 164.299 222.229L163.758 220.304ZM162.967 220.414C161.994 220.414 161.049 219.921 160.301 218.998L158.747 220.256C159.792 221.548 161.272 222.414 162.967 222.414V220.414ZM159.083 218.73C158.84 218.849 158.665 218.869 158.538 218.851L158.263 220.832C158.879 220.918 159.458 220.774 159.965 220.525L159.083 218.73ZM157.852 205.353C158.463 203.854 159.262 202.368 160.271 201.007L158.664 199.816C157.543 201.329 156.665 202.965 156 204.598L157.852 205.353ZM160.271 201.007C163.374 196.821 168.791 194.536 174.729 194.476C180.656 194.416 186.981 196.58 191.779 201.138L193.156 199.688C187.954 194.746 181.115 192.411 174.709 192.476C168.315 192.54 162.232 195.004 158.664 199.816L160.271 201.007ZM191.779 201.138C192.161 201.501 192.52 201.861 192.858 202.218L194.31 200.842C193.947 200.459 193.563 200.074 193.156 199.688L191.779 201.138ZM191.065 198.453C191.643 199.656 192.176 200.815 192.669 201.933L194.499 201.127C193.997 199.988 193.454 198.808 192.867 197.587L191.065 198.453ZM167.695 169.102C180.49 178.973 185.03 186.911 191.08 198.483L192.852 197.556C186.748 185.878 182.045 177.647 168.917 167.518L167.695 169.102ZM160.363 172.208C162.747 171.651 165.412 171.03 168.785 169.188L167.827 167.432C164.705 169.137 162.262 169.71 159.908 170.261L160.363 172.208ZM152.433 175.568C155.304 173.396 157.63 172.848 160.363 172.208L159.908 170.261C157.134 170.909 154.454 171.531 151.227 173.972L152.433 175.568ZM157.919 204.859C156.735 194.787 155.084 184.176 152.803 174.54L150.857 175C153.114 184.536 154.754 195.065 155.933 205.092L157.919 204.859Z" fill="black"/>
<path fill-rule="evenodd" clip-rule="evenodd" d="M149.68 175.553C151.603 199.116 154.933 245.883 154.234 246.077C153.359 246.32 164.693 245.255 166.967 244.77C167.718 244.609 167.479 236.926 166.735 226.672C165.167 225.014 164.315 223.142 164.029 221.267C163.687 221.363 163.331 221.414 162.967 221.414C161.633 221.414 160.42 220.734 159.524 219.627C158.025 220.364 156.48 219.466 155.468 214.911C154.801 211.911 155.762 205.41 159.468 200.412C160.655 198.81 162.149 197.477 163.858 196.422C162.431 184.122 160.911 174.215 159.997 173.852C158.039 173.075 152.303 174.662 149.68 175.553Z" fill="#FAF87D"/>
<path d="M154.234 246.077L154.501 247.041L154.234 246.077ZM149.68 175.553L149.358 174.606L148.62 174.856L148.683 175.634L149.68 175.553ZM166.967 244.77L167.176 245.747H167.176L166.967 244.77ZM166.735 226.672L167.733 226.6L167.707 226.244L167.462 225.985L166.735 226.672ZM164.029 221.267L165.017 221.116L164.847 219.998L163.758 220.304L164.029 221.267ZM159.524 219.627L160.301 218.998L159.799 218.378L159.083 218.73L159.524 219.627ZM155.468 214.911L154.491 215.128L155.468 214.911ZM159.468 200.412L158.664 199.816L159.468 200.412ZM163.858 196.422L164.383 197.273L164.925 196.939L164.852 196.307L163.858 196.422ZM159.997 173.852L159.628 174.782V174.782L159.997 173.852ZM154.501 247.041C154.826 246.95 155.002 246.733 155.071 246.634C155.147 246.524 155.187 246.422 155.207 246.366C155.247 246.251 155.266 246.141 155.277 246.072C155.299 245.921 155.311 245.739 155.318 245.55C155.333 245.161 155.332 244.613 155.318 243.937C155.289 242.578 155.209 240.631 155.087 238.238C154.842 233.45 154.431 226.843 153.938 219.511C152.952 204.845 151.639 187.258 150.676 175.471L148.683 175.634C149.644 187.41 150.957 204.988 151.943 219.645C152.435 226.974 152.846 233.568 153.089 238.34C153.211 240.728 153.29 242.65 153.318 243.978C153.332 244.645 153.332 245.145 153.32 245.474C153.313 245.644 153.305 245.738 153.299 245.777C153.295 245.803 153.298 245.766 153.32 245.702C153.331 245.672 153.362 245.589 153.428 245.494C153.487 245.409 153.652 245.201 153.966 245.114L154.501 247.041ZM166.758 243.792C165.689 244.02 162.354 244.403 159.322 244.701C157.822 244.849 156.424 244.974 155.46 245.046C154.973 245.083 154.613 245.105 154.407 245.111C154.268 245.115 154.287 245.108 154.359 245.119C154.377 245.122 154.411 245.128 154.453 245.139C154.487 245.148 154.574 245.173 154.676 245.229C154.751 245.271 155.019 245.431 155.136 245.789C155.279 246.225 155.087 246.573 154.964 246.726C154.853 246.863 154.733 246.934 154.695 246.956C154.643 246.987 154.6 247.005 154.578 247.014C154.535 247.031 154.504 247.04 154.501 247.041L153.966 245.114C153.936 245.122 153.884 245.137 153.825 245.161C153.796 245.173 153.746 245.195 153.689 245.228C153.646 245.253 153.523 245.327 153.41 245.466C153.284 245.622 153.092 245.972 153.235 246.41C153.353 246.771 153.624 246.933 153.702 246.976C153.877 247.074 154.042 247.094 154.057 247.096C154.2 247.118 154.374 247.113 154.466 247.11C154.722 247.103 155.121 247.077 155.61 247.041C156.595 246.967 158.01 246.84 159.518 246.692C162.503 246.398 165.971 246.005 167.176 245.747L166.758 243.792ZM165.738 226.745C166.11 231.866 166.354 236.329 166.412 239.524C166.441 241.127 166.423 242.384 166.355 243.237C166.321 243.671 166.277 243.955 166.235 244.115C166.213 244.199 166.205 244.195 166.232 244.15C166.244 244.129 166.392 243.87 166.758 243.792L167.176 245.747C167.635 245.649 167.87 245.311 167.96 245.155C168.066 244.975 168.129 244.78 168.171 244.618C168.257 244.287 168.312 243.865 168.349 243.395C168.424 242.443 168.441 241.108 168.411 239.488C168.352 236.238 168.105 231.733 167.733 226.6L165.738 226.745ZM167.462 225.985C166.033 224.474 165.272 222.789 165.017 221.116L163.04 221.417C163.357 223.495 164.301 225.553 166.009 227.359L167.462 225.985ZM163.758 220.304C163.502 220.376 163.238 220.414 162.967 220.414V222.414C163.425 222.414 163.871 222.35 164.299 222.229L163.758 220.304ZM162.967 220.414C161.994 220.414 161.049 219.921 160.301 218.998L158.747 220.256C159.792 221.548 161.272 222.414 162.967 222.414V220.414ZM159.083 218.73C158.84 218.849 158.665 218.869 158.538 218.851C158.419 218.834 158.245 218.772 158.021 218.547C157.53 218.055 156.94 216.928 156.444 214.694L154.491 215.128C155.007 217.449 155.696 219.049 156.605 219.96C157.081 220.437 157.639 220.745 158.262 220.832C158.878 220.918 159.458 220.774 159.965 220.525L159.083 218.73ZM156.444 214.694C156.155 213.393 156.201 211.18 156.801 208.641C157.396 206.122 158.513 203.378 160.271 201.007L158.664 199.816C156.716 202.444 155.5 205.45 154.855 208.181C154.214 210.892 154.114 213.43 154.491 215.128L156.444 214.694ZM160.271 201.007C161.377 199.515 162.773 198.267 164.383 197.273L163.333 195.571C161.525 196.687 159.934 198.104 158.664 199.816L160.271 201.007ZM159.628 174.782C159.384 174.685 159.301 174.519 159.336 174.573C159.348 174.592 159.384 174.657 159.439 174.793C159.545 175.06 159.673 175.474 159.815 176.045C160.099 177.177 160.414 178.802 160.749 180.824C161.417 184.86 162.152 190.394 162.865 196.538L164.852 196.307C164.137 190.151 163.398 184.58 162.722 180.497C162.384 178.459 162.059 176.771 161.755 175.559C161.605 174.958 161.452 174.442 161.296 174.05C161.218 173.857 161.127 173.659 161.016 173.488C160.927 173.351 160.725 173.065 160.366 172.923L159.628 174.782ZM150.001 176.499C151.284 176.064 153.332 175.457 155.288 175.056C156.267 174.856 157.2 174.712 157.99 174.663C158.815 174.611 159.354 174.673 159.628 174.782L160.366 172.923C159.661 172.643 158.749 172.611 157.865 172.667C156.947 172.724 155.915 172.887 154.887 173.097C152.83 173.518 150.699 174.15 149.358 174.606L150.001 176.499Z" fill="black"/>
<mask id="mask0_1521_14654" style="mask-type:alpha" maskUnits="userSpaceOnUse" x="93" y="174" width="97" height="30">
<path fill-rule="evenodd" clip-rule="evenodd" d="M104.21 175.32C115.225 177.287 131.853 180.257 150.03 179.272C170.436 178.167 175.555 175.437 177.261 174.47C178.414 176.484 180.12 179.28 181.893 182.185C184.946 187.188 188.195 192.513 189.148 194.717C188.356 195.197 187.447 195.69 186.424 196.186C176.802 191.383 164.915 193.064 159.468 200.412C158.782 201.337 158.19 202.313 157.685 203.309C140.83 204.894 118.734 203.421 93.1406 194.65C94.2214 189.686 98.631 177.965 100.024 174.583C101.308 174.802 102.707 175.052 104.21 175.32Z" fill="#D9D9D9"/>
</mask>
<g mask="url(#mask0_1521_14654)">
<rect width="9.97414" height="9.8567" transform="matrix(0.997884 -0.0650204 0.0665858 0.997781 141.482 166.049)" fill="white"/>
<rect width="9.97414" height="9.8567" transform="matrix(0.997884 -0.0650204 0.0665858 0.997781 161.32 164.758)" fill="white"/>
<rect width="9.97414" height="9.8567" transform="matrix(0.997884 -0.0650204 0.0665858 0.997781 101.801 168.637)" fill="white"/>
<rect width="9.97414" height="9.8567" transform="matrix(0.997884 -0.0650204 0.0665858 0.997781 121.641 167.344)" fill="white"/>
<rect width="9.97414" height="9.8567" transform="matrix(0.997884 -0.0650204 0.0665858 0.997781 151.367 165.407)" fill="black"/>
<rect width="9.97414" height="9.8567" transform="matrix(0.997884 -0.0650204 0.0665858 0.997781 91.8477 169.286)" fill="black"/>
<rect width="9.97414" height="9.8567" transform="matrix(0.997884 -0.0650204 0.0665858 0.997781 111.689 167.993)" fill="black"/>
<rect width="9.97414" height="9.8567" transform="matrix(0.997884 -0.0650204 0.0665858 0.997781 131.527 166.7)" fill="black"/>
<rect width="9.97414" height="9.8567" transform="matrix(0.997884 -0.0650204 0.0665858 0.997781 162.709 184.357)" fill="white"/>
<rect width="9.97414" height="9.8567" transform="matrix(0.997884 -0.0650204 0.0665858 0.997781 103.189 188.236)" fill="white"/>
<rect width="9.97414" height="9.8567" transform="matrix(0.997884 -0.0650204 0.0665858 0.997781 83.3496 189.418)" fill="white"/>
<rect width="9.97414" height="9.8567" transform="matrix(0.997884 -0.0650204 0.0665858 0.997781 182.549 183.066)" fill="white"/>
<rect width="9.97414" height="9.8567" transform="matrix(0.997884 -0.0650204 0.0665858 0.997781 123.029 186.943)" fill="white"/>
<rect width="9.97414" height="9.8567" transform="matrix(0.997884 -0.0650204 0.0665858 0.997781 142.869 185.65)" fill="white"/>
<rect width="9.97414" height="9.8567" transform="matrix(0.997884 -0.0650204 0.0665858 0.997781 93.2363 188.883)" fill="black"/>
<rect width="9.97414" height="9.8567" transform="matrix(0.997884 -0.0650204 0.0665858 0.997781 172.596 183.713)" fill="black"/>
<rect width="9.97414" height="9.8567" transform="matrix(0.997884 -0.0650204 0.0665858 0.997781 113.076 187.592)" fill="black"/>
<rect width="9.97414" height="9.8567" transform="matrix(0.997884 -0.0650204 0.0665858 0.997781 132.916 186.299)" fill="black"/>
<rect width="9.97414" height="9.8567" transform="matrix(0.997884 -0.0650204 0.0665858 0.997781 152.756 185.006)" fill="black"/>
<rect width="9.97414" height="9.8567" transform="matrix(0.997884 -0.0650204 0.0665858 0.997781 152.102 175.174)" fill="white"/>
<rect width="9.97414" height="9.8567" transform="matrix(0.997884 -0.0650204 0.0665858 0.997781 92.582 179.053)" fill="white"/>
<rect width="9.97414" height="9.8567" transform="matrix(0.997884 -0.0650204 0.0665858 0.997781 171.941 173.881)" fill="white"/>
<rect width="9.97414" height="9.8567" transform="matrix(0.997884 -0.0650204 0.0665858 0.997781 112.422 177.758)" fill="white"/>
<rect width="9.97414" height="9.8567" transform="matrix(0.997884 -0.0650204 0.0665858 0.997781 132.262 176.465)" fill="white"/>
<rect width="9.97414" height="9.8567" transform="matrix(0.997884 -0.0650204 0.0665858 0.997781 82.6289 179.699)" fill="black"/>
<rect width="9.97414" height="9.8567" transform="matrix(0.997884 -0.0650204 0.0665858 0.997781 161.988 174.529)" fill="black"/>
<rect width="9.97414" height="9.8567" transform="matrix(0.997884 -0.0650204 0.0665858 0.997781 102.469 178.408)" fill="black"/>
<rect width="9.97414" height="9.8567" transform="matrix(0.997884 -0.0650204 0.0665858 0.997781 181.83 173.236)" fill="black"/>
<rect width="9.97414" height="9.8567" transform="matrix(0.997884 -0.0650204 0.0665858 0.997781 122.309 177.115)" fill="black"/>
<rect width="9.97414" height="9.8567" transform="matrix(0.997884 -0.0650204 0.0665858 0.997781 142.148 175.822)" fill="black"/>
<rect width="9.97414" height="9.8567" transform="matrix(0.997884 -0.0650204 0.0665858 0.997781 153.355 193.953)" fill="white"/>
<rect width="9.97414" height="9.8567" transform="matrix(0.997884 -0.0650204 0.0665858 0.997781 93.8359 197.833)" fill="white"/>
<rect width="9.97414" height="9.8567" transform="matrix(0.997884 -0.0650204 0.0665858 0.997781 173.195 192.662)" fill="white"/>
<rect width="9.97414" height="9.8567" transform="matrix(0.997884 -0.0650204 0.0665858 0.997781 113.676 196.541)" fill="white"/>
<rect width="9.97414" height="9.8567" transform="matrix(0.997884 -0.0650204 0.0665858 0.997781 133.516 195.248)" fill="white"/>
<rect width="9.97414" height="9.8567" transform="matrix(0.997884 -0.0650204 0.0665858 0.997781 83.8828 198.48)" fill="black"/>
<rect width="9.97414" height="9.8567" transform="matrix(0.997884 -0.0650204 0.0665858 0.997781 163.242 193.31)" fill="black"/>
<rect width="9.97414" height="9.8567" transform="matrix(0.997884 -0.0650204 0.0665858 0.997781 103.723 197.189)" fill="black"/>
<rect width="9.97414" height="9.8567" transform="matrix(0.997884 -0.0650204 0.0665858 0.997781 183.082 192.017)" fill="black"/>
<rect width="9.97414" height="9.8567" transform="matrix(0.997884 -0.0650204 0.0665858 0.997781 123.562 195.896)" fill="black"/>
<rect width="9.97414" height="9.8567" transform="matrix(0.997884 -0.0650204 0.0665858 0.997781 143.402 194.603)" fill="black"/>
</g>
<path fill-rule="evenodd" clip-rule="evenodd" d="M100.954 172.609L99.0323 171.922L98.3846 173.857C98.0561 174.839 97.4813 176.395 96.7881 178.273L96.788 178.273L96.788 178.273C95.0727 182.918 92.6325 189.526 91.4066 194.237L90.9395 196.032L92.6944 196.633C117.923 205.27 139.804 206.882 156.751 205.418C157.019 204.719 157.327 204.018 157.677 203.326C140.884 204.93 118.885 203.485 93.3422 194.74C94.542 190.13 96.8891 183.776 98.5979 179.15L98.5979 179.15C98.9748 178.13 99.3207 177.193 99.6163 176.378C99.8838 175.641 100.11 175.003 100.281 174.492C100.63 174.617 101.013 174.745 101.429 174.876C109.611 177.458 130.307 181.114 149.677 179.272C168.441 177.487 174.555 175.292 176.011 174.201C176.135 174.109 176.225 174.024 176.286 173.949C176.7 174.399 177.136 174.914 177.587 175.483C181.974 181.004 187.85 191.485 189.217 194.645C188.397 195.141 187.452 195.652 186.387 196.167C187.104 196.523 187.808 196.915 188.496 197.343C189.129 197.011 189.715 196.681 190.252 196.356L191.746 195.452L191.053 193.85C190.244 191.982 188.063 187.92 185.561 183.766C183.069 179.626 180.124 175.168 177.759 172.595L176.192 170.891L174.788 172.621C174.785 172.622 174.776 172.628 174.76 172.638C174.682 172.687 174.437 172.842 173.889 173.071C173.078 173.41 171.794 173.834 169.851 174.303C165.969 175.24 159.616 176.318 149.488 177.281C129.427 179.189 107.903 175.091 100.954 172.609Z" fill="black"/>
<path d="M99.0918 173.393L99.4668 165.145C119.092 168.02 159.404 168.551 176.279 165.801C176.402 168.988 176.719 172.176 176.842 173.801C154.169 182.926 117.23 177.449 99.0918 173.393Z" fill="#EA343C" stroke="black" stroke-width="2"/>
<path d="M159.546 167.949L139.812 168.449C139.685 171.699 139.812 174.699 139.559 177.699C142.342 177.949 154.317 177.365 160.811 176.949L159.546 167.949Z" stroke="black" stroke-width="2"/>
<ellipse cx="155.753" cy="172.949" rx="2.02404" ry="2" fill="black"/>
<rect x="-0.915706" y="-1.07595" width="6.82819" height="11.401" rx="2" transform="matrix(0.996855 0.0792449 -0.0811488 0.996702 130.113 244.018)" fill="#EA343C" stroke="black" stroke-width="2"/>
<path d="M186.131 239.031C187.232 238.944 188.197 239.765 188.287 240.866L188.888 248.243C188.977 249.344 188.157 250.307 187.056 250.395L184.237 250.619C183.136 250.706 182.17 249.885 182.081 248.784L181.48 241.407C181.391 240.306 182.211 239.343 183.312 239.255L186.131 239.031Z" fill="#EA343C" stroke="black" stroke-width="2"/>
<path d="M117.689 180.894C137.189 184.393 161.47 189.541 165.07 193.541C166.17 194.03 169.584 193.825 171.413 193.671C171.812 193.615 172.208 193.578 172.597 193.559C172.597 193.559 172.125 193.611 171.413 193.671C163.718 194.744 154.238 202.569 153.374 211.583L155.202 213.408C155.521 215.458 156.348 219.517 158.364 219.853C161.011 220.717 162.272 220.983 163.896 220.383C164.109 223.045 165.031 224.361 165.615 225.474C164.166 226.318 162.486 226.961 160.689 227.541C159.031 228.722 153.07 226.263 153.07 226.263C149.309 227.614 145.189 226.989 137.189 224.894C129.189 222.798 105.255 207.394 102.189 195.893C99.6554 186.393 108.216 179.194 117.689 180.894Z" fill="#F02E44"/>
<path d="M117.689 180.894L117.512 181.878L117.689 180.894ZM102.189 195.893L101.222 196.151L102.189 195.893ZM147.57 206.541L146.604 206.284L147.57 206.541ZM172.597 193.559L172.706 194.553C173.243 194.494 173.636 194.019 173.593 193.481C173.551 192.942 173.089 192.535 172.549 192.56L172.597 193.559ZM153.799 216.893L154.768 216.645L153.799 216.893ZM165.615 225.474L166.118 226.339L166.945 225.857L166.501 225.01L165.615 225.474ZM163.896 220.383L164.893 220.304L164.788 218.989L163.55 219.445L163.896 220.383ZM158.364 219.853L158.674 218.903L158.603 218.879L158.528 218.867L158.364 219.853ZM155.202 213.408L156.19 213.254L156.139 212.931L155.908 212.701L155.202 213.408ZM153.374 211.583L152.379 211.487L153.374 211.583ZM117.512 181.878C127.254 183.626 138.174 185.784 147.101 188C151.566 189.109 155.512 190.228 158.555 191.312C160.076 191.854 161.353 192.381 162.348 192.885C163.364 193.4 164.003 193.851 164.327 194.21L165.813 192.872C165.237 192.232 164.33 191.647 163.252 191.101C162.154 190.544 160.791 189.986 159.226 189.428C156.093 188.312 152.075 187.175 147.583 186.059C138.594 183.827 127.624 181.661 117.865 179.909L117.512 181.878ZM137.442 223.926C135.569 223.436 132.663 222.131 129.266 220.224C125.888 218.327 122.088 215.87 118.44 213.122C114.79 210.371 111.313 207.344 108.567 204.311C105.806 201.259 103.861 198.282 103.155 195.636L101.222 196.151C102.05 199.254 104.246 202.516 107.085 205.653C109.939 208.807 113.52 211.919 117.237 214.719C120.956 217.521 124.831 220.027 128.286 221.967C131.723 223.897 134.808 225.304 136.935 225.861L137.442 223.926ZM103.155 195.636C101.987 191.257 103.37 187.46 106.114 184.928C108.879 182.378 113.066 181.08 117.512 181.878L117.865 179.909C112.838 179.007 108.009 180.459 104.758 183.458C101.488 186.476 99.8567 191.029 101.222 196.151L103.155 195.636ZM165.217 192.552C162.78 192.191 158.983 192.464 155.359 194.411C151.699 196.377 148.274 200.022 146.604 206.284L148.536 206.799C150.067 201.061 153.141 197.872 156.306 196.172C159.507 194.453 162.861 194.225 164.924 194.531L165.217 192.552ZM152.732 225.321C149.305 226.552 145.485 226.033 137.442 223.926L136.935 225.861C144.892 227.945 149.313 228.675 153.408 227.204L152.732 225.321ZM160.108 226.727C160.007 226.799 159.649 226.906 158.88 226.843C158.178 226.786 157.346 226.607 156.523 226.381C155.708 226.156 154.938 225.895 154.368 225.688C154.085 225.586 153.853 225.497 153.693 225.435C153.614 225.403 153.552 225.379 153.511 225.362C153.49 225.354 153.475 225.348 153.465 225.344C153.46 225.342 153.456 225.34 153.454 225.339C153.453 225.339 153.452 225.338 153.452 225.338C153.451 225.338 153.451 225.338 153.451 225.338C153.451 225.338 153.451 225.338 153.451 225.338C153.451 225.338 153.452 225.338 153.07 226.263C152.689 227.187 152.689 227.187 152.689 227.187C152.689 227.187 152.689 227.187 152.689 227.187C152.69 227.187 152.69 227.188 152.691 227.188C152.692 227.188 152.693 227.189 152.695 227.19C152.699 227.191 152.703 227.193 152.71 227.196C152.723 227.201 152.741 227.208 152.764 227.218C152.811 227.237 152.879 227.264 152.966 227.297C153.138 227.365 153.385 227.459 153.686 227.569C154.287 227.786 155.11 228.066 155.992 228.309C156.868 228.55 157.836 228.765 158.718 228.837C159.533 228.903 160.541 228.874 161.269 228.356L160.108 226.727ZM164.664 194.455C165.096 194.647 165.652 194.736 166.175 194.785C166.725 194.837 167.348 194.852 167.976 194.847C169.232 194.837 170.572 194.745 171.496 194.668L171.329 192.675C170.425 192.751 169.143 192.838 167.96 192.847C167.368 192.852 166.818 192.837 166.361 192.794C165.877 192.749 165.594 192.68 165.476 192.628L164.664 194.455ZM171.496 194.668C171.858 194.637 172.159 194.609 172.37 194.588C172.476 194.577 172.559 194.569 172.616 194.563C172.645 194.56 172.667 194.558 172.682 194.556C172.69 194.555 172.695 194.554 172.699 194.554C172.701 194.554 172.703 194.554 172.704 194.554C172.705 194.553 172.705 194.553 172.705 194.553C172.706 194.553 172.706 194.553 172.706 194.553C172.706 194.553 172.706 194.553 172.706 194.553C172.706 194.553 172.706 194.553 172.706 194.553C172.706 194.553 172.706 194.553 172.597 193.559C172.487 192.565 172.487 192.565 172.487 192.565C172.487 192.565 172.487 192.565 172.487 192.565C172.487 192.565 172.487 192.565 172.487 192.565C172.487 192.565 172.487 192.565 172.487 192.565C172.487 192.565 172.487 192.565 172.486 192.565C172.485 192.566 172.484 192.566 172.483 192.566C172.48 192.566 172.475 192.567 172.468 192.567C172.454 192.569 172.434 192.571 172.407 192.574C172.354 192.579 172.275 192.588 172.173 192.598C171.97 192.618 171.679 192.645 171.329 192.675L171.496 194.668ZM146.604 206.284C145.602 210.039 145.422 213.275 145.768 216.018L147.753 215.768C147.442 213.309 147.594 210.334 148.536 206.799L146.604 206.284ZM145.768 216.018C146.563 222.308 150.117 225.912 152.625 227.158L153.515 225.367C151.614 224.422 148.464 221.401 147.753 215.768L145.768 216.018ZM152.83 217.141C153.78 220.846 156.056 224.637 160.011 228.277L161.366 226.806C157.64 223.376 155.604 219.908 154.768 216.645L152.83 217.141ZM146.291 216.776C147.28 217.301 148.844 217.991 150.34 218.342C151.085 218.516 151.877 218.623 152.599 218.547C153.325 218.471 154.114 218.191 154.62 217.464L152.978 216.322C152.927 216.395 152.795 216.515 152.39 216.558C151.983 216.601 151.438 216.545 150.797 216.394C149.523 216.095 148.124 215.485 147.229 215.01L146.291 216.776ZM165.112 224.61C163.755 225.4 162.155 226.017 160.381 226.59L160.996 228.493C162.817 227.905 164.576 227.236 166.118 226.339L165.112 224.61ZM166.501 225.01C165.892 223.85 165.086 222.722 164.893 220.304L162.899 220.463C163.132 223.368 164.17 224.873 164.73 225.939L166.501 225.01ZM158.528 218.867C158.353 218.838 158.122 218.716 157.847 218.37C157.571 218.023 157.312 217.526 157.082 216.918C156.621 215.706 156.347 214.263 156.19 213.254L154.214 213.562C154.376 214.603 154.675 216.214 155.212 217.628C155.48 218.334 155.826 219.043 156.282 219.615C156.738 220.189 157.367 220.701 158.2 220.84L158.528 218.867ZM172.549 192.56C172.128 192.58 171.703 192.621 171.274 192.681L171.551 194.662C171.922 194.61 172.287 194.575 172.644 194.558L172.549 192.56ZM171.274 192.681C167.181 193.252 162.705 195.593 159.149 198.919C155.591 202.247 152.841 206.667 152.379 211.487L154.37 211.678C154.772 207.484 157.194 203.486 160.515 200.38C163.838 197.272 167.949 195.164 171.551 194.662L171.274 192.681ZM152.379 211.487C152.204 213.309 152.334 215.207 152.83 217.141L154.768 216.645C154.33 214.936 154.217 213.271 154.37 211.678L152.379 211.487ZM155.908 212.701L154.081 210.875L152.667 212.29L154.495 214.116L155.908 212.701ZM163.55 219.445C162.281 219.913 161.324 219.767 158.674 218.903L158.054 220.804C160.698 221.667 162.263 222.052 164.242 221.322L163.55 219.445Z" fill="black"/>
<path d="M153.189 191.893C144.389 189.493 129.689 184.393 115.189 182.393C112.789 182.393 108.689 183.726 108.189 184.393C122.689 187.393 131.189 190.893 146.189 198.393C147.689 195.393 151.023 193.06 153.189 191.893Z" fill="white"/>
<circle cx="149.689" cy="212.893" r="1.5" fill="black"/>
</svg>
