<svg width="149" height="94" viewBox="0 0 149 94" fill="none" xmlns="http://www.w3.org/2000/svg">
<path d="M102.625 8.49995C121.527 14.4342 143.684 20.5774 146.75 25C140.125 26.3125 131.5 28.625 131 43.125C130.873 46.8132 131.614 49.4252 132.769 51.2794C134.694 51.4102 139.64 51.234 139.982 52.0026C140.255 52.6175 141.348 54.8777 141.861 55.931C138.786 56.785 129.532 54.6305 124.394 53.3474C121.547 52.6364 119.268 52.0325 116.739 51.048C116.973 48.4751 117.021 46.1378 115.616 43.3292C113.86 39.6405 112.416 39.0195 111.3 37.2471C105.559 24.4081 98.3893 14.4675 95.0126 10.9021C94.8872 8.65216 94.8713 7.65167 94.875 6.75005C96.9726 7.01243 100.29 7.76679 102.625 8.49995Z" fill="#F02E44"/>
<path d="M141.861 55.931C138.786 56.785 129.532 54.6305 124.394 53.3474C121.547 52.6364 119.268 52.0325 116.739 51.048C116.973 48.4751 117.021 46.1378 115.616 43.3292C113.86 39.6405 112.416 39.0195 111.3 37.2471C105.559 24.4081 98.3893 14.4675 95.0126 10.9021C94.8872 8.65216 94.8713 7.65167 94.875 6.75005C96.9726 7.01243 100.29 7.76679 102.625 8.49995C121.527 14.4342 143.684 20.5774 146.75 25C140.125 26.3125 131.5 28.625 131 43.125C130.873 46.8132 131.614 49.4252 132.769 51.2794M141.861 55.931C141.348 54.8777 140.255 52.6175 139.982 52.0026C139.64 51.234 134.694 51.4102 132.769 51.2794M141.861 55.931C140.54 55.811 135.499 55.665 132.769 51.2794" stroke="black" stroke-width="2"/>
<path fill-rule="evenodd" clip-rule="evenodd" d="M116.276 52.7658C115.495 55.2343 114.054 57.2775 112.751 58.7666C108.251 63.9095 92.2508 70.7666 85.2508 63.7666C83.5341 62.05 82.6117 60.0882 82.312 58.1221C81.9697 58.2184 81.6144 58.269 81.25 58.269C79.9158 58.269 78.7037 57.5897 77.8071 56.4826C76.3082 57.2192 74.763 56.3214 73.7508 51.7666C73.0841 48.7666 74.0449 42.2657 77.7508 37.267C84.4217 28.269 100.751 27.7685 110.751 37.2685C111.108 37.6075 111.446 37.9446 111.767 38.2797C105.979 23.4758 98.5829 15.3312 91.8266 7.89126C90.7654 6.72273 89.72 5.57158 88.6991 4.41474C85.0346 9.41435 77.4436 12.4141 68.8423 12.9143C52.609 13.2795 19.75 5.62511 19.8909 4.41455C19.8909 4.41455 10.75 26.3752 1.75087 62.7502C2.70605e-05 95.5002 62.538 94.0435 87.2511 90.3752C118.096 85.7966 119.673 67.5134 116.276 52.7658Z" fill="#EA343C"/>
<path d="M116.276 52.7658L117.25 52.5413L116.427 48.9689L115.322 52.4643L116.276 52.7658ZM112.751 58.7666L111.998 58.1081L112.751 58.7666ZM85.2508 63.7666L85.9579 63.0595L85.2508 63.7666ZM82.312 58.1221L83.3005 57.9714L83.1301 56.8533L82.0413 57.1595L82.312 58.1221ZM77.8071 56.4826L78.5842 55.8532L78.0821 55.2332L77.366 55.5851L77.8071 56.4826ZM73.7508 51.7666L72.7746 51.9836L73.7508 51.7666ZM77.7508 37.267L76.9475 36.6715L77.7508 37.267ZM110.751 37.2685L111.44 36.5435L110.751 37.2685ZM111.767 38.2797L111.044 38.9711L112.698 37.9156L111.767 38.2797ZM91.8266 7.89126L92.5669 7.21898L91.8266 7.89126ZM88.6991 4.41474L89.4489 3.75307L88.627 2.82164L87.8926 3.82357L88.6991 4.41474ZM68.8423 12.9143L68.8648 13.9141L68.8826 13.9137L68.9004 13.9127L68.8423 12.9143ZM19.8909 4.41455L20.8842 4.53013L18.9676 4.03027L19.8909 4.41455ZM1.75087 62.7502L0.780134 62.51L0.757357 62.6021L0.752294 62.6968L1.75087 62.7502ZM87.2511 90.3752L87.1043 89.386L87.2511 90.3752ZM115.322 52.4643C114.599 54.7536 113.25 56.6772 111.998 58.1081L113.503 59.4252C114.857 57.8778 116.392 55.715 117.229 53.0672L115.322 52.4643ZM111.998 58.1081C109.918 60.4851 104.993 63.406 99.6753 64.8554C94.3185 66.3156 89.0563 66.1579 85.9579 63.0595L84.5437 64.4738C88.4453 68.3754 94.6831 68.2892 100.201 66.785C105.759 65.2702 111.083 62.1911 113.503 59.4252L111.998 58.1081ZM85.9579 63.0595C84.3906 61.4922 83.5678 59.7248 83.3005 57.9714L81.3234 58.2728C81.6555 60.4516 82.6777 62.6078 84.5437 64.4738L85.9579 63.0595ZM82.0413 57.1595C81.7852 57.2315 81.5209 57.269 81.25 57.269V59.269C81.7079 59.269 82.1542 59.2053 82.5826 59.0848L82.0413 57.1595ZM81.25 57.269C80.2769 57.269 79.3318 56.7763 78.5842 55.8532L77.03 57.1119C78.0756 58.4031 79.5547 59.269 81.25 59.269V57.269ZM77.366 55.5851C77.1234 55.7044 76.9483 55.7243 76.8213 55.7066C76.7018 55.6899 76.5284 55.6271 76.3043 55.4026C75.8131 54.9104 75.2234 53.7838 74.727 51.5497L72.7746 51.9836C73.2903 54.3043 73.9793 55.904 74.8885 56.8152C75.3646 57.2924 75.9219 57.6006 76.5453 57.6874C77.1612 57.7732 77.7414 57.6291 78.2481 57.3801L77.366 55.5851ZM74.727 51.5497C74.4377 50.2481 74.4844 48.0358 75.0843 45.4962C75.6793 42.9773 76.7966 40.2332 78.5541 37.8626L76.9475 36.6715C74.9991 39.2995 73.783 42.3052 73.1379 45.0364C72.4976 47.747 72.3972 50.2852 72.7746 51.9836L74.727 51.5497ZM78.5541 37.8626C81.6576 33.6764 87.0744 31.3911 93.0125 31.331C98.9389 31.271 105.265 33.4359 110.062 37.9935L111.44 36.5435C106.237 31.6012 99.3981 29.2663 92.9923 29.3311C86.598 29.3958 80.5148 31.8597 76.9475 36.6715L78.5541 37.8626ZM110.062 37.9935C110.408 38.322 110.735 38.6479 111.044 38.9711L112.489 37.5884C112.157 37.2414 111.808 36.8931 111.44 36.5435L110.062 37.9935ZM112.698 37.9156C106.841 22.933 99.3391 14.6764 92.5669 7.21898L91.0863 8.56354C97.8268 15.9859 105.118 24.0185 110.835 38.6438L112.698 37.9156ZM92.5669 7.21898C91.5049 6.04952 90.4643 4.90366 89.4489 3.75307L87.9493 5.07642C88.9757 6.2395 90.026 7.39594 91.0863 8.56354L92.5669 7.21898ZM87.8926 3.82357C84.4831 8.47523 77.2529 11.4235 68.7842 11.916L68.9004 13.9127C77.6343 13.4047 85.5861 10.3535 89.5057 5.00591L87.8926 3.82357ZM68.8198 11.9146C60.8202 12.0946 48.639 10.2921 38.42 8.2743C33.3227 7.2678 28.7431 6.21363 25.4545 5.33835C23.8067 4.89978 22.5011 4.51088 21.6216 4.19962C21.176 4.04192 20.8736 3.91584 20.6983 3.82521C20.6046 3.77675 20.5943 3.76223 20.6221 3.78594C20.6359 3.79767 20.6965 3.85013 20.7568 3.94682C20.8182 4.04527 20.9165 4.25222 20.8842 4.53013L18.8976 4.29897C18.8608 4.61471 18.9709 4.86263 19.0597 5.0051C19.1474 5.14581 19.2512 5.24531 19.3235 5.30702C19.4684 5.43067 19.6366 5.52781 19.7798 5.60182C20.0783 5.75613 20.4832 5.91828 20.9543 6.08502C21.9083 6.42264 23.2735 6.8275 24.9401 7.27106C28.2802 8.16005 32.9035 9.22364 38.0325 10.2364C48.2662 12.2571 60.6311 14.0993 68.8648 13.9141L68.8198 11.9146ZM19.8909 4.41455C18.9676 4.03027 18.9676 4.03046 18.9675 4.03074C18.9674 4.03094 18.9672 4.0313 18.967 4.03171C18.9667 4.03252 18.9662 4.03367 18.9656 4.03515C18.9644 4.03812 18.9626 4.04242 18.9603 4.04805C18.9556 4.05933 18.9487 4.07593 18.9397 4.09784C18.9217 4.14167 18.895 4.20672 18.8599 4.29277C18.7898 4.46485 18.6863 4.72092 18.5515 5.05913C18.2821 5.73553 17.8879 6.7405 17.3871 8.05928C16.3856 10.6968 14.9578 14.5897 13.2487 19.62C9.83064 29.6805 5.28732 44.2917 0.780134 62.51L2.7216 62.9903C7.21355 44.8336 11.7402 30.2771 15.1424 20.2634C16.8434 15.2567 18.2632 11.386 19.2569 8.76924C19.7537 7.46085 20.1439 6.46596 20.4095 5.79931C20.5423 5.46598 20.6439 5.21472 20.7121 5.04735C20.7462 4.96367 20.7719 4.90097 20.789 4.85947C20.7976 4.83872 20.8039 4.82328 20.8081 4.81316C20.8102 4.8081 20.8118 4.80438 20.8128 4.80199C20.8133 4.80079 20.8136 4.79993 20.8138 4.7994C20.8139 4.79914 20.814 4.799 20.8141 4.79887C20.8141 4.79881 20.8141 4.79883 19.8909 4.41455ZM0.752294 62.6968C0.293929 71.2707 4.07248 77.6249 10.3042 82.2047C16.4867 86.7483 25.0868 89.5575 34.4029 91.2043C53.0488 94.5003 74.9769 93.2081 87.398 91.3643L87.1043 89.386C74.8122 91.2106 53.1148 92.4809 34.7511 89.2348C25.5624 87.6106 17.3118 84.8726 11.4886 80.5931C5.71451 76.3496 2.33239 70.6047 2.74944 62.8036L0.752294 62.6968ZM87.398 91.3643C103.003 89.048 111.453 83.2213 115.481 75.8641C119.483 68.5559 118.968 60.0006 117.25 52.5413L115.301 52.9902C116.98 60.2785 117.376 68.2386 113.727 74.9036C110.105 81.5196 102.345 87.1238 87.1043 89.386L87.398 91.3643Z" fill="black"/>
<path d="M37.1108 80.4166C46.4922 81.3538 66.8148 84.9475 77.2321 81.6676C77.941 77.2579 73.086 64.7225 71.25 49.5625C69.7051 36.8063 71.3981 21.7534 69.4141 12.4754C62.9041 9.62649 53.7862 7.86939 42.7148 5.91553C35.5786 12.4754 30.6086 27.5992 27.4825 40.9532C18.1041 82.0318 19.3987 76.982 37.1108 80.4166Z" fill="#EA343C" stroke="black" stroke-width="2"/>
<path d="M53.021 67.0414C53.2923 66.6775 53.7077 66.0543 54.0008 65.3242C54.4913 64.102 54.7456 62.2901 53.229 60.7978L53.229 60.7978C51.7604 59.351 50.0282 59.4717 48.8134 59.8777C48.2103 60.0793 47.7001 60.3579 47.3442 60.5816C47.2939 60.6132 47.2463 60.644 47.2016 60.6735C46.8862 60.5832 46.5697 60.5148 46.2546 60.4661C45.7266 60.3521 45.1321 60.3143 44.6979 60.3016C44.468 60.2949 44.2683 60.2949 44.1253 60.2965C44.0536 60.2974 43.9957 60.2986 43.9549 60.2997L43.9066 60.3012L43.9016 60.3013C43.5819 60.3056 43.2591 60.3295 42.9352 60.3745C42.8947 60.3386 42.8514 60.301 42.8054 60.2622C42.4848 59.9915 42.0192 59.645 41.4506 59.3619C40.3052 58.7916 38.607 58.4322 36.9475 59.6619C35.2365 60.9297 35.2315 62.7595 35.5431 64.0371C35.7287 64.7984 36.0411 65.4567 36.2686 65.8719C36.2222 65.9772 36.1493 66.0891 36.0348 66.2259C35.9173 66.3664 35.8173 66.4685 35.6938 66.5946C35.5959 66.6945 35.4833 66.8095 35.3354 66.9706C34.7332 67.6269 34.1047 68.5143 33.9971 70.0247C33.8908 71.5158 34.3454 72.9458 35.4298 74.0321C36.5027 75.1069 38.0981 75.7529 40.1152 75.8933L41.2238 75.9704C41.3052 76.0493 41.4013 76.1343 41.5129 76.2202C41.9122 76.5277 42.5078 76.8453 43.3114 76.937C43.3256 76.9392 43.3433 76.9417 43.3646 76.9446C43.4124 76.951 43.4786 76.959 43.5645 76.9675C43.7337 76.9842 43.9799 77.003 44.3134 77.0156C45.1684 77.0714 45.8435 76.8426 46.3115 76.5851C46.4517 76.5079 46.5731 76.4283 46.6756 76.3533L47.7795 76.4301C49.7966 76.5704 51.4678 76.1518 52.6826 75.2361C53.9097 74.3112 54.5626 72.9592 54.6693 71.469C54.7834 69.9612 54.2903 68.995 53.7885 68.261C53.6643 68.0792 53.569 67.9494 53.4863 67.8365C53.3828 67.6954 53.2989 67.581 53.2024 67.4253C53.1084 67.2735 53.052 67.1523 53.021 67.0414ZM46.0782 61.4509L46.08 61.4259L46.0863 61.3985L46.0782 61.4509Z" fill="#FAF87D" stroke="black" stroke-width="2"/>
<path fill-rule="evenodd" clip-rule="evenodd" d="M76.6839 56.6971C77.5405 67.1516 77.8945 75.9075 77.9859 80.699C77.9959 81.2236 78.4066 81.6497 78.931 81.6687C91.6213 82.1277 104.946 77.0617 111.669 71C114.669 67.6902 118.611 63.2062 116.454 52.1483C115.733 54.8945 114.161 57.1551 112.751 58.7666C108.251 63.9095 92.2508 70.7666 85.2508 63.7666C83.5341 62.05 82.6117 60.0882 82.312 58.1221C81.9697 58.2184 81.6144 58.269 81.25 58.269C79.9158 58.269 78.7037 57.5897 77.8071 56.4826C77.4326 56.6666 77.0552 56.7487 76.6839 56.6971ZM75.2091 41.8308C75.8472 40.2646 76.6856 38.7038 77.7508 37.267C84.4217 28.269 100.751 27.7685 110.751 37.2685C111.145 37.6432 111.517 38.0156 111.867 38.3854C111.37 37.2569 110.832 36.0874 110.249 34.875C104.172 23.25 99.5504 15.1655 86.5891 5.16553C83.3418 6.93886 80.7875 7.53615 78.4189 8.09004C75.6652 8.73396 73.1624 9.31921 70.1133 11.6255C72.3819 21.2117 74.0275 31.7813 75.2091 41.8308Z" fill="#EA343C"/>
<path d="M77.9859 80.699L78.9857 80.68L77.9859 80.699ZM76.6839 56.6971L76.8215 55.7066L75.5854 55.5349L75.6873 56.7788L76.6839 56.6971ZM78.931 81.6687L78.9672 80.6693H78.9672L78.931 81.6687ZM111.669 71L112.339 71.7427L112.376 71.7089L112.41 71.6715L111.669 71ZM116.454 52.1483L117.436 51.9569L115.487 51.8943L116.454 52.1483ZM112.751 58.7666L113.503 59.4252H113.503L112.751 58.7666ZM85.2508 63.7666L85.9579 63.0595L85.2508 63.7666ZM82.312 58.1221L83.3005 57.9714L83.1301 56.8533L82.0413 57.1595L82.312 58.1221ZM77.8071 56.4826L78.5842 55.8532L78.0821 55.2332L77.366 55.5851L77.8071 56.4826ZM75.2091 41.8308L74.2159 41.9476L76.1352 42.2081L75.2091 41.8308ZM77.7508 37.267L78.5541 37.8626L77.7508 37.267ZM110.751 37.2685L111.44 36.5435V36.5435L110.751 37.2685ZM111.867 38.3854L111.141 39.073L112.782 37.9823L111.867 38.3854ZM110.249 34.875L111.151 34.442L111.143 34.4267L111.135 34.4117L110.249 34.875ZM86.5891 5.16553L87.2 4.37378L86.6829 3.97489L86.1098 4.28787L86.5891 5.16553ZM78.4189 8.09004L78.1912 7.1163L78.4189 8.09004ZM70.1133 11.6255L69.51 10.8279L68.99 11.2213L69.1402 11.8558L70.1133 11.6255ZM78.9857 80.68C78.894 75.8674 78.5388 67.0906 77.6806 56.6154L75.6873 56.7788C76.5421 67.2126 76.8951 75.9476 76.986 80.7181L78.9857 80.68ZM78.9672 80.6693C78.967 80.6693 78.968 80.6693 78.9698 80.6698C78.9716 80.6702 78.9735 80.6708 78.9754 80.6717C78.9792 80.6734 78.9815 80.6753 78.9828 80.6767C78.9841 80.6779 78.9848 80.6792 78.9854 80.6804C78.9861 80.6821 78.9857 80.6825 78.9857 80.68L76.986 80.7181C77.006 81.7626 77.8292 82.6295 78.8949 82.668L78.9672 80.6693ZM111 70.2573C104.49 76.1266 91.4267 81.12 78.9672 80.6693L78.8949 82.668C91.8159 83.1354 105.402 77.9968 112.339 71.7427L111 70.2573ZM115.473 52.3397C116.523 57.7257 116.072 61.4186 115.059 64.1294C114.041 66.8519 112.424 68.6784 110.928 70.3285L112.41 71.6715C113.914 70.0118 115.768 67.9414 116.932 64.83C118.1 61.7069 118.542 57.6288 117.436 51.9569L115.473 52.3397ZM115.487 51.8943C114.82 54.4335 113.355 56.5581 111.998 58.1081L113.503 59.4252C114.967 57.7521 116.646 55.3556 117.422 52.4022L115.487 51.8943ZM111.998 58.1081C109.918 60.4851 104.993 63.406 99.6753 64.8554C94.3185 66.3156 89.0562 66.1579 85.9579 63.0595L84.5437 64.4738C88.4453 68.3754 94.6831 68.2892 100.201 66.785C105.759 65.2702 111.083 62.1911 113.503 59.4252L111.998 58.1081ZM85.9579 63.0595C84.3906 61.4922 83.5678 59.7248 83.3005 57.9714L81.3234 58.2728C81.6555 60.4516 82.6777 62.6078 84.5437 64.4738L85.9579 63.0595ZM82.0413 57.1595C81.7852 57.2315 81.5209 57.269 81.25 57.269V59.269C81.7079 59.269 82.1542 59.2053 82.5826 59.0848L82.0413 57.1595ZM81.25 57.269C80.2769 57.269 79.3318 56.7763 78.5842 55.8532L77.03 57.1119C78.0756 58.4031 79.5547 59.269 81.25 59.269V57.269ZM77.366 55.5851C77.1235 55.7043 76.9485 55.7242 76.8215 55.7066L76.5464 57.6876C77.1619 57.7731 77.7417 57.629 78.2481 57.3801L77.366 55.5851ZM76.1352 42.2081C76.746 40.7091 77.5451 39.2235 78.5541 37.8626L76.9475 36.6715C75.8261 38.184 74.9485 39.8202 74.283 41.4534L76.1352 42.2081ZM78.5541 37.8626C81.6576 33.6764 87.0744 31.3911 93.0125 31.331C98.9389 31.271 105.265 33.4359 110.062 37.9935L111.44 36.5435C106.237 31.6012 99.3981 29.2663 92.9923 29.3311C86.598 29.3958 80.5148 31.8597 76.9475 36.6715L78.5541 37.8626ZM110.062 37.9935C110.444 38.3565 110.803 38.7164 111.141 39.073L112.593 37.6978C112.231 37.3147 111.846 36.9299 111.44 36.5435L110.062 37.9935ZM109.348 35.308C109.926 36.5111 110.46 37.6706 110.952 38.7885L112.782 37.9823C112.281 36.8433 111.738 35.6638 111.151 34.442L109.348 35.308ZM85.9783 5.95727C98.7729 15.8287 103.314 23.7662 109.363 35.3383L111.135 34.4117C105.031 22.7338 100.328 14.5023 87.2 4.37378L85.9783 5.95727ZM78.6466 9.06377C81.03 8.50644 83.6957 7.885 87.0684 6.04319L86.1098 4.28787C82.9879 5.99272 80.5451 6.56587 78.1912 7.1163L78.6466 9.06377ZM70.7165 12.423C73.5875 10.2515 75.913 9.70298 78.6466 9.06377L78.1912 7.1163C75.4173 7.76494 72.7372 8.38694 69.51 10.8279L70.7165 12.423ZM76.2022 41.714C75.018 31.6421 73.3669 21.0316 71.0864 11.3952L69.1402 11.8558C71.3969 21.3917 73.0369 31.9205 74.2159 41.9476L76.2022 41.714Z" fill="black"/>
<path fill-rule="evenodd" clip-rule="evenodd" d="M67.9629 12.408C69.8865 35.9711 73.2165 82.7382 72.517 82.9325C71.6426 83.1755 82.9766 82.1108 85.25 81.625C86.0008 81.4646 85.7626 73.7819 85.0186 63.5279C83.4505 61.8692 82.5979 59.9976 82.312 58.1221C81.9697 58.2184 81.6144 58.269 81.25 58.269C79.9158 58.269 78.7037 57.5897 77.8071 56.4826C76.3082 57.2192 74.763 56.3214 73.7508 51.7666C73.0841 48.7666 74.0449 42.2657 77.7508 37.267C78.9384 35.6652 80.432 34.3326 82.1416 33.2779C80.7141 20.9775 79.1944 11.0703 78.2805 10.7076C76.3219 9.93023 70.586 11.5173 67.9629 12.408Z" fill="#FAF87D"/>
<path d="M72.517 82.9325L72.7847 83.896L72.517 82.9325ZM67.9629 12.408L67.6414 11.4611L66.9027 11.7119L66.9662 12.4894L67.9629 12.408ZM85.25 81.625L85.459 82.6029H85.459L85.25 81.625ZM85.0186 63.5279L86.0159 63.4555L85.9901 63.0999L85.7452 62.8409L85.0186 63.5279ZM82.312 58.1221L83.3005 57.9714L83.1301 56.8533L82.0413 57.1595L82.312 58.1221ZM77.8071 56.4826L78.5842 55.8532L78.0821 55.2332L77.366 55.5851L77.8071 56.4826ZM73.7508 51.7666L72.7746 51.9836L73.7508 51.7666ZM77.7508 37.267L76.9475 36.6715L77.7508 37.267ZM82.1416 33.2779L82.6667 34.1289L83.2083 33.7947L83.1349 33.1626L82.1416 33.2779ZM78.2805 10.7076L77.9116 11.637V11.637L78.2805 10.7076ZM72.7847 83.896C73.1094 83.8058 73.2854 83.5887 73.3542 83.4896C73.4303 83.3799 73.4704 83.2775 73.4901 83.2217C73.5305 83.1068 73.5497 82.9967 73.56 82.9275C73.5824 82.7769 73.5944 82.5946 73.6015 82.4051C73.6162 82.0161 73.6148 81.4686 73.6008 80.7921C73.5726 79.4331 73.4918 77.4861 73.3697 75.0937C73.1254 70.3056 72.7142 63.6988 72.2213 56.3665C71.2355 41.7005 69.9218 24.1132 68.9596 12.3266L66.9662 12.4894C67.9276 24.2659 69.2407 41.8437 70.2259 56.5006C70.7185 63.8297 71.1288 70.4238 71.3723 75.1956C71.4941 77.5831 71.5737 79.5057 71.6012 80.8336C71.6151 81.5005 71.6154 82.0007 71.603 82.3296C71.5965 82.4991 71.5877 82.5933 71.5819 82.6325C71.578 82.6582 71.5811 82.6213 71.6036 82.5575C71.6142 82.5272 71.6449 82.4447 71.7111 82.3494C71.7699 82.2646 71.9355 82.0562 72.2493 81.969L72.7847 83.896ZM85.041 80.6471C83.9724 80.8755 80.6369 81.258 77.605 81.5569C76.1049 81.7047 74.7075 81.8294 73.743 81.9018C73.2564 81.9384 72.8963 81.9604 72.6903 81.9665C72.5514 81.9706 72.5702 81.9637 72.6419 81.9747C72.6599 81.9774 72.6938 81.9832 72.7363 81.9945C72.7706 82.0036 72.8577 82.0283 72.959 82.0847C73.0337 82.1263 73.3025 82.286 73.4196 82.6444C73.5622 83.0805 73.3707 83.4286 73.2471 83.5811C73.136 83.7182 73.0166 83.7895 72.9784 83.8117C72.9262 83.8421 72.883 83.8606 72.8615 83.8693C72.8182 83.8869 72.7872 83.8953 72.7847 83.896L72.2493 81.969C72.2194 81.9773 72.1671 81.9927 72.1082 82.0166C72.0789 82.0285 72.0294 82.05 71.9722 82.0833C71.9292 82.1083 71.8063 82.1823 71.6932 82.322C71.5675 82.477 71.3753 82.8275 71.5186 83.2658C71.6365 83.6265 71.9074 83.7883 71.9856 83.8318C72.1602 83.9291 72.3256 83.9496 72.3399 83.9518C72.4827 83.9736 72.6576 83.9683 72.7493 83.9656C73.0047 83.9581 73.4044 83.9329 73.8928 83.8962C74.8786 83.8222 76.2929 83.6959 77.8012 83.5472C80.7861 83.253 84.2543 82.8604 85.459 82.6029L85.041 80.6471ZM84.0212 63.6002C84.3928 68.7212 84.6368 73.1843 84.695 76.3798C84.7242 77.9823 84.706 79.2391 84.6383 80.0926C84.6039 80.5263 84.5599 80.8103 84.5184 80.97C84.4964 81.0542 84.4885 81.0506 84.5149 81.0052C84.527 80.9843 84.6754 80.7252 85.041 80.6471L85.459 82.6029C85.9184 82.5047 86.1529 82.1668 86.2437 82.0108C86.3487 81.8302 86.4119 81.635 86.4539 81.4738C86.5401 81.1426 86.5948 80.72 86.6321 80.2507C86.7076 79.298 86.7242 77.9632 86.6947 76.3433C86.6355 73.0938 86.3884 68.5886 86.0159 63.4555L84.0212 63.6002ZM85.7452 62.8409C84.3164 61.3296 83.5556 59.6449 83.3005 57.9714L81.3234 58.2728C81.6401 60.3504 82.5845 62.4089 84.2919 64.2149L85.7452 62.8409ZM82.0413 57.1595C81.7852 57.2315 81.5209 57.269 81.25 57.269V59.269C81.7079 59.269 82.1542 59.2053 82.5826 59.0848L82.0413 57.1595ZM81.25 57.269C80.2769 57.269 79.3318 56.7763 78.5842 55.8532L77.03 57.1119C78.0756 58.4031 79.5547 59.269 81.25 59.269V57.269ZM77.366 55.5851C77.1234 55.7044 76.9483 55.7243 76.8212 55.7066C76.7018 55.6899 76.5284 55.6271 76.3043 55.4026C75.8131 54.9104 75.2234 53.7838 74.727 51.5497L72.7746 51.9836C73.2903 54.3043 73.9793 55.904 74.8885 56.8152C75.3646 57.2924 75.9218 57.6006 76.5453 57.6874C77.1612 57.7732 77.7414 57.6291 78.2481 57.3801L77.366 55.5851ZM74.727 51.5497C74.4377 50.2481 74.4844 48.0358 75.0843 45.4962C75.6793 42.9773 76.7966 40.2332 78.5541 37.8626L76.9475 36.6715C74.9991 39.2995 73.783 42.3052 73.1379 45.0364C72.4976 47.747 72.3972 50.2852 72.7746 51.9836L74.727 51.5497ZM78.5541 37.8626C79.66 36.3709 81.0563 35.1225 82.6667 34.1289L81.6165 32.4268C79.8078 33.5428 78.2167 34.9594 76.9475 36.6715L78.5541 37.8626ZM77.9116 11.637C77.667 11.54 77.5839 11.3742 77.6188 11.4283C77.6312 11.4475 77.6674 11.5124 77.7217 11.6483C77.8287 11.9158 77.9558 12.3299 78.0985 12.9002C78.3819 14.0326 78.697 15.6579 79.0319 17.6796C79.7006 21.7159 80.4352 27.2494 81.1483 33.3931L83.1349 33.1626C82.4204 27.006 81.6815 21.4357 81.005 17.3527C80.6673 15.3146 80.3419 13.6263 80.0387 12.4147C79.8881 11.8131 79.7354 11.2975 79.5788 10.9057C79.5013 10.712 79.4097 10.5149 79.2988 10.3431C79.2103 10.2061 79.0082 9.92051 78.6494 9.7781L77.9116 11.637ZM68.2844 13.3549C69.5669 12.9194 71.6154 12.3125 73.5715 11.9119C74.5505 11.7115 75.4831 11.5675 76.2733 11.5181C77.0982 11.4666 77.6374 11.5282 77.9116 11.637L78.6494 9.7781C77.9443 9.49826 77.032 9.46679 76.1486 9.52202C75.2304 9.57941 74.198 9.74214 73.1703 9.9526C71.113 10.3739 68.982 11.0059 67.6414 11.4611L68.2844 13.3549Z" fill="black"/>
<mask id="mask0_1507_318" style="mask-type:alpha" maskUnits="userSpaceOnUse" x="11" y="11" width="97" height="30">
<path fill-rule="evenodd" clip-rule="evenodd" d="M22.4929 12.1756C33.5086 14.1428 50.1358 17.1122 68.3134 16.1275C88.7193 15.0221 93.8381 12.292 95.5443 11.3252C96.6969 13.3396 98.4032 16.1358 100.176 19.0403C103.229 24.0435 106.478 29.3683 107.431 31.5727C106.639 32.0524 105.73 32.545 104.707 33.041C95.0849 28.2384 83.1979 29.9199 77.7508 37.2673C77.065 38.1922 76.4733 39.1686 75.9685 40.1647C59.1134 41.7491 37.0167 40.2765 11.4238 31.5056C12.5046 26.5413 16.9142 14.821 18.3077 11.4389C19.5914 11.6574 20.9899 11.9072 22.4929 12.1756Z" fill="#D9D9D9"/>
</mask>
<g mask="url(#mask0_1507_318)">
<rect width="9.97414" height="9.8567" transform="matrix(0.997884 -0.0650204 0.0665858 0.997781 59.7656 2.90454)" fill="white"/>
<rect width="9.97414" height="9.8567" transform="matrix(0.997884 -0.0650204 0.0665858 0.997781 79.6035 1.61353)" fill="white"/>
<rect width="9.97414" height="9.8567" transform="matrix(0.997884 -0.0650204 0.0665858 0.997781 20.084 5.49243)" fill="white"/>
<rect width="9.97414" height="9.8567" transform="matrix(0.997884 -0.0650204 0.0665858 0.997781 39.9238 4.19946)" fill="white"/>
<rect width="9.97414" height="9.8567" transform="matrix(0.997884 -0.0650204 0.0665858 0.997781 69.6504 2.26196)" fill="black"/>
<rect width="9.97414" height="9.8567" transform="matrix(0.997884 -0.0650204 0.0665858 0.997781 10.1309 6.14087)" fill="black"/>
<rect width="9.97414" height="9.8567" transform="matrix(0.997884 -0.0650204 0.0665858 0.997781 29.9727 4.8479)" fill="black"/>
<rect width="9.97414" height="9.8567" transform="matrix(0.997884 -0.0650204 0.0665858 0.997781 49.8105 3.55493)" fill="black"/>
<rect width="9.97414" height="9.8567" transform="matrix(0.997884 -0.0650204 0.0665858 0.997781 80.9922 21.2126)" fill="white"/>
<rect width="9.97414" height="9.8567" transform="matrix(0.997884 -0.0650204 0.0665858 0.997781 21.4727 25.0916)" fill="white"/>
<rect width="9.97414" height="9.8567" transform="matrix(0.997884 -0.0650204 0.0665858 0.997781 1.63281 26.2732)" fill="white"/>
<rect width="9.97414" height="9.8567" transform="matrix(0.997884 -0.0650204 0.0665858 0.997781 100.832 19.9216)" fill="white"/>
<rect width="9.97414" height="9.8567" transform="matrix(0.997884 -0.0650204 0.0665858 0.997781 41.3125 23.7986)" fill="white"/>
<rect width="9.97414" height="9.8567" transform="matrix(0.997884 -0.0650204 0.0665858 0.997781 61.1523 22.5056)" fill="white"/>
<rect width="9.97414" height="9.8567" transform="matrix(0.997884 -0.0650204 0.0665858 0.997781 11.5195 25.738)" fill="black"/>
<rect width="9.97414" height="9.8567" transform="matrix(0.997884 -0.0650204 0.0665858 0.997781 90.8789 20.5681)" fill="black"/>
<rect width="9.97414" height="9.8567" transform="matrix(0.997884 -0.0650204 0.0665858 0.997781 31.3594 24.447)" fill="black"/>
<rect width="9.97414" height="9.8567" transform="matrix(0.997884 -0.0650204 0.0665858 0.997781 51.1992 23.1541)" fill="black"/>
<rect width="9.97414" height="9.8567" transform="matrix(0.997884 -0.0650204 0.0665858 0.997781 71.0391 21.8611)" fill="black"/>
<rect width="9.97414" height="9.8567" transform="matrix(0.997884 -0.0650204 0.0665858 0.997781 70.3848 12.0291)" fill="white"/>
<rect width="9.97414" height="9.8567" transform="matrix(0.997884 -0.0650204 0.0665858 0.997781 10.8652 15.908)" fill="white"/>
<rect width="9.97414" height="9.8567" transform="matrix(0.997884 -0.0650204 0.0665858 0.997781 90.2246 10.7361)" fill="white"/>
<rect width="9.97414" height="9.8567" transform="matrix(0.997884 -0.0650204 0.0665858 0.997781 30.7051 14.613)" fill="white"/>
<rect width="9.97414" height="9.8567" transform="matrix(0.997884 -0.0650204 0.0665858 0.997781 50.5449 13.3201)" fill="white"/>
<rect width="9.97414" height="9.8567" transform="matrix(0.997884 -0.0650204 0.0665858 0.997781 0.912109 16.5544)" fill="black"/>
<rect width="9.97414" height="9.8567" transform="matrix(0.997884 -0.0650204 0.0665858 0.997781 80.2715 11.3845)" fill="black"/>
<rect width="9.97414" height="9.8567" transform="matrix(0.997884 -0.0650204 0.0665858 0.997781 20.752 15.2634)" fill="black"/>
<rect width="9.97414" height="9.8567" transform="matrix(0.997884 -0.0650204 0.0665858 0.997781 100.113 10.0916)" fill="black"/>
<rect width="9.97414" height="9.8567" transform="matrix(0.997884 -0.0650204 0.0665858 0.997781 40.5918 13.9705)" fill="black"/>
<rect width="9.97414" height="9.8567" transform="matrix(0.997884 -0.0650204 0.0665858 0.997781 60.4316 12.6775)" fill="black"/>
<rect width="9.97414" height="9.8567" transform="matrix(0.997884 -0.0650204 0.0665858 0.997781 71.6387 30.8081)" fill="white"/>
<rect width="9.97414" height="9.8567" transform="matrix(0.997884 -0.0650204 0.0665858 0.997781 12.1191 34.689)" fill="white"/>
<rect width="9.97414" height="9.8567" transform="matrix(0.997884 -0.0650204 0.0665858 0.997781 91.4785 29.5171)" fill="white"/>
<rect width="9.97414" height="9.8567" transform="matrix(0.997884 -0.0650204 0.0665858 0.997781 31.959 33.396)" fill="white"/>
<rect width="9.97414" height="9.8567" transform="matrix(0.997884 -0.0650204 0.0665858 0.997781 51.7988 32.103)" fill="white"/>
<rect width="9.97414" height="9.8567" transform="matrix(0.997884 -0.0650204 0.0665858 0.997781 2.16602 35.3354)" fill="black"/>
<rect width="9.97414" height="9.8567" transform="matrix(0.997884 -0.0650204 0.0665858 0.997781 81.5254 30.1655)" fill="black"/>
<rect width="9.97414" height="9.8567" transform="matrix(0.997884 -0.0650204 0.0665858 0.997781 22.0059 34.0444)" fill="black"/>
<rect width="9.97414" height="9.8567" transform="matrix(0.997884 -0.0650204 0.0665858 0.997781 101.365 28.8726)" fill="black"/>
<rect width="9.97414" height="9.8567" transform="matrix(0.997884 -0.0650204 0.0665858 0.997781 41.8457 32.7515)" fill="black"/>
<rect width="9.97414" height="9.8567" transform="matrix(0.997884 -0.0650204 0.0665858 0.997781 61.6855 31.4585)" fill="black"/>
</g>
<path fill-rule="evenodd" clip-rule="evenodd" d="M19.2372 9.46415L17.3155 8.77764L16.6678 10.7128C16.3394 11.694 15.7645 13.2507 15.0713 15.1281L15.0712 15.1283L15.0712 15.1283C13.3559 19.7735 10.9157 26.3817 9.68983 31.0921L9.22266 32.8872L10.9776 33.488C36.2064 42.1252 58.0875 43.7371 75.0342 42.2739C75.3026 41.5741 75.6105 40.873 75.9603 40.1814C59.1676 41.7854 37.1679 40.3404 11.6254 31.5958C12.8252 26.9854 15.1723 20.6314 16.8811 16.0055L16.8811 16.0055C17.258 14.9851 17.6039 14.0488 17.8995 13.2338C18.167 12.4966 18.3933 11.8587 18.5644 11.3476C18.9135 11.4723 19.2967 11.6006 19.7121 11.7317C27.894 14.3139 48.5898 17.9694 67.9607 16.1273C86.7239 14.3429 92.8383 12.1474 94.2947 11.0569C94.4182 10.9644 94.5082 10.8799 94.5696 10.8042C94.9831 11.254 95.4188 11.7698 95.8703 12.3381C100.258 17.8599 106.133 28.3409 107.5 31.5C106.68 31.9963 105.735 32.5072 104.67 33.0221C105.387 33.3783 106.091 33.7705 106.779 34.1989C107.412 33.8664 107.998 33.5363 108.536 33.2112L110.029 32.3077L109.336 30.7057C108.527 28.837 106.346 24.7756 103.844 20.6216C101.352 16.4818 98.4069 12.0238 96.0421 9.45081L94.4754 7.74609L93.071 9.47691C93.068 9.47776 93.0591 9.48339 93.0431 9.49352C92.9653 9.54268 92.7197 9.6978 92.1721 9.92658C91.3612 10.2653 90.0773 10.6896 88.1343 11.1586C84.2518 12.0957 77.8989 13.1732 67.7713 14.1363C47.7098 16.0441 26.1867 11.9468 19.2372 9.46415Z" fill="black"/>
<path d="M17.375 10.2485L17.75 2C37.375 4.875 77.6875 5.40625 94.5625 2.65625C94.6851 5.84375 95.0024 9.03125 95.125 10.6562C72.4526 19.7812 35.5129 14.3042 17.375 10.2485Z" fill="#EA343C" stroke="black" stroke-width="2"/>
<path d="M77.8292 4.8042L58.0948 5.3042C57.9683 8.5542 58.0948 11.5542 57.8418 14.5542C60.6248 14.8042 72.6004 14.2209 79.0942 13.8042L77.8292 4.8042Z" stroke="black" stroke-width="2"/>
<ellipse cx="74.0358" cy="9.8042" rx="2.02404" ry="2" fill="black"/>
<rect x="-0.915706" y="-1.07595" width="6.82819" height="11.401" rx="2" transform="matrix(0.996855 0.0792449 -0.0811488 0.996702 48.3961 80.8732)" fill="#EA343C" stroke="black" stroke-width="2"/>
<path d="M104.414 75.8867C105.515 75.7992 106.481 76.6207 106.57 77.7217L107.171 85.0982C107.26 86.1991 106.44 87.1626 105.339 87.2501L102.52 87.4742C101.419 87.5618 100.454 86.7402 100.364 85.6393L99.7635 78.2628C99.6738 77.1618 100.494 76.1984 101.595 76.1109L104.414 75.8867Z" fill="#EA343C" stroke="black" stroke-width="2"/>
<path d="M35.9718 17.7491C55.4718 21.2486 79.7533 26.3969 83.3533 30.3969C84.453 30.8856 87.8674 30.6802 89.6957 30.5266C90.0957 30.4708 90.4909 30.4333 90.8797 30.4148C90.8797 30.4148 90.4081 30.4668 89.6957 30.5266C82.001 31.5998 72.5215 39.4248 71.6573 48.4381L73.4849 50.2635C73.8045 52.3132 74.6313 56.3727 76.6472 56.7086C79.2941 57.5725 80.5555 57.8381 82.1793 57.2389C82.3923 59.9004 83.3143 61.217 83.8984 62.3299C82.4488 63.1733 80.7693 63.8167 78.9718 64.3969C77.3146 65.5778 71.3533 63.1181 71.3533 63.1181C67.5922 64.469 63.4718 63.8444 55.4718 61.749C47.4718 59.6537 23.5382 44.2491 20.4718 32.7487C17.9386 23.2482 26.499 16.0492 35.9718 17.7491Z" fill="#F02E44"/>
<path d="M35.9718 17.7491L35.7952 18.7334L35.9718 17.7491ZM20.4718 32.7487L19.5056 33.0064L20.4718 32.7487ZM65.8533 43.3969L64.8871 43.1392L65.8533 43.3969ZM90.8797 30.4148L90.9893 31.4088C91.5262 31.3496 91.9191 30.8747 91.8766 30.3362C91.8342 29.7977 91.3717 29.3902 90.8322 29.4159L90.8797 30.4148ZM72.0821 53.7485L73.0508 53.5002L72.0821 53.7485ZM83.8984 62.3299L84.4012 63.1943L85.2287 62.7129L84.7839 61.8653L83.8984 62.3299ZM82.1793 57.2389L83.1761 57.1591L83.0709 55.844L81.8331 56.3007L82.1793 57.2389ZM76.6472 56.7086L76.9574 55.758L76.8858 55.7346L76.8116 55.7222L76.6472 56.7086ZM73.4849 50.2635L74.4729 50.1095L74.4226 49.7868L74.1916 49.556L73.4849 50.2635ZM71.6573 48.4381L70.6619 48.3426L71.6573 48.4381ZM35.7952 18.7334C45.5368 20.4816 56.4574 22.6391 65.3841 24.8558C69.8496 25.9648 73.7954 27.0835 76.8378 28.1673C78.3597 28.7095 79.6366 29.2363 80.6315 29.7405C81.6476 30.2555 82.2863 30.7062 82.61 31.0659L84.0966 29.7279C83.5203 29.0876 82.6128 28.5025 81.5357 27.9566C80.4375 27.4 79.0745 26.841 77.509 26.2833C74.3767 25.1674 70.3584 24.0304 65.8661 22.9148C56.8769 20.6825 45.9068 18.5161 36.1484 16.7649L35.7952 18.7334ZM55.7252 60.7817C53.8519 60.291 50.946 58.9866 47.5489 57.0791C44.1714 55.1826 40.3713 52.7257 36.7235 49.9771C33.0732 47.2268 29.5958 44.1996 26.8507 41.1661C24.0894 38.1148 22.1437 35.1378 21.438 32.4911L19.5056 33.0064C20.333 36.1099 22.529 39.3711 25.3677 42.5081C28.2226 45.6629 31.8034 48.7742 35.5199 51.5745C39.2388 54.3765 43.1137 56.8824 46.5696 58.823C50.0059 60.7525 53.0917 62.1594 55.2184 62.7164L55.7252 60.7817ZM21.438 32.4911C20.2705 28.1122 21.6532 24.3158 24.3977 21.7837C27.1623 19.233 31.3495 17.9356 35.7952 18.7334L36.1484 16.7649C31.1214 15.8627 26.292 17.3148 23.0415 20.3138C19.7708 23.3313 18.14 27.8847 19.5056 33.0064L21.438 32.4911ZM83.4999 29.4077C81.0629 29.0467 77.2664 29.3191 73.6426 31.266C69.982 33.2326 66.5569 36.8776 64.8871 43.1392L66.8196 43.6546C68.3498 37.9163 71.4247 34.7279 74.5891 33.0278C77.7902 31.308 81.1438 31.0805 83.2068 31.3861L83.4999 29.4077ZM71.0153 62.177C67.5886 63.4077 63.7681 62.8883 55.7252 60.7817L55.2184 62.7164C63.1754 64.8005 67.5959 65.5302 71.6914 64.0592L71.0153 62.177ZM78.3915 63.5825C78.2907 63.6544 77.9318 63.7612 77.1635 63.6986C76.4612 63.6413 75.6289 63.4626 74.8065 63.2362C73.9913 63.0118 73.2208 62.7504 72.6517 62.5439C72.368 62.441 72.1364 62.3524 71.9766 62.29C71.8968 62.2589 71.8351 62.2342 71.7939 62.2177C71.7733 62.2094 71.7579 62.2031 71.7479 62.1991C71.7429 62.197 71.7393 62.1956 71.7371 62.1947C71.736 62.1942 71.7353 62.1939 71.7349 62.1937C71.7347 62.1937 71.7346 62.1936 71.7345 62.1936C71.7345 62.1936 71.7346 62.1936 71.7346 62.1936C71.7346 62.1936 71.7347 62.1937 71.3533 63.1181C70.9719 64.0425 70.972 64.0425 70.9722 64.0426C70.9723 64.0427 70.9725 64.0427 70.9727 64.0428C70.973 64.0429 70.9734 64.0431 70.974 64.0433C70.975 64.0438 70.9764 64.0443 70.9782 64.0451C70.9817 64.0465 70.9867 64.0486 70.993 64.0511C71.0057 64.0563 71.024 64.0637 71.0475 64.0732C71.0944 64.0921 71.1624 64.1191 71.2488 64.1529C71.4215 64.2204 71.6686 64.3148 71.9696 64.424C72.57 64.6418 73.3934 64.9216 74.2757 65.1645C75.1508 65.4054 76.1196 65.6201 77.001 65.692C77.8166 65.7584 78.8243 65.7299 79.5521 65.2113L78.3915 63.5825ZM82.9472 31.3107C83.3789 31.5026 83.9354 31.5917 84.458 31.6406C85.0077 31.692 85.6316 31.7075 86.259 31.7026C87.5156 31.6929 88.8551 31.6008 89.7794 31.5231L89.612 29.5301C88.708 29.6061 87.4261 29.6935 86.2435 29.7027C85.6514 29.7073 85.1012 29.692 84.6443 29.6493C84.1603 29.604 83.8776 29.5356 83.7595 29.4831L82.9472 31.3107ZM89.7794 31.5231C90.1413 31.4927 90.4423 31.4643 90.6534 31.4434C90.7589 31.433 90.8421 31.4244 90.8993 31.4184C90.9279 31.4154 90.95 31.413 90.9652 31.4114C90.9727 31.4106 90.9786 31.4099 90.9826 31.4095C90.9846 31.4093 90.9862 31.4091 90.9873 31.409C90.9879 31.4089 90.9883 31.4089 90.9887 31.4088C90.9888 31.4088 90.989 31.4088 90.9891 31.4088C90.9891 31.4088 90.9892 31.4088 90.9892 31.4088C90.9892 31.4088 90.9893 31.4088 90.9893 31.4088C90.9893 31.4088 90.9893 31.4088 90.8797 30.4148C90.7702 29.4208 90.7702 29.4208 90.7702 29.4208C90.7702 29.4208 90.7702 29.4208 90.7702 29.4208C90.7702 29.4208 90.7702 29.4208 90.7702 29.4208C90.7702 29.4208 90.7702 29.4208 90.7701 29.4208C90.77 29.4208 90.7697 29.4209 90.7694 29.4209C90.7687 29.421 90.7675 29.4211 90.7659 29.4213C90.7627 29.4216 90.7577 29.4222 90.751 29.4229C90.7376 29.4243 90.7173 29.4265 90.6905 29.4293C90.637 29.4349 90.5578 29.4431 90.4564 29.4531C90.2536 29.4732 89.9626 29.5007 89.612 29.5301L89.7794 31.5231ZM64.8871 43.1392C63.8856 46.8949 63.705 50.1306 64.0515 52.8738L66.0358 52.6231C65.7251 50.1643 65.8769 47.1895 66.8196 43.6546L64.8871 43.1392ZM64.0515 52.8738C64.846 59.163 68.4 62.7671 70.9083 64.0136L71.7984 62.2226C69.8972 61.2778 66.7474 58.2565 66.0358 52.6231L64.0515 52.8738ZM71.1134 53.9968C72.0629 57.701 74.3395 61.4921 78.2945 65.1327L79.6491 63.6612C75.9232 60.2315 73.8872 56.7633 73.0508 53.5002L71.1134 53.9968ZM64.5746 53.6316C65.5628 54.1565 67.1275 54.846 68.6236 55.197C69.3678 55.3716 70.1598 55.4783 70.8826 55.4024C71.6081 55.3261 72.3977 55.0467 72.9033 54.3191L71.2609 53.1778C71.2106 53.2502 71.0778 53.3708 70.6735 53.4133C70.2666 53.4561 69.7216 53.4003 69.0804 53.2499C67.806 52.9509 66.4074 52.3405 65.5127 51.8653L64.5746 53.6316ZM83.3955 61.4656C82.0379 62.2554 80.4379 62.8729 78.6646 63.4453L79.279 65.3486C81.1006 64.7606 82.8596 64.0912 84.4012 63.1943L83.3955 61.4656ZM84.7839 61.8653C84.175 60.705 83.3697 59.5777 83.1761 57.1591L81.1825 57.3187C81.415 60.2231 82.4537 61.729 83.0129 62.7946L84.7839 61.8653ZM76.8116 55.7222C76.6363 55.693 76.4056 55.5716 76.13 55.2253C75.8537 54.8782 75.5954 54.381 75.3648 53.7737C74.9044 52.5615 74.6303 51.1184 74.4729 50.1095L72.4968 50.4176C72.6591 51.4583 72.9581 53.0698 73.4951 54.4837C73.7631 55.1894 74.1094 55.8982 74.5651 56.4708C75.0215 57.0442 75.6502 57.5563 76.4828 57.695L76.8116 55.7222ZM90.8322 29.4159C90.4114 29.436 89.986 29.4765 89.5576 29.5362L89.8339 31.5171C90.2055 31.4652 90.5704 31.4307 90.9273 31.4137L90.8322 29.4159ZM89.5576 29.5362C85.4645 30.1071 80.9883 32.4484 77.432 35.7745C73.8738 39.1023 71.124 43.5229 70.6619 48.3426L72.6528 48.5335C73.0548 44.34 75.4769 40.3414 78.7981 37.2352C82.1213 34.1271 86.2323 32.0194 89.8339 31.517L89.5576 29.5362ZM70.6619 48.3426C70.4873 50.1642 70.6175 52.0621 71.1134 53.9968L73.0508 53.5002C72.6129 51.7919 72.5 50.1267 72.6528 48.5335L70.6619 48.3426ZM74.1916 49.556L72.364 47.7306L70.9506 49.1456L72.7782 50.971L74.1916 49.556ZM81.8331 56.3007C80.5646 56.7688 79.6073 56.6228 76.9574 55.758L76.3369 57.6593C78.981 58.5222 80.5464 58.9073 82.5255 58.1771L81.8331 56.3007Z" fill="black"/>
<path d="M71.4726 28.7485C62.6726 26.3485 47.9727 21.2485 33.4727 19.2485C31.0727 19.2485 26.9727 20.5819 26.4727 21.2485C40.9727 24.2485 49.4726 27.7485 64.4726 35.2485C65.9726 32.2485 69.306 29.9152 71.4726 28.7485Z" fill="white"/>
<circle cx="67.9727" cy="49.7485" r="1.5" fill="black"/>
</svg>
