<svg width="361" height="340" viewBox="0 0 361 340" fill="none" xmlns="http://www.w3.org/2000/svg">
<path fill-rule="evenodd" clip-rule="evenodd" d="M171.356 165.354C180.552 175.77 198.287 201.904 199.704 219.104C201.476 240.604 199.704 250.604 168.825 255.354C144.735 259.059 107.453 254.982 91.0654 249.059C94.2035 248.663 96.9375 247.894 99.138 246.942C101.705 245.831 103.66 244.42 104.608 242.955C106.915 239.39 106.684 236.387 105.611 234.086C105.042 232.867 104.217 231.836 103.521 231.071C104.528 230.753 105.641 230.23 106.611 229.43C108.32 228.02 109.535 225.78 108.987 222.534C108.182 217.759 104.117 215.857 100.498 215.316C100.314 208.417 102.523 192.937 113.003 180.335C113.342 179.928 113.303 179.332 112.925 178.972C114.106 177.674 114.918 176.433 115.414 175.268C119.219 170.394 122.311 167.406 123.636 166.883C124.931 166.371 126.909 167.297 129.748 168.627C134.411 170.81 141.397 174.08 151.492 173.853C160.096 173.353 167.69 170.353 171.356 165.354Z" fill="#EA343C"/>
<path d="M199.704 219.104L200.701 219.021L199.704 219.104ZM171.356 165.354L172.106 164.692C171.906 164.465 171.613 164.341 171.311 164.355C171.009 164.368 170.729 164.518 170.55 164.762L171.356 165.354ZM168.825 255.354L168.673 254.365L168.825 255.354ZM91.0654 249.059L90.9403 248.067C90.4818 248.124 90.1226 248.489 90.0715 248.948C90.0205 249.408 90.2908 249.842 90.7255 249.999L91.0654 249.059ZM99.138 246.942L98.7408 246.024H98.7408L99.138 246.942ZM104.608 242.955L105.447 243.498L104.608 242.955ZM105.611 234.086L104.705 234.508V234.508L105.611 234.086ZM103.521 231.071L103.22 230.118C102.894 230.22 102.644 230.482 102.555 230.811C102.466 231.14 102.552 231.492 102.781 231.745L103.521 231.071ZM106.611 229.43L107.247 230.202L107.247 230.202L106.611 229.43ZM108.987 222.534L109.973 222.368L108.987 222.534ZM100.498 215.316L99.498 215.342C99.511 215.827 99.87 216.233 100.35 216.305L100.498 215.316ZM113.003 180.335L113.772 180.974V180.974L113.003 180.335ZM112.925 178.972L112.185 178.299C111.82 178.701 111.842 179.321 112.235 179.696L112.925 178.972ZM115.414 175.268L114.626 174.652C114.572 174.721 114.528 174.796 114.494 174.877L115.414 175.268ZM123.636 166.883L124.004 167.813L123.636 166.883ZM129.748 168.627L130.172 167.721L129.748 168.627ZM151.492 173.853L151.514 174.853C151.526 174.853 151.538 174.852 151.55 174.851L151.492 173.853ZM200.701 219.021C199.973 210.188 195.086 199.192 189.313 189.185C183.523 179.147 176.752 169.955 172.106 164.692L170.607 166.015C175.157 171.169 181.851 180.251 187.581 190.184C193.329 200.148 198.018 210.819 198.707 219.186L200.701 219.021ZM168.977 256.342C184.442 253.963 192.987 250.232 197.325 244.086C201.647 237.965 201.582 229.715 200.701 219.021L198.707 219.186C199.598 229.992 199.533 237.492 195.692 242.933C191.867 248.35 184.087 251.994 168.673 254.365L168.977 256.342ZM90.7255 249.999C99.0364 253.003 112.551 255.513 126.967 256.813C141.391 258.114 156.822 258.212 168.977 256.342L168.673 254.365C156.738 256.201 141.483 256.114 127.146 254.821C112.802 253.528 99.482 251.038 91.4054 248.118L90.7255 249.999ZM98.7408 246.024C96.6344 246.936 93.9928 247.681 90.9403 248.067L91.1906 250.051C94.4141 249.644 97.2407 248.852 99.5352 247.859L98.7408 246.024ZM103.768 242.412C102.977 243.635 101.232 244.946 98.7408 246.024L99.5352 247.859C102.177 246.716 104.343 245.204 105.447 243.498L103.768 242.412ZM104.705 234.508C105.635 236.503 105.885 239.141 103.768 242.412L105.447 243.498C107.945 239.64 107.733 236.271 106.517 233.663L104.705 234.508ZM102.781 231.745C103.447 232.476 104.197 233.421 104.705 234.508L106.517 233.663C105.887 232.313 104.987 231.196 104.26 230.398L102.781 231.745ZM105.974 228.659C105.126 229.359 104.135 229.829 103.22 230.118L103.822 232.025C104.921 231.678 106.157 231.101 107.247 230.202L105.974 228.659ZM108.001 222.701C108.485 225.567 107.429 227.459 105.974 228.659L107.247 230.202C109.211 228.582 110.585 225.993 109.973 222.368L108.001 222.701ZM100.35 216.305C103.805 216.822 107.304 218.567 108.001 222.701L109.973 222.368C109.059 216.951 104.428 214.893 100.646 214.327L100.35 216.305ZM112.234 179.695C101.557 192.535 99.3096 208.277 99.498 215.342L101.497 215.289C101.318 208.558 103.489 193.339 113.772 180.974L112.234 179.695ZM112.235 179.696C112.235 179.696 112.235 179.695 112.234 179.694C112.234 179.694 112.234 179.694 112.234 179.695C112.234 179.696 112.234 179.696 112.235 179.696C112.235 179.695 112.235 179.695 112.235 179.694C112.235 179.694 112.235 179.694 112.234 179.695L113.772 180.974C114.449 180.16 114.371 178.968 113.615 178.248L112.235 179.696ZM114.494 174.877C114.051 175.916 113.309 177.065 112.185 178.299L113.665 179.645C114.904 178.283 115.785 176.949 116.334 175.659L114.494 174.877ZM123.269 165.953C122.794 166.14 122.258 166.502 121.702 166.948C121.128 167.409 120.47 168.011 119.746 168.739C118.297 170.195 116.546 172.192 114.626 174.652L116.202 175.883C118.087 173.469 119.785 171.536 121.164 170.149C121.854 169.455 122.456 168.908 122.954 168.508C123.468 168.095 123.816 167.887 124.004 167.813L123.269 165.953ZM130.172 167.721C128.772 167.066 127.507 166.471 126.426 166.115C125.372 165.767 124.261 165.561 123.269 165.953L124.004 167.813C124.306 167.694 124.831 167.695 125.8 168.014C126.741 168.325 127.885 168.858 129.324 169.532L130.172 167.721ZM151.469 172.853C141.62 173.075 134.812 169.893 130.172 167.721L129.324 169.532C134.011 171.726 141.175 175.085 151.514 174.853L151.469 172.853ZM170.55 164.762C167.139 169.414 159.906 172.362 151.434 172.855L151.55 174.851C160.287 174.343 168.242 171.292 172.163 165.945L170.55 164.762Z" fill="black"/>
<path fill-rule="evenodd" clip-rule="evenodd" d="M104.659 243.053C107.185 244.225 110.365 244.689 114.023 245.223C116.115 245.529 118.362 245.857 120.733 246.354C122.455 246.539 124.551 246.823 126.887 247.139C137.127 248.525 151.997 250.538 160.378 247.688C161.667 239.023 156.943 195.52 152.652 173.854C146.22 170.813 137.21 168.938 126.27 166.854C116.533 174.736 108.791 184.638 104.436 195.458C101.599 203.812 100.536 212.346 100.769 216.206C104.395 216.551 108.387 218.235 109.131 222.701C110.087 228.436 105.946 230.267 103.755 230.466C104.95 231.86 106.861 236.2 104.95 242.412C104.884 242.628 104.786 242.842 104.659 243.053Z" fill="#EA343C"/>
<path d="M104.659 243.053L103.802 242.537C103.656 242.78 103.62 243.074 103.703 243.345C103.786 243.617 103.981 243.84 104.238 243.96L104.659 243.053ZM114.023 245.223L114.168 244.234L114.023 245.223ZM120.733 246.354L120.528 247.332C120.56 247.339 120.593 247.344 120.626 247.348L120.733 246.354ZM126.887 247.139L127.022 246.148L126.887 247.139ZM160.378 247.688L160.7 248.635C161.054 248.515 161.312 248.206 161.367 247.836L160.378 247.688ZM152.652 173.854L153.633 173.659C153.572 173.348 153.366 173.085 153.08 172.949L152.652 173.854ZM126.27 166.854L126.457 165.871C126.168 165.816 125.87 165.891 125.641 166.076L126.27 166.854ZM104.436 195.458L103.509 195.084C103.502 195.101 103.495 195.119 103.489 195.136L104.436 195.458ZM100.769 216.206L99.7708 216.267C99.8004 216.758 100.184 217.155 100.674 217.202L100.769 216.206ZM109.131 222.701L108.145 222.866L109.131 222.701ZM103.755 230.466L103.665 229.47C103.292 229.504 102.97 229.743 102.829 230.09C102.688 230.437 102.753 230.833 102.996 231.117L103.755 230.466ZM104.95 242.412L105.906 242.706L105.906 242.706L104.95 242.412ZM104.238 243.96C106.924 245.206 110.267 245.685 113.879 246.213L114.168 244.234C110.464 243.693 107.446 243.243 105.08 242.146L104.238 243.96ZM113.879 246.213C115.973 246.519 118.192 246.843 120.528 247.332L120.938 245.375C118.533 244.871 116.256 244.539 114.168 244.234L113.879 246.213ZM120.626 247.348C122.332 247.532 124.412 247.813 126.753 248.13L127.022 246.148C124.689 245.833 122.579 245.547 120.84 245.359L120.626 247.348ZM126.753 248.13C131.867 248.822 138.184 249.678 144.277 250.001C150.341 250.322 156.317 250.125 160.7 248.635L160.056 246.742C156.057 248.101 150.408 248.323 144.382 248.004C138.385 247.686 132.148 246.842 127.022 246.148L126.753 248.13ZM161.367 247.836C161.707 245.55 161.644 241.103 161.316 235.485C160.987 229.829 160.381 222.885 159.602 215.541C158.044 200.859 155.787 184.534 153.633 173.659L151.671 174.048C153.808 184.84 156.058 201.1 157.613 215.752C158.39 223.076 158.992 229.987 159.32 235.601C159.649 241.254 159.693 245.494 159.389 247.541L161.367 247.836ZM153.08 172.949C146.509 169.844 137.364 167.95 126.457 165.871L126.083 167.836C137.056 169.927 145.93 171.783 152.225 174.758L153.08 172.949ZM125.641 166.076C115.792 174.049 107.936 184.084 103.509 195.084L105.364 195.831C109.646 185.192 117.274 175.423 126.899 167.631L125.641 166.076ZM103.489 195.136C100.622 203.577 99.5279 212.244 99.7708 216.267L101.767 216.146C101.544 212.449 102.575 204.047 105.383 195.779L103.489 195.136ZM100.674 217.202C104.154 217.533 107.515 219.09 108.145 222.866L110.118 222.537C109.258 217.379 104.635 215.57 100.864 215.211L100.674 217.202ZM108.145 222.866C108.575 225.45 107.853 227.007 106.913 227.955C105.925 228.951 104.583 229.387 103.665 229.47L103.846 231.462C105.118 231.347 106.941 230.767 108.333 229.364C109.772 227.912 110.643 225.687 110.118 222.537L108.145 222.866ZM102.996 231.117C103.951 232.232 105.812 236.21 103.994 242.118L105.906 242.706C107.911 236.191 105.949 231.489 104.515 229.816L102.996 231.117ZM103.994 242.118C103.954 242.248 103.892 242.387 103.802 242.537L105.516 243.569C105.68 243.296 105.813 243.008 105.906 242.706L103.994 242.118ZM100.864 215.211C100.401 215.167 99.9443 215.143 99.5002 215.138L99.4744 217.137C99.8659 217.142 100.268 217.163 100.674 217.202L100.864 215.211Z" fill="black"/>
<path d="M161.828 247.015C161.583 235.627 159.31 198.074 153.345 172.563C158.949 168.273 162.686 169.938 169.625 166.104C182.432 176.104 188.173 191.229 194.178 202.854C205.788 227.313 199.117 232.898 195.113 238.563C188.472 244.623 175.311 248.498 162.774 247.985C162.25 247.963 161.84 247.54 161.828 247.015Z" fill="#EA343C"/>
<path d="M153.345 172.563L152.371 172.791C152.281 172.408 152.425 172.008 152.737 171.769L153.345 172.563ZM161.828 247.015L162.828 246.994V246.994L161.828 247.015ZM162.774 247.985L162.733 248.984L162.774 247.985ZM195.113 238.563L195.93 239.141L195.867 239.229L195.787 239.302L195.113 238.563ZM194.178 202.854L195.067 202.395L195.075 202.41L195.082 202.425L194.178 202.854ZM169.625 166.104L169.141 165.228C169.492 165.034 169.924 165.069 170.24 165.315L169.625 166.104ZM154.318 172.336C160.308 197.947 162.582 235.581 162.828 246.994L160.829 247.037C160.583 235.672 158.313 198.201 152.371 172.791L154.318 172.336ZM162.815 246.986C168.972 247.238 175.288 246.412 180.874 244.779C186.472 243.143 191.268 240.719 194.439 237.825L195.787 239.302C192.317 242.468 187.212 245.011 181.435 246.699C175.646 248.391 169.113 249.245 162.733 248.984L162.815 246.986ZM194.296 237.986C196.371 235.051 198.835 232.479 199.51 227.619C200.188 222.742 199.048 215.444 193.275 203.282L195.082 202.425C200.919 214.723 202.248 222.447 201.491 227.894C200.732 233.358 197.859 236.41 195.93 239.141L194.296 237.986ZM193.29 203.312C187.211 191.544 181.593 176.717 169.009 166.892L170.24 165.315C183.271 175.49 189.136 190.913 195.067 202.395L193.29 203.312ZM170.109 166.979C166.504 168.971 163.708 169.539 161.217 170.135C158.764 170.723 156.59 171.339 153.953 173.358L152.737 171.769C155.704 169.498 158.2 168.801 160.751 168.19C163.265 167.588 165.807 167.071 169.141 165.228L170.109 166.979ZM162.828 246.994C162.828 246.996 162.829 246.996 162.828 246.994C162.827 246.993 162.827 246.992 162.826 246.991C162.825 246.99 162.823 246.988 162.82 246.987C162.818 246.986 162.817 246.986 162.816 246.986C162.815 246.985 162.814 246.985 162.815 246.986L162.733 248.984C161.675 248.94 160.851 248.082 160.829 247.037L162.828 246.994Z" fill="black"/>
<rect x="167.008" y="167.684" width="8.86088" height="8.86088" transform="rotate(-3.7727 167.008 167.684)" fill="white"/>
<rect x="114.134" y="171.17" width="8.86088" height="8.86088" transform="rotate(-3.7727 114.134 171.17)" fill="white"/>
<rect x="131.758" y="170.008" width="8.86088" height="8.86088" transform="rotate(-3.7727 131.758 170.008)" fill="white"/>
<rect x="149.382" y="168.846" width="8.86088" height="8.86088" transform="rotate(-3.7727 149.382 168.846)" fill="white"/>
<rect x="105.292" y="171.753" width="8.86088" height="8.86088" transform="rotate(-3.7727 105.292 171.753)" fill="black"/>
<rect x="175.79" y="167.105" width="8.86088" height="8.86088" transform="rotate(-3.7727 175.79 167.105)" fill="black"/>
<rect x="122.917" y="170.591" width="8.86088" height="8.86088" transform="rotate(-3.7727 122.917 170.591)" fill="black"/>
<rect x="140.542" y="169.429" width="8.86088" height="8.86088" transform="rotate(-3.7727 140.542 169.429)" fill="black"/>
<rect x="158.166" y="168.267" width="8.86088" height="8.86088" transform="rotate(-3.7727 158.166 168.267)" fill="black"/>
<rect x="168.12" y="184.567" width="8.86088" height="8.86088" transform="rotate(-3.7727 168.12 184.567)" fill="white"/>
<rect x="115.246" y="188.054" width="8.86088" height="8.86088" transform="rotate(-3.7727 115.246 188.054)" fill="white"/>
<rect x="97.6221" y="189.117" width="8.86088" height="8.86088" transform="rotate(-3.7727 97.6221 189.117)" fill="white"/>
<rect x="185.744" y="183.405" width="8.86088" height="8.86088" transform="rotate(-3.7727 185.744 183.405)" fill="white"/>
<rect x="132.871" y="186.892" width="8.86088" height="8.86088" transform="rotate(-3.7727 132.871 186.892)" fill="white"/>
<rect x="150.495" y="185.729" width="8.86088" height="8.86088" transform="rotate(-3.7727 150.495 185.729)" fill="white"/>
<rect x="106.404" y="188.637" width="8.86088" height="8.86088" transform="rotate(-3.7727 106.404 188.637)" fill="black"/>
<rect x="176.903" y="183.988" width="8.86088" height="8.86088" transform="rotate(-3.7727 176.903 183.988)" fill="black"/>
<rect x="124.029" y="187.475" width="8.86088" height="8.86088" transform="rotate(-3.7727 124.029 187.475)" fill="black"/>
<rect x="141.653" y="186.312" width="8.86088" height="8.86088" transform="rotate(-3.7727 141.653 186.312)" fill="black"/>
<rect x="159.279" y="185.15" width="8.86088" height="8.86088" transform="rotate(-3.7727 159.279 185.15)" fill="black"/>
<rect x="158.697" y="176.309" width="8.86088" height="8.86088" transform="rotate(-3.7727 158.697 176.309)" fill="white"/>
<rect x="105.823" y="179.795" width="8.86088" height="8.86088" transform="rotate(-3.7727 105.823 179.795)" fill="white"/>
<rect x="176.322" y="175.146" width="8.86088" height="8.86088" transform="rotate(-3.7727 176.322 175.146)" fill="white"/>
<rect x="123.448" y="178.633" width="8.86088" height="8.86088" transform="rotate(-3.7727 123.448 178.633)" fill="white"/>
<rect x="141.072" y="177.471" width="8.86088" height="8.86088" transform="rotate(-3.7727 141.072 177.471)" fill="white"/>
<rect x="96.9814" y="180.378" width="8.86088" height="8.86088" transform="rotate(-3.7727 96.9814 180.378)" fill="black"/>
<rect x="167.479" y="175.729" width="8.86088" height="8.86088" transform="rotate(-3.7727 167.479 175.729)" fill="black"/>
<rect x="114.606" y="179.216" width="8.86088" height="8.86088" transform="rotate(-3.7727 114.606 179.216)" fill="black"/>
<rect x="185.105" y="174.567" width="8.86088" height="8.86088" transform="rotate(-3.7727 185.105 174.567)" fill="black"/>
<rect x="132.23" y="178.054" width="8.86088" height="8.86088" transform="rotate(-3.7727 132.23 178.054)" fill="black"/>
<rect x="149.855" y="176.892" width="8.86088" height="8.86088" transform="rotate(-3.7727 149.855 176.892)" fill="black"/>
<rect x="159.811" y="193.192" width="8.86088" height="8.86088" transform="rotate(-3.7727 159.811 193.192)" fill="white"/>
<rect x="106.937" y="196.679" width="8.86088" height="8.86088" transform="rotate(-3.7727 106.937 196.679)" fill="white"/>
<rect x="177.435" y="192.03" width="8.86088" height="8.86088" transform="rotate(-3.7727 177.435 192.03)" fill="white"/>
<rect x="124.562" y="195.516" width="8.86088" height="8.86088" transform="rotate(-3.7727 124.562 195.516)" fill="white"/>
<rect x="142.186" y="194.354" width="8.86088" height="8.86088" transform="rotate(-3.7727 142.186 194.354)" fill="white"/>
<rect x="98.0947" y="197.261" width="8.86088" height="8.86088" transform="rotate(-3.7727 98.0947 197.261)" fill="black"/>
<rect x="168.593" y="192.612" width="8.86088" height="8.86088" transform="rotate(-3.7727 168.593 192.612)" fill="black"/>
<rect x="115.72" y="196.099" width="8.86088" height="8.86088" transform="rotate(-3.7727 115.72 196.099)" fill="black"/>
<rect x="186.218" y="191.45" width="8.86088" height="8.86088" transform="rotate(-3.7727 186.218 191.45)" fill="black"/>
<rect x="133.344" y="194.937" width="8.86088" height="8.86088" transform="rotate(-3.7727 133.344 194.937)" fill="black"/>
<rect x="150.969" y="193.774" width="8.86088" height="8.86088" transform="rotate(-3.7727 150.969 193.774)" fill="black"/>
<path d="M100.345 206.188L193.845 199.688" stroke="black" stroke-width="2"/>
<path d="M154.095 248.751C154.786 248.544 151.495 198.626 149.595 173.476C152.187 172.525 157.854 170.831 159.79 171.661C162.209 172.698 168.654 247.67 166.407 248.188C164.161 248.707 153.231 249.01 154.095 248.751Z" fill="#FAF87D" stroke="black" stroke-width="2"/>
<path d="M99.1824 166.442L98.8179 166.412L98.5203 166.625C95.6259 168.692 92.871 170.473 90.199 172.2C80.719 178.328 72.2823 183.781 62.3607 198.972L63.198 199.519L62.3607 198.972C61.9521 199.598 61.878 200.507 62.4304 201.204C64.0773 203.283 66.9512 204.629 70.224 205.512C73.532 206.404 77.4213 206.868 81.296 207.059C89.0362 207.439 96.8984 206.735 100.294 206.043L100.902 205.92L101.061 205.32C103.185 197.324 104.923 191.757 107.739 186.727C110.548 181.711 114.461 177.17 121.018 171.309L123.066 169.478L120.32 169.564C116.45 169.685 113.549 169.114 110.418 168.401C110.093 168.327 109.765 168.252 109.434 168.175C106.563 167.513 103.405 166.784 99.1824 166.442ZM63.6334 203.096L62.7761 202.548L62.2427 203.414C61.4989 204.623 60.7686 206.648 60.3248 208.406C60.1008 209.294 59.9362 210.165 59.8845 210.879C59.859 211.231 59.8575 211.589 59.9086 211.909C59.9513 212.175 60.0672 212.668 60.4944 212.988C60.6361 213.095 60.799 213.164 60.8846 213.2C60.9974 213.246 61.13 213.294 61.2743 213.343C61.5647 213.441 61.9464 213.555 62.4023 213.68C63.3167 213.933 64.567 214.242 66.0607 214.575C69.0489 215.24 73.0374 216.003 77.3029 216.586C81.5646 217.167 86.1263 217.572 90.2533 217.513C94.3464 217.453 98.1495 216.938 100.801 215.578L101.344 215.299V214.688V214.677C101.344 211.576 101.344 210.725 101.592 207.387L101.679 206.208L100.501 206.318C77.752 208.443 69.5691 206.895 63.6334 203.096Z" fill="#F02E44" stroke="black" stroke-width="2"/>
<mask id="mask0_1521_12503" style="mask-type:alpha" maskUnits="userSpaceOnUse" x="59" y="168" width="63" height="49">
<path d="M63.1986 199.518C75.7568 180.263 84.4335 177.557 97.7257 168.062C106.977 168.813 113.352 170.814 121.352 170.563C108.152 182.363 104.345 189.063 100.095 205.063C93.4972 206.407 68.9875 207.871 63.2146 200.583C62.9723 200.277 62.9854 199.845 63.1986 199.518Z" fill="#F02E44"/>
<path d="M60.0947 211.188C59.2947 210.588 61.7614 206.105 63.0947 203.938C69.3447 207.938 77.8447 209.438 100.595 207.313C100.345 210.688 100.345 211.563 100.345 214.688C90.5947 219.688 61.0947 211.938 60.0947 211.188Z" fill="#F02E44"/>
</mask>
<g mask="url(#mask0_1521_12503)">
<path d="M95.7822 170.688C84.8447 178.251 65.2572 196.263 63.6572 204.063" stroke="white" stroke-width="5"/>
</g>
<path d="M90.0947 206.813L89.3447 216.813" stroke="black" stroke-width="2"/>
<path d="M184.31 166.607C184.607 166.516 184.93 166.569 185.183 166.75C191.976 171.602 198.192 179.168 203.032 187.06C207.873 194.951 211.397 203.264 212.746 209.672C212.844 210.136 212.776 210.639 212.502 211.075C211.366 212.876 208.889 215.092 206.271 216.375C204.954 217.021 203.52 217.471 202.139 217.465C200.724 217.458 199.363 216.966 198.328 215.752C198.216 215.621 198.14 215.463 198.107 215.293C195.388 201.203 186.185 181.18 173.185 169.559C172.872 169.279 172.767 168.833 172.923 168.442C173.079 168.052 173.463 167.801 173.883 167.814C177.873 167.939 179.788 167.831 181.024 167.611C181.63 167.503 182.085 167.366 182.567 167.201C182.701 167.154 182.844 167.104 182.995 167.05C183.373 166.915 183.806 166.761 184.31 166.607Z" fill="#F02E44" stroke="black" stroke-width="2" stroke-linejoin="round"/>
<path d="M181.021 164.481C181.225 164.467 181.428 164.516 181.604 164.621C188.361 168.674 195.111 175.207 200.511 182.03C205.899 188.839 210.036 196.056 211.46 201.527L210.493 201.78L211.46 201.527C211.6 202.065 211.513 202.666 211.135 203.149C209.916 204.707 207.221 206.788 204.432 208.079C203.028 208.729 201.527 209.214 200.117 209.304C198.698 209.395 197.27 209.087 196.192 208.025C196.096 207.931 196.021 207.819 195.97 207.695C190.719 195.005 181.736 176.617 171.426 166.725C171.128 166.439 171.037 165.999 171.196 165.618C171.355 165.237 171.732 164.993 172.145 165.004C173.192 165.031 173.956 165.053 174.518 165.069C175.034 165.084 175.379 165.094 175.614 165.099C175.688 165.1 175.745 165.101 175.79 165.102C176.043 164.985 176.355 164.927 176.765 164.867C177.455 164.765 178.705 164.639 181.021 164.481ZM175.461 165.317C175.466 165.312 175.471 165.308 175.476 165.304C175.454 165.322 175.447 165.329 175.461 165.317Z" fill="#F02E44" stroke="black" stroke-width="2" stroke-linejoin="round"/>
<mask id="mask1_1521_12503" style="mask-type:alpha" maskUnits="userSpaceOnUse" x="174" y="168" width="37" height="41">
<path d="M210.493 201.779C207.744 191.233 194.353 173.741 184.852 168.188C182.239 168.648 182.976 169.899 174.977 169.688C185.453 179.74 190.1 195.384 195.35 208.073C198.59 211.265 208.043 205.391 210.344 202.531C210.516 202.318 210.562 202.044 210.493 201.779Z" fill="#F02E44"/>
</mask>
<g mask="url(#mask1_1521_12503)">
<path d="M185.845 169.438C191.928 173.938 205.845 188.538 211.845 204.938" stroke="white" stroke-width="5" stroke-linejoin="round"/>
</g>
<path d="M136.466 227.98C136.734 227.617 137.146 226.992 137.436 226.261C137.919 225.042 138.172 223.234 136.673 221.741L136.673 221.741C135.216 220.289 133.495 220.41 132.289 220.818C131.692 221.02 131.186 221.299 130.834 221.523C130.787 221.553 130.742 221.582 130.7 221.61C130.391 221.521 130.081 221.454 129.772 221.405C129.248 221.291 128.66 221.253 128.23 221.24C128.003 221.234 127.805 221.234 127.663 221.235C127.593 221.236 127.535 221.237 127.495 221.239L127.447 221.24L127.442 221.24C127.129 221.244 126.812 221.268 126.495 221.312C126.456 221.278 126.416 221.242 126.372 221.205C126.055 220.934 125.594 220.587 125.031 220.303C123.894 219.73 122.207 219.369 120.561 220.604C118.869 221.872 118.866 223.698 119.173 224.972C119.357 225.735 119.666 226.394 119.891 226.809C119.845 226.916 119.772 227.03 119.658 227.168C119.542 227.309 119.443 227.411 119.321 227.537C119.224 227.637 119.113 227.752 118.967 227.913C118.371 228.57 117.752 229.456 117.646 230.963C117.541 232.45 117.988 233.879 119.061 234.966C120.124 236.044 121.705 236.692 123.703 236.832L124.791 236.909C124.871 236.987 124.964 237.071 125.073 237.155C125.469 237.464 126.061 237.784 126.86 237.876C126.874 237.878 126.891 237.881 126.912 237.883C126.96 237.89 127.025 237.898 127.111 237.906C127.278 237.923 127.522 237.942 127.852 237.955C128.702 238.011 129.373 237.78 129.837 237.522C129.974 237.446 130.092 237.367 130.193 237.293L131.276 237.369C133.274 237.51 134.93 237.09 136.134 236.172C137.348 235.246 137.991 233.895 138.096 232.409C138.208 230.904 137.723 229.94 137.226 229.205C137.104 229.023 137.009 228.894 136.928 228.781C136.825 228.64 136.743 228.525 136.647 228.37C136.553 228.216 136.497 228.093 136.466 227.98ZM129.595 222.39L129.597 222.365L129.603 222.339L129.595 222.39Z" fill="#FAF87D" stroke="black" stroke-width="2"/>
<path d="M92.3447 171.187L92.8447 162.438C119.47 167.563 152.72 167.251 187.532 163.438C187.657 166.626 187.595 168.188 187.72 169.813C164.595 178.938 116.511 174.854 92.3447 171.187Z" fill="#EA343C" stroke="black" stroke-width="2"/>
<path d="M161.095 165.688L141.595 166.188C141.47 169.438 141.595 172.438 141.345 175.438C144.095 175.688 155.928 175.105 162.345 174.688L161.095 165.688Z" stroke="black" stroke-width="2"/>
<circle cx="85.8262" cy="211.74" r="1.87207" fill="black"/>
<rect x="128.528" y="245.942" width="6.77121" height="11.4002" rx="2" transform="rotate(4.59956 128.528 245.942)" fill="#EA343C" stroke="black" stroke-width="2"/>
<path d="M184.697 242.102C185.798 242.013 186.763 242.834 186.851 243.935L187.445 251.312C187.533 252.413 186.713 253.377 185.612 253.465L182.849 253.688C181.748 253.776 180.784 252.956 180.695 251.855L180.102 244.478C180.013 243.377 180.834 242.413 181.935 242.324L184.697 242.102Z" fill="#EA343C" stroke="black" stroke-width="2"/>
<circle cx="206.976" cy="211.319" r="1.49414" fill="black"/>
<path d="M201.845 208.938L204.595 216.688" stroke="black" stroke-width="2" stroke-linejoin="round"/>
</svg>
