<svg width="156" height="98" viewBox="0 0 156 98" fill="none" xmlns="http://www.w3.org/2000/svg">
<path fill-rule="evenodd" clip-rule="evenodd" d="M112.853 4.58179C122.049 14.9985 139.784 41.1318 141.201 58.3318C142.973 79.8318 141.201 89.8318 110.322 94.5818C86.2317 98.2876 48.9501 94.2107 32.5625 88.2869C35.7005 87.8911 38.4346 87.1223 40.6351 86.17C43.2019 85.0592 45.1573 83.6478 46.105 82.1834C48.4118 78.6187 48.1812 75.6152 47.1079 73.314C46.5394 72.0953 45.7139 71.0641 45.0177 70.2996C46.0254 69.9815 47.1383 69.4583 48.1078 68.6586C49.8173 67.2487 51.0321 65.0083 50.4845 61.7627C49.6787 56.9873 45.6138 55.0857 41.9948 54.5441C41.8108 47.6458 44.02 32.165 54.5003 19.5628C54.8387 19.1559 54.7996 18.5601 54.4222 18.2003C55.6032 16.9022 56.4155 15.6611 56.9109 14.4961C60.7162 9.62194 63.8085 6.63458 65.1333 6.11114C66.4279 5.59967 68.406 6.52573 71.2451 7.85481C75.9084 10.0379 82.8945 13.3084 92.9888 13.0814C101.593 12.5812 109.187 9.58139 112.853 4.58179Z" fill="#EA343C"/>
<path d="M141.201 58.3318L142.198 58.2497L141.201 58.3318ZM112.853 4.58179L113.603 3.91997C113.403 3.69308 113.11 3.56911 112.808 3.58281C112.506 3.59651 112.226 3.7464 112.047 3.99047L112.853 4.58179ZM110.322 94.5818L110.17 93.5934L110.322 94.5818ZM32.5625 88.2869L32.4374 87.2948C31.9788 87.3526 31.6197 87.7171 31.5686 88.1765C31.5176 88.6358 31.7879 89.0703 32.2225 89.2274L32.5625 88.2869ZM40.6351 86.17L40.2379 85.2523H40.2379L40.6351 86.17ZM46.105 82.1834L46.9445 82.7267H46.9445L46.105 82.1834ZM47.1079 73.314L46.2016 73.7367L47.1079 73.314ZM45.0177 70.2996L44.7167 69.3459C44.3914 69.4486 44.1408 69.71 44.0521 70.0394C43.9633 70.3688 44.0486 70.7206 44.2783 70.9729L45.0177 70.2996ZM48.1078 68.6586L48.7441 69.4301H48.7441L48.1078 68.6586ZM50.4845 61.7627L51.4706 61.5963L50.4845 61.7627ZM41.9948 54.5441L40.9951 54.5708C41.008 55.0556 41.3671 55.4613 41.8468 55.5331L41.9948 54.5441ZM54.5003 19.5628L55.2692 20.2022L55.2692 20.2022L54.5003 19.5628ZM54.4222 18.2003L53.6825 17.5273C53.317 17.9291 53.3391 18.5492 53.7322 18.924L54.4222 18.2003ZM56.9109 14.4961L56.1227 13.8807C56.0691 13.9494 56.0247 14.0247 55.9906 14.1048L56.9109 14.4961ZM65.1333 6.11114L65.5008 7.04118V7.04118L65.1333 6.11114ZM71.2451 7.85481L71.6691 6.94914L71.6691 6.94914L71.2451 7.85481ZM92.9888 13.0814L93.0113 14.0811C93.0232 14.0809 93.035 14.0804 93.0468 14.0797L92.9888 13.0814ZM142.198 58.2497C141.47 49.4162 136.583 38.4206 130.81 28.4134C125.02 18.3756 118.249 9.18287 113.603 3.91997L112.104 5.24361C116.654 10.3974 123.348 19.4796 129.078 29.4127C134.826 39.3763 139.515 50.0474 140.204 58.4139L142.198 58.2497ZM110.474 95.5702C125.939 93.1913 134.484 89.4599 138.822 83.3148C143.144 77.1932 143.079 68.9432 142.198 58.2497L140.204 58.4139C141.095 69.2204 141.03 76.7204 137.189 82.1613C133.364 87.5786 125.584 91.2223 110.17 93.5934L110.474 95.5702ZM32.2225 89.2274C40.5335 92.2316 54.0484 94.7418 68.464 96.0414C82.8881 97.3419 98.3194 97.4399 110.474 95.5702L110.17 93.5934C98.2346 95.4295 82.9798 95.342 68.6436 94.0495C54.2987 92.7562 40.979 90.266 32.9025 87.3465L32.2225 89.2274ZM40.2379 85.2523C38.1314 86.1639 35.4899 86.9097 32.4374 87.2948L32.6876 89.2791C35.9112 88.8724 38.7378 88.0808 41.0322 87.0878L40.2379 85.2523ZM45.2654 81.6401C44.474 82.863 42.7293 84.174 40.2379 85.2523L41.0322 87.0878C43.6744 85.9443 45.8405 84.4326 46.9445 82.7267L45.2654 81.6401ZM46.2016 73.7367C47.132 75.7315 47.3819 78.3695 45.2654 81.6401L46.9445 82.7267C49.4417 78.8678 49.2304 75.499 48.0142 72.8914L46.2016 73.7367ZM44.2783 70.9729C44.9442 71.7041 45.6943 72.6491 46.2016 73.7367L48.0142 72.8914C47.3845 71.5414 46.4836 70.4242 45.757 69.6262L44.2783 70.9729ZM47.4715 67.8872C46.623 68.5871 45.6324 69.0569 44.7167 69.3459L45.3186 71.2532C46.4184 70.9061 47.6536 70.3295 48.7441 69.4301L47.4715 67.8872ZM49.4984 61.9291C49.9821 64.7957 48.9263 66.6873 47.4715 67.8872L48.7441 69.4301C50.7083 67.81 52.0821 65.2209 51.4706 61.5963L49.4984 61.9291ZM41.8468 55.5331C45.3023 56.0502 48.8009 57.7951 49.4984 61.9291L51.4706 61.5963C50.5565 56.1794 45.9252 54.1211 42.1428 53.5551L41.8468 55.5331ZM53.7314 18.9234C43.0536 31.7631 40.8067 47.5053 40.9951 54.5708L42.9944 54.5175C42.8149 47.7862 44.9865 32.5668 55.2692 20.2022L53.7314 18.9234ZM53.7322 18.924C53.7324 18.9243 53.7318 18.9235 53.7314 18.9226C53.7312 18.9222 53.7314 18.9226 53.7315 18.9236C53.7315 18.9245 53.7313 18.9246 53.7316 18.9238C53.7317 18.9233 53.7319 18.9229 53.7321 18.9225C53.7323 18.9221 53.7323 18.9224 53.7314 18.9234L55.2692 20.2022C55.9462 19.3882 55.8677 18.1968 55.1123 17.4765L53.7322 18.924ZM55.9906 14.1048C55.5484 15.1447 54.8056 16.2929 53.6825 17.5273L55.1619 18.8732C56.4007 17.5115 57.2825 16.1775 57.8311 14.8875L55.9906 14.1048ZM64.7659 5.18109C64.2916 5.36849 63.7553 5.73027 63.1989 6.17674C62.6255 6.63689 61.9675 7.23896 61.2434 7.96679C59.794 9.4235 58.0432 11.4207 56.1227 13.8807L57.6991 15.1115C59.5839 12.6973 61.2818 10.7638 62.6612 9.37741C63.3514 8.6837 63.9527 8.13615 64.4506 7.73663C64.9656 7.32343 65.3127 7.1155 65.5008 7.04118L64.7659 5.18109ZM71.6691 6.94914C70.2695 6.29394 69.004 5.69975 67.9234 5.34314C66.8692 4.99525 65.7582 4.78903 64.7659 5.18109L65.5008 7.04118C65.803 6.92178 66.3283 6.92285 67.2966 7.24239C68.2385 7.55322 69.3816 8.08659 70.8211 8.76048L71.6691 6.94914ZM92.9663 12.0816C83.1167 12.3031 76.3087 9.12114 71.6691 6.94914L70.8211 8.76048C75.5082 10.9547 82.6723 14.3136 93.0113 14.0811L92.9663 12.0816ZM112.047 3.99047C108.636 8.6422 101.403 11.5905 92.9308 12.0831L93.0468 14.0797C101.784 13.5718 109.739 10.5206 113.66 5.17311L112.047 3.99047Z" fill="black"/>
<path fill-rule="evenodd" clip-rule="evenodd" d="M46.1564 82.2807C48.6823 83.4527 51.8629 83.9172 55.5205 84.4514C57.6122 84.7569 59.8598 85.0852 62.2302 85.5816C63.9526 85.7674 66.0482 86.051 68.3848 86.3673C78.6245 87.7534 93.494 89.7662 101.875 86.9165C103.165 78.2514 98.4401 34.7482 94.1498 13.0816C87.7172 10.0415 78.7076 8.1665 67.7677 6.08154C58.0303 13.9642 50.2885 23.8662 45.9337 34.6856C43.0961 43.04 42.0333 51.5743 42.2664 55.4344C45.892 55.7795 49.8841 57.4626 50.6286 61.9294C51.5843 67.6635 47.443 69.4953 45.2529 69.6944C46.4475 71.0881 48.3588 75.4285 46.4475 81.6404C46.3812 81.8559 46.2836 82.0696 46.1564 82.2807Z" fill="#EA343C"/>
<path d="M46.1564 82.2807L45.2998 81.7648C45.1533 82.008 45.1171 82.302 45.2003 82.5735C45.2834 82.845 45.478 83.0683 45.7355 83.1878L46.1564 82.2807ZM55.5205 84.4514L55.665 83.4619L55.5205 84.4514ZM62.2302 85.5816L62.0253 86.5603C62.0576 86.5671 62.0902 86.5723 62.123 86.5758L62.2302 85.5816ZM68.3848 86.3673L68.519 85.3764L68.3848 86.3673ZM101.875 86.9165L102.197 87.8633C102.552 87.7427 102.809 87.4342 102.864 87.0637L101.875 86.9165ZM94.1498 13.0816L95.1308 12.8873C95.0692 12.5763 94.8638 12.3129 94.5771 12.1775L94.1498 13.0816ZM67.7677 6.08154L67.9549 5.09922C67.6658 5.04413 67.3672 5.11915 67.1385 5.3043L67.7677 6.08154ZM45.9337 34.6856L45.006 34.3122C44.9991 34.3293 44.9927 34.3466 44.9868 34.364L45.9337 34.6856ZM42.2664 55.4344L41.2682 55.4947C41.2979 55.9864 41.6812 56.3832 42.1716 56.4299L42.2664 55.4344ZM50.6286 61.9294L49.6422 62.0938L50.6286 61.9294ZM45.2529 69.6944L45.1623 68.6985C44.7897 68.7324 44.4671 68.9714 44.3264 69.3181C44.1856 69.6648 44.2501 70.0611 44.4936 70.3452L45.2529 69.6944ZM46.4475 81.6404L47.4033 81.9345L47.4033 81.9345L46.4475 81.6404ZM45.7355 83.1878C48.4213 84.434 51.7641 84.9134 55.376 85.4409L55.665 83.4619C51.9617 82.9211 48.9432 82.4714 46.5773 81.3736L45.7355 83.1878ZM55.376 85.4409C57.4707 85.7469 59.6892 86.0712 62.0253 86.5603L62.4352 84.6028C60.0304 84.0992 57.7536 83.767 55.665 83.4619L55.376 85.4409ZM62.123 86.5758C63.8289 86.7598 65.9095 87.0414 68.2507 87.3583L68.519 85.3764C66.1868 85.0607 64.0762 84.7749 62.3375 84.5873L62.123 86.5758ZM68.2507 87.3583C73.3643 88.0505 79.6816 88.9062 85.774 89.2289C91.8379 89.5502 97.8141 89.3535 102.197 87.8633L101.553 85.9697C97.5549 87.3292 91.9058 87.551 85.8798 87.2317C79.8822 86.914 73.645 86.0703 68.519 85.3764L68.2507 87.3583ZM102.864 87.0637C103.204 84.7782 103.141 80.3307 102.814 74.7129C102.484 69.0566 101.879 62.1126 101.099 54.7691C99.5416 40.0872 97.2841 23.7619 95.1308 12.8873L93.1689 13.2758C95.3059 24.068 97.5559 40.3276 99.1106 54.9801C99.8876 62.3039 100.49 69.2146 100.817 74.8293C101.147 80.4825 101.191 84.7223 100.886 86.7693L102.864 87.0637ZM94.5771 12.1775C88.0069 9.07237 78.8617 7.17787 67.9549 5.09922L67.5805 7.06386C78.5535 9.15514 87.4274 11.0106 93.7226 13.9857L94.5771 12.1775ZM67.1385 5.3043C57.2894 13.2774 49.4336 23.3122 45.006 34.3122L46.8613 35.059C51.1435 24.4202 58.7712 14.651 68.3969 6.85879L67.1385 5.3043ZM44.9868 34.364C42.1199 42.8047 41.0253 51.4715 41.2682 55.4947L43.2646 55.3742C43.0413 51.677 44.0722 43.2754 46.8805 35.0072L44.9868 34.364ZM42.1716 56.4299C45.6517 56.7611 49.0129 58.318 49.6422 62.0938L51.615 61.765C50.7554 56.6073 46.1323 54.7979 42.3611 54.4389L42.1716 56.4299ZM49.6422 62.0938C50.0728 64.6777 49.3504 66.2354 48.4104 67.1834C47.4229 68.1791 46.0803 68.615 45.1623 68.6985L45.3434 70.6903C46.6155 70.5746 48.4386 69.9952 49.8305 68.5917C51.2696 67.1405 52.14 64.9153 51.615 61.765L49.6422 62.0938ZM44.4936 70.3452C45.4488 71.4595 47.3097 75.4377 45.4917 81.3463L47.4033 81.9345C49.4079 75.4193 47.4462 70.7166 46.0121 69.0436L44.4936 70.3452ZM45.4917 81.3463C45.4519 81.4757 45.3898 81.6153 45.2998 81.7648L47.0131 82.7966C47.1773 82.5239 47.3104 82.2362 47.4033 81.9345L45.4917 81.3463ZM42.3611 54.4389C41.8984 54.3949 41.4418 54.3713 40.9977 54.3656L40.9718 56.3654C41.3633 56.3705 41.7653 56.3912 42.1716 56.4299L42.3611 54.4389Z" fill="black"/>
<path d="M103.325 86.2432C103.08 74.8547 100.807 37.3021 94.8418 11.7915C100.446 7.50146 104.183 9.1665 111.122 5.33154C123.929 15.3315 129.67 30.4565 135.675 42.0815C147.285 66.5415 140.614 72.1265 136.61 77.7915C129.969 83.8515 116.808 87.7261 104.271 87.2127C103.747 87.1912 103.337 86.7676 103.325 86.2432Z" fill="#EA343C"/>
<path d="M94.8418 11.7915L93.8681 12.0192C93.7785 11.6363 93.9217 11.2365 94.234 10.9974L94.8418 11.7915ZM103.325 86.2432L104.325 86.2216V86.2216L103.325 86.2432ZM104.271 87.2127L104.23 88.2119L104.271 87.2127ZM136.61 77.7915L137.427 78.3686L137.364 78.4571L137.284 78.5302L136.61 77.7915ZM135.675 42.0815L136.564 41.6226L136.572 41.6375L136.579 41.6527L135.675 42.0815ZM111.122 5.33154L110.638 4.45631C110.989 4.26248 111.422 4.29674 111.737 4.54335L111.122 5.33154ZM95.8155 11.5638C101.805 37.1755 104.079 74.8095 104.325 86.2216L102.326 86.2647C102.08 74.8999 99.8099 37.4288 93.8681 12.0192L95.8155 11.5638ZM104.312 86.2135C110.469 86.4657 116.785 85.6396 122.371 84.0073C127.969 82.3715 132.765 79.9466 135.936 77.0528L137.284 78.5302C133.814 81.6964 128.709 84.2388 122.932 85.927C117.143 87.6186 110.61 88.4731 104.23 88.2119L104.312 86.2135ZM135.794 77.2144C137.868 74.2795 140.332 71.7066 141.007 66.847C141.685 61.9703 140.545 54.6724 134.772 42.5103L136.579 41.6527C142.416 53.9506 143.745 61.6753 142.988 67.1222C142.229 72.5864 139.356 75.6385 137.427 78.3686L135.794 77.2144ZM134.787 42.5405C128.708 30.7718 123.091 15.9453 110.507 6.11974L111.737 4.54335C124.768 14.7177 130.633 30.1413 136.564 41.6226L134.787 42.5405ZM111.606 6.20678C108.001 8.19882 105.205 8.76672 102.714 9.36336C100.261 9.95103 98.0866 10.567 95.4496 12.5856L94.234 10.9974C97.2014 8.72595 99.6975 8.02944 102.248 7.41838C104.762 6.81628 107.304 6.29923 110.638 4.45631L111.606 6.20678ZM104.325 86.2216C104.325 86.2244 104.326 86.2242 104.325 86.2225C104.325 86.2213 104.324 86.2202 104.323 86.2191C104.322 86.2179 104.32 86.2164 104.317 86.2151C104.315 86.2145 104.314 86.214 104.313 86.2138C104.312 86.2135 104.311 86.2135 104.312 86.2135L104.23 88.2119C103.172 88.1685 102.348 87.31 102.326 86.2647L104.325 86.2216Z" fill="black"/>
<rect x="108.505" y="6.91187" width="8.86088" height="8.86088" transform="rotate(-3.7727 108.505 6.91187)" fill="white"/>
<rect x="55.6309" y="10.3982" width="8.86088" height="8.86088" transform="rotate(-3.7727 55.6309 10.3982)" fill="white"/>
<rect x="73.2549" y="9.23633" width="8.86088" height="8.86088" transform="rotate(-3.7727 73.2549 9.23633)" fill="white"/>
<rect x="90.8789" y="8.07422" width="8.86088" height="8.86088" transform="rotate(-3.7727 90.8789 8.07422)" fill="white"/>
<rect x="46.7891" y="10.9812" width="8.86088" height="8.86088" transform="rotate(-3.7727 46.7891 10.9812)" fill="black"/>
<rect x="117.287" y="6.33252" width="8.86088" height="8.86088" transform="rotate(-3.7727 117.287 6.33252)" fill="black"/>
<rect x="64.4141" y="9.81909" width="8.86088" height="8.86088" transform="rotate(-3.7727 64.4141 9.81909)" fill="black"/>
<rect x="82.0391" y="8.65698" width="8.86088" height="8.86088" transform="rotate(-3.7727 82.0391 8.65698)" fill="black"/>
<rect x="99.6631" y="7.49463" width="8.86088" height="8.86088" transform="rotate(-3.7727 99.6631 7.49463)" fill="black"/>
<rect x="109.617" y="23.7947" width="8.86088" height="8.86088" transform="rotate(-3.7727 109.617 23.7947)" fill="white"/>
<rect x="56.7432" y="27.2817" width="8.86088" height="8.86088" transform="rotate(-3.7727 56.7432 27.2817)" fill="white"/>
<rect x="39.1191" y="28.3442" width="8.86088" height="8.86088" transform="rotate(-3.7727 39.1191 28.3442)" fill="white"/>
<rect x="127.241" y="22.6323" width="8.86088" height="8.86088" transform="rotate(-3.7727 127.241 22.6323)" fill="white"/>
<rect x="74.3682" y="26.1191" width="8.86088" height="8.86088" transform="rotate(-3.7727 74.3682 26.1191)" fill="white"/>
<rect x="91.9922" y="24.957" width="8.86088" height="8.86088" transform="rotate(-3.7727 91.9922 24.957)" fill="white"/>
<rect x="47.9014" y="27.8643" width="8.86088" height="8.86088" transform="rotate(-3.7727 47.9014 27.8643)" fill="black"/>
<rect x="118.4" y="23.2156" width="8.86088" height="8.86088" transform="rotate(-3.7727 118.4 23.2156)" fill="black"/>
<rect x="65.5264" y="26.7021" width="8.86088" height="8.86088" transform="rotate(-3.7727 65.5264 26.7021)" fill="black"/>
<rect x="83.1504" y="25.54" width="8.86088" height="8.86088" transform="rotate(-3.7727 83.1504 25.54)" fill="black"/>
<rect x="100.776" y="24.3777" width="8.86088" height="8.86088" transform="rotate(-3.7727 100.776 24.3777)" fill="black"/>
<rect x="100.194" y="15.5366" width="8.86088" height="8.86088" transform="rotate(-3.7727 100.194 15.5366)" fill="white"/>
<rect x="47.3203" y="19.0229" width="8.86088" height="8.86088" transform="rotate(-3.7727 47.3203 19.0229)" fill="white"/>
<rect x="117.819" y="14.3743" width="8.86088" height="8.86088" transform="rotate(-3.7727 117.819 14.3743)" fill="white"/>
<rect x="64.9453" y="17.8608" width="8.86088" height="8.86088" transform="rotate(-3.7727 64.9453 17.8608)" fill="white"/>
<rect x="82.5693" y="16.6987" width="8.86088" height="8.86088" transform="rotate(-3.7727 82.5693 16.6987)" fill="white"/>
<rect x="38.4785" y="19.6062" width="8.86088" height="8.86088" transform="rotate(-3.7727 38.4785 19.6062)" fill="black"/>
<rect x="108.977" y="14.9573" width="8.86088" height="8.86088" transform="rotate(-3.7727 108.977 14.9573)" fill="black"/>
<rect x="56.1035" y="18.4438" width="8.86088" height="8.86088" transform="rotate(-3.7727 56.1035 18.4438)" fill="black"/>
<rect x="126.603" y="13.7952" width="8.86088" height="8.86088" transform="rotate(-3.7727 126.603 13.7952)" fill="black"/>
<rect x="73.7275" y="17.2817" width="8.86088" height="8.86088" transform="rotate(-3.7727 73.7275 17.2817)" fill="black"/>
<rect x="91.3525" y="16.1194" width="8.86088" height="8.86088" transform="rotate(-3.7727 91.3525 16.1194)" fill="black"/>
<rect x="101.308" y="32.4194" width="8.86088" height="8.86088" transform="rotate(-3.7727 101.308 32.4194)" fill="white"/>
<rect x="48.4336" y="35.9062" width="8.86088" height="8.86088" transform="rotate(-3.7727 48.4336 35.9062)" fill="white"/>
<rect x="118.932" y="31.2573" width="8.86088" height="8.86088" transform="rotate(-3.7727 118.932 31.2573)" fill="white"/>
<rect x="66.0586" y="34.7439" width="8.86088" height="8.86088" transform="rotate(-3.7727 66.0586 34.7439)" fill="white"/>
<rect x="83.6826" y="33.5818" width="8.86088" height="8.86088" transform="rotate(-3.7727 83.6826 33.5818)" fill="white"/>
<rect x="39.5918" y="36.4893" width="8.86088" height="8.86088" transform="rotate(-3.7727 39.5918 36.4893)" fill="black"/>
<rect x="110.09" y="31.8403" width="8.86088" height="8.86088" transform="rotate(-3.7727 110.09 31.8403)" fill="black"/>
<rect x="57.2168" y="35.3271" width="8.86088" height="8.86088" transform="rotate(-3.7727 57.2168 35.3271)" fill="black"/>
<rect x="127.715" y="30.6782" width="8.86088" height="8.86088" transform="rotate(-3.7727 127.715 30.6782)" fill="black"/>
<rect x="74.8408" y="34.165" width="8.86088" height="8.86088" transform="rotate(-3.7727 74.8408 34.165)" fill="black"/>
<rect x="92.4658" y="33.0024" width="8.86088" height="8.86088" transform="rotate(-3.7727 92.4658 33.0024)" fill="black"/>
<path d="M41.8418 45.4165L135.342 38.9165" stroke="black" stroke-width="2"/>
<path d="M95.5918 87.979C96.283 87.7716 92.9926 37.854 91.0918 12.7036C93.6838 11.7529 99.3515 10.0589 101.287 10.8886C103.706 11.9257 110.151 86.8979 107.904 87.4165C105.658 87.9351 94.7278 88.2383 95.5918 87.979Z" fill="#FAF87D" stroke="black" stroke-width="2"/>
<path d="M40.6795 5.66978L40.315 5.6402L40.0174 5.85277C37.123 7.92021 34.3681 9.70093 31.696 11.4281C22.216 17.5557 13.7794 23.0089 3.85779 38.2001L4.69504 38.7469L3.85779 38.2001C3.44919 38.8257 3.37512 39.7348 3.92742 40.432C5.57439 42.5111 8.4483 43.8573 11.721 44.7401C15.0291 45.6325 18.9184 46.0965 22.7931 46.2869C30.5333 46.6674 38.3955 45.9631 41.791 45.2714L42.3987 45.1476L42.5579 44.5482C44.6819 36.5518 46.4203 30.9852 49.2363 25.955C52.0446 20.9386 55.9583 16.3984 62.5151 10.537L64.5633 8.70606L61.8174 8.79199C57.9466 8.91312 55.0458 8.34226 51.9151 7.62936C51.59 7.55535 51.2624 7.47975 50.9309 7.40327C48.0604 6.74105 44.9022 6.01246 40.6795 5.66978ZM5.13046 42.3242L4.27318 41.7756L3.73975 42.6424C2.99594 43.8511 2.26571 45.8759 1.82187 47.6343C1.5979 48.5216 1.43331 49.3935 1.38162 50.1067C1.35607 50.4592 1.35452 50.8172 1.40564 51.1366C1.44832 51.4034 1.56423 51.896 1.99152 52.2165C2.13314 52.3227 2.29612 52.3923 2.38167 52.4277C2.49443 52.4744 2.62704 52.5225 2.77141 52.571C3.0618 52.6686 3.44344 52.7826 3.89936 52.9083C4.81374 53.1605 6.06403 53.4702 7.55776 53.8028C10.546 54.4681 14.5345 55.2312 18.7999 55.8136C23.0616 56.3954 27.6234 56.8002 31.7504 56.7406C35.8435 56.6815 39.6466 56.1659 42.2978 54.8063L42.8414 54.5275V53.9165V53.9047C42.8414 50.8043 42.8414 49.9535 43.0887 46.6154L43.1761 45.4358L41.9984 45.5458C19.2491 47.6708 11.0662 46.1231 5.13046 42.3242Z" fill="#F02E44" stroke="black" stroke-width="2"/>
<mask id="mask0_1338_229" style="mask-type:alpha" maskUnits="userSpaceOnUse" x="1" y="7" width="62" height="49">
<path d="M4.69565 38.7461C17.2539 19.4914 25.9306 16.7852 39.2227 7.29077C48.4736 8.0415 54.8495 10.0418 62.8486 9.7915C49.6486 21.5915 45.8418 28.2915 41.5918 44.2915C34.9943 45.6354 10.4846 47.0988 4.71165 39.8111C4.46932 39.5052 4.48245 39.073 4.69565 38.7461Z" fill="#F02E44"/>
<path d="M1.59177 50.4165C0.791768 49.8165 3.25844 45.3332 4.59177 43.1665C10.8418 47.1665 19.3418 48.6665 42.0918 46.5415C41.8418 49.9165 41.8418 50.7915 41.8418 53.9165C32.0918 58.9165 2.59177 51.1665 1.59177 50.4165Z" fill="#F02E44"/>
</mask>
<g mask="url(#mask0_1338_229)">
<path d="M37.2793 9.9165C26.3418 17.479 6.7543 35.4915 5.1543 43.2915" stroke="white" stroke-width="5"/>
</g>
<path d="M31.5918 46.0415L30.8418 56.0415" stroke="black" stroke-width="2"/>
<path d="M125.807 5.835C126.104 5.74431 126.427 5.79707 126.68 5.97777C133.473 10.8302 139.689 18.3964 144.529 26.2877C149.37 34.1793 152.894 42.4919 154.244 48.9004C154.341 49.3638 154.273 49.8672 153.999 50.3026C152.863 52.1042 150.386 54.3197 147.768 55.603C146.451 56.2486 145.017 56.699 143.636 56.6925C142.221 56.6859 140.86 56.1945 139.825 54.9803C139.713 54.8488 139.637 54.6906 139.604 54.521C136.885 40.4315 127.682 20.4082 114.682 8.78704C114.369 8.50687 114.264 8.06058 114.42 7.67024C114.576 7.2799 114.96 7.02884 115.38 7.04199C119.371 7.16687 121.285 7.05895 122.522 6.83895C123.127 6.73123 123.583 6.59417 124.064 6.42867C124.198 6.38234 124.341 6.33161 124.492 6.27776C124.87 6.14302 125.303 5.98873 125.807 5.835Z" fill="#F02E44" stroke="black" stroke-width="2" stroke-linejoin="round"/>
<path d="M122.518 3.70886C122.722 3.69496 122.925 3.74387 123.101 3.84899C129.858 7.90246 136.609 14.4349 142.008 21.2581C147.396 28.0675 151.533 35.2845 152.957 40.7555L151.99 41.0075L152.957 40.7555C153.098 41.2932 153.01 41.8939 152.632 42.3775C151.413 43.9352 148.718 46.0155 145.929 47.307C144.525 47.9569 143.024 48.4422 141.614 48.5323C140.195 48.623 138.767 48.3151 137.689 47.2533C137.594 47.1593 137.518 47.0471 137.467 46.9233C132.217 34.2333 123.233 15.8446 112.923 5.953C112.625 5.66705 112.534 5.2273 112.693 4.84615C112.852 4.46501 113.229 4.22091 113.642 4.23176C114.689 4.25928 115.454 4.28128 116.015 4.29744C116.531 4.31231 116.876 4.32223 117.111 4.32695C117.185 4.32842 117.242 4.32921 117.287 4.32958C117.54 4.21331 117.852 4.15462 118.262 4.09465C118.952 3.99352 120.202 3.86673 122.518 3.70886ZM116.958 4.54488C116.963 4.54048 116.968 4.53613 116.973 4.53183C116.951 4.5499 116.944 4.55749 116.958 4.54488Z" fill="#F02E44" stroke="black" stroke-width="2" stroke-linejoin="round"/>
<mask id="mask1_1338_229" style="mask-type:alpha" maskUnits="userSpaceOnUse" x="116" y="7" width="37" height="42">
<path d="M151.99 41.0074C149.241 30.4614 135.85 12.9691 126.349 7.4165C123.736 7.87646 124.473 9.12672 116.474 8.9165C126.95 18.9678 131.597 34.6116 136.847 47.3009C140.087 50.4929 149.54 44.6195 151.841 41.7588C152.013 41.5456 152.059 41.2722 151.99 41.0074Z" fill="#F02E44"/>
</mask>
<g mask="url(#mask1_1338_229)">
<path d="M127.342 8.6665C133.425 13.1665 147.342 27.7665 153.342 44.1665" stroke="white" stroke-width="5" stroke-linejoin="round"/>
</g>
<path d="M77.9633 67.2077C78.2312 66.8445 78.643 66.2202 78.9332 65.4886C79.4165 64.2699 79.6689 62.4619 78.1699 60.9692L78.1699 60.9692C76.7132 59.5169 74.9918 59.6377 73.7864 60.0454C73.1887 60.2476 72.6835 60.5269 72.3314 60.7508C72.2843 60.7808 72.2395 60.8101 72.1973 60.8383C71.8882 60.7491 71.578 60.6814 71.2691 60.6331C70.7455 60.5187 70.1567 60.4809 69.7274 60.4682C69.4998 60.4615 69.3021 60.4615 69.1606 60.4632C69.0896 60.464 69.0323 60.4653 68.9918 60.4664L68.944 60.4678L68.9392 60.468C68.6258 60.4722 68.3093 60.4958 67.9918 60.5399C67.9534 60.5057 67.9127 60.4699 67.8695 60.4331C67.5524 60.162 67.0913 59.8147 66.5278 59.5308C65.3913 58.9581 63.7036 58.5971 62.0576 59.8316C60.3664 61.0998 60.3632 62.9258 60.6702 64.1998C60.8539 64.9624 61.1636 65.6219 61.3884 66.0367C61.3424 66.1443 61.2695 66.2577 61.155 66.3963C61.0388 66.5368 60.9401 66.6388 60.8181 66.7648C60.7214 66.8647 60.6101 66.9797 60.4639 67.1409C59.8683 67.7978 59.2489 68.6838 59.1428 70.1906C59.0381 71.6777 59.4855 73.1065 60.5583 74.1942C61.621 75.2715 63.202 75.9194 65.2 76.0601L66.2879 76.1367C66.3676 76.2147 66.4615 76.2984 66.5703 76.3832C66.9662 76.6917 67.5578 77.0113 68.3568 77.1037C68.3708 77.1058 68.3883 77.1084 68.4094 77.1112C68.4568 77.1177 68.5225 77.1257 68.6077 77.1342C68.7753 77.151 69.0189 77.1698 69.3487 77.1824C70.1988 77.2385 70.8697 77.0082 71.3338 76.7497C71.4707 76.6734 71.5895 76.5949 71.6901 76.5206L72.7733 76.5969C74.7712 76.7376 76.4274 76.3177 77.6306 75.3999C78.8446 74.4738 79.4879 73.1227 79.5931 71.6365C79.7055 70.1323 79.2197 69.1678 78.7234 68.4331C78.6006 68.2512 78.5065 68.1213 78.4247 68.0085C78.3225 67.8675 78.2396 67.7532 78.1443 67.5974C78.0502 67.4437 77.9939 67.3209 77.9633 67.2077ZM71.0922 61.6177L71.0939 61.5933L71.1001 61.5664L71.0922 61.6177Z" fill="#FAF87D" stroke="black" stroke-width="2"/>
<path d="M33.8418 10.4155L34.3418 1.6665C60.9668 6.7915 94.2168 6.479 129.029 2.6665C129.154 5.854 129.092 7.4165 129.217 9.0415C106.092 18.1665 58.0085 14.0822 33.8418 10.4155Z" fill="#EA343C" stroke="black" stroke-width="2"/>
<path d="M102.592 4.9165L83.0918 5.4165C82.9668 8.6665 83.0918 11.6665 82.8418 14.6665C85.5918 14.9165 97.4251 14.3332 103.842 13.9165L102.592 4.9165Z" stroke="black" stroke-width="2"/>
<circle cx="27.3232" cy="50.9678" r="1.87207" fill="black"/>
<rect x="70.0248" y="85.1694" width="6.77121" height="11.4002" rx="2" transform="rotate(4.59956 70.0248 85.1694)" fill="#EA343C" stroke="black" stroke-width="2"/>
<path d="M126.195 81.3297C127.296 81.2412 128.26 82.0619 128.348 83.1629L128.942 90.5393C129.03 91.6404 128.21 92.6047 127.109 92.6933L124.346 92.9155C123.245 93.0041 122.281 92.1833 122.192 91.0823L121.599 83.7059C121.51 82.6049 122.331 81.6406 123.432 81.552L126.195 81.3297Z" fill="#EA343C" stroke="black" stroke-width="2"/>
<circle cx="148.473" cy="50.5474" r="1.49414" fill="black"/>
<path d="M143.342 48.1665L146.092 55.9165" stroke="black" stroke-width="2" stroke-linejoin="round"/>
</svg>
