<svg width="360" height="340" viewBox="0 0 360 340" fill="none" xmlns="http://www.w3.org/2000/svg">
<path fill-rule="evenodd" clip-rule="evenodd" d="M197.391 214.773C197.403 214.837 197.415 214.9 197.427 214.963C200.353 232.007 198.927 247.989 168.427 252.739C149.891 255.626 117.959 255.924 96.8876 253.197C87.014 251.919 80.5201 243.214 81.5457 233.311C85.1134 198.863 101.651 168.936 105.718 165.783C106.954 164.825 112.553 166.644 119.811 169.003C129.447 172.135 142.006 176.216 151.155 176.008C159.654 175.507 167.338 172.324 170.959 167.324C177.76 175.123 187.359 188.249 193.142 201.613C192.682 201.107 192.182 200.596 191.639 200.08C181.639 190.58 165.31 191.081 158.639 200.079C154.934 205.077 153.656 211.666 154.639 214.578C156.171 219.114 157.993 220.44 159.639 220.211C160.374 220.764 161.228 221.081 162.139 221.081C162.503 221.081 162.858 221.03 163.201 220.934C163.5 222.9 164.423 224.862 166.139 226.578C173.139 233.578 189.139 226.721 193.639 221.578C195.081 219.93 196.693 217.604 197.391 214.773Z" fill="white"/>
<path d="M197.427 214.963L198.413 214.794L198.411 214.785L198.41 214.776L197.427 214.963ZM197.391 214.773L198.372 214.581L196.42 214.534L197.391 214.773ZM168.427 252.739L168.274 251.751L168.427 252.739ZM96.8876 253.197L96.7592 254.188L96.8876 253.197ZM81.5457 233.311L80.551 233.208L81.5457 233.311ZM105.718 165.783L106.331 166.573V166.573L105.718 165.783ZM119.811 169.003L120.12 168.052L119.811 169.003ZM151.155 176.008L151.178 177.007L151.196 177.007L151.214 177.006L151.155 176.008ZM170.959 167.324L171.713 166.667L170.887 165.72L170.15 166.738L170.959 167.324ZM193.142 201.613L192.402 202.286L194.06 201.216L193.142 201.613ZM191.639 200.08L192.328 199.355L191.639 200.08ZM158.639 200.079L159.443 200.674L158.639 200.079ZM154.639 214.578L153.692 214.898V214.898L154.639 214.578ZM159.639 220.211L160.24 219.412L159.91 219.164L159.501 219.221L159.639 220.211ZM163.201 220.934L164.189 220.783L164.019 219.665L162.93 219.971L163.201 220.934ZM166.139 226.578L165.432 227.285L165.432 227.285L166.139 226.578ZM193.639 221.578L194.392 222.237L193.639 221.578ZM198.41 214.776C198.397 214.711 198.385 214.646 198.372 214.581L196.409 214.965C196.421 215.027 196.433 215.089 196.445 215.151L198.41 214.776ZM168.581 253.728C183.976 251.33 192.314 246.053 196.332 238.954C200.319 231.909 199.88 223.344 198.413 214.794L196.442 215.132C197.9 223.627 198.211 231.574 194.592 237.969C191.003 244.31 183.379 249.399 168.274 251.751L168.581 253.728ZM96.7592 254.188C117.917 256.927 149.944 256.63 168.581 253.728L168.274 251.751C149.837 254.623 118.001 254.921 97.016 252.205L96.7592 254.188ZM80.551 233.208C79.4729 243.618 86.3163 252.837 96.7592 254.188L97.016 252.205C87.7117 251.001 81.5673 242.81 82.5404 233.414L80.551 233.208ZM105.105 164.992C104.473 165.483 103.699 166.4 102.844 167.595C101.972 168.817 100.96 170.408 99.8602 172.322C97.6588 176.15 95.0806 181.301 92.5219 187.426C87.4058 199.673 82.3474 215.864 80.551 233.208L82.5404 233.414C84.3118 216.311 89.3059 200.314 94.3673 188.197C96.8974 182.14 99.4391 177.066 101.594 173.319C102.672 171.445 103.648 169.912 104.472 168.758C105.314 167.579 105.946 166.871 106.331 166.573L105.105 164.992ZM120.12 168.052C116.504 166.877 113.254 165.82 110.754 165.18C109.507 164.861 108.403 164.634 107.51 164.554C107.064 164.514 106.636 164.507 106.251 164.558C105.878 164.606 105.457 164.72 105.105 164.992L106.331 166.573C106.288 166.606 106.313 166.567 106.51 166.541C106.697 166.516 106.966 166.513 107.332 166.546C108.063 166.612 109.044 166.807 110.258 167.118C112.682 167.738 115.861 168.771 119.502 169.954L120.12 168.052ZM151.132 175.008C146.694 175.109 141.371 174.167 135.91 172.788C130.46 171.412 124.943 169.619 120.12 168.052L119.502 169.954C124.315 171.518 129.895 173.332 135.421 174.727C140.935 176.12 146.467 177.115 151.178 177.007L151.132 175.008ZM170.15 166.738C166.778 171.394 159.448 174.518 151.096 175.009L151.214 177.006C159.86 176.497 167.899 173.254 171.769 167.911L170.15 166.738ZM194.06 201.216C188.222 187.726 178.554 174.512 171.713 166.667L170.206 167.982C176.965 175.733 186.495 188.772 192.224 202.011L194.06 201.216ZM193.883 200.941C193.405 200.416 192.888 199.887 192.328 199.355L190.951 200.805C191.477 201.305 191.959 201.798 192.402 202.286L193.883 200.941ZM192.328 199.355C187.126 194.413 180.287 192.078 173.881 192.143C167.487 192.207 161.403 194.671 157.836 199.483L159.443 200.674C162.546 196.488 167.963 194.203 173.901 194.143C179.828 194.083 186.153 196.247 190.951 200.805L192.328 199.355ZM157.836 199.483C155.895 202.101 154.598 205.121 153.911 207.868C153.234 210.575 153.11 213.174 153.692 214.898L155.587 214.258C155.186 213.071 155.209 210.919 155.851 208.354C156.483 205.828 157.678 203.055 159.443 200.674L157.836 199.483ZM153.692 214.898C154.48 217.232 155.379 218.858 156.382 219.882C157.417 220.937 158.588 221.367 159.777 221.202L159.501 219.221C159.044 219.284 158.481 219.166 157.81 218.482C157.108 217.765 156.33 216.46 155.587 214.258L153.692 214.898ZM159.038 221.011C159.927 221.679 160.987 222.081 162.139 222.081V220.081C161.469 220.081 160.822 219.85 160.24 219.412L159.038 221.011ZM162.139 222.081C162.597 222.081 163.043 222.017 163.471 221.896L162.93 219.971C162.674 220.043 162.41 220.081 162.139 220.081V222.081ZM162.212 221.084C162.544 223.263 163.566 225.419 165.432 227.285L166.847 225.871C165.279 224.304 164.456 222.536 164.189 220.783L162.212 221.084ZM165.432 227.285C169.334 231.187 175.572 231.101 181.09 229.597C186.647 228.082 191.972 225.003 194.392 222.237L192.887 220.92C190.807 223.297 185.882 226.217 180.564 227.667C175.207 229.127 169.945 228.969 166.847 225.871L165.432 227.285ZM194.392 222.237C195.889 220.526 197.611 218.059 198.362 215.012L196.42 214.534C195.775 217.149 194.274 219.334 192.887 220.92L194.392 222.237Z" fill="black"/>
<path d="M117.552 248.542C130.143 249.305 146.604 250.389 156.601 246.889C157.293 242.103 155.973 225.774 154.156 209.283C152.684 195.915 152.018 185.708 150.153 176.008C143.906 172.968 113.844 170.618 103.219 168.533C94.9117 179.477 84.9901 207.713 81.6843 229.972C79.1005 247.369 101.645 247.578 117.552 248.542Z" fill="#475851" stroke="black" stroke-width="2"/>
<path d="M143.656 184.843C146.656 207.093 147.603 220.886 148.406 242.843C134.086 242.692 112.972 246.38 84.7188 233.783" stroke="#699A60" stroke-width="2" stroke-linecap="round" stroke-dasharray="4 4"/>
<path fill-rule="evenodd" clip-rule="evenodd" d="M161.604 221.044C162.402 231.59 162.748 240.424 162.835 245.178C162.844 245.701 163.253 246.126 163.776 246.149C175.445 246.678 186.639 243.399 192.85 237.349C196.369 233.727 200.646 229.094 197.251 215.294C196.494 217.89 194.992 220.033 193.639 221.578C189.139 226.721 173.139 233.578 166.139 226.578C164.423 224.862 163.5 222.9 163.201 220.934C162.858 221.03 162.503 221.081 162.139 221.081C161.958 221.081 161.78 221.068 161.604 221.044ZM159.437 199.094C166.534 191.061 182.002 190.94 191.625 200.066C191.425 199.636 191.225 199.204 191.023 198.769C186.197 188.348 180.814 176.726 170.654 168.258C167.649 170.031 165.284 170.628 163.092 171.182C160.543 171.826 158.227 172.411 155.404 174.718C157.082 182.376 158.404 190.78 159.437 199.094Z" fill="#475851"/>
<path d="M162.835 245.178L161.835 245.196L161.835 245.196L162.835 245.178ZM161.604 221.044L161.741 220.054L160.513 219.884L160.607 221.12L161.604 221.044ZM163.776 246.149L163.731 247.148H163.731L163.776 246.149ZM192.85 237.349L193.548 238.066L193.558 238.056L193.567 238.046L192.85 237.349ZM197.251 215.294L198.222 215.055L197.332 211.441L196.291 215.014L197.251 215.294ZM193.639 221.578L194.392 222.237H194.392L193.639 221.578ZM166.139 226.578L166.847 225.871L166.139 226.578ZM163.201 220.934L164.189 220.783L164.019 219.665L162.93 219.971L163.201 220.934ZM159.437 199.094L158.445 199.217L158.719 201.418L160.187 199.756L159.437 199.094ZM191.625 200.066L190.936 200.792L192.532 199.645L191.625 200.066ZM191.023 198.769L190.116 199.19L190.116 199.19L191.023 198.769ZM170.654 168.258L171.295 167.49L170.753 167.038L170.146 167.397L170.654 168.258ZM163.092 171.182L163.337 172.152L163.092 171.182ZM155.404 174.718L154.772 173.943L154.296 174.332L154.427 174.932L155.404 174.718ZM163.835 245.159C163.748 240.385 163.401 231.532 162.601 220.969L160.607 221.12C161.404 231.647 161.749 240.462 161.835 245.196L163.835 245.159ZM163.821 245.15C163.821 245.15 163.821 245.15 163.822 245.151C163.824 245.151 163.825 245.151 163.826 245.152C163.829 245.153 163.831 245.155 163.832 245.156C163.833 245.157 163.834 245.158 163.834 245.159C163.835 245.161 163.835 245.162 163.835 245.159L161.835 245.196C161.854 246.24 162.674 247.101 163.731 247.148L163.821 245.15ZM192.152 236.633C186.208 242.423 175.327 245.672 163.821 245.15L163.731 247.148C175.562 247.684 187.07 244.376 193.548 238.066L192.152 236.633ZM196.28 215.533C197.949 222.318 197.701 226.725 196.692 229.829C195.684 232.929 193.883 234.851 192.133 236.653L193.567 238.046C195.336 236.225 197.432 234.02 198.594 230.447C199.754 226.879 199.947 222.07 198.222 215.055L196.28 215.533ZM196.291 215.014C195.59 217.418 194.187 219.434 192.887 220.92L194.392 222.237C195.797 220.631 197.398 218.362 198.211 215.574L196.291 215.014ZM192.887 220.92C190.807 223.297 185.882 226.218 180.564 227.667C175.207 229.127 169.945 228.97 166.847 225.871L165.432 227.286C169.334 231.187 175.572 231.101 181.09 229.597C186.647 228.082 191.972 225.003 194.392 222.237L192.887 220.92ZM166.847 225.871C165.279 224.304 164.457 222.537 164.189 220.783L162.212 221.085C162.544 223.263 163.566 225.42 165.432 227.286L166.847 225.871ZM162.93 219.971C162.674 220.043 162.41 220.081 162.139 220.081V222.081C162.597 222.081 163.043 222.017 163.471 221.897L162.93 219.971ZM162.139 220.081C162.004 220.081 161.871 220.072 161.741 220.054L161.467 222.035C161.688 222.065 161.912 222.081 162.139 222.081V220.081ZM160.187 199.756C163.497 196.009 168.828 194.043 174.566 194.145C180.293 194.248 186.32 196.414 190.936 200.792L192.313 199.341C187.306 194.592 180.788 192.256 174.601 192.146C168.425 192.035 162.474 194.146 158.688 198.432L160.187 199.756ZM190.116 199.19C190.317 199.624 190.518 200.057 190.717 200.487L192.532 199.645C192.332 199.216 192.132 198.784 191.931 198.349L190.116 199.19ZM170.014 169.026C179.975 177.329 185.276 188.74 190.116 199.19L191.931 198.349C187.117 187.956 181.653 176.124 171.295 167.49L170.014 169.026ZM163.337 172.152C165.546 171.594 168.027 170.969 171.163 169.119L170.146 167.397C167.27 169.093 165.022 169.663 162.847 170.213L163.337 172.152ZM156.037 175.492C158.68 173.333 160.813 172.789 163.337 172.152L162.847 170.213C160.273 170.863 157.773 171.49 154.772 173.943L156.037 175.492ZM160.43 198.97C159.394 190.637 158.067 182.201 156.381 174.504L154.427 174.932C156.096 182.551 157.414 190.923 158.445 199.217L160.43 198.97Z" fill="black"/>
<path d="M163.906 182.343L165.009 189.719M195.266 226.538C193.358 231.753 180.011 237.503 171.928 239.42L171.167 230.889" stroke="#699A60" stroke-width="2" stroke-linecap="round" stroke-dasharray="4 4"/>
<path d="M183.496 171.223C202.398 177.157 224.555 183.301 227.621 187.723C220.996 189.036 212.371 191.348 211.871 205.848C211.744 209.536 212.485 212.148 213.64 214.003C215.565 214.133 220.511 213.957 220.853 214.726C221.126 215.341 222.219 217.601 222.732 218.654C219.657 219.508 210.403 217.354 205.265 216.071C202.418 215.36 200.139 214.756 197.61 213.771C197.844 211.198 197.892 208.861 196.487 206.052C194.731 202.364 193.287 201.743 192.171 199.97C186.43 187.131 179.26 177.191 175.884 173.625C175.758 171.375 175.742 170.375 175.746 169.473C177.844 169.736 181.161 170.49 183.496 171.223Z" fill="#475851"/>
<path d="M222.732 218.654C219.657 219.508 210.403 217.354 205.265 216.071C202.418 215.36 200.139 214.756 197.61 213.771C197.844 211.198 197.892 208.861 196.487 206.052C194.731 202.364 193.287 201.743 192.171 199.97C186.43 187.131 179.26 177.191 175.884 173.625C175.758 171.375 175.742 170.375 175.746 169.473C177.844 169.736 181.161 170.49 183.496 171.223C202.398 177.157 224.555 183.301 227.621 187.723C220.996 189.036 212.371 191.348 211.871 205.848C211.744 209.536 212.485 212.148 213.64 214.003M222.732 218.654C222.219 217.601 221.126 215.341 220.853 214.726C220.511 213.957 215.565 214.133 213.64 214.003M222.732 218.654C221.411 218.534 216.37 218.388 213.64 214.003" stroke="black" stroke-width="2"/>
<path d="M155.011 172.855C150.685 164.968 112.201 151.843 99.6685 154.592C91.873 156.093 86.5991 168.971 93.7867 185.158C95.036 179.033 105.332 172.718 111.805 172.718C118.279 172.718 139.304 176.801 149.007 178.843L155.011 172.855Z" fill="white" stroke="black" stroke-width="2" stroke-linecap="round" stroke-linejoin="round"/>
<path d="M154.281 172.218C156.308 164.332 174.364 152.468 180.237 155.218C183.889 156.718 186.855 168.068 183.933 184.468C182.407 180.093 178.038 172.718 175.005 172.718C171.972 172.718 162.12 176.801 157.573 178.843L154.281 172.218Z" fill="white" stroke="black" stroke-width="2" stroke-linecap="round" stroke-linejoin="round"/>
<path d="M152.656 174.843C150.88 171.587 115.083 155.268 102.232 158.353C93.9428 160.343 94.1275 165.128 93.9609 173.954C94.2415 175.644 94.5037 177.766 95.0282 181.593C96.7057 179.676 101.162 177.627 102.988 176.266C104.666 175.016 107.955 173.728 115.455 173.853C124.623 174.005 140.552 178.394 146.834 181.103L150.288 180.096L152.656 174.843Z" fill="#475851"/>
<path d="M155.177 174.844C156.012 171.588 172.743 156.853 178.861 158.353C182.864 159.334 183.089 169.748 182.497 177.338C182.365 179.028 182.981 180.88 182.801 182.155C182.013 180.238 179.116 177.839 178.259 176.478C177.471 175.228 176.173 173.728 172.651 173.853C168.344 174.006 160.863 178.395 157.912 181.103L156.29 180.096L155.177 174.844Z" fill="#475851"/>
<path d="M153.547 175.343C151.573 171.343 115.26 156.843 102.234 158.343C93.7115 159.324 93.2331 169.738 94.4933 177.328C94.7739 179.018 94.7457 180.068 95.129 181.343C96.8066 179.426 100.053 177.785 102.037 176.843C104.405 175.718 107.957 173.718 115.457 173.843C124.626 173.995 136.015 176.759 142.297 179.468" stroke="black" stroke-width="2" stroke-linecap="round" stroke-linejoin="round"/>
<path d="M154.759 175.343C155.686 171.343 172.742 156.843 178.86 158.343C182.863 159.324 182.947 173.968 182.947 173.968C182.947 173.968 182.716 180.693 182.536 181.968C181.748 180.051 178.429 175.843 178.429 175.843C178.429 175.843 176.146 173.186 172.65 173.843C168.655 174.593 167.669 175.343 163.89 176.843" stroke="black" stroke-width="2" stroke-linecap="round" stroke-linejoin="round"/>
<path d="M94.5371 173.843C101.412 170.718 120.391 170.468 144.962 180.593" stroke="black" stroke-width="2" stroke-linecap="round"/>
<path d="M182.477 176.092C178.677 174.467 172.681 170.717 160.606 178.717" stroke="black" stroke-width="2" stroke-linecap="round"/>
<path d="M161.283 170.835C161.481 170.43 161.773 169.741 161.925 168.969C162.18 167.683 162.1 165.859 160.356 164.663L160.356 164.663C158.66 163.499 156.989 163.929 155.877 164.549C155.326 164.856 154.88 165.222 154.574 165.506C154.533 165.544 154.495 165.581 154.458 165.617C154.138 165.585 153.821 165.575 153.508 165.583C152.972 165.565 152.387 165.635 151.962 165.7C151.737 165.735 151.543 165.771 151.404 165.798C151.334 165.812 151.278 165.823 151.238 165.832L151.192 165.842L151.187 165.843C150.879 165.904 150.572 165.984 150.268 166.085C150.224 166.059 150.178 166.031 150.129 166.002C149.768 165.793 149.251 165.535 148.646 165.358C147.424 165.001 145.699 164.952 144.304 166.464C142.871 168.018 143.198 169.814 143.731 171.012C144.05 171.728 144.474 172.321 144.77 172.688C144.745 172.802 144.694 172.927 144.606 173.084C144.517 173.243 144.439 173.361 144.342 173.507C144.265 173.623 144.176 173.756 144.061 173.941C143.595 174.695 143.146 175.679 143.315 177.18C143.481 178.661 144.18 179.986 145.433 180.861C146.673 181.728 148.345 182.078 150.336 181.854L151.419 181.733C151.512 181.795 151.619 181.86 151.742 181.924C152.187 182.155 152.827 182.363 153.629 182.309C153.643 182.308 153.661 182.308 153.682 182.307C153.73 182.304 153.796 182.3 153.882 182.293C154.049 182.279 154.292 182.254 154.619 182.206C155.465 182.107 156.083 181.759 156.493 181.421C156.614 181.321 156.716 181.222 156.802 181.131L157.881 181.01C159.871 180.786 161.424 180.073 162.441 178.952C163.467 177.821 163.854 176.376 163.689 174.895C163.526 173.396 162.874 172.535 162.253 171.903C162.099 171.746 161.983 171.635 161.882 171.539C161.756 171.419 161.654 171.322 161.532 171.186C161.411 171.052 161.334 170.941 161.283 170.835ZM153.513 166.583L153.51 166.559L153.511 166.531L153.513 166.583Z" fill="#50C878" stroke="black" stroke-width="2"/>
<rect x="131.281" y="172.91" width="5.4502" height="32.5574" rx="2.7251" fill="white" stroke="black" stroke-width="2"/>
<path d="M170.418 171.657C169.113 172.053 168.288 173.455 168.574 174.788L171.989 190.699C172.247 191.902 173.332 192.658 174.533 192.472C175.999 192.246 177.027 190.732 176.712 189.265L173.297 173.353C173.011 172.02 171.722 171.261 170.418 171.657Z" fill="white" stroke="black" stroke-width="2"/>
<circle cx="134.006" cy="194.218" r="5.33398" fill="#50C878" stroke="black" stroke-width="2"/>
<path d="M178.239 193.313L179.549 193.591L179.479 192.187C179.478 192.155 179.476 192.125 179.475 192.095C179.445 191.498 179.427 191.135 179.298 190.662C179.028 189.166 178.281 188.072 177.239 187.462C176.197 186.851 174.938 186.77 173.739 187.134C172.657 187.463 171.638 188.013 170.996 188.98C170.335 189.974 170.221 191.182 170.506 192.509L170.692 193.376L171.556 193.224C173.227 192.931 173.699 192.931 175.528 192.99L175.543 192.991L175.558 192.991C176.798 192.991 177.311 193.106 177.913 193.241C178.017 193.265 178.125 193.289 178.239 193.313Z" fill="#50C878" stroke="black" stroke-width="2"/>
<path d="M116.251 180.33C135.751 183.829 160.033 188.977 163.633 192.977C164.732 193.466 168.147 193.261 169.975 193.107C170.375 193.051 170.77 193.014 171.159 192.995C171.159 192.995 170.687 193.047 169.975 193.107C162.28 194.18 152.801 202.005 151.937 211.019L153.764 212.844C154.084 214.894 154.911 218.953 156.926 219.289C159.573 220.153 161.477 220.602 163.1 220.003C163.313 222.664 163.594 223.798 164.178 224.911C162.728 225.754 161.049 226.397 159.251 226.977C157.594 228.158 151.633 225.699 151.633 225.699C147.872 227.05 143.751 226.425 135.751 224.33C127.751 222.234 103.817 206.83 100.751 195.329C98.2179 185.829 106.778 178.63 116.251 180.33Z" fill="#475851"/>
<path d="M116.251 180.33L116.074 181.314L116.251 180.33ZM100.751 195.329L99.7849 195.587L100.751 195.329ZM146.133 205.977L145.166 205.72L146.133 205.977ZM171.159 192.995L171.269 193.989C171.806 193.93 172.198 193.455 172.156 192.917C172.113 192.378 171.651 191.971 171.111 191.996L171.159 192.995ZM145.323 215.329L146.315 215.204L145.323 215.329ZM152.361 216.329L153.33 216.081L152.361 216.329ZM164.178 224.911L164.681 225.775L165.508 225.294L165.063 224.446L164.178 224.911ZM163.1 220.003L164.097 219.923L163.992 218.608L162.754 219.065L163.1 220.003ZM156.926 219.289L157.237 218.339L157.165 218.315L157.091 218.303L156.926 219.289ZM153.764 212.844L154.752 212.69L154.702 212.367L154.471 212.137L153.764 212.844ZM151.937 211.019L150.941 210.923L151.937 211.019ZM116.074 181.314C125.816 183.062 136.737 185.22 145.663 187.436C150.129 188.545 154.075 189.664 157.117 190.748C158.639 191.29 159.916 191.817 160.911 192.321C161.927 192.836 162.566 193.287 162.889 193.646L164.376 192.309C163.8 191.668 162.892 191.083 161.815 190.537C160.717 189.981 159.354 189.422 157.788 188.864C154.656 187.748 150.638 186.611 146.145 185.495C137.156 183.263 126.186 181.097 116.428 179.345L116.074 181.314ZM136.004 223.362C134.131 222.872 131.225 221.567 127.828 219.66C124.451 217.763 120.651 215.306 117.003 212.558C113.353 209.807 109.875 206.78 107.13 203.747C104.369 200.695 102.423 197.718 101.717 195.072L99.7849 195.587C100.612 198.69 102.808 201.952 105.647 205.089C108.502 208.243 112.083 211.355 115.799 214.155C119.518 216.957 123.393 219.463 126.849 221.404C130.285 223.333 133.371 224.74 135.498 225.297L136.004 223.362ZM101.717 195.072C100.55 190.693 101.932 186.896 104.677 184.364C107.442 181.814 111.629 180.516 116.074 181.314L116.428 179.345C111.401 178.443 106.571 179.895 103.321 182.894C100.05 185.912 98.4192 190.465 99.7849 195.587L101.717 195.072ZM163.779 191.988C161.342 191.627 157.546 191.9 153.922 193.847C150.261 195.813 146.836 199.458 145.166 205.72L147.099 206.235C148.629 200.497 151.704 197.308 154.868 195.608C158.07 193.889 161.423 193.661 163.486 193.967L163.779 191.988ZM151.295 224.758C147.868 225.988 144.047 225.469 136.004 223.362L135.498 225.297C143.455 227.381 147.875 228.111 151.971 226.64L151.295 224.758ZM158.671 226.163C158.57 226.235 158.211 226.342 157.443 226.279C156.74 226.222 155.908 226.043 155.086 225.817C154.271 225.592 153.5 225.331 152.931 225.124C152.647 225.022 152.416 224.933 152.256 224.871C152.176 224.839 152.114 224.815 152.073 224.798C152.053 224.79 152.037 224.784 152.027 224.78C152.022 224.778 152.019 224.776 152.016 224.775C152.015 224.775 152.015 224.774 152.014 224.774C152.014 224.774 152.014 224.774 152.014 224.774C152.014 224.774 152.014 224.774 152.014 224.774C152.014 224.774 152.014 224.774 151.633 225.699C151.251 226.623 151.251 226.623 151.252 226.623C151.252 226.623 151.252 226.623 151.252 226.623C151.252 226.624 151.253 226.624 151.253 226.624C151.254 226.624 151.256 226.625 151.257 226.626C151.261 226.627 151.266 226.629 151.272 226.632C151.285 226.637 151.303 226.644 151.327 226.654C151.374 226.673 151.442 226.7 151.528 226.733C151.701 226.801 151.948 226.895 152.249 227.005C152.849 227.222 153.673 227.502 154.555 227.745C155.43 227.986 156.399 228.201 157.28 228.273C158.096 228.339 159.104 228.31 159.831 227.792L158.671 226.163ZM163.226 193.891C163.658 194.083 164.215 194.172 164.737 194.221C165.287 194.273 165.911 194.288 166.538 194.283C167.795 194.273 169.134 194.181 170.059 194.104L169.891 192.111C168.987 192.187 167.705 192.274 166.523 192.283C165.931 192.288 165.38 192.273 164.924 192.23C164.44 192.185 164.157 192.116 164.039 192.064L163.226 193.891ZM170.059 194.104C170.421 194.073 170.722 194.045 170.933 194.024C171.038 194.014 171.121 194.005 171.179 193.999C171.207 193.996 171.229 193.994 171.244 193.992C171.252 193.991 171.258 193.991 171.262 193.99C171.264 193.99 171.266 193.99 171.267 193.99C171.267 193.989 171.268 193.989 171.268 193.989C171.268 193.989 171.268 193.989 171.268 193.989C171.268 193.989 171.268 193.989 171.269 193.989C171.269 193.989 171.269 193.989 171.269 193.989C171.269 193.989 171.269 193.989 171.159 192.995C171.049 192.001 171.049 192.001 171.049 192.001C171.049 192.001 171.049 192.001 171.05 192.001C171.05 192.001 171.05 192.001 171.05 192.001C171.05 192.001 171.049 192.001 171.049 192.001C171.049 192.001 171.049 192.001 171.049 192.001C171.048 192.002 171.047 192.002 171.045 192.002C171.042 192.002 171.037 192.003 171.03 192.003C171.017 192.005 170.997 192.007 170.97 192.01C170.916 192.015 170.837 192.024 170.736 192.034C170.533 192.054 170.242 192.081 169.891 192.111L170.059 194.104ZM145.166 205.72C144.165 209.475 143.984 212.711 144.331 215.454L146.315 215.204C146.004 212.745 146.156 209.77 147.099 206.235L145.166 205.72ZM144.331 215.454C145.125 221.744 148.679 225.348 151.188 226.594L152.078 224.803C150.176 223.858 147.027 220.837 146.315 215.204L144.331 215.454ZM151.393 216.577C152.342 220.282 154.619 224.073 158.574 227.713L159.928 226.242C156.202 222.812 154.166 219.344 153.33 216.081L151.393 216.577ZM163.675 224.046C162.317 224.836 160.717 225.453 158.944 226.026L159.558 227.929C161.38 227.341 163.139 226.672 164.681 225.775L163.675 224.046ZM165.063 224.446C164.574 223.514 164.307 222.544 164.097 219.923L162.104 220.083C162.32 222.785 162.613 224.081 163.292 225.375L165.063 224.446ZM157.091 218.303C156.916 218.274 156.685 218.152 156.409 217.806C156.133 217.459 155.875 216.962 155.644 216.354C155.184 215.142 154.91 213.699 154.752 212.69L152.776 212.998C152.938 214.039 153.237 215.65 153.774 217.064C154.042 217.77 154.389 218.479 154.844 219.051C155.301 219.625 155.929 220.137 156.762 220.276L157.091 218.303ZM171.111 191.996C170.691 192.017 170.265 192.057 169.837 192.117L170.113 194.098C170.485 194.046 170.85 194.011 171.207 193.994L171.111 191.996ZM169.837 192.117C165.744 192.688 161.268 195.029 157.711 198.355C154.153 201.683 151.403 206.103 150.941 210.923L152.932 211.114C153.334 206.921 155.756 202.922 159.077 199.816C162.401 196.708 166.512 194.6 170.113 194.098L169.837 192.117ZM150.941 210.923C150.767 212.745 150.897 214.643 151.393 216.577L153.33 216.081C152.892 214.372 152.779 212.707 152.932 211.114L150.941 210.923ZM154.471 212.137L152.643 210.311L151.23 211.726L153.057 213.552L154.471 212.137ZM162.754 219.065C161.505 219.526 159.937 219.22 157.237 218.339L156.616 220.24C159.21 221.086 161.448 221.679 163.447 220.941L162.754 219.065Z" fill="black"/>
<path fill-rule="evenodd" clip-rule="evenodd" d="M137.886 190.873C126.618 188.354 113.524 185.4 105.754 183.513C106.101 183.126 107.68 182.276 108.444 182.037C116.288 183.903 128.139 186.644 138.322 188.921L139.539 189.193C144.782 190.365 149.606 191.443 153.296 192.283C155.283 192.735 154.878 192.537 156.102 192.829C155.328 193.068 154.63 193.452 153.28 194.114C149.593 193.275 144.346 192.317 139.102 191.145L137.886 190.873ZM132.099 194.435C121.765 192.124 110.073 189.536 102.204 187.66C102.617 186.82 103.201 186.026 103.361 185.85C111.194 187.708 122.514 190.243 132.536 192.483C132.944 192.574 133.349 192.665 133.752 192.755C138.995 193.927 143.819 195.006 147.509 195.845C148.572 196.087 149.541 196.309 150.401 196.508C150.217 196.672 149.169 197.712 148.786 198.189C148.246 198.064 147.671 197.933 147.066 197.795C143.379 196.957 138.559 195.879 133.315 194.707C132.912 194.617 132.507 194.526 132.099 194.435Z" fill="#699A60"/>
</svg>
