<svg width="361" height="341" viewBox="0 0 361 341" fill="none" xmlns="http://www.w3.org/2000/svg">
<path fill-rule="evenodd" clip-rule="evenodd" d="M171.727 167.695C180.81 178.112 198.327 204.245 199.727 221.445C201.477 242.945 199.727 252.945 169.227 257.695C144.827 261.495 106.727 257.112 91.2271 250.945C91.22 250.807 91.2134 250.669 91.207 250.531C98.3925 249.866 104.111 247.464 105.814 243.328C108.178 237.587 105.568 234.76 104.166 233.242C104.019 233.084 103.886 232.939 103.773 232.807C105.963 232.608 110.104 230.777 109.148 225.042C108.404 220.576 104.412 218.893 100.786 218.547C100.388 211.952 103.773 191.711 113.329 182.037C116.347 178.982 117.359 176.214 117.002 173.971C119.854 170.255 122.126 167.987 123.228 167.546C124.488 167.043 126.592 168.167 129.568 169.757C134.574 172.432 142.045 176.424 152.106 176.195C160.605 175.694 168.106 172.695 171.727 167.695Z" fill="white"/>
<path d="M199.727 221.445L200.724 221.364L199.727 221.445ZM171.727 167.695L172.481 167.038L171.655 166.09L170.917 167.108L171.727 167.695ZM169.227 257.695L169.073 256.707L169.227 257.695ZM91.2271 250.945L90.2284 250.996L90.2609 251.637L90.8574 251.874L91.2271 250.945ZM91.207 250.531L91.115 249.535L90.1643 249.623L90.2081 250.576L91.207 250.531ZM105.814 243.328L106.739 243.709L105.814 243.328ZM104.166 233.242L103.431 233.921H103.431L104.166 233.242ZM103.773 232.807L103.682 231.812L101.752 231.987L103.013 233.458L103.773 232.807ZM109.148 225.042L108.162 225.207H108.162L109.148 225.042ZM100.786 218.547L99.7879 218.608L99.8395 219.462L100.691 219.543L100.786 218.547ZM113.329 182.037L114.041 182.74L113.329 182.037ZM117.002 173.971L116.209 173.362L115.947 173.704L116.015 174.129L117.002 173.971ZM123.228 167.546L123.599 168.475V168.475L123.228 167.546ZM129.568 169.757L130.039 168.875V168.875L129.568 169.757ZM152.106 176.195L152.129 177.194L152.147 177.194L152.165 177.193L152.106 176.195ZM200.724 221.364C200.005 212.533 195.179 201.539 189.477 191.531C183.758 181.494 177.07 172.301 172.481 167.038L170.973 168.352C175.467 173.506 182.08 182.588 187.739 192.521C193.416 202.484 198.049 213.157 198.73 221.526L200.724 221.364ZM169.381 258.683C184.659 256.304 193.104 252.571 197.391 246.423C201.658 240.304 201.594 232.057 200.724 221.364L198.73 221.526C199.61 232.333 199.546 239.836 195.751 245.279C191.975 250.694 184.295 254.336 169.073 256.707L169.381 258.683ZM90.8574 251.874C98.7391 255.01 112.25 257.658 126.794 259.053C141.352 260.449 157.068 260.601 169.381 258.683L169.073 256.707C156.986 258.589 141.452 258.449 126.985 257.062C112.504 255.673 99.215 253.047 91.5967 250.016L90.8574 251.874ZM90.2081 250.576C90.2145 250.716 90.2213 250.856 90.2284 250.996L92.2258 250.894C92.2188 250.758 92.2122 250.621 92.206 250.485L90.2081 250.576ZM104.889 242.948C104.166 244.705 102.549 246.189 100.139 247.327C97.7355 248.463 94.632 249.21 91.115 249.535L91.2991 251.526C94.9675 251.187 98.3161 250.401 100.994 249.136C103.666 247.873 105.759 246.088 106.739 243.709L104.889 242.948ZM103.431 233.921C104.132 234.68 104.994 235.627 105.452 237.015C105.9 238.371 105.994 240.265 104.889 242.948L106.739 243.709C107.998 240.65 107.969 238.261 107.352 236.388C106.745 234.549 105.601 233.323 104.9 232.564L103.431 233.921ZM103.013 233.458C103.141 233.607 103.288 233.766 103.431 233.921L104.9 232.564C104.75 232.401 104.63 232.272 104.532 232.157L103.013 233.458ZM108.162 225.207C108.593 227.791 107.87 229.348 106.93 230.296C105.943 231.292 104.6 231.728 103.682 231.812L103.863 233.803C105.135 233.688 106.958 233.108 108.35 231.705C109.789 230.253 110.66 228.028 110.135 224.878L108.162 225.207ZM100.691 219.543C104.171 219.874 107.533 221.431 108.162 225.207L110.135 224.878C109.275 219.72 104.652 217.911 100.881 217.552L100.691 219.543ZM112.618 181.334C107.663 186.35 104.37 194.023 102.362 201.177C100.353 208.335 99.5798 215.161 99.7879 218.608L101.784 218.487C101.594 215.338 102.314 208.747 104.287 201.717C106.262 194.683 109.439 187.398 114.041 182.74L112.618 181.334ZM116.015 174.129C116.301 175.927 115.524 178.392 112.618 181.334L114.041 182.74C117.17 179.572 118.418 176.501 117.99 173.814L116.015 174.129ZM122.857 166.618C122.443 166.783 122.003 167.081 121.564 167.435C121.111 167.8 120.605 168.27 120.056 168.832C118.958 169.955 117.651 171.484 116.209 173.362L117.795 174.58C119.205 172.743 120.46 171.28 121.486 170.23C122 169.704 122.447 169.293 122.819 168.992C123.205 168.681 123.462 168.53 123.599 168.475L122.857 166.618ZM130.039 168.875C128.571 168.09 127.243 167.379 126.122 166.936C125.052 166.514 123.879 166.209 122.857 166.618L123.599 168.475C123.837 168.38 124.346 168.385 125.387 168.797C126.377 169.188 127.59 169.834 129.097 170.639L130.039 168.875ZM152.083 175.195C142.307 175.417 135.039 171.546 130.039 168.875L129.097 170.639C134.109 173.317 141.784 177.43 152.129 177.194L152.083 175.195ZM170.917 167.108C167.55 171.758 160.41 174.704 152.047 175.196L152.165 177.193C160.8 176.685 168.662 173.631 172.537 168.282L170.917 167.108ZM100.881 217.552C98.5818 217.333 96.3538 217.615 95.039 218.141L95.7818 219.998C96.7176 219.624 98.606 219.344 100.691 219.543L100.881 217.552Z" fill="black"/>
<path d="M181.025 166.823L181.389 166.793L181.687 167.006C188.486 171.862 195.44 180.365 201.016 189.177C206.59 197.988 210.881 207.258 212.262 213.723L211.288 213.931L212.262 213.723C212.362 214.189 212.293 214.695 212.012 215.132C210.859 216.926 208.457 218.722 205.928 219.58C203.401 220.438 200.366 220.464 198.345 218.093L198.174 217.893L198.124 217.634C196.772 210.631 193.371 201.425 188.655 192.493C183.937 183.558 177.948 174.982 171.469 169.19L169.42 167.359L172.166 167.445C173.216 167.478 173.98 167.504 174.541 167.523C175.056 167.541 175.4 167.553 175.634 167.558C175.688 167.559 175.733 167.56 175.77 167.561C176.027 167.427 176.346 167.355 176.754 167.284C177.452 167.162 178.707 167.011 181.025 166.823ZM175.416 167.829C175.42 167.824 175.425 167.82 175.429 167.815C175.407 167.837 175.4 167.846 175.416 167.829Z" fill="#475851" stroke="black" stroke-width="2"/>
<path d="M181.037 166.822L181.354 166.8L181.626 166.965C188.402 171.091 195.34 178.244 200.916 185.676C206.484 193.097 210.799 200.937 212.226 206.504C212.362 207.033 212.279 207.635 211.891 208.12C210.629 209.694 207.813 211.504 204.953 212.516C203.505 213.028 201.97 213.364 200.542 213.337C199.112 213.309 197.701 212.913 196.649 211.861L196.445 211.657L196.381 211.375C195.042 205.461 191.328 197.696 186.645 189.954C181.973 182.23 176.391 174.618 171.389 169.018L169.846 167.291L172.162 167.352C173.209 167.38 173.974 167.403 174.535 167.419C175.051 167.434 175.396 167.444 175.631 167.449C175.703 167.451 175.759 167.451 175.803 167.452C176.057 167.334 176.37 167.274 176.779 167.213C177.47 167.111 178.72 166.982 181.037 166.822ZM175.472 167.671C175.477 167.667 175.482 167.663 175.487 167.658C175.465 167.677 175.458 167.684 175.472 167.671Z" fill="#475851" stroke="black" stroke-width="2"/>
<mask id="mask0_1521_12741" style="mask-type:alpha" maskUnits="userSpaceOnUse" x="172" y="167" width="40" height="46">
<path d="M211.259 206.752C208.5 195.992 194.356 175.886 181.107 167.819C171.856 168.459 180.135 168.565 172.136 168.352C182.232 179.654 194.607 199.008 197.357 211.154C200.597 214.394 208.9 210.252 211.112 207.494C211.281 207.283 211.326 207.014 211.259 206.752Z" fill="#475851"/>
</mask>
<g mask="url(#mask0_1521_12741)">
<path d="M185.011 172.744C193.491 181.719 208.719 200.726 210.731 209.765" stroke="#699A60" stroke-width="2" stroke-linecap="round"/>
</g>
<path fill-rule="evenodd" clip-rule="evenodd" d="M104.511 245.402C106.961 246.568 110.043 247.031 113.587 247.564C115.618 247.87 117.801 248.198 120.103 248.694C121.776 248.88 123.811 249.164 126.08 249.48C136.025 250.866 150.466 252.879 158.606 250.029C159.858 241.364 155.27 197.861 151.103 176.194C144.856 173.154 136.106 171.279 125.481 169.194C122.064 172.042 118.901 175.154 116.054 178.477C115.447 179.606 114.553 180.798 113.329 182.037C113.105 182.264 112.884 182.497 112.666 182.735C109.902 186.486 107.535 190.456 105.642 194.581C101.912 203.87 100.523 214.189 100.786 218.547C104.411 218.892 108.403 220.575 109.148 225.042C110.104 230.776 105.962 232.608 103.772 232.807C103.885 232.939 104.019 233.084 104.165 233.242C105.567 234.76 108.178 237.587 105.814 243.328C105.506 244.076 105.066 244.768 104.511 245.402Z" fill="#475851"/>
<path d="M104.511 245.402L103.758 244.743L102.888 245.738L104.081 246.305L104.511 245.402ZM113.587 247.564L113.438 248.553H113.438L113.587 247.564ZM120.103 248.694L119.892 249.672L119.942 249.683L119.993 249.688L120.103 248.694ZM126.08 249.48L126.218 248.49L126.08 249.48ZM158.606 250.029L158.936 250.973L159.509 250.773L159.595 250.172L158.606 250.029ZM151.103 176.194L152.085 176.006L151.991 175.514L151.541 175.295L151.103 176.194ZM125.481 169.194L125.674 168.213L125.206 168.121L124.841 168.426L125.481 169.194ZM116.054 178.477L115.294 177.826L115.224 177.908L115.173 178.004L116.054 178.477ZM113.329 182.037L112.618 181.334L112.618 181.334L113.329 182.037ZM112.666 182.735L111.927 182.061L111.892 182.1L111.861 182.142L112.666 182.735ZM105.642 194.581L104.733 194.164L104.723 194.186L104.714 194.208L105.642 194.581ZM100.786 218.547L99.7876 218.607L99.8391 219.462L100.691 219.543L100.786 218.547ZM109.148 225.042L108.162 225.207L109.148 225.042ZM103.772 232.807L103.682 231.811L101.752 231.987L103.013 233.458L103.772 232.807ZM104.165 233.242L103.431 233.921H103.431L104.165 233.242ZM105.814 243.328L104.889 242.947L105.814 243.328ZM104.081 246.305C106.693 247.548 109.941 248.027 113.438 248.553L113.735 246.575C110.146 246.036 107.228 245.588 104.94 244.499L104.081 246.305ZM113.438 248.553C115.472 248.859 117.625 249.183 119.892 249.672L120.314 247.717C117.976 247.213 115.764 246.88 113.735 246.575L113.438 248.553ZM119.993 249.688C121.649 249.872 123.668 250.154 125.942 250.471L126.218 248.49C123.954 248.174 121.903 247.888 120.213 247.7L119.993 249.688ZM125.942 250.471C130.908 251.163 137.046 252.019 142.965 252.342C148.856 252.663 154.669 252.467 158.936 250.973L158.275 249.085C154.402 250.441 148.925 250.664 143.074 250.345C137.252 250.027 131.197 249.184 126.218 248.49L125.942 250.471ZM159.595 250.172C159.925 247.89 159.864 243.446 159.546 237.827C159.226 232.172 158.638 225.228 157.881 217.885C156.368 203.203 154.176 186.879 152.085 176.006L150.121 176.383C152.197 187.176 154.382 203.437 155.892 218.09C156.647 225.414 157.231 232.325 157.549 237.94C157.87 243.593 157.912 247.836 157.616 249.886L159.595 250.172ZM151.541 175.295C145.153 172.187 136.265 170.291 125.674 168.213L125.288 170.176C135.947 172.267 144.558 174.122 150.666 177.094L151.541 175.295ZM124.841 168.426C121.382 171.309 118.178 174.46 115.294 177.826L116.813 179.128C119.623 175.848 122.746 172.776 126.121 169.962L124.841 168.426ZM115.173 178.004C114.62 179.032 113.789 180.148 112.618 181.334L114.041 182.739C115.317 181.447 116.274 180.18 116.934 178.95L115.173 178.004ZM112.618 181.334C112.384 181.571 112.154 181.813 111.927 182.061L113.405 183.409C113.614 183.18 113.826 182.957 114.041 182.739L112.618 181.334ZM111.861 182.142C109.059 185.944 106.656 189.973 104.733 194.164L106.551 194.998C108.413 190.939 110.745 187.028 113.471 183.328L111.861 182.142ZM104.714 194.208C100.939 203.609 99.514 214.076 99.7876 218.607L101.784 218.487C101.531 214.301 102.884 204.131 106.57 194.953L104.714 194.208ZM100.691 219.543C104.171 219.874 107.532 221.431 108.162 225.207L110.134 224.878C109.275 219.72 104.652 217.911 100.88 217.552L100.691 219.543ZM108.162 225.207C108.592 227.791 107.87 229.348 106.93 230.296C105.942 231.292 104.6 231.728 103.682 231.811L103.863 233.803C105.135 233.687 106.958 233.108 108.35 231.704C109.789 230.253 110.659 228.028 110.134 224.878L108.162 225.207ZM103.013 233.458C103.141 233.607 103.288 233.766 103.431 233.921L104.9 232.564C104.75 232.401 104.63 232.271 104.532 232.156L103.013 233.458ZM103.431 233.921C104.131 234.679 104.994 235.626 105.452 237.015C105.899 238.371 105.994 240.265 104.889 242.947L106.738 243.709C107.998 240.65 107.969 238.26 107.351 236.388C106.745 234.548 105.601 233.323 104.9 232.564L103.431 233.921ZM104.889 242.947C104.627 243.585 104.248 244.184 103.758 244.743L105.263 246.061C105.884 245.351 106.385 244.567 106.738 243.709L104.889 242.947ZM100.88 217.552C100.405 217.506 99.9361 217.483 99.4805 217.478L99.459 219.478C99.8606 219.482 100.273 219.503 100.691 219.543L100.88 217.552Z" fill="black"/>
<path d="M144.606 185.029C147.606 207.279 148.553 221.073 149.356 243.029C135.523 242.029 112.932 240.766 109.532 238.766" stroke="#699A60" stroke-width="2" stroke-linecap="round" stroke-dasharray="4 4"/>
<path d="M165.463 248.734C165.172 237.38 161.945 200.416 156.356 174.904C161.606 170.614 165.106 172.279 171.607 168.444C183.604 178.444 188.982 193.569 194.607 205.194C205.482 229.654 199.232 235.239 195.482 240.904C189.271 246.954 178.077 250.233 166.408 249.704C165.886 249.681 165.477 249.257 165.463 248.734Z" fill="#475851"/>
<path d="M156.356 174.904L155.38 175.118C155.299 174.75 155.432 174.368 155.724 174.13L156.356 174.904ZM165.463 248.734L166.463 248.708L165.463 248.734ZM166.408 249.704L166.363 250.703H166.363L166.408 249.704ZM195.482 240.904L196.316 241.456L196.257 241.546L196.18 241.621L195.482 240.904ZM194.607 205.194L195.507 204.759L195.514 204.773L195.52 204.788L194.607 205.194ZM171.607 168.444L171.098 167.583C171.462 167.368 171.922 167.406 172.247 167.676L171.607 168.444ZM157.333 174.69C162.938 200.276 166.17 237.305 166.463 248.708L164.464 248.76C164.173 237.455 160.952 200.556 155.38 175.118L157.333 174.69ZM166.454 248.705C177.96 249.226 188.84 245.978 194.784 240.188L196.18 241.621C189.703 247.93 178.195 251.239 166.363 250.703L166.454 248.705ZM194.648 240.352C196.587 237.423 198.903 234.843 199.537 229.968C200.174 225.073 199.101 217.763 193.693 205.601L195.52 204.788C200.988 217.086 202.227 224.798 201.521 230.226C200.811 235.676 198.127 238.72 196.316 241.456L194.648 240.352ZM193.706 205.63C188.011 193.859 182.748 179.033 170.966 169.212L172.247 167.676C184.459 177.855 189.952 193.28 195.507 204.759L193.706 205.63ZM172.115 169.306C168.726 171.305 166.093 171.876 163.76 172.472C161.471 173.058 159.448 173.669 156.989 175.679L155.724 174.13C158.515 171.849 160.867 171.148 163.265 170.535C165.619 169.933 167.987 169.419 171.098 167.583L172.115 169.306ZM166.463 248.708C166.463 248.712 166.464 248.712 166.463 248.711C166.463 248.711 166.463 248.71 166.462 248.71C166.462 248.709 166.46 248.708 166.458 248.707C166.457 248.706 166.455 248.706 166.454 248.705C166.453 248.705 166.453 248.705 166.454 248.705L166.363 250.703C165.307 250.655 164.491 249.798 164.464 248.76L166.463 248.708Z" fill="black"/>
<path d="M60.6259 210.583L60.594 210.742L60.6142 210.903C60.9827 213.848 63.0336 216.008 65.8432 217.499C68.6503 218.989 72.3496 219.894 76.3632 220.31C84.3903 221.141 93.987 220.045 100.963 217.377L101.679 217.103L101.6 216.341C100.881 209.385 103.598 200.55 108.225 191.903C112.838 183.284 119.268 175.005 125.773 169.19L127.821 167.359L125.075 167.445C117.571 167.679 112.293 167.249 103.906 166.566C103.427 166.527 102.937 166.487 102.436 166.447L102.072 166.417L101.774 166.63C95.0294 171.447 85.426 179.19 77.1859 187.305C73.066 191.363 69.2693 195.531 66.3383 199.487C63.4236 203.421 61.2952 207.238 60.6259 210.583Z" fill="#475851" stroke="black" stroke-width="2"/>
<path d="M60.1333 202.926L60.0875 203.116L60.1166 203.309C60.505 205.888 62.6657 207.785 65.4551 209.13C68.2858 210.496 72.0236 211.426 76.0885 211.95C84.2142 212.996 93.9284 212.45 100.909 210.232L101.458 210.058L101.583 209.495C105.407 192.223 112.532 181.663 124.497 171.672L126.703 169.83L123.83 169.904C119.975 170.005 117.023 169.325 113.82 168.516C113.609 168.463 113.397 168.409 113.183 168.354C110.151 167.584 106.84 166.743 102.423 166.446L102.113 166.425L101.845 166.583C95.1089 170.58 85.3814 176.939 77.0136 183.612C72.8308 186.947 68.9662 190.378 65.981 193.645C63.0225 196.882 60.8209 200.072 60.1333 202.926Z" fill="#475851" stroke="black" stroke-width="2"/>
<mask id="mask1_1521_12741" style="mask-type:alpha" maskUnits="userSpaceOnUse" x="61" y="167" width="63" height="45">
<path d="M61.1055 203.161C63.6064 192.778 88.9388 175.404 102.355 167.443C111.606 168.067 115.857 171.112 123.856 170.904C111.731 181.029 104.481 191.779 100.606 209.279C86.9824 213.607 62.3568 211.467 61.1055 203.161Z" fill="#475851"/>
</mask>
<g mask="url(#mask1_1521_12741)">
<path d="M102.481 173.121C93.5231 181.531 74.6064 201.466 72.1064 210.188" stroke="#699A60" stroke-width="2" stroke-linecap="round"/>
<path d="M108.642 173.121C99.6833 181.531 80.6064 202.816 78.1064 211.538" stroke="#699A60" stroke-width="2" stroke-linecap="round"/>
</g>
<path d="M164.856 182.529L173.606 241.029C181.69 239.113 198.106 233.929 199.106 228.529" stroke="#699A60" stroke-width="2" stroke-linecap="round" stroke-dasharray="4 4"/>
<path d="M155.961 173.042C150.481 165.155 101.732 152.03 85.8569 154.78C75.982 156.28 68.7064 167.38 76.6064 183.78C80.7315 179.405 93.0311 172.905 101.231 172.905C109.431 172.905 136.064 176.988 148.356 179.03L155.961 173.042Z" fill="white" stroke="black" stroke-width="2" stroke-linecap="round" stroke-linejoin="round"/>
<path d="M155.232 172.404C158.317 164.518 185.795 152.654 194.731 155.404C200.29 156.904 204.803 168.254 200.356 184.654C198.034 180.279 191.386 172.905 186.77 172.905C182.154 172.905 167.162 176.988 160.242 179.03L155.232 172.404Z" fill="white" stroke="black" stroke-width="2" stroke-linecap="round" stroke-linejoin="round"/>
<path d="M152.979 175.031C150.729 171.775 105.383 155.456 89.1043 158.54C78.604 160.53 78.8379 165.315 78.627 174.141C78.9824 175.831 79.3145 177.954 79.9789 181.78C82.1039 179.863 87.7493 177.815 90.062 176.454C92.187 175.204 96.3539 173.915 105.854 174.04C117.468 174.193 137.646 178.582 145.604 181.29L149.979 180.283L152.979 175.031Z" fill="#475851"/>
<path d="M156.596 175.03C157.865 171.774 183.327 157.039 192.637 158.539C198.729 159.521 199.071 169.934 198.17 177.524C197.969 179.214 197.284 182.64 197.01 183.914C195.811 181.998 193.025 178.025 191.72 176.665C190.521 175.414 188.546 173.914 183.186 174.039C176.633 174.192 165.248 178.581 160.757 181.289L158.288 180.283L156.596 175.03Z" fill="#475851"/>
<path d="M154.106 175.53C151.606 171.53 105.607 157.03 89.1068 158.53C78.3108 159.512 77.7048 169.925 79.3011 177.515C79.6565 179.205 79.6208 180.255 80.1064 181.53C82.2314 179.613 86.344 177.972 88.8564 177.03C91.8564 175.905 96.3564 173.905 105.856 174.03C117.471 174.183 131.898 176.947 139.856 179.655" stroke="black" stroke-width="2" stroke-linecap="round" stroke-linejoin="round"/>
<path d="M155.961 175.53C157.371 171.53 183.326 157.03 192.637 158.53C198.728 159.512 198.856 174.155 198.856 174.155C198.856 174.155 198.505 180.88 198.231 182.155C197.032 180.238 191.981 176.03 191.981 176.03C191.981 176.03 188.507 173.374 183.186 174.03C177.106 174.78 175.606 175.53 169.856 177.03" stroke="black" stroke-width="2" stroke-linecap="round" stroke-linejoin="round"/>
<path d="M79.3564 174.029C88.0648 170.904 112.106 170.655 143.231 180.779" stroke="black" stroke-width="2" stroke-linecap="round"/>
<path d="M198.139 176.279C192.356 174.655 183.231 170.905 164.856 178.905" stroke="black" stroke-width="2" stroke-linecap="round"/>
<path d="M162.233 171.022C162.431 170.616 162.723 169.928 162.876 169.155C163.13 167.869 163.05 166.046 161.306 164.849L161.306 164.849C159.61 163.685 157.939 164.116 156.827 164.735C156.276 165.042 155.83 165.409 155.524 165.693C155.483 165.731 155.445 165.768 155.408 165.803C155.088 165.771 154.771 165.761 154.458 165.77C153.923 165.752 153.337 165.821 152.912 165.887C152.687 165.921 152.493 165.957 152.354 165.985C152.284 165.998 152.228 166.01 152.189 166.018L152.142 166.028L152.137 166.029C151.83 166.09 151.523 166.171 151.218 166.272C151.174 166.245 151.128 166.217 151.079 166.189C150.718 165.98 150.201 165.722 149.596 165.545C148.374 165.188 146.649 165.138 145.254 166.651C143.821 168.204 144.149 170.001 144.681 171.198C145 171.915 145.424 172.507 145.721 172.874C145.695 172.989 145.644 173.113 145.556 173.27C145.468 173.43 145.389 173.548 145.292 173.694C145.215 173.81 145.126 173.943 145.012 174.128C144.545 174.882 144.096 175.865 144.265 177.367C144.432 178.848 145.131 180.172 146.383 181.047C147.623 181.914 149.295 182.265 151.286 182.041L152.37 181.919C152.462 181.981 152.57 182.047 152.692 182.11C153.137 182.342 153.777 182.549 154.579 182.495C154.594 182.495 154.611 182.494 154.633 182.493C154.68 182.491 154.746 182.487 154.832 182.48C155 182.466 155.243 182.44 155.569 182.393C156.415 182.294 157.033 181.946 157.443 181.607C157.564 181.508 157.666 181.409 157.752 181.318L158.831 181.196C160.821 180.973 162.374 180.259 163.391 179.139C164.417 178.008 164.805 176.563 164.639 175.082C164.477 173.582 163.824 172.722 163.203 172.089C163.049 171.933 162.933 171.822 162.832 171.726C162.706 171.606 162.604 171.508 162.482 171.372C162.362 171.238 162.284 171.128 162.233 171.022ZM154.463 166.77L154.46 166.746L154.461 166.718L154.463 166.77Z" fill="#50C878" stroke="black" stroke-width="2"/>
<rect x="132.231" y="173.098" width="5.4502" height="32.5574" rx="2.7251" fill="white" stroke="black" stroke-width="2"/>
<rect x="-1.16667" y="-0.687083" width="4.93668" height="32.2817" rx="2.46834" transform="matrix(0.956828 -0.290653 0.209838 0.977736 170.267 172.895)" fill="white" stroke="black" stroke-width="2"/>
<circle cx="134.956" cy="194.404" r="5.33398" fill="#50C878" stroke="black" stroke-width="2"/>
<path d="M176.912 197.675C179.521 196.883 180.87 193.85 180.288 191.135C179.705 188.421 177.299 186.529 174.69 187.321C172.081 188.114 170.732 191.147 171.315 193.861C171.897 196.575 174.303 198.468 176.912 197.675Z" fill="#50C878" stroke="black" stroke-width="2"/>
<path d="M165.008 199.754L164.337 200.495L165.008 199.754C164.156 198.983 162.909 199.189 162.286 200.089C161.059 201.86 159.373 202.474 157.586 202.486C155.738 202.498 153.917 201.848 152.849 201.256C151.818 200.683 150.681 201.243 150.274 202.201C149.889 203.107 150.175 204.282 151.114 204.803C152.598 205.627 155.021 206.503 157.61 206.486C160.258 206.468 163.203 205.5 165.302 202.469C165.874 201.643 165.777 200.449 165.008 199.754Z" fill="white" stroke="black" stroke-width="2" stroke-linecap="round"/>
<path d="M165.883 207.9L165.212 208.642L165.883 207.9C165.031 207.129 163.784 207.336 163.161 208.236C161.934 210.007 160.248 210.62 158.461 210.632C156.613 210.644 154.792 209.995 153.724 209.402C152.693 208.829 151.556 209.39 151.149 210.348C150.764 211.253 151.05 212.428 151.989 212.95C153.473 213.774 155.896 214.649 158.485 214.632C161.133 214.615 164.078 213.646 166.177 210.616C166.749 209.79 166.652 208.596 165.883 207.9Z" fill="white" stroke="black" stroke-width="2" stroke-linecap="round"/>
<path d="M166.758 216.305L166.087 217.046L166.758 216.305C165.906 215.533 164.659 215.74 164.036 216.64C162.809 218.411 161.123 219.025 159.336 219.036C157.488 219.049 155.667 218.399 154.599 217.806C153.568 217.234 152.431 217.794 152.024 218.752C151.639 219.658 151.925 220.833 152.864 221.354C154.348 222.178 156.771 223.053 159.36 223.036C162.008 223.019 164.953 222.05 167.052 219.02C167.624 218.194 167.527 217 166.758 216.305Z" fill="white" stroke="black" stroke-width="2" stroke-linecap="round"/>
</svg>
