<svg width="361" height="340" viewBox="0 0 361 340" fill="none" xmlns="http://www.w3.org/2000/svg">
<path d="M184.594 171.3C203.495 177.234 225.664 183.04 228.73 187.462C222.105 188.775 213.469 191.425 212.969 205.925C212.842 209.614 213.583 212.226 214.737 214.08C216.662 214.211 221.609 214.034 221.951 214.803C222.224 215.418 223.317 217.678 223.829 218.731C220.755 219.585 211.501 217.431 206.363 216.148C203.516 215.437 201.236 214.833 198.708 213.848C198.942 211.275 198.989 208.938 197.585 206.129C195.829 202.441 194.385 201.82 193.269 200.047C187.528 187.208 180.358 177.268 176.981 173.702C176.856 171.452 176.84 170.452 176.844 169.55C178.941 169.813 182.258 170.567 184.594 171.3Z" fill="#97674B"/>
<path d="M223.829 218.731C220.755 219.585 211.501 217.431 206.363 216.148C203.516 215.437 201.236 214.833 198.708 213.848C198.942 211.275 198.989 208.938 197.585 206.129C195.829 202.441 194.385 201.82 193.269 200.047C187.528 187.208 180.358 177.268 176.981 173.702C176.856 171.452 176.84 170.452 176.844 169.55C178.941 169.813 182.258 170.567 184.594 171.3C203.495 177.234 225.664 183.04 228.73 187.462C222.105 188.775 213.469 191.425 212.969 205.925C212.842 209.614 213.583 212.226 214.737 214.08M223.829 218.731C223.317 217.678 222.224 215.418 221.951 214.803C221.609 214.034 216.662 214.211 214.737 214.08M223.829 218.731C222.509 218.611 217.468 218.465 214.737 214.08" stroke="black" stroke-width="2"/>
<path fill-rule="evenodd" clip-rule="evenodd" d="M198.478 215.318C197.693 217.753 196.267 219.769 194.978 221.243C190.478 226.386 174.478 233.243 167.478 226.243C165.761 224.526 164.839 222.564 164.539 220.598C164.197 220.694 163.842 220.745 163.477 220.745C162.143 220.745 160.931 220.066 160.034 218.959C158.535 219.695 156.99 218.798 155.978 214.243C155.311 211.243 156.272 204.742 159.978 199.743C166.591 190.823 182.696 190.254 192.717 199.501C186.48 185.471 180.187 175.782 171.579 168.719C167.958 173.718 163.48 178.1 154.981 178.6C142.628 178.882 121.342 171.295 110.464 167.418C107.216 166.261 104.896 165.434 104.019 165.246C103.481 167.398 101.88 171.169 99.7799 176.117C94.0103 189.71 84.4723 212.181 82.8499 234.354C82.5248 238.797 85.3126 242.794 89.5815 244.068C109.308 249.954 148.548 256.769 169.985 253.431C195.994 249.38 202.919 234.099 198.478 215.318Z" fill="#8F3D2C"/>
<path d="M198.478 215.318L199.452 215.088L198.627 211.602L197.527 215.011L198.478 215.318ZM194.978 221.243L194.225 220.584L194.978 221.243ZM167.478 226.243L168.185 225.536L167.478 226.243ZM164.539 220.598L165.528 220.448L165.357 219.329L164.268 219.636L164.539 220.598ZM160.034 218.959L160.811 218.329L160.309 217.709L159.593 218.061L160.034 218.959ZM155.978 214.243L155.002 214.46L155.978 214.243ZM159.978 199.743L159.175 199.148L159.978 199.743ZM192.717 199.501L192.039 200.236L193.631 199.094L192.717 199.501ZM171.579 168.719L172.213 167.946L171.392 167.272L170.769 168.132L171.579 168.719ZM154.981 178.6L155.003 179.6L155.021 179.6L155.039 179.599L154.981 178.6ZM110.464 167.418L110.8 166.476L110.464 167.418ZM104.019 165.246L104.228 164.268L103.283 164.065L103.049 165.003L104.019 165.246ZM99.7799 176.117L100.7 176.507V176.507L99.7799 176.117ZM82.8499 234.354L83.8473 234.427L82.8499 234.354ZM89.5815 244.068L89.2955 245.026H89.2955L89.5815 244.068ZM169.985 253.431L169.831 252.443L169.985 253.431ZM197.527 215.011C196.798 217.27 195.464 219.168 194.225 220.584L195.73 221.901C197.071 220.37 198.587 218.236 199.43 215.626L197.527 215.011ZM194.225 220.584C192.145 222.961 187.22 225.882 181.902 227.332C176.546 228.792 171.283 228.634 168.185 225.536L166.771 226.95C170.672 230.852 176.91 230.765 182.428 229.261C187.986 227.746 193.31 224.667 195.73 221.901L194.225 220.584ZM168.185 225.536C166.618 223.968 165.795 222.201 165.528 220.448L163.55 220.749C163.883 222.928 164.905 225.084 166.771 226.95L168.185 225.536ZM164.268 219.636C164.012 219.708 163.748 219.745 163.477 219.745V221.745C163.935 221.745 164.381 221.681 164.81 221.561L164.268 219.636ZM163.477 219.745C162.504 219.745 161.559 219.252 160.811 218.329L159.257 219.588C160.303 220.879 161.782 221.745 163.477 221.745V219.745ZM159.593 218.061C159.35 218.181 159.175 218.2 159.048 218.183C158.929 218.166 158.755 218.103 158.531 217.879C158.04 217.386 157.451 216.26 156.954 214.026L155.002 214.46C155.517 216.78 156.206 218.38 157.116 219.291C157.592 219.769 158.149 220.077 158.772 220.164C159.388 220.249 159.968 220.105 160.475 219.856L159.593 218.061ZM156.954 214.026C156.665 212.724 156.712 210.512 157.311 207.972C157.906 205.453 159.024 202.709 160.781 200.339L159.175 199.148C157.226 201.776 156.01 204.781 155.365 207.513C154.725 210.223 154.624 212.761 155.002 214.46L156.954 214.026ZM160.781 200.339C163.858 196.189 169.208 193.907 175.086 193.809C180.954 193.712 187.231 195.799 192.039 200.236L193.395 198.766C188.183 193.956 181.397 191.704 175.053 191.809C168.721 191.915 162.711 194.377 159.175 199.148L160.781 200.339ZM193.631 199.094C187.365 185 180.993 175.15 172.213 167.946L170.944 169.492C179.38 176.413 185.595 185.942 191.803 199.907L193.631 199.094ZM170.769 168.132C167.235 173.011 162.997 177.127 154.922 177.602L155.039 179.599C163.962 179.073 168.68 174.425 172.389 169.305L170.769 168.132ZM154.958 177.601C148.945 177.737 140.662 175.951 132.444 173.607C124.254 171.271 116.241 168.416 110.8 166.476L110.129 168.36C115.565 170.298 123.635 173.174 131.895 175.53C140.128 177.878 148.664 179.744 155.003 179.6L154.958 177.601ZM110.8 166.476C109.178 165.898 107.779 165.4 106.676 165.022C105.594 164.652 104.736 164.377 104.228 164.268L103.809 166.223C104.179 166.303 104.92 166.535 106.029 166.914C107.117 167.287 108.502 167.781 110.129 168.36L110.8 166.476ZM103.049 165.003C102.535 167.058 100.979 170.733 98.8594 175.726L100.7 176.507C102.781 171.606 104.426 167.738 104.989 165.488L103.049 165.003ZM98.8594 175.726C93.0991 189.297 83.4889 211.917 81.8526 234.281L83.8473 234.427C85.4556 212.445 94.9216 190.122 100.7 176.507L98.8594 175.726ZM81.8526 234.281C81.4929 239.198 84.5819 243.619 89.2955 245.026L89.8674 243.109C86.0433 241.968 83.5568 238.397 83.8473 234.427L81.8526 234.281ZM89.2955 245.026C99.2165 247.986 114.01 251.171 129.008 253.199C143.985 255.225 159.272 256.111 170.139 254.419L169.831 252.443C159.261 254.089 144.209 253.237 129.276 251.217C114.362 249.201 99.6724 246.035 89.8674 243.109L89.2955 245.026ZM170.139 254.419C183.307 252.368 191.847 247.441 196.484 240.451C201.117 233.466 201.709 224.636 199.452 215.088L197.505 215.549C199.688 224.782 199.038 232.983 194.817 239.346C190.599 245.704 182.672 250.443 169.831 252.443L170.139 254.419Z" fill="black"/>
<path fill-rule="evenodd" clip-rule="evenodd" d="M198.575 215.002C197.814 217.578 196.321 219.706 194.976 221.243C190.476 226.386 174.476 233.243 167.476 226.243C165.76 224.526 164.837 222.564 164.538 220.598C164.195 220.694 163.84 220.745 163.476 220.745C161.832 220.745 160.374 219.715 159.463 218.124C158.715 217.512 157.99 216.032 157.373 213.258C156.707 210.258 156.27 204.742 159.976 199.743C166.626 190.774 182.871 190.248 192.879 199.653C187.041 186.566 179.559 174.797 174.996 167.619C174.81 167.327 174.629 167.042 174.453 166.765C170.953 170.764 162.91 178.395 154.924 178.85C148.657 179.208 134.653 174.474 122.866 170.49C112.911 167.125 104.537 164.295 103.743 165.518C92.8131 190.332 86.6147 209.216 85.0174 222.431C84.0576 230.371 89.6532 236.971 97.3408 239.178C117.202 244.88 149.11 250.945 168.681 247.897C197.925 243.342 203.888 233.895 198.575 215.002Z" fill="#97674B"/>
<path d="M198.575 215.002L199.537 214.731L198.598 211.392L197.616 214.719L198.575 215.002ZM194.976 221.243L194.224 220.584L194.976 221.243ZM164.538 220.598L165.526 220.448L165.356 219.329L164.267 219.636L164.538 220.598ZM159.463 218.124L160.331 217.627L160.239 217.466L160.096 217.35L159.463 218.124ZM157.373 213.258L156.397 213.475L157.373 213.258ZM159.976 199.743L160.78 200.339L159.976 199.743ZM192.879 199.653L192.194 200.381L193.792 199.245L192.879 199.653ZM174.996 167.619L175.84 167.083L175.84 167.083L174.996 167.619ZM174.453 166.765L175.297 166.229L174.581 165.101L173.701 166.106L174.453 166.765ZM154.924 178.85L154.981 179.849L154.924 178.85ZM122.866 170.49L122.546 171.437L122.866 170.49ZM103.743 165.518L102.904 164.974L102.86 165.041L102.828 165.115L103.743 165.518ZM85.0174 222.431L86.0101 222.551L85.0174 222.431ZM97.3408 239.178L97.6168 238.217H97.6168L97.3408 239.178ZM168.681 247.897L168.835 248.885L168.681 247.897ZM197.616 214.719C196.911 217.105 195.517 219.107 194.224 220.584L195.729 221.901C197.126 220.305 198.717 218.051 199.534 215.285L197.616 214.719ZM194.224 220.584C192.144 222.961 187.219 225.882 181.901 227.331C176.544 228.792 171.282 228.634 168.183 225.536L166.769 226.95C170.671 230.851 176.909 230.765 182.427 229.261C187.984 227.746 193.309 224.667 195.729 221.901L194.224 220.584ZM168.183 225.536C166.616 223.968 165.793 222.201 165.526 220.448L163.549 220.749C163.881 222.928 164.903 225.084 166.769 226.95L168.183 225.536ZM164.267 219.636C164.011 219.708 163.747 219.745 163.476 219.745V221.745C163.933 221.745 164.38 221.681 164.808 221.561L164.267 219.636ZM163.476 219.745C162.283 219.745 161.115 218.996 160.331 217.627L158.595 218.621C159.634 220.434 161.382 221.745 163.476 221.745V219.745ZM160.096 217.35C159.893 217.184 159.604 216.82 159.283 216.096C158.967 215.384 158.649 214.39 158.35 213.041L156.397 213.475C156.714 214.9 157.067 216.033 157.455 216.907C157.837 217.77 158.285 218.452 158.83 218.898L160.096 217.35ZM158.35 213.041C157.712 210.172 157.322 205.003 160.78 200.339L159.173 199.148C155.219 204.48 155.701 210.344 156.397 213.475L158.35 213.041ZM160.78 200.339C163.873 196.166 169.265 193.882 175.181 193.808C181.085 193.734 187.392 195.869 192.194 200.381L193.564 198.924C188.357 194.031 181.538 191.728 175.155 191.808C168.784 191.888 162.729 194.351 159.173 199.148L160.78 200.339ZM193.792 199.245C187.921 186.083 180.402 174.257 175.84 167.083L174.153 168.156C178.717 175.336 186.162 187.048 191.966 200.06L193.792 199.245ZM175.84 167.083C175.654 166.79 175.473 166.505 175.297 166.229L173.609 167.301C173.785 167.578 173.967 167.863 174.153 168.156L175.84 167.083ZM173.701 166.106C171.986 168.066 169.156 170.915 165.789 173.323C162.405 175.743 158.584 177.64 154.867 177.852L154.981 179.849C159.25 179.605 163.444 177.459 166.952 174.95C170.479 172.428 173.421 169.463 175.206 167.423L173.701 166.106ZM154.867 177.852C151.927 178.019 147.017 176.979 141.239 175.336C135.509 173.708 129.086 171.537 123.187 169.543L122.546 171.437C128.434 173.428 134.906 175.615 140.692 177.26C146.43 178.891 151.655 180.038 154.981 179.849L154.867 177.852ZM123.187 169.543C118.218 167.863 113.609 166.305 110.142 165.321C108.414 164.831 106.927 164.471 105.803 164.315C105.247 164.238 104.724 164.202 104.283 164.247C103.905 164.286 103.268 164.413 102.904 164.974L104.582 166.062C104.417 166.317 104.215 166.265 104.486 166.237C104.693 166.216 105.033 166.227 105.529 166.296C106.509 166.432 107.887 166.76 109.596 167.245C113.004 168.212 117.559 169.752 122.546 171.437L123.187 169.543ZM102.828 165.115C91.8901 189.946 85.6404 208.942 84.0246 222.311L86.0101 222.551C87.5889 209.489 93.7361 190.717 104.658 165.921L102.828 165.115ZM84.0246 222.311C82.992 230.854 89.0263 237.832 97.0649 240.139L97.6168 238.217C90.2801 236.111 85.1232 229.888 86.0101 222.551L84.0246 222.311ZM97.0649 240.139C107.036 243.002 120.023 245.954 132.978 247.809C145.915 249.661 158.901 250.432 168.835 248.885L168.527 246.908C158.889 248.409 146.136 247.672 133.261 245.829C120.405 243.988 107.507 241.057 97.6168 238.217L97.0649 240.139ZM168.835 248.885C183.474 246.605 192.612 243.067 197.35 237.472C202.165 231.787 202.219 224.268 199.537 214.731L197.612 215.273C200.243 224.629 199.973 231.28 195.824 236.18C191.597 241.171 183.132 244.634 168.527 246.908L168.835 248.885Z" fill="black"/>
<mask id="path-7-outside-1_1521_15032" maskUnits="userSpaceOnUse" x="166.395" y="181.154" width="20.1123" height="18.7596" fill="black">
<rect fill="white" x="166.395" y="181.154" width="20.1123" height="18.7596"/>
<path d="M179.921 187.558C179.895 187.522 179.867 187.489 179.835 187.461C179.836 187.45 180.268 185.281 178.665 184.868C177.064 184.454 176.385 186.368 176.381 186.378C176.143 186.421 175.915 186.487 175.698 186.574C175.698 186.574 175.698 186.574 175.696 186.575C175.237 186.72 174.672 187.083 174.672 187.083C174.474 187.203 174.285 187.343 174.108 187.505C174.097 187.502 172.162 186.886 171.524 188.412C170.886 189.938 172.874 190.907 172.883 190.911C172.889 190.955 172.897 190.997 172.908 191.038C173.004 191.369 172.909 191.676 172.83 192.021C175.09 191.492 179.027 192.023 180.781 192.308C182.141 191.437 182.414 190.216 181.879 189.138C181.305 187.967 180.375 188.169 179.921 187.558Z"/>
</mask>
<path d="M179.921 187.558C179.895 187.522 179.867 187.489 179.835 187.461C179.836 187.45 180.268 185.281 178.665 184.868C177.064 184.454 176.385 186.368 176.381 186.378C176.143 186.421 175.915 186.487 175.698 186.574C175.698 186.574 175.698 186.574 175.696 186.575C175.237 186.72 174.672 187.083 174.672 187.083C174.474 187.203 174.285 187.343 174.108 187.505C174.097 187.502 172.162 186.886 171.524 188.412C170.886 189.938 172.874 190.907 172.883 190.911C172.889 190.955 172.897 190.997 172.908 191.038C173.004 191.369 172.909 191.676 172.83 192.021C175.09 191.492 179.027 192.023 180.781 192.308C182.141 191.437 182.414 190.216 181.879 189.138C181.305 187.967 180.375 188.169 179.921 187.558Z" fill="#8F3D2C"/>
<path d="M179.921 187.558L181.528 186.366L181.523 186.36L181.519 186.354L179.921 187.558ZM179.835 187.461L177.848 187.237L177.73 188.274L178.515 188.963L179.835 187.461ZM178.665 184.868L178.165 186.804L178.167 186.805L178.665 184.868ZM176.381 186.378L176.73 188.348L177.851 188.149L178.252 187.084L176.381 186.378ZM175.698 186.574L174.809 184.782L176.439 188.431L175.698 186.574ZM175.696 186.575L176.301 188.481L176.448 188.434L176.586 188.366L175.696 186.575ZM174.672 187.083L175.705 188.796L175.729 188.781L175.753 188.766L174.672 187.083ZM174.108 187.505L173.54 189.423L174.624 189.744L175.459 188.98L174.108 187.505ZM171.524 188.412L173.369 189.184L173.369 189.184L171.524 188.412ZM172.883 190.911L174.866 190.649L174.722 189.555L173.719 189.094L172.883 190.911ZM172.908 191.038L170.979 191.567L170.983 191.583L170.988 191.598L172.908 191.038ZM181.879 189.138L180.084 190.019L180.088 190.028L181.879 189.138ZM172.83 192.021L170.881 191.573L170.161 194.7L173.286 193.968L172.83 192.021ZM180.781 192.308L180.46 194.282L181.215 194.405L181.86 193.993L180.781 192.308ZM181.519 186.354C181.454 186.268 181.333 186.115 181.155 185.959L178.515 188.963C178.402 188.864 178.336 188.777 178.324 188.761L181.519 186.354ZM181.822 187.685C181.804 187.845 181.973 186.942 181.828 186.009C181.678 185.039 181.079 183.424 179.164 182.931L178.167 186.805C178.147 186.8 178.095 186.782 178.031 186.737C177.968 186.693 177.921 186.643 177.891 186.6C177.84 186.528 177.858 186.512 177.875 186.621C177.891 186.722 177.892 186.846 177.884 186.962C177.88 187.015 177.874 187.056 177.871 187.079C177.87 187.09 177.868 187.096 177.868 187.097C177.868 187.097 177.868 187.098 177.868 187.097C177.868 187.097 177.868 187.097 177.868 187.097C177.868 187.1 177.869 187.095 177.868 187.101C177.867 187.102 177.866 187.108 177.865 187.115C177.865 187.118 177.863 187.126 177.861 187.137C177.86 187.143 177.858 187.156 177.857 187.165C177.855 187.177 177.85 187.213 177.848 187.237L181.822 187.685ZM179.166 182.931C177.362 182.465 176.069 183.397 175.412 184.155C175.091 184.526 174.871 184.901 174.734 185.169C174.663 185.306 174.61 185.427 174.571 185.518C174.531 185.613 174.505 185.686 174.51 185.673L178.252 187.084C178.254 187.079 178.257 187.072 178.258 187.069C178.258 187.068 178.259 187.065 178.26 187.064C178.26 187.062 178.261 187.061 178.261 187.061C178.261 187.06 178.261 187.061 178.261 187.061C178.26 187.063 178.26 187.065 178.259 187.067C178.257 187.07 178.256 187.073 178.256 187.074C178.255 187.077 178.256 187.075 178.258 187.069C178.264 187.055 178.276 187.028 178.295 186.991C178.336 186.91 178.387 186.83 178.436 186.773C178.488 186.714 178.485 186.74 178.408 186.772C178.366 186.79 178.312 186.804 178.256 186.808C178.229 186.81 178.206 186.809 178.189 186.808C178.172 186.806 178.164 186.804 178.165 186.804L179.166 182.931ZM176.032 184.409C175.653 184.476 175.293 184.582 174.957 184.716L176.439 188.431C176.536 188.393 176.633 188.365 176.73 188.348L176.032 184.409ZM175.698 186.574C176.588 188.365 175.698 186.574 174.809 184.782C174.809 184.782 174.809 184.782 174.809 184.782C174.809 184.782 174.809 184.782 174.809 184.782C174.809 184.782 174.809 184.782 174.809 184.782C174.809 184.782 174.809 184.782 174.809 184.782C174.809 184.782 174.809 184.782 174.809 184.782C174.809 184.782 174.809 184.782 174.809 184.782C174.809 184.782 174.809 184.782 174.809 184.782C174.809 184.782 174.809 184.782 174.809 184.782L174.809 184.782C174.809 184.782 174.809 184.782 174.809 184.782C174.809 184.782 174.809 184.782 174.809 184.782C174.809 184.782 174.809 184.782 174.809 184.782C174.809 184.782 174.809 184.782 174.809 184.782C174.809 184.782 174.809 184.782 174.809 184.782C174.809 184.782 174.809 184.782 174.809 184.782C174.809 184.782 174.809 184.782 174.809 184.782L174.809 184.782C174.809 184.782 174.809 184.782 174.809 184.782L174.809 184.782C174.809 184.782 174.809 184.782 174.809 184.782L174.809 184.782C174.809 184.782 174.809 184.782 174.809 184.782C174.809 184.782 174.809 184.782 174.809 184.782L174.809 184.782C174.809 184.782 174.809 184.782 174.809 184.782C174.809 184.782 174.809 184.782 174.809 184.782C174.809 184.782 174.809 184.782 174.809 184.782C174.809 184.782 174.809 184.782 174.809 184.782L174.809 184.782L174.809 184.782L174.809 184.782C174.809 184.782 174.809 184.782 174.809 184.782C174.809 184.782 174.809 184.782 174.809 184.782C174.809 184.782 174.809 184.782 174.809 184.782C174.809 184.782 174.809 184.782 174.809 184.782C174.809 184.782 174.809 184.782 174.809 184.782C174.809 184.782 174.809 184.782 174.809 184.782C174.809 184.782 174.809 184.782 174.809 184.782L174.809 184.782L174.809 184.782L174.809 184.782C174.809 184.782 174.809 184.782 174.809 184.782C174.809 184.782 174.809 184.782 174.809 184.782C174.809 184.782 174.809 184.782 174.809 184.782C174.809 184.782 174.809 184.782 174.809 184.782L174.809 184.782L174.809 184.782C174.809 184.782 174.809 184.782 174.809 184.782C174.809 184.782 174.809 184.782 174.809 184.782L174.809 184.782C174.809 184.782 174.809 184.782 174.809 184.782C174.809 184.782 174.809 184.782 174.809 184.782L174.809 184.782C174.809 184.782 174.809 184.782 174.809 184.782L174.809 184.782C174.809 184.782 174.809 184.782 174.809 184.782L174.809 184.782C174.809 184.782 174.809 184.782 174.809 184.782L174.809 184.782C174.809 184.782 174.809 184.782 174.809 184.782L174.809 184.782C174.809 184.782 174.809 184.782 174.809 184.782L174.809 184.782C174.809 184.782 174.809 184.782 174.809 184.782C174.809 184.782 174.809 184.782 174.809 184.782L174.809 184.782C174.809 184.782 174.809 184.782 174.809 184.782C174.809 184.782 174.809 184.782 174.809 184.782C174.809 184.782 174.809 184.782 174.809 184.782C174.809 184.782 174.809 184.782 174.809 184.782L174.809 184.782C174.809 184.782 174.809 184.782 174.809 184.782C174.809 184.782 174.809 184.782 174.809 184.782C174.809 184.782 174.809 184.782 174.809 184.782C174.809 184.782 174.809 184.782 174.809 184.782C174.809 184.782 174.809 184.782 174.809 184.782C174.809 184.782 174.809 184.782 174.809 184.782C174.809 184.782 174.809 184.782 174.809 184.782C174.809 184.782 174.809 184.782 174.809 184.782C174.809 184.782 174.809 184.782 174.809 184.782C174.809 184.782 174.809 184.782 174.809 184.782C174.809 184.782 174.809 184.782 174.809 184.782C174.809 184.782 174.809 184.782 174.809 184.782C174.809 184.782 174.809 184.782 174.809 184.782C174.809 184.782 174.809 184.782 174.809 184.782C174.809 184.782 174.809 184.782 174.809 184.782C174.809 184.782 174.809 184.782 174.809 184.782C174.809 184.782 174.809 184.782 174.809 184.782C174.809 184.782 174.809 184.782 174.809 184.782C174.809 184.782 174.809 184.782 174.809 184.782C174.809 184.782 174.809 184.782 174.809 184.782C174.809 184.782 174.809 184.782 174.809 184.782C174.809 184.782 174.809 184.782 174.809 184.782C174.809 184.782 174.809 184.782 174.809 184.782C174.809 184.782 174.809 184.782 174.809 184.782C174.809 184.782 174.809 184.782 174.809 184.782C174.809 184.782 174.809 184.782 174.809 184.782C174.809 184.782 174.809 184.782 174.809 184.782C174.809 184.782 174.809 184.782 174.809 184.782C174.809 184.782 174.809 184.782 174.809 184.782C174.809 184.782 174.809 184.782 174.809 184.782C174.809 184.782 174.809 184.782 174.809 184.782C174.809 184.782 174.809 184.782 174.809 184.782C174.809 184.782 174.809 184.782 174.809 184.782C174.809 184.782 174.809 184.782 174.809 184.782C174.809 184.782 174.809 184.782 174.809 184.782C174.809 184.782 174.809 184.782 174.809 184.782C174.809 184.782 174.809 184.782 174.809 184.782C174.809 184.782 174.809 184.782 174.809 184.782C174.809 184.782 174.809 184.782 174.809 184.782C174.809 184.782 174.809 184.782 174.809 184.782C174.809 184.782 174.809 184.782 174.809 184.782C174.809 184.782 174.809 184.782 174.809 184.782C174.809 184.782 174.809 184.782 174.809 184.782C174.809 184.782 174.809 184.782 174.809 184.782C174.809 184.782 174.809 184.782 174.809 184.782C174.809 184.782 174.809 184.782 174.809 184.782C174.809 184.782 174.809 184.782 174.809 184.782C174.809 184.782 174.809 184.782 174.809 184.782C174.809 184.782 174.809 184.782 174.809 184.782C174.809 184.782 174.809 184.782 174.809 184.782C174.809 184.782 174.809 184.782 174.809 184.782C174.809 184.782 174.809 184.782 174.809 184.782C174.809 184.782 174.809 184.782 174.809 184.782C174.809 184.782 174.809 184.782 174.809 184.782C174.809 184.782 174.809 184.782 174.809 184.782C174.809 184.782 174.809 184.782 174.809 184.782C174.809 184.782 174.809 184.782 174.809 184.782C174.809 184.782 174.809 184.782 174.809 184.782C174.809 184.782 174.809 184.782 174.809 184.782C174.809 184.782 174.809 184.782 174.809 184.782C174.809 184.782 174.809 184.782 174.809 184.782C174.809 184.782 174.809 184.782 174.809 184.782C174.809 184.782 174.809 184.782 174.809 184.782C174.809 184.782 174.809 184.782 174.809 184.782C174.809 184.782 174.809 184.782 174.809 184.782C174.809 184.782 174.809 184.782 174.809 184.782C174.809 184.782 174.809 184.782 174.809 184.782C174.809 184.782 174.809 184.782 174.809 184.782C174.809 184.782 174.809 184.782 174.809 184.782C174.809 184.782 174.809 184.782 174.809 184.782C174.809 184.782 174.809 184.782 174.809 184.782C174.809 184.782 174.809 184.782 174.809 184.782C174.809 184.782 174.809 184.782 174.809 184.782C174.809 184.782 174.809 184.782 174.809 184.782C174.809 184.782 174.809 184.782 174.809 184.782C174.809 184.782 174.809 184.782 174.809 184.782C174.809 184.782 174.809 184.782 174.809 184.782C174.809 184.782 174.809 184.782 174.809 184.782C174.809 184.782 174.809 184.782 174.809 184.782C174.809 184.782 174.809 184.782 174.809 184.782C174.809 184.782 174.809 184.782 174.809 184.782C174.809 184.782 174.809 184.782 174.809 184.782C174.809 184.782 174.809 184.782 174.809 184.782C174.809 184.782 174.809 184.782 174.809 184.782C174.809 184.782 174.809 184.782 174.809 184.782C174.809 184.782 174.809 184.782 174.809 184.782C174.809 184.782 174.809 184.782 174.809 184.782C174.809 184.782 174.809 184.782 174.809 184.782C174.809 184.782 174.809 184.782 174.809 184.782C174.809 184.782 174.809 184.782 174.809 184.782C174.809 184.782 174.809 184.782 174.809 184.782C174.809 184.782 174.809 184.782 174.809 184.782C174.809 184.782 174.809 184.782 174.809 184.782C174.809 184.782 174.809 184.782 174.809 184.782C174.809 184.782 174.809 184.782 174.809 184.782C174.809 184.782 174.809 184.782 174.809 184.782C174.809 184.782 174.809 184.782 174.809 184.782C174.809 184.782 174.809 184.782 174.809 184.782C174.809 184.782 174.809 184.782 174.809 184.782C174.809 184.782 174.809 184.782 174.809 184.782C174.809 184.782 174.809 184.782 174.809 184.782C174.809 184.782 174.809 184.782 174.809 184.782C174.809 184.782 174.809 184.782 174.809 184.782C174.809 184.782 174.809 184.782 174.809 184.782C174.809 184.782 174.809 184.782 174.809 184.782C174.809 184.782 174.809 184.782 174.809 184.782C174.809 184.782 174.809 184.782 174.809 184.782C174.809 184.782 174.809 184.782 174.809 184.782C174.809 184.782 174.809 184.782 174.809 184.782C174.809 184.782 174.809 184.782 174.809 184.782C174.809 184.782 174.809 184.782 174.809 184.782C174.809 184.782 174.809 184.782 174.809 184.782C174.809 184.782 174.809 184.782 174.809 184.782C174.809 184.782 174.809 184.782 174.809 184.782C174.809 184.782 174.809 184.782 174.809 184.782C174.809 184.782 174.809 184.782 174.809 184.782C174.809 184.782 174.809 184.782 174.809 184.782C174.809 184.782 174.809 184.782 174.809 184.782C174.809 184.782 174.809 184.782 174.809 184.782C174.809 184.782 174.809 184.782 174.809 184.782C174.809 184.782 174.809 184.782 174.809 184.782C174.809 184.782 174.809 184.782 174.809 184.782C174.809 184.782 174.809 184.782 174.809 184.782C174.809 184.782 174.809 184.782 174.809 184.782C174.809 184.782 174.809 184.782 174.809 184.782C174.809 184.782 174.809 184.782 174.809 184.782C174.809 184.782 174.809 184.782 174.809 184.782C174.809 184.782 174.809 184.782 174.809 184.782C174.809 184.782 174.809 184.782 174.809 184.782C174.809 184.782 174.809 184.782 174.809 184.782C174.809 184.782 174.809 184.782 174.809 184.782C174.809 184.782 174.809 184.782 174.809 184.782C174.809 184.782 174.808 184.782 174.808 184.782C174.808 184.783 174.808 184.783 174.808 184.783C174.808 184.783 174.808 184.783 174.808 184.783C174.808 184.783 174.808 184.783 174.808 184.783C174.808 184.783 174.808 184.783 174.808 184.783C174.808 184.783 174.808 184.783 174.808 184.783C174.808 184.783 174.808 184.783 174.808 184.783C174.808 184.783 174.808 184.783 174.808 184.783C174.808 184.783 174.808 184.783 174.808 184.783C174.808 184.783 174.808 184.783 174.808 184.783C174.808 184.783 174.808 184.783 174.808 184.783C174.808 184.783 174.808 184.783 174.808 184.783C174.808 184.783 174.808 184.783 174.808 184.783C174.808 184.783 174.808 184.783 174.808 184.783C174.808 184.783 174.808 184.783 174.808 184.783C174.808 184.783 174.808 184.783 174.808 184.783C174.808 184.783 174.808 184.783 174.808 184.783C174.808 184.783 174.808 184.783 174.808 184.783C174.808 184.783 174.808 184.783 174.808 184.783C174.808 184.783 174.808 184.783 174.808 184.783C174.808 184.783 174.808 184.783 174.808 184.783C174.808 184.783 174.808 184.783 174.808 184.783C174.808 184.783 174.808 184.783 174.808 184.783C174.808 184.783 174.808 184.783 174.808 184.783C174.808 184.783 174.808 184.783 174.808 184.783C174.808 184.783 174.808 184.783 174.808 184.783C174.808 184.783 174.808 184.783 174.808 184.783C174.808 184.783 174.808 184.783 174.808 184.783C174.808 184.783 174.808 184.783 174.808 184.783C174.808 184.783 174.808 184.783 174.808 184.783C174.808 184.783 174.808 184.783 174.808 184.783C174.808 184.783 174.808 184.783 174.808 184.783C174.808 184.783 174.808 184.783 174.808 184.783C174.808 184.783 174.808 184.783 174.808 184.783C174.808 184.783 174.808 184.783 174.808 184.783C174.808 184.783 174.808 184.783 174.808 184.783C174.808 184.783 174.808 184.783 174.808 184.783C174.808 184.783 174.808 184.783 174.808 184.783C174.808 184.783 174.808 184.783 174.808 184.783C174.808 184.783 174.808 184.783 174.808 184.783C174.808 184.783 174.808 184.783 174.808 184.783C174.808 184.783 174.808 184.783 174.808 184.783C174.808 184.783 174.808 184.783 174.808 184.783C174.808 184.783 174.808 184.783 174.808 184.783C174.808 184.783 174.808 184.783 174.808 184.783C174.808 184.783 174.808 184.783 174.808 184.783C174.808 184.783 174.808 184.783 174.808 184.783C174.808 184.783 174.808 184.783 174.808 184.783C174.808 184.783 174.808 184.783 174.808 184.783C174.808 184.783 174.808 184.783 174.808 184.783C174.808 184.783 174.808 184.783 174.808 184.783C174.808 184.783 174.808 184.783 174.808 184.783C174.808 184.783 174.808 184.783 174.808 184.783C174.808 184.783 174.808 184.783 174.808 184.783C174.808 184.783 174.808 184.783 174.808 184.783C174.808 184.783 174.808 184.783 174.808 184.783C174.808 184.783 174.808 184.783 174.808 184.783C174.808 184.783 174.808 184.783 174.808 184.783C174.808 184.783 174.808 184.783 174.808 184.783C174.808 184.783 174.808 184.783 174.808 184.783C174.808 184.783 174.808 184.783 174.808 184.783C174.808 184.783 174.808 184.783 174.808 184.783C174.808 184.783 174.808 184.783 174.808 184.783C174.808 184.783 174.808 184.783 174.808 184.783C174.808 184.783 174.808 184.783 174.808 184.783C174.808 184.783 174.808 184.783 174.808 184.783C174.808 184.783 174.808 184.783 174.808 184.783C174.808 184.783 174.808 184.783 174.808 184.783C174.808 184.783 174.808 184.783 174.808 184.783C174.808 184.783 174.808 184.783 174.808 184.783C174.808 184.783 174.808 184.783 174.808 184.783C174.808 184.783 174.808 184.783 174.808 184.783C174.808 184.783 174.808 184.783 174.808 184.783C174.808 184.783 174.808 184.783 174.808 184.783C174.808 184.783 174.808 184.783 174.808 184.783C174.808 184.783 174.808 184.783 174.808 184.783C174.808 184.783 174.808 184.783 174.808 184.783C174.808 184.783 174.808 184.783 174.808 184.783C174.808 184.783 174.808 184.783 174.808 184.783C174.808 184.783 174.808 184.783 174.808 184.783C174.808 184.783 174.808 184.783 174.808 184.783C174.808 184.783 174.808 184.783 174.808 184.783C174.808 184.783 174.808 184.783 174.808 184.783C174.808 184.783 174.808 184.783 174.808 184.783C174.808 184.783 174.808 184.783 174.808 184.783C174.808 184.783 174.808 184.783 174.808 184.783C174.808 184.783 174.808 184.783 174.808 184.783C174.808 184.783 174.808 184.783 174.808 184.783C174.808 184.783 174.808 184.783 174.808 184.783C174.808 184.783 174.808 184.783 174.808 184.783C174.808 184.783 174.808 184.783 174.808 184.783C174.808 184.783 174.808 184.783 174.808 184.783C174.808 184.783 174.808 184.783 174.808 184.783C174.808 184.783 174.808 184.783 174.808 184.783C174.808 184.783 174.808 184.783 174.808 184.783C174.808 184.783 174.808 184.783 174.808 184.783C174.808 184.783 174.808 184.783 174.808 184.783C174.808 184.783 174.808 184.783 174.808 184.783C174.808 184.783 174.808 184.783 174.808 184.783C174.808 184.783 174.808 184.783 174.808 184.783C174.808 184.783 174.808 184.783 174.808 184.783C174.808 184.783 174.808 184.783 174.808 184.783C174.808 184.783 174.808 184.783 174.808 184.783C174.808 184.783 174.808 184.783 174.808 184.783C174.808 184.783 174.808 184.783 174.808 184.783C174.808 184.783 174.808 184.783 174.808 184.783C174.808 184.783 174.808 184.783 174.808 184.783C174.808 184.783 174.808 184.783 174.808 184.783C174.808 184.783 174.808 184.783 174.808 184.783C174.808 184.783 174.808 184.783 174.808 184.783C174.808 184.783 174.808 184.783 174.808 184.783C174.808 184.783 174.808 184.783 174.808 184.783C174.808 184.783 174.808 184.783 174.808 184.783C174.808 184.783 174.808 184.783 174.808 184.783C174.808 184.783 174.808 184.783 174.808 184.783C174.808 184.783 174.808 184.783 174.808 184.783C174.808 184.783 174.808 184.783 174.808 184.783C174.808 184.783 174.808 184.783 174.808 184.783C174.808 184.783 174.808 184.783 174.808 184.783C174.808 184.783 174.808 184.783 174.808 184.783C174.808 184.783 174.808 184.783 174.808 184.783C174.808 184.783 174.808 184.783 174.808 184.783C174.808 184.783 174.808 184.783 174.808 184.783C174.808 184.783 174.808 184.783 174.808 184.783C174.808 184.783 174.808 184.783 174.808 184.783C174.808 184.783 174.808 184.783 174.808 184.783C174.808 184.783 174.808 184.783 174.808 184.783C174.808 184.783 174.808 184.783 174.808 184.783C174.808 184.783 174.808 184.783 174.808 184.783C174.808 184.783 174.808 184.783 174.808 184.783C174.808 184.783 174.808 184.783 174.808 184.783C174.808 184.783 174.808 184.783 174.808 184.783C174.808 184.783 174.808 184.783 174.808 184.783C174.808 184.783 174.808 184.783 174.808 184.783C174.808 184.783 174.808 184.783 174.808 184.783C174.808 184.783 174.808 184.783 174.808 184.783C174.808 184.783 174.808 184.783 174.808 184.783C174.808 184.783 174.808 184.783 174.808 184.783C174.808 184.783 174.808 184.783 174.808 184.783C174.808 184.783 174.808 184.783 174.808 184.783C174.808 184.783 174.808 184.783 174.808 184.783C174.808 184.783 174.808 184.783 174.808 184.783C174.808 184.783 174.808 184.783 174.808 184.783C174.808 184.783 174.808 184.783 174.808 184.783C174.808 184.783 174.808 184.783 174.808 184.783C174.808 184.783 174.808 184.783 174.808 184.783C174.808 184.783 174.808 184.783 174.808 184.783C174.808 184.783 174.808 184.783 174.808 184.783C174.808 184.783 174.808 184.783 174.808 184.783C174.808 184.783 174.808 184.783 174.808 184.783C174.808 184.783 174.808 184.783 174.808 184.783C174.808 184.783 174.808 184.783 174.808 184.783C174.808 184.783 174.808 184.783 174.808 184.783C174.808 184.783 174.808 184.783 174.808 184.783C174.808 184.783 174.808 184.783 174.808 184.783C174.808 184.783 174.808 184.783 174.808 184.783C174.808 184.783 174.808 184.783 174.808 184.783C174.808 184.783 174.808 184.783 174.808 184.783C174.808 184.783 174.808 184.783 174.808 184.783C174.808 184.783 174.808 184.783 174.808 184.783C174.808 184.783 174.808 184.783 174.808 184.783C174.808 184.783 174.808 184.783 174.808 184.783C174.808 184.783 174.808 184.783 174.808 184.783C174.808 184.783 174.808 184.783 174.808 184.783C174.808 184.783 174.808 184.783 174.808 184.783C174.808 184.783 174.808 184.783 174.808 184.783C174.808 184.783 174.808 184.783 174.808 184.783C174.808 184.783 174.808 184.783 174.808 184.783C174.808 184.783 174.808 184.783 174.808 184.783C174.808 184.783 174.808 184.783 174.808 184.783C174.808 184.783 174.808 184.783 174.808 184.783C174.808 184.783 174.808 184.783 174.808 184.783C174.808 184.783 174.808 184.783 174.808 184.783C174.808 184.783 174.808 184.783 174.808 184.783C174.808 184.783 174.808 184.783 174.808 184.783C174.808 184.783 174.808 184.783 174.808 184.783C174.808 184.783 174.808 184.783 174.808 184.783C174.808 184.783 174.808 184.783 174.808 184.783C174.808 184.783 174.808 184.783 174.808 184.783C174.808 184.783 174.808 184.783 174.808 184.783C174.808 184.783 174.808 184.783 174.808 184.783C174.808 184.783 174.808 184.783 174.808 184.783C174.808 184.783 174.808 184.783 174.808 184.783C174.807 184.783 174.807 184.783 174.807 184.783C174.807 184.783 174.807 184.783 174.807 184.783C174.807 184.783 174.807 184.783 174.807 184.783C174.807 184.783 174.807 184.783 174.807 184.783C174.807 184.783 174.807 184.783 174.807 184.783C174.807 184.783 174.807 184.783 174.807 184.783C174.807 184.783 174.807 184.783 174.807 184.783C174.807 184.783 174.807 184.783 174.807 184.783C174.807 184.783 174.807 184.783 174.807 184.783C174.807 184.783 174.807 184.783 174.807 184.783C174.807 184.783 174.807 184.783 174.807 184.783C174.807 184.783 174.807 184.783 174.807 184.783C174.807 184.783 174.807 184.783 174.807 184.783C174.807 184.783 174.807 184.783 174.807 184.783C174.807 184.783 174.807 184.783 174.807 184.783C174.807 184.783 174.807 184.783 174.807 184.783C174.807 184.783 174.807 184.783 174.807 184.783C174.807 184.783 174.807 184.783 174.807 184.783C174.807 184.783 174.807 184.783 174.807 184.783C174.807 184.783 174.807 184.783 174.807 184.783C174.807 184.783 174.807 184.783 174.807 184.783C174.807 184.783 174.807 184.783 174.807 184.783C174.807 184.783 174.807 184.783 174.807 184.783C174.807 184.783 174.807 184.783 174.807 184.783C174.807 184.783 174.807 184.783 174.807 184.783C174.807 184.783 174.807 184.783 174.807 184.783C174.807 184.783 174.807 184.783 174.807 184.783C174.807 184.783 174.807 184.783 174.807 184.783C174.807 184.783 174.807 184.783 174.807 184.783C174.807 184.783 174.807 184.783 174.807 184.783C174.807 184.783 174.807 184.783 174.807 184.783C174.807 184.783 174.807 184.783 174.807 184.783C174.807 184.783 174.807 184.783 174.807 184.783C174.807 184.783 174.807 184.783 174.807 184.783C174.807 184.783 174.807 184.783 174.807 184.783C174.807 184.783 174.807 184.783 174.807 184.783C174.807 184.783 174.807 184.783 174.807 184.783C174.807 184.783 174.807 184.783 174.807 184.783C174.807 184.783 174.807 184.783 174.807 184.783C174.807 184.783 174.807 184.783 174.807 184.783C174.807 184.783 174.807 184.783 174.807 184.783C174.807 184.783 174.807 184.783 174.807 184.783C174.807 184.783 174.807 184.783 174.807 184.783C174.807 184.783 174.807 184.783 174.807 184.783C174.807 184.783 174.807 184.783 174.807 184.783C174.807 184.783 174.807 184.783 174.807 184.783C174.807 184.783 174.807 184.783 174.807 184.783C174.807 184.783 174.807 184.783 174.807 184.783C174.807 184.783 174.807 184.783 174.807 184.783C174.807 184.783 174.807 184.783 174.807 184.783C174.807 184.783 174.807 184.783 174.807 184.783C174.807 184.783 174.807 184.783 174.807 184.783C174.807 184.783 174.807 184.783 174.807 184.783C174.807 184.783 174.807 184.783 174.807 184.783C174.807 184.783 174.807 184.783 174.807 184.783C174.807 184.783 174.807 184.783 174.807 184.783C174.807 184.783 174.807 184.783 174.807 184.783C174.807 184.783 174.807 184.783 174.807 184.783L176.586 188.366C176.586 188.366 176.586 188.366 176.586 188.366C176.586 188.366 176.586 188.366 176.586 188.366C176.586 188.366 176.586 188.366 176.586 188.366C176.586 188.366 176.586 188.366 176.586 188.366C176.586 188.366 176.586 188.366 176.586 188.366C176.586 188.366 176.586 188.366 176.586 188.366C176.586 188.366 176.586 188.366 176.586 188.366C176.586 188.366 176.586 188.366 176.586 188.366C176.586 188.366 176.586 188.366 176.586 188.366C176.586 188.366 176.586 188.366 176.586 188.366C176.586 188.366 176.586 188.366 176.586 188.366C176.586 188.366 176.586 188.366 176.586 188.366C176.586 188.366 176.586 188.366 176.586 188.366C176.586 188.366 176.586 188.366 176.586 188.366C176.586 188.366 176.586 188.366 176.586 188.366C176.586 188.366 176.586 188.366 176.586 188.366C176.586 188.366 176.586 188.366 176.586 188.366C176.586 188.366 176.586 188.366 176.586 188.366C176.586 188.366 176.586 188.366 176.586 188.366C176.586 188.366 176.586 188.366 176.586 188.366C176.586 188.366 176.586 188.366 176.586 188.366C176.586 188.366 176.586 188.366 176.586 188.366C176.586 188.366 176.586 188.366 176.586 188.366C176.586 188.366 176.586 188.366 176.586 188.366C176.586 188.366 176.586 188.366 176.586 188.366C176.586 188.366 176.586 188.366 176.586 188.366C176.586 188.366 176.586 188.366 176.586 188.366C176.586 188.366 176.586 188.366 176.586 188.366C176.586 188.366 176.586 188.366 176.586 188.366C176.586 188.366 176.586 188.366 176.586 188.366C176.586 188.366 176.586 188.366 176.586 188.366C176.586 188.366 176.586 188.366 176.586 188.366C176.586 188.366 176.586 188.366 176.586 188.366C176.586 188.366 176.586 188.366 176.586 188.366C176.586 188.366 176.586 188.366 176.586 188.366C176.586 188.366 176.586 188.366 176.586 188.366C176.586 188.366 176.586 188.366 176.586 188.366C176.586 188.366 176.586 188.366 176.586 188.366C176.586 188.366 176.586 188.366 176.586 188.366C176.586 188.366 176.586 188.366 176.586 188.366C176.586 188.366 176.586 188.366 176.586 188.366C176.586 188.366 176.586 188.366 176.586 188.366C176.586 188.366 176.586 188.366 176.586 188.366C176.586 188.366 176.586 188.366 176.586 188.366C176.586 188.366 176.586 188.366 176.586 188.366C176.586 188.366 176.586 188.366 176.586 188.366C176.586 188.366 176.586 188.366 176.586 188.366C176.586 188.366 176.586 188.366 176.586 188.366C176.586 188.366 176.586 188.366 176.586 188.366C176.586 188.366 176.586 188.366 176.586 188.366C176.586 188.366 176.586 188.366 176.586 188.366C176.586 188.366 176.586 188.366 176.586 188.366C176.586 188.366 176.586 188.366 176.586 188.366C176.586 188.366 176.586 188.366 176.586 188.366C176.586 188.366 176.586 188.366 176.586 188.366C176.587 188.366 176.587 188.366 176.587 188.366C176.587 188.366 176.587 188.366 176.587 188.366C176.587 188.366 176.587 188.366 176.587 188.366C176.587 188.366 176.587 188.366 176.587 188.366C176.587 188.366 176.587 188.366 176.587 188.366C176.587 188.366 176.587 188.366 176.587 188.366C176.587 188.366 176.587 188.366 176.587 188.366C176.587 188.366 176.587 188.366 176.587 188.366C176.587 188.366 176.587 188.366 176.587 188.366C176.587 188.366 176.587 188.366 176.587 188.366C176.587 188.366 176.587 188.366 176.587 188.366C176.587 188.366 176.587 188.366 176.587 188.366C176.587 188.366 176.587 188.366 176.587 188.366C176.587 188.366 176.587 188.366 176.587 188.366C176.587 188.366 176.587 188.366 176.587 188.366C176.587 188.366 176.587 188.366 176.587 188.366C176.587 188.366 176.587 188.366 176.587 188.366C176.587 188.366 176.587 188.366 176.587 188.366C176.587 188.366 176.587 188.366 176.587 188.366C176.587 188.366 176.587 188.366 176.587 188.366C176.587 188.366 176.587 188.366 176.587 188.366C176.587 188.366 176.587 188.366 176.587 188.366C176.587 188.366 176.587 188.366 176.587 188.366C176.587 188.366 176.587 188.366 176.587 188.366C176.587 188.366 176.587 188.366 176.587 188.366C176.587 188.366 176.587 188.366 176.587 188.366C176.587 188.366 176.587 188.366 176.587 188.366C176.587 188.366 176.587 188.366 176.587 188.366C176.587 188.366 176.587 188.366 176.587 188.366C176.587 188.365 176.587 188.365 176.587 188.365C176.587 188.365 176.587 188.365 176.587 188.365C176.587 188.365 176.587 188.365 176.587 188.365C176.587 188.365 176.587 188.365 176.587 188.365C176.587 188.365 176.587 188.365 176.587 188.365C176.587 188.365 176.587 188.365 176.587 188.365C176.587 188.365 176.587 188.365 176.587 188.365C176.587 188.365 176.587 188.365 176.587 188.365C176.587 188.365 176.587 188.365 176.587 188.365C176.587 188.365 176.587 188.365 176.587 188.365C176.587 188.365 176.587 188.365 176.587 188.365C176.587 188.365 176.587 188.365 176.587 188.365C176.587 188.365 176.587 188.365 176.587 188.365C176.587 188.365 176.587 188.365 176.587 188.365C176.587 188.365 176.587 188.365 176.587 188.365C176.587 188.365 176.587 188.365 176.587 188.365C176.587 188.365 176.587 188.365 176.587 188.365C176.587 188.365 176.587 188.365 176.587 188.365C176.587 188.365 176.587 188.365 176.587 188.365C176.587 188.365 176.587 188.365 176.587 188.365C176.587 188.365 176.587 188.365 176.587 188.365C176.587 188.365 176.587 188.365 176.587 188.365C176.587 188.365 176.587 188.365 176.587 188.365C176.587 188.365 176.587 188.365 176.587 188.365C176.587 188.365 176.587 188.365 176.587 188.365C176.587 188.365 176.587 188.365 176.587 188.365C176.587 188.365 176.587 188.365 176.587 188.365C176.587 188.365 176.587 188.365 176.587 188.365C176.587 188.365 176.587 188.365 176.587 188.365C176.587 188.365 176.587 188.365 176.587 188.365C176.587 188.365 176.587 188.365 176.587 188.365C176.587 188.365 176.587 188.365 176.587 188.365C176.587 188.365 176.587 188.365 176.587 188.365C176.587 188.365 176.587 188.365 176.587 188.365C176.587 188.365 176.587 188.365 176.587 188.365C176.587 188.365 176.587 188.365 176.587 188.365C176.587 188.365 176.587 188.365 176.587 188.365C176.587 188.365 176.587 188.365 176.587 188.365C176.587 188.365 176.587 188.365 176.587 188.365C176.587 188.365 176.587 188.365 176.587 188.365C176.587 188.365 176.587 188.365 176.587 188.365C176.587 188.365 176.587 188.365 176.587 188.365C176.587 188.365 176.587 188.365 176.587 188.365C176.587 188.365 176.587 188.365 176.587 188.365C176.587 188.365 176.587 188.365 176.587 188.365C176.587 188.365 176.587 188.365 176.587 188.365C176.587 188.365 176.587 188.365 176.587 188.365C176.587 188.365 176.587 188.365 176.587 188.365C176.587 188.365 176.587 188.365 176.587 188.365C176.587 188.365 176.587 188.365 176.587 188.365C176.587 188.365 176.587 188.365 176.587 188.365C176.587 188.365 176.587 188.365 176.587 188.365C176.587 188.365 176.587 188.365 176.587 188.365C176.587 188.365 176.587 188.365 176.587 188.365C176.587 188.365 176.587 188.365 176.587 188.365C176.587 188.365 176.587 188.365 176.587 188.365C176.587 188.365 176.587 188.365 176.587 188.365C176.587 188.365 176.587 188.365 176.587 188.365C176.587 188.365 176.587 188.365 176.587 188.365C176.587 188.365 176.587 188.365 176.587 188.365C176.587 188.365 176.587 188.365 176.587 188.365C176.587 188.365 176.587 188.365 176.587 188.365C176.587 188.365 176.587 188.365 176.587 188.365C176.587 188.365 176.587 188.365 176.587 188.365C176.587 188.365 176.587 188.365 176.587 188.365C176.587 188.365 176.587 188.365 176.587 188.365C176.587 188.365 176.587 188.365 176.587 188.365C176.587 188.365 176.587 188.365 176.587 188.365C176.587 188.365 176.587 188.365 176.587 188.365C176.587 188.365 176.587 188.365 176.587 188.365C176.587 188.365 176.587 188.365 176.587 188.365C176.587 188.365 176.587 188.365 176.587 188.365C176.587 188.365 176.587 188.365 176.587 188.365C176.587 188.365 176.587 188.365 176.587 188.365C176.587 188.365 176.587 188.365 176.587 188.365C176.587 188.365 176.587 188.365 176.587 188.365C176.587 188.365 176.587 188.365 176.587 188.365C176.587 188.365 176.587 188.365 176.587 188.365C176.587 188.365 176.587 188.365 176.587 188.365C176.587 188.365 176.587 188.365 176.587 188.365C176.587 188.365 176.587 188.365 176.587 188.365C176.587 188.365 176.587 188.365 176.587 188.365C176.587 188.365 176.587 188.365 176.587 188.365C176.587 188.365 176.587 188.365 176.587 188.365C176.587 188.365 176.587 188.365 176.587 188.365C176.587 188.365 176.587 188.365 176.587 188.365C176.587 188.365 176.587 188.365 176.587 188.365C176.587 188.365 176.587 188.365 176.587 188.365C176.587 188.365 176.587 188.365 176.587 188.365C176.587 188.365 176.587 188.365 176.587 188.365C176.587 188.365 176.587 188.365 176.587 188.365C176.587 188.365 176.587 188.365 176.587 188.365C176.587 188.365 176.587 188.365 176.587 188.365C176.587 188.365 176.587 188.365 176.587 188.365C176.587 188.365 176.587 188.365 176.587 188.365C176.587 188.365 176.587 188.365 176.587 188.365C176.587 188.365 176.587 188.365 176.587 188.365C176.587 188.365 176.587 188.365 176.587 188.365C176.587 188.365 176.587 188.365 176.587 188.365C176.587 188.365 176.587 188.365 176.587 188.365C176.587 188.365 176.587 188.365 176.587 188.365C176.587 188.365 176.587 188.365 176.587 188.365C176.587 188.365 176.587 188.365 176.587 188.365C176.587 188.365 176.587 188.365 176.587 188.365C176.587 188.365 176.587 188.365 176.587 188.365C176.587 188.365 176.587 188.365 176.587 188.365C176.587 188.365 176.587 188.365 176.587 188.365C176.587 188.365 176.587 188.365 176.587 188.365C176.587 188.365 176.587 188.365 176.587 188.365C176.587 188.365 176.587 188.365 176.587 188.365C176.587 188.365 176.587 188.365 176.587 188.365C176.587 188.365 176.587 188.365 176.587 188.365C176.587 188.365 176.587 188.365 176.587 188.365C176.587 188.365 176.587 188.365 176.587 188.365C176.587 188.365 176.587 188.365 176.587 188.365C176.587 188.365 176.587 188.365 176.587 188.365C176.587 188.365 176.587 188.365 176.587 188.365C176.587 188.365 176.587 188.365 176.587 188.365C176.587 188.365 176.587 188.365 176.587 188.365C176.587 188.365 176.587 188.365 176.587 188.365C176.587 188.365 176.587 188.365 176.587 188.365C176.587 188.365 176.587 188.365 176.587 188.365C176.587 188.365 176.587 188.365 176.587 188.365C176.587 188.365 176.587 188.365 176.587 188.365C176.587 188.365 176.587 188.365 176.587 188.365C176.587 188.365 176.587 188.365 176.587 188.365C176.587 188.365 176.587 188.365 176.587 188.365C176.587 188.365 176.587 188.365 176.587 188.365C176.587 188.365 176.587 188.365 176.587 188.365C176.587 188.365 176.587 188.365 176.587 188.365C176.587 188.365 176.587 188.365 176.587 188.365C176.587 188.365 176.587 188.365 176.587 188.365C176.587 188.365 176.587 188.365 176.587 188.365C176.587 188.365 176.587 188.365 176.587 188.365C176.587 188.365 176.587 188.365 176.587 188.365C176.587 188.365 176.587 188.365 176.587 188.365C176.587 188.365 176.587 188.365 176.587 188.365C176.587 188.365 176.587 188.365 176.587 188.365C176.587 188.365 176.587 188.365 176.587 188.365C176.587 188.365 176.587 188.365 176.587 188.365C176.587 188.365 176.587 188.365 176.587 188.365C176.587 188.365 176.587 188.365 176.587 188.365C176.587 188.365 176.587 188.365 176.587 188.365C176.587 188.365 176.587 188.365 176.587 188.365C176.587 188.365 176.587 188.365 176.587 188.365C176.587 188.365 176.587 188.365 176.587 188.365C176.587 188.365 176.587 188.365 176.587 188.365C176.587 188.365 176.587 188.365 176.587 188.365C176.587 188.365 176.588 188.365 176.588 188.365C176.588 188.365 176.588 188.365 176.588 188.365C176.588 188.365 176.588 188.365 176.588 188.365C176.588 188.365 176.588 188.365 176.588 188.365C176.588 188.365 176.588 188.365 176.588 188.365C176.588 188.365 176.588 188.365 176.588 188.365C176.588 188.365 176.588 188.365 176.588 188.365C176.588 188.365 176.588 188.365 176.588 188.365C176.588 188.365 176.588 188.365 176.588 188.365C176.588 188.365 176.588 188.365 176.588 188.365C176.588 188.365 176.588 188.365 176.588 188.365C176.588 188.365 176.588 188.365 176.588 188.365C176.588 188.365 176.588 188.365 176.588 188.365C176.588 188.365 176.588 188.365 176.588 188.365C176.588 188.365 176.588 188.365 176.588 188.365C176.588 188.365 176.588 188.365 176.588 188.365C176.588 188.365 176.588 188.365 176.588 188.365C176.588 188.365 176.588 188.365 176.588 188.365C176.588 188.365 176.588 188.365 176.588 188.365C176.588 188.365 176.588 188.365 176.588 188.365C176.588 188.365 176.588 188.365 176.588 188.365C176.588 188.365 176.588 188.365 176.588 188.365C176.588 188.365 176.588 188.365 176.588 188.365C176.588 188.365 176.588 188.365 176.588 188.365C176.588 188.365 176.588 188.365 176.588 188.365C176.588 188.365 176.588 188.365 176.588 188.365C176.588 188.365 176.588 188.365 176.588 188.365C176.588 188.365 176.588 188.365 176.588 188.365C176.588 188.365 176.588 188.365 176.588 188.365C176.588 188.365 176.588 188.365 176.588 188.365C176.588 188.365 176.588 188.365 176.588 188.365C176.588 188.365 176.588 188.365 176.588 188.365C176.588 188.365 176.588 188.365 176.588 188.365C176.588 188.365 176.588 188.365 176.588 188.365C176.588 188.365 176.588 188.365 176.588 188.365C176.588 188.365 176.588 188.365 176.588 188.365C176.588 188.365 176.588 188.365 176.588 188.365C176.588 188.365 176.588 188.365 176.588 188.365C176.588 188.365 176.588 188.365 176.588 188.365C176.588 188.365 176.588 188.365 176.588 188.365C176.588 188.365 176.588 188.365 176.588 188.365C176.588 188.365 176.588 188.365 176.588 188.365C176.588 188.365 176.588 188.365 176.588 188.365C176.588 188.365 176.588 188.365 176.588 188.365C176.588 188.365 176.588 188.365 176.588 188.365C176.588 188.365 176.588 188.365 176.588 188.365C176.588 188.365 176.588 188.365 176.588 188.365C176.588 188.365 176.588 188.365 176.588 188.365C176.588 188.365 176.588 188.365 176.588 188.365C176.588 188.365 176.588 188.365 176.588 188.365C176.588 188.365 176.588 188.365 176.588 188.365C176.588 188.365 176.588 188.365 176.588 188.365C176.588 188.365 176.588 188.365 176.588 188.365C176.588 188.365 176.588 188.365 176.588 188.365C176.588 188.365 176.588 188.365 176.588 188.365C176.588 188.365 176.588 188.365 176.588 188.365C176.588 188.365 176.588 188.365 176.588 188.365C176.588 188.365 176.588 188.365 176.588 188.365C176.588 188.365 176.588 188.365 176.588 188.365C176.588 188.365 176.588 188.365 176.588 188.365C176.588 188.365 176.588 188.365 176.588 188.365C176.588 188.365 176.588 188.365 176.588 188.365C176.588 188.365 176.588 188.365 176.588 188.365C176.588 188.365 176.588 188.365 176.588 188.365C176.588 188.365 176.588 188.365 176.588 188.365C176.588 188.365 176.588 188.365 176.588 188.365C176.588 188.365 176.588 188.365 176.588 188.365C176.588 188.365 176.588 188.365 176.588 188.365C176.588 188.365 176.588 188.365 176.588 188.365C176.588 188.365 176.588 188.365 176.588 188.365C176.588 188.365 176.588 188.365 176.588 188.365C176.588 188.365 176.588 188.365 176.588 188.365C176.588 188.365 176.588 188.365 176.588 188.365C176.588 188.365 176.588 188.365 176.588 188.365C176.588 188.365 176.588 188.365 176.588 188.365C176.588 188.365 176.588 188.365 176.588 188.365C176.588 188.365 176.588 188.365 176.588 188.365C176.588 188.365 176.588 188.365 176.588 188.365C176.588 188.365 176.588 188.365 176.588 188.365C176.588 188.365 176.588 188.365 176.588 188.365C176.588 188.365 176.588 188.365 176.588 188.365C176.588 188.365 176.588 188.365 176.588 188.365C176.588 188.365 176.588 188.365 176.588 188.365C176.588 188.365 176.588 188.365 176.588 188.365C176.588 188.365 176.588 188.365 176.588 188.365C176.588 188.365 176.588 188.365 176.588 188.365C176.588 188.365 176.588 188.365 176.588 188.365C176.588 188.365 176.588 188.365 176.588 188.365C176.588 188.365 176.588 188.365 176.588 188.365C176.588 188.365 176.588 188.365 176.588 188.365C176.588 188.365 176.588 188.365 176.588 188.365C176.588 188.365 176.588 188.365 176.588 188.365C176.588 188.365 176.588 188.365 176.588 188.365C176.588 188.365 176.588 188.365 176.588 188.365C176.588 188.365 176.588 188.365 176.588 188.365C176.588 188.365 176.588 188.365 176.588 188.365C176.588 188.365 176.588 188.365 176.588 188.365C176.588 188.365 176.588 188.365 176.588 188.365C176.588 188.365 176.588 188.365 176.588 188.365C176.588 188.365 176.588 188.365 176.588 188.365C176.588 188.365 176.588 188.365 176.588 188.365C176.588 188.365 176.588 188.365 176.588 188.365C176.588 188.365 176.588 188.365 176.588 188.365C176.588 188.365 176.588 188.365 176.588 188.365C176.588 188.365 176.588 188.365 176.588 188.365C176.588 188.365 176.588 188.365 176.588 188.365C176.588 188.365 176.588 188.365 176.588 188.365C176.588 188.365 176.588 188.365 176.588 188.365C176.588 188.365 176.588 188.365 176.588 188.365C176.588 188.365 176.588 188.365 176.588 188.365C176.588 188.365 176.588 188.365 176.588 188.365C176.588 188.365 176.588 188.365 176.588 188.365C176.588 188.365 176.588 188.365 176.588 188.365C176.588 188.365 176.588 188.365 176.588 188.365C176.588 188.365 176.588 188.365 176.588 188.365C176.588 188.365 176.588 188.365 176.588 188.365C176.588 188.365 176.588 188.365 176.588 188.365C176.588 188.365 176.588 188.365 176.588 188.365C176.588 188.365 176.588 188.365 176.588 188.365C176.588 188.365 176.588 188.365 176.588 188.365C176.588 188.365 176.588 188.365 176.588 188.365C176.588 188.365 176.588 188.365 176.588 188.365C176.588 188.365 176.588 188.365 176.588 188.365C176.588 188.365 176.588 188.365 176.588 188.365C176.588 188.365 176.588 188.365 176.588 188.365C176.588 188.365 176.588 188.365 176.588 188.365C176.588 188.365 176.588 188.365 176.588 188.365C176.588 188.365 176.588 188.365 176.588 188.365C176.588 188.365 176.588 188.365 176.588 188.365C176.588 188.365 176.588 188.365 176.588 188.365C176.588 188.365 176.588 188.365 176.588 188.365C176.588 188.365 176.588 188.365 176.588 188.365C176.588 188.365 176.588 188.365 176.588 188.365C176.588 188.365 176.588 188.365 176.588 188.365C176.588 188.365 176.588 188.365 176.588 188.365C176.588 188.365 176.588 188.365 176.588 188.365C176.588 188.365 176.588 188.365 176.588 188.365C176.588 188.365 176.588 188.365 176.588 188.365C176.588 188.365 176.588 188.365 176.588 188.365C176.588 188.365 176.588 188.365 176.588 188.365C176.588 188.365 176.588 188.365 176.588 188.365L176.588 188.365C176.588 188.365 176.588 188.365 176.588 188.365C176.588 188.365 176.588 188.365 176.588 188.365C176.588 188.365 176.588 188.365 176.588 188.365C176.588 188.365 176.588 188.365 176.588 188.365L176.588 188.365C176.588 188.365 176.588 188.365 176.588 188.365C176.588 188.365 176.588 188.365 176.588 188.365L176.588 188.365C176.588 188.365 176.588 188.365 176.588 188.365L176.588 188.365C176.588 188.365 176.588 188.365 176.588 188.365L176.588 188.365C176.588 188.365 176.588 188.365 176.588 188.365L176.588 188.365C176.588 188.365 176.588 188.365 176.588 188.365L176.588 188.365C176.588 188.365 176.588 188.365 176.588 188.365L176.588 188.365C176.588 188.365 176.588 188.365 176.588 188.365C176.588 188.365 176.588 188.365 176.588 188.365L176.588 188.365C176.588 188.365 176.588 188.365 176.588 188.365C176.588 188.365 176.588 188.365 176.588 188.365L176.588 188.365L176.588 188.365C176.588 188.365 176.588 188.365 176.588 188.365C176.588 188.365 176.588 188.365 176.588 188.365C176.588 188.365 176.588 188.365 176.588 188.365C176.588 188.365 176.588 188.365 176.588 188.365L176.588 188.365L176.588 188.365L176.588 188.365C176.588 188.365 176.588 188.365 176.588 188.365C176.588 188.365 176.588 188.365 176.588 188.365C176.588 188.365 176.588 188.365 176.588 188.365C176.588 188.365 176.588 188.365 176.588 188.365C176.588 188.365 176.588 188.365 176.588 188.365C176.588 188.365 176.588 188.365 176.588 188.365C176.588 188.365 176.588 188.365 176.588 188.365L176.588 188.365L176.588 188.365L176.588 188.365C176.588 188.365 176.588 188.365 176.588 188.365C176.588 188.365 176.588 188.365 176.588 188.365C176.588 188.365 176.588 188.365 176.588 188.365C176.588 188.365 176.588 188.365 176.588 188.365L176.588 188.365C176.588 188.365 176.588 188.365 176.588 188.365C176.588 188.365 176.588 188.365 176.588 188.365L176.588 188.365C176.588 188.365 176.588 188.365 176.588 188.365L176.588 188.365C176.588 188.365 176.588 188.365 176.588 188.365L176.588 188.365C176.588 188.365 176.588 188.365 176.588 188.365C176.588 188.365 176.588 188.365 176.588 188.365C176.588 188.365 176.588 188.365 176.588 188.365C176.588 188.365 176.588 188.365 176.588 188.365C176.588 188.365 176.588 188.365 176.588 188.365C176.588 188.365 176.588 188.365 176.588 188.365C176.588 188.365 176.588 188.365 176.588 188.365L176.588 188.365C176.588 188.365 176.588 188.365 176.588 188.365C176.588 188.365 176.588 188.365 176.588 188.365C176.588 188.365 176.588 188.365 176.588 188.365C176.588 188.365 176.588 188.365 176.588 188.365C176.588 188.365 176.588 188.365 176.588 188.365C176.588 188.365 176.588 188.365 176.588 188.365C176.588 188.365 176.588 188.365 176.588 188.365C176.588 188.365 176.588 188.365 176.588 188.365C175.698 186.574 174.809 184.782 175.698 186.574ZM175.092 184.668C174.674 184.801 174.282 185.003 174.05 185.13C173.922 185.201 173.812 185.265 173.734 185.312C173.694 185.336 173.662 185.356 173.637 185.371C173.625 185.379 173.615 185.385 173.607 185.39C173.604 185.393 173.6 185.395 173.597 185.396C173.596 185.397 173.595 185.398 173.594 185.399C173.593 185.399 173.593 185.4 173.592 185.4C173.592 185.4 173.592 185.4 173.591 185.4C173.591 185.4 173.591 185.4 173.591 185.401C173.591 185.401 173.591 185.401 174.672 187.083C175.753 188.766 175.752 188.766 175.752 188.766C175.752 188.766 175.752 188.766 175.752 188.767C175.752 188.767 175.752 188.767 175.752 188.767C175.751 188.767 175.751 188.767 175.751 188.768C175.75 188.768 175.75 188.768 175.749 188.768C175.749 188.769 175.748 188.769 175.749 188.769C175.749 188.768 175.752 188.767 175.756 188.764C175.765 188.759 175.78 188.749 175.801 188.737C175.843 188.711 175.903 188.676 175.973 188.637C176.045 188.598 176.117 188.561 176.184 188.53C176.217 188.515 176.244 188.503 176.266 188.494C176.277 188.49 176.285 188.487 176.292 188.484C176.295 188.483 176.297 188.482 176.299 188.482C176.3 188.481 176.301 188.481 176.301 188.481L175.092 184.668ZM173.638 185.371C173.33 185.557 173.034 185.777 172.758 186.03L175.459 188.98C175.536 188.91 175.619 188.848 175.705 188.796L173.638 185.371ZM174.676 185.587C174.691 185.591 174.617 185.569 174.517 185.543C174.42 185.518 174.292 185.489 174.14 185.462C173.844 185.409 173.412 185.358 172.923 185.389C171.921 185.454 170.398 185.922 169.679 187.64L173.369 189.184C173.37 189.183 173.366 189.191 173.357 189.205C173.348 189.22 173.335 189.238 173.317 189.258C173.28 189.301 173.236 189.335 173.196 189.358C173.124 189.399 173.102 189.386 173.18 189.381C173.255 189.376 173.35 189.384 173.44 189.4C173.48 189.407 173.51 189.414 173.523 189.418C173.53 189.419 173.532 189.42 173.529 189.419C173.528 189.419 173.525 189.418 173.522 189.417C173.52 189.416 173.518 189.416 173.516 189.415C173.516 189.415 173.515 189.415 173.516 189.415C173.516 189.415 173.517 189.416 173.519 189.416C173.52 189.417 173.523 189.417 173.525 189.418C173.527 189.419 173.535 189.421 173.54 189.423L174.676 185.587ZM169.679 187.64C168.917 189.463 169.842 190.916 170.522 191.621C171.183 192.306 171.931 192.674 172.048 192.728L173.719 189.094C173.725 189.097 173.735 189.101 173.739 189.103C173.741 189.104 173.745 189.106 173.746 189.107C173.75 189.109 173.753 189.11 173.754 189.111C173.758 189.112 173.76 189.114 173.762 189.114C173.766 189.116 173.769 189.118 173.771 189.119C173.775 189.121 173.777 189.122 173.778 189.122C173.779 189.123 173.774 189.12 173.765 189.115C173.746 189.105 173.71 189.084 173.666 189.056C173.569 188.993 173.471 188.917 173.4 188.843C173.367 188.809 173.352 188.787 173.348 188.781C173.344 188.775 173.358 188.795 173.373 188.841C173.388 188.89 173.4 188.958 173.397 189.035C173.394 189.112 173.377 189.165 173.369 189.184L169.679 187.64ZM170.9 191.173C170.913 191.27 170.936 191.409 170.979 191.567L174.837 190.509C174.857 190.586 174.865 190.639 174.866 190.649L170.9 191.173ZM183.675 188.257C183.422 187.741 183.1 187.323 182.722 186.987C182.352 186.659 181.983 186.461 181.717 186.333C181.595 186.275 181.466 186.219 181.402 186.191C181.321 186.155 181.293 186.14 181.28 186.134C181.269 186.128 181.402 186.197 181.528 186.366L178.315 188.749C178.668 189.224 179.087 189.497 179.396 189.662C179.543 189.741 179.683 189.804 179.775 189.845C179.885 189.894 179.934 189.915 179.993 189.943C180.087 189.988 180.087 189.997 180.067 189.979C180.039 189.954 180.05 189.95 180.084 190.019L183.675 188.257ZM170.988 191.598C170.963 191.512 170.952 191.432 170.949 191.367C170.946 191.304 170.952 191.264 170.952 191.258C170.953 191.255 170.951 191.272 170.938 191.329C170.931 191.357 170.924 191.388 170.914 191.43C170.905 191.469 170.893 191.521 170.881 191.573L174.779 192.469C174.804 192.36 175.105 191.431 174.828 190.479L170.988 191.598ZM181.86 193.993C182.846 193.361 183.61 192.487 183.95 191.397C184.293 190.297 184.138 189.19 183.67 188.249L180.088 190.028C180.124 190.101 180.133 190.148 180.135 190.168C180.137 190.185 180.135 190.194 180.132 190.205C180.129 190.212 180.076 190.385 179.703 190.624L181.86 193.993ZM173.286 193.968C174.108 193.776 175.405 193.754 176.858 193.854C178.259 193.951 179.616 194.145 180.46 194.282L181.102 190.334C180.193 190.186 178.704 189.972 177.133 189.864C175.613 189.759 173.812 189.737 172.374 190.074L173.286 193.968Z" fill="black" mask="url(#path-7-outside-1_1521_15032)"/>
<path d="M154.719 179.148C156.082 181.911 157.541 185.377 158.966 189.411M166.925 247.35C167.472 239.865 167.328 232.51 166.705 225.502" stroke="black" stroke-width="2"/>
<rect x="109.976" y="223.295" width="23.2471" height="6.75" rx="3" transform="rotate(-33.7812 109.976 223.295)" fill="#8F3D2C" stroke="black" stroke-width="2"/>
<path d="M147.427 180.101C154.427 201.351 156.971 218.738 159.677 240.351C146.927 242.601 115.652 234.781 108.652 233.531" stroke="black" stroke-width="2" stroke-linecap="round" stroke-dasharray="4 4"/>
<path d="M161.926 178.601C163.846 183.736 165.551 188.543 167.074 193.203M195.882 228.216C189.887 232.362 182.45 237.35 177.176 238.601C176.793 235.674 176.39 232.866 175.961 230.149" stroke="black" stroke-width="2" stroke-linecap="round" stroke-dasharray="4 4"/>
<path fill-rule="evenodd" clip-rule="evenodd" d="M164.95 166.299C159.486 168.289 155.549 173.489 155.455 179.648L175.819 170.095C176.116 168.179 175.013 166.405 173.325 165.737C170.654 166.001 167.863 166.189 164.95 166.299Z" fill="#8F3D2C"/>
<path d="M155.455 179.648L154.455 179.632C154.45 179.977 154.623 180.3 154.912 180.487C155.202 180.675 155.568 180.699 155.88 180.553L155.455 179.648ZM164.95 166.299L164.913 165.3C164.809 165.304 164.706 165.324 164.608 165.359L164.95 166.299ZM175.819 170.095L176.244 171.001C176.545 170.859 176.756 170.577 176.807 170.248L175.819 170.095ZM173.325 165.737L173.692 164.807C173.544 164.749 173.385 164.727 173.226 164.742L173.325 165.737ZM156.455 179.663C156.542 173.933 160.206 169.091 165.293 167.239L164.608 165.359C158.767 167.487 154.556 173.046 154.455 179.632L156.455 179.663ZM175.394 169.19L155.03 178.742L155.88 180.553L176.244 171.001L175.394 169.19ZM172.957 166.667C174.228 167.17 175.054 168.504 174.831 169.942L176.807 170.248C177.178 167.853 175.799 165.641 173.692 164.807L172.957 166.667ZM173.226 164.742C170.577 165.003 167.806 165.191 164.913 165.3L164.988 167.298C167.919 167.188 170.731 166.998 173.423 166.732L173.226 164.742Z" fill="black"/>
<path fill-rule="evenodd" clip-rule="evenodd" d="M104.689 165.179C104.428 165.454 104.264 165.824 104.256 166.235L154.427 179.648C153.484 172.988 148.034 167.882 141.327 167.373L131.112 166.598C121.973 166.559 113.066 166.251 104.689 165.179Z" fill="#8F3D2C"/>
<path d="M104.689 165.179L104.816 164.187C104.5 164.146 104.184 164.259 103.964 164.49L104.689 165.179ZM104.256 166.235L103.256 166.215C103.247 166.675 103.553 167.082 103.998 167.201L104.256 166.235ZM154.427 179.648L154.169 180.614C154.493 180.701 154.839 180.619 155.09 180.396C155.341 180.174 155.464 179.84 155.417 179.508L154.427 179.648ZM141.327 167.373L141.251 168.37L141.327 167.373ZM131.112 166.598L131.187 165.601C131.163 165.6 131.14 165.599 131.116 165.598L131.112 166.598ZM103.964 164.49C103.538 164.939 103.269 165.544 103.256 166.215L105.256 166.255C105.259 166.103 105.318 165.969 105.414 165.867L103.964 164.49ZM103.998 167.201L154.169 180.614L154.685 178.682L104.514 165.269L103.998 167.201ZM155.417 179.508C154.408 172.383 148.578 166.92 141.403 166.376L141.251 168.37C147.49 168.844 152.559 173.593 153.437 179.788L155.417 179.508ZM141.403 166.376L131.187 165.601L131.036 167.596L141.251 168.37L141.403 166.376ZM131.116 165.598C121.992 165.559 113.133 165.251 104.816 164.187L104.562 166.171C112.999 167.251 121.953 167.558 131.107 167.598L131.116 165.598Z" fill="black"/>
<rect x="116.82" y="241.972" width="6.95605" height="7.66912" rx="3.47803" transform="rotate(10.0972 116.82 241.972)" fill="#8F3D2C" stroke="black" stroke-width="2"/>
<rect x="141.652" y="245.197" width="6.95605" height="7.66912" rx="3.47803" transform="rotate(10.0972 141.652 245.197)" fill="#8F3D2C" stroke="black" stroke-width="2"/>
<rect x="182.609" y="242.15" width="6.36368" height="6.52034" rx="3.18184" transform="rotate(-10.4514 182.609 242.15)" fill="#8F3D2C" stroke="black" stroke-width="2"/>
<rect x="161.176" y="246.492" width="11.625" height="7.6845" rx="1" transform="rotate(-7.51134 161.176 246.492)" fill="#8F3D2C" stroke="black" stroke-width="2"/>
<path d="M118.853 180.549C138.353 184.049 162.634 189.197 166.234 193.197C167.334 193.686 170.748 193.481 172.577 193.327C172.977 193.271 173.372 193.234 173.761 193.215C173.761 193.215 173.289 193.267 172.577 193.327C164.882 194.4 155.402 202.225 154.538 211.238L156.366 213.064C156.685 215.113 157.512 219.173 159.528 219.509C162.175 220.373 163.436 220.638 165.06 220.039C165.273 222.701 166.195 224.017 166.779 225.13C165.33 225.974 163.65 226.617 161.853 227.197C160.195 228.378 154.234 225.918 154.234 225.918C150.473 227.269 146.353 226.645 138.353 224.549C130.353 222.454 106.419 207.049 103.353 195.549C100.819 186.048 109.38 178.849 118.853 180.549Z" fill="#97674B"/>
<path d="M118.853 180.549L118.676 181.534L118.853 180.549ZM103.353 195.549L102.386 195.807L103.353 195.549ZM145.163 205.464L144.197 205.207L145.163 205.464ZM173.761 193.215L173.87 194.209C174.407 194.15 174.8 193.675 174.757 193.136C174.715 192.598 174.253 192.191 173.713 192.216L173.761 193.215ZM145.076 216.099L146.068 215.974L146.068 215.973L145.076 216.099ZM145.077 216.107L144.085 216.233L144.085 216.233L145.077 216.107ZM154.963 216.549L155.932 216.3L154.963 216.549ZM166.779 225.13L167.282 225.995L168.11 225.513L167.665 224.666L166.779 225.13ZM165.06 220.039L166.057 219.959L165.952 218.644L164.714 219.101L165.06 220.039ZM159.528 219.509L159.838 218.558L159.767 218.535L159.692 218.523L159.528 219.509ZM156.366 213.064L157.354 212.91L157.303 212.587L157.072 212.356L156.366 213.064ZM154.538 211.238L153.543 211.143L154.538 211.238ZM118.676 181.534C128.418 183.282 139.338 185.439 148.265 187.656C152.73 188.765 156.676 189.884 159.719 190.968C161.241 191.51 162.517 192.037 163.512 192.541C164.528 193.056 165.167 193.506 165.491 193.866L166.977 192.528C166.401 191.888 165.494 191.303 164.417 190.757C163.318 190.2 161.955 189.641 160.39 189.084C157.258 187.968 153.239 186.831 148.747 185.715C139.758 183.483 128.788 181.316 119.029 179.565L118.676 181.534ZM138.606 223.582C136.733 223.091 133.827 221.787 130.43 219.879C127.052 217.983 123.252 215.526 119.604 212.777C115.954 210.027 112.477 207 109.732 203.966C106.97 200.915 105.025 197.938 104.319 195.291L102.386 195.807C103.214 198.91 105.41 202.171 108.249 205.308C111.103 208.463 114.684 211.574 118.401 214.375C122.12 217.177 125.995 219.683 129.451 221.623C132.887 223.553 135.973 224.96 138.099 225.517L138.606 223.582ZM104.319 195.291C103.151 190.912 104.534 187.116 107.279 184.584C110.043 182.033 114.23 180.736 118.676 181.534L119.029 179.565C114.002 178.663 109.173 180.115 105.922 183.114C102.652 186.132 101.021 190.685 102.386 195.807L104.319 195.291ZM166.381 192.208C163.983 191.853 159.339 191.928 154.853 193.647C150.33 195.381 145.9 198.821 144.197 205.207L146.129 205.722C147.627 200.107 151.482 197.081 155.569 195.514C159.694 193.934 163.985 193.875 166.088 194.186L166.381 192.208ZM153.896 224.977C150.469 226.208 146.649 225.689 138.606 223.582L138.099 225.517C146.056 227.601 150.477 228.331 154.572 226.86L153.896 224.977ZM161.272 226.383C161.172 226.455 160.813 226.561 160.044 226.499C159.342 226.442 158.51 226.263 157.687 226.036C156.872 225.812 156.102 225.551 155.533 225.344C155.249 225.241 155.017 225.153 154.857 225.09C154.778 225.059 154.716 225.035 154.675 225.018C154.654 225.01 154.639 225.003 154.629 224.999C154.624 224.997 154.62 224.996 154.618 224.995C154.617 224.994 154.616 224.994 154.616 224.994C154.616 224.994 154.615 224.994 154.615 224.994C154.615 224.994 154.615 224.994 154.615 224.994C154.616 224.994 154.616 224.994 154.234 225.918C153.853 226.843 153.853 226.843 153.853 226.843C153.853 226.843 153.853 226.843 153.854 226.843C153.854 226.843 153.854 226.843 153.855 226.844C153.856 226.844 153.857 226.845 153.859 226.845C153.863 226.847 153.868 226.849 153.874 226.851C153.887 226.857 153.905 226.864 153.928 226.873C153.975 226.892 154.043 226.919 154.13 226.953C154.302 227.021 154.549 227.115 154.85 227.224C155.451 227.442 156.274 227.722 157.157 227.965C158.032 228.206 159 228.42 159.882 228.492C160.697 228.559 161.705 228.53 162.433 228.012L161.272 226.383ZM165.828 194.111C166.26 194.303 166.816 194.392 167.339 194.441C167.889 194.492 168.512 194.508 169.14 194.503C170.396 194.493 171.736 194.401 172.66 194.323L172.493 192.33C171.589 192.406 170.307 192.494 169.124 192.503C168.532 192.508 167.982 192.492 167.525 192.45C167.041 192.404 166.758 192.336 166.64 192.283L165.828 194.111ZM172.66 194.323C173.022 194.293 173.323 194.265 173.534 194.244C173.64 194.233 173.723 194.225 173.78 194.219C173.809 194.216 173.831 194.213 173.846 194.212C173.854 194.211 173.859 194.21 173.863 194.21C173.866 194.21 173.867 194.209 173.868 194.209C173.869 194.209 173.869 194.209 173.87 194.209C173.87 194.209 173.87 194.209 173.87 194.209C173.87 194.209 173.87 194.209 173.87 194.209C173.87 194.209 173.87 194.209 173.87 194.209C173.87 194.209 173.87 194.209 173.761 193.215C173.651 192.221 173.651 192.221 173.651 192.221C173.651 192.221 173.651 192.221 173.651 192.221C173.651 192.221 173.651 192.221 173.651 192.221C173.651 192.221 173.651 192.221 173.651 192.221C173.651 192.221 173.651 192.221 173.65 192.221C173.65 192.221 173.648 192.221 173.647 192.222C173.644 192.222 173.639 192.222 173.632 192.223C173.618 192.225 173.598 192.227 173.571 192.23C173.518 192.235 173.439 192.243 173.337 192.253C173.134 192.273 172.843 192.301 172.493 192.33L172.66 194.323ZM144.197 205.207C143.167 209.069 143.76 213.66 144.084 216.224L146.068 215.973C145.734 213.334 145.217 209.142 146.129 205.722L144.197 205.207ZM144.084 216.224L144.085 216.233L146.069 215.982L146.068 215.974L144.084 216.224ZM144.085 216.233C144.505 219.558 146.444 221.947 148.478 223.611C150.503 225.268 152.717 226.281 153.789 226.814L154.679 225.023C153.547 224.46 151.559 223.548 149.744 222.063C147.939 220.586 146.402 218.618 146.069 215.982L144.085 216.233ZM153.994 216.797C154.944 220.501 157.22 224.292 161.175 227.933L162.53 226.461C158.804 223.032 156.768 219.564 155.932 216.3L153.994 216.797ZM166.276 224.266C164.919 225.056 163.319 225.673 161.545 226.246L162.16 228.149C163.981 227.561 165.74 226.891 167.282 225.995L166.276 224.266ZM167.665 224.666C167.056 223.505 166.251 222.378 166.057 219.959L164.063 220.119C164.296 223.023 165.335 224.529 165.894 225.595L167.665 224.666ZM159.692 218.523C159.517 218.493 159.286 218.372 159.011 218.026C158.735 217.678 158.476 217.181 158.246 216.574C157.785 215.362 157.511 213.919 157.354 212.91L155.378 213.218C155.54 214.259 155.839 215.87 156.376 217.284C156.644 217.99 156.99 218.699 157.446 219.271C157.902 219.845 158.531 220.357 159.364 220.495L159.692 218.523ZM173.713 192.216C173.292 192.236 172.867 192.277 172.438 192.337L172.715 194.317C173.086 194.266 173.451 194.231 173.808 194.214L173.713 192.216ZM172.438 192.337C168.345 192.907 163.869 195.249 160.313 198.575C156.755 201.903 154.005 206.323 153.543 211.143L155.534 211.334C155.936 207.14 158.358 203.142 161.679 200.035C165.002 196.927 169.113 194.82 172.715 194.317L172.438 192.337ZM153.543 211.143C153.368 212.964 153.498 214.862 153.994 216.797L155.932 216.3C155.494 214.592 155.381 212.927 155.534 211.334L153.543 211.143ZM157.072 212.356L155.245 210.531L153.832 211.946L155.659 213.771L157.072 212.356ZM164.714 219.101C163.445 219.569 162.488 219.423 159.838 218.558L159.218 220.46C161.862 221.323 163.427 221.708 165.406 220.977L164.714 219.101Z" fill="black"/>
<path d="M216.645 181.648C219.745 181.948 226.145 185.314 228.645 187.023C221.52 188.023 217.021 191.398 213.396 201.398C210.496 209.398 216.021 216.064 219.146 218.398C215.521 218.148 210.396 217.148 206.145 215.648C196.395 201.773 212.77 181.273 216.645 181.648Z" fill="#8F3D2C" stroke="black" stroke-width="2"/>
<path d="M160.216 226.837C155.198 226.866 144.619 224.409 144.468 211.089C144.35 200.647 151.541 191.779 158.27 190.023C160.707 189.647 165.02 191.96 166.273 193.264C164.195 194.475 158.697 199.58 155.371 207.801C152.639 214.55 156.784 222.828 160.216 226.837Z" fill="#8F3D2C" stroke="black" stroke-width="2"/>
</svg>
