<svg width="361" height="341" viewBox="0 0 361 341" fill="none" xmlns="http://www.w3.org/2000/svg">
<path fill-rule="evenodd" clip-rule="evenodd" d="M91.0576 249.136C91.0639 249.274 91.0706 249.412 91.0776 249.551C106.578 255.717 144.678 260.101 169.078 256.301C199.578 251.551 201.328 241.551 199.578 220.051C198.178 202.851 181.721 177.123 171.971 169.123C168.35 174.123 163.872 178.505 155.373 179.005C145.272 179.235 136.582 174.324 130.688 170.994C127.222 169.035 124.722 167.622 123.471 168.123C122.314 168.586 119.847 170.956 116.763 174.844C116.374 176.591 115.247 178.55 113.18 180.642C111.839 182 110.62 183.565 109.515 185.272C109.131 185.893 108.746 186.528 108.361 187.177C102.468 197.554 100.315 211.818 100.637 217.153C104.262 217.498 108.254 219.181 108.999 223.648C109.955 229.382 105.813 231.214 103.623 231.413C104.818 232.807 106.729 237.147 104.818 243.359C103.987 246.059 98.245 248.47 91.0576 249.136Z" fill="#8F3D2C"/>
<path d="M91.0576 249.136L90.9654 248.14L90.015 248.228L90.0587 249.182L91.0576 249.136ZM91.0776 249.551L90.0789 249.601L90.1115 250.243L90.708 250.48L91.0776 249.551ZM169.078 256.301L168.924 255.313L169.078 256.301ZM199.578 220.051L200.574 219.97L199.578 220.051ZM171.971 169.123L172.605 168.35L171.784 167.676L171.161 168.536L171.971 169.123ZM155.373 179.005L155.395 180.005L155.413 180.004L155.431 180.003L155.373 179.005ZM130.688 170.994L131.18 170.123L130.688 170.994ZM123.471 168.123L123.842 169.051V169.051L123.471 168.123ZM116.763 174.844L115.979 174.223L115.837 174.403L115.787 174.627L116.763 174.844ZM113.18 180.642L112.469 179.94L113.18 180.642ZM109.515 185.272L108.676 184.729L108.67 184.737L108.664 184.746L109.515 185.272ZM108.361 187.177L107.501 186.666L107.496 186.675L107.491 186.683L108.361 187.177ZM100.637 217.153L99.6385 217.213L99.6901 218.068L100.542 218.149L100.637 217.153ZM108.999 223.648L108.012 223.812L108.999 223.648ZM103.623 231.413L103.533 230.417L101.603 230.593L102.864 232.064L103.623 231.413ZM104.818 243.359L105.774 243.653L104.818 243.359ZM90.0587 249.182C90.0651 249.322 90.0718 249.462 90.0789 249.601L92.0764 249.5C92.0694 249.363 92.0628 249.227 92.0566 249.09L90.0587 249.182ZM90.708 250.48C98.5897 253.616 112.101 256.264 126.645 257.659C141.202 259.055 156.918 259.206 169.232 257.289L168.924 255.313C156.837 257.195 141.303 257.055 126.836 255.668C112.354 254.279 99.0656 251.653 91.4473 248.622L90.708 250.48ZM169.232 257.289C184.509 254.909 192.955 251.176 197.242 245.029C201.509 238.909 201.445 230.663 200.574 219.97L198.581 220.132C199.461 230.938 199.396 238.442 195.601 243.885C191.825 249.3 184.146 252.942 168.924 255.313L169.232 257.289ZM200.574 219.97C199.856 211.149 195.305 200.263 189.772 190.639C184.239 181.012 177.615 172.461 172.605 168.35L171.336 169.896C176.076 173.785 182.556 182.098 188.038 191.635C193.522 201.175 197.899 211.753 198.581 220.132L200.574 219.97ZM171.161 168.536C167.627 173.416 163.39 177.531 155.314 178.007L155.431 180.003C164.354 179.478 169.073 174.829 172.781 169.71L171.161 168.536ZM155.35 178.005C145.561 178.228 137.099 173.468 131.18 170.123L130.196 171.864C136.065 175.181 144.983 180.242 155.395 180.005L155.35 178.005ZM131.18 170.123C129.464 169.153 127.923 168.281 126.652 167.721C126.015 167.44 125.401 167.217 124.835 167.104C124.276 166.993 123.666 166.968 123.099 167.195L123.842 169.051C123.902 169.028 124.073 168.992 124.443 169.066C124.806 169.138 125.268 169.297 125.845 169.551C127.004 170.062 128.446 170.875 130.196 171.864L131.18 170.123ZM123.099 167.195C122.678 167.363 122.218 167.668 121.75 168.036C121.269 168.414 120.727 168.903 120.136 169.489C118.953 170.661 117.539 172.257 115.979 174.223L117.546 175.466C119.071 173.543 120.433 172.01 121.544 170.909C122.1 170.359 122.584 169.925 122.987 169.607C123.404 169.279 123.686 169.114 123.842 169.051L123.099 167.195ZM115.787 174.627C115.451 176.133 114.453 177.931 112.469 179.94L113.891 181.345C116.042 179.168 117.296 177.05 117.739 175.062L115.787 174.627ZM112.469 179.94C111.071 181.354 109.81 182.975 108.676 184.729L110.355 185.815C111.429 184.155 112.607 182.646 113.891 181.345L112.469 179.94ZM108.664 184.746C108.278 185.372 107.89 186.013 107.501 186.666L109.22 187.688C109.603 187.044 109.985 186.414 110.366 185.797L108.664 184.746ZM107.491 186.683C104.48 191.986 102.44 198.248 101.192 203.838C99.9469 209.415 99.4696 214.416 99.6385 217.213L101.635 217.093C101.482 214.555 101.92 209.757 103.144 204.274C104.365 198.804 106.349 192.746 109.23 187.671L107.491 186.683ZM100.542 218.149C104.022 218.48 107.383 220.037 108.012 223.812L109.985 223.484C109.126 218.326 104.503 216.517 100.731 216.158L100.542 218.149ZM108.012 223.812C108.443 226.396 107.721 227.954 106.781 228.902C105.793 229.898 104.451 230.334 103.533 230.417L103.714 232.409C104.986 232.293 106.809 231.714 108.201 230.31C109.64 228.859 110.51 226.634 109.985 223.484L108.012 223.812ZM102.864 232.064C103.819 233.178 105.68 237.156 103.862 243.065L105.774 243.653C107.778 237.138 105.816 232.435 104.382 230.762L102.864 232.064ZM103.862 243.065C103.735 243.477 103.384 243.98 102.702 244.527C102.028 245.068 101.097 245.6 99.9343 246.088C97.6108 247.064 94.4821 247.815 90.9654 248.14L91.1498 250.132C94.8205 249.792 98.1565 249.004 100.709 247.933C101.984 247.397 103.093 246.779 103.954 246.087C104.807 245.402 105.485 244.591 105.774 243.653L103.862 243.065ZM100.731 216.158C98.4324 215.939 96.2044 216.221 94.8896 216.747L95.6324 218.604C96.5682 218.229 98.4566 217.95 100.542 218.149L100.731 216.158Z" fill="black"/>
<path fill-rule="evenodd" clip-rule="evenodd" d="M103.523 245.147C122.002 249.2 149.811 251.302 169.078 248.301C199.578 243.551 204.329 233.093 199.578 212.051C195.458 193.802 177.971 171.623 171.471 167.623C170.977 168.187 170.46 168.815 169.914 169.477C166.589 173.513 162.18 178.864 155.322 179.255C148.464 179.646 139.817 175.121 133.365 171.745C128.941 169.43 125.549 167.654 124.471 168.373C121.154 170.585 118.217 173.131 115.606 175.939C115.146 177.407 114.234 178.985 112.783 180.623C103.227 190.298 98.6584 211.998 100.638 217.153C104.264 217.498 108.256 219.181 109 223.648C109.956 229.382 105.815 231.214 103.625 231.413C104.819 232.807 106.731 237.147 104.819 243.359C104.63 243.976 104.184 244.578 103.523 245.147Z" fill="#97674B"/>
<path d="M103.523 245.147L102.87 244.389L101.354 245.695L103.308 246.124L103.523 245.147ZM169.078 248.301L168.924 247.313L169.078 248.301ZM199.578 212.051L198.603 212.272L199.578 212.051ZM171.471 167.623L171.995 166.771L171.275 166.328L170.718 166.964L171.471 167.623ZM169.914 169.477L169.142 168.842L169.142 168.842L169.914 169.477ZM155.322 179.255L155.378 180.253L155.322 179.255ZM133.365 171.745L133.829 170.859L133.829 170.859L133.365 171.745ZM124.471 168.373L125.026 169.205L124.471 168.373ZM115.606 175.939L114.873 175.258L114.719 175.424L114.651 175.641L115.606 175.939ZM112.783 180.623L113.495 181.326L113.514 181.307L113.532 181.286L112.783 180.623ZM100.638 217.153L99.7047 217.512L99.9268 218.09L100.544 218.149L100.638 217.153ZM109 223.648L108.014 223.813L109 223.648ZM103.625 231.413L103.534 230.417L101.604 230.593L102.866 232.064L103.625 231.413ZM104.819 243.359L105.775 243.653V243.653L104.819 243.359ZM103.308 246.124C121.872 250.195 149.811 252.314 169.232 249.289L168.924 247.313C149.812 250.29 122.131 248.205 103.737 244.17L103.308 246.124ZM169.232 249.289C184.51 246.91 193.684 243.065 198.345 236.888C203.039 230.669 202.938 222.392 200.554 211.831L198.603 212.272C200.969 222.753 200.868 230.226 196.749 235.683C192.598 241.183 184.147 244.943 168.924 247.313L169.232 249.289ZM200.554 211.831C198.454 202.529 192.973 192.3 187.242 183.929C184.371 179.734 181.42 175.982 178.771 173.019C176.141 170.079 173.75 167.851 171.995 166.771L170.947 168.475C172.442 169.395 174.674 171.439 177.28 174.353C179.866 177.244 182.764 180.927 185.592 185.058C191.26 193.339 196.583 203.324 198.603 212.272L200.554 211.831ZM170.718 166.964C170.213 167.542 169.686 168.181 169.142 168.842L170.686 170.113C171.234 169.448 171.741 168.832 172.223 168.282L170.718 166.964ZM169.142 168.842C165.764 172.941 161.62 177.894 155.265 178.257L155.378 180.253C162.741 179.833 167.414 174.085 170.686 170.113L169.142 168.842ZM155.265 178.257C152.053 178.44 148.339 177.469 144.557 175.982C140.79 174.501 137.063 172.551 133.829 170.859L132.902 172.631C136.12 174.315 139.942 176.316 143.825 177.843C147.695 179.365 151.732 180.461 155.378 180.253L155.265 178.257ZM133.829 170.859C131.632 169.709 129.634 168.663 128.05 167.999C127.259 167.668 126.52 167.409 125.879 167.288C125.285 167.177 124.529 167.132 123.916 167.541L125.026 169.205C124.952 169.254 125.024 169.163 125.508 169.254C125.944 169.336 126.531 169.531 127.277 169.844C128.764 170.467 130.675 171.465 132.902 172.631L133.829 170.859ZM123.916 167.541C120.53 169.798 117.535 172.396 114.873 175.258L116.338 176.62C118.9 173.865 121.777 171.371 125.026 169.205L123.916 167.541ZM114.651 175.641C114.243 176.944 113.415 178.403 112.035 179.96L113.532 181.286C115.054 179.568 116.049 177.869 116.56 176.238L114.651 175.641ZM112.072 179.92C107.121 184.932 103.531 192.964 101.423 200.307C100.365 203.994 99.6681 207.551 99.362 210.529C99.209 212.017 99.1522 213.376 99.2006 214.542C99.2484 215.693 99.4008 216.72 99.7047 217.512L101.572 216.795C101.381 216.297 101.243 215.519 101.199 214.459C101.155 213.414 101.205 212.155 101.352 210.733C101.644 207.89 102.315 204.45 103.346 200.859C105.417 193.644 108.889 185.989 113.495 181.326L112.072 179.92ZM100.544 218.149C104.024 218.48 107.385 220.037 108.014 223.813L109.987 223.484C109.127 218.326 104.504 216.517 100.733 216.158L100.544 218.149ZM108.014 223.813C108.445 226.396 107.722 227.954 106.782 228.902C105.795 229.898 104.452 230.334 103.534 230.417L103.715 232.409C104.987 232.293 106.811 231.714 108.202 230.31C109.642 228.859 110.512 226.634 109.987 223.484L108.014 223.813ZM102.866 232.064C103.821 233.178 105.682 237.156 103.864 243.065L105.775 243.653C107.78 237.138 105.818 232.435 104.384 230.762L102.866 232.064ZM103.864 243.065C103.748 243.44 103.447 243.892 102.87 244.389L104.175 245.904C104.921 245.263 105.511 244.512 105.775 243.653L103.864 243.065ZM100.733 216.158C99.0274 215.995 97.3864 216.11 96.1309 216.381L96.5526 218.336C97.5952 218.111 99.0294 218.005 100.544 218.149L100.733 216.158Z" fill="black"/>
<mask id="path-5-outside-1_1521_12984" maskUnits="userSpaceOnUse" x="168.173" y="181.76" width="18.321" height="17.8701" fill="black">
<rect fill="white" x="168.173" y="181.76" width="18.321" height="17.8701"/>
<path d="M180.315 187.962C180.288 187.926 180.261 187.894 180.229 187.865C180.23 187.854 180.662 185.685 179.059 185.272C177.458 184.858 176.778 186.772 176.775 186.783C176.536 186.825 176.308 186.892 176.092 186.978C176.092 186.978 176.092 186.978 176.09 186.979C175.631 187.125 175.065 187.488 175.065 187.488C174.868 187.607 174.678 187.747 174.502 187.909C174.491 187.906 172.556 187.291 171.918 188.816C171.28 190.342 173.268 191.311 173.277 191.315C173.283 191.359 173.29 191.402 173.301 191.442C173.514 192.173 172.791 192.79 173.372 193.96C173.964 195.152 175.292 195.663 177.054 194.788L177.776 194.429C177.781 194.431 178.244 194.662 178.831 194.398C178.831 194.398 178.971 194.345 179.272 194.183C179.883 193.88 179.986 193.341 179.985 193.335L180.707 192.976C182.468 192.101 182.865 190.734 182.273 189.542C181.698 188.372 180.769 188.573 180.315 187.962Z"/>
</mask>
<path d="M180.315 187.962C180.288 187.926 180.261 187.894 180.229 187.865C180.23 187.854 180.662 185.685 179.059 185.272C177.458 184.858 176.778 186.772 176.775 186.783C176.536 186.825 176.308 186.892 176.092 186.978C176.092 186.978 176.092 186.978 176.09 186.979C175.631 187.125 175.065 187.488 175.065 187.488C174.868 187.607 174.678 187.747 174.502 187.909C174.491 187.906 172.556 187.291 171.918 188.816C171.28 190.342 173.268 191.311 173.277 191.315C173.283 191.359 173.29 191.402 173.301 191.442C173.514 192.173 172.791 192.79 173.372 193.96C173.964 195.152 175.292 195.663 177.054 194.788L177.776 194.429C177.781 194.431 178.244 194.662 178.831 194.398C178.831 194.398 178.971 194.345 179.272 194.183C179.883 193.88 179.986 193.341 179.985 193.335L180.707 192.976C182.468 192.101 182.865 190.734 182.273 189.542C181.698 188.372 180.769 188.573 180.315 187.962Z" fill="#8F3D2C"/>
<path d="M180.315 187.962L181.921 186.77L181.917 186.764L181.912 186.758L180.315 187.962ZM180.229 187.865L178.241 187.641L178.124 188.678L178.908 189.368L180.229 187.865ZM179.059 185.272L178.559 187.208L178.56 187.209L179.059 185.272ZM176.775 186.783L177.123 188.752L178.244 188.553L178.646 187.488L176.775 186.783ZM176.092 186.978L175.202 185.187L176.833 188.836L176.092 186.978ZM176.09 186.979L176.695 188.885L176.842 188.839L176.98 188.77L176.09 186.979ZM175.065 187.488L176.099 189.2L176.123 189.186L176.146 189.17L175.065 187.488ZM174.502 187.909L173.934 189.827L175.018 190.148L175.852 189.384L174.502 187.909ZM171.918 188.816L173.763 189.588L173.763 189.588L171.918 188.816ZM173.277 191.315L175.26 191.054L175.115 189.959L174.112 189.498L173.277 191.315ZM173.301 191.442L171.373 191.972L171.377 191.987L171.381 192.002L173.301 191.442ZM177.776 194.429L178.343 192.511L177.59 192.289L176.886 192.638L177.776 194.429ZM178.831 194.398L178.127 192.526L178.068 192.548L178.01 192.574L178.831 194.398ZM179.272 194.183L178.383 192.392L178.353 192.407L178.324 192.422L179.272 194.183ZM179.985 193.335L179.095 191.543L177.835 192.169L177.998 193.567L179.985 193.335ZM182.273 189.542L180.477 190.423L180.481 190.432L182.273 189.542ZM181.912 186.758C181.847 186.672 181.726 186.519 181.549 186.363L178.908 189.368C178.795 189.268 178.73 189.181 178.718 189.166L181.912 186.758ZM182.216 188.09C182.198 188.249 182.366 187.346 182.222 186.413C182.072 185.444 181.472 183.828 179.558 183.335L178.56 187.209C178.541 187.204 178.488 187.186 178.425 187.141C178.362 187.097 178.315 187.047 178.285 187.004C178.234 186.932 178.252 186.916 178.269 187.025C178.284 187.126 178.286 187.25 178.277 187.366C178.273 187.419 178.268 187.46 178.265 187.483C178.263 187.494 178.262 187.5 178.262 187.501C178.262 187.502 178.262 187.502 178.262 187.502C178.262 187.501 178.262 187.501 178.262 187.501C178.261 187.504 178.262 187.499 178.261 187.505C178.261 187.506 178.26 187.512 178.259 187.519C178.258 187.522 178.257 187.53 178.255 187.541C178.254 187.547 178.252 187.561 178.251 187.569C178.249 187.582 178.244 187.618 178.241 187.641L182.216 188.09ZM179.559 183.336C177.756 182.87 176.462 183.801 175.806 184.559C175.484 184.931 175.265 185.305 175.128 185.573C175.057 185.711 175.003 185.831 174.965 185.923C174.925 186.018 174.898 186.09 174.903 186.077L178.646 187.488C178.648 187.483 178.65 187.476 178.651 187.474C178.652 187.472 178.653 187.469 178.653 187.468C178.654 187.467 178.655 187.465 178.655 187.465C178.655 187.464 178.655 187.465 178.654 187.466C178.654 187.467 178.653 187.469 178.652 187.471C178.651 187.474 178.65 187.477 178.649 187.479C178.648 187.481 178.649 187.479 178.652 187.473C178.657 187.46 178.67 187.432 178.688 187.395C178.73 187.314 178.781 187.234 178.83 187.177C178.881 187.118 178.879 187.144 178.802 187.176C178.759 187.194 178.706 187.208 178.649 187.212C178.623 187.214 178.6 187.214 178.583 187.212C178.566 187.21 178.558 187.208 178.559 187.208L179.559 183.336ZM176.426 184.813C176.046 184.88 175.687 184.986 175.351 185.12L176.833 188.836C176.93 188.797 177.027 188.769 177.123 188.752L176.426 184.813ZM176.092 186.978C176.981 188.769 176.092 186.978 175.202 185.187C175.202 185.187 175.202 185.187 175.202 185.187C175.202 185.187 175.202 185.187 175.202 185.187C175.202 185.187 175.202 185.187 175.202 185.187C175.202 185.187 175.202 185.187 175.202 185.187C175.202 185.187 175.202 185.187 175.202 185.187L175.202 185.187L175.202 185.187L175.202 185.187C175.202 185.187 175.202 185.187 175.202 185.187L175.202 185.187L175.202 185.187C175.202 185.187 175.202 185.187 175.202 185.187C175.202 185.187 175.202 185.187 175.202 185.187L175.202 185.187L175.202 185.187C175.202 185.187 175.202 185.187 175.202 185.187C175.202 185.187 175.202 185.187 175.202 185.187C175.202 185.187 175.202 185.187 175.202 185.187C175.202 185.187 175.202 185.187 175.202 185.187C175.202 185.187 175.202 185.187 175.202 185.187C175.202 185.187 175.202 185.187 175.202 185.187C175.202 185.187 175.202 185.187 175.202 185.187L175.202 185.187C175.202 185.187 175.202 185.187 175.202 185.187C175.202 185.187 175.202 185.187 175.202 185.187C175.202 185.187 175.202 185.187 175.202 185.187L175.202 185.187L175.202 185.187C175.202 185.187 175.202 185.187 175.202 185.187C175.202 185.187 175.202 185.187 175.202 185.187C175.202 185.187 175.202 185.187 175.202 185.187C175.202 185.187 175.202 185.187 175.202 185.187C175.202 185.187 175.202 185.187 175.202 185.187C175.202 185.187 175.202 185.187 175.202 185.187C175.202 185.187 175.202 185.187 175.202 185.187C175.202 185.187 175.202 185.187 175.202 185.187C175.202 185.187 175.202 185.187 175.202 185.187C175.202 185.187 175.202 185.187 175.202 185.187C175.202 185.187 175.202 185.187 175.202 185.187C175.202 185.187 175.202 185.187 175.202 185.187L175.202 185.187L175.202 185.187L175.202 185.187C175.202 185.187 175.202 185.187 175.202 185.187C175.202 185.187 175.202 185.187 175.202 185.187C175.202 185.187 175.202 185.187 175.202 185.187L175.202 185.187C175.202 185.187 175.202 185.187 175.202 185.187C175.202 185.187 175.202 185.187 175.202 185.187L175.202 185.187L175.202 185.187C175.202 185.187 175.202 185.187 175.202 185.187L175.202 185.187C175.202 185.187 175.202 185.187 175.202 185.187C175.202 185.187 175.202 185.187 175.202 185.187L175.202 185.187C175.202 185.187 175.202 185.187 175.202 185.187L175.202 185.187C175.202 185.187 175.202 185.187 175.202 185.187L175.202 185.187C175.202 185.187 175.202 185.187 175.202 185.187C175.202 185.187 175.202 185.187 175.202 185.187L175.202 185.187C175.202 185.187 175.202 185.187 175.202 185.187C175.202 185.187 175.202 185.187 175.202 185.187L175.202 185.187C175.202 185.187 175.202 185.187 175.202 185.187C175.202 185.187 175.202 185.187 175.202 185.187C175.202 185.187 175.202 185.187 175.202 185.187L175.202 185.187C175.202 185.187 175.202 185.187 175.202 185.187C175.202 185.187 175.202 185.187 175.202 185.187C175.202 185.187 175.202 185.187 175.202 185.187C175.202 185.187 175.202 185.187 175.202 185.187C175.202 185.187 175.202 185.187 175.202 185.187C175.202 185.187 175.202 185.187 175.202 185.187C175.202 185.187 175.202 185.187 175.202 185.187C175.202 185.187 175.202 185.187 175.202 185.187C175.202 185.187 175.202 185.187 175.202 185.187C175.202 185.187 175.202 185.187 175.202 185.187C175.202 185.187 175.202 185.187 175.202 185.187C175.202 185.187 175.202 185.187 175.202 185.187C175.202 185.187 175.202 185.187 175.202 185.187C175.202 185.187 175.202 185.187 175.202 185.187C175.202 185.187 175.202 185.187 175.202 185.187C175.202 185.187 175.202 185.187 175.202 185.187C175.202 185.187 175.202 185.187 175.202 185.187C175.202 185.187 175.202 185.187 175.202 185.187C175.202 185.187 175.202 185.187 175.202 185.187C175.202 185.187 175.202 185.187 175.202 185.187C175.202 185.187 175.202 185.187 175.202 185.187C175.202 185.187 175.202 185.187 175.202 185.187C175.202 185.187 175.202 185.187 175.202 185.187C175.202 185.187 175.202 185.187 175.202 185.187C175.202 185.187 175.202 185.187 175.202 185.187C175.202 185.187 175.202 185.187 175.202 185.187C175.202 185.187 175.202 185.187 175.202 185.187C175.202 185.187 175.202 185.187 175.202 185.187C175.202 185.187 175.202 185.187 175.202 185.187C175.202 185.187 175.202 185.187 175.202 185.187C175.202 185.187 175.202 185.187 175.202 185.187C175.202 185.187 175.202 185.187 175.202 185.187C175.202 185.187 175.202 185.187 175.202 185.187C175.202 185.187 175.202 185.187 175.202 185.187C175.202 185.187 175.202 185.187 175.202 185.187C175.202 185.187 175.202 185.187 175.202 185.187C175.202 185.187 175.202 185.187 175.202 185.187C175.202 185.187 175.202 185.187 175.202 185.187C175.202 185.187 175.202 185.187 175.202 185.187C175.202 185.187 175.202 185.187 175.202 185.187C175.202 185.187 175.202 185.187 175.202 185.187C175.202 185.187 175.202 185.187 175.202 185.187C175.202 185.187 175.202 185.187 175.202 185.187C175.202 185.187 175.202 185.187 175.202 185.187C175.202 185.187 175.202 185.187 175.202 185.187C175.202 185.187 175.202 185.187 175.202 185.187C175.202 185.187 175.202 185.187 175.202 185.187C175.202 185.187 175.202 185.187 175.202 185.187C175.202 185.187 175.202 185.187 175.202 185.187C175.202 185.187 175.202 185.187 175.202 185.187C175.202 185.187 175.202 185.187 175.202 185.187C175.202 185.187 175.202 185.187 175.202 185.187C175.202 185.187 175.202 185.187 175.202 185.187C175.202 185.187 175.202 185.187 175.202 185.187C175.202 185.187 175.202 185.187 175.202 185.187C175.202 185.187 175.202 185.187 175.202 185.187C175.202 185.187 175.202 185.187 175.202 185.187C175.202 185.187 175.202 185.187 175.202 185.187C175.202 185.187 175.202 185.187 175.202 185.187C175.202 185.187 175.202 185.187 175.202 185.187C175.202 185.187 175.202 185.187 175.202 185.187C175.202 185.187 175.202 185.187 175.202 185.187C175.202 185.187 175.202 185.187 175.202 185.187C175.202 185.187 175.202 185.187 175.202 185.187C175.202 185.187 175.202 185.187 175.202 185.187C175.202 185.187 175.202 185.187 175.202 185.187C175.202 185.187 175.202 185.187 175.202 185.187C175.202 185.187 175.202 185.187 175.202 185.187C175.202 185.187 175.202 185.187 175.202 185.187C175.202 185.187 175.202 185.187 175.202 185.187C175.202 185.187 175.202 185.187 175.202 185.187C175.202 185.187 175.202 185.187 175.202 185.187C175.202 185.187 175.202 185.187 175.202 185.187C175.202 185.187 175.202 185.187 175.202 185.187C175.202 185.187 175.202 185.187 175.202 185.187C175.202 185.187 175.202 185.187 175.202 185.187C175.202 185.187 175.202 185.187 175.202 185.187C175.202 185.187 175.202 185.187 175.202 185.187C175.202 185.187 175.202 185.187 175.202 185.187C175.202 185.187 175.202 185.187 175.202 185.187C175.202 185.187 175.202 185.187 175.202 185.187C175.202 185.187 175.202 185.187 175.202 185.187C175.202 185.187 175.202 185.187 175.202 185.187C175.202 185.187 175.202 185.187 175.202 185.187C175.202 185.187 175.202 185.187 175.202 185.187C175.202 185.187 175.202 185.187 175.202 185.187C175.202 185.187 175.202 185.187 175.202 185.187C175.202 185.187 175.202 185.187 175.202 185.187C175.202 185.187 175.202 185.187 175.202 185.187C175.202 185.187 175.202 185.187 175.202 185.187C175.202 185.187 175.202 185.187 175.202 185.187C175.202 185.187 175.202 185.187 175.202 185.187C175.202 185.187 175.202 185.187 175.202 185.187C175.202 185.187 175.202 185.187 175.202 185.187C175.202 185.187 175.202 185.187 175.202 185.187C175.202 185.187 175.202 185.187 175.202 185.187C175.202 185.187 175.202 185.187 175.202 185.187C175.202 185.187 175.202 185.187 175.202 185.187C175.202 185.187 175.202 185.187 175.202 185.187C175.202 185.187 175.202 185.187 175.202 185.187C175.202 185.187 175.202 185.187 175.202 185.187C175.202 185.187 175.202 185.187 175.202 185.187C175.202 185.187 175.202 185.187 175.202 185.187C175.202 185.187 175.202 185.187 175.202 185.187C175.202 185.187 175.202 185.187 175.202 185.187C175.202 185.187 175.202 185.187 175.202 185.187C175.202 185.187 175.202 185.187 175.202 185.187C175.202 185.187 175.202 185.187 175.202 185.187C175.202 185.187 175.202 185.187 175.202 185.187C175.202 185.187 175.202 185.187 175.202 185.187C175.202 185.187 175.202 185.187 175.202 185.187C175.202 185.187 175.202 185.187 175.202 185.187C175.202 185.187 175.202 185.187 175.202 185.187C175.202 185.187 175.202 185.187 175.202 185.187C175.202 185.187 175.202 185.187 175.202 185.187C175.202 185.187 175.202 185.187 175.202 185.187C175.202 185.187 175.202 185.187 175.202 185.187C175.202 185.187 175.202 185.187 175.202 185.187C175.202 185.187 175.202 185.187 175.202 185.187C175.202 185.187 175.202 185.187 175.202 185.187C175.202 185.187 175.202 185.187 175.202 185.187C175.202 185.187 175.202 185.187 175.202 185.187C175.202 185.187 175.202 185.187 175.202 185.187C175.202 185.187 175.202 185.187 175.202 185.187C175.202 185.187 175.202 185.187 175.202 185.187C175.202 185.187 175.202 185.187 175.202 185.187C175.202 185.187 175.202 185.187 175.202 185.187C175.202 185.187 175.202 185.187 175.202 185.187C175.202 185.187 175.202 185.187 175.202 185.187C175.202 185.187 175.202 185.187 175.202 185.187C175.202 185.187 175.202 185.187 175.202 185.187C175.202 185.187 175.202 185.187 175.202 185.187C175.202 185.187 175.202 185.187 175.202 185.187C175.202 185.187 175.202 185.187 175.202 185.187C175.202 185.187 175.202 185.187 175.202 185.187C175.202 185.187 175.202 185.187 175.202 185.187C175.202 185.187 175.202 185.187 175.202 185.187C175.202 185.187 175.202 185.187 175.202 185.187C175.202 185.187 175.202 185.187 175.202 185.187C175.202 185.187 175.202 185.187 175.202 185.187C175.202 185.187 175.202 185.187 175.202 185.187C175.202 185.187 175.202 185.187 175.202 185.187C175.202 185.187 175.202 185.187 175.202 185.187C175.202 185.187 175.202 185.187 175.202 185.187C175.202 185.187 175.202 185.187 175.202 185.187C175.202 185.187 175.202 185.187 175.202 185.187C175.202 185.187 175.202 185.187 175.202 185.187C175.202 185.187 175.202 185.187 175.202 185.187C175.202 185.187 175.202 185.187 175.202 185.187C175.202 185.187 175.202 185.187 175.202 185.187C175.202 185.187 175.202 185.187 175.202 185.187C175.202 185.187 175.202 185.187 175.202 185.187C175.202 185.187 175.202 185.187 175.202 185.187C175.202 185.187 175.202 185.187 175.202 185.187C175.202 185.187 175.202 185.187 175.202 185.187C175.202 185.187 175.202 185.187 175.202 185.187C175.202 185.187 175.202 185.187 175.202 185.187C175.202 185.187 175.202 185.187 175.202 185.187C175.202 185.187 175.202 185.187 175.202 185.187C175.202 185.187 175.202 185.187 175.202 185.187C175.202 185.187 175.202 185.187 175.202 185.187C175.202 185.187 175.202 185.187 175.202 185.187C175.202 185.187 175.202 185.187 175.202 185.187C175.202 185.187 175.202 185.187 175.202 185.187C175.202 185.187 175.202 185.187 175.202 185.187C175.202 185.187 175.202 185.187 175.202 185.187C175.202 185.187 175.202 185.187 175.202 185.187C175.202 185.187 175.202 185.187 175.202 185.187C175.202 185.187 175.202 185.187 175.202 185.187C175.202 185.187 175.202 185.187 175.202 185.187C175.202 185.187 175.202 185.187 175.202 185.187C175.202 185.187 175.202 185.187 175.202 185.187C175.202 185.187 175.202 185.187 175.202 185.187C175.202 185.187 175.202 185.187 175.202 185.187C175.202 185.187 175.202 185.187 175.202 185.187C175.202 185.187 175.202 185.187 175.202 185.187C175.202 185.187 175.202 185.187 175.202 185.187C175.202 185.187 175.202 185.187 175.202 185.187C175.202 185.187 175.202 185.187 175.202 185.187C175.202 185.187 175.202 185.187 175.202 185.187C175.202 185.187 175.202 185.187 175.202 185.187C175.202 185.187 175.202 185.187 175.202 185.187C175.202 185.187 175.202 185.187 175.202 185.187C175.202 185.187 175.202 185.187 175.202 185.187C175.202 185.187 175.202 185.187 175.202 185.187C175.202 185.187 175.202 185.187 175.202 185.187C175.202 185.187 175.202 185.187 175.202 185.187C175.202 185.187 175.202 185.187 175.202 185.187C175.202 185.187 175.202 185.187 175.202 185.187C175.202 185.187 175.202 185.187 175.202 185.187C175.202 185.187 175.202 185.187 175.202 185.187C175.202 185.187 175.202 185.187 175.202 185.187C175.202 185.187 175.202 185.187 175.202 185.187C175.202 185.187 175.202 185.187 175.202 185.187C175.202 185.187 175.202 185.187 175.202 185.187C175.202 185.187 175.202 185.187 175.202 185.187C175.202 185.187 175.202 185.187 175.202 185.187C175.202 185.187 175.202 185.187 175.202 185.187C175.202 185.187 175.202 185.187 175.202 185.187C175.202 185.187 175.202 185.187 175.202 185.187C175.202 185.187 175.202 185.187 175.202 185.187C175.202 185.187 175.202 185.187 175.202 185.187C175.202 185.187 175.202 185.187 175.202 185.187C175.202 185.187 175.202 185.187 175.202 185.187C175.202 185.187 175.202 185.187 175.202 185.187C175.202 185.187 175.202 185.187 175.202 185.187C175.202 185.187 175.202 185.187 175.202 185.187C175.202 185.187 175.202 185.187 175.202 185.187C175.202 185.187 175.202 185.187 175.202 185.187C175.202 185.187 175.202 185.187 175.202 185.187C175.202 185.187 175.202 185.187 175.202 185.187C175.202 185.187 175.202 185.187 175.202 185.187C175.202 185.187 175.202 185.187 175.202 185.187C175.202 185.187 175.202 185.187 175.202 185.187C175.202 185.187 175.202 185.187 175.202 185.187C175.202 185.187 175.202 185.187 175.202 185.187C175.202 185.187 175.202 185.187 175.202 185.187C175.202 185.187 175.202 185.187 175.202 185.187C175.202 185.187 175.202 185.187 175.202 185.187C175.202 185.187 175.202 185.187 175.202 185.187C175.202 185.187 175.202 185.187 175.202 185.187C175.202 185.187 175.202 185.187 175.202 185.187C175.202 185.187 175.202 185.187 175.202 185.187C175.202 185.187 175.202 185.187 175.202 185.187C175.202 185.187 175.202 185.187 175.202 185.187C175.202 185.187 175.202 185.187 175.202 185.187C175.202 185.187 175.202 185.187 175.202 185.187C175.202 185.187 175.202 185.187 175.202 185.187C175.202 185.187 175.202 185.187 175.202 185.187C175.202 185.187 175.202 185.187 175.202 185.187C175.202 185.187 175.202 185.187 175.202 185.187C175.202 185.187 175.202 185.187 175.202 185.187C175.202 185.187 175.202 185.187 175.202 185.187C175.202 185.187 175.202 185.187 175.202 185.187C175.202 185.187 175.202 185.187 175.202 185.187C175.202 185.187 175.202 185.187 175.202 185.187C175.202 185.187 175.202 185.187 175.202 185.187C175.202 185.187 175.202 185.187 175.202 185.187C175.202 185.187 175.202 185.187 175.202 185.187C175.202 185.187 175.202 185.187 175.202 185.187C175.202 185.187 175.202 185.187 175.202 185.187C175.202 185.187 175.202 185.187 175.202 185.187C175.202 185.187 175.202 185.187 175.202 185.187C175.202 185.187 175.202 185.187 175.202 185.187C175.202 185.187 175.202 185.187 175.202 185.187C175.202 185.187 175.202 185.187 175.202 185.187C175.202 185.187 175.202 185.187 175.202 185.187C175.202 185.187 175.202 185.187 175.202 185.187C175.202 185.187 175.202 185.187 175.202 185.187C175.202 185.187 175.202 185.187 175.202 185.187C175.202 185.187 175.202 185.187 175.202 185.187C175.202 185.187 175.202 185.187 175.202 185.187C175.202 185.187 175.202 185.187 175.202 185.187C175.202 185.187 175.202 185.187 175.202 185.187C175.202 185.187 175.202 185.187 175.202 185.187C175.202 185.187 175.202 185.187 175.202 185.187C175.202 185.187 175.202 185.187 175.202 185.187C175.202 185.187 175.202 185.187 175.202 185.187C175.202 185.187 175.202 185.187 175.202 185.187C175.202 185.187 175.202 185.187 175.202 185.187C175.202 185.187 175.202 185.187 175.202 185.187C175.202 185.187 175.202 185.187 175.201 185.187C175.201 185.187 175.201 185.187 175.201 185.187C175.201 185.187 175.201 185.187 175.201 185.187C175.201 185.187 175.201 185.187 175.201 185.187C175.201 185.187 175.201 185.187 175.201 185.187C175.201 185.187 175.201 185.187 175.201 185.187C175.201 185.187 175.201 185.187 175.201 185.187C175.201 185.187 175.201 185.187 175.201 185.187C175.201 185.187 175.201 185.187 175.201 185.187C175.201 185.187 175.201 185.187 175.201 185.187C175.201 185.187 175.201 185.187 175.201 185.187C175.201 185.187 175.201 185.187 175.201 185.187C175.201 185.187 175.201 185.187 175.201 185.187C175.201 185.187 175.201 185.187 175.201 185.187C175.201 185.187 175.201 185.187 175.201 185.187C175.201 185.187 175.201 185.187 175.201 185.187C175.201 185.187 175.201 185.187 175.201 185.187C175.201 185.187 175.201 185.187 175.201 185.187C175.201 185.187 175.201 185.187 175.201 185.187C175.201 185.187 175.201 185.187 175.201 185.187C175.201 185.187 175.201 185.187 175.201 185.187C175.201 185.187 175.201 185.187 175.201 185.187C175.201 185.187 175.201 185.187 175.201 185.187C175.201 185.187 175.201 185.187 175.201 185.187C175.201 185.187 175.201 185.187 175.201 185.187C175.201 185.187 175.201 185.187 175.201 185.187C175.201 185.187 175.201 185.187 175.201 185.187C175.201 185.187 175.201 185.187 175.201 185.187C175.201 185.187 175.201 185.187 175.201 185.187C175.201 185.187 175.201 185.187 175.201 185.187C175.201 185.187 175.201 185.187 175.201 185.187C175.201 185.187 175.201 185.187 175.201 185.187C175.201 185.187 175.201 185.187 175.201 185.187C175.201 185.187 175.201 185.187 175.201 185.187C175.201 185.187 175.201 185.187 175.201 185.187C175.201 185.187 175.201 185.187 175.201 185.187C175.201 185.187 175.201 185.187 175.201 185.187C175.201 185.187 175.201 185.187 175.201 185.187C175.201 185.187 175.201 185.187 175.201 185.187C175.201 185.187 175.201 185.187 175.201 185.187C175.201 185.187 175.201 185.187 175.201 185.187C175.201 185.187 175.201 185.187 175.201 185.187C175.201 185.187 175.201 185.187 175.201 185.187C175.201 185.187 175.201 185.187 175.201 185.187C175.201 185.187 175.201 185.187 175.201 185.187C175.201 185.187 175.201 185.187 175.201 185.187C175.201 185.187 175.201 185.187 175.201 185.187C175.201 185.187 175.201 185.187 175.201 185.187C175.201 185.187 175.201 185.187 175.201 185.187C175.201 185.187 175.201 185.187 175.201 185.187C175.201 185.187 175.201 185.187 175.201 185.187C175.201 185.187 175.201 185.187 175.201 185.187C175.201 185.187 175.201 185.187 175.201 185.187C175.201 185.187 175.201 185.187 175.201 185.187C175.201 185.187 175.201 185.187 175.201 185.187C175.201 185.187 175.201 185.187 175.201 185.187C175.201 185.187 175.201 185.187 175.201 185.187C175.201 185.187 175.201 185.187 175.201 185.187C175.201 185.187 175.201 185.187 175.201 185.187C175.201 185.187 175.201 185.187 175.201 185.187C175.201 185.187 175.201 185.187 175.201 185.187C175.201 185.187 175.201 185.187 175.201 185.187C175.201 185.187 175.201 185.187 175.201 185.187C175.201 185.187 175.201 185.187 175.201 185.187C175.201 185.187 175.201 185.187 175.201 185.187C175.201 185.187 175.201 185.187 175.201 185.187C175.201 185.187 175.201 185.187 175.201 185.187C175.201 185.187 175.201 185.187 175.201 185.187C175.201 185.187 175.201 185.187 175.201 185.187C175.201 185.187 175.201 185.187 175.201 185.187C175.201 185.187 175.201 185.187 175.201 185.187C175.201 185.187 175.201 185.187 175.201 185.187C175.201 185.187 175.201 185.187 175.201 185.187C175.201 185.187 175.201 185.187 175.201 185.187C175.201 185.187 175.201 185.187 175.201 185.187C175.201 185.187 175.201 185.187 175.201 185.187C175.201 185.187 175.201 185.187 175.201 185.187C175.201 185.187 175.201 185.187 175.201 185.187C175.201 185.187 175.201 185.187 175.201 185.187C175.201 185.187 175.201 185.187 175.201 185.187C175.201 185.187 175.201 185.187 175.201 185.187C175.201 185.187 175.201 185.187 175.201 185.187C175.201 185.187 175.201 185.187 175.201 185.187C175.201 185.187 175.201 185.187 175.201 185.187C175.201 185.187 175.201 185.187 175.201 185.187C175.201 185.187 175.201 185.187 175.201 185.187C175.201 185.187 175.201 185.187 175.201 185.187C175.201 185.187 175.201 185.187 175.201 185.187C175.201 185.187 175.201 185.187 175.201 185.187C175.201 185.187 175.201 185.187 175.201 185.187C175.201 185.187 175.201 185.187 175.201 185.187C175.201 185.187 175.201 185.187 175.201 185.187C175.201 185.187 175.201 185.187 175.201 185.187C175.201 185.187 175.201 185.187 175.201 185.187C175.201 185.187 175.201 185.187 175.201 185.187C175.201 185.187 175.201 185.187 175.201 185.187C175.201 185.187 175.201 185.187 175.201 185.187C175.201 185.187 175.201 185.187 175.201 185.187C175.201 185.187 175.201 185.187 175.201 185.187C175.201 185.187 175.201 185.187 175.201 185.187C175.201 185.187 175.201 185.187 175.201 185.187C175.201 185.187 175.201 185.187 175.201 185.187C175.201 185.187 175.201 185.187 175.201 185.187C175.201 185.187 175.201 185.187 175.201 185.187C175.201 185.187 175.201 185.187 175.201 185.187C175.201 185.187 175.201 185.187 175.201 185.187C175.201 185.187 175.201 185.187 175.201 185.187C175.201 185.187 175.201 185.187 175.201 185.187C175.201 185.187 175.201 185.187 175.201 185.187C175.201 185.187 175.201 185.187 175.201 185.187C175.201 185.187 175.201 185.187 175.201 185.187C175.201 185.187 175.201 185.187 175.201 185.187C175.201 185.187 175.201 185.187 175.201 185.187L176.98 188.77C176.98 188.77 176.98 188.77 176.98 188.77C176.98 188.77 176.98 188.77 176.98 188.77C176.98 188.77 176.98 188.77 176.98 188.77C176.98 188.77 176.98 188.77 176.98 188.77C176.98 188.77 176.98 188.77 176.98 188.77C176.98 188.77 176.98 188.77 176.98 188.77C176.98 188.77 176.98 188.77 176.98 188.77C176.98 188.77 176.98 188.77 176.98 188.77C176.98 188.77 176.98 188.77 176.98 188.77C176.98 188.77 176.98 188.77 176.98 188.77C176.98 188.77 176.98 188.77 176.98 188.77C176.98 188.77 176.98 188.77 176.98 188.77C176.98 188.77 176.98 188.77 176.98 188.77C176.98 188.77 176.98 188.77 176.98 188.77C176.98 188.77 176.98 188.77 176.98 188.77C176.98 188.77 176.98 188.77 176.98 188.77C176.98 188.77 176.98 188.77 176.98 188.77C176.98 188.77 176.98 188.77 176.98 188.77C176.98 188.77 176.98 188.77 176.98 188.77C176.98 188.77 176.98 188.77 176.98 188.77C176.98 188.77 176.98 188.77 176.98 188.77C176.98 188.77 176.98 188.77 176.98 188.77C176.98 188.77 176.98 188.77 176.98 188.77C176.98 188.77 176.98 188.77 176.98 188.77C176.98 188.77 176.98 188.77 176.98 188.77C176.98 188.77 176.98 188.77 176.98 188.77C176.98 188.77 176.98 188.77 176.98 188.77C176.98 188.77 176.98 188.77 176.98 188.77C176.98 188.77 176.98 188.77 176.98 188.77C176.98 188.77 176.98 188.77 176.98 188.77C176.98 188.77 176.98 188.77 176.98 188.77C176.98 188.77 176.98 188.77 176.98 188.77C176.98 188.77 176.98 188.77 176.98 188.77C176.98 188.77 176.98 188.77 176.98 188.77C176.98 188.77 176.98 188.77 176.98 188.77C176.98 188.77 176.98 188.77 176.98 188.77C176.98 188.77 176.98 188.77 176.98 188.77C176.98 188.77 176.98 188.77 176.98 188.77C176.98 188.77 176.98 188.77 176.98 188.77C176.98 188.77 176.98 188.77 176.98 188.77C176.98 188.77 176.98 188.77 176.98 188.77C176.98 188.77 176.98 188.77 176.98 188.77C176.98 188.77 176.98 188.77 176.98 188.77C176.98 188.77 176.98 188.77 176.98 188.77C176.98 188.77 176.98 188.77 176.98 188.77C176.98 188.77 176.98 188.77 176.98 188.77C176.98 188.77 176.98 188.77 176.98 188.77C176.98 188.77 176.98 188.77 176.98 188.77C176.98 188.77 176.98 188.77 176.98 188.77C176.98 188.77 176.98 188.77 176.98 188.77C176.98 188.77 176.98 188.77 176.98 188.77C176.98 188.77 176.98 188.77 176.98 188.77C176.98 188.77 176.98 188.77 176.98 188.77C176.98 188.77 176.98 188.77 176.98 188.77C176.98 188.77 176.98 188.77 176.98 188.77C176.98 188.77 176.98 188.77 176.98 188.77C176.98 188.77 176.98 188.77 176.98 188.77C176.98 188.77 176.98 188.77 176.98 188.77C176.98 188.77 176.98 188.77 176.98 188.77C176.98 188.77 176.98 188.77 176.98 188.77C176.98 188.77 176.98 188.77 176.98 188.77C176.98 188.77 176.98 188.77 176.98 188.77C176.98 188.77 176.98 188.77 176.98 188.77C176.98 188.77 176.98 188.77 176.98 188.77C176.98 188.77 176.98 188.77 176.98 188.77C176.98 188.77 176.98 188.77 176.98 188.77C176.98 188.77 176.98 188.77 176.98 188.77C176.98 188.77 176.98 188.77 176.98 188.77C176.98 188.77 176.98 188.77 176.98 188.77C176.98 188.77 176.98 188.77 176.98 188.77C176.98 188.77 176.98 188.77 176.98 188.77C176.98 188.77 176.98 188.77 176.98 188.77C176.98 188.77 176.98 188.77 176.98 188.77C176.98 188.77 176.98 188.77 176.98 188.77C176.98 188.77 176.98 188.77 176.98 188.77C176.98 188.77 176.98 188.77 176.98 188.77C176.98 188.77 176.98 188.77 176.98 188.77C176.98 188.77 176.98 188.77 176.98 188.77C176.98 188.77 176.98 188.77 176.98 188.77C176.98 188.77 176.98 188.77 176.98 188.77C176.98 188.77 176.98 188.77 176.98 188.77C176.98 188.77 176.98 188.77 176.98 188.77C176.98 188.77 176.98 188.77 176.98 188.77C176.98 188.77 176.98 188.77 176.98 188.77C176.98 188.77 176.98 188.77 176.98 188.77C176.98 188.77 176.98 188.77 176.98 188.77C176.98 188.77 176.98 188.77 176.98 188.77C176.98 188.77 176.98 188.77 176.98 188.77C176.98 188.77 176.98 188.77 176.98 188.77C176.98 188.77 176.98 188.77 176.98 188.77C176.98 188.77 176.98 188.77 176.98 188.77C176.98 188.77 176.98 188.77 176.98 188.77C176.98 188.77 176.98 188.77 176.98 188.77C176.98 188.77 176.98 188.77 176.98 188.77C176.98 188.77 176.98 188.77 176.98 188.77C176.98 188.77 176.98 188.77 176.98 188.77C176.98 188.77 176.98 188.77 176.98 188.77C176.98 188.77 176.98 188.77 176.98 188.77C176.98 188.77 176.98 188.77 176.98 188.77C176.98 188.77 176.98 188.77 176.98 188.77C176.98 188.77 176.98 188.77 176.98 188.77C176.98 188.77 176.98 188.77 176.98 188.77C176.98 188.77 176.98 188.77 176.98 188.77C176.98 188.77 176.98 188.77 176.98 188.77C176.98 188.77 176.98 188.77 176.98 188.77C176.98 188.77 176.98 188.77 176.98 188.77C176.98 188.77 176.98 188.77 176.98 188.77C176.98 188.77 176.98 188.77 176.98 188.77C176.98 188.77 176.981 188.77 176.981 188.77C176.981 188.77 176.981 188.77 176.981 188.77C176.981 188.77 176.981 188.77 176.981 188.77C176.981 188.77 176.981 188.77 176.981 188.77C176.981 188.77 176.981 188.77 176.981 188.77C176.981 188.77 176.981 188.77 176.981 188.77C176.981 188.77 176.981 188.77 176.981 188.77C176.981 188.77 176.981 188.77 176.981 188.77C176.981 188.77 176.981 188.77 176.981 188.77C176.981 188.77 176.981 188.77 176.981 188.77C176.981 188.77 176.981 188.77 176.981 188.77C176.981 188.77 176.981 188.77 176.981 188.77C176.981 188.77 176.981 188.77 176.981 188.77C176.981 188.77 176.981 188.77 176.981 188.77C176.981 188.77 176.981 188.77 176.981 188.77C176.981 188.77 176.981 188.77 176.981 188.77C176.981 188.77 176.981 188.77 176.981 188.77C176.981 188.77 176.981 188.77 176.981 188.77C176.981 188.77 176.981 188.77 176.981 188.77C176.981 188.77 176.981 188.77 176.981 188.77C176.981 188.77 176.981 188.77 176.981 188.77C176.981 188.77 176.981 188.77 176.981 188.77C176.981 188.77 176.981 188.77 176.981 188.77C176.981 188.77 176.981 188.77 176.981 188.77C176.981 188.77 176.981 188.77 176.981 188.77C176.981 188.77 176.981 188.77 176.981 188.77C176.981 188.77 176.981 188.77 176.981 188.77C176.981 188.77 176.981 188.77 176.981 188.77C176.981 188.77 176.981 188.77 176.981 188.77C176.981 188.77 176.981 188.77 176.981 188.77C176.981 188.77 176.981 188.77 176.981 188.77C176.981 188.77 176.981 188.77 176.981 188.77C176.981 188.77 176.981 188.77 176.981 188.77C176.981 188.77 176.981 188.77 176.981 188.77C176.981 188.77 176.981 188.77 176.981 188.77C176.981 188.77 176.981 188.77 176.981 188.77C176.981 188.77 176.981 188.77 176.981 188.77C176.981 188.77 176.981 188.77 176.981 188.77C176.981 188.77 176.981 188.77 176.981 188.77C176.981 188.77 176.981 188.77 176.981 188.77C176.981 188.77 176.981 188.77 176.981 188.77C176.981 188.769 176.981 188.769 176.981 188.769C176.981 188.769 176.981 188.769 176.981 188.769C176.981 188.769 176.981 188.769 176.981 188.769C176.981 188.769 176.981 188.769 176.981 188.769C176.981 188.769 176.981 188.769 176.981 188.769C176.981 188.769 176.981 188.769 176.981 188.769C176.981 188.769 176.981 188.769 176.981 188.769C176.981 188.769 176.981 188.769 176.981 188.769C176.981 188.769 176.981 188.769 176.981 188.769C176.981 188.769 176.981 188.769 176.981 188.769C176.981 188.769 176.981 188.769 176.981 188.769C176.981 188.769 176.981 188.769 176.981 188.769C176.981 188.769 176.981 188.769 176.981 188.769C176.981 188.769 176.981 188.769 176.981 188.769C176.981 188.769 176.981 188.769 176.981 188.769C176.981 188.769 176.981 188.769 176.981 188.769C176.981 188.769 176.981 188.769 176.981 188.769C176.981 188.769 176.981 188.769 176.981 188.769C176.981 188.769 176.981 188.769 176.981 188.769C176.981 188.769 176.981 188.769 176.981 188.769C176.981 188.769 176.981 188.769 176.981 188.769C176.981 188.769 176.981 188.769 176.981 188.769C176.981 188.769 176.981 188.769 176.981 188.769C176.981 188.769 176.981 188.769 176.981 188.769C176.981 188.769 176.981 188.769 176.981 188.769C176.981 188.769 176.981 188.769 176.981 188.769C176.981 188.769 176.981 188.769 176.981 188.769C176.981 188.769 176.981 188.769 176.981 188.769C176.981 188.769 176.981 188.769 176.981 188.769C176.981 188.769 176.981 188.769 176.981 188.769C176.981 188.769 176.981 188.769 176.981 188.769C176.981 188.769 176.981 188.769 176.981 188.769C176.981 188.769 176.981 188.769 176.981 188.769C176.981 188.769 176.981 188.769 176.981 188.769C176.981 188.769 176.981 188.769 176.981 188.769C176.981 188.769 176.981 188.769 176.981 188.769C176.981 188.769 176.981 188.769 176.981 188.769C176.981 188.769 176.981 188.769 176.981 188.769C176.981 188.769 176.981 188.769 176.981 188.769C176.981 188.769 176.981 188.769 176.981 188.769C176.981 188.769 176.981 188.769 176.981 188.769C176.981 188.769 176.981 188.769 176.981 188.769C176.981 188.769 176.981 188.769 176.981 188.769C176.981 188.769 176.981 188.769 176.981 188.769C176.981 188.769 176.981 188.769 176.981 188.769C176.981 188.769 176.981 188.769 176.981 188.769C176.981 188.769 176.981 188.769 176.981 188.769C176.981 188.769 176.981 188.769 176.981 188.769C176.981 188.769 176.981 188.769 176.981 188.769C176.981 188.769 176.981 188.769 176.981 188.769C176.981 188.769 176.981 188.769 176.981 188.769C176.981 188.769 176.981 188.769 176.981 188.769C176.981 188.769 176.981 188.769 176.981 188.769C176.981 188.769 176.981 188.769 176.981 188.769C176.981 188.769 176.981 188.769 176.981 188.769C176.981 188.769 176.981 188.769 176.981 188.769C176.981 188.769 176.981 188.769 176.981 188.769C176.981 188.769 176.981 188.769 176.981 188.769C176.981 188.769 176.981 188.769 176.981 188.769C176.981 188.769 176.981 188.769 176.981 188.769C176.981 188.769 176.981 188.769 176.981 188.769C176.981 188.769 176.981 188.769 176.981 188.769C176.981 188.769 176.981 188.769 176.981 188.769C176.981 188.769 176.981 188.769 176.981 188.769C176.981 188.769 176.981 188.769 176.981 188.769C176.981 188.769 176.981 188.769 176.981 188.769C176.981 188.769 176.981 188.769 176.981 188.769C176.981 188.769 176.981 188.769 176.981 188.769C176.981 188.769 176.981 188.769 176.981 188.769C176.981 188.769 176.981 188.769 176.981 188.769C176.981 188.769 176.981 188.769 176.981 188.769C176.981 188.769 176.981 188.769 176.981 188.769C176.981 188.769 176.981 188.769 176.981 188.769C176.981 188.769 176.981 188.769 176.981 188.769C176.981 188.769 176.981 188.769 176.981 188.769C176.981 188.769 176.981 188.769 176.981 188.769C176.981 188.769 176.981 188.769 176.981 188.769C176.981 188.769 176.981 188.769 176.981 188.769C176.981 188.769 176.981 188.769 176.981 188.769C176.981 188.769 176.981 188.769 176.981 188.769C176.981 188.769 176.981 188.769 176.981 188.769C176.981 188.769 176.981 188.769 176.981 188.769C176.981 188.769 176.981 188.769 176.981 188.769C176.981 188.769 176.981 188.769 176.981 188.769C176.981 188.769 176.981 188.769 176.981 188.769C176.981 188.769 176.981 188.769 176.981 188.769C176.981 188.769 176.981 188.769 176.981 188.769C176.981 188.769 176.981 188.769 176.981 188.769C176.981 188.769 176.981 188.769 176.981 188.769C176.981 188.769 176.981 188.769 176.981 188.769C176.981 188.769 176.981 188.769 176.981 188.769C176.981 188.769 176.981 188.769 176.981 188.769C176.981 188.769 176.981 188.769 176.981 188.769C176.981 188.769 176.981 188.769 176.981 188.769C176.981 188.769 176.981 188.769 176.981 188.769C176.981 188.769 176.981 188.769 176.981 188.769C176.981 188.769 176.981 188.769 176.981 188.769C176.981 188.769 176.981 188.769 176.981 188.769C176.981 188.769 176.981 188.769 176.981 188.769C176.981 188.769 176.981 188.769 176.981 188.769C176.981 188.769 176.981 188.769 176.981 188.769C176.981 188.769 176.981 188.769 176.981 188.769C176.981 188.769 176.981 188.769 176.981 188.769C176.981 188.769 176.981 188.769 176.981 188.769C176.981 188.769 176.981 188.769 176.981 188.769C176.981 188.769 176.981 188.769 176.981 188.769C176.981 188.769 176.981 188.769 176.981 188.769C176.981 188.769 176.981 188.769 176.981 188.769C176.981 188.769 176.981 188.769 176.981 188.769C176.981 188.769 176.981 188.769 176.981 188.769C176.981 188.769 176.981 188.769 176.981 188.769C176.981 188.769 176.981 188.769 176.981 188.769C176.981 188.769 176.981 188.769 176.981 188.769C176.981 188.769 176.981 188.769 176.981 188.769C176.981 188.769 176.981 188.769 176.981 188.769C176.981 188.769 176.981 188.769 176.981 188.769C176.981 188.769 176.981 188.769 176.981 188.769C176.981 188.769 176.981 188.769 176.981 188.769C176.981 188.769 176.981 188.769 176.981 188.769C176.981 188.769 176.981 188.769 176.981 188.769C176.981 188.769 176.981 188.769 176.981 188.769C176.981 188.769 176.981 188.769 176.981 188.769C176.981 188.769 176.981 188.769 176.981 188.769C176.981 188.769 176.981 188.769 176.981 188.769C176.981 188.769 176.981 188.769 176.981 188.769C176.981 188.769 176.981 188.769 176.981 188.769C176.981 188.769 176.981 188.769 176.981 188.769C176.981 188.769 176.981 188.769 176.981 188.769C176.981 188.769 176.981 188.769 176.981 188.769C176.981 188.769 176.981 188.769 176.981 188.769C176.981 188.769 176.981 188.769 176.981 188.769C176.981 188.769 176.981 188.769 176.981 188.769C176.981 188.769 176.981 188.769 176.981 188.769C176.981 188.769 176.981 188.769 176.981 188.769C176.981 188.769 176.981 188.769 176.981 188.769C176.981 188.769 176.981 188.769 176.981 188.769C176.981 188.769 176.981 188.769 176.981 188.769C176.981 188.769 176.981 188.769 176.981 188.769C176.981 188.769 176.981 188.769 176.981 188.769C176.981 188.769 176.981 188.769 176.981 188.769C176.981 188.769 176.981 188.769 176.981 188.769C176.981 188.769 176.981 188.769 176.981 188.769C176.981 188.769 176.981 188.769 176.981 188.769C176.981 188.769 176.981 188.769 176.981 188.769C176.981 188.769 176.981 188.769 176.981 188.769C176.981 188.769 176.981 188.769 176.981 188.769C176.981 188.769 176.981 188.769 176.981 188.769C176.981 188.769 176.981 188.769 176.981 188.769C176.981 188.769 176.981 188.769 176.981 188.769C176.981 188.769 176.981 188.769 176.981 188.769C176.981 188.769 176.981 188.769 176.981 188.769C176.981 188.769 176.981 188.769 176.981 188.769C176.981 188.769 176.981 188.769 176.981 188.769C176.981 188.769 176.981 188.769 176.981 188.769C176.981 188.769 176.981 188.769 176.981 188.769C176.981 188.769 176.981 188.769 176.981 188.769C176.981 188.769 176.981 188.769 176.981 188.769C176.981 188.769 176.981 188.769 176.981 188.769C176.981 188.769 176.981 188.769 176.981 188.769C176.981 188.769 176.981 188.769 176.981 188.769C176.981 188.769 176.981 188.769 176.981 188.769C176.981 188.769 176.981 188.769 176.981 188.769C176.981 188.769 176.981 188.769 176.981 188.769C176.981 188.769 176.981 188.769 176.981 188.769C176.981 188.769 176.981 188.769 176.981 188.769C176.981 188.769 176.981 188.769 176.981 188.769C176.981 188.769 176.981 188.769 176.981 188.769C176.981 188.769 176.981 188.769 176.981 188.769C176.981 188.769 176.981 188.769 176.981 188.769C176.981 188.769 176.981 188.769 176.981 188.769C176.981 188.769 176.981 188.769 176.981 188.769C176.981 188.769 176.981 188.769 176.981 188.769C176.981 188.769 176.981 188.769 176.981 188.769C176.981 188.769 176.981 188.769 176.981 188.769C176.981 188.769 176.981 188.769 176.981 188.769C176.981 188.769 176.981 188.769 176.981 188.769C176.981 188.769 176.981 188.769 176.981 188.769C176.981 188.769 176.981 188.769 176.981 188.769C176.981 188.769 176.981 188.769 176.981 188.769C176.981 188.769 176.981 188.769 176.981 188.769C176.981 188.769 176.981 188.769 176.981 188.769C176.981 188.769 176.981 188.769 176.981 188.769C176.981 188.769 176.981 188.769 176.981 188.769C176.981 188.769 176.981 188.769 176.981 188.769C176.981 188.769 176.981 188.769 176.981 188.769C176.981 188.769 176.981 188.769 176.981 188.769C176.981 188.769 176.981 188.769 176.981 188.769C176.981 188.769 176.981 188.769 176.981 188.769C176.981 188.769 176.981 188.769 176.981 188.769C176.981 188.769 176.981 188.769 176.981 188.769C176.981 188.769 176.981 188.769 176.981 188.769C176.981 188.769 176.981 188.769 176.981 188.769C176.981 188.769 176.981 188.769 176.981 188.769C176.981 188.769 176.981 188.769 176.981 188.769C176.981 188.769 176.981 188.769 176.981 188.769C176.981 188.769 176.981 188.769 176.981 188.769C176.981 188.769 176.981 188.769 176.981 188.769C176.981 188.769 176.981 188.769 176.981 188.769C176.981 188.769 176.981 188.769 176.981 188.769C176.981 188.769 176.981 188.769 176.981 188.769C176.981 188.769 176.981 188.769 176.981 188.769C176.981 188.769 176.981 188.769 176.981 188.769C176.981 188.769 176.981 188.769 176.981 188.769C176.981 188.769 176.981 188.769 176.981 188.769C176.981 188.769 176.981 188.769 176.981 188.769C176.981 188.769 176.981 188.769 176.981 188.769C176.981 188.769 176.981 188.769 176.981 188.769C176.981 188.769 176.981 188.769 176.981 188.769C176.981 188.769 176.981 188.769 176.981 188.769C176.981 188.769 176.981 188.769 176.981 188.769C176.981 188.769 176.981 188.769 176.981 188.769C176.981 188.769 176.981 188.769 176.981 188.769C176.981 188.769 176.981 188.769 176.981 188.769C176.981 188.769 176.981 188.769 176.981 188.769C176.981 188.769 176.981 188.769 176.981 188.769C176.981 188.769 176.981 188.769 176.981 188.769C176.981 188.769 176.981 188.769 176.981 188.769C176.981 188.769 176.981 188.769 176.981 188.769C176.981 188.769 176.981 188.769 176.981 188.769C176.981 188.769 176.981 188.769 176.981 188.769C176.981 188.769 176.981 188.769 176.981 188.769C176.981 188.769 176.981 188.769 176.981 188.769C176.981 188.769 176.981 188.769 176.981 188.769C176.981 188.769 176.981 188.769 176.981 188.769C176.981 188.769 176.981 188.769 176.981 188.769L176.981 188.769C176.981 188.769 176.981 188.769 176.981 188.769C176.981 188.769 176.981 188.769 176.981 188.769C176.981 188.769 176.981 188.769 176.981 188.769L176.981 188.769C176.981 188.769 176.981 188.769 176.981 188.769C176.981 188.769 176.981 188.769 176.981 188.769L176.981 188.769C176.981 188.769 176.981 188.769 176.981 188.769C176.981 188.769 176.981 188.769 176.981 188.769L176.981 188.769C176.981 188.769 176.981 188.769 176.981 188.769L176.981 188.769C176.981 188.769 176.981 188.769 176.981 188.769L176.981 188.769C176.981 188.769 176.981 188.769 176.981 188.769C176.981 188.769 176.981 188.769 176.981 188.769L176.981 188.769C176.981 188.769 176.981 188.769 176.981 188.769L176.981 188.769L176.981 188.769C176.981 188.769 176.981 188.769 176.981 188.769C176.981 188.769 176.981 188.769 176.981 188.769L176.981 188.769C176.981 188.769 176.981 188.769 176.981 188.769C176.981 188.769 176.981 188.769 176.981 188.769C176.981 188.769 176.981 188.769 176.981 188.769L176.981 188.769L176.981 188.769L176.981 188.769C176.981 188.769 176.981 188.769 176.981 188.769C176.981 188.769 176.981 188.769 176.981 188.769C176.981 188.769 176.981 188.769 176.981 188.769C176.981 188.769 176.981 188.769 176.981 188.769C176.981 188.769 176.981 188.769 176.981 188.769C176.981 188.769 176.981 188.769 176.981 188.769C176.981 188.769 176.981 188.769 176.981 188.769C176.981 188.769 176.981 188.769 176.981 188.769C176.981 188.769 176.981 188.769 176.981 188.769C176.981 188.769 176.981 188.769 176.981 188.769C176.981 188.769 176.981 188.769 176.981 188.769C176.981 188.769 176.981 188.769 176.981 188.769L176.981 188.769L176.981 188.769C176.981 188.769 176.981 188.769 176.981 188.769C176.981 188.769 176.981 188.769 176.981 188.769C176.981 188.769 176.981 188.769 176.981 188.769L176.981 188.769C176.981 188.769 176.981 188.769 176.981 188.769C176.981 188.769 176.981 188.769 176.981 188.769C176.981 188.769 176.981 188.769 176.981 188.769C176.981 188.769 176.981 188.769 176.981 188.769C176.981 188.769 176.981 188.769 176.981 188.769C176.981 188.769 176.981 188.769 176.981 188.769C176.981 188.769 176.981 188.769 176.981 188.769L176.981 188.769L176.981 188.769C176.981 188.769 176.981 188.769 176.981 188.769C176.981 188.769 176.981 188.769 176.981 188.769L176.981 188.769L176.981 188.769C176.981 188.769 176.981 188.769 176.981 188.769L176.981 188.769L176.981 188.769L176.981 188.769C176.981 188.769 176.981 188.769 176.981 188.769C176.981 188.769 176.981 188.769 176.981 188.769C176.981 188.769 176.981 188.769 176.981 188.769C176.981 188.769 176.981 188.769 176.981 188.769C176.981 188.769 176.981 188.769 176.981 188.769C176.092 186.978 175.202 185.187 176.092 186.978ZM175.485 185.072C175.067 185.205 174.675 185.407 174.444 185.534C174.315 185.605 174.206 185.669 174.127 185.716C174.088 185.74 174.055 185.76 174.031 185.775C174.019 185.783 174.009 185.789 174.001 185.794C173.997 185.797 173.994 185.799 173.991 185.801C173.99 185.802 173.988 185.802 173.987 185.803C173.987 185.803 173.986 185.804 173.986 185.804C173.985 185.804 173.985 185.804 173.985 185.805C173.985 185.805 173.985 185.805 173.985 185.805C173.985 185.805 173.984 185.805 175.065 187.488C176.146 189.17 176.146 189.17 176.146 189.171C176.146 189.171 176.146 189.171 176.146 189.171C176.145 189.171 176.145 189.171 176.145 189.171C176.145 189.171 176.144 189.172 176.144 189.172C176.144 189.172 176.143 189.172 176.143 189.173C176.142 189.173 176.142 189.173 176.142 189.173C176.143 189.172 176.146 189.171 176.15 189.168C176.158 189.163 176.174 189.153 176.194 189.141C176.236 189.116 176.297 189.08 176.367 189.041C176.438 189.002 176.511 188.965 176.577 188.934C176.61 188.919 176.638 188.907 176.66 188.898C176.671 188.894 176.679 188.891 176.685 188.888C176.688 188.887 176.691 188.887 176.692 188.886C176.694 188.885 176.695 188.885 176.695 188.885L175.485 185.072ZM174.032 185.775C173.723 185.962 173.427 186.181 173.151 186.434L175.852 189.384C175.929 189.314 176.012 189.252 176.099 189.2L174.032 185.775ZM175.07 185.991C175.084 185.996 175.01 185.973 174.911 185.947C174.814 185.922 174.686 185.893 174.533 185.866C174.237 185.813 173.806 185.762 173.316 185.793C172.315 185.858 170.791 186.326 170.073 188.044L173.763 189.588C173.763 189.587 173.76 189.595 173.751 189.609C173.742 189.624 173.729 189.642 173.711 189.662C173.673 189.705 173.63 189.739 173.59 189.762C173.518 189.804 173.496 189.79 173.574 189.785C173.649 189.78 173.743 189.788 173.833 189.804C173.874 189.811 173.903 189.818 173.917 189.822C173.924 189.824 173.926 189.824 173.923 189.823C173.921 189.823 173.919 189.822 173.915 189.821C173.913 189.821 173.911 189.82 173.91 189.819C173.909 189.819 173.909 189.819 173.909 189.819C173.909 189.819 173.911 189.82 173.913 189.82C173.914 189.821 173.917 189.822 173.918 189.822C173.921 189.823 173.929 189.825 173.934 189.827L175.07 185.991ZM170.073 188.044C169.31 189.867 170.235 191.32 170.916 192.025C171.576 192.71 172.324 193.079 172.441 193.132L174.112 189.498C174.119 189.501 174.129 189.506 174.132 189.507C174.134 189.508 174.138 189.51 174.14 189.511C174.144 189.513 174.146 189.514 174.148 189.515C174.151 189.517 174.154 189.518 174.156 189.519C174.16 189.521 174.162 189.522 174.164 189.523C174.168 189.525 174.171 189.526 174.171 189.526C174.172 189.527 174.168 189.525 174.158 189.519C174.139 189.509 174.104 189.489 174.06 189.46C173.963 189.397 173.865 189.321 173.794 189.247C173.76 189.213 173.745 189.191 173.741 189.185C173.737 189.18 173.752 189.2 173.766 189.245C173.782 189.295 173.794 189.362 173.791 189.439C173.788 189.516 173.771 189.569 173.763 189.588L170.073 188.044ZM171.294 191.577C171.307 191.674 171.329 191.813 171.373 191.972L175.23 190.913C175.251 190.99 175.258 191.044 175.26 191.054L171.294 191.577ZM171.381 192.002C171.322 191.799 171.348 191.651 171.346 191.662C171.344 191.676 171.338 191.707 171.317 191.793C171.302 191.86 171.268 191.997 171.241 192.129C171.181 192.418 171.115 192.83 171.151 193.323C171.188 193.826 171.325 194.335 171.581 194.85L175.163 193.071C175.128 193 175.138 192.994 175.14 193.029C175.142 193.054 175.135 193.048 175.157 192.945C175.17 192.88 175.183 192.828 175.211 192.711C175.234 192.612 175.269 192.462 175.295 192.297C175.351 191.951 175.387 191.451 175.222 190.883L171.381 192.002ZM171.581 194.85C172.101 195.897 173.012 196.748 174.258 197.081C175.476 197.407 176.754 197.17 177.943 196.579L176.164 192.997C175.592 193.281 175.325 193.226 175.29 193.217C175.284 193.215 175.235 193.215 175.163 193.071L171.581 194.85ZM177.943 196.579L178.665 196.221L176.886 192.638L176.164 192.997L177.943 196.579ZM177.209 196.347C177.14 196.327 177.087 196.307 177.07 196.301C177.046 196.292 177.027 196.284 177.016 196.279C176.995 196.271 176.979 196.264 176.973 196.261C176.966 196.258 176.96 196.255 176.958 196.254C176.955 196.253 176.953 196.252 176.953 196.252C176.949 196.25 176.957 196.254 176.964 196.257C176.981 196.265 177.003 196.275 177.03 196.286C177.084 196.308 177.15 196.334 177.228 196.36C177.382 196.411 177.584 196.465 177.824 196.496C178.314 196.561 178.961 196.532 179.651 196.222L178.01 192.574C178.056 192.554 178.112 192.537 178.176 192.529C178.237 192.522 178.294 192.524 178.346 192.53C178.397 192.537 178.445 192.549 178.493 192.565C178.517 192.573 178.542 192.582 178.567 192.593C178.58 192.598 178.591 192.603 178.6 192.607C178.603 192.608 178.609 192.611 178.603 192.608C178.602 192.608 178.599 192.607 178.596 192.605C178.594 192.604 178.588 192.601 178.58 192.598C178.574 192.596 178.558 192.588 178.536 192.58C178.526 192.575 178.506 192.567 178.482 192.558C178.464 192.552 178.412 192.532 178.343 192.511L177.209 196.347ZM178.831 194.398C179.534 196.27 179.535 196.27 179.535 196.27C179.535 196.27 179.535 196.27 179.536 196.27C179.536 196.27 179.536 196.269 179.537 196.269C179.537 196.269 179.538 196.269 179.539 196.268C179.541 196.268 179.542 196.267 179.544 196.267C179.547 196.265 179.55 196.264 179.554 196.263C179.561 196.26 179.568 196.257 179.576 196.254C179.592 196.248 179.61 196.24 179.63 196.232C179.67 196.215 179.718 196.194 179.775 196.168C179.888 196.116 180.036 196.044 180.22 195.944L178.324 192.422C178.207 192.485 178.134 192.52 178.102 192.535C178.086 192.542 178.081 192.544 178.085 192.542C178.087 192.542 178.092 192.54 178.099 192.537C178.102 192.535 178.106 192.534 178.111 192.532C178.114 192.531 178.116 192.53 178.119 192.529C178.12 192.528 178.122 192.528 178.123 192.527C178.124 192.527 178.124 192.527 178.125 192.527C178.125 192.526 178.126 192.526 178.126 192.526C178.126 192.526 178.127 192.526 178.127 192.526C178.127 192.526 178.127 192.526 178.831 194.398ZM180.162 195.974C180.871 195.622 181.318 195.111 181.582 194.661C181.711 194.441 181.797 194.237 181.853 194.071C181.882 193.987 181.904 193.91 181.921 193.841C181.929 193.806 181.938 193.77 181.946 193.731C181.949 193.713 181.954 193.685 181.96 193.652C181.962 193.638 181.967 193.607 181.971 193.568C181.973 193.55 181.977 193.513 181.981 193.467C181.981 193.462 181.995 193.301 181.971 193.103L177.998 193.567C177.984 193.445 177.985 193.349 177.985 193.312C177.986 193.265 177.988 193.226 177.989 193.203C177.992 193.157 177.996 193.12 177.998 193.102C178.003 193.064 178.008 193.035 178.01 193.021C178.015 192.99 178.019 192.966 178.022 192.953C178.028 192.923 178.034 192.898 178.038 192.88C178.047 192.842 178.057 192.81 178.066 192.783C178.084 192.73 178.106 192.68 178.134 192.634C178.194 192.531 178.284 192.441 178.383 192.392L180.162 195.974ZM180.874 195.126L181.596 194.767L179.817 191.185L179.095 191.543L180.874 195.126ZM181.596 194.767C182.785 194.177 183.747 193.302 184.224 192.135C184.712 190.941 184.584 189.7 184.064 188.653L180.481 190.432C180.553 190.576 180.524 190.615 180.521 190.622C180.507 190.655 180.39 190.9 179.817 191.185L181.596 194.767ZM184.068 188.661C183.815 188.145 183.494 187.727 183.116 187.391C182.746 187.063 182.377 186.865 182.111 186.738C181.989 186.679 181.859 186.623 181.796 186.595C181.715 186.559 181.686 186.545 181.674 186.538C181.662 186.532 181.796 186.601 181.921 186.77L178.709 189.153C179.061 189.628 179.481 189.902 179.79 190.066C179.937 190.145 180.076 190.208 180.169 190.249C180.279 190.298 180.328 190.319 180.387 190.347C180.481 190.392 180.481 190.401 180.461 190.384C180.433 190.359 180.443 190.354 180.477 190.423L184.068 188.661Z" fill="black" mask="url(#path-5-outside-1_1521_12984)"/>
<path d="M153.82 175.754C159.987 188.254 171.32 220.954 167.32 247.754" stroke="black" stroke-width="2"/>
<rect x="110.371" y="223.698" width="23.2471" height="6.75" rx="3" transform="rotate(-33.7812 110.371 223.698)" fill="#8F3D2C" stroke="black" stroke-width="2"/>
<rect x="1.38719" y="-0.275145" width="15.6985" height="6.75" rx="3" transform="matrix(-0.831167 -0.556023 -0.556023 0.831167 203.549 214.773)" fill="#8F3D2C" stroke="black" stroke-width="2"/>
<path d="M147.82 180.504C154.82 201.754 159.267 218.798 160.07 240.754C147.32 243.004 115.32 238.504 108.32 237.254" stroke="black" stroke-width="2" stroke-linecap="round" stroke-dasharray="4 4"/>
<path d="M162.32 179.004C170.306 200.363 174.57 216.055 177.57 239.004C182.845 237.753 191.987 233.728 197.981 229.581" stroke="black" stroke-width="2" stroke-linecap="round" stroke-dasharray="4 4"/>
<path d="M211.707 211.175C209.206 198.676 194.373 176.008 180.956 166.425C171.705 167.176 179.985 167.3 171.986 167.05C185.186 178.85 193.82 201.629 198.956 216.05C212.456 219.133 210.456 221.175 211.707 211.175Z" fill="#97674B" stroke="black" stroke-width="2"/>
<path d="M177.041 168.638L176.42 167.854L177.988 166.613L178.609 167.397L177.041 168.638ZM199.51 206.447C199.535 206.999 199.108 207.466 198.557 207.491C198.005 207.517 197.537 207.09 197.512 206.538L199.51 206.447ZM197.328 204.83C197.239 204.285 197.609 203.771 198.154 203.683C198.7 203.594 199.213 203.964 199.302 204.509L197.328 204.83ZM198.396 200.797C198.561 201.324 198.268 201.885 197.741 202.051C197.214 202.216 196.653 201.923 196.487 201.396L198.396 200.797ZM195.258 198.023C195.049 197.511 195.294 196.927 195.805 196.718C196.316 196.509 196.9 196.754 197.109 197.265L195.258 198.023ZM195.589 193.851C195.828 194.35 195.617 194.947 195.118 195.185C194.62 195.423 194.023 195.212 193.785 194.714L195.589 193.851ZM192.145 191.468C191.886 190.98 192.072 190.375 192.559 190.116C193.047 189.857 193.653 190.042 193.912 190.53L192.145 191.468ZM192.115 187.281C192.39 187.76 192.224 188.371 191.745 188.646C191.266 188.921 190.655 188.756 190.38 188.277L192.115 187.281ZM188.518 185.136C188.23 184.664 188.379 184.049 188.85 183.761C189.321 183.473 189.937 183.622 190.225 184.093L188.518 185.136ZM188.257 180.957C188.556 181.421 188.422 182.04 187.957 182.339C187.493 182.638 186.874 182.504 186.575 182.039L188.257 180.957ZM184.563 178.985C184.255 178.527 184.376 177.906 184.834 177.597C185.292 177.288 185.913 177.41 186.222 177.868L184.563 178.985ZM184.124 174.819C184.441 175.271 184.333 175.894 183.881 176.212C183.429 176.53 182.805 176.421 182.488 175.969L184.124 174.819ZM180.354 172.997C180.027 172.551 180.123 171.926 180.569 171.599C181.014 171.272 181.64 171.369 181.967 171.814L180.354 172.997ZM179.744 168.852C180.081 169.29 179.999 169.918 179.561 170.255C179.123 170.591 178.496 170.509 178.159 170.072L179.744 168.852ZM197.512 206.538C197.488 206.001 197.426 205.431 197.328 204.83L199.302 204.509C199.411 205.175 199.482 205.822 199.51 206.447L197.512 206.538ZM196.487 201.396C196.149 200.317 195.735 199.188 195.258 198.023L197.109 197.265C197.604 198.473 198.037 199.655 198.396 200.797L196.487 201.396ZM193.785 194.714C193.274 193.645 192.725 192.561 192.145 191.468L193.912 190.53C194.503 191.645 195.066 192.755 195.589 193.851L193.785 194.714ZM190.38 188.277C189.777 187.226 189.154 186.176 188.518 185.136L190.225 184.093C190.869 185.148 191.501 186.213 192.115 187.281L190.38 188.277ZM186.575 182.039C185.906 181 185.233 179.979 184.563 178.985L186.222 177.868C186.899 178.873 187.58 179.905 188.257 180.957L186.575 182.039ZM182.488 175.969C181.757 174.929 181.042 173.935 180.354 172.997L181.967 171.814C182.662 172.763 183.385 173.768 184.124 174.819L182.488 175.969ZM178.159 170.072C177.769 169.564 177.395 169.085 177.041 168.638L178.609 167.397C178.969 167.852 179.349 168.338 179.744 168.852L178.159 170.072Z" fill="black"/>
<path d="M195.236 204.424C199.427 205.549 205.583 206.049 209.458 203.799C212.209 205.049 214.708 213.799 213.707 216.299C211.333 219.174 204.803 219.799 199.707 218.799C198.582 214.799 196.582 209.049 195.236 204.424Z" fill="#8F3D2C" stroke="black" stroke-width="2"/>
<path fill-rule="evenodd" clip-rule="evenodd" d="M161.638 166.799C158.226 169.808 156.052 174.154 155.887 178.974L155.851 180.052L182.82 165.379C182.847 165.207 182.86 165.037 182.861 164.869C176.617 166.017 169.545 166.686 161.638 166.799Z" fill="#8F3D2C"/>
<path d="M155.887 178.974L154.888 178.939V178.939L155.887 178.974ZM161.638 166.799L161.624 165.8C161.385 165.803 161.156 165.892 160.977 166.049L161.638 166.799ZM155.851 180.052L154.851 180.018C154.839 180.377 155.02 180.714 155.325 180.903C155.63 181.091 156.013 181.102 156.328 180.93L155.851 180.052ZM182.82 165.379L183.298 166.258C183.572 166.109 183.761 165.841 183.808 165.533L182.82 165.379ZM182.861 164.869L183.861 164.876C183.863 164.578 183.732 164.294 183.504 164.103C183.276 163.911 182.974 163.832 182.681 163.886L182.861 164.869ZM156.887 179.008C157.042 174.472 159.087 170.382 162.299 167.549L160.977 166.049C157.365 169.234 155.062 173.836 154.888 178.939L156.887 179.008ZM156.85 180.086L156.887 179.008L154.888 178.939L154.851 180.018L156.85 180.086ZM182.342 164.501L155.373 179.174L156.328 180.93L183.298 166.258L182.342 164.501ZM181.861 164.862C181.861 164.981 181.851 165.103 181.832 165.226L183.808 165.533C183.842 165.312 183.86 165.093 183.861 164.876L181.861 164.862ZM182.681 163.886C176.5 165.022 169.484 165.687 161.624 165.8L161.652 167.799C169.606 167.685 176.735 167.012 183.042 165.853L182.681 163.886Z" fill="black"/>
<path fill-rule="evenodd" clip-rule="evenodd" d="M102.295 165.193C102.314 165.502 102.363 165.815 102.446 166.129L154.821 180.052L154.725 178.9C154.316 174.02 151.861 169.728 148.211 166.892C147.599 166.898 146.987 166.905 146.376 166.912C131.042 167.084 115.902 167.253 102.295 165.193Z" fill="#8F3D2C"/>
<path d="M102.295 165.193L102.445 164.205C102.146 164.159 101.843 164.252 101.62 164.455C101.397 164.659 101.278 164.953 101.297 165.254L102.295 165.193ZM102.446 166.129L101.479 166.384C101.571 166.732 101.842 167.003 102.189 167.095L102.446 166.129ZM154.821 180.052L154.564 181.018C154.878 181.102 155.214 181.027 155.463 180.818C155.712 180.609 155.845 180.292 155.817 179.968L154.821 180.052ZM154.725 178.9L155.721 178.817V178.817L154.725 178.9ZM148.211 166.892L148.824 166.102C148.646 165.963 148.426 165.889 148.2 165.892L148.211 166.892ZM146.376 166.912L146.387 167.912L146.376 166.912ZM101.297 165.254C101.32 165.628 101.38 166.006 101.479 166.384L103.413 165.873C103.347 165.623 103.308 165.375 103.293 165.133L101.297 165.254ZM102.189 167.095L154.564 181.018L155.078 179.085L102.703 165.162L102.189 167.095ZM155.817 179.968L155.721 178.817L153.728 178.984L153.824 180.135L155.817 179.968ZM155.721 178.817C155.288 173.649 152.688 169.105 148.824 166.102L147.597 167.681C151.033 170.352 153.343 174.39 153.728 178.984L155.721 178.817ZM148.2 165.892C147.588 165.898 146.976 165.905 146.365 165.912L146.387 167.912C146.998 167.905 147.61 167.898 148.221 167.891L148.2 165.892ZM146.365 165.912C131.011 166.084 115.957 166.25 102.445 164.205L102.145 166.182C115.848 168.256 131.072 168.083 146.387 167.912L146.365 165.912Z" fill="black"/>
<rect x="115.905" y="245.781" width="6.95605" height="11.9246" rx="3.47803" transform="rotate(10.0972 115.905 245.781)" fill="#8F3D2C" stroke="black" stroke-width="2"/>
<rect x="142.101" y="247.805" width="6.95605" height="11.2783" rx="3.47803" transform="rotate(4.03336 142.101 247.805)" fill="#8F3D2C" stroke="black" stroke-width="2"/>
<rect x="183.003" y="242.553" width="6.36368" height="11.0547" rx="3.18184" transform="rotate(-10.4514 183.003 242.553)" fill="#8F3D2C" stroke="black" stroke-width="2"/>
<rect x="161.689" y="247.812" width="11.625" height="10.7574" rx="1" transform="rotate(-7.51134 161.689 247.812)" fill="#8F3D2C" stroke="black" stroke-width="2"/>
<path d="M60.9561 209.049C63.457 196.55 88.7894 175.632 102.206 166.049C111.457 166.8 116.958 167.3 124.957 167.05C111.757 178.85 98.957 200.549 100.456 215.049C86.9561 218.132 62.2074 219.049 60.9561 209.049Z" fill="#97674B" stroke="black" stroke-width="2"/>
<path d="M115.546 169.691L116.234 168.965L114.782 167.59L114.094 168.316L115.546 169.691ZM89.8293 205.37C89.7556 205.918 90.1396 206.421 90.6869 206.495C91.2342 206.569 91.7377 206.185 91.8114 205.637L89.8293 205.37ZM92.1454 203.953C92.2819 203.418 91.9588 202.873 91.4236 202.736C90.8885 202.6 90.344 202.923 90.2074 203.458L92.1454 203.953ZM91.4379 199.841C91.2268 200.351 91.4693 200.936 91.9796 201.147C92.4899 201.359 93.0748 201.116 93.286 200.606L91.4379 199.841ZM94.8081 197.354C95.0616 196.863 94.8693 196.26 94.3787 196.007C93.888 195.753 93.2847 195.945 93.0312 196.436L94.8081 197.354ZM94.8459 193.17C94.5648 193.645 94.7222 194.258 95.1975 194.54C95.6729 194.821 96.2862 194.663 96.5673 194.188L94.8459 193.17ZM98.4873 191.1C98.7883 190.637 98.6569 190.017 98.1938 189.716C97.7307 189.415 97.1113 189.547 96.8104 190.01L98.4873 191.1ZM98.8869 186.932C98.5708 187.384 98.6816 188.008 99.1345 188.324C99.5873 188.64 100.211 188.529 100.527 188.076L98.8869 186.932ZM102.659 185.112C102.987 184.668 102.893 184.042 102.449 183.713C102.005 183.385 101.379 183.479 101.051 183.923L102.659 185.112ZM103.287 180.973C102.949 181.409 103.028 182.037 103.464 182.376C103.9 182.714 104.529 182.635 104.867 182.199L103.287 180.973ZM107.141 179.334C107.488 178.905 107.423 178.276 106.994 177.928C106.565 177.58 105.935 177.646 105.587 178.075L107.141 179.334ZM107.946 175.223C107.59 175.645 107.643 176.276 108.065 176.632C108.487 176.989 109.118 176.935 109.474 176.513L107.946 175.223ZM111.862 173.741C112.227 173.326 112.186 172.694 111.771 172.329C111.357 171.965 110.725 172.005 110.36 172.42L111.862 173.741ZM112.835 169.666C112.461 170.073 112.487 170.705 112.893 171.079C113.3 171.453 113.933 171.427 114.306 171.021L112.835 169.666ZM91.8114 205.637C91.8831 205.104 91.9949 204.542 92.1454 203.953L90.2074 203.458C90.0407 204.112 89.9127 204.751 89.8293 205.37L91.8114 205.637ZM93.286 200.606C93.7184 199.561 94.2299 198.473 94.8081 197.354L93.0312 196.436C92.4318 197.596 91.8955 198.735 91.4379 199.841L93.286 200.606ZM96.5673 194.188C97.1701 193.169 97.8132 192.137 98.4873 191.1L96.8104 190.01C96.1227 191.068 95.4646 192.124 94.8459 193.17L96.5673 194.188ZM100.527 188.076C101.221 187.083 101.934 186.092 102.659 185.112L101.051 183.923C100.316 184.917 99.5919 185.922 98.8869 186.932L100.527 188.076ZM104.867 182.199C105.625 181.223 106.386 180.265 107.141 179.334L105.587 178.075C104.824 179.016 104.054 179.985 103.287 180.973L104.867 182.199ZM109.474 176.513C110.294 175.542 111.094 174.614 111.862 173.741L110.36 172.42C109.583 173.304 108.775 174.242 107.946 175.223L109.474 176.513ZM114.306 171.021C114.74 170.55 115.154 170.106 115.546 169.691L114.094 168.316C113.695 168.738 113.274 169.189 112.835 169.666L114.306 171.021Z" fill="black"/>
<path d="M101.158 205.185C90.3582 208.585 72.9576 201.632 65.7076 197.799C62.957 199.049 57.9568 207.049 58.9576 209.549C65.3576 221.549 89.5749 219.622 100.658 217.122C100.408 213.122 99.9077 209.435 101.158 205.185Z" fill="#8F3D2C" stroke="black" stroke-width="2" stroke-linejoin="round"/>
</svg>
