<svg width="361" height="340" viewBox="0 0 361 340" fill="none" xmlns="http://www.w3.org/2000/svg">
<path fill-rule="evenodd" clip-rule="evenodd" d="M198.243 214.192C197.675 217.383 195.898 219.992 194.323 221.791C189.823 226.934 173.823 233.791 166.823 226.791C165.106 225.075 164.184 223.113 163.884 221.147C163.542 221.243 163.187 221.294 162.822 221.294C161.488 221.294 160.276 220.614 159.379 219.507C157.88 220.244 156.335 219.346 155.323 214.791C154.656 211.791 155.617 205.29 159.323 200.292C165.994 191.294 182.323 190.793 192.323 200.293C192.918 200.858 193.461 201.418 193.957 201.972C189.151 191.149 182.164 180.689 176.901 172.81C175.371 170.519 173.987 168.447 172.844 166.647C171.126 166.655 169.288 167.813 167.319 169.055C165.067 170.474 162.643 172.002 160.028 172.044C142.3 172.335 110.719 167.396 103.094 165.646C102.843 166.379 102.146 168.028 101.148 170.384C95.7021 183.25 81.3206 217.224 82.0523 238.554C82.1787 242.237 84.7593 245.238 88.2869 246.305C106.978 251.955 144.737 257.583 166.653 254.169C195.957 249.606 203.057 233.799 198.243 214.192Z" fill="#F9732A"/>
<path d="M198.243 214.192L199.214 213.953L197.258 214.016L198.243 214.192ZM194.323 221.791L193.57 221.133L194.323 221.791ZM166.823 226.791L167.53 226.084L166.823 226.791ZM163.884 221.147L164.873 220.996L164.702 219.878L163.614 220.184L163.884 221.147ZM159.379 219.507L160.156 218.878L159.654 218.258L158.938 218.61L159.379 219.507ZM155.323 214.791L154.347 215.008L155.323 214.791ZM159.323 200.292L158.52 199.696L159.323 200.292ZM192.323 200.293L193.012 199.568L192.323 200.293ZM193.957 201.972L193.211 202.639L194.871 201.566L193.957 201.972ZM176.901 172.81L176.07 173.365V173.365L176.901 172.81ZM172.844 166.647L173.689 166.111L173.392 165.644L172.839 165.647L172.844 166.647ZM167.319 169.055L167.852 169.901H167.852L167.319 169.055ZM160.028 172.044L160.045 173.044L160.028 172.044ZM103.094 165.646L103.317 164.672L102.439 164.47L102.147 165.323L103.094 165.646ZM101.148 170.384L102.069 170.774L101.148 170.384ZM82.0523 238.554L81.0529 238.589L82.0523 238.554ZM88.2869 246.305L87.9976 247.262H87.9976L88.2869 246.305ZM166.653 254.169L166.807 255.158L166.653 254.169ZM197.258 214.016C196.736 216.954 195.088 219.399 193.57 221.133L195.076 222.45C196.708 220.584 198.614 217.812 199.227 214.367L197.258 214.016ZM193.57 221.133C191.491 223.51 186.565 226.431 181.248 227.88C175.891 229.34 170.629 229.183 167.53 226.084L166.116 227.498C170.018 231.4 176.255 231.314 181.774 229.81C187.331 228.295 192.655 225.216 195.076 222.45L193.57 221.133ZM167.53 226.084C165.963 224.517 165.14 222.75 164.873 220.996L162.896 221.298C163.228 223.476 164.25 225.632 166.116 227.498L167.53 226.084ZM163.614 220.184C163.357 220.256 163.093 220.294 162.822 220.294V222.294C163.28 222.294 163.726 222.23 164.155 222.11L163.614 220.184ZM162.822 220.294C161.849 220.294 160.904 219.801 160.156 218.878L158.602 220.137C159.648 221.428 161.127 222.294 162.822 222.294V220.294ZM158.938 218.61C158.696 218.729 158.521 218.749 158.394 218.731C158.274 218.715 158.101 218.652 157.877 218.427C157.385 217.935 156.796 216.809 156.299 214.574L154.347 215.008C154.863 217.329 155.552 218.929 156.461 219.84C156.937 220.317 157.494 220.625 158.118 220.712C158.733 220.798 159.314 220.654 159.82 220.405L158.938 218.61ZM156.299 214.574C156.01 213.273 156.057 211.061 156.657 208.521C157.252 206.002 158.369 203.258 160.126 200.887L158.52 199.696C156.571 202.324 155.355 205.33 154.71 208.061C154.07 210.772 153.969 213.31 154.347 215.008L156.299 214.574ZM160.126 200.887C163.23 196.701 168.647 194.416 174.585 194.356C180.511 194.296 186.837 196.461 191.634 201.018L193.012 199.568C187.809 194.626 180.97 192.291 174.565 192.356C168.17 192.42 162.087 194.884 158.52 199.696L160.126 200.887ZM191.634 201.018C192.211 201.566 192.735 202.106 193.211 202.639L194.702 201.305C194.188 200.73 193.625 200.151 193.012 199.568L191.634 201.018ZM194.871 201.566C190.024 190.653 182.989 180.123 177.733 172.254L176.07 173.365C181.34 181.256 188.277 191.646 193.043 202.378L194.871 201.566ZM177.733 172.254C176.201 169.961 174.824 167.899 173.689 166.111L172 167.183C173.15 168.994 174.542 171.077 176.07 173.365L177.733 172.254ZM172.839 165.647C171.765 165.652 170.719 166.014 169.74 166.488C168.76 166.963 167.759 167.595 166.785 168.209L167.852 169.901C168.848 169.273 169.751 168.705 170.612 168.288C171.473 167.871 172.205 167.65 172.849 167.647L172.839 165.647ZM166.785 168.209C164.474 169.666 162.295 171.007 160.012 171.045L160.045 173.044C162.991 172.996 165.66 171.282 167.852 169.901L166.785 168.209ZM160.012 171.045C142.392 171.334 110.897 166.411 103.317 164.672L102.87 166.621C110.542 168.382 142.208 173.337 160.045 173.044L160.012 171.045ZM102.147 165.323C101.912 166.012 101.236 167.613 100.227 169.994L102.069 170.774C103.056 168.443 103.775 166.747 104.04 165.97L102.147 165.323ZM100.227 169.994C97.5043 176.427 92.5324 188.172 88.3333 200.984C84.1441 213.766 80.6806 227.735 81.0529 238.589L83.0517 238.52C82.6923 228.043 86.0537 214.361 90.2339 201.607C94.4041 188.882 99.3461 177.207 102.069 170.774L100.227 169.994ZM81.0529 238.589C81.1956 242.749 84.1098 246.087 87.9976 247.262L88.5762 245.347C85.4088 244.39 83.1617 241.725 83.0517 238.52L81.0529 238.589ZM87.9976 247.262C97.4145 250.108 111.588 252.938 126.145 254.629C140.691 256.319 155.715 256.885 166.807 255.158L166.499 253.181C155.675 254.867 140.862 254.326 126.376 252.642C111.902 250.961 97.8507 248.151 88.5762 245.347L87.9976 247.262ZM166.807 255.158C181.599 252.854 191.01 247.679 196.064 240.392C201.124 233.096 201.659 223.913 199.214 213.953L197.272 214.43C199.641 224.078 199.033 232.602 194.42 239.252C189.802 245.911 181.012 250.921 166.499 253.181L166.807 255.158Z" fill="black"/>
<path fill-rule="evenodd" clip-rule="evenodd" d="M198.095 213.271C201.345 230.896 197.22 242.646 166.72 247.396C145.958 250.63 111.113 247.576 91.635 242.795C86.1258 241.442 82.3522 236.751 83.0223 231.118C85.3071 211.909 97.71 175.588 104.638 165.778C117.384 165.687 132.116 167.736 143.605 169.334C150.842 170.34 156.793 171.168 160.152 171.17C162.826 171.171 164.159 170.407 165.79 169.472C167.404 168.547 169.31 167.455 173.095 166.771C179.939 175.389 190.18 191.585 195.293 204.27C194.411 202.98 193.278 201.652 191.847 200.293C181.847 190.793 165.518 191.294 158.847 200.292C155.142 205.29 154.842 211.766 155.509 214.766C156.534 219.379 157.911 220.485 159.234 219.881C160.088 220.765 161.17 221.294 162.347 221.294C162.711 221.294 163.066 221.243 163.409 221.147C163.708 223.113 164.631 225.075 166.347 226.791C173.347 233.791 189.347 226.934 193.847 221.791C195.689 219.686 197.808 216.474 197.945 212.519C197.999 212.773 198.049 213.024 198.095 213.271Z" fill="white"/>
<path d="M166.72 247.396L166.566 246.408L166.72 247.396ZM198.095 213.271L197.111 213.453V213.453L198.095 213.271ZM91.635 242.795L91.8734 241.824H91.8734L91.635 242.795ZM83.0223 231.118L82.0293 230.999L83.0223 231.118ZM104.638 165.778L104.631 164.778L104.117 164.782L103.821 165.201L104.638 165.778ZM143.605 169.334L143.743 168.343L143.605 169.334ZM160.152 171.17L160.153 170.17L160.152 171.17ZM165.79 169.472L166.287 170.34V170.34L165.79 169.472ZM173.095 166.771L173.878 166.15L173.506 165.681L172.917 165.787L173.095 166.771ZM195.293 204.27L194.468 204.834L196.221 203.896L195.293 204.27ZM191.847 200.293L191.159 201.018L191.847 200.293ZM158.847 200.292L159.651 200.887L158.847 200.292ZM155.509 214.766L154.533 214.983L155.509 214.766ZM159.234 219.881L159.954 219.187L159.462 218.678L158.819 218.972L159.234 219.881ZM163.409 221.147L164.397 220.996L164.227 219.878L163.138 220.184L163.409 221.147ZM166.347 226.791L167.055 226.084L166.347 226.791ZM193.847 221.791L193.095 221.133L193.847 221.791ZM197.945 212.519L198.923 212.31L196.946 212.484L197.945 212.519ZM166.874 248.385C182.186 246 191.173 241.824 195.854 235.774C200.563 229.689 200.716 221.974 199.078 213.09L197.111 213.453C198.723 222.194 198.439 229.167 194.273 234.55C190.079 239.969 181.753 244.043 166.566 246.408L166.874 248.385ZM91.3966 243.766C110.966 248.57 145.948 251.644 166.874 248.385L166.566 246.408C145.968 249.616 111.26 246.583 91.8734 241.824L91.3966 243.766ZM82.0293 230.999C81.291 237.206 85.471 242.311 91.3966 243.766L91.8734 241.824C86.7805 240.573 83.4135 236.295 84.0153 231.236L82.0293 230.999ZM103.821 165.201C102.025 167.744 99.9171 171.936 97.7395 177.032C95.554 182.146 93.2734 188.232 91.1406 194.606C86.8804 207.337 83.1836 221.295 82.0293 230.999L84.0153 231.236C85.1458 221.732 88.7928 207.925 93.0373 195.241C95.1568 188.907 97.4187 182.873 99.5787 177.818C101.747 172.744 103.787 168.716 105.455 166.355L103.821 165.201ZM143.743 168.343C132.27 166.748 117.463 164.686 104.631 164.778L104.645 166.778C117.305 166.687 131.961 168.724 143.468 170.324L143.743 168.343ZM160.153 170.17C156.882 170.168 151.021 169.356 143.743 168.343L143.468 170.324C150.663 171.325 156.705 172.168 160.152 172.17L160.153 170.17ZM165.293 168.604C163.704 169.515 162.559 170.171 160.153 170.17L160.152 172.17C163.094 172.171 164.614 171.299 166.287 170.34L165.293 168.604ZM172.917 165.787C168.971 166.5 166.952 167.654 165.293 168.604L166.287 170.34C167.856 169.441 169.648 168.41 173.272 167.756L172.917 165.787ZM196.221 203.896C191.064 191.103 180.767 174.824 173.878 166.15L172.312 167.393C179.11 175.954 189.296 192.068 194.366 204.644L196.221 203.896ZM191.159 201.018C192.545 202.335 193.63 203.61 194.468 204.834L196.119 203.705C195.192 202.35 194.011 200.969 192.536 199.568L191.159 201.018ZM159.651 200.887C162.754 196.701 168.171 194.416 174.109 194.356C180.036 194.296 186.361 196.461 191.159 201.018L192.536 199.568C187.334 194.626 180.495 192.291 174.089 192.356C167.695 192.42 161.612 194.884 158.044 199.696L159.651 200.887ZM156.485 214.549C155.869 211.776 156.149 205.61 159.651 200.887L158.044 199.696C154.134 204.97 153.816 211.756 154.533 214.983L156.485 214.549ZM158.819 218.972C158.66 219.044 158.568 219.039 158.503 219.021C158.426 219 158.262 218.925 158.033 218.646C157.55 218.057 156.99 216.82 156.485 214.549L154.533 214.983C155.053 217.325 155.694 218.947 156.486 219.914C156.895 220.413 157.388 220.789 157.974 220.95C158.571 221.114 159.147 221.021 159.65 220.791L158.819 218.972ZM162.347 220.294C161.486 220.294 160.653 219.91 159.954 219.187L158.515 220.576C159.524 221.621 160.854 222.294 162.347 222.294V220.294ZM163.138 220.184C162.882 220.256 162.618 220.294 162.347 220.294V222.294C162.805 222.294 163.251 222.23 163.679 222.11L163.138 220.184ZM167.055 226.084C165.487 224.517 164.665 222.75 164.397 220.996L162.42 221.298C162.752 223.476 163.774 225.632 165.64 227.498L167.055 226.084ZM193.095 221.133C191.015 223.51 186.09 226.431 180.772 227.88C175.415 229.34 170.153 229.183 167.055 226.084L165.64 227.498C169.542 231.4 175.78 231.314 181.298 229.81C186.855 228.295 192.18 225.216 194.6 222.45L193.095 221.133ZM196.946 212.484C196.82 216.103 194.874 219.1 193.095 221.133L194.6 222.45C196.505 220.273 198.796 216.845 198.944 212.553L196.946 212.484ZM199.078 213.09C199.031 212.834 198.979 212.574 198.923 212.31L196.967 212.727C197.019 212.973 197.067 213.215 197.111 213.453L199.078 213.09Z" fill="black"/>
<path d="M97.3892 239.985C101.361 244.701 137.136 244.182 157.992 243.19C160.273 243.082 161.979 241.075 161.744 238.804L160.318 224.978L150.561 213.896L157.174 194.487L154.75 170.987L154.342 167.046C149.298 167.179 127.407 167.484 120.226 167.19C96.1658 198.468 92.2193 233.845 97.3892 239.985Z" fill="#686874" stroke="black" stroke-width="2"/>
<path fill-rule="evenodd" clip-rule="evenodd" d="M194.303 229.661C194.507 229.211 194.718 228.744 194.949 228.258C196.346 225.322 197.418 221.691 197.373 217.07C196.559 218.97 195.394 220.568 194.324 221.791C190.219 226.482 176.548 232.599 168.865 228.327L169.911 237.418C170.175 239.718 172.342 241.319 174.608 240.849C190.753 237.507 192.079 234.576 194.303 229.661ZM165.091 195.536C173.003 191.573 184.567 192.924 192.324 200.293C192.92 200.86 193.465 201.421 193.961 201.976C190.218 192.752 182.946 181.104 170.027 166.238C167.376 166.529 163.741 166.784 161.73 166.769L162.16 170.067L165.091 195.536Z" fill="#686874"/>
<path d="M194.949 228.258L195.852 228.688H195.852L194.949 228.258ZM194.303 229.661L193.392 229.249L194.303 229.661ZM197.373 217.07L198.373 217.06C198.368 216.587 198.033 216.182 197.569 216.089C197.105 215.996 196.64 216.241 196.454 216.676L197.373 217.07ZM194.324 221.791L195.076 222.45L194.324 221.791ZM168.865 228.327L169.351 227.453C169.023 227.271 168.621 227.287 168.309 227.495C167.997 227.703 167.828 228.069 167.871 228.441L168.865 228.327ZM169.911 237.418L168.917 237.533H168.917L169.911 237.418ZM174.608 240.849L174.811 241.829L174.608 240.849ZM192.324 200.293L191.635 201.018L192.324 200.293ZM165.091 195.536L164.098 195.65C164.135 195.975 164.328 196.26 164.615 196.415C164.902 196.571 165.247 196.576 165.539 196.43L165.091 195.536ZM193.961 201.976L193.216 202.643C193.54 203.005 194.078 203.082 194.491 202.825C194.903 202.568 195.071 202.051 194.888 201.6L193.961 201.976ZM170.027 166.238L170.782 165.582C170.567 165.334 170.244 165.208 169.918 165.244L170.027 166.238ZM161.73 166.769L161.738 165.769C161.449 165.767 161.173 165.89 160.982 166.107C160.79 166.323 160.701 166.612 160.739 166.899L161.73 166.769ZM162.16 170.067L163.154 169.953C163.153 169.948 163.153 169.943 163.152 169.938L162.16 170.067ZM194.046 227.828C193.81 228.324 193.595 228.8 193.392 229.249L195.214 230.074C195.418 229.622 195.626 229.163 195.852 228.688L194.046 227.828ZM196.373 217.08C196.416 221.53 195.387 225.011 194.046 227.828L195.852 228.688C197.306 225.633 198.42 221.852 198.373 217.06L196.373 217.08ZM195.076 222.45C196.191 221.176 197.424 219.49 198.292 217.464L196.454 216.676C195.694 218.45 194.598 219.959 193.571 221.133L195.076 222.45ZM168.379 229.201C172.59 231.543 178.271 230.98 183.244 229.372C188.236 227.758 192.864 224.978 195.076 222.45L193.571 221.133C191.679 223.295 187.419 225.92 182.629 227.469C177.819 229.024 172.822 229.383 169.351 227.453L168.379 229.201ZM170.904 237.304L169.858 228.212L167.871 228.441L168.917 237.533L170.904 237.304ZM174.406 239.87C172.727 240.218 171.103 239.033 170.904 237.304L168.917 237.533C169.248 240.403 171.956 242.42 174.811 241.829L174.406 239.87ZM193.392 229.249C192.284 231.697 191.492 233.421 189.118 235.015C186.664 236.663 182.464 238.202 174.406 239.87L174.811 241.829C182.897 240.154 187.432 238.556 190.233 236.675C193.115 234.74 194.098 232.54 195.214 230.074L193.392 229.249ZM193.013 199.568C184.961 191.919 172.944 190.484 164.643 194.642L165.539 196.43C173.062 192.661 184.174 193.93 191.635 201.018L193.013 199.568ZM194.707 201.31C194.191 200.733 193.627 200.152 193.013 199.568L191.635 201.018C192.213 201.567 192.739 202.109 193.216 202.643L194.707 201.31ZM169.273 166.894C182.15 181.712 189.347 193.266 193.035 202.352L194.888 201.6C191.088 192.238 183.743 180.495 170.782 165.582L169.273 166.894ZM161.723 167.769C163.79 167.785 167.469 167.524 170.136 167.232L169.918 165.244C167.283 165.533 163.692 165.784 161.738 165.769L161.723 167.769ZM163.152 169.938L162.722 166.64L160.739 166.899L161.169 170.196L163.152 169.938ZM166.085 195.422L163.154 169.953L161.167 170.181L164.098 195.65L166.085 195.422Z" fill="black"/>
<path d="M183.594 172.107C202.495 178.042 224.664 183.847 227.73 188.269C221.105 189.582 212.469 192.232 211.969 206.732C211.842 210.421 212.583 213.033 213.737 214.887C215.662 215.018 220.609 214.841 220.951 215.61C221.224 216.225 222.317 218.485 222.829 219.538C219.755 220.392 210.501 218.238 205.363 216.955C202.516 216.244 200.254 216.166 197.681 215.721C198.423 210.475 195.899 204.388 192.831 200.577C187.09 187.738 179.358 178.075 175.981 174.51C175.856 172.26 175.84 171.259 175.844 170.357C177.941 170.62 181.258 171.374 183.594 172.107Z" fill="#686874"/>
<path d="M222.829 219.538C219.755 220.392 210.501 218.238 205.363 216.955C202.516 216.244 200.254 216.166 197.681 215.721C198.423 210.475 195.899 204.388 192.831 200.577C187.09 187.738 179.358 178.075 175.981 174.51C175.856 172.26 175.84 171.259 175.844 170.357C177.941 170.62 181.258 171.374 183.594 172.107C202.495 178.042 224.664 183.847 227.73 188.269C221.105 189.582 212.469 192.232 211.969 206.732C211.842 210.421 212.583 213.033 213.737 214.887M222.829 219.538C222.317 218.485 221.224 216.225 220.951 215.61C220.609 214.841 215.662 215.018 213.737 214.887M222.829 219.538C221.509 219.418 216.468 219.272 213.737 214.887" stroke="black" stroke-width="2"/>
<path d="M196.461 223.58C197.043 220.451 197.998 217.45 195.304 220.67C193.507 224.152 183.879 230.545 173.206 229.647C172.084 231.781 173.881 238.858 175.341 240.094C182.756 239.42 193.428 236.274 196.461 223.58Z" fill="#686874" stroke="black" stroke-width="2"/>
<path d="M82.4185 239.282C81.5416 236.407 83.0485 228.282 83.5526 223.656C106.001 223.518 141.545 226.961 151.921 227.697C157.596 228.099 156.615 239.697 154.616 243.369C137.693 244.255 89.0429 242.453 82.4185 239.282Z" fill="#686874" stroke="black" stroke-width="2"/>
<path d="M83.9688 223.646C83.5944 220.771 85.3445 213.396 87.3437 208.896C108.78 209.523 141.328 212.3 151.203 213.389C156.604 213.984 155.177 225.54 153.113 229.141C136.919 229.449 90.1586 227.041 83.9688 223.646Z" fill="#686874" stroke="black" stroke-width="2"/>
<path d="M98.4707 177.146C101.471 170.146 101.721 168.646 103.596 165.771C121.846 167.646 138.189 167.312 146.81 167.296C151.599 167.288 152.193 178.954 150.412 182.554C136.434 182.863 103.814 180.541 98.4707 177.146Z" fill="#686874" stroke="black" stroke-width="2"/>
<path d="M167.811 180.095C172.657 177.724 176.093 178.33 179.798 176.512C176.43 171.325 174.645 168.01 172.455 166.138C170.92 166.318 167.52 166.531 165.766 166.656C165.477 170.391 166.056 177.657 167.811 180.095Z" fill="#686874" stroke="black" stroke-width="2" stroke-linejoin="round"/>
<path d="M91.9707 194.396C93.8457 189.896 96.7201 181.021 98.3457 178.146C115.004 178.773 142.524 182.286 150.286 182.271C154.598 182.262 153.374 194.422 151.771 198.023C139.186 198.331 96.7808 197.791 91.9707 194.396Z" fill="#686874" stroke="black" stroke-width="2"/>
<path d="M187.477 189.579C186.264 185.538 181.212 178.128 179.798 176.579C175.756 177.522 172.192 178.236 167.909 179.77C166.212 180.378 166.896 186.465 167.923 191.065C168.885 192.274 170.838 193.958 177.935 193.687C180.663 193.194 186.319 191.83 187.477 189.579Z" fill="#686874" stroke="black" stroke-width="2"/>
<path d="M152.401 213.234C137.487 213.543 93.2961 212.041 87.5954 208.646C86.8898 207.28 91.3052 194.186 92.5957 193.896C112.339 194.523 141.547 196.394 150.642 197.482C155.616 198.078 154.302 209.634 152.401 213.234Z" fill="#686874" stroke="black" stroke-width="2"/>
<path d="M187.409 190.186C182.488 192.273 173.282 192.905 171.849 193.217C175.793 193.855 183.181 192.412 191.94 199.192C191.057 195.996 188.994 190.267 187.409 190.186Z" fill="#686874" stroke="black" stroke-width="2"/>
<rect x="127.148" y="216.69" width="5" height="15.6082" rx="2.5" transform="rotate(16.9292 127.148 216.69)" fill="#686874" stroke="black" stroke-width="2"/>
<path d="M117.853 181.357C137.353 184.857 161.634 190.005 165.234 194.005C166.334 194.494 169.748 194.288 171.577 194.135C171.977 194.079 172.372 194.041 172.761 194.023C172.761 194.023 172.289 194.075 171.577 194.135C163.882 195.208 154.402 203.033 153.538 212.046L155.366 213.871C155.685 215.921 156.512 219.981 158.528 220.317C161.175 221.18 162.436 221.446 164.06 220.847C164.273 223.508 165.195 224.825 165.779 225.938C164.33 226.781 162.65 227.425 160.853 228.005C157.764 230.206 140.499 226.181 137.353 225.357C129.353 223.262 105.419 207.857 102.353 196.357C99.8195 186.856 108.38 179.657 117.853 181.357Z" fill="#686874"/>
<path d="M117.853 181.357L117.676 182.341L117.853 181.357ZM165.234 194.005L164.491 194.674L164.633 194.832L164.828 194.919L165.234 194.005ZM137.353 225.357L137.606 224.39L137.353 225.357ZM102.353 196.357L101.386 196.614L102.353 196.357ZM172.761 194.023L172.87 195.017C173.407 194.957 173.8 194.483 173.757 193.944C173.715 193.406 173.253 192.998 172.713 193.024L172.761 194.023ZM153.963 217.356L154.932 217.108L153.963 217.356ZM165.779 225.938L166.282 226.802L167.11 226.321L166.665 225.473L165.779 225.938ZM164.06 220.847L165.057 220.767L164.952 219.452L163.714 219.909L164.06 220.847ZM158.528 220.317L158.838 219.366L158.767 219.343L158.692 219.33L158.528 220.317ZM155.366 213.871L156.354 213.717L156.303 213.395L156.072 213.164L155.366 213.871ZM153.538 212.046L152.543 211.951L153.538 212.046ZM117.676 182.341C127.418 184.09 138.338 186.247 147.265 188.464C151.73 189.573 155.676 190.691 158.719 191.775C160.241 192.317 161.517 192.844 162.512 193.348C163.528 193.863 164.167 194.314 164.491 194.674L165.977 193.336C165.401 192.696 164.494 192.11 163.417 191.564C162.318 191.008 160.955 190.449 159.39 189.891C156.258 188.775 152.239 187.638 147.747 186.523C138.758 184.29 127.788 182.124 118.029 180.373L117.676 182.341ZM137.606 224.39C135.733 223.899 132.827 222.595 129.43 220.687C126.052 218.79 122.252 216.334 118.604 213.585C114.954 210.835 111.477 207.808 108.732 204.774C105.97 201.723 104.025 198.746 103.319 196.099L101.386 196.614C102.214 199.718 104.41 202.979 107.249 206.116C110.103 209.271 113.684 212.382 117.401 215.182C121.12 217.984 124.995 220.49 128.451 222.431C131.887 224.36 134.973 225.767 137.099 226.324L137.606 224.39ZM103.319 196.099C102.151 191.72 103.534 187.924 106.279 185.392C109.043 182.841 113.23 181.544 117.676 182.341L118.029 180.373C113.002 179.471 108.173 180.923 104.922 183.922C101.652 186.939 100.021 191.493 101.386 196.614L103.319 196.099ZM164.828 194.919C165.26 195.11 165.816 195.2 166.339 195.249C166.889 195.3 167.512 195.315 168.14 195.311C169.396 195.301 170.736 195.209 171.66 195.131L171.493 193.138C170.589 193.214 169.307 193.301 168.124 193.311C167.532 193.315 166.982 193.3 166.525 193.257C166.041 193.212 165.758 193.144 165.64 193.091L164.828 194.919ZM171.66 195.131C172.022 195.101 172.323 195.072 172.534 195.051C172.64 195.041 172.723 195.032 172.78 195.026C172.809 195.023 172.831 195.021 172.846 195.019C172.854 195.018 172.859 195.018 172.863 195.017C172.866 195.017 172.867 195.017 172.868 195.017C172.869 195.017 172.869 195.017 172.87 195.017C172.87 195.017 172.87 195.017 172.87 195.017C172.87 195.017 172.87 195.017 172.87 195.017C172.87 195.017 172.87 195.017 172.87 195.017C172.87 195.017 172.87 195.017 172.761 194.023C172.651 193.029 172.651 193.029 172.651 193.029C172.651 193.029 172.651 193.029 172.651 193.029C172.651 193.029 172.651 193.029 172.651 193.029C172.651 193.029 172.651 193.029 172.651 193.029C172.651 193.029 172.651 193.029 172.65 193.029C172.65 193.029 172.648 193.029 172.647 193.029C172.644 193.03 172.639 193.03 172.632 193.031C172.618 193.032 172.598 193.034 172.571 193.037C172.518 193.043 172.439 193.051 172.337 193.061C172.134 193.081 171.843 193.109 171.493 193.138L171.66 195.131ZM152.994 217.605C153.944 221.309 156.22 225.1 160.175 228.741L161.53 227.269C157.804 223.839 155.768 220.371 154.932 217.108L152.994 217.605ZM165.276 225.073C163.919 225.863 162.319 226.481 160.545 227.053L161.16 228.956C162.981 228.368 164.74 227.699 166.282 226.802L165.276 225.073ZM166.665 225.473C166.056 224.313 165.251 223.186 165.057 220.767L163.063 220.927C163.296 223.831 164.335 225.337 164.894 226.403L166.665 225.473ZM158.692 219.33C158.517 219.301 158.286 219.18 158.011 218.833C157.735 218.486 157.476 217.989 157.246 217.382C156.785 216.169 156.511 214.726 156.354 213.717L154.378 214.025C154.54 215.066 154.839 216.678 155.376 218.092C155.644 218.797 155.99 219.506 156.446 220.079C156.902 220.652 157.531 221.164 158.364 221.303L158.692 219.33ZM172.713 193.024C172.292 193.044 171.867 193.084 171.438 193.144L171.715 195.125C172.086 195.073 172.451 195.039 172.808 195.022L172.713 193.024ZM171.438 193.144C167.345 193.715 162.869 196.056 159.313 199.382C155.755 202.71 153.005 207.131 152.543 211.951L154.534 212.141C154.936 207.948 157.358 203.949 160.679 200.843C164.002 197.735 168.113 195.627 171.715 195.125L171.438 193.144ZM152.543 211.951C152.368 213.772 152.498 215.67 152.994 217.605L154.932 217.108C154.494 215.4 154.381 213.735 154.534 212.141L152.543 211.951ZM156.072 213.164L154.245 211.338L152.832 212.753L154.659 214.579L156.072 213.164ZM163.714 219.909C162.445 220.377 161.488 220.231 158.838 219.366L158.218 221.267C160.862 222.13 162.427 222.515 164.406 221.785L163.714 219.909ZM160.272 227.19C160.092 227.319 159.686 227.472 158.958 227.565C158.26 227.654 157.38 227.676 156.358 227.636C154.317 227.558 151.817 227.243 149.286 226.828C144.227 226 139.156 224.795 137.606 224.39L137.099 226.324C138.696 226.742 143.83 227.962 148.962 228.802C151.526 229.222 154.119 229.552 156.282 229.635C157.362 229.676 158.362 229.657 159.212 229.549C160.032 229.444 160.841 229.241 161.433 228.819L160.272 227.19Z" fill="black"/>
<path d="M122.469 217.663C118.093 214.288 123.453 188.381 133.398 184.521C138.147 185.605 141.148 185.896 145.898 187.396C140.994 189.271 125.901 208.262 134.666 224.142C133.833 224.225 127.743 221.73 122.469 217.663Z" fill="#F9732A" stroke="black" stroke-width="2"/>
<path d="M206.369 179.146L195.369 175.521C192.269 177.621 189.827 187.146 188.994 191.646L191.869 198.021C194.077 202.48 195.182 203.834 196.932 207.209C195.932 202.809 202.827 186.73 206.369 179.146Z" fill="#F9732A" stroke="black" stroke-width="2"/>
</svg>
