<svg width="361" height="341" viewBox="0 0 361 341" fill="none" xmlns="http://www.w3.org/2000/svg">
<path fill-rule="evenodd" clip-rule="evenodd" d="M179.633 166.509C188.717 176.925 197.98 200.557 199.38 217.757C201.13 239.257 199.38 249.257 168.88 254.007C146.5 257.492 112.592 254.093 95.1719 248.747C100.69 247.743 104.801 245.691 105.495 243.438C107.406 237.226 105.495 232.886 104.3 231.492C106.49 231.293 110.631 229.461 109.676 223.727C108.931 219.26 104.939 217.577 101.313 217.232C100.915 210.637 104.3 190.396 113.857 180.722C119.856 174.648 117.929 169.709 113.072 167.775C113.455 167.232 113.809 166.885 114.13 166.757C115.909 166.045 122.341 167.097 130.493 168.43C140.292 170.032 152.578 172.04 162.255 171.882C164.864 171.839 168.574 170.326 172.03 168.916C175.068 167.676 177.91 166.517 179.633 166.509Z" fill="#F9732A"/>
<path d="M199.38 217.757L200.377 217.676L199.38 217.757ZM179.633 166.509L180.387 165.852L180.086 165.507L179.629 165.509L179.633 166.509ZM168.88 254.007L168.727 253.019L168.88 254.007ZM95.1719 248.747L94.9928 247.763L94.8785 249.703L95.1719 248.747ZM105.495 243.438L106.45 243.732L105.495 243.438ZM104.3 231.492L104.209 230.496L102.28 230.672L103.541 232.143L104.3 231.492ZM109.676 223.727L108.689 223.892L109.676 223.727ZM101.313 217.232L100.315 217.293L100.367 218.147L101.219 218.228L101.313 217.232ZM113.857 180.722L114.568 181.424V181.424L113.857 180.722ZM113.072 167.775L112.255 167.199L111.524 168.236L112.702 168.704L113.072 167.775ZM114.13 166.757L113.759 165.828L113.759 165.828L114.13 166.757ZM130.493 168.43L130.331 169.417L130.493 168.43ZM162.255 171.882L162.272 172.882L162.255 171.882ZM172.03 168.916L171.652 167.99V167.99L172.03 168.916ZM200.377 217.676C199.667 208.953 196.971 198.649 193.321 189.228C189.675 179.818 185.038 171.185 180.387 165.852L178.88 167.166C183.313 172.25 187.849 180.64 191.456 189.95C195.058 199.249 197.694 209.36 198.384 217.838L200.377 217.676ZM169.034 254.995C184.312 252.616 192.758 248.883 197.045 242.735C201.312 236.615 201.248 228.369 200.377 217.676L198.384 217.838C199.263 228.644 199.199 236.148 195.404 241.591C191.628 247.006 183.949 250.648 168.727 253.019L169.034 254.995ZM94.8785 249.703C103.682 252.405 116.592 254.6 130.086 255.685C143.581 256.771 157.738 256.754 169.034 254.995L168.727 253.019C157.642 254.745 143.655 254.771 130.246 253.692C116.836 252.613 104.082 250.435 95.4652 247.791L94.8785 249.703ZM104.539 243.144C104.318 243.863 103.439 244.777 101.688 245.67C99.9939 246.534 97.6857 247.273 94.9928 247.763L95.351 249.731C98.1757 249.217 100.682 248.428 102.597 247.452C104.454 246.505 105.978 245.266 106.45 243.732L104.539 243.144ZM103.541 232.143C104.496 233.257 106.357 237.236 104.539 243.144L106.45 243.732C108.455 237.217 106.493 232.514 105.059 230.841L103.541 232.143ZM108.689 223.892C109.12 226.476 108.398 228.033 107.457 228.981C106.47 229.977 105.127 230.413 104.209 230.496L104.39 232.488C105.663 232.372 107.486 231.793 108.878 230.39C110.317 228.938 111.187 226.713 110.662 223.563L108.689 223.892ZM101.219 218.228C104.699 218.559 108.06 220.116 108.689 223.892L110.662 223.563C109.802 218.405 105.179 216.596 101.408 216.237L101.219 218.228ZM113.145 180.019C108.19 185.035 104.897 192.708 102.889 199.861C100.88 207.02 100.107 213.846 100.315 217.293L102.312 217.172C102.122 214.023 102.842 207.432 104.815 200.402C106.789 193.368 109.967 186.083 114.568 181.424L113.145 180.019ZM112.702 168.704C114.918 169.586 116.278 171.07 116.547 172.846C116.819 174.641 116.034 177.094 113.145 180.019L114.568 181.424C117.679 178.275 118.93 175.222 118.524 172.546C118.116 169.85 116.084 167.898 113.442 166.846L112.702 168.704ZM113.759 165.828C113.151 166.071 112.656 166.63 112.255 167.199L113.889 168.351C114.057 168.113 114.201 167.943 114.319 167.83C114.441 167.712 114.503 167.685 114.502 167.685L113.759 165.828ZM130.654 167.443C126.586 166.778 122.916 166.177 120.04 165.834C118.603 165.662 117.34 165.551 116.311 165.531C115.325 165.511 114.409 165.568 113.759 165.828L114.502 167.685C114.742 167.589 115.296 167.511 116.271 167.53C117.203 167.549 118.391 167.651 119.803 167.819C122.626 168.157 126.247 168.749 130.331 169.417L130.654 167.443ZM162.239 170.882C152.669 171.039 140.48 169.049 130.654 167.443L130.331 169.417C140.104 171.014 152.486 173.042 162.272 172.882L162.239 170.882ZM171.652 167.99C169.917 168.698 168.158 169.415 166.51 169.962C164.848 170.514 163.386 170.863 162.239 170.882L162.272 172.882C163.733 172.858 165.431 172.428 167.14 171.86C168.863 171.288 170.686 170.544 172.407 169.842L171.652 167.99ZM179.629 165.509C178.591 165.514 177.317 165.855 176.002 166.304C174.663 166.762 173.164 167.373 171.652 167.99L172.407 169.842C173.934 169.219 175.376 168.632 176.648 168.197C177.944 167.755 178.952 167.512 179.638 167.509L179.629 165.509ZM101.408 216.237C100.118 216.114 98.8688 216.15 97.7989 216.29L98.0584 218.273C98.9816 218.152 100.08 218.119 101.219 218.228L101.408 216.237Z" fill="black"/>
<path fill-rule="evenodd" clip-rule="evenodd" d="M199.381 212.757C201.131 234.257 199.381 244.257 168.881 249.007C149.624 252.006 121.835 249.908 103.355 245.859C104.484 245.111 105.233 244.289 105.495 243.438C107.406 237.226 105.495 232.886 104.3 231.492C106.491 231.293 110.632 229.461 109.676 223.727C108.932 219.261 104.94 217.577 101.314 217.232C100.916 210.637 104.3 190.396 113.857 180.722C119.065 175.45 118.3 171.033 114.832 168.694C115.191 167.999 115.535 167.381 115.86 166.845C128.605 166.754 139.951 168.34 148.824 169.58C154.413 170.361 159.022 171.006 162.381 171.007C165.163 171.008 167.539 169.981 170.262 168.803C172.745 167.729 175.517 166.531 179.148 165.875C187.775 176.737 198.048 196.379 199.381 212.757Z" fill="white"/>
<path d="M168.881 249.007L168.727 248.019L168.881 249.007ZM199.381 212.757L200.378 212.676L199.381 212.757ZM103.355 245.859L102.803 245.025L100.834 246.33L103.141 246.836L103.355 245.859ZM105.495 243.438L104.539 243.144H104.539L105.495 243.438ZM104.3 231.492L104.21 230.496L102.28 230.672L103.541 232.143L104.3 231.492ZM109.676 223.727L108.69 223.892L109.676 223.727ZM101.314 217.232L100.316 217.293L100.367 218.147L101.219 218.228L101.314 217.232ZM113.857 180.722L113.146 180.019L113.857 180.722ZM114.832 168.694L113.944 168.235L113.535 169.025L114.273 169.523L114.832 168.694ZM115.86 166.845L115.853 165.845L115.294 165.849L115.005 166.326L115.86 166.845ZM148.824 169.58L148.962 168.59L148.824 169.58ZM162.381 171.007L162.381 170.007L162.381 171.007ZM170.262 168.803L169.865 167.886V167.886L170.262 168.803ZM179.148 165.875L179.931 165.253L179.559 164.785L178.97 164.891L179.148 165.875ZM169.035 249.995C184.313 247.616 192.758 243.883 197.045 237.735C201.312 231.616 201.248 223.369 200.378 212.676L198.384 212.838C199.264 223.645 199.2 231.148 195.404 236.591C191.629 242.006 183.949 245.648 168.727 248.019L169.035 249.995ZM103.141 246.836C121.705 250.903 149.624 253.018 169.035 249.995L168.727 248.019C149.625 250.994 121.964 248.913 103.57 244.882L103.141 246.836ZM104.539 243.144C104.377 243.672 103.852 244.33 102.803 245.025L103.908 246.693C105.116 245.892 106.09 244.906 106.451 243.732L104.539 243.144ZM103.541 232.143C104.496 233.257 106.357 237.236 104.539 243.144L106.451 243.732C108.456 237.217 106.494 232.515 105.06 230.841L103.541 232.143ZM108.69 223.892C109.12 226.476 108.398 228.033 107.458 228.981C106.471 229.977 105.128 230.413 104.21 230.496L104.391 232.488C105.663 232.373 107.486 231.793 108.878 230.39C110.317 228.938 111.188 226.713 110.663 223.563L108.69 223.892ZM101.219 218.228C104.699 218.559 108.06 220.116 108.69 223.892L110.663 223.563C109.803 218.405 105.18 216.596 101.409 216.237L101.219 218.228ZM113.146 180.019C108.191 185.035 104.897 192.708 102.89 199.861C100.881 207.02 100.108 213.846 100.316 217.293L102.312 217.172C102.122 214.023 102.842 207.432 104.815 200.402C106.79 193.368 109.967 186.083 114.569 181.424L113.146 180.019ZM114.273 169.523C115.783 170.542 116.619 171.939 116.598 173.595C116.576 175.295 115.65 177.484 113.146 180.019L114.569 181.424C117.272 178.688 118.567 176.032 118.598 173.621C118.629 171.166 117.349 169.185 115.391 167.865L114.273 169.523ZM115.005 166.326C114.665 166.886 114.311 167.525 113.944 168.235L115.72 169.154C116.072 168.474 116.404 167.875 116.715 167.363L115.005 166.326ZM148.962 168.59C140.091 167.35 128.68 165.753 115.853 165.845L115.867 167.845C128.531 167.754 139.81 169.33 148.685 170.57L148.962 168.59ZM162.381 170.007C159.108 170.006 154.582 169.375 148.962 168.59L148.685 170.57C154.244 171.347 158.935 172.006 162.381 172.007L162.381 170.007ZM169.865 167.886C167.11 169.077 164.923 170.008 162.381 170.007L162.381 172.007C165.403 172.008 167.968 170.885 170.659 169.721L169.865 167.886ZM178.97 164.891C175.215 165.569 172.349 166.811 169.865 167.886L170.659 169.721C173.141 168.648 175.82 167.492 179.326 166.859L178.97 164.891ZM200.378 212.676C199.023 196.032 188.63 176.207 179.931 165.253L178.365 166.497C186.919 177.268 197.073 196.725 198.384 212.838L200.378 212.676ZM101.409 216.237C99.9495 216.098 98.5415 216.162 97.3838 216.351L97.7061 218.325C98.693 218.164 99.929 218.105 101.219 218.228L101.409 216.237Z" fill="black"/>
<path fill-rule="evenodd" clip-rule="evenodd" d="M103.347 202.029C101.736 208.402 101.133 214.231 101.314 217.233C104.94 217.578 108.932 219.261 109.677 223.728C110.632 229.462 106.491 231.293 104.301 231.492C105.41 232.787 107.138 236.622 105.848 242.137C117.891 244.301 143.722 243.812 160.22 243.028C162.5 242.92 164.206 240.913 163.971 238.642L156.977 170.825L156.569 166.884C151.525 167.017 129.634 167.322 122.453 167.028C120.732 169.266 119.113 171.525 117.593 173.793C117.505 175.809 116.384 178.165 113.858 180.722C113.287 181.3 112.738 181.915 112.211 182.563C108.485 189.214 105.564 195.805 103.347 202.029Z" fill="#686874"/>
<path d="M103.347 202.029L102.405 201.694L102.389 201.738L102.378 201.784L103.347 202.029ZM101.314 217.233L100.316 217.293L100.368 218.147L101.22 218.228L101.314 217.233ZM109.677 223.728L108.69 223.892L109.677 223.728ZM104.301 231.492L104.21 230.497L102.281 230.672L103.542 232.143L104.301 231.492ZM105.848 242.137L104.874 241.909L104.635 242.935L105.671 243.121L105.848 242.137ZM160.22 243.028L160.172 242.029L160.22 243.028ZM163.971 238.642L164.966 238.54L163.971 238.642ZM156.977 170.825L157.972 170.722L157.972 170.722L156.977 170.825ZM156.569 166.884L157.564 166.781L157.468 165.86L156.543 165.884L156.569 166.884ZM122.453 167.028L122.494 166.029L121.976 166.008L121.661 166.419L122.453 167.028ZM117.593 173.793L116.762 173.237L116.606 173.469L116.594 173.749L117.593 173.793ZM113.858 180.722L114.569 181.425L113.858 180.722ZM112.211 182.563L111.435 181.932L111.38 181.999L111.338 182.075L112.211 182.563ZM102.378 201.784C100.752 208.212 100.127 214.151 100.316 217.293L102.313 217.172C102.14 214.311 102.719 208.592 104.316 202.274L102.378 201.784ZM101.22 218.228C104.7 218.559 108.061 220.116 108.69 223.892L110.663 223.563C109.803 218.405 105.18 216.596 101.409 216.237L101.22 218.228ZM108.69 223.892C109.121 226.476 108.398 228.034 107.458 228.981C106.471 229.977 105.128 230.413 104.21 230.497L104.391 232.488C105.664 232.373 107.487 231.793 108.878 230.39C110.318 228.939 111.188 226.713 110.663 223.563L108.69 223.892ZM103.542 232.143C104.427 233.177 106.097 236.679 104.874 241.909L106.822 242.365C108.178 236.565 106.393 232.397 105.06 230.842L103.542 232.143ZM105.671 243.121C111.786 244.22 121.332 244.638 131.358 244.688C141.406 244.739 152.006 244.42 160.267 244.027L160.172 242.029C151.936 242.421 141.372 242.738 131.368 242.688C121.344 242.638 111.953 242.218 106.025 241.153L105.671 243.121ZM160.267 244.027C163.128 243.891 165.259 241.375 164.966 238.54L162.977 238.745C163.153 240.452 161.872 241.948 160.172 242.029L160.267 244.027ZM164.966 238.54L157.972 170.722L155.983 170.928L162.977 238.745L164.966 238.54ZM157.972 170.722L157.564 166.781L155.574 166.987L155.983 170.928L157.972 170.722ZM156.543 165.884C151.496 166.017 129.637 166.321 122.494 166.029L122.412 168.027C129.632 168.322 151.554 168.016 156.595 167.883L156.543 165.884ZM121.661 166.419C119.925 168.674 118.294 170.951 116.762 173.237L118.424 174.35C119.932 172.1 121.538 169.858 123.246 167.638L121.661 166.419ZM116.594 173.749C116.52 175.426 115.575 177.56 113.146 180.019L114.569 181.425C117.192 178.769 118.489 176.191 118.592 173.837L116.594 173.749ZM113.146 180.019C112.551 180.622 111.981 181.261 111.435 181.932L112.986 183.195C113.495 182.569 114.023 181.978 114.569 181.425L113.146 180.019ZM111.338 182.075C107.584 188.776 104.64 195.419 102.405 201.694L104.289 202.365C106.488 196.191 109.386 189.652 113.083 183.052L111.338 182.075ZM101.409 216.237C100.595 216.16 99.7992 216.145 99.0557 216.18L99.1494 218.178C99.8026 218.147 100.504 218.16 101.22 218.228L101.409 216.237Z" fill="black"/>
<path d="M198.372 228.756C196.055 234.397 196.142 237.533 180.762 240.715C178.524 241.178 176.382 239.607 176.093 237.339L167.511 170.11L167.046 166.821C168.854 166.884 172.134 166.446 174.51 166.22C202.85 201.956 202.271 219.265 198.372 228.756Z" fill="#686874" stroke="black" stroke-width="2" stroke-linejoin="round"/>
<path d="M201.944 229.881C202.587 226.752 202.578 214.167 199.006 213.944C185.977 218.075 185.99 221.589 180.086 224.279C176.857 225.75 179.137 236.885 180.838 240.089C190.775 237.738 198.574 234.236 201.944 229.881Z" fill="#686874" stroke="black" stroke-width="2"/>
<path fill-rule="evenodd" clip-rule="evenodd" d="M105.854 242.106C120.006 243.659 145.802 243.88 157.086 243.206C158.832 239.535 159.687 227.937 154.73 227.534C146.888 226.896 127.574 225.858 109.81 225.678C109.638 229.889 106.219 231.318 104.3 231.492C105.407 232.784 107.13 236.607 105.854 242.106Z" fill="#686874"/>
<path d="M157.086 243.206L157.146 244.204L157.736 244.169L157.99 243.635L157.086 243.206ZM105.854 242.106L104.88 241.88L104.625 242.977L105.745 243.1L105.854 242.106ZM154.73 227.534L154.811 226.537L154.73 227.534ZM109.81 225.678L109.82 224.678L108.85 224.668L108.81 225.637L109.81 225.678ZM104.3 231.492L104.209 230.496L102.279 230.672L103.541 232.143L104.3 231.492ZM157.027 242.208C145.788 242.879 120.049 242.658 105.963 241.112L105.745 243.1C119.962 244.661 145.816 244.881 157.146 244.204L157.027 242.208ZM154.649 228.53C155.419 228.593 156.042 229.069 156.537 230.077C157.043 231.106 157.333 232.557 157.423 234.199C157.605 237.503 156.962 241.139 156.183 242.776L157.99 243.635C158.957 241.601 159.614 237.603 159.42 234.089C159.323 232.323 159.007 230.569 158.333 229.196C157.648 227.801 156.519 226.676 154.811 226.537L154.649 228.53ZM109.799 226.678C127.541 226.858 146.832 227.895 154.649 228.53L154.811 226.537C146.945 225.897 127.607 224.859 109.82 224.678L109.799 226.678ZM108.81 225.637C108.737 227.442 107.984 228.589 107.08 229.322C106.144 230.082 105.007 230.424 104.209 230.496L104.39 232.488C105.512 232.386 107.045 231.927 108.34 230.875C109.668 229.798 110.711 228.125 110.809 225.718L108.81 225.637ZM103.541 232.143C104.424 233.174 106.09 236.666 104.88 241.88L106.828 242.332C108.17 236.549 106.39 232.394 105.059 230.842L103.541 232.143Z" fill="black"/>
<path fill-rule="evenodd" clip-rule="evenodd" d="M109.756 226.327C123.668 228.159 145.695 229.197 155.761 228.978C157.571 225.377 158.823 213.821 154.086 213.226C145.425 212.138 122.09 209.92 103.288 209.293C102.745 209.421 102.242 209.66 101.778 209.989C101.355 213.016 101.213 215.562 101.314 217.232C104.94 217.577 108.932 219.26 109.677 223.727C109.839 224.703 109.854 225.566 109.756 226.327Z" fill="#686874"/>
<path d="M155.761 228.978L155.783 229.978L156.384 229.965L156.654 229.427L155.761 228.978ZM109.756 226.327L108.765 226.199L108.637 227.188L109.626 227.318L109.756 226.327ZM154.086 213.226L153.961 214.218L154.086 213.226ZM103.288 209.293L103.321 208.294L103.188 208.289L103.058 208.32L103.288 209.293ZM101.778 209.989L101.201 209.173L100.848 209.422L100.788 209.85L101.778 209.989ZM101.314 217.232L100.316 217.293L100.368 218.147L101.22 218.228L101.314 217.232ZM109.677 223.727L108.69 223.892V223.892L109.677 223.727ZM155.739 227.978C145.724 228.196 123.747 227.16 109.887 225.335L109.626 227.318C123.588 229.157 145.666 230.198 155.783 229.978L155.739 227.978ZM153.961 214.218C154.661 214.306 155.238 214.784 155.681 215.824C156.129 216.877 156.353 218.343 156.379 219.991C156.43 223.304 155.677 226.919 154.868 228.529L156.654 229.427C157.655 227.437 158.433 223.473 158.379 219.96C158.351 218.194 158.114 216.434 157.521 215.041C156.922 213.633 155.879 212.444 154.211 212.234L153.961 214.218ZM103.254 210.292C122.021 210.918 145.325 213.133 153.961 214.218L154.211 212.234C145.524 211.142 122.158 208.921 103.321 208.294L103.254 210.292ZM102.356 210.805C102.728 210.542 103.114 210.361 103.517 210.266L103.058 208.32C102.376 208.481 101.757 208.779 101.201 209.173L102.356 210.805ZM100.788 209.85C100.36 212.91 100.21 215.529 100.316 217.293L102.312 217.172C102.217 215.595 102.35 213.122 102.769 210.127L100.788 209.85ZM101.22 218.228C104.7 218.559 108.061 220.116 108.69 223.892L110.663 223.563C109.803 218.405 105.18 216.596 101.409 216.237L101.22 218.228ZM108.69 223.892C108.839 224.783 108.848 225.547 108.765 226.199L110.748 226.454C110.86 225.585 110.84 224.623 110.663 223.563L108.69 223.892ZM101.409 216.237C100.139 216.116 98.9096 216.149 97.8515 216.283L98.1036 218.267C99.0177 218.151 100.099 218.121 101.22 218.228L101.409 216.237Z" fill="black"/>
<path d="M199.943 213.819C200.462 210.669 197.817 200.948 194.38 200.884C182 205.583 183.964 207.24 178.379 210.185C175.325 211.796 177.862 222.803 179.595 225.924C189.063 223.138 196.843 218.313 199.943 213.819Z" fill="#686874" stroke="black" stroke-width="2"/>
<path fill-rule="evenodd" clip-rule="evenodd" d="M110.277 166.165C104.244 166.051 100.105 166.269 99.2809 167.063C88.3222 173.766 65.7312 191.325 59.7314 209.663C59.2578 211.11 59.355 212.708 60.1675 213.996C67.0835 224.963 86.8463 222.766 101.274 215.237C101.936 205.319 110.216 182.105 123.654 166.95C119.098 166.819 114.626 166.579 110.277 166.165Z" fill="#686874"/>
<path d="M99.2809 167.063L99.8027 167.917L99.8962 167.859L99.9751 167.783L99.2809 167.063ZM110.277 166.165L110.372 165.169L110.334 165.166L110.296 165.165L110.277 166.165ZM59.7314 209.663L60.6819 209.974H60.6819L59.7314 209.663ZM60.1675 213.996L61.0133 213.463L60.1675 213.996ZM101.274 215.237L101.737 216.124L102.235 215.864L102.272 215.304L101.274 215.237ZM123.654 166.95L124.403 167.613L125.823 166.012L123.683 165.95L123.654 166.95ZM99.9751 167.783C99.9472 167.81 99.9694 167.779 100.115 167.72C100.25 167.666 100.445 167.607 100.711 167.549C101.244 167.433 101.974 167.339 102.899 167.271C104.745 167.135 107.251 167.108 110.258 167.165L110.296 165.165C107.27 165.108 104.69 165.133 102.752 165.276C101.785 165.348 100.949 165.45 100.285 165.595C99.9531 165.667 99.6426 165.755 99.3702 165.864C99.108 165.969 98.8206 166.118 98.5868 166.344L99.9751 167.783ZM60.6819 209.974C63.6063 201.035 70.6158 192.198 78.3421 184.718C86.0519 177.255 94.3798 171.233 99.8027 167.917L98.7592 166.21C93.2233 169.596 84.7764 175.706 76.951 183.281C69.1422 190.841 61.8563 199.952 58.781 209.352L60.6819 209.974ZM61.0133 213.463C60.3851 212.467 60.2849 211.187 60.6819 209.974L58.781 209.352C58.2307 211.034 58.3249 212.949 59.3216 214.53L61.0133 213.463ZM100.812 214.35C93.7116 218.055 85.316 220.436 77.8882 220.553C70.4328 220.67 64.2004 218.516 61.0133 213.463L59.3216 214.53C63.0506 220.443 70.1577 222.674 77.9196 222.552C85.7093 222.43 94.409 219.947 101.737 216.124L100.812 214.35ZM122.906 166.286C116.095 173.968 110.614 183.661 106.754 192.663C102.901 201.649 100.618 210.05 100.277 215.171L102.272 215.304C102.592 210.505 104.78 202.341 108.592 193.451C112.397 184.579 117.775 175.088 124.403 167.613L122.906 166.286ZM123.683 165.95C119.143 165.82 114.693 165.581 110.372 165.169L110.182 167.16C114.559 167.578 119.054 167.819 123.626 167.949L123.683 165.95Z" fill="black"/>
<path d="M213.651 209.812C207.277 192.552 192.197 172.263 179.58 165.789C178.017 166.414 178.656 167.424 178.656 167.424C192.211 182.574 199.206 207.622 201.849 218.192C207.184 219.209 211.436 217.127 213.457 213.938C214.234 212.711 214.154 211.175 213.651 209.812Z" fill="#686874" stroke="black" stroke-width="2"/>
<path d="M109.255 189.322C106.863 184.006 90.4317 178.241 82.0148 177.023C80.3531 176.36 68.7187 186.998 70.7124 191.315C78.1544 190.252 95.519 200.175 103.271 205.269C103.935 199.623 106.261 195.636 109.255 189.322Z" fill="#F9732A" stroke="black" stroke-width="2"/>
<path d="M182.873 190.767C185.265 185.451 188.824 182.962 197.241 181.744C201.001 182.303 207.304 191.936 207.6 196.979C200.158 195.916 196.609 201.62 188.857 206.714C188.193 201.068 185.868 197.081 182.873 190.767Z" fill="#F9732A" stroke="black" stroke-width="2"/>
<path d="M114.398 178.059C113.398 170.859 116.576 166.217 121.483 166.884C136.436 167.51 143.578 167.149 150.546 167.134C154.416 167.125 154.896 178.791 153.457 182.392C142.161 182.7 118.715 181.454 114.398 178.059Z" fill="#686874" stroke="black" stroke-width="2"/>
<path d="M174.299 179.933C181.838 177.779 182.768 180.072 185.131 175.82C184.871 171.105 181.52 167.553 179.103 165.681C177.407 165.861 173.978 166.368 172.04 166.493C171.721 170.229 173.215 177.6 174.299 179.933Z" fill="#686874" stroke="black" stroke-width="2" stroke-linejoin="round"/>
<path d="M106.767 193.85C104.727 190.455 109.658 179.309 114.077 178.383C129.375 179.009 146.034 182.123 153.161 182.108C157.12 182.099 155.997 194.259 154.524 197.86C142.968 198.168 111.184 197.245 106.767 193.85Z" fill="#686874" stroke="black" stroke-width="2"/>
<path d="M192.069 190.069C192.92 186.312 188.002 176.504 184.934 176.561C174.878 180.498 179.138 178.074 174.407 179.608C171.779 180.46 174.321 192.085 175.83 195.279C183.541 193.069 189.64 194.343 192.069 190.069Z" fill="#686874" stroke="black" stroke-width="2"/>
<path d="M102.043 207.791C100.725 204.882 102.279 194.548 106.811 193.387C124.128 194.013 145.619 196.231 153.596 197.32C157.959 197.915 156.806 209.471 155.139 213.072C142.057 213.38 107.043 211.186 102.043 207.791Z" fill="#686874" stroke="black" stroke-width="2"/>
<path d="M196.256 202.756C196.7 199.63 194.143 189.881 190.964 189.733C179.569 194.108 181.507 191.744 176.376 194.54C173.57 196.07 176.042 207.099 177.68 210.251C186.403 207.709 193.44 207.157 196.256 202.756Z" fill="#686874" stroke="black" stroke-width="2"/>
<rect x="129.375" y="216.527" width="5" height="15.6082" rx="2.5" transform="rotate(16.9292 129.375 216.527)" fill="#686874" stroke="black" stroke-width="2"/>
<path d="M194.392 212.252C194.054 211.307 193.013 210.815 192.068 211.154C191.123 211.492 190.631 212.533 190.97 213.478L194.042 222.057C194.381 223.002 195.421 223.494 196.366 223.156C197.311 222.817 197.803 221.777 197.464 220.832L194.392 212.252Z" fill="#686874" stroke="black" stroke-width="2"/>
</svg>
