<svg width="361" height="340" viewBox="0 0 361 340" fill="none" xmlns="http://www.w3.org/2000/svg">
<path d="M183.035 171.563C201.937 177.498 224.105 183.303 227.171 187.725C220.546 189.038 211.91 191.688 211.41 206.188C211.283 209.877 212.024 212.489 213.179 214.343C215.104 214.474 220.05 214.297 220.392 215.066C220.665 215.681 221.758 217.941 222.271 218.995C219.196 219.849 209.942 217.694 204.804 216.411C201.957 215.7 199.696 215.622 197.122 215.177C197.865 209.931 195.341 203.844 192.273 200.033C186.532 187.194 178.799 177.531 175.423 173.966C175.297 171.716 175.281 170.715 175.285 169.814C177.383 170.076 180.7 170.83 183.035 171.563Z" fill="#686874"/>
<path d="M222.271 218.995C219.196 219.849 209.942 217.694 204.804 216.411C201.957 215.7 199.696 215.622 197.122 215.177C197.865 209.931 195.341 203.844 192.273 200.033C186.532 187.194 178.799 177.531 175.423 173.966C175.297 171.716 175.281 170.715 175.285 169.814C177.383 170.076 180.7 170.83 183.035 171.563C201.937 177.498 224.105 183.303 227.171 187.725C220.546 189.038 211.91 191.688 211.41 206.188C211.283 209.877 212.024 212.489 213.179 214.343M222.271 218.995C221.758 217.941 220.665 215.681 220.392 215.066C220.05 214.297 215.104 214.474 213.179 214.343M222.271 218.995C220.95 218.874 215.909 218.728 213.179 214.343" stroke="black" stroke-width="2"/>
<path d="M205.811 178.602L194.811 174.977C191.711 177.077 189.269 186.602 188.436 191.102L191.311 197.477C193.519 201.935 194.623 203.29 196.373 206.665C195.373 202.265 202.269 186.185 205.811 178.602Z" fill="white" stroke="black" stroke-width="2"/>
<path fill-rule="evenodd" clip-rule="evenodd" d="M196.781 214.824C196.048 217.522 194.498 219.744 193.106 221.334C188.606 226.477 172.606 233.334 165.606 226.334C163.89 224.618 162.967 222.656 162.667 220.69C162.325 220.786 161.97 220.837 161.605 220.837C160.271 220.837 159.059 220.158 158.163 219.05C156.664 219.787 155.118 218.889 154.106 214.334C153.44 211.334 154.4 204.833 158.106 199.835C164.777 190.837 181.106 190.336 191.106 199.836C191.603 200.308 192.064 200.777 192.491 201.241C188.687 191.806 183.802 184.108 179.029 176.587C176.91 173.248 174.813 169.943 172.842 166.537C168.467 171.537 162.152 173.16 153.653 173.66C145.965 173.835 127.942 172.042 118.977 166.439C114.859 166.21 111.946 165.97 109.755 165.79C105.796 165.463 104.194 165.331 102.102 165.814C101.58 167.38 100.467 170.135 99.0114 173.739C92.8648 188.957 80.6053 219.308 80.8836 239.198C80.9441 243.522 83.991 247.045 88.1591 248.2C108.211 253.754 150.097 258.95 171.102 252.814C193.102 246.387 201.904 237.027 196.781 214.824Z" fill="#686874"/>
<path d="M196.781 214.824L197.755 214.599C197.652 214.152 197.259 213.833 196.8 213.824C196.342 213.815 195.936 214.119 195.816 214.562L196.781 214.824ZM193.106 221.334L193.859 221.993L193.106 221.334ZM165.606 226.334L166.313 225.627H166.313L165.606 226.334ZM162.667 220.69L163.656 220.539C163.613 220.256 163.45 220.005 163.209 219.85C162.969 219.694 162.673 219.65 162.397 219.727L162.667 220.69ZM158.163 219.05L158.94 218.421C158.646 218.058 158.14 217.947 157.722 218.153L158.163 219.05ZM154.106 214.334L153.13 214.551L154.106 214.334ZM158.106 199.835L157.303 199.239L158.106 199.835ZM191.106 199.836L191.795 199.111L191.795 199.111L191.106 199.836ZM192.491 201.241L191.756 201.918C192.083 202.274 192.617 202.345 193.026 202.086C193.434 201.828 193.6 201.315 193.419 200.867L192.491 201.241ZM179.029 176.587L178.185 177.123L179.029 176.587ZM172.842 166.537L173.708 166.036C173.546 165.757 173.26 165.573 172.939 165.542C172.618 165.511 172.302 165.636 172.09 165.879L172.842 166.537ZM153.653 173.66L153.676 174.66C153.688 174.66 153.7 174.659 153.712 174.659L153.653 173.66ZM118.977 166.439L119.507 165.591C119.364 165.501 119.2 165.449 119.032 165.44L118.977 166.439ZM109.755 165.79L109.673 166.786L109.755 165.79ZM102.102 165.814L101.877 164.84C101.538 164.918 101.264 165.167 101.153 165.498L102.102 165.814ZM99.0114 173.739L99.9386 174.114L99.0114 173.739ZM80.8836 239.198L81.8835 239.184L80.8836 239.198ZM88.1591 248.2L88.426 247.236H88.426L88.1591 248.2ZM171.102 252.814L171.382 253.774L171.102 252.814ZM195.816 214.562C195.138 217.057 193.692 219.146 192.354 220.676L193.859 221.993C195.304 220.342 196.958 217.986 197.746 215.086L195.816 214.562ZM192.354 220.676C190.274 223.053 185.348 225.974 180.031 227.423C174.674 228.883 169.412 228.726 166.313 225.627L164.899 227.042C168.801 230.943 175.039 230.857 180.557 229.353C186.114 227.838 191.439 224.759 193.859 221.993L192.354 220.676ZM166.313 225.627C164.746 224.06 163.923 222.293 163.656 220.539L161.679 220.841C162.011 223.019 163.033 225.176 164.899 227.042L166.313 225.627ZM162.397 219.727C162.141 219.799 161.876 219.837 161.605 219.837V221.837C162.063 221.837 162.51 221.773 162.938 221.653L162.397 219.727ZM161.605 219.837C160.632 219.837 159.687 219.344 158.94 218.421L157.385 219.68C158.431 220.971 159.91 221.837 161.605 221.837V219.837ZM157.722 218.153C157.479 218.272 157.304 218.292 157.177 218.274C157.057 218.258 156.884 218.195 156.66 217.97C156.169 217.478 155.579 216.352 155.082 214.118L153.13 214.551C153.646 216.872 154.335 218.472 155.244 219.383C155.72 219.86 156.277 220.168 156.901 220.255C157.517 220.341 158.097 220.197 158.604 219.948L157.722 218.153ZM155.082 214.118C154.793 212.816 154.84 210.604 155.44 208.064C156.035 205.545 157.152 202.801 158.91 200.43L157.303 199.239C155.355 201.867 154.139 204.873 153.493 207.604C152.853 210.315 152.753 212.853 153.13 214.551L155.082 214.118ZM158.91 200.43C162.013 196.244 167.43 193.959 173.368 193.899C179.294 193.839 185.62 196.004 190.418 200.561L191.795 199.111C186.593 194.169 179.754 191.834 173.348 191.899C166.953 191.964 160.87 194.427 157.303 199.239L158.91 200.43ZM190.418 200.561C190.899 201.019 191.344 201.471 191.756 201.918L193.227 200.564C192.784 200.082 192.307 199.598 191.795 199.111L190.418 200.561ZM193.419 200.867C189.575 191.335 184.642 183.566 179.873 176.052L178.185 177.123C182.961 184.65 187.798 192.276 191.564 201.615L193.419 200.867ZM179.873 176.052C177.752 172.709 175.666 169.422 173.708 166.036L171.977 167.038C173.959 170.465 176.067 173.787 178.185 177.123L179.873 176.052ZM172.09 165.879C167.992 170.562 162.033 172.165 153.594 172.662L153.712 174.659C162.271 174.155 168.942 172.513 173.595 167.196L172.09 165.879ZM153.63 172.661C149.858 172.746 143.495 172.348 136.962 171.231C130.405 170.109 123.818 168.285 119.507 165.591L118.447 167.287C123.1 170.195 130.007 172.07 136.625 173.202C143.268 174.338 149.76 174.749 153.676 174.66L153.63 172.661ZM119.032 165.44C114.928 165.213 112.026 164.973 109.837 164.793L109.673 166.786C111.866 166.967 114.79 167.208 118.921 167.437L119.032 165.44ZM109.837 164.793C105.919 164.47 104.15 164.315 101.877 164.84L102.327 166.789C104.238 166.347 105.674 166.457 109.673 166.786L109.837 164.793ZM101.153 165.498C100.644 167.027 99.5471 169.743 98.0842 173.365L99.9386 174.114C101.387 170.528 102.516 167.734 103.051 166.131L101.153 165.498ZM98.0842 173.365C95.0118 180.971 90.3965 192.397 86.585 204.414C82.7808 216.408 79.7422 229.097 79.8837 239.212L81.8835 239.184C81.7467 229.408 84.6987 216.977 88.4914 205.019C92.2767 193.084 96.8645 181.725 99.9386 174.114L98.0842 173.365ZM79.8837 239.212C79.9511 244.033 83.3484 247.905 87.8922 249.163L88.426 247.236C84.6336 246.186 81.937 243.012 81.8835 239.184L79.8837 239.212ZM87.8922 249.163C97.9923 251.961 113.542 254.657 129.195 255.888C144.82 257.116 160.696 256.896 171.382 253.774L170.821 251.854C160.503 254.868 144.934 255.118 129.352 253.894C113.798 252.671 98.3781 249.992 88.426 247.236L87.8922 249.163ZM171.382 253.774C182.428 250.547 190.406 246.523 194.921 240.323C199.473 234.072 200.349 225.838 197.755 214.599L195.807 215.049C198.336 226.013 197.372 233.56 193.304 239.146C189.199 244.784 181.776 248.654 170.821 251.854L171.382 253.774Z" fill="black"/>
<path d="M81.0977 239.015C89.5459 240.015 153.353 250.16 162.735 246.66C164.38 244.11 164.292 235.441 163.343 224.565C162.97 220.284 147.601 226.314 148.101 212.314C149.351 195.564 160.31 199.14 159.444 193.452C158.316 186.038 157.15 179.112 156.166 173.66C150.535 179.26 119.477 184.313 116.352 166.313C109.964 166.089 108.865 165.441 102.615 164.941C97.6148 176.691 88.9564 198.053 88.1586 203.154C105.401 206.779 97.1675 235.64 81.0977 239.015Z" fill="white"/>
<path d="M162.735 246.66L163.084 247.597L163.395 247.481L163.575 247.202L162.735 246.66ZM81.0977 239.015L80.8921 238.036C80.4127 238.137 80.0768 238.57 80.0987 239.059C80.1205 239.549 80.4936 239.95 80.9801 240.008L81.0977 239.015ZM88.1586 203.154L87.1706 203L87.0239 203.938L87.9529 204.133L88.1586 203.154ZM116.352 166.313L117.337 166.142C117.256 165.676 116.859 165.331 116.387 165.314L116.352 166.313ZM156.166 173.66L157.15 173.482C157.084 173.117 156.82 172.818 156.466 172.706C156.111 172.595 155.724 172.689 155.461 172.951L156.166 173.66ZM102.615 164.941L102.695 163.944L101.977 163.887L101.695 164.549L102.615 164.941ZM159.444 193.452L160.433 193.302L159.444 193.452ZM163.343 224.565L164.339 224.478L163.343 224.565ZM148.101 212.314L147.104 212.24L147.103 212.259L147.102 212.278L148.101 212.314ZM162.385 245.723C161.388 246.095 159.52 246.322 156.859 246.378C154.24 246.432 150.976 246.321 147.273 246.085C139.869 245.612 130.772 244.643 121.688 243.532C112.607 242.422 103.553 241.17 96.2386 240.133C88.9391 239.099 83.3425 238.273 81.2152 238.022L80.9801 240.008C83.077 240.256 88.6244 241.074 95.958 242.114C103.277 243.151 112.345 244.404 121.445 245.517C130.542 246.63 139.683 247.604 147.145 248.081C150.875 248.319 154.202 248.434 156.901 248.377C159.558 248.322 161.736 248.1 163.084 247.597L162.385 245.723ZM81.3032 239.993C89.8485 238.199 96.1282 229.725 98.0936 221.408C99.0827 217.223 99.0187 212.939 97.5085 209.418C95.9786 205.851 92.9943 203.149 88.3643 202.176L87.9529 204.133C91.9443 204.972 94.3969 207.237 95.6705 210.206C96.9638 213.222 97.07 217.044 96.1472 220.948C94.2889 228.812 88.4167 236.456 80.8921 238.036L81.3032 239.993ZM115.366 166.485C116.204 171.311 118.936 174.61 122.602 176.71C126.233 178.79 130.764 179.69 135.287 179.836C139.82 179.983 144.424 179.376 148.262 178.373C150.182 177.872 151.926 177.268 153.383 176.6C154.827 175.938 156.048 175.188 156.871 174.369L155.461 172.951C154.876 173.532 153.895 174.165 152.55 174.781C151.219 175.391 149.589 175.96 147.756 176.438C144.089 177.396 139.678 177.977 135.351 177.837C131.015 177.697 126.843 176.835 123.596 174.975C120.384 173.135 118.061 170.316 117.337 166.142L115.366 166.485ZM89.1466 203.309C89.3302 202.135 89.9901 199.925 90.9961 197.01C91.9924 194.123 93.3007 190.621 94.7432 186.903C97.6277 179.468 101.038 171.2 103.535 165.332L101.695 164.549C99.1916 170.432 95.7727 178.72 92.8786 186.179C91.4318 189.908 90.1134 193.437 89.1055 196.358C88.1075 199.25 87.3859 201.623 87.1706 203L89.1466 203.309ZM102.535 165.938C105.626 166.185 107.433 166.468 109.297 166.722C111.176 166.978 113.082 167.199 116.316 167.313L116.387 165.314C113.233 165.203 111.396 164.989 109.567 164.74C107.721 164.489 105.853 164.197 102.695 163.944L102.535 165.938ZM155.182 173.838C156.164 179.281 157.329 186.198 158.456 193.603L160.433 193.302C159.303 185.878 158.135 178.944 157.15 173.482L155.182 173.838ZM162.347 224.652C162.82 230.076 163.076 234.923 163.012 238.718C162.98 240.616 162.868 242.229 162.669 243.508C162.466 244.816 162.188 245.663 161.894 246.118L163.575 247.202C164.104 246.382 164.432 245.189 164.645 243.815C164.863 242.411 164.978 240.699 165.011 238.752C165.077 234.856 164.815 229.93 164.339 224.478L162.347 224.652ZM158.456 193.603C158.54 194.158 158.471 194.522 158.348 194.793C158.218 195.076 157.986 195.35 157.596 195.657C157.196 195.971 156.693 196.271 156.062 196.64C155.448 196.997 154.734 197.408 154.001 197.91C152.516 198.928 150.935 200.334 149.652 202.609C148.374 204.875 147.425 207.942 147.104 212.24L149.099 212.388C149.403 208.311 150.292 205.544 151.394 203.592C152.49 201.648 153.829 200.453 155.132 199.56C155.793 199.107 156.439 198.735 157.069 198.367C157.681 198.01 158.305 197.643 158.831 197.23C159.365 196.811 159.857 196.3 160.166 195.625C160.481 194.937 160.565 194.168 160.433 193.302L158.456 193.603ZM147.102 212.278C146.97 215.963 147.882 218.499 149.489 220.216C151.074 221.908 153.2 222.659 155.196 223.064C156.199 223.268 157.2 223.39 158.113 223.493C159.045 223.597 159.859 223.678 160.564 223.799C161.282 223.922 161.758 224.069 162.047 224.242C162.281 224.382 162.333 224.494 162.347 224.652L164.339 224.478C164.26 223.565 163.75 222.93 163.074 222.525C162.453 222.154 161.671 221.96 160.903 221.828C160.123 221.694 159.224 221.604 158.336 221.505C157.43 221.404 156.504 221.289 155.594 221.104C153.763 220.732 152.118 220.097 150.949 218.849C149.804 217.625 148.982 215.665 149.101 212.35L147.102 212.278Z" fill="black"/>
<path fill-rule="evenodd" clip-rule="evenodd" d="M163.106 222.442C164.227 233.823 164.485 243.049 163.352 246.814C175.352 247.564 194.107 235.24 198.107 226.74C195.985 225.45 194.076 223.808 192.505 221.966C187.326 227.009 172.323 233.051 165.606 226.334C164.402 225.13 163.588 223.804 163.106 222.442ZM159.882 197.841C167.346 190.821 181.905 191.095 191.106 199.836C191.482 200.193 191.838 200.548 192.173 200.901C191.476 199.438 190.813 198.015 190.16 196.615C185.93 187.541 182.157 179.447 172.602 167.814C171.227 179.689 161.352 179.164 155.352 173.564C156.982 181.007 158.543 189.415 159.882 197.841Z" fill="white"/>
<path d="M163.352 246.814L162.394 246.526C162.306 246.818 162.356 247.135 162.531 247.385C162.705 247.636 162.984 247.793 163.289 247.812L163.352 246.814ZM163.106 222.442L164.049 222.108C163.881 221.632 163.383 221.356 162.889 221.465C162.396 221.575 162.062 222.036 162.111 222.54L163.106 222.442ZM198.107 226.74L199.012 227.166C199.229 226.703 199.063 226.151 198.626 225.886L198.107 226.74ZM192.505 221.966L193.266 221.317C193.086 221.107 192.827 220.98 192.551 220.967C192.275 220.954 192.005 221.057 191.807 221.25L192.505 221.966ZM165.606 226.334L166.313 225.627L165.606 226.334ZM159.882 197.841L158.895 197.998C158.953 198.364 159.208 198.668 159.559 198.787C159.91 198.907 160.298 198.823 160.567 198.57L159.882 197.841ZM191.106 199.836L191.795 199.111V199.111L191.106 199.836ZM192.173 200.901L191.449 201.591C191.788 201.947 192.335 202.004 192.74 201.725C193.145 201.446 193.287 200.915 193.076 200.471L192.173 200.901ZM190.16 196.615L189.254 197.038L190.16 196.615ZM172.602 167.814L173.374 167.179C173.12 166.869 172.704 166.741 172.319 166.855C171.934 166.968 171.654 167.3 171.608 167.699L172.602 167.814ZM155.352 173.564L156.034 172.833C155.714 172.534 155.237 172.478 154.857 172.695C154.476 172.912 154.281 173.35 154.375 173.778L155.352 173.564ZM164.309 247.102C164.925 245.056 165.137 241.667 165.074 237.469C165.011 233.232 164.663 228.05 164.102 222.344L162.111 222.54C162.67 228.215 163.012 233.337 163.074 237.499C163.137 241.7 162.911 244.807 162.394 246.526L164.309 247.102ZM197.202 226.314C196.279 228.276 194.459 230.538 191.994 232.837C189.542 235.123 186.504 237.397 183.211 239.39C176.583 243.403 169.109 246.172 163.414 245.816L163.289 247.812C169.594 248.206 177.498 245.188 184.247 241.101C187.643 239.045 190.794 236.691 193.358 234.299C195.91 231.92 197.935 229.454 199.012 227.166L197.202 226.314ZM191.744 222.615C193.383 224.536 195.373 226.248 197.587 227.595L198.626 225.886C196.597 224.651 194.769 223.08 193.266 221.317L191.744 222.615ZM191.807 221.25C189.369 223.624 184.494 226.322 179.391 227.59C174.245 228.868 169.285 228.598 166.313 225.627L164.899 227.041C168.645 230.787 174.544 230.855 179.873 229.531C185.246 228.196 190.461 225.352 193.202 222.682L191.807 221.25ZM166.313 225.627C165.211 224.525 164.48 223.326 164.049 222.108L162.164 222.775C162.696 224.282 163.592 225.734 164.899 227.041L166.313 225.627ZM160.567 198.57C167.584 191.97 181.537 192.125 190.417 200.561L191.795 199.111C182.274 190.066 167.109 189.671 159.197 197.113L160.567 198.57ZM190.417 200.561C190.782 200.907 191.125 201.25 191.449 201.591L192.898 200.212C192.55 199.846 192.183 199.479 191.795 199.111L190.417 200.561ZM189.254 197.038C189.906 198.437 190.571 199.864 191.271 201.331L193.076 200.471C192.381 199.012 191.719 197.593 191.067 196.192L189.254 197.038ZM171.829 168.449C181.304 179.983 185.035 187.987 189.254 197.038L191.067 196.192C186.826 187.095 183.01 178.91 173.374 167.179L171.829 168.449ZM154.669 174.295C157.823 177.239 162.102 178.956 165.9 178.224C167.823 177.854 169.588 176.857 170.954 175.13C172.312 173.414 173.236 171.029 173.595 167.929L171.608 167.699C171.28 170.536 170.454 172.539 169.386 173.889C168.326 175.228 166.99 175.977 165.522 176.26C162.539 176.835 158.88 175.489 156.034 172.833L154.669 174.295ZM160.87 197.684C159.528 189.242 157.964 180.815 156.328 173.35L154.375 173.778C156 181.199 157.558 189.588 158.895 197.998L160.87 197.684Z" fill="black"/>
<path d="M162.132 192.896C161.693 189.687 160.926 188.601 160.529 186.497C165.501 184.955 178.492 181.443 178.889 181.468C180.051 183.847 180.321 183.847 181.566 187.3C175.975 189.155 162.303 192.978 162.132 192.896Z" fill="#788AFD"/>
<path d="M162.714 190.545L162.173 188.547L163.149 188.283C163.401 188.215 163.602 188.212 163.753 188.273C163.906 188.333 164.004 188.442 164.046 188.598C164.075 188.702 164.074 188.801 164.043 188.893C164.013 188.983 163.958 189.061 163.88 189.127C163.802 189.193 163.705 189.241 163.589 189.273L163.611 189.141C163.737 189.107 163.854 189.098 163.962 189.114C164.07 189.127 164.161 189.167 164.236 189.232C164.313 189.297 164.367 189.388 164.399 189.504C164.445 189.675 164.414 189.828 164.305 189.961C164.196 190.093 164.01 190.194 163.747 190.265L162.714 190.545ZM163.079 190.072L163.619 189.926C163.738 189.894 163.824 189.85 163.874 189.796C163.926 189.739 163.941 189.668 163.918 189.582C163.895 189.498 163.847 189.445 163.773 189.422C163.701 189.397 163.605 189.4 163.485 189.433L162.911 189.588L162.82 189.251L163.314 189.117C163.426 189.087 163.507 189.045 163.555 188.991C163.605 188.934 163.62 188.866 163.598 188.786C163.577 188.708 163.531 188.659 163.46 188.637C163.39 188.613 163.299 188.616 163.187 188.647L162.727 188.771L163.079 190.072ZM164.999 188.646L165.96 188.386L166.058 188.746L165.096 189.006L164.999 188.646ZM165.255 189.459L166.343 189.165L166.443 189.536L164.896 189.954L164.356 187.957L165.865 187.548L165.966 187.919L164.916 188.203L165.255 189.459ZM166.811 189.436L166.27 187.439L167.135 187.205C167.314 187.156 167.476 187.144 167.621 187.168C167.766 187.19 167.888 187.246 167.988 187.335C168.088 187.425 168.158 187.544 168.199 187.695C168.239 187.843 168.239 187.981 168.197 188.109C168.156 188.234 168.078 188.343 167.964 188.435C167.85 188.527 167.704 188.597 167.525 188.646L166.917 188.81L167.068 188.552L167.273 189.311L166.811 189.436ZM168.081 189.093L167.385 188.503L167.879 188.369L168.58 188.958L168.081 189.093ZM167.082 188.603L166.818 188.442L167.4 188.285C167.542 188.246 167.641 188.187 167.695 188.107C167.748 188.025 167.76 187.93 167.731 187.821C167.701 187.711 167.643 187.635 167.556 187.593C167.469 187.551 167.354 187.55 167.211 187.588L166.629 187.746L166.775 187.47L167.082 188.603ZM168.647 188.939L168.997 186.701L169.453 186.577L170.887 188.333L170.402 188.465L169.194 186.899L169.377 186.849L169.121 188.811L168.647 188.939ZM168.976 188.391L169.004 188.007L170.031 187.729L170.252 188.046L168.976 188.391ZM172.032 188.06C171.878 188.102 171.728 188.116 171.581 188.103C171.436 188.087 171.302 188.045 171.18 187.979C171.058 187.912 170.952 187.823 170.863 187.712C170.775 187.601 170.711 187.47 170.671 187.32C170.63 187.17 170.619 187.024 170.639 186.884C170.66 186.744 170.706 186.614 170.778 186.494C170.852 186.374 170.948 186.272 171.066 186.187C171.183 186.1 171.32 186.036 171.476 185.993C171.649 185.946 171.813 185.935 171.969 185.958C172.125 185.979 172.267 186.035 172.393 186.125L172.171 186.479C172.081 186.42 171.989 186.382 171.895 186.367C171.801 186.35 171.704 186.354 171.605 186.381C171.512 186.406 171.43 186.445 171.361 186.496C171.291 186.548 171.235 186.61 171.194 186.682C171.152 186.755 171.125 186.834 171.114 186.921C171.105 187.007 171.113 187.098 171.139 187.193C171.165 187.288 171.203 187.371 171.255 187.441C171.308 187.51 171.371 187.565 171.444 187.607C171.516 187.649 171.596 187.674 171.682 187.683C171.768 187.693 171.858 187.685 171.951 187.66C172.05 187.633 172.136 187.589 172.21 187.528C172.283 187.466 172.342 187.385 172.389 187.287L172.76 187.48C172.696 187.622 172.602 187.743 172.478 187.842C172.356 187.94 172.207 188.013 172.032 188.06ZM173.16 187.718L172.619 185.721L173.081 185.596L173.622 187.593L173.16 187.718ZM173.834 187.536L174.183 185.297L174.64 185.174L176.074 186.93L175.589 187.061L174.381 185.495L174.564 185.446L174.307 187.408L173.834 187.536ZM174.163 186.988L174.191 186.603L175.218 186.325L175.439 186.642L174.163 186.988ZM177.227 186.655C177.069 186.697 176.917 186.712 176.77 186.699C176.625 186.683 176.491 186.642 176.366 186.575C176.244 186.508 176.138 186.419 176.049 186.309C175.962 186.198 175.898 186.067 175.857 185.917C175.817 185.766 175.806 185.621 175.825 185.481C175.847 185.341 175.894 185.21 175.968 185.09C176.041 184.97 176.138 184.868 176.258 184.782C176.377 184.695 176.517 184.629 176.677 184.586C176.854 184.538 177.02 184.525 177.177 184.546C177.336 184.566 177.479 184.619 177.606 184.705L177.384 185.059C177.291 185.003 177.197 184.968 177.101 184.955C177.005 184.94 176.907 184.947 176.806 184.974C176.709 185 176.625 185.039 176.553 185.091C176.481 185.143 176.424 185.206 176.38 185.279C176.339 185.351 176.312 185.431 176.301 185.518C176.292 185.604 176.3 185.695 176.325 185.79C176.351 185.883 176.389 185.965 176.441 186.034C176.494 186.104 176.557 186.16 176.63 186.204C176.705 186.245 176.785 186.27 176.871 186.279C176.96 186.288 177.051 186.28 177.146 186.254C177.238 186.229 177.322 186.191 177.4 186.139C177.479 186.085 177.55 186.012 177.613 185.919L177.966 186.182C177.88 186.293 177.77 186.39 177.637 186.473C177.507 186.556 177.37 186.616 177.227 186.655ZM177.527 186.237L177.324 185.486L177.747 185.372L177.966 186.182L177.527 186.237ZM178.192 186.357L178.542 184.118L178.999 183.995L180.433 185.751L179.948 185.882L178.74 184.316L178.922 184.266L178.666 186.229L178.192 186.357ZM178.522 185.808L178.55 185.424L179.577 185.146L179.798 185.463L178.522 185.808Z" fill="white"/>
<path d="M117.294 180.813C136.794 184.312 161.076 189.46 164.676 193.46C165.775 193.949 169.19 193.744 171.018 193.59C171.418 193.534 171.813 193.497 172.202 193.478C172.202 193.478 171.73 193.53 171.018 193.59C163.323 194.663 153.844 202.488 152.98 211.502L154.807 213.327C155.127 215.377 155.954 219.436 157.969 219.772C160.616 220.636 161.878 220.902 163.502 220.302C163.715 222.964 164.637 224.28 165.221 225.393C163.771 226.237 162.092 226.88 160.294 227.46C157.205 229.662 139.94 225.637 136.794 224.813C128.794 222.717 104.86 207.313 101.794 195.812C99.2609 186.312 107.821 179.113 117.294 180.813Z" fill="#686874"/>
<path d="M117.294 180.813L117.117 181.797L117.294 180.813ZM164.676 193.46L163.932 194.129L164.075 194.288L164.269 194.374L164.676 193.46ZM136.794 224.813L137.047 223.845L136.794 224.813ZM101.794 195.812L100.828 196.07L101.794 195.812ZM172.202 193.478L172.312 194.472C172.849 194.413 173.241 193.938 173.199 193.4C173.156 192.861 172.694 192.454 172.154 192.479L172.202 193.478ZM153.404 216.812L154.373 216.564L153.404 216.812ZM165.221 225.393L165.723 226.258L166.551 225.776L166.106 224.929L165.221 225.393ZM163.502 220.302L164.498 220.223L164.393 218.907L163.155 219.364L163.502 220.302ZM157.969 219.772L158.28 218.821L158.208 218.798L158.134 218.786L157.969 219.772ZM154.807 213.327L155.795 213.173L155.745 212.85L155.514 212.619L154.807 213.327ZM152.98 211.502L151.984 211.406L152.98 211.502ZM117.117 181.797C126.859 183.545 137.78 185.703 146.706 187.919C151.172 189.028 155.118 190.147 158.16 191.231C159.682 191.773 160.959 192.3 161.954 192.804C162.97 193.319 163.609 193.77 163.932 194.129L165.419 192.791C164.843 192.151 163.935 191.566 162.858 191.02C161.76 190.463 160.397 189.904 158.831 189.347C155.699 188.231 151.681 187.094 147.188 185.978C138.199 183.746 127.229 181.58 117.471 179.828L117.117 181.797ZM137.047 223.845C135.174 223.355 132.268 222.05 128.871 220.143C125.494 218.246 121.694 215.789 118.046 213.041C114.396 210.29 110.918 207.263 108.173 204.23C105.412 201.178 103.466 198.201 102.76 195.555L100.828 196.07C101.655 199.173 103.851 202.435 106.69 205.572C109.545 208.726 113.126 211.838 116.842 214.638C120.561 217.44 124.436 219.946 127.892 221.886C131.328 223.816 134.414 225.223 136.541 225.78L137.047 223.845ZM102.76 195.555C101.593 191.176 102.975 187.379 105.72 184.847C108.485 182.297 112.672 180.999 117.117 181.797L117.471 179.828C112.444 178.926 107.614 180.378 104.364 183.377C101.093 186.395 99.4622 190.948 100.828 196.07L102.76 195.555ZM164.269 194.374C164.701 194.566 165.258 194.655 165.78 194.704C166.33 194.756 166.954 194.771 167.581 194.766C168.838 194.756 170.177 194.664 171.102 194.587L170.934 192.594C170.03 192.67 168.748 192.757 167.566 192.766C166.974 192.771 166.423 192.756 165.967 192.713C165.483 192.668 165.2 192.599 165.082 192.547L164.269 194.374ZM171.102 194.587C171.464 194.556 171.765 194.528 171.976 194.507C172.081 194.496 172.164 194.488 172.222 194.482C172.25 194.479 172.272 194.476 172.287 194.475C172.295 194.474 172.301 194.473 172.305 194.473C172.307 194.473 172.308 194.473 172.31 194.472C172.31 194.472 172.311 194.472 172.311 194.472C172.311 194.472 172.311 194.472 172.311 194.472C172.311 194.472 172.311 194.472 172.311 194.472C172.312 194.472 172.312 194.472 172.312 194.472C172.312 194.472 172.312 194.472 172.202 193.478C172.092 192.484 172.092 192.484 172.092 192.484C172.092 192.484 172.092 192.484 172.092 192.484C172.092 192.484 172.092 192.484 172.092 192.484C172.092 192.484 172.092 192.484 172.092 192.484C172.092 192.484 172.092 192.484 172.092 192.484C172.091 192.484 172.09 192.485 172.088 192.485C172.085 192.485 172.08 192.486 172.073 192.486C172.06 192.488 172.04 192.49 172.013 192.493C171.959 192.498 171.88 192.507 171.779 192.517C171.576 192.537 171.285 192.564 170.934 192.594L171.102 194.587ZM152.436 217.06C153.385 220.765 155.662 224.556 159.617 228.196L160.971 226.725C157.245 223.295 155.209 219.827 154.373 216.564L152.436 217.06ZM164.718 224.529C163.36 225.319 161.76 225.936 159.987 226.509L160.601 228.412C162.423 227.824 164.182 227.155 165.723 226.258L164.718 224.529ZM166.106 224.929C165.497 223.768 164.692 222.641 164.498 220.223L162.505 220.382C162.737 223.287 163.776 224.792 164.335 225.858L166.106 224.929ZM158.134 218.786C157.959 218.756 157.728 218.635 157.452 218.289C157.176 217.942 156.918 217.445 156.687 216.837C156.227 215.625 155.953 214.182 155.795 213.173L153.819 213.481C153.981 214.522 154.28 216.133 154.817 217.547C155.085 218.253 155.432 218.962 155.887 219.534C156.344 220.108 156.972 220.62 157.805 220.758L158.134 218.786ZM172.154 192.479C171.734 192.499 171.308 192.54 170.88 192.6L171.156 194.581C171.528 194.529 171.893 194.494 172.25 194.477L172.154 192.479ZM170.88 192.6C166.787 193.171 162.311 195.512 158.754 198.838C155.196 202.166 152.446 206.586 151.984 211.406L153.975 211.597C154.377 207.403 156.799 203.405 160.12 200.299C163.444 197.191 167.555 195.083 171.156 194.581L170.88 192.6ZM151.984 211.406C151.81 213.228 151.94 215.126 152.436 217.06L154.373 216.564C153.935 214.855 153.822 213.19 153.975 211.597L151.984 211.406ZM155.514 212.619L153.686 210.794L152.273 212.209L154.1 214.035L155.514 212.619ZM163.155 219.364C161.887 219.832 160.93 219.686 158.28 218.821L157.659 220.723C160.303 221.586 161.869 221.971 163.848 221.241L163.155 219.364ZM159.714 226.646C159.533 226.775 159.127 226.927 158.4 227.02C157.701 227.11 156.822 227.131 155.8 227.092C153.758 227.014 151.259 226.698 148.727 226.284C143.668 225.456 138.597 224.251 137.047 223.845L136.541 225.78C138.137 226.198 143.271 227.418 148.404 228.258C150.968 228.677 153.561 229.007 155.723 229.09C156.803 229.132 157.804 229.113 158.653 229.004C159.473 228.899 160.283 228.696 160.874 228.275L159.714 226.646Z" fill="black"/>
<path d="M121.911 217.118C117.535 213.743 122.894 187.836 132.839 183.977C137.589 185.06 140.59 185.352 145.34 186.852C140.436 188.727 125.342 207.717 134.107 223.597C133.274 223.68 127.185 221.186 121.911 217.118Z" fill="white" stroke="black" stroke-width="2"/>
</svg>
