<svg width="361" height="341" viewBox="0 0 361 341" fill="none" xmlns="http://www.w3.org/2000/svg">
<path fill-rule="evenodd" clip-rule="evenodd" d="M91.0439 248.487C91.0503 248.625 91.057 248.763 91.064 248.901C106.564 255.068 144.664 259.451 169.064 255.651C199.564 250.901 201.314 240.901 199.564 219.401C198.164 202.201 180.216 177.444 171.132 167.028C166.757 172.028 160.442 173.651 151.943 174.151C141.996 174.377 134.582 170.968 129.578 168.667C126.512 167.258 124.352 166.264 123.068 166.778C121.975 167.215 119.727 169.392 116.905 172.964C116.85 175.001 115.735 177.393 113.166 179.993C103.61 189.668 100.225 209.908 100.623 216.504C104.249 216.849 108.241 218.532 108.985 222.999C109.941 228.733 105.8 230.565 103.61 230.764C104.804 232.157 106.715 236.498 104.804 242.71C103.973 245.41 98.2313 247.821 91.0439 248.487Z" fill="#686874"/>
<path d="M91.0439 248.487L90.9517 247.491L90.0012 247.579L90.045 248.533L91.0439 248.487ZM91.064 248.901L90.0653 248.952L90.0978 249.593L90.6943 249.83L91.064 248.901ZM169.064 255.651L168.91 254.663L169.064 255.651ZM199.564 219.401L200.561 219.32L199.564 219.401ZM171.132 167.028L171.886 166.371L171.134 165.508L170.38 166.369L171.132 167.028ZM151.943 174.151L151.966 175.151L151.984 175.15L152.002 175.149L151.943 174.151ZM129.578 168.667L129.996 167.759H129.996L129.578 168.667ZM123.068 166.778L123.44 167.706L123.068 166.778ZM116.905 172.964L116.121 172.344L115.915 172.605L115.906 172.937L116.905 172.964ZM113.166 179.993L112.455 179.29L113.166 179.993ZM100.623 216.504L99.6248 216.564L99.6764 217.418L100.528 217.499L100.623 216.504ZM108.985 222.999L107.999 223.163L108.985 222.999ZM103.61 230.764L103.519 229.768L101.589 229.943L102.85 231.415L103.61 230.764ZM104.804 242.71L105.76 243.004L104.804 242.71ZM90.045 248.533C90.0514 248.672 90.0582 248.812 90.0653 248.952L92.0627 248.851C92.0558 248.714 92.0492 248.577 92.0429 248.441L90.045 248.533ZM90.6943 249.83C98.576 252.966 112.087 255.615 126.631 257.009C141.189 258.405 156.905 258.557 169.218 256.639L168.91 254.663C156.823 256.546 141.289 256.406 126.822 255.018C112.341 253.63 99.052 251.003 91.4336 247.972L90.6943 249.83ZM169.218 256.639C184.496 254.26 192.941 250.527 197.228 244.38C201.495 238.26 201.431 230.014 200.561 219.32L198.567 219.482C199.447 230.289 199.383 237.793 195.587 243.236C191.812 248.651 184.132 252.293 168.91 254.663L169.218 256.639ZM200.561 219.32C199.841 210.476 194.897 199.819 189.086 190.156C183.256 180.459 176.462 171.618 171.886 166.371L170.379 167.685C174.886 172.854 181.608 181.601 187.372 191.186C193.156 200.805 197.887 211.126 198.567 219.482L200.561 219.32ZM170.38 166.369C166.282 171.052 160.323 172.656 151.884 173.153L152.002 175.149C160.561 174.645 167.233 173.003 171.885 167.686L170.38 166.369ZM151.92 173.151C142.221 173.372 134.988 170.054 129.996 167.759L129.16 169.576C134.175 171.882 141.771 175.383 151.966 175.151L151.92 173.151ZM129.996 167.759C128.482 167.063 127.118 166.434 125.97 166.053C124.867 165.685 123.698 165.449 122.697 165.849L123.44 167.706C123.722 167.593 124.276 167.597 125.339 167.95C126.359 168.289 127.609 168.863 129.16 169.576L129.996 167.759ZM122.697 165.849C122.292 166.011 121.858 166.298 121.423 166.641C120.975 166.993 120.473 167.446 119.93 167.986C118.842 169.068 117.548 170.537 116.121 172.344L117.69 173.584C119.085 171.819 120.325 170.414 121.34 169.405C121.848 168.9 122.29 168.503 122.659 168.213C123.04 167.913 123.298 167.763 123.44 167.706L122.697 165.849ZM115.906 172.937C115.86 174.626 114.925 176.79 112.455 179.29L113.878 180.696C116.544 177.996 117.84 175.376 117.905 172.991L115.906 172.937ZM112.455 179.29C107.5 184.307 104.207 191.979 102.199 199.133C100.19 206.291 99.4167 213.118 99.6248 216.564L101.621 216.444C101.431 213.295 102.151 206.703 104.124 199.673C106.099 192.639 109.276 185.354 113.878 180.696L112.455 179.29ZM100.528 217.499C104.008 217.831 107.37 219.387 107.999 223.163L109.972 222.834C109.112 217.677 104.489 215.867 100.718 215.508L100.528 217.499ZM107.999 223.163C108.429 225.747 107.707 227.305 106.767 228.253C105.78 229.248 104.437 229.684 103.519 229.768L103.7 231.76C104.972 231.644 106.795 231.065 108.187 229.661C109.626 228.21 110.497 225.985 109.972 222.834L107.999 223.163ZM102.85 231.415C103.805 232.529 105.666 236.507 103.848 242.416L105.76 243.004C107.765 236.489 105.803 231.786 104.369 230.113L102.85 231.415ZM103.848 242.416C103.721 242.828 103.371 243.33 102.688 243.878C102.015 244.419 101.083 244.951 99.9206 245.439C97.5971 246.415 94.4685 247.165 90.9517 247.491L91.1362 249.483C94.8068 249.143 98.1428 248.355 100.695 247.283C101.97 246.748 103.079 246.129 103.94 245.438C104.793 244.753 105.471 243.942 105.76 243.004L103.848 242.416ZM100.718 215.508C98.4187 215.29 96.1907 215.571 94.8759 216.097L95.6187 217.954C96.5545 217.58 98.4429 217.301 100.528 217.499L100.718 215.508Z" fill="black"/>
<path d="M60.9424 208.4C63.4434 195.901 88.7757 174.984 102.192 165.4C111.443 166.151 116.071 167.778 124.07 167.528C110.87 179.328 98.9433 199.9 100.442 214.4C86.9424 217.484 62.1938 218.4 60.9424 208.4Z" fill="white" stroke="black" stroke-width="2"/>
<path d="M211.086 210.526C208.585 198.027 193.752 175.36 180.335 165.776C171.084 166.527 171.945 166.841 172.726 167.903C184.82 179.216 192.568 200.466 200.193 215.278C205.131 214.403 208.256 215.591 211.086 210.526Z" fill="white" stroke="black" stroke-width="2"/>
<path d="M102.273 164.777C111.023 165.84 120.461 166.09 125.07 166.59C120.215 170.93 115.239 176.422 111.184 182.59C103.943 175.651 93.9434 175.151 89.9053 174.802C94.3827 171.135 98.7931 167.263 102.273 164.777Z" fill="#686874"/>
<path d="M125.07 166.59L125.737 167.335C126.031 167.072 126.143 166.66 126.022 166.284C125.902 165.908 125.571 165.638 125.178 165.596L125.07 166.59ZM102.273 164.777L102.394 163.785L102.008 163.738L101.692 163.964L102.273 164.777ZM89.9053 174.802L89.2717 174.028L87.3693 175.586L89.819 175.798L89.9053 174.802ZM111.184 182.59L110.492 183.312L111.359 184.143L112.019 183.139L111.184 182.59ZM125.178 165.596C122.844 165.343 119.294 165.153 115.288 164.897C111.263 164.639 106.739 164.312 102.394 163.785L102.153 165.77C106.558 166.305 111.128 166.634 115.161 166.892C119.214 167.152 122.687 167.337 124.962 167.584L125.178 165.596ZM101.692 163.964C98.1766 166.475 93.7032 170.399 89.2717 174.028L90.5388 175.575C95.0622 171.871 99.4096 168.052 102.855 165.591L101.692 163.964ZM112.019 183.139C116.021 177.053 120.937 171.626 125.737 167.335L124.404 165.844C119.493 170.234 114.458 175.79 110.348 182.041L112.019 183.139ZM89.819 175.798C93.9179 176.153 103.545 176.655 110.492 183.312L111.876 181.868C104.342 174.648 93.9688 174.15 89.9915 173.805L89.819 175.798Z" fill="black"/>
<path d="M180.586 164.901C171.335 165.652 174.711 165.651 171.412 166.401C176.268 170.742 181.069 176.422 185.125 182.59C188.836 179.651 192.586 180.151 195.461 180.776C191.836 175.401 184.066 167.387 180.586 164.901Z" fill="#686874"/>
<path d="M171.412 166.401L170.746 167.147C170.467 166.898 170.351 166.513 170.444 166.151C170.538 165.789 170.826 165.509 171.191 165.426L171.412 166.401ZM180.586 164.901L180.505 163.905L180.87 163.875L181.167 164.088L180.586 164.901ZM195.461 180.776L196.29 180.217L197.683 182.283L195.249 181.754L195.461 180.776ZM185.125 182.59L185.746 183.374L184.889 184.052L184.289 183.14L185.125 182.59ZM171.191 165.426C171.975 165.248 172.331 165.122 172.564 165.028C172.788 164.938 173.071 164.799 173.517 164.683C174.345 164.469 175.918 164.277 180.505 163.905L180.667 165.898C176.003 166.277 174.638 166.459 174.017 166.62C173.738 166.692 173.668 166.74 173.309 166.884C172.958 167.025 172.499 167.18 171.634 167.376L171.191 165.426ZM181.167 164.088C182.989 165.389 185.856 168.072 188.695 171.068C191.542 174.072 194.433 177.464 196.29 180.217L194.632 181.336C192.864 178.714 190.057 175.412 187.243 172.443C184.422 169.466 181.663 166.9 180.005 165.715L181.167 164.088ZM184.289 183.14C180.275 177.033 175.528 171.422 170.746 167.147L172.079 165.656C177.008 170.062 181.864 175.811 185.96 182.041L184.289 183.14ZM195.249 181.754C192.445 181.144 189.089 180.727 185.746 183.374L184.504 181.806C188.583 178.576 192.727 179.159 195.673 179.799L195.249 181.754Z" fill="black"/>
<path d="M101.443 204.526C90.6434 207.926 72.9439 200.984 65.6939 197.15C62.9434 198.401 57.9432 206.401 58.9439 208.9C65.3439 220.9 89.1105 218.9 100.194 216.4C99.9439 212.401 100.193 208.776 101.443 204.526Z" fill="#686874" stroke="black" stroke-width="2"/>
<path d="M194.818 203.59C199.01 204.716 204.962 205.4 208.837 203.15C211.588 204.401 214.087 213.151 213.086 215.65C210.712 218.525 205.852 219.09 200.756 218.09C199.631 214.09 196.772 208.155 194.818 203.59Z" fill="#686874" stroke="black" stroke-width="2"/>
<path d="M160.94 247.151C165.34 240.751 158.107 195.818 153.94 174.151C147.94 179.751 129.068 181.526 125.318 167.151C113.321 177.151 104.443 190.401 101.443 204.651C125.443 208.401 122.94 233.485 119.94 246.651C128.943 247.651 150.943 250.651 160.94 247.151Z" fill="white"/>
<path d="M153.94 174.151L154.922 173.963C154.854 173.605 154.596 173.313 154.25 173.201C153.904 173.088 153.524 173.172 153.258 173.42L153.94 174.151ZM160.94 247.151L161.271 248.095L161.579 247.987L161.764 247.718L160.94 247.151ZM119.94 246.651L118.965 246.429L118.717 247.522L119.83 247.645L119.94 246.651ZM101.443 204.651L100.465 204.445L100.248 205.477L101.289 205.639L101.443 204.651ZM125.318 167.151L126.286 166.899C126.2 166.568 125.95 166.304 125.624 166.199C125.298 166.095 124.941 166.164 124.678 166.383L125.318 167.151ZM152.958 174.34C155.039 185.159 157.885 201.785 159.66 216.496C160.548 223.855 161.166 230.711 161.289 236.115C161.351 238.818 161.288 241.133 161.08 242.952C160.867 244.82 160.516 246.004 160.116 246.585L161.764 247.718C162.465 246.699 162.85 245.079 163.067 243.179C163.29 241.232 163.351 238.817 163.289 236.069C163.163 230.571 162.537 223.64 161.646 216.257C159.863 201.485 157.009 184.81 154.922 173.963L152.958 174.34ZM160.61 246.208C155.822 247.884 148.01 248.029 140.123 247.59C132.284 247.155 124.575 246.16 120.051 245.658L119.83 247.645C124.309 248.143 132.101 249.148 140.012 249.587C147.875 250.024 156.062 249.919 161.271 248.095L160.61 246.208ZM120.915 246.874C122.425 240.25 123.844 230.503 121.79 221.888C120.759 217.564 118.843 213.483 115.586 210.236C112.323 206.983 107.777 204.629 101.598 203.663L101.289 205.639C107.11 206.549 111.25 208.737 114.174 211.652C117.105 214.575 118.876 218.291 119.844 222.352C121.789 230.508 120.456 239.886 118.965 246.429L120.915 246.874ZM102.422 204.857C105.367 190.869 114.099 177.805 125.959 167.92L124.678 166.383C112.544 176.498 103.52 189.934 100.465 204.445L102.422 204.857ZM124.351 167.404C126.36 175.105 132.456 178.452 138.676 179.136C141.778 179.477 144.943 179.166 147.728 178.406C150.499 177.65 152.968 176.427 154.623 174.882L153.258 173.42C151.913 174.676 149.773 175.775 147.201 176.477C144.642 177.175 141.73 177.46 138.895 177.148C133.242 176.526 128.027 173.573 126.286 166.899L124.351 167.404Z" fill="black"/>
<path d="M161.568 247.901C164.203 239.151 160.008 200.216 154.258 173.966C160.258 179.566 170.068 178.276 171.443 166.401C183.44 176.401 188.818 191.526 194.443 203.151C177.943 205.151 185.943 231.901 195.193 237.526C191.068 243.526 173.568 248.651 161.568 247.901Z" fill="white" stroke="black" stroke-width="2" stroke-linejoin="round"/>
<path d="M163.013 195.62C163.018 195.28 162.138 191.162 161.638 189.058C167.909 187.516 180.575 184.439 181.075 184.464C181.575 184.489 183.263 188.37 184.044 190.308C176.992 192.162 163.229 195.702 163.013 195.62Z" fill="#788AFD"/>
<path d="M164.129 193.075L163.627 191.067L164.608 190.822C164.86 190.759 165.062 190.76 165.212 190.824C165.364 190.887 165.459 190.997 165.499 191.154C165.525 191.259 165.522 191.358 165.49 191.449C165.458 191.538 165.402 191.615 165.322 191.68C165.243 191.744 165.145 191.791 165.028 191.82L165.053 191.689C165.18 191.658 165.297 191.651 165.405 191.668C165.512 191.684 165.603 191.725 165.676 191.792C165.752 191.859 165.804 191.95 165.834 192.067C165.877 192.239 165.842 192.391 165.731 192.522C165.619 192.652 165.431 192.75 165.167 192.816L164.129 193.075ZM164.503 192.61L165.045 192.474C165.166 192.444 165.252 192.402 165.304 192.349C165.357 192.293 165.372 192.222 165.351 192.136C165.33 192.052 165.283 191.997 165.21 191.973C165.138 191.946 165.042 191.948 164.921 191.978L164.345 192.122L164.26 191.784L164.756 191.66C164.869 191.631 164.951 191.591 165 191.538C165.051 191.482 165.067 191.414 165.047 191.334C165.027 191.256 164.982 191.205 164.911 191.182C164.842 191.157 164.751 191.158 164.638 191.186L164.176 191.302L164.503 192.61ZM166.45 191.221L167.416 190.979L167.507 191.341L166.54 191.582L166.45 191.221ZM166.691 192.038L167.784 191.765L167.877 192.138L166.322 192.527L165.82 190.519L167.338 190.14L167.431 190.513L166.375 190.776L166.691 192.038ZM168.247 192.046L167.745 190.038L168.614 189.821C168.793 189.776 168.956 189.767 169.101 189.793C169.245 189.818 169.366 189.876 169.464 189.968C169.562 190.059 169.63 190.18 169.668 190.331C169.705 190.48 169.702 190.618 169.658 190.745C169.614 190.87 169.535 190.977 169.419 191.067C169.303 191.157 169.156 191.224 168.976 191.269L168.365 191.422L168.52 191.167L168.711 191.93L168.247 192.046ZM169.523 191.727L168.839 191.124L169.335 190.999L170.025 191.601L169.523 191.727ZM168.533 191.218L168.272 191.052L168.857 190.906C169.001 190.87 169.1 190.812 169.156 190.733C169.211 190.653 169.225 190.558 169.197 190.449C169.17 190.338 169.113 190.261 169.027 190.217C168.941 190.174 168.826 190.17 168.682 190.206L168.097 190.352L168.249 190.08L168.533 191.218ZM170.092 191.584L170.485 189.353L170.944 189.238L172.343 191.021L171.856 191.143L170.678 189.554L170.862 189.508L170.568 191.465L170.092 191.584ZM170.432 191.042L170.467 190.659L171.499 190.4L171.714 190.722L170.432 191.042ZM173.493 190.77C173.338 190.809 173.188 190.82 173.041 190.804C172.897 190.786 172.764 190.742 172.643 190.672C172.522 190.603 172.418 190.512 172.331 190.4C172.246 190.287 172.184 190.155 172.146 190.004C172.109 189.853 172.101 189.708 172.123 189.568C172.147 189.428 172.196 189.299 172.27 189.181C172.346 189.062 172.444 188.962 172.563 188.879C172.682 188.794 172.82 188.732 172.977 188.693C173.151 188.65 173.315 188.641 173.47 188.667C173.626 188.691 173.767 188.75 173.892 188.842L173.662 189.192C173.574 189.131 173.483 189.092 173.389 189.075C173.295 189.056 173.198 189.058 173.099 189.083C173.005 189.107 172.923 189.143 172.852 189.194C172.781 189.244 172.724 189.305 172.681 189.377C172.638 189.448 172.61 189.527 172.598 189.614C172.587 189.7 172.593 189.791 172.617 189.886C172.641 189.982 172.678 190.065 172.728 190.136C172.78 190.206 172.842 190.263 172.914 190.306C172.985 190.349 173.064 190.376 173.15 190.387C173.236 190.398 173.326 190.392 173.42 190.368C173.519 190.343 173.606 190.301 173.681 190.242C173.755 190.181 173.817 190.101 173.865 190.004L174.232 190.205C174.166 190.345 174.07 190.464 173.943 190.56C173.819 190.656 173.669 190.727 173.493 190.77ZM174.627 190.45L174.125 188.443L174.59 188.326L175.092 190.334L174.627 190.45ZM175.305 190.281L175.697 188.05L176.156 187.935L177.556 189.718L177.068 189.84L175.891 188.251L176.075 188.205L175.781 190.162L175.305 190.281ZM175.644 189.739L175.68 189.355L176.712 189.097L176.926 189.418L175.644 189.739ZM178.714 189.465C178.556 189.505 178.403 189.516 178.257 189.5C178.112 189.482 177.978 189.438 177.855 189.369C177.734 189.3 177.63 189.209 177.543 189.096C177.458 188.984 177.397 188.852 177.359 188.701C177.321 188.55 177.314 188.404 177.335 188.265C177.359 188.125 177.409 187.995 177.485 187.877C177.561 187.758 177.66 187.657 177.781 187.574C177.902 187.489 178.043 187.426 178.204 187.386C178.382 187.342 178.549 187.332 178.705 187.355C178.863 187.379 179.005 187.435 179.131 187.523L178.902 187.873C178.81 187.815 178.716 187.778 178.621 187.763C178.526 187.747 178.427 187.751 178.326 187.776C178.228 187.801 178.143 187.838 178.07 187.889C177.998 187.94 177.939 188.001 177.894 188.073C177.851 188.145 177.823 188.224 177.81 188.311C177.799 188.397 177.806 188.487 177.83 188.583C177.853 188.677 177.89 188.759 177.94 188.83C177.992 188.9 178.054 188.958 178.126 189.003C178.2 189.045 178.28 189.072 178.366 189.083C178.454 189.093 178.546 189.087 178.641 189.063C178.733 189.04 178.818 189.003 178.897 188.953C178.978 188.9 179.05 188.829 179.115 188.737L179.462 189.007C179.374 189.116 179.263 189.211 179.128 189.291C178.996 189.371 178.858 189.429 178.714 189.465ZM179.023 189.053L178.834 188.298L179.259 188.192L179.462 189.007L179.023 189.053ZM179.685 189.186L180.078 186.954L180.537 186.839L181.937 188.623L181.449 188.745L180.272 187.156L180.455 187.11L180.161 189.067L179.685 189.186ZM180.025 188.644L180.06 188.26L181.093 188.002L181.307 188.323L180.025 188.644Z" fill="white"/>
</svg>
