<svg width="1648" height="272" viewBox="0 0 1648 272" fill="none" xmlns="http://www.w3.org/2000/svg">
  <path d="M1650.26 272H-7.66602V88.3064L1520.98 86.6064L1650.08 88.3124L1650.26 272Z" fill="#556592"/>
  <path d="M48.5712 13.2286C48.5775 11.1426 48.0498 9.08977 47.0385 7.26532C46.0271 5.44087 44.5657 3.90557 42.7933 2.80554C41.0209 1.70552 38.9965 1.07738 36.9127 0.980865C34.8289 0.884354 32.7551 1.3227 30.8886 2.25419C29.0221 3.18567 27.4251 4.57926 26.2494 6.30242C25.0737 8.02558 24.3586 10.0209 24.172 12.0986C23.9855 14.1762 24.3337 16.2671 25.1836 18.1721C26.0334 20.0772 27.3567 21.733 29.0274 22.9821V85.6697H43.7774V22.9821C45.2787 21.8401 46.4935 20.3641 47.3256 18.6712C48.1576 16.9783 48.5841 15.1149 48.5712 13.2286Z" fill="white"/>
  <path d="M98.2587 13.2286C98.2649 11.1426 97.7373 9.08977 96.726 7.26532C95.7146 5.44087 94.2532 3.90557 92.4808 2.80554C90.7084 1.70552 88.684 1.07738 86.6002 0.980865C84.5164 0.884354 82.4426 1.3227 80.5761 2.25419C78.7096 3.18567 77.1126 4.57926 75.9369 6.30242C74.7612 8.02558 74.0461 10.0209 73.8595 12.0986C73.673 14.1762 74.0212 16.2671 74.8711 18.1721C75.7209 20.0772 77.0442 21.733 78.7149 22.9821V85.6697H93.4649V22.9821C94.9662 21.8401 96.181 20.3641 97.0131 18.6712C97.8451 16.9783 98.2716 15.1149 98.2587 13.2286Z" fill="white"/>
  <path d="M147.929 13.2286C147.935 11.1426 147.407 9.08977 146.396 7.26532C145.385 5.44087 143.923 3.90557 142.151 2.80554C140.378 1.70552 138.354 1.07738 136.27 0.980865C134.186 0.884354 132.113 1.3227 130.246 2.25419C128.38 3.18567 126.782 4.57926 125.607 6.30242C124.431 8.02558 123.716 10.0209 123.529 12.0986C123.343 14.1762 123.691 16.2671 124.541 18.1721C125.391 20.0772 126.714 21.733 128.385 22.9821V85.6697H143.116V22.9821C144.621 21.842 145.839 20.3669 146.675 18.6739C147.51 16.9809 147.939 15.1165 147.929 13.2286Z" fill="white"/>
  <path d="M197.62 13.2286C197.626 11.1426 197.099 9.08977 196.087 7.26532C195.076 5.44087 193.615 3.90557 191.842 2.80554C190.07 1.70552 188.045 1.07738 185.962 0.980865C183.878 0.884354 181.804 1.3227 179.937 2.25419C178.071 3.18567 176.474 4.57926 175.298 6.30242C174.123 8.02558 173.407 10.0209 173.221 12.0986C173.034 14.1762 173.383 16.2671 174.232 18.1721C175.082 20.0772 176.406 21.733 178.076 22.9821V85.6697H192.826V22.9821C194.324 21.8371 195.537 20.3606 196.369 18.6684C197.2 16.9761 197.629 15.1142 197.62 13.2286Z" fill="white"/>
  <path d="M247.29 13.2286C247.296 11.1426 246.769 9.08977 245.757 7.26532C244.746 5.44087 243.284 3.90557 241.512 2.80554C239.74 1.70552 237.715 1.07738 235.631 0.980865C233.548 0.884354 231.474 1.3227 229.607 2.25419C227.741 3.18567 226.144 4.57926 224.968 6.30242C223.792 8.02558 223.077 10.0209 222.891 12.0986C222.704 14.1762 223.052 16.2671 223.902 18.1721C224.752 20.0772 226.075 21.733 227.746 22.9821V85.6697H242.404V22.9821C243.922 21.8497 245.155 20.378 246.003 18.6846C246.851 16.9911 247.292 15.1227 247.29 13.2286Z" fill="white"/>
  <path d="M296.977 13.2286C296.984 11.1426 296.456 9.08977 295.445 7.26532C294.433 5.44087 292.972 3.90557 291.2 2.80554C289.427 1.70552 287.403 1.07738 285.319 0.980865C283.235 0.884354 281.161 1.3227 279.295 2.25419C277.428 3.18567 275.831 4.57926 274.656 6.30242C273.48 8.02558 272.765 10.0209 272.578 12.0986C272.392 14.1762 272.74 16.2671 273.59 18.1721C274.44 20.0772 275.763 21.733 277.434 22.9821V85.6697H292.184V22.9821C293.682 21.8371 294.894 20.3606 295.726 18.6684C296.558 16.9761 296.986 15.1142 296.977 13.2286Z" fill="white"/>
  <path d="M346.649 13.2286C346.656 11.1426 346.128 9.08977 345.117 7.26532C344.105 5.44087 342.644 3.90557 340.871 2.80554C339.099 1.70552 337.075 1.07738 334.991 0.980865C332.907 0.884354 330.833 1.3227 328.967 2.25419C327.1 3.18567 325.503 4.57926 324.328 6.30242C323.152 8.02558 322.437 10.0209 322.25 12.0986C322.064 14.1762 322.412 16.2671 323.262 18.1721C324.112 20.0772 325.435 21.733 327.105 22.9821V85.6697H341.856V22.9821C343.357 21.8401 344.572 20.3641 345.404 18.6712C346.236 16.9783 346.662 15.1149 346.649 13.2286Z" fill="white"/>
  <path d="M396.339 13.2286C396.345 11.1426 395.817 9.08977 394.806 7.26532C393.795 5.44087 392.333 3.90557 390.561 2.80554C388.788 1.70552 386.764 1.07738 384.68 0.980865C382.596 0.884354 380.523 1.3227 378.656 2.25419C376.79 3.18567 375.193 4.57926 374.017 6.30242C372.841 8.02558 372.126 10.0209 371.94 12.0986C371.753 14.1762 372.101 16.2671 372.951 18.1721C373.801 20.0772 375.124 21.733 376.795 22.9821V85.6697H391.453V22.9821C392.968 21.8467 394.198 20.3744 395.046 18.6816C395.894 16.9888 396.337 15.122 396.339 13.2286Z" fill="white"/>
  <path d="M446.007 13.2286C446.013 11.1426 445.485 9.08977 444.474 7.26532C443.463 5.44087 442.001 3.90557 440.229 2.80554C438.456 1.70552 436.432 1.07738 434.348 0.980865C432.264 0.884354 430.191 1.3227 428.324 2.25419C426.458 3.18567 424.861 4.57926 423.685 6.30242C422.509 8.02558 421.794 10.0209 421.608 12.0986C421.421 14.1762 421.769 16.2671 422.619 18.1721C423.469 20.0772 424.792 21.733 426.463 22.9821V85.6697H441.121V22.9821C442.639 21.8497 443.872 20.378 444.72 18.6846C445.568 16.9911 446.009 15.1227 446.007 13.2286Z" fill="white"/>
  <path d="M495.698 13.2286C495.704 11.1426 495.177 9.08977 494.165 7.26532C493.154 5.44087 491.693 3.90557 489.92 2.80554C488.148 1.70552 486.123 1.07738 484.04 0.980865C481.956 0.884354 479.882 1.3227 478.016 2.25419C476.149 3.18567 474.552 4.57926 473.376 6.30242C472.201 8.02558 471.486 10.0209 471.299 12.0986C471.112 14.1762 471.461 16.2671 472.311 18.1721C473.16 20.0772 474.484 21.733 476.154 22.9821V85.6697H490.812V22.9821C492.327 21.8467 493.557 20.3744 494.405 18.6816C495.253 16.9888 495.696 15.122 495.698 13.2286Z" fill="white"/>
  <path d="M545.368 13.2286C545.374 11.1426 544.847 9.08977 543.835 7.26532C542.824 5.44087 541.363 3.90557 539.59 2.80554C537.818 1.70552 535.793 1.07738 533.71 0.980865C531.626 0.884354 529.552 1.3227 527.685 2.25419C525.819 3.18567 524.222 4.57926 523.046 6.30242C521.871 8.02558 521.155 10.0209 520.969 12.0986C520.782 14.1762 521.131 16.2671 521.98 18.1721C522.83 20.0772 524.154 21.733 525.824 22.9821V85.6697H540.482V22.9821C542 21.8497 543.233 20.378 544.081 18.6846C544.93 16.9911 545.37 15.1227 545.368 13.2286Z" fill="white"/>
  <path d="M595.056 13.2286C595.062 11.1426 594.534 9.08977 593.523 7.26532C592.511 5.44087 591.05 3.90557 589.278 2.80554C587.505 1.70552 585.481 1.07738 583.397 0.980865C581.313 0.884354 579.239 1.3227 577.373 2.25419C575.506 3.18567 573.909 4.57926 572.734 6.30242C571.558 8.02558 570.843 10.0209 570.656 12.0986C570.47 14.1762 570.818 16.2671 571.668 18.1721C572.518 20.0772 573.841 21.733 575.512 22.9821V85.6697H590.262V22.9821C591.76 21.8371 592.972 20.3606 593.804 18.6684C594.636 16.9761 595.064 15.1142 595.056 13.2286Z" fill="white"/>
  <path d="M644.729 13.2286C644.736 11.1426 644.208 9.08977 643.197 7.26532C642.185 5.44087 640.724 3.90557 638.951 2.80554C637.179 1.70552 635.155 1.07738 633.071 0.980865C630.987 0.884354 628.913 1.3227 627.047 2.25419C625.18 3.18567 623.583 4.57926 622.408 6.30242C621.232 8.02558 620.517 10.0209 620.33 12.0986C620.144 14.1762 620.492 16.2671 621.342 18.1721C622.192 20.0772 623.515 21.733 625.186 22.9821V85.6697H639.936V22.9821C641.437 21.8401 642.652 20.3641 643.484 18.6712C644.316 16.9783 644.742 15.1149 644.729 13.2286Z" fill="white"/>
  <path d="M694.399 13.2295C694.403 11.1451 693.874 9.09425 692.862 7.27192C691.85 5.44959 690.389 3.91631 688.618 2.81777C686.846 1.71924 684.823 1.09196 682.741 0.995515C680.659 0.899074 678.586 1.33667 676.721 2.26675C674.855 3.19684 673.259 4.58849 672.083 6.30947C670.907 8.03046 670.19 10.0236 670.001 12.0995C669.813 14.1754 670.158 16.2651 671.004 18.17C671.851 20.0749 673.17 21.7317 674.837 22.983V85.6706H689.587V22.983C691.089 21.8399 692.305 20.3642 693.14 18.6719C693.975 16.9795 694.406 15.1166 694.399 13.2295Z" fill="white"/>
  <path d="M744.181 13.2286C744.187 11.1426 743.659 9.08977 742.648 7.26532C741.636 5.44087 740.175 3.90557 738.403 2.80554C736.63 1.70552 734.606 1.07738 732.522 0.980865C730.438 0.884354 728.364 1.3227 726.498 2.25419C724.632 3.18567 723.034 4.57926 721.859 6.30242C720.683 8.02558 719.968 10.0209 719.781 12.0986C719.595 14.1762 719.943 16.2671 720.793 18.1721C721.643 20.0772 722.966 21.733 724.637 22.9821V85.6697H739.295V22.9821C740.813 21.8497 742.045 20.378 742.894 18.6846C743.742 16.9911 744.183 15.1227 744.181 13.2286Z" fill="white"/>
  <path d="M793.778 13.2295C793.782 11.1451 793.253 9.09425 792.241 7.27192C791.229 5.44959 789.768 3.91631 787.996 2.81777C786.225 1.71924 784.202 1.09196 782.12 0.995515C780.037 0.899074 777.965 1.33667 776.1 2.26675C774.234 3.19684 772.638 4.58849 771.462 6.30947C770.285 8.03046 769.569 10.0236 769.38 12.0995C769.192 14.1754 769.537 16.2651 770.383 18.17C771.229 20.0749 772.549 21.7317 774.216 22.983V85.6706H788.966V22.983C790.468 21.8399 791.684 20.3642 792.518 18.6719C793.353 16.9795 793.785 15.1166 793.778 13.2295Z" fill="white"/>
  <path d="M843.448 13.2286C843.454 11.1426 842.927 9.08977 841.915 7.26532C840.904 5.44087 839.443 3.90557 837.67 2.80554C835.898 1.70552 833.873 1.07738 831.79 0.980865C829.706 0.884354 827.632 1.3227 825.766 2.25419C823.899 3.18567 822.302 4.57926 821.126 6.30242C819.951 8.02558 819.236 10.0209 819.049 12.0986C818.862 14.1762 819.211 16.2671 820.061 18.1721C820.91 20.0772 822.234 21.733 823.904 22.9821V85.6697H838.562V22.9821C840.08 21.8497 841.313 20.378 842.161 18.6846C843.01 16.9911 843.45 15.1227 843.448 13.2286Z" fill="white"/>
  <path d="M893.136 13.2295C893.14 11.1451 892.61 9.09425 891.598 7.27192C890.586 5.44959 889.125 3.91631 887.354 2.81777C885.582 1.71924 883.559 1.09196 881.477 0.995515C879.395 0.899074 877.323 1.33667 875.457 2.26675C873.592 3.19684 871.995 4.58849 870.819 6.30947C869.643 8.03046 868.926 10.0236 868.738 12.0995C868.549 14.1754 868.894 16.2651 869.741 18.17C870.587 20.0749 871.906 21.7317 873.573 22.983V85.6706H888.231V22.983C889.752 21.8515 890.987 20.3805 891.839 18.6871C892.69 16.9938 893.134 15.1249 893.136 13.2295Z" fill="white"/>
  <path d="M942.809 13.2286C942.816 11.1426 942.288 9.08977 941.277 7.26532C940.265 5.44087 938.804 3.90557 937.032 2.80554C935.259 1.70552 933.235 1.07738 931.151 0.980865C929.067 0.884354 926.993 1.3227 925.127 2.25419C923.26 3.18567 921.663 4.57926 920.488 6.30242C919.312 8.02558 918.597 10.0209 918.41 12.0986C918.224 14.1762 918.572 16.2671 919.422 18.1721C920.272 20.0772 921.595 21.733 923.266 22.9821V85.6697H938.016V22.9821C939.517 21.8401 940.732 20.3641 941.564 18.6712C942.396 16.9783 942.822 15.1149 942.809 13.2286Z" fill="white"/>
  <path d="M992.479 13.2286C992.486 11.1426 991.958 9.08977 990.947 7.26532C989.935 5.44087 988.474 3.90557 986.702 2.80554C984.929 1.70552 982.905 1.07738 980.821 0.980865C978.737 0.884354 976.663 1.3227 974.797 2.25419C972.93 3.18567 971.333 4.57926 970.158 6.30242C968.982 8.02558 968.267 10.0209 968.08 12.0986C967.894 14.1762 968.242 16.2671 969.092 18.1721C969.942 20.0772 971.265 21.733 972.936 22.9821V85.6697H987.557V22.9821C989.082 21.8536 990.321 20.3836 991.176 18.6899C992.031 16.9962 992.477 15.1259 992.479 13.2286Z" fill="white"/>
  <path d="M1043.17 13.2286C1043.17 11.1426 1042.65 9.08977 1041.63 7.26532C1040.62 5.44087 1039.16 3.90557 1037.39 2.80554C1035.62 1.70552 1033.59 1.07738 1031.51 0.980865C1029.42 0.884354 1027.35 1.3227 1025.48 2.25419C1023.62 3.18567 1022.02 4.57926 1020.85 6.30242C1019.67 8.02558 1018.95 10.0209 1018.77 12.0986C1018.58 14.1762 1018.93 16.2671 1019.78 18.1721C1020.63 20.0772 1021.95 21.733 1023.62 22.9821V85.6697H1038.37V22.9821C1039.87 21.8401 1041.09 20.3641 1041.92 18.6712C1042.75 16.9783 1043.18 15.1149 1043.17 13.2286Z" fill="white"/>
  <path d="M1396.18 13.2286C1396.18 11.1426 1395.66 9.08977 1394.64 7.26532C1393.63 5.44087 1392.17 3.90557 1390.4 2.80554C1388.63 1.70552 1386.6 1.07738 1384.52 0.980865C1382.43 0.884354 1380.36 1.3227 1378.49 2.25419C1376.63 3.18567 1375.03 4.57926 1373.85 6.30242C1372.68 8.02558 1371.96 10.0209 1371.78 12.0986C1371.59 14.1762 1371.94 16.2671 1372.79 18.1721C1373.64 20.0772 1374.96 21.733 1376.63 22.9821V85.6697H1391.38V22.9821C1392.88 21.8401 1394.1 20.3641 1394.93 18.6712C1395.76 16.9783 1396.19 15.1149 1396.18 13.2286Z" fill="white"/>
  <path d="M1093.84 13.2286C1093.85 11.1426 1093.32 9.08977 1092.31 7.26532C1091.3 5.44087 1089.84 3.90557 1088.06 2.80554C1086.29 1.70552 1084.27 1.07738 1082.18 0.980865C1080.1 0.884354 1078.02 1.3227 1076.16 2.25419C1074.29 3.18567 1072.69 4.57926 1071.52 6.30242C1070.34 8.02558 1069.63 10.0209 1069.44 12.0986C1069.26 14.1762 1069.6 16.2671 1070.45 18.1721C1071.3 20.0772 1072.63 21.733 1074.3 22.9821V85.6697H1088.95V22.9821C1090.47 21.8497 1091.71 20.378 1092.55 18.6846C1093.4 16.9911 1093.84 15.1227 1093.84 13.2286Z" fill="white"/>
  <path d="M1446.85 13.2286C1446.86 11.1426 1446.33 9.08977 1445.32 7.26532C1444.31 5.44087 1442.85 3.90557 1441.07 2.80554C1439.3 1.70552 1437.28 1.07738 1435.19 0.980865C1433.11 0.884354 1431.03 1.3227 1429.17 2.25419C1427.3 3.18567 1425.7 4.57926 1424.53 6.30242C1423.35 8.02558 1422.64 10.0209 1422.45 12.0986C1422.26 14.1762 1422.61 16.2671 1423.46 18.1721C1424.31 20.0772 1425.64 21.733 1427.31 22.9821V85.6697H1441.96V22.9821C1443.48 21.8497 1444.72 20.378 1445.56 18.6846C1446.41 16.9911 1446.85 15.1227 1446.85 13.2286Z" fill="white"/>
  <path d="M1144.53 13.2286C1144.53 11.1426 1144.01 9.08977 1143 7.26532C1141.98 5.44087 1140.52 3.90557 1138.75 2.80554C1136.98 1.70552 1134.95 1.07738 1132.87 0.980865C1130.79 0.884354 1128.71 1.3227 1126.85 2.25419C1124.98 3.18567 1123.38 4.57926 1122.21 6.30242C1121.03 8.02558 1120.32 10.0209 1120.13 12.0986C1119.94 14.1762 1120.29 16.2671 1121.14 18.1721C1121.99 20.0772 1123.31 21.733 1124.98 22.9821V85.6697H1139.73V22.9821C1141.24 21.8401 1142.45 20.3641 1143.28 18.6712C1144.11 16.9783 1144.54 15.1149 1144.53 13.2286Z" fill="white"/>
  <path d="M1497.54 13.2286C1497.54 11.1426 1497.02 9.08977 1496.01 7.26532C1494.99 5.44087 1493.53 3.90557 1491.76 2.80554C1489.99 1.70552 1487.96 1.07738 1485.88 0.980865C1483.8 0.884354 1481.72 1.3227 1479.86 2.25419C1477.99 3.18567 1476.39 4.57926 1475.22 6.30242C1474.04 8.02558 1473.33 10.0209 1473.14 12.0986C1472.95 14.1762 1473.3 16.2671 1474.15 18.1721C1475 20.0772 1476.32 21.733 1477.99 22.9821V85.6697H1492.74V22.9821C1494.25 21.8401 1495.46 20.3641 1496.29 18.6712C1497.12 16.9783 1497.55 15.1149 1497.54 13.2286Z" fill="white"/>
  <path d="M1195.2 13.2286C1195.2 11.1426 1194.68 9.08977 1193.67 7.26532C1192.65 5.44087 1191.19 3.90557 1189.42 2.80554C1187.65 1.70552 1185.62 1.07738 1183.54 0.980865C1181.46 0.884354 1179.38 1.3227 1177.52 2.25419C1175.65 3.18567 1174.05 4.57926 1172.88 6.30242C1171.7 8.02558 1170.99 10.0209 1170.8 12.0986C1170.61 14.1762 1170.96 16.2671 1171.81 18.1721C1172.66 20.0772 1173.98 21.733 1175.65 22.9821V85.6697H1190.31V22.9821C1191.83 21.8497 1193.06 20.378 1193.91 18.6846C1194.76 16.9911 1195.2 15.1227 1195.2 13.2286Z" fill="white"/>
  <path d="M1548.21 13.2286C1548.21 11.1426 1547.69 9.08977 1546.68 7.26532C1545.66 5.44087 1544.2 3.90557 1542.43 2.80554C1540.66 1.70552 1538.63 1.07738 1536.55 0.980865C1534.47 0.884354 1532.39 1.3227 1530.53 2.25419C1528.66 3.18567 1527.06 4.57926 1525.89 6.30242C1524.71 8.02558 1524 10.0209 1523.81 12.0986C1523.62 14.1762 1523.97 16.2671 1524.82 18.1721C1525.67 20.0772 1526.99 21.733 1528.66 22.9821V85.6697H1543.32V22.9821C1544.84 21.8497 1546.07 20.378 1546.92 18.6846C1547.77 16.9911 1548.21 15.1227 1548.21 13.2286Z" fill="white"/>
  <path d="M1246.89 13.2286C1246.9 11.1426 1246.37 9.08977 1245.36 7.26532C1244.35 5.44087 1242.88 3.90557 1241.11 2.80554C1239.34 1.70552 1237.31 1.07738 1235.23 0.980865C1233.15 0.884354 1231.07 1.3227 1229.21 2.25419C1227.34 3.18567 1225.74 4.57926 1224.57 6.30242C1223.39 8.02558 1222.68 10.0209 1222.49 12.0986C1222.3 14.1762 1222.65 16.2671 1223.5 18.1721C1224.35 20.0772 1225.67 21.733 1227.35 22.9821V85.6697H1242.1V22.9821C1243.6 21.8401 1244.81 20.3641 1245.64 18.6712C1246.48 16.9783 1246.9 15.1149 1246.89 13.2286Z" fill="white"/>
  <path d="M1598.9 13.2286C1598.91 11.1426 1598.38 9.08977 1597.37 7.26532C1596.36 5.44087 1594.89 3.90557 1593.12 2.80554C1591.35 1.70552 1589.32 1.07738 1587.24 0.980865C1585.16 0.884354 1583.08 1.3227 1581.22 2.25419C1579.35 3.18567 1577.75 4.57926 1576.58 6.30242C1575.4 8.02558 1574.69 10.0209 1574.5 12.0986C1574.31 14.1762 1574.66 16.2671 1575.51 18.1721C1576.36 20.0772 1577.68 21.733 1579.36 22.9821V85.6697H1594.11V22.9821C1595.61 21.8401 1596.82 20.3641 1597.65 18.6712C1598.49 16.9783 1598.91 15.1149 1598.9 13.2286Z" fill="white"/>
  <path d="M1645.25 13.2286C1645.26 11.1426 1644.73 9.08977 1643.72 7.26532C1642.71 5.44087 1641.25 3.90557 1639.48 2.80554C1637.7 1.70552 1635.68 1.07738 1633.6 0.980865C1631.51 0.884354 1629.44 1.3227 1627.57 2.25419C1625.71 3.18567 1624.11 4.57926 1622.93 6.30242C1621.76 8.02558 1621.04 10.0209 1620.86 12.0986C1620.67 14.1762 1621.02 16.2671 1621.87 18.1721C1622.72 20.0772 1624.04 21.733 1625.71 22.9821V85.6697H1640.46V22.9821C1641.96 21.8401 1643.18 20.3641 1644.01 18.6712C1644.84 16.9783 1645.27 15.1149 1645.25 13.2286Z" fill="white"/>
  <path d="M1298.56 13.2286C1298.57 11.1426 1298.04 9.08977 1297.03 7.26532C1296.02 5.44087 1294.55 3.90557 1292.78 2.80554C1291.01 1.70552 1288.98 1.07738 1286.9 0.980865C1284.82 0.884354 1282.74 1.3227 1280.88 2.25419C1279.01 3.18567 1277.41 4.57926 1276.24 6.30242C1275.06 8.02558 1274.35 10.0209 1274.16 12.0986C1273.97 14.1762 1274.32 16.2671 1275.17 18.1721C1276.02 20.0772 1277.34 21.733 1279.02 22.9821V85.6697H1293.77V22.9821C1295.27 21.8401 1296.48 20.3641 1297.31 18.6712C1298.15 16.9783 1298.57 15.1149 1298.56 13.2286Z" fill="white"/>
  <path d="M1350.25 13.2286C1350.25 11.1426 1349.73 9.08977 1348.71 7.26532C1347.7 5.44087 1346.24 3.90557 1344.47 2.80554C1342.7 1.70552 1340.67 1.07738 1338.59 0.980865C1336.5 0.884354 1334.43 1.3227 1332.56 2.25419C1330.7 3.18567 1329.1 4.57926 1327.93 6.30242C1326.75 8.02558 1326.03 10.0209 1325.85 12.0986C1325.66 14.1762 1326.01 16.2671 1326.86 18.1721C1327.71 20.0772 1329.03 21.733 1330.7 22.9821V85.6697H1345.36V22.9821C1346.88 21.8467 1348.11 20.3744 1348.95 18.6816C1349.8 16.9888 1350.24 15.122 1350.25 13.2286Z" fill="white"/>
  <path d="M1658.81 40.7563H-15.7441V48.9058H1658.81V40.7563Z" fill="white"/>
  <path d="M0.255859 104.378L1266.76 98.3257L1465.04 101.378L1654.72 104.431" stroke="#AFB2C3" stroke-width="5" stroke-linejoin="round"/>
  <path d="M231.441 175.649H58.4414L78.9414 168.649H243.441L231.441 175.649Z" fill="#D9D9D9"/>
  <path d="M1039.44 175.649H866.441L886.941 168.649H1051.44L1039.44 175.649Z" fill="#D9D9D9"/>
  <path d="M508.441 175.649H335.441L355.941 168.649H520.441L508.441 175.649Z" fill="#D9D9D9"/>
  <path d="M1314.44 175.649H1141.44L1161.94 168.649H1326.44L1314.44 175.649Z" fill="#D9D9D9"/>
  <path d="M772.441 175.649H599.441L619.941 168.649H784.441L772.441 175.649Z" fill="#D9D9D9"/>
  <path d="M1583.4 175.649H1410.4L1430.9 168.649H1595.4L1583.4 175.649Z" fill="#D9D9D9"/>
</svg>
