<svg width="1648" height="234" viewBox="0 0 1648 234" fill="none" xmlns="http://www.w3.org/2000/svg">
  <path d="M245.196 85.8401C237.221 84.706 227.776 84.517 219.172 88.4863C220.851 83.5719 229.455 73.5541 234.492 70.1519C225.048 76.2003 215.604 80.5477 208.468 89.0533C209.517 82.0598 214.764 71.286 211.826 65.0485C206.579 70.7189 201.962 79.7916 198.814 86.2181C194.826 83.7609 201.542 69.2068 201.123 63.9144C196.925 67.6947 193.777 76.5784 191.888 81.6818C191.049 77.1454 192.937 72.042 192.308 67.3166C191.678 62.9693 189.999 58.433 188.53 54.4637C185.172 45.958 179.715 35.7512 171.111 31.0259C172.37 34.8062 176.148 38.2084 178.246 41.9887C180.555 46.336 181.814 51.0614 183.073 55.9758C184.962 63.3473 187.691 78.4685 181.394 85.8401C179.925 79.9807 177.407 73.9322 176.567 67.6947C176.777 73.5541 175.938 81.1147 174.259 87.1632C172.37 83.5719 172.37 78.6575 171.111 74.6882C169.642 70.1518 166.913 66.5606 164.395 62.7803C161.876 58.811 158.938 55.0307 155.58 51.6285C153.691 49.9273 151.383 48.2262 149.074 46.7141C153.271 52.0065 156.21 59.378 158.728 64.4814C162.086 70.9079 166.913 79.6026 165.864 87.7302C161.247 80.9257 143.827 79.0356 135.432 73.1761C137.111 76.2003 138.79 79.2246 141.938 81.4927C145.926 84.328 151.592 89.0534 156.839 90.5655C150.543 88.6753 142.358 90.5654 135.012 91.8885C127.247 93.2116 121.371 91.8886 115.494 88.6753C120.531 91.1325 124.519 94.5348 130.605 95.1018C135.222 95.4798 147.395 95.1018 151.173 93.4007L161.247 96.2359C189.579 99.6382 218.122 94.9128 247.295 94.5347C239.529 93.5897 231.134 93.0226 223.579 92.2666C230.715 89.4314 237.431 87.7302 245.196 85.8401Z" fill="#57A100"/>
  <path d="M1671.5 196.035H-21.1328V7.77689C-21.1328 7.77689 214.345 0.216309 253.172 0.216309C291.998 0.216309 651.722 11.5572 651.722 11.5572C651.722 11.5572 1018.79 3.9966 1078.18 3.9966C1137.58 3.9966 1386.07 5.88675 1421.12 5.88675C1456.38 5.88675 1648.41 7.09114 1648.41 7.09114L1671.5 196.035Z" fill="#67759A"/>
  <path opacity="0.5" d="M30.7048 232.516C29.6554 227.412 27.9764 222.687 25.248 217.772C26.7172 222.309 28.1863 227.412 30.7048 232.516Z" fill="#167700"/>
  <path d="M-17.5664 23.0179L1224.5 17.0493L1449.5 20.9681L1693 23.5001" stroke="#AFB2C3" stroke-width="5" stroke-linejoin="round"/>
  <path d="M151.539 96.4306H-25.6816L-4.68148 89.2202H163.832L151.539 96.4306Z" fill="#D9D9D9"/>
  <path d="M913.764 96.4306H736.543L757.543 89.2202H926.057L913.764 96.4306Z" fill="#D9D9D9"/>
  <path d="M405.615 96.4306H228.395L249.395 89.2202H417.908L405.615 96.4306Z" fill="#D9D9D9"/>
  <path d="M1167.84 96.4306H990.617L1011.62 89.2202H1180.13L1167.84 96.4306Z" fill="#D9D9D9"/>
  <path d="M1675.99 96.4306H1498.77L1519.77 89.2202H1688.28L1675.99 96.4306Z" fill="#D9D9D9"/>
  <path d="M659.688 96.4306H482.467L503.467 89.2202H671.98L659.688 96.4306Z" fill="#D9D9D9"/>
  <path d="M1421.91 96.4306H1244.69L1265.69 89.2202H1434.21L1421.91 96.4306Z" fill="#D9D9D9"/>
</svg>
