<svg width="1648" height="234" viewBox="0 0 1648 234" fill="none" xmlns="http://www.w3.org/2000/svg">
  <path d="M1555.44 206.432C1556.28 201.139 1562.99 190.365 1567.19 186.396C1559.22 193.39 1551.24 199.06 1545.78 207.566L1555.44 206.432Z" fill="#AAD201"/>
  <path d="M1513.67 179.591C1516.82 186.585 1522.28 201.139 1517.24 209.267C1514.72 203.596 1511.15 198.115 1509.27 192.066C1510.52 197.926 1510.94 205.297 1510.31 211.535L1544.73 207.566C1544.94 200.383 1547.67 189.798 1543.68 184.506C1539.49 190.932 1536.76 200.572 1534.66 207.377C1530.25 205.486 1534.24 190.176 1532.98 185.073C1529.62 189.42 1527.94 198.493 1526.89 203.974C1525.22 199.627 1526.27 194.146 1524.8 189.798C1523.54 185.64 1521.02 181.292 1518.71 177.701C1513.88 169.952 1506.75 160.501 1497.3 157.099C1499.19 160.69 1503.6 163.525 1506.12 166.927C1509.69 170.519 1511.57 175.055 1513.67 179.591Z" fill="#AAD201"/>
  <path d="M1569.92 204.73C1573.28 203.218 1576.84 201.706 1580.62 200.194C1572.65 200.194 1563.62 201.328 1556.07 206.243L1569.92 204.73Z" fill="#AAD201"/>
  <path d="M1502.34 212.48L1510.52 211.535C1508.01 208.322 1507.38 203.596 1505.28 199.816C1502.97 195.658 1499.61 192.444 1496.46 189.042C1493.31 185.451 1489.75 182.238 1485.76 179.402C1483.66 177.89 1481.14 176.756 1478.62 175.433C1483.66 180.158 1487.86 186.963 1491.43 191.499C1495.62 196.981 1501.5 204.541 1502.34 212.48Z" fill="#AAD201"/>
  <path d="M1477.57 210.59C1479.67 211.724 1482.19 213.047 1484.92 214.37L1501.71 212.48C1495.2 207.187 1478.83 207.565 1469.81 203.218C1471.91 206.053 1474.21 208.889 1477.57 210.59Z" fill="#AAD201"/>
  <path d="M762.532 207.187C760.014 208.888 757.496 211.724 755.817 213.992C753.718 212.669 754.347 210.59 754.977 208.699C756.446 204.352 758.125 199.816 755.817 195.279C753.718 198.682 754.767 203.596 750.78 206.431C752.039 198.871 747.212 190.554 744.273 183.56C745.743 189.042 750.989 204.352 745.323 208.51C742.594 195.846 736.718 184.695 735.249 171.842C731.471 185.451 740.915 198.682 739.656 212.291C737.348 210.022 735.459 206.053 733.57 203.218C733.78 206.431 735.249 209.644 735.669 213.047C727.484 204.919 717.829 196.224 715.521 185.262C717.2 196.413 724.755 203.974 730.422 213.614C727.903 210.022 722.447 209.833 718.249 209.077C713.632 208.321 710.484 207.376 706.916 204.73C710.064 207.565 713.632 209.455 717.829 210.779C721.397 211.724 725.805 211.913 728.533 214.748C724.335 214.181 721.187 216.638 716.99 215.504C720.978 217.772 725.595 216.638 730.212 217.205C734.2 217.772 737.767 218.339 741.755 218.339C746.162 218.15 750.36 218.906 754.557 218.528C760.853 218.15 765.471 214.748 771.767 213.992C767.989 213.047 764.631 213.614 760.853 213.803C761.063 211.535 763.372 209.455 762.532 207.187Z" fill="#AAD201"/>
  <path d="M469.552 205.864C469.342 203.596 471.861 201.517 471.021 199.249C468.083 200.005 464.725 203.218 463.046 205.486C462.626 203.029 462.207 200.572 462.416 197.926C462.626 195.847 464.095 193.578 463.676 191.31C458.849 193.578 456.96 199.627 453.602 203.029C453.392 198.115 455.701 193.011 455.281 188.286C451.923 191.31 448.145 196.981 447.725 201.139C447.096 197.17 447.515 193.389 447.306 189.42C446.886 184.884 445.836 180.725 446.676 176C447.935 167.872 452.133 161.257 454.861 153.696C451.083 158.8 446.466 162.769 444.367 168.817C441.849 176.567 442.479 185.073 440.59 192.822C439.96 195.657 439.121 202.462 435.972 198.304C433.454 194.712 435.972 188.853 433.454 185.262C430.935 188.475 430.516 193.767 431.145 197.737C426.318 194.523 425.898 182.616 422.96 177.512C419.183 171.086 412.467 167.116 407.01 162.391C407.64 163.336 408.059 164.092 408.689 164.848C411.417 168.439 414.146 171.842 416.244 175.622C420.862 183.183 422.96 190.365 424.22 198.871C423.17 194.145 417.504 190.932 414.355 187.53C416.454 192.066 419.392 197.359 420.442 202.084C417.713 199.06 414.565 196.414 410.368 194.523C406.38 192.633 404.491 190.743 401.553 187.719C398.825 184.884 396.516 182.237 394.837 178.646C393.158 174.866 394.208 169.384 392.529 166.36C392.948 169.762 391.479 172.976 391.899 176.378C392.529 179.591 393.578 182.237 395.047 185.262C397.146 189.987 400.504 199.627 406.59 200.761C401.973 200.761 392.948 198.682 388.541 195.279C389.8 196.792 390.85 198.304 392.319 199.438C394.417 201.139 397.566 202.273 400.084 203.218C405.541 205.675 410.788 204.352 416.874 203.974L422.331 208.132C429.676 207.376 435.343 207.376 442.269 207.943C447.096 208.321 451.083 210.212 455.701 210.59C460.947 211.157 466.194 210.59 471.441 210.023C477.737 209.267 482.984 210.023 489.28 210.212C486.762 208.7 481.935 206.62 478.787 205.675C475.639 204.919 472.91 205.675 469.552 205.864Z" fill="#57A100"/>
  <path opacity="0.5" d="M30.7048 232.516C29.6554 227.412 27.9764 222.687 25.248 217.772C26.7172 222.309 28.1863 227.412 30.7048 232.516Z" fill="#167700"/>
  <path opacity="0.5" d="M818.991 155.776C818.782 155.398 818.782 155.398 818.991 155.776V155.776Z" fill="url(#paint0_linear_100_2)"/>
  <path d="M1649.5 175.75C1637.5 168.5 1458.39 190.743 1350.23 190.554C1351.67 188.097 1353.53 185.829 1355.38 183.561C1350.02 184.506 1345.29 187.152 1341.37 190.554C1339.52 190.554 1337.66 190.554 1335.81 190.554C1336.84 187.53 1338.28 184.506 1339.52 181.671C1335.19 182.427 1331.07 186.396 1328.6 190.554C1327.98 190.554 1327.16 190.554 1326.54 190.554C1326.54 182.805 1328.6 175.244 1326.13 167.684C1323.65 159.745 1317.68 153.129 1313.56 145.38C1317.68 156.343 1323.24 169.196 1313.35 179.402C1313.15 176.378 1312.12 173.165 1311.7 170.33C1306.97 172.031 1303.87 177.701 1302.23 181.671C1300.78 177.89 1301.81 173.732 1303.46 170.33C1298.11 171.086 1295.43 176.567 1294.6 181.482C1288.22 171.275 1290.28 162.58 1290.28 151.806C1283.48 157.288 1280.18 166.927 1282.24 175.244C1275.03 166.171 1276.89 153.696 1276.89 143.112C1266.38 157.288 1279.36 171.653 1275.24 184.884C1271.73 180.915 1269.26 176.567 1267.2 172.22C1267.82 175.244 1268.23 178.457 1268.23 181.86C1264.52 178.268 1260.2 173.921 1256.7 170.708C1257.11 172.787 1256.7 175.244 1257.31 177.323C1255.66 175.811 1253.19 174.299 1251.75 172.409C1254.02 176 1255.25 179.97 1255.25 184.128C1250.51 178.268 1239.8 174.866 1231.77 171.653V172.031C1238.98 176.189 1244.33 180.537 1248.87 186.018C1227.65 186.396 1200.66 189.987 1189.12 188.286C1175.52 186.396 1158.22 183.561 1144.62 187.719C1138.03 189.798 1135.14 191.499 1128.14 189.798C1124.63 188.853 1123.4 187.152 1119.28 187.152C1116.6 187.152 1114.13 188.664 1111.24 188.664C1111.04 185.073 1113.92 180.348 1117.01 178.079C1110.83 179.024 1105.89 181.104 1100.73 184.506C1103.21 177.134 1109.39 170.897 1116.8 167.684C1109.8 169.007 1087.14 176.378 1088.99 183.75C1075.81 187.152 1062 176.756 1047.99 178.079C1035.01 179.213 1023.89 184.506 1010.5 184.128C996.899 183.75 983.507 180.348 969.909 179.78C956.518 179.402 942.302 177.323 929.117 178.835C927.056 179.024 919.846 180.915 918.403 179.969C916.961 179.024 918.403 175.622 917.991 175.433C913.253 172.976 908.102 177.89 902.333 178.646C902.952 176.945 903.57 175.244 905.63 174.11C900.067 174.299 895.535 176 890.796 178.835C891.826 173.543 899.655 167.684 905.63 166.738C891.826 168.251 878.435 169.763 866.279 176.567C866.073 172.409 873.078 166.36 877.198 165.604C872.666 166.171 867.309 166.171 863.189 168.062C859.068 169.763 856.802 174.488 851.858 174.11C851.858 172.976 851.034 171.464 851.24 170.141C849.179 172.031 847.737 174.11 845.265 174.866C844.647 172.031 844.235 169.007 844.029 165.982C839.908 173.732 837.642 172.409 836.406 165.037C834.14 167.117 832.491 170.141 830.843 172.409C828.577 170.33 825.28 166.549 824.868 163.336C823.632 166.928 821.366 174.11 816.421 173.921C814.773 165.415 812.919 159.178 803.442 155.398C804.884 161.446 805.09 166.549 799.94 170.897C759.765 161.635 711.349 165.982 669.526 163.525C643.773 161.824 618.638 161.635 592.885 161.446C578.051 161.446 562.188 157.855 549.414 158.044C549.62 156.154 549.208 153.318 549.826 151.239C546.324 153.318 541.791 155.398 539.113 159.367C539.937 156.532 539.525 152.562 540.761 149.538C535.404 150.294 530.872 153.129 527.988 157.477C525.927 147.837 528.4 135.929 537.671 130.259C521.189 131.96 511.712 145.947 503.883 157.855C504.295 154.452 502.235 150.672 502.235 147.27C496.672 149.538 493.582 156.154 490.491 160.69C486.783 155.587 488.019 150.105 491.933 145.38C483.898 146.703 476.894 151.239 472.155 157.288C470.095 150.861 473.185 145.002 478.748 141.032C469.271 144.246 459.794 148.404 455.467 156.721C456.703 137.63 474.627 124.021 491.315 114.948C472.567 120.619 445.99 130.07 440.633 149.727C440.839 141.978 440.015 133.85 442.075 126.289C434.041 133.094 432.186 142.167 427.242 150.483C426.418 150.483 425.388 150.483 424.563 150.105C421.679 143.112 416.941 137.441 412.614 131.204C414.056 140.087 414.056 149.538 417.765 157.855C393.866 155.398 372.851 156.721 349.159 157.477C338.445 157.855 301.773 164.092 297.859 153.696C294.15 156.91 289.412 160.123 284.261 160.501C283.643 158.044 280.759 155.776 280.14 154.074C271.693 157.288 263.04 169.763 261.392 152.373C257.478 156.532 255.212 162.58 250.267 165.793C247.589 162.391 244.704 158.8 243.468 154.453C241.614 158.044 237.699 162.769 235.021 164.848C232.549 157.855 227.398 152.373 224.514 145.569C224.514 152.562 221.012 161.257 215.449 165.793C209.474 148.782 198.761 139.898 188.872 125.911C195.465 136.685 199.997 153.318 195.465 166.738C179.807 156.721 181.867 149.727 173.214 170.519C166.827 169.385 159.616 170.897 152.818 171.464C150.757 165.982 151.169 159.934 154.672 155.398C147.049 158.8 138.808 165.037 137.572 172.976C135.718 166.738 135.718 159.745 140.662 154.831C132.009 158.233 123.562 163.903 119.648 172.22C117.381 164.659 118.205 156.721 123.356 150.105C114.291 154.453 104.402 165.604 104.608 175.244C102.136 160.312 107.698 134.228 123.562 125.722C102.342 136.118 80.091 155.209 79.4729 179.78C73.2922 177.134 71.232 170.519 71.232 164.47C65.6693 168.629 61.3428 174.866 60.3127 181.86C57.2223 176.189 56.3982 168.44 57.4284 162.013C50.4235 167.684 48.7753 177.323 47.3332 185.073C41.3585 174.488 40.5344 155.587 48.9814 146.136C39.2982 154.074 34.1476 165.226 32.4994 176.756C32.9115 169.763 32.2934 162.769 31.2633 155.587C27.1428 161.635 23.8464 168.629 23.4344 175.622C14.3693 171.086 14.3693 160.501 11.897 149.16C7.5705 159.367 9.42471 173.543 10.8669 182.616C9.21869 175.055 -6.57164 173.732 -17.2849 170.708L-17.5645 248.015L1657 239.698L1649.5 175.75ZM1311.7 190.365C1310.88 190.365 1309.85 190.365 1309.03 190.365C1308.2 189.231 1307.38 188.286 1306.55 187.341C1308.2 188.097 1310.06 189.231 1311.7 190.365ZM1296.25 189.987C1295.43 189.987 1294.6 189.987 1293.78 189.987C1293.37 189.231 1292.75 188.475 1292.13 187.719C1293.37 188.475 1294.81 189.231 1296.25 189.987Z" fill="url(#paint1_linear_100_2)"/>
  <path d="M1565.93 175.024C1557.74 174.835 1548.51 175.591 1540.54 180.695C1541.37 175.591 1548.72 164.818 1553.13 160.659C1544.52 167.842 1535.92 173.134 1530.04 182.207C1530.25 175.024 1533.82 163.873 1530.04 158.013C1525.63 164.251 1522.28 173.89 1520.18 180.506C1515.77 178.427 1520.39 163.305 1519.34 158.013C1515.77 162.171 1513.67 171.244 1512.62 176.726C1511.15 172.378 1512.41 166.897 1511.15 162.36C1510.1 158.013 1507.79 153.855 1505.49 150.074C1501.08 142.136 1494.15 132.496 1484.92 128.716C1486.6 132.307 1491 135.331 1493.31 138.734C1496.25 142.703 1497.93 147.428 1500.03 151.965C1502.97 158.958 1507.79 173.89 1502.55 181.829C1500.24 176.158 1496.88 170.488 1495.2 164.251C1496.25 170.11 1496.46 177.671 1495.41 183.719C1493.1 180.506 1492.47 175.591 1490.59 171.811C1488.49 167.464 1485.34 164.251 1482.19 160.659C1479.04 157.068 1475.68 153.477 1471.91 150.642C1469.81 149.129 1467.29 147.806 1464.77 146.483C1469.6 151.398 1473.59 158.202 1476.94 162.927C1481.14 168.976 1487.23 177.104 1487.23 185.231C1481.77 178.994 1464.14 179.183 1454.91 174.268C1456.8 177.104 1459.1 179.939 1462.46 181.829C1466.66 184.286 1473.17 188.255 1478.41 189.2C1471.91 188.066 1463.93 190.902 1457.01 192.981C1449.45 195.249 1443.57 194.493 1437.28 192.036C1442.73 193.926 1446.93 196.95 1453.23 196.761C1457.84 196.761 1469.81 194.871 1473.38 192.792L1483.87 194.493C1512.41 194.682 1540.12 186.743 1569.08 183.152C1561.31 183.152 1552.92 183.53 1545.15 183.53C1552.08 180.317 1558.58 177.86 1565.93 175.024Z" fill="#2D8501"/>
  <defs>
    <linearGradient id="paint0_linear_100_2" x1="818.781" y1="155.621" x2="819.021" y2="155.621" gradientUnits="userSpaceOnUse">
      <stop stop-color="#167700"/>
      <stop offset="1" stop-color="#AAD201"/>
    </linearGradient>
    <linearGradient id="paint1_linear_100_2" x1="-17.1598" y1="181.984" x2="1657.32" y2="181.984" gradientUnits="userSpaceOnUse">
      <stop stop-color="#167700"/>
      <stop offset="0.501666" stop-color="#AAD201"/>
      <stop offset="0.986666" stop-color="#1A7901"/>
    </linearGradient>
  </defs>
</svg>
