<svg width="1648" height="322" viewBox="0 0 1648 322" fill="none" xmlns="http://www.w3.org/2000/svg">
  <path d="M1881.27 83.8111C1879.59 79.4637 1872.87 81.3539 1868.05 80.9759C1867.63 79.6528 1867 78.8967 1866.79 77.5736C1859.86 78.7077 1856.92 74.3603 1849.79 75.4944C1848.32 67.1778 1837.4 72.8482 1832.37 73.7933C1825.23 75.1164 1816 74.3603 1809.49 74.7384C1805.92 74.9274 1800.47 76.8175 1797.32 76.4395C1794.38 76.0615 1792.28 72.6592 1787.66 73.0372C1778.43 73.7933 1776.12 86.0792 1767.52 83.6221C1768.99 74.9274 1755.97 78.8967 1758.07 70.202C1749.89 70.58 1749.68 66.6107 1744.85 65.6657C1739.39 64.5316 1734.99 66.4217 1729.74 67.5558C1721.34 69.446 1725.54 70.391 1718.83 67.3668C1713.58 64.9096 1715.68 60.7513 1706.65 61.6964C1705.18 52.6237 1686.72 56.593 1680.63 56.2149C1675.17 56.0259 1674.12 53.1907 1667.41 54.8918C1664.26 55.6479 1657.12 57.9161 1654.18 59.0502C1644.74 62.8305 1639.28 71.5251 1632.36 75.8724C1629.84 77.5736 1625.85 77.9516 1623.12 80.7868C1620.4 83.8111 1623.33 89.8595 1621.02 92.5057C1619.98 93.6398 1617.61 99.7169 1616.62 104.674C1615.28 111.453 1616.83 122.37 1616.83 122.37C1636.98 131.632 1675.8 120.102 1690.49 118.59C1761.43 111.596 1831.74 98.3652 1902.68 94.3959C1903.3 86.0792 1888.19 84.0001 1881.27 83.8111Z" fill="#7FDDB7"/>
  <path opacity="0.5" d="M1873.08 80.9758C1848.11 78.7076 1823.34 80.4087 1799.21 83.811C1788.08 85.3231 1778.01 89.6704 1767.31 91.1825C1757.86 92.5056 1756.6 87.7803 1752.62 86.0791C1748.21 84.189 1746.11 76.8174 1738.76 84.756C1737.51 71.525 1721.97 70.958 1725.96 85.7011C1715.26 78.1405 1720.51 95.9079 1720.09 101.011C1716.94 101.389 1712.11 101.011 1709.38 99.6882C1708.12 92.1276 1698.89 91.3715 1694.9 97.231C1694.27 95.1518 1692.17 94.7738 1692.17 91.1825C1686.93 90.8045 1682.1 91.5606 1677.27 92.1276C1677.48 89.2924 1675.38 87.7803 1675.38 84.945C1667.41 84.189 1659.01 84.189 1656.07 91.1825C1647.26 72.2811 1628.58 92.8837 1627.74 104.792C1623.75 104.225 1618.94 106.771 1618.06 112.071L1616.83 125.583C1628.37 124.26 1639.28 121.425 1651.67 118.401C1675.59 112.73 1700.57 116.51 1725.33 112.352C1757.02 107.06 1788.71 104.981 1820.62 101.389C1856.71 97.231 1891.34 91.3715 1928.28 91.1825C1911.91 88.5363 1890.71 82.6769 1873.08 80.9758Z" fill="#55A873"/>
  <path d="M234.299 83.8111C232.62 79.4637 225.904 81.3539 221.077 80.9759C220.657 79.6528 220.028 78.8967 219.818 77.5736C212.892 78.7077 209.954 74.3603 202.818 75.4944C201.349 67.1778 190.436 72.8482 185.399 73.7933C178.263 75.1164 169.029 74.3603 162.523 74.7384C158.955 74.9274 153.498 76.8175 150.35 76.4395C147.412 76.0615 145.313 72.6592 140.696 73.0372C131.461 73.7933 129.153 86.0792 120.548 83.6221C122.017 74.9274 109.005 78.8967 111.104 70.202C102.918 70.58 102.709 66.6107 97.8815 65.6657C92.4248 64.5316 88.0174 66.4217 82.7706 67.5558C74.3756 69.446 78.5731 70.391 71.8571 67.3668C66.6103 64.9096 68.709 60.7513 59.6845 61.6964C58.2154 52.6237 39.7465 56.593 33.6602 56.2149C28.2034 56.0259 27.1541 53.1907 20.4381 54.8918C17.29 55.6479 10.1543 57.9161 7.21611 59.0502C-2.2282 62.8305 -7.68492 71.5251 -14.6107 75.8724C-17.1292 77.5736 -21.1168 77.9516 -23.8452 80.7868C-26.5735 83.8111 -23.6353 89.8595 -25.9439 92.5057C-26.9933 93.6398 -29.3636 99.7169 -30.3475 104.674C-31.6932 111.453 -30.1414 122.37 -30.1414 122.37C-9.99352 131.632 28.8331 120.102 43.5242 118.59C114.461 111.596 184.769 98.3652 255.706 94.3959C256.336 86.0792 241.225 84.0001 234.299 83.8111Z" fill="#7FDDB7"/>
  <path opacity="0.5" d="M226.115 80.9758C201.14 78.7076 176.375 80.4087 152.239 83.811C141.116 85.3231 131.042 89.6704 120.339 91.1825C110.894 92.5056 109.635 87.7803 105.648 86.0791C101.24 84.189 99.1414 76.8174 91.7959 84.756C90.5366 71.525 75.006 70.958 78.9936 85.7011C68.29 78.1405 73.5369 95.9079 73.1171 101.011C69.969 101.389 65.1419 101.011 62.4136 99.6882C61.1544 92.1276 51.9199 91.3715 47.9323 97.231C47.3027 95.1518 45.204 94.7738 45.204 91.1825C39.9571 90.8045 35.13 91.5606 30.3029 92.1276C30.5128 89.2924 28.4141 87.7803 28.4141 84.945C20.4389 84.189 12.0439 84.189 9.10571 91.1825C0.291027 72.2811 -18.3877 92.8837 -19.2272 104.792C-23.2148 104.225 -28.0297 106.771 -28.9129 112.071L-30.1406 125.583C-18.5976 124.26 -7.68416 121.425 4.69838 118.401C28.624 112.73 53.5989 116.51 78.364 112.352C110.055 107.06 141.746 104.981 173.647 101.389C209.745 97.231 244.374 91.3715 281.312 91.1825C264.941 88.5363 243.744 82.6769 226.115 80.9758Z" fill="#55A873"/>
  <path d="M1452.3 64.7755C1447.47 63.4524 1441.18 63.6414 1436.14 64.5865C1435.3 57.971 1416.83 57.0259 1411.8 59.1051C1411.38 55.1358 1408.65 53.8127 1404.66 55.3248C1400.67 52.3005 1386.4 56.2698 1385.98 59.8611C1381.57 55.8918 1374.23 56.2699 1375.91 63.4524C1373.18 62.5073 1369.82 63.2634 1367.09 62.8854C1367.51 64.3975 1366.46 66.6657 1366.88 68.1778C1361.64 67.7997 1354.5 65.5316 1355.76 72.7141C1353.45 73.4702 1349.46 74.0372 1346.94 74.4153C1348.83 63.2634 1328.69 69.5009 1329.32 75.5493C1325.12 74.7933 1320.71 75.1713 1320.08 79.3296C1315.88 76.4944 1302.66 78.3846 1301.82 83.866C1293.22 85.5671 1283.35 78.0065 1277.48 81.2198C1272.23 75.9274 1246.84 85.7561 1240.12 90.2925C1254.81 94.0728 1269.71 94.2618 1284.4 96.719C1303.5 99.9322 1323.02 104.28 1341.91 108.627C1370.66 115.053 1406.13 126.016 1435.72 119.023C1465.94 112.029 1480.84 83.4879 1452.3 64.7755Z" fill="#7FDDB7"/>
  <g opacity="0.5">
    <path opacity="0.25" d="M1454.82 96.9081C1448.31 83.8661 1443.49 74.4154 1425.86 78.0067C1426.49 74.4154 1424.39 69.879 1424.39 67.0438C1420.4 68.5559 1418.72 66.8548 1414.73 66.6658C1414.73 65.1537 1414.31 63.4525 1414.31 61.9404C1405.5 60.0503 1402.56 65.9097 1404.45 73.0923C1397.1 63.2635 1380.94 73.0923 1383.46 84.4332C1377.17 83.2991 1371.5 84.6222 1370.87 90.6706C1368.98 90.2926 1366.46 91.0487 1364.36 90.6706C1361.64 88.5915 1355.97 89.5366 1351.56 88.9695C1348.41 88.5915 1346.74 82.354 1337.71 85.9453C1337.08 94.2619 1325.12 96.7191 1321.76 88.4025C1302.24 88.9695 1285.45 89.3476 1264.46 89.5366C1270.97 90.4816 1278.53 95.207 1287.34 97.0971C1298.88 99.5543 1311.06 99.1763 1322.81 100.877C1344.01 103.902 1365.41 104.091 1386.4 101.444C1396.27 100.121 1399.41 100.877 1405.71 93.3169C1409.7 88.5915 1406.34 82.354 1414.73 79.7078C1424.18 76.8726 1425.65 85.9453 1429.85 88.4025C1436.14 92.1828 1445.59 91.9938 1442.44 101.823C1445.59 98.4203 1449.57 96.9081 1454.82 96.9081Z" fill="#416400"/>
  </g>
  <path d="M1523.66 107.115C1488.61 105.791 1453.56 106.359 1418.51 104.279C1396.48 102.956 1373.39 104.279 1351.36 100.877C1325.96 96.9078 1300.78 95.5847 1275.59 90.6703C1252.71 86.323 1228.58 82.3537 1205.28 81.2196C1181.36 80.2745 1158.48 76.8723 1134.98 74.6041C1111.47 72.3359 1087.33 74.0371 1063.83 72.1469C1017.87 68.1776 970.435 65.9094 924.263 63.8303C851.856 60.806 779.45 63.6413 707.254 66.6655C649.328 69.1227 590.144 71.0128 533.478 78.5734C506.824 82.1647 478.491 81.9757 452.047 87.8351C438.825 90.6703 427.702 93.6946 414.48 94.8287C401.258 95.9627 384.888 102.389 371.876 100.31C366.629 95.7737 350.888 102.2 341.654 103.901C324.654 107.304 307.654 108.249 290.235 109.95C271.136 111.84 252.248 116.376 232.939 115.809C301.148 117.699 370.616 126.016 437.146 139.058C478.282 147.186 522.355 148.887 564.33 151.722C630.65 156.258 696.97 157.392 763.29 161.551C832.128 165.898 900.127 175.349 968.756 179.696C1018.71 182.909 1069.29 180.452 1119.03 178.751C1207.38 175.916 1293.64 162.307 1380.32 147.942C1419.35 141.515 1458.18 133.766 1497.22 126.205C1523.03 121.102 1549.48 119.59 1573.61 109.383C1559.34 105.035 1538.77 107.682 1523.66 107.115Z" fill="url(#paint0_linear_100_2)"/>
  <path opacity="0.1" d="M388.875 94.6399C405.664 94.6399 417.207 97.4751 432.948 93.3168C439.874 91.4267 445.54 87.6464 452.466 85.9452C460.022 84.0551 468.207 85.3782 475.342 83.488C470.305 87.8354 459.182 88.7805 460.441 96.9081C483.737 101.633 506.194 100.877 531.588 102.2C556.773 103.524 580.699 107.304 605.884 108.438C618.266 109.005 631.069 108.249 643.031 109.383C656.043 110.706 667.377 115.999 680.179 117.322C704.314 119.779 731.598 114.675 751.956 119.59C779.659 126.205 793.091 109.005 814.498 94.8289C809.671 107.682 795.19 116.755 793.93 132.443C805.683 134.522 806.733 122.992 814.918 118.645C827.93 135.467 845.769 136.412 868.016 136.412C884.596 136.412 899.707 143.028 916.287 143.973C932.657 145.107 934.336 140.003 946.718 134.144C969.804 123.181 1005.48 143.973 1028.99 149.076C1067.19 157.393 1115.25 152.1 1149.67 135.089C1161.63 129.23 1167.3 125.449 1181.57 124.882C1194.16 124.504 1206.75 124.315 1219.13 122.803C1227.11 121.858 1247.26 119.779 1249.99 111.084C1252.29 104.28 1244.32 102.011 1243.27 96.152C1263.63 95.0179 1278.32 100.688 1297.84 103.524C1319.45 106.737 1344.64 102.579 1366.47 99.7433C1404.45 94.8289 1445.17 96.9081 1483.57 98.6092C1487.14 117.511 1438.03 128.474 1425.44 134.144C1369.19 158.716 1308.33 180.074 1246.42 189.336C1164.57 201.622 1078.73 197.464 996.038 197.086C908.941 196.897 824.992 177.995 738.734 171.569C703.475 168.923 667.586 166.654 632.118 165.709C598.328 164.764 564.119 167.6 530.539 163.063C493.182 157.96 451.417 154.558 417.627 139.058C406.714 134.144 364.529 123.37 364.739 107.304C365.159 90.8596 397.269 94.6399 388.875 94.6399Z" fill="#F96715"/>
  <path d="M959.94 158.527C920.694 149.454 881.238 149.265 841.152 142.461C819.325 138.68 798.548 138.491 776.511 136.223C756.573 134.333 737.894 126.772 718.166 125.071C644.92 118.834 571.884 110.706 498.219 106.737C430.22 103.145 363.69 88.0243 295.271 86.5122C240.494 85.3781 181.52 85.0001 127.792 91.9936C79.7309 98.2311 27.8922 103.145 -15.7615 121.291C-16.3911 121.291 -17.0208 121.291 -17.6504 121.291V277.585C8.37392 278.908 34.1884 281.365 60.4225 281.365C110.792 281.365 160.952 323.121 211.322 321.42C294.851 318.585 378.171 320.89 461.281 314.275C524.873 309.171 586.156 304.257 648.278 290.459C671.784 285.167 695.29 298.776 718.586 293.672C745.869 287.813 770.425 296.696 798.758 294.617C831.078 292.349 863.189 174.593 895.509 174.404C911.669 174.404 926.78 171.38 942.521 168.356C954.484 166.087 968.335 166.843 979.669 162.496C972.533 163.441 966.446 160.039 959.94 158.527Z" fill="url(#paint1_linear_100_2)"/>
  <path d="M1555.55 1.07763C1547.99 2.58974 1542.33 6.55904 1537.5 11.8515C1529.73 4.85791 1523.65 0.321575 1512.94 4.4799C1502.03 8.63822 1503.92 12.9855 1494.26 8.44918C1489.65 6.37002 1490.49 1.64467 1483.77 0.510578C1479.15 -0.24548 1476.43 1.45564 1472.65 3.15677C1462.36 7.88213 1465.72 12.7965 1468.15 20.7351C1455.98 17.3329 1436.13 22.0582 1436.76 35.4783C1415.14 21.4912 1411.63 58 1413.59 63.6414C1408.76 59.6721 1400.99 58.349 1396.17 63.2634C1391.55 56.2699 1377.91 54.7577 1375.6 64.5865C1359.02 43.7949 1336.77 70.635 1335.93 85.9452C1330.27 79.7077 1321.24 85.1891 1318.72 91.4266C1316.42 97.4751 1321.45 110.139 1308.23 103.524C1302.77 100.688 1301.72 94.8288 1295.01 92.5607C1288.08 90.1035 1282.84 91.9936 1276.75 94.8288C1273.39 96.341 1274.65 98.4201 1270.24 99.3652C1267.52 99.9323 1265.21 96.719 1260.8 98.0421C1257.23 99.1762 1256.18 103.145 1253.66 104.28C1250.1 105.792 1250.31 104.658 1246.11 105.225C1234.57 106.548 1235.82 105.414 1229.32 113.541C1225.12 118.834 1223.65 120.346 1216.1 121.669C1201.82 124.315 1186.71 120.913 1178.53 132.632C1173.49 132.821 1166.78 137.924 1178.53 140.948C1190.7 144.162 1210.85 141.893 1223.65 141.893C1298.79 142.082 1374.13 142.839 1449.48 142.839C1486.83 142.839 1524.19 139.814 1561.55 140.381L1633.62 118C1633.62 118 1636.62 -3.5 1594.12 14.25C1584.78 18.1546 1586.76 18.4618 1570.62 4.25C1564.03 -1.55894 1555.55 1.07763 1555.55 1.07763Z" fill="#398230"/>
  <path opacity="0.35" d="M1561.55 33.2098C1550 38.5022 1546.65 51.7332 1552.52 67.9885C1538.25 58.9158 1520.83 73.848 1517.68 85.7559C1507.4 79.8964 1494.81 84.6218 1492.29 95.5846C1492.29 88.024 1489.56 73.0919 1498.17 67.9885C1504.25 64.3972 1510.55 64.5862 1513.07 70.8237C1514.54 55.7025 1530.91 49.6541 1545.6 52.6783C1545.6 44.3617 1537.83 38.3132 1528.81 38.8803C1528.39 33.2098 1531.96 29.6186 1538.04 30.3746C1524.4 14.3084 1514.75 14.8754 1500.26 30.3746C1495.44 19.9788 1486.83 20.9239 1475.5 22.625C1484.1 21.6799 1488.72 27.5394 1486.62 34.9109C1496.07 32.8318 1511.81 31.6977 1511.6 43.7946C1500.89 42.8496 1491.45 46.4409 1497.54 56.4586C1482.64 53.8124 1462.7 60.6169 1477.81 75.3601C1446.96 73.848 1461.23 86.3229 1462.49 103.145C1450.52 105.791 1446.96 105.224 1436.88 102.2C1433.32 101.066 1433.11 98.4198 1429.12 97.4748C1425.76 96.5297 1419.25 98.9869 1415.06 98.4198C1415.06 93.1274 1418.2 89.1581 1423.66 87.079C1411.28 86.3229 1415.9 72.7139 1416.53 63.6412C1408.13 75.9271 1400.78 74.982 1403.51 90.8593C1396.17 91.4263 1383.78 86.5119 1378.33 93.5055C1371.19 102.956 1387.56 105.224 1383.99 112.974C1380.85 119.778 1355.45 113.541 1347.9 113.919C1343.28 121.291 1330.48 115.62 1322.5 116.943C1310.12 118.833 1308.23 121.102 1294.38 118.644C1280.53 116.187 1279.69 118.266 1268.14 121.858C1235.19 132.442 1193.64 125.827 1158.59 129.229C1121.44 132.82 1085.55 143.405 1049.04 148.509C1021.96 152.289 993.63 148.887 966.557 148.698C911.15 148.131 856.793 153.99 801.386 154.179C749.128 154.368 698.548 151.911 646.499 151.911C598.019 151.911 553.106 162.118 506.724 172.136C484.477 177.05 464.539 181.019 441.453 179.129C420.046 177.428 398.008 173.837 376.391 171.19C331.478 165.52 284.676 161.551 243.961 182.153C216.047 196.14 178.27 195.384 146.579 191.226C139.444 190.281 129.58 191.226 122.444 189.714C115.309 188.202 109.013 182.342 102.087 179.885C88.4451 174.971 66.8281 167.599 51.7172 170.812C37.4458 173.837 28.4213 187.824 13.5203 190.848C5.75496 192.36 -4.73906 191.604 -12.7142 191.226C-19.8499 190.848 -28.6647 190.659 -36.2201 189.714C-37.4794 180.074 -22.5783 164.575 -26.5659 157.014C-31.1832 148.32 -53.2199 156.825 -61.6148 159.661C-69.3801 162.307 -99.6018 167.977 -117.651 165.709L-141.256 212.087C-135.17 211.331 -129.083 248.189 -123.626 248C-81.8617 246.488 -25.3273 269.524 16.6474 268.201C70.375 266.5 133.357 295.373 187.085 292.538C231.578 290.27 277.121 292.916 321.614 288.568C366.737 284.032 412.071 276.85 456.774 269.856C508.403 261.917 560.871 281.953 612.71 275.715C722.054 262.295 830.978 203.89 940.742 201.244C1100.88 197.274 1260.8 190.848 1420.51 180.074C1466.48 177.05 1585.34 161.383 1602.88 91.75C1620.38 22.25 1561.55 33.2098 1561.55 33.2098Z" fill="url(#paint2_linear_100_2)"/>
  <path d="M230.211 196.702C224.964 191.977 210.903 186.306 203.138 185.928C198.52 185.55 194.953 190.465 190.125 190.276C187.607 190.276 185.508 186.495 182.36 185.928C175.644 184.794 167.459 190.654 166.829 180.825C160.743 179.88 155.706 183.282 149.62 182.526C147.731 165.515 138.077 166.649 125.484 173.075C126.324 157.765 110.583 165.137 103.867 163.814C99.2502 162.869 98.6206 157.387 91.275 158.521C85.8183 159.277 81.8307 160.79 81.411 167.027C80.1517 159.466 67.7692 153.229 58.5348 155.119C44.4732 157.954 44.0535 171.374 35.4487 179.502C26.0044 172.508 15.3008 180.825 13.2021 190.843C4.59726 183.282 -6.73591 189.142 -17.4395 195.757V218.25C1.23929 224.109 24.3254 229.969 29.7821 231.67C55.3866 239.609 86.238 236.773 112.682 233.749C131.571 231.67 150.04 228.079 168.508 223.164C183.829 219.006 241.964 214.092 256.236 207.098C269.877 200.483 236.298 202.373 230.211 196.702Z" fill="#386B1A"/>
  <path d="M447.431 172.703C442.814 171.569 440.506 173.27 435.888 172.514C432.111 171.947 432.32 165.331 426.024 170.624C422.247 167.221 417 168.355 413.012 170.435C410.284 165.142 403.988 168.544 398.741 168.355C399.16 158.527 388.247 164.008 383.42 165.142C385.099 148.698 360.754 151.155 363.482 167.032C358.865 162.118 352.149 164.008 351.099 170.435C347.741 169.868 344.803 169.111 342.495 166.276C334.519 169.301 337.038 174.971 333.47 180.074C329.902 184.989 307.236 198.409 301.359 200.488C319.828 196.519 451.839 198.598 481.011 197.464C475.764 191.982 454.147 174.593 447.431 172.703Z" fill="#398230"/>
  <path d="M850.387 160.417C856.053 159.85 862.14 160.228 867.806 160.039C873.893 159.85 879.769 158.905 886.065 158.527C898.028 157.77 909.781 157.014 922.163 157.014C934.336 157.014 946.089 154.935 957.842 153.612C971.904 151.911 985.965 153.612 1000.24 153.612C1008.63 153.612 1016.82 155.313 1025.21 155.502C1031.93 155.691 1038.64 155.502 1045.36 155.502C1054.8 155.502 1064.25 155.502 1073.48 155.88C1083.56 156.258 1111.89 154.368 1121.75 153.801C1141.9 152.478 1143.58 153.045 1163.52 149.832C1192.27 145.106 1220.18 136.979 1249.36 133.388C1259.01 132.253 1268.45 130.363 1278.11 129.418C1281.89 129.04 1284.82 127.906 1288.6 127.717C1303.08 127.528 1317.98 125.827 1332.68 125.071C1347.37 124.504 1361.64 124.882 1376.12 122.803C1382.84 121.858 1389.13 121.48 1395.85 122.047C1405.5 122.803 1417.26 123.559 1426.28 126.016C1417.05 128.473 1406.76 127.717 1397.32 128.095C1385.35 128.662 1373.18 129.796 1361.22 130.93C1334.15 133.388 1307.07 133.766 1280.21 137.735C1256.28 141.326 1232.36 145.295 1208.85 150.399C1147.36 163.441 1083.56 168.922 1020.59 167.788C972.323 166.843 924.052 161.929 875.781 161.929C867.596 161.551 855.634 163.63 850.387 160.417Z" fill="#867F0C"/>
  <path d="M1661.55 87.8354C1661.34 87.8354 1652.54 113.942 1652.33 113.753C1641.96 118.07 1631.87 118.625 1619.12 113.25C1603.24 110.375 1598.96 113.54 1591.62 116.375C1577.34 121.667 1570.98 117.11 1555.87 119C1519.77 123.725 1501.62 124.504 1464.27 124.504C1376.75 124.504 1287.55 125.449 1202.55 141.705C1187.23 144.54 1172.75 151.533 1157.01 154.558C1138.54 158.149 1127.21 161.362 1108.11 160.228C1047.46 156.826 989.952 150.966 928.669 158.527C895.089 162.685 860.67 160.228 826.67 158.527C781.967 156.07 740.622 158.905 696.339 164.575C643.241 171.38 590.143 183.477 544.39 206.726C527.6 215.231 546.279 218.634 558.662 222.603C570.624 226.572 582.797 226.572 595.18 227.895C613.649 229.974 631.278 235.078 649.537 238.48C684.376 244.907 718.585 254.735 753.005 262.485C795.189 272.125 836.114 271.936 879.558 271.936C910.829 271.936 942.101 274.015 973.372 271.18C1019.33 266.832 1065.3 279.874 1111.47 276.283C1214.52 267.966 1317.35 280.063 1420.4 280.063C1468.67 280.063 1516.1 273.826 1563.96 267.21C1596.28 262.674 1629.23 282.52 1661.55 277.606V87.8354Z" fill="url(#paint3_linear_100_2)"/>
  <path opacity="0.7" d="M439.454 181.581C433.788 180.825 430.64 177.99 425.183 177.99C423.504 177.99 423.084 180.825 420.566 180.825C419.516 180.825 416.788 178.557 415.319 178.368C409.862 177.234 405.035 180.447 400.208 180.069C397.689 179.88 394.331 177.801 391.813 177.045C390.554 176.667 387.616 177.801 386.566 177.045C383.838 175.344 382.788 167.594 380.48 167.594C376.492 167.594 378.171 175.722 378.171 178.368C375.443 176.856 372.085 176.1 370.616 179.88C364.529 178.557 359.073 180.447 353.406 179.88C349.628 179.502 342.493 175.722 342.703 184.038C339.135 184.227 335.357 183.66 332.209 184.794C327.802 186.306 326.962 189.52 322.974 191.977C308.283 201.806 278.901 199.726 261.691 199.915C245.741 199.915 229.581 201.428 213.63 200.672C209.013 200.483 203.976 201.05 199.569 200.861C193.902 200.483 187.186 196.702 181.73 202.184C175.014 196.324 170.396 203.885 163.681 202.751C163.051 199.537 165.15 196.702 166.409 194.245C159.483 193.678 151.508 196.702 152.767 204.83C144.582 199.537 139.755 209.933 132.409 208.043C128.632 207.098 128.841 202.562 123.595 202.562C120.447 202.562 116.879 204.83 114.99 207.098C111.842 198.97 106.595 206.909 102.188 205.586C97.7802 204.263 97.9901 196.702 91.484 202.373C91.2741 191.788 100.089 196.324 102.817 190.465C106.805 181.959 94.2124 181.77 89.3853 181.77C89.5952 180.825 88.9655 179.313 89.1754 178.368C80.1508 177.234 79.941 183.66 78.0521 189.52C74.904 198.781 74.2744 189.709 65.6696 191.977C58.1141 194.056 62.1017 199.537 54.7561 202.562C47.6205 205.586 43.6328 202.373 44.0526 212.768C38.386 212.201 33.9787 210.878 28.9417 209.366C22.8554 207.665 19.4974 209.555 13.2012 209.177C5.01612 208.799 -7.57629 197.269 -15.5515 201.995C-16.1811 201.806 -16.8107 201.806 -17.2305 201.617V210.5C-14.9219 211.067 -12.8231 211.634 -10.9343 212.579C-5.8973 214.848 -1.69983 218.628 3.33713 221.085C32.9293 235.828 66.5091 243.578 99.6691 243.767C145.212 244.145 191.804 236.017 236.926 230.347C263.37 226.945 289.395 219.951 315.839 215.793C368.727 207.665 425.603 195.568 479.54 195.001C466.528 193.3 452.257 183.282 439.454 181.581Z" fill="#2D5601"/>
  <path opacity="0.35" d="M594.132 192.36C629.81 198.598 666.118 194.251 702.217 198.22C707.673 198.787 720.056 198.976 724.043 202.756C728.451 207.104 723.834 209.561 725.303 213.719C728.87 224.682 741.253 222.792 752.586 222.792C781.968 222.792 809.042 220.713 838.005 216.365C865.498 212.207 892.152 203.323 919.646 199.732C927.621 198.787 938.534 196.519 938.324 205.591C938.114 213.152 926.152 216.365 926.152 224.304C947.769 225.249 967.497 220.902 988.484 219.768C1038.64 217.121 1085.87 208.994 1132.67 196.897C1133.09 193.684 1131.83 190.848 1128.89 189.336C1128.89 188.58 1129.1 186.501 1128.89 185.934C1133.93 184.8 1138.96 184.8 1144.42 184.611C1146.73 175.538 1117.14 171.191 1109.79 167.789C1102.87 164.575 1103.28 162.685 1095.1 161.173C1088.8 160.039 1081.67 159.661 1075.16 159.094C1060.89 157.771 1045.99 158.149 1032.14 155.692C1031.93 155.692 1031.93 155.692 1031.72 155.692C997.718 154.18 963.929 154.18 928.88 158.527C895.3 162.685 860.881 160.228 826.881 158.527C782.178 156.07 740.833 158.905 696.55 164.575C662.131 168.923 627.921 175.538 595.391 185.934C593.502 188.013 592.872 190.092 594.132 192.36Z" fill="url(#paint4_linear_100_2)"/>
  <g opacity="0.25">
    <path d="M519.206 81.2201C511.231 85.0004 500.527 91.0488 495.49 98.2314C504.725 94.4511 513.12 87.8356 522.144 83.2992C525.502 81.7871 528.65 80.275 532.008 78.9519C528.44 79.3299 525.082 79.708 521.515 80.086C520.675 80.464 520.045 80.842 519.206 81.2201Z" fill="#57A100"/>
    <path d="M554.464 79.8969C547.748 84.2442 538.723 92.5609 537.254 99.9325C541.032 94.6401 550.896 88.0245 557.192 83.2992C561.179 80.464 565.377 77.2507 569.155 74.6045C566.636 74.7935 564.118 75.1716 561.599 75.3606C558.871 77.0617 556.352 78.7628 554.464 79.8969Z" fill="#57A100"/>
    <path d="M608.403 77.2506C597.91 83.4881 590.564 94.0729 585.107 103.902C599.589 90.6707 613.86 79.5188 628.131 70.2571C625.403 70.4461 622.675 70.6351 619.737 70.6351C615.539 73.0923 611.342 75.5495 608.403 77.2506Z" fill="#57A100"/>
    <path d="M669.266 75.5491C661.081 80.8415 652.686 88.0241 646.809 95.3957C643.451 99.743 640.933 104.468 638.834 109.005C649.328 93.6945 668.006 79.1404 684.796 70.6348C686.685 69.6897 688.364 68.7446 690.043 67.7996C687.734 67.9886 685.426 67.9886 682.907 68.1776C678.08 70.2567 673.043 73.092 669.266 75.5491Z" fill="#57A100"/>
    <path d="M699.906 97.4753C696.339 102.579 694.66 107.871 693.4 113.353C698.647 95.7742 722.573 79.5189 739.153 67.989C740.832 66.8549 742.511 65.9099 744.19 65.1538C742.091 65.1538 740.202 65.3428 738.103 65.3428C722.573 73.0924 708.721 84.8113 699.906 97.4753Z" fill="#57A100"/>
    <path d="M795.609 67.6108C789.733 71.0131 783.646 74.0373 778.4 78.0066C769.165 85.0001 761.61 93.6948 754.684 102.2C752.375 105.225 750.067 108.438 748.178 111.651C753.425 103.902 763.079 95.774 769.375 90.1035C778.19 82.1649 787.214 75.1714 797.078 68.1778C799.597 66.2877 802.325 64.7756 804.634 63.0745C803.584 63.0745 802.535 63.0745 801.276 63.0745C799.387 64.9646 797.288 66.4767 795.609 67.6108Z" fill="#57A100"/>
    <path d="M883.756 84.4331C878.719 92.5607 875.151 101.444 871.793 109.761C870.324 113.352 869.484 117.511 869.064 121.291C870.743 113.352 877.25 103.902 881.027 97.8531C886.274 89.3474 892.57 80.8418 897.187 72.1471C898.447 69.6899 900.126 66.2877 902.225 63.2634C901.595 63.2634 900.755 63.2634 900.126 63.2634C893.83 69.5009 886.484 80.2747 883.756 84.4331Z" fill="#57A100"/>
    <path d="M938.954 64.5864C938.324 73.8481 932.867 86.1341 931.818 95.0178C930.349 107.493 930.769 119.779 932.448 132.065C932.448 119.401 935.806 107.115 937.695 94.8288C938.954 86.1341 942.312 74.2262 940.423 64.5864C940.003 64.5864 939.374 64.5864 938.954 64.5864Z" fill="#57A100"/>
    <path d="M987.434 75.5494C986.385 72.3362 985.336 69.501 983.657 66.6658C983.237 66.6658 983.027 66.6658 982.607 66.6658C986.175 73.6593 987.644 81.976 989.533 89.3475C992.262 99.7433 994.78 109.95 997.928 120.157C998.768 123.181 1000.03 127.528 1000.45 131.309C1000.45 121.858 999.817 113.163 997.508 104.469C994.78 94.4509 990.373 85.0002 987.434 75.5494Z" fill="#57A100"/>
    <path d="M1035.29 69.879C1033.82 69.69 1032.35 69.69 1030.67 69.501C1037.38 74.9824 1044.1 81.2199 1048.3 87.4574C1055.01 97.2861 1060.47 110.517 1064.67 121.291C1067.4 128.095 1070.96 134.9 1072.85 141.894C1072.64 118.078 1057.11 91.0486 1039.69 73.6593C1038.22 72.1472 1036.75 71.0131 1035.29 69.879Z" fill="#57A100"/>
    <path d="M1111.47 89.3472C1108.32 84.4329 1103.08 80.6526 1098.04 77.2503C1095.94 75.7382 1093.84 74.6041 1091.74 73.281C1090.06 73.281 1088.38 73.281 1086.71 73.281C1089.85 75.1712 1093.42 76.8723 1095.52 78.5734C1100.35 82.3537 1103.7 87.0791 1107.9 91.6154C1116.51 100.877 1126.79 112.029 1130.99 123.181C1133.51 129.985 1136.66 136.223 1138.96 143.216C1140.01 129.607 1134.14 115.809 1124.69 105.035C1119.66 99.176 1115.46 95.3957 1111.47 89.3472Z" fill="#57A100"/>
    <path d="M1181.36 99.5542C1172.54 91.6156 1166.25 82.9209 1154.28 77.4395C1153.65 77.0615 1153.02 76.8725 1152.19 76.4944C1148.83 76.1164 1145.47 75.7384 1142.11 75.3604C1151.98 79.8967 1163.94 86.3232 1166.25 88.4023C1170.86 92.5607 1175.9 97.475 1179.89 102.011C1184.09 106.926 1189.54 110.706 1193.53 115.62C1197.73 120.535 1201.09 126.205 1205.49 130.931C1205.49 120.157 1188.91 106.17 1181.36 99.5542Z" fill="#57A100"/>
    <path d="M1220.81 86.3234C1219.56 83.6772 1216.62 82.5431 1212.63 81.598C1210.53 81.409 1208.64 81.409 1206.54 81.22C1212 83.6772 1217.25 86.7014 1221.44 88.7806C1230.89 93.6949 1239.7 99.5544 1249.57 104.28C1254.81 106.926 1260.06 109.95 1264.26 114.109C1258.38 100.688 1234.67 90.4817 1220.81 86.3234Z" fill="#57A100"/>
  </g>
  <g opacity="0.25">
    <path d="M740.622 65.3425C737.683 68.5558 733.486 71.58 730.548 74.6042C726.14 79.1406 723.622 83.8659 720.684 89.1584C716.486 96.7189 714.807 102.956 715.437 111.651C730.338 116.187 743.56 92.9387 754.893 86.8902C770.004 78.7626 784.695 68.5558 801.485 63.4524C781.127 63.8304 760.77 64.5865 740.622 65.3425Z" fill="url(#paint5_linear_100_2)"/>
    <path d="M578.81 73.848C576.501 75.1711 574.403 76.8722 572.514 78.3843C566.847 82.9207 555.094 92.5604 556.563 100.31C562.44 101.633 569.366 94.4506 574.613 92.3714C581.119 89.7252 585.106 86.89 591.193 83.6767C598.538 79.7074 610.921 73.0919 621.624 70.8237C607.143 71.5798 592.872 72.5249 578.81 73.848Z" fill="url(#paint6_linear_100_2)"/>
    <path d="M533.267 78.7623C531.588 78.9513 529.909 79.1403 528.23 79.3294C529.279 81.2195 522.983 85.7559 523.403 90.6702C535.366 92.7494 547.748 79.8964 558.872 75.5491C550.267 76.6832 541.872 77.6282 533.267 78.7623Z" fill="url(#paint7_linear_100_2)"/>
    <path d="M806.733 63.2631C805.684 67.6104 799.178 71.9578 796.03 74.604C789.104 80.6524 782.598 87.268 776.721 94.2615C772.943 98.9869 763.499 109.572 764.968 115.998C774.203 119.211 779.03 112.407 784.277 107.493C790.783 101.066 800.437 97.8528 807.573 92.1823C822.474 80.2744 840.523 68.1775 859.621 62.696C841.992 62.696 824.363 62.8851 806.733 63.2631Z" fill="url(#paint8_linear_100_2)"/>
    <path d="M729.709 65.9094C722.153 66.2875 714.598 66.4765 707.252 66.8545C701.795 67.0435 696.549 67.2325 691.092 67.6105C682.697 77.0613 654.994 101.255 663.598 107.871C670.105 112.785 686.475 93.8836 690.672 91.0483C699.277 85.3779 708.092 79.8965 716.487 74.2261C720.264 71.5798 724.882 68.5556 729.709 65.9094Z" fill="url(#paint9_linear_100_2)"/>
    <path d="M675.981 68.1775C661.08 68.7445 645.97 69.5006 630.859 70.2566C629.809 74.793 593.081 110.517 620.785 99.3649C637.785 92.3714 648.908 80.0854 665.908 72.7138C669.056 71.3907 672.414 69.6896 675.981 68.1775Z" fill="url(#paint10_linear_100_2)"/>
    <path d="M449.107 90.8593C449.527 91.4264 450.157 92.1824 450.577 92.5604C456.873 92.9385 464.428 93.6945 470.095 94.0726C478.28 94.4506 486.255 89.1582 493.601 86.512C498.428 84.8109 503.045 82.9207 508.082 81.9757C509.551 81.7866 511.02 81.2196 512.699 80.8416C492.551 82.5427 471.774 83.4878 452.256 87.8351C450.577 88.7802 449.527 89.7252 449.107 90.8593Z" fill="url(#paint11_linear_100_2)"/>
    <path d="M1029.41 69.5003C1018.49 68.7443 1007.58 67.9882 996.668 67.4211C997.088 68.5552 997.717 69.6893 998.137 70.6344C999.606 74.4147 1000.66 77.8169 1002.96 81.2192C1004.85 84.0544 1008.21 85.9446 1010.1 88.7798C1017.45 101.066 1019.54 116.754 1035.49 123.369C1056.06 131.875 1044.52 108.248 1042.84 99.5536C1040.74 89.5358 1031.09 79.3291 1029.41 69.5003Z" fill="url(#paint12_linear_100_2)"/>
    <path d="M989.112 97.0969C988.273 87.4571 987.224 76.8723 985.335 66.8546C971.483 66.0985 957.421 65.3424 943.57 64.7754C943.57 66.4765 943.36 68.1777 943.57 69.5008C944.829 75.7382 950.076 80.0856 951.965 85.945C954.903 95.7738 953.224 107.682 959.1 116.754C962.458 122.047 978.199 131.308 984.705 126.016C988.273 123.181 985.545 116.943 986.384 113.352C987.853 107.304 989.742 103.523 989.112 97.0969Z" fill="url(#paint13_linear_100_2)"/>
    <path d="M907.054 63.2632C903.906 71.2018 896.56 80.4635 893.832 87.079C891.313 93.5055 890.893 99.554 889.634 105.98C888.795 110.139 885.017 115.998 885.437 119.968C886.066 126.961 896.35 130.741 902.856 127.906C906.844 126.205 915.029 118.077 917.757 114.864C921.325 110.328 922.165 103.523 924.053 98.4199C928.251 87.4571 931.819 74.9821 936.856 64.3973C932.658 64.2083 928.461 64.0192 924.263 63.8302C918.597 63.6412 912.72 63.4522 907.054 63.2632Z" fill="url(#paint14_linear_100_2)"/>
    <path d="M896.138 63.0741C885.645 62.8851 874.941 62.696 864.447 62.696C860.25 67.2324 856.472 72.3358 853.744 75.549C846.398 84.9998 836.744 91.4263 832.756 102.011C830.868 106.925 830.238 110.895 829.398 116.376C828.349 122.803 826.67 126.205 835.695 122.992C843.46 120.345 850.806 115.053 856.052 109.761C862.349 103.334 868.435 96.9077 874.521 90.4812C880.188 84.6218 885.435 77.8172 890.262 71.2017C891.941 69.3116 893.83 65.9093 896.138 63.0741Z" fill="url(#paint15_linear_100_2)"/>
    <path d="M1087.54 73.2811C1079.57 73.0921 1071.59 72.903 1063.62 72.147C1055.43 71.3909 1047.04 70.8239 1038.64 70.2568C1040.74 72.525 1042.42 75.1712 1044.31 77.2504C1049.77 83.1098 1058.37 85.567 1063.62 91.4265C1069.49 98.231 1072.64 102.389 1081.25 107.304C1087.75 110.895 1093.21 116.943 1099.93 119.968C1114.62 126.772 1112.1 112.596 1108.95 104.279C1105.17 93.1276 1090.06 85.189 1087.54 73.2811Z" fill="url(#paint16_linear_100_2)"/>
    <path d="M1253.97 86.7011C1237.81 84.0548 1221.44 81.9757 1205.49 81.2196C1181.56 80.2745 1158.69 76.8723 1135.18 74.6041C1123.01 73.47 1110.63 73.281 1098.46 73.281C1100.97 74.7931 1103.28 76.8723 1105.17 78.9514C1111.68 86.134 1113.99 89.7253 1123.43 93.8836C1135.18 98.987 1141.9 110.139 1154.28 114.108C1163.1 116.754 1170.23 115.431 1163.94 106.17C1160.37 100.688 1143.79 92.3715 1156.17 88.9692C1163.31 86.8901 1166.66 90.4813 1171.7 94.2616C1179.05 99.554 1185.55 101.822 1194.79 103.334C1198.56 103.901 1206.96 106.17 1209.9 103.145C1212.63 100.31 1208.85 98.609 1212.42 95.9628C1221.02 89.7253 1252.5 102.956 1254.18 88.5912C1253.97 87.8351 1253.97 87.2681 1253.97 86.7011Z" fill="url(#paint17_linear_100_2)"/>
  </g>
  <path opacity="0.6" d="M790.279 139.046C785.603 138.668 780.927 138.29 776.047 137.912C758.155 136.211 741.28 130.54 723.795 127.894C718.102 127.705 712.613 127.327 707.733 126.949C691.468 125.437 675.406 123.925 659.141 122.035C623.764 118.821 588.387 115.797 553.01 112.962C547.927 112.773 543.048 112.395 537.965 111.828C520.276 110.505 502.588 110.316 485.103 108.426C424.108 101.999 372.059 88.5791 300.492 87.067C272.028 86.5 222.013 88.5791 192.532 89.1462C173.624 90.0912 140.28 94.4386 121.982 96.7068C79.692 101.81 14.2245 117.498 8.125 124.492V126.382C8.93826 126.949 10.5648 127.516 13.2079 127.705C26.2201 138.479 60.1737 133.943 77.8622 133.943C103.48 133.943 129.911 126.949 155.529 130.351C192.329 135.455 227.096 154.545 265.319 158.136C272.842 158.893 296.833 161.917 302.729 156.624C308.218 151.71 301.509 142.07 301.916 135.266C324.484 122.035 374.499 132.241 398.49 137.534C433.257 145.094 469.244 148.119 505.028 150.387C522.716 151.521 553.01 161.728 568.259 150.387C558.703 142.07 548.334 137.345 571.105 134.321C590.623 131.674 614.005 133.187 633.726 134.132C671.543 135.644 708.343 141.314 746.16 143.015C756.935 143.393 785.603 146.607 792.922 140.558C791.906 139.802 791.092 139.424 790.279 139.046Z" fill="url(#paint18_linear_100_2)"/>
  <path opacity="0.7" d="M90.3883 140.701C88.7093 140.293 86.8618 140.003 84.835 139.733C63.2791 140.146 42.9621 138.64 21.7107 135.257C21.7215 135.355 19.1025 134.655 19.2927 134.733C18.1733 134.461 14.9113 134.801 13.8756 135.687C-14.6731 160.117 15.2502 168.688 19.7686 168.445C24.287 168.202 38.0589 166.414 41.276 162.69C46.8896 156.027 28.7242 157.549 31.4579 151.106C46.2978 149.062 59.4584 149.878 74.3418 148.225C83.6663 147.19 106.07 144.603 90.3883 140.701Z" fill="url(#paint19_linear_100_2)"/>
  <path opacity="0.7" d="M469.256 253.79C497.589 267.588 535.366 272.124 567.477 271.557C574.403 271.368 580.909 272.124 585.526 266.454C589.304 261.918 584.897 254.546 588.674 250.955C598.748 241.126 641.982 242.827 654.575 243.961C675.982 246.04 704.315 250.01 732.228 248.309C756.573 246.985 728.24 236.212 716.487 234.699C678.5 229.785 658.352 226.761 617.007 221.09C615.118 220.901 610.501 220.145 608.612 219.578C557.613 209.75 508.293 195.384 455.615 193.116C395.171 190.47 332.419 194.25 273.025 201.433C224.964 207.103 181.52 219.767 134.298 222.792C120.656 229.407 320.876 181.586 469.256 253.79Z" fill="url(#paint20_linear_100_2)"/>
  <g opacity="0.25">
    <path d="M869.276 183.854C862.35 186.311 855.634 188.958 848.918 191.415C836.116 196.14 823.943 201.433 811.141 206.158C796.869 211.45 786.376 217.121 774.833 226.004C768.956 230.541 762.45 232.242 756.364 236.211C749.858 240.37 744.191 244.339 738.734 249.253C747.549 240.937 761.82 236.967 772.944 232.053C784.487 226.761 794.141 218.444 806.104 214.097C820.585 208.993 834.017 203.134 848.498 197.463C862.14 192.171 875.362 183.665 889.424 181.019C894.88 180.074 900.337 179.129 905.584 178.184C893.411 179.885 881.448 181.775 869.276 183.854Z" fill="#4A8300"/>
    <path d="M983.656 170.056C973.582 174.97 963.508 181.208 954.274 187.256C944.41 193.872 936.434 198.786 928.669 207.67C925.101 211.828 920.484 215.23 917.126 219.389C913.348 223.925 911.879 229.218 907.892 233.754C900.966 241.882 894.25 251.332 891.521 260.972C901.595 243.583 921.953 232.053 936.225 217.688C940.002 213.907 942.311 208.993 945.879 205.024C950.076 200.487 956.163 197.463 960.57 193.116C967.706 186.122 975.261 182.153 983.026 175.915C987.853 172.135 993.31 169.111 998.557 165.898C995.829 166.276 993.31 166.654 990.582 166.843C988.483 167.977 985.965 168.922 983.656 170.056Z" fill="#4A8300"/>
    <path d="M1087.75 162.874C1079.36 170.056 1070.76 177.806 1064.04 186.5C1052.29 202 1046.62 219.956 1036.97 236.589C1032.56 243.961 1031.09 251.521 1028.99 259.082C1031.72 252.467 1037.39 246.04 1040.53 240.181C1044.73 232.62 1048.93 224.681 1053.76 217.499C1059.63 208.804 1065.93 200.866 1071.59 191.982C1077.89 182.153 1086.71 175.916 1094.68 167.599C1099.51 162.496 1103.08 156.636 1106.43 152.1C1106.01 152.1 1105.38 152.289 1104.96 152.289C1098.88 156.069 1090.69 160.227 1087.75 162.874Z" fill="#4A8300"/>
    <path d="M1190.59 144.35C1192.06 150.21 1185.35 165.709 1184.09 170.245C1181.36 179.696 1179.05 187.257 1178 196.896C1176.95 205.213 1174.01 213.719 1173.17 222.035C1172.33 230.163 1172.75 238.858 1171.91 246.796C1171.07 254.357 1170.44 265.509 1174.64 271.935C1174.22 254.735 1180.1 236.022 1184.72 219.389C1189.54 201.811 1192.27 181.964 1193.53 164.008C1193.74 160.228 1194.16 156.447 1194.16 152.478C1194.16 148.887 1192.9 146.429 1191.22 144.539C1191.01 144.35 1190.8 144.35 1190.59 144.35Z" fill="#4A8300"/>
    <path d="M1289.23 145.674C1284.82 138.113 1282.52 133.766 1275.8 131.119C1275.17 131.119 1274.33 131.119 1273.7 131.308C1278.74 136.412 1282.52 149.265 1283.98 153.045C1287.13 161.929 1289.86 171.19 1291.96 180.263C1296.16 198.976 1299.94 218.444 1304.13 237.157C1306.23 246.796 1309.59 256.247 1309.59 266.643C1315.47 246.796 1305.81 223.737 1303.5 203.701C1300.98 184.043 1299.31 163.063 1289.23 145.674Z" fill="#4A8300"/>
    <path d="M1486.3 236.778C1481.27 228.651 1473.92 222.602 1469.09 214.097C1460.49 198.786 1447.06 188.769 1435.3 175.538C1430.69 170.245 1428.17 163.819 1423.13 158.715C1417.88 153.423 1412.64 146.429 1406.97 142.082C1403.19 139.058 1397.74 137.924 1393.54 135.278C1389.55 132.631 1386.19 129.418 1381.79 127.528C1380.74 126.961 1379.48 126.583 1378.43 126.205C1374.86 126.394 1371.08 126.772 1367.51 126.961C1375.28 130.552 1383.04 136.412 1387.66 140.192C1393.75 145.106 1398.16 150.021 1402.77 156.258C1407.39 162.307 1414.53 166.654 1420.4 171.757C1432.57 182.342 1439.71 195.195 1449.99 207.292C1460.91 220.145 1470.14 234.132 1480.85 246.796C1486.93 253.979 1495.12 261.35 1499.1 269.856C1502.04 276.471 1503.51 282.709 1507.71 288.757C1509.81 291.971 1512.33 295.184 1514.63 298.208C1506.66 286.3 1503.51 271.935 1496.38 259.838C1491.97 252.845 1490.71 243.961 1486.3 236.778Z" fill="#4A8300"/>
    <path d="M1638.29 263.469C1636.98 258.448 1634.77 253.583 1632.2 248.43C1627.89 239.904 1623.73 230.828 1618.93 222.562C1614.12 214.297 1609.53 206.868 1602.04 200.641C1594.23 193.944 1586.99 188.371 1580.87 180.157C1567.61 162.683 1549.99 147.796 1532.79 133.798C1527.04 129.193 1523.63 127.582 1516.88 123.5C1508.37 123.25 1500.87 124.5 1493.13 124C1502.19 130.044 1506.95 128.113 1515.65 133.87C1523.59 139.234 1530.41 144.702 1537.96 150.746C1545.3 156.737 1555.05 161.788 1561.34 168.486C1567.32 174.712 1572.57 182.115 1578.5 188.524C1585.98 196.503 1594.9 203.096 1601.83 211.52C1608.61 219.708 1609.39 229.279 1614.66 238.251C1619.83 246.804 1623.23 255.487 1628.44 263.858C1631.04 268.043 1632.9 272.62 1634.5 277.327L1638.09 263.417L1638.29 263.469Z" fill="#4A8300"/>
  </g>
  <path opacity="0.08" d="M862.979 263.808C856.893 267.588 811.56 287.813 822.473 298.775C827.51 303.879 846.399 296.129 853.115 295.373C863.819 294.05 874.102 291.971 883.966 287.246C905.164 277.228 926.151 266.832 945.669 254.924C956.163 248.687 966.866 245.851 977.99 240.559C980.508 239.425 984.916 237.535 989.113 235.456C981.558 236.401 973.792 237.346 966.237 238.291C947.348 240.559 928.46 243.016 909.571 245.662C908.941 245.851 908.102 246.04 907.472 246.229C891.732 250.388 876.411 255.68 862.979 263.808Z" fill="white"/>
  <path opacity="0.08" d="M985.546 246.796C981.769 250.577 979.67 255.113 975.472 258.704C970.016 263.43 968.966 265.698 965.608 271.557C959.102 283.087 950.917 289.892 951.967 303.69C956.164 305.391 959.942 301.989 963.51 303.123C967.287 304.446 965.608 309.171 970.226 311.439C974.213 313.33 980.509 312.007 983.867 310.494C987.015 309.171 989.324 307.092 992.682 306.336C995.2 305.769 998.139 306.336 1000.45 305.58C1012.2 301.989 1022.06 288.947 1029.83 280.819C1034.66 275.716 1040.11 271.179 1044.94 265.887C1049.14 261.162 1051.45 255.302 1055.85 250.577C1063.83 241.693 1081.46 234.511 1085.03 222.981C1084.61 222.981 1083.98 222.981 1083.56 222.981C1058.58 226.194 1033.61 229.596 1008.63 232.809C1005.06 234.7 1001.92 237.157 998.139 238.669C993.312 240.748 989.324 243.205 985.546 246.796Z" fill="white"/>
  <path opacity="0.08" d="M1108.74 229.785C1107.06 232.62 1108.74 236.779 1107.27 239.992C1103.49 248.875 1093.84 254.924 1094.89 265.698C1095.52 272.502 1098.88 280.441 1100.56 287.245C1102.03 293.861 1103.28 301.8 1111.47 303.69C1120.49 305.769 1130.57 299.531 1137.07 294.995C1152.4 284.032 1164.78 264.753 1170.65 248.308C1173.8 239.614 1176.32 232.242 1177.58 223.358C1178 219.767 1180.94 217.499 1176.95 214.664C1176.53 214.286 1175.9 214.097 1175.48 213.719C1166.25 214.475 1157.01 215.231 1147.78 215.987C1146.31 216.365 1145.05 216.554 1144 216.554L1144.84 216.176C1141.06 216.554 1137.49 216.932 1133.72 217.31C1128.47 218.633 1123.43 220.523 1118.4 223.548C1115.88 225.06 1110.21 227.517 1108.74 229.785Z" fill="white"/>
  <path opacity="0.08" d="M1201.09 145.107C1198.57 151.911 1203.4 160.039 1203.4 167.788C1203.4 176.483 1203.61 185.745 1204.86 194.439C1206.12 203.323 1212.63 206.347 1218.3 211.829C1226.06 219.389 1232.57 215.798 1243.27 215.798C1248.31 215.798 1254.6 216.932 1259.43 215.798C1264.26 214.853 1265.1 212.018 1268.67 209.183C1277.06 202.378 1278.53 199.732 1280.21 189.525C1280.84 185.934 1283.36 181.019 1283.15 177.428C1282.94 173.459 1280.21 171.002 1279.16 167.032C1278.11 162.685 1279.79 157.96 1278.74 153.612C1277.69 149.076 1274.54 146.052 1272.65 141.893C1270.77 138.113 1271.18 135.845 1267.83 134.144C1247.05 135.467 1226.48 136.79 1205.7 138.302C1203.82 140.003 1202.14 142.271 1201.09 145.107Z" fill="white"/>
  <path opacity="0.08" d="M1295.95 152.667C1302.03 159.472 1306.23 164.386 1310.64 172.514C1315.89 181.965 1317.77 190.47 1329.32 194.44C1335.4 196.519 1341.91 197.464 1347.58 200.866C1352.82 204.079 1357.02 209.939 1362.9 212.018C1368.14 213.908 1374.86 212.585 1380.53 214.097C1385.77 215.42 1390.81 217.877 1396.27 218.444C1404.03 219.578 1416.41 214.475 1413.69 205.024C1412.43 200.866 1407.18 198.787 1405.92 194.25C1404.03 187.635 1406.34 186.501 1401.09 180.83C1393.54 172.703 1389.13 162.307 1384.72 152.478C1382.42 147.375 1382 144.162 1376.96 140.948C1371.71 137.735 1365.21 133.199 1358.7 129.229C1352.61 129.608 1346.74 129.986 1340.65 130.364C1323.86 131.12 1307.28 132.065 1290.49 133.01C1289.65 133.388 1288.81 133.955 1288.18 134.522C1282.31 139.247 1291.12 147.375 1295.95 152.667Z" fill="white"/>
  <path opacity="0.08" d="M1412.85 140.381C1420.4 145.107 1425.65 150.966 1434.67 154.557C1450.42 160.984 1464.06 169.111 1481.69 168.355C1494.7 167.788 1506.45 171.569 1519.46 172.325C1522.82 172.514 1532.48 173.27 1533.53 168.544C1534.15 165.52 1526.6 157.203 1524.29 154.935C1520.3 150.588 1515.9 146.43 1511.91 142.271C1501.83 132.065 1489.87 130.552 1473.29 124.315C1448.53 125.071 1423.76 127.15 1399.21 129.229C1397.32 138.68 1405.92 136.034 1412.85 140.381Z" fill="white"/>
  <path opacity="0.08" d="M1539.61 130.174C1539.82 133.955 1557.03 140.948 1560.6 141.515C1566.27 142.46 1569.2 142.271 1574.24 144.918C1578.02 146.997 1581.8 149.265 1586.2 150.21C1592.08 151.533 1603.41 149.643 1608.24 145.863C1620.62 135.845 1584.94 130.363 1580.33 128.095L1575.5 127.717C1563.96 128.095 1552.41 128.095 1541.08 127.906C1540.03 128.662 1539.61 129.418 1539.61 130.174Z" fill="white"/>
  <path d="M1657.35 247.846C1657.35 247.468 1657.14 247.09 1657.14 246.712C1650.21 244.443 1647.28 251.059 1641.19 250.87C1641.82 247.846 1643.08 244.443 1644.97 241.608C1640.98 244.821 1634.05 248.224 1630.91 250.87C1631.33 249.358 1630.7 247.468 1631.12 245.955C1629.02 247.468 1626.29 248.413 1623.98 248.791C1623.98 245.766 1624.19 242.364 1626.08 239.907C1622.72 243.12 1619.15 246.712 1615.38 249.547C1615.79 248.224 1615.17 246.333 1615.58 244.821C1613.07 246.712 1610.97 248.98 1608.24 249.547C1608.03 248.602 1607.61 247.657 1607.4 246.712C1605.93 247.846 1603.2 248.98 1601.73 250.492C1599.42 248.035 1581.8 249.547 1576.55 248.413C1566.47 246.145 1555.35 247.279 1545.49 250.114C1546.54 245.01 1551.36 239.34 1556.61 236.883C1545.28 236.883 1538.35 243.12 1531.43 249.736C1531.64 247.09 1531.64 244.632 1531.85 241.986C1528.49 242.742 1524.08 244.821 1521.14 247.279C1520.93 246.145 1519.88 244.632 1519.88 243.12C1518.62 244.443 1515.69 246.145 1514.22 247.468C1513.8 245.766 1511.91 243.876 1511.7 242.364C1510.86 244.065 1508.76 245.199 1507.71 246.901C1507.08 245.955 1505.4 245.388 1504.77 243.876C1503.72 245.199 1500.99 246.523 1499.94 247.657C1497.22 242.742 1488.82 250.492 1482.73 247.657C1474.76 244.065 1478.75 231.023 1473.08 225.731C1473.08 230.078 1474.97 243.876 1469.93 245.199C1469.3 241.419 1468.46 237.072 1464.69 234.993C1464.48 239.529 1458.81 248.224 1456.08 239.151C1449.57 244.254 1452.09 242.742 1445.38 242.553C1440.76 242.364 1436.35 243.876 1431.74 243.687C1431.95 239.529 1431.95 234.804 1433.41 231.023C1430.27 235.182 1425.02 238.773 1420.82 241.986C1420.82 240.852 1419.77 238.584 1419.98 237.261C1416.62 238.584 1410.75 244.632 1409.49 238.395C1407.6 239.529 1404.24 239.718 1402.35 240.663C1401.93 239.151 1400.04 237.261 1399.62 235.938C1399 236.505 1397.74 237.072 1397.32 237.639C1393.96 234.237 1392.49 229.322 1388.29 226.865C1388.29 231.023 1389.34 236.505 1386.19 239.718C1383.88 237.45 1382 234.993 1380.53 232.157C1380.53 233.859 1379.27 235.749 1379.06 237.45C1377.59 236.505 1374.86 236.316 1373.39 234.993C1373.18 236.316 1371.5 237.639 1371.08 238.962C1369.4 238.206 1366.88 237.45 1365.42 235.749C1364.79 237.072 1362.48 238.395 1361.85 239.529C1360.59 237.45 1358.7 237.828 1357.23 236.505C1354.29 238.395 1350.93 240.852 1347.58 241.041C1347.79 238.962 1346.32 236.127 1345.9 234.615C1340.23 241.041 1332.89 241.041 1325.33 243.687C1325.33 239.529 1326.8 234.804 1328.27 231.023C1326.38 234.615 1321.76 237.261 1317.98 239.529C1318.19 237.072 1317.98 234.615 1317.77 232.157C1316.1 233.67 1313.16 234.615 1311.48 235.938C1311.48 234.804 1310.22 233.103 1310.22 232.157C1307.91 233.292 1305.6 234.426 1303.29 235.56C1303.08 233.859 1301.4 238.017 1301.4 236.127C1295.95 237.828 1291.54 243.498 1285.66 244.065C1283.36 239.34 1285.24 232.913 1285.87 227.999C1282.94 231.779 1276.85 237.639 1272.02 239.718C1271.81 238.017 1270.34 235.938 1270.34 234.048C1269.5 235.182 1267.19 236.127 1266.15 237.45C1265.52 236.883 1264.47 236.505 1263.84 236.127C1263 237.45 1261.11 238.395 1260.27 239.718C1259.22 239.718 1258.8 239.151 1257.96 238.584C1257.33 239.151 1256.91 239.718 1256.28 240.285C1252.71 234.993 1249.15 237.639 1246 241.797C1243.48 240.096 1241.8 237.639 1239.7 235.56C1235.71 237.828 1234.24 242.364 1229.63 240.096C1226.27 238.395 1223.33 228.944 1220.39 225.92C1222.49 230.645 1223.75 235.938 1219.34 240.096C1214.94 238.017 1213.68 230.834 1208.85 229.511C1208.01 233.481 1208.01 237.45 1207.38 241.419C1206.75 240.096 1205.07 238.962 1204.44 237.45C1203.6 240.096 1202.55 242.742 1200.87 245.01C1199.62 243.12 1197.73 241.419 1196.89 239.34C1196.68 240.663 1195 242.364 1194.79 243.876C1193.74 242.742 1191.22 242.175 1190.17 240.852C1189.75 242.364 1187.02 244.254 1186.39 245.388C1184.71 243.876 1182.62 242.931 1181.57 240.663C1180.52 241.608 1177.79 242.175 1176.74 243.498C1166.88 238.584 1167.92 243.498 1157.64 243.687C1150.72 243.876 1153.44 241.23 1147.99 237.45C1144.21 239.529 1145.68 244.632 1140.43 246.145C1140.01 244.632 1138.12 242.553 1138.54 240.096C1136.65 242.364 1134.34 244.632 1131.62 246.145C1126.37 242.175 1127.84 233.481 1133.09 229.7C1127 232.913 1124.48 240.285 1122.8 246.145C1120.91 243.687 1120.28 240.852 1117.97 238.962C1115.88 241.041 1113.15 242.742 1110.21 243.498C1109.79 241.419 1107.48 239.529 1106.85 238.017C1104.96 239.718 1102.44 239.907 1100.56 240.663C1100.14 238.962 1098.46 237.45 1098.04 236.316C1096.99 238.017 1094.89 238.773 1093.63 240.285C1091.53 236.127 1089.22 231.779 1085.44 228.755C1085.65 232.913 1087.12 237.639 1083.56 240.852C1082.51 239.718 1079.36 238.584 1078.52 237.261C1077.47 246.712 1062.36 241.608 1060.47 235.56C1060.26 238.206 1058.37 238.962 1056.06 240.285C1055.22 238.395 1053.12 237.072 1051.65 235.749C1050.61 239.907 1046.41 235.938 1044.52 231.023C1033.61 245.955 1033.61 227.999 1030.67 226.298C1030.46 232.157 1028.15 238.206 1022.27 241.041C1022.06 239.529 1020.8 237.639 1020.8 236.127C1018.08 238.962 1016.4 245.956 1010.73 244.443C1008.63 243.876 1008.84 240.474 1006.95 239.151C1004.85 237.639 1001.49 236.883 998.977 236.505C999.186 239.34 998.557 242.364 995.828 244.065C991.841 237.639 981.977 229.7 972.952 230.267C978.619 237.639 988.483 241.797 985.335 252.949C980.718 250.114 978.829 244.632 971.693 243.498C971.693 246.901 973.162 250.492 972.742 254.083C968.335 254.461 966.866 250.303 963.298 248.602C962.249 252.004 960.15 252.571 957.002 252.949C955.323 253.138 953.224 250.114 951.335 249.925C950.286 249.925 949.656 252.76 948.817 252.76C945.879 252.571 942.94 250.492 940.422 250.681C937.274 250.87 935.805 254.839 931.397 253.705C929.089 248.98 929.928 241.797 931.817 237.261C925.731 240.474 923.632 244.821 919.854 249.358C917.755 247.279 915.867 243.687 912.509 243.12C909.78 251.626 904.953 240.474 901.176 247.846C895.509 242.175 891.311 249.925 887.114 244.065C882.077 260.321 874.522 238.206 864.867 236.505C864.867 241.986 867.386 246.145 866.336 252.004C862.139 251.248 859.411 246.145 856.472 243.498C856.682 245.199 855.633 247.279 855.633 248.98C852.695 248.791 851.016 249.925 849.966 252.193C848.077 250.303 845.349 248.791 842.411 248.791C842.201 249.358 842.201 250.114 841.991 250.681C837.584 250.87 834.016 248.413 829.819 248.224C828.559 248.224 827.3 248.413 826.041 248.602C824.782 248.413 823.522 248.224 822.263 248.224C818.275 248.413 814.498 250.87 810.09 250.681C809.881 250.114 809.881 249.358 809.671 248.791C806.732 248.791 804.214 250.303 802.115 252.193C801.066 249.925 799.387 248.602 796.449 248.98C796.449 247.279 795.399 245.01 795.609 243.498C792.671 246.145 789.943 251.248 785.745 252.004C784.696 246.145 787.214 241.986 787.214 236.505C777.56 238.206 770.214 260.321 764.968 244.065C760.77 249.925 756.363 242.175 750.906 247.846C746.918 240.663 742.301 251.815 739.573 243.12C736.215 243.876 734.536 247.279 732.227 249.358C728.45 244.821 726.351 240.474 720.265 237.261C722.153 241.797 722.993 248.98 720.684 253.705C716.067 254.65 714.808 250.87 711.66 250.681C709.141 250.492 706.203 252.382 703.265 252.76C702.425 252.76 702.006 249.925 700.746 249.925C698.857 250.114 696.759 253.138 695.08 252.949C691.932 252.76 689.833 252.004 688.784 248.602C685.216 250.303 683.956 254.461 679.339 254.083C678.919 250.681 680.389 247.09 680.389 243.498C673.253 244.632 671.154 250.114 666.747 252.949C663.599 241.797 673.673 237.639 679.129 230.267C670.105 229.7 660.241 237.639 656.253 244.065C653.525 242.553 652.895 239.529 653.105 236.505C650.587 237.072 647.438 237.639 645.13 239.151C643.241 240.474 643.451 243.876 641.352 244.443C635.685 245.956 634.007 238.773 631.278 236.127C631.278 237.639 630.019 239.529 629.809 241.041C623.933 238.206 621.414 232.157 621.414 226.298C618.476 227.999 618.476 245.766 607.562 231.023C605.674 236.127 601.476 239.907 600.427 235.749C598.958 237.072 596.859 238.395 596.019 240.285C593.711 238.962 591.822 238.206 591.612 235.56C589.723 241.608 574.612 246.712 573.563 237.261C572.724 238.584 569.366 239.718 568.526 240.852C564.748 237.639 566.427 233.102 566.637 228.755C562.859 231.779 560.551 236.127 558.452 240.285C557.403 238.773 555.094 238.017 554.045 236.316C553.625 237.639 551.736 238.962 551.526 240.663C549.428 239.907 547.119 239.718 545.23 238.017C544.6 239.529 542.292 241.419 541.872 243.498C538.934 242.742 536.205 241.041 534.107 238.962C532.008 241.041 531.169 243.876 529.28 246.145C527.601 240.285 525.292 232.913 518.996 229.7C524.243 233.291 525.712 242.175 520.465 246.145C517.737 244.632 515.428 242.364 513.539 240.096C513.959 242.553 512.07 244.443 511.65 246.145C506.404 244.443 507.873 239.529 504.095 237.45C498.428 241.23 501.157 243.876 494.441 243.687C484.157 243.498 485.206 238.584 475.342 243.498C474.293 242.175 471.564 241.608 470.515 240.663C469.466 242.931 467.367 243.876 465.688 245.388C465.058 244.065 462.54 242.175 461.91 240.852C460.861 242.364 458.342 242.931 457.293 243.876C457.083 242.553 455.404 240.663 455.194 239.34C454.355 241.419 452.466 243.12 451.207 245.01C449.528 242.742 448.478 239.907 447.639 237.45C447.009 238.962 445.33 240.096 444.701 241.419C444.071 237.45 444.071 233.481 443.232 229.511C438.404 231.023 437.145 238.017 432.738 240.096C428.331 235.938 429.59 230.645 431.689 225.92C428.75 228.755 426.022 238.395 422.454 240.096C417.837 242.364 416.368 237.828 412.38 235.56C410.281 237.639 408.602 240.096 406.084 241.797C402.936 237.639 399.368 234.993 395.8 240.285C395.38 239.718 394.751 239.151 394.121 238.584C393.282 238.962 392.862 239.718 391.813 239.718C390.973 238.395 389.084 237.45 388.245 236.127C387.615 236.694 386.566 237.072 385.936 237.45C384.887 236.127 382.578 235.182 381.739 234.048C381.739 235.938 380.27 237.828 380.06 239.718C375.233 237.828 369.146 231.779 366.208 227.999C366.838 232.913 368.726 239.34 366.418 244.065C360.541 243.498 356.344 237.828 350.677 236.127C350.677 238.017 348.998 233.859 348.788 235.56C346.69 234.426 344.171 233.292 341.863 232.157C341.863 233.103 340.603 234.993 340.603 235.938C338.924 234.426 335.986 233.67 334.307 232.157C333.887 234.615 333.887 237.072 334.097 239.529C330.53 237.261 325.912 234.615 323.814 231.023C325.283 234.615 326.752 239.34 326.752 243.687C319.406 241.041 311.851 241.041 306.184 234.615C305.764 235.938 304.505 238.962 304.505 241.041C301.147 240.852 297.789 238.584 294.851 236.505C293.382 237.828 291.493 237.45 290.234 239.529C289.604 238.395 287.296 237.072 286.666 235.749C285.197 237.45 282.678 238.017 280.999 238.962C280.58 237.639 278.901 236.316 278.691 234.993C277.222 236.505 274.283 236.505 273.024 237.45C273.024 235.749 271.765 233.859 271.555 232.157C270.086 234.993 268.197 237.45 265.888 239.718C262.74 236.505 263.79 231.023 263.79 226.865C259.592 229.511 257.913 234.426 254.765 237.639C254.136 237.072 253.086 236.505 252.457 235.938C252.247 237.261 250.148 239.151 249.728 240.663C247.629 239.718 244.481 239.529 242.592 238.395C241.333 244.632 235.457 238.584 232.099 237.261C232.099 238.584 231.049 240.852 231.259 241.986C227.062 238.773 221.815 235.182 218.667 231.023C220.136 234.804 220.136 239.529 220.346 243.687C215.729 244.065 211.111 242.364 206.704 242.553C199.988 242.931 202.507 244.443 196.001 239.151C193.272 248.035 187.606 239.529 187.396 234.993C183.618 237.072 182.779 241.419 182.149 245.199C177.112 243.876 179.001 230.078 179.001 225.731C173.334 231.023 177.322 244.065 169.347 247.657C163.26 250.492 154.865 242.553 152.137 247.657C151.088 246.523 148.359 245.199 147.31 243.876C146.68 245.199 145.001 245.955 144.372 246.901C143.322 245.199 141.224 244.065 140.384 242.364C139.964 243.876 138.285 245.766 137.866 247.468C136.606 245.956 133.668 244.254 132.199 243.12C132.199 244.632 131.15 245.956 130.94 247.279C128.211 245.01 123.804 242.742 120.236 241.986C120.446 244.632 120.656 247.09 120.656 249.736C113.73 243.12 106.804 236.883 95.4712 236.883C100.508 239.34 105.545 245.01 106.594 250.114C96.9403 247.279 85.6071 246.145 75.5332 248.413C70.2864 249.547 52.657 248.035 50.3484 250.492C48.8793 248.98 46.1509 247.846 44.6818 246.712C44.4719 247.657 44.0522 248.602 43.8423 249.547C41.1139 248.791 39.0152 246.523 36.4967 244.821C36.7066 246.144 36.2868 248.035 36.7066 249.547C32.9289 246.901 29.361 243.12 26.003 239.907C27.8919 242.364 28.1018 245.766 28.1018 248.791C25.7932 248.413 23.0648 247.468 20.9661 245.955C21.176 247.468 20.7562 249.358 21.176 250.87C18.0279 248.224 11.102 244.821 7.11443 241.608C9.00329 244.443 10.4724 247.846 10.8922 250.87C4.80583 251.059 2.28023 246.982 -4.85547 249.25C-4.85547 249.628 -5.05823 247.468 -5.2681 247.846C-5.68785 247.846 -6.1076 247.846 -6.52734 247.657C-5.89772 249.169 -4.8917 251.396 -2.79297 252.719C2.45387 255.932 19.0772 255.595 25.3734 256.162C53.4965 258.997 82.0393 261.266 111.422 259.943C126.323 259.186 140.384 260.51 155.075 260.699C172.495 260.888 189.914 256.729 207.334 256.918C228.531 257.107 246.58 259.943 268.407 258.241C291.283 256.351 312.69 255.028 335.357 257.485C353.406 259.376 368.097 259.754 386.356 262.4C405.664 265.235 428.75 265.991 448.269 264.29C474.503 262.211 504.305 262.022 530.539 264.29C552.576 266.18 568.316 256.918 590.143 259.376C694.03 271.283 701.376 252.76 755.733 262.211C772.943 265.235 789.943 257.863 807.362 259.186C809.671 259.376 814.708 260.51 820.584 261.266L820.374 262.022C822.053 262.022 823.942 261.833 825.621 261.833C827.3 262.022 829.189 262.022 830.868 262.022L830.658 261.266C836.534 260.51 841.571 259.376 843.88 259.186C861.299 257.863 878.299 265.235 895.509 262.211C949.866 252.949 957.212 271.472 1061.1 259.376C1082.93 256.918 1098.67 266.18 1120.7 264.29C1146.94 262.022 1176.74 262.211 1202.97 264.29C1222.49 265.802 1245.79 265.235 1264.89 262.4C1283.15 259.754 1297.84 259.376 1315.89 257.485C1338.34 255.028 1359.96 256.54 1382.84 258.241C1404.66 259.943 1422.71 257.107 1443.91 256.918C1461.33 256.729 1478.75 260.888 1496.17 260.699C1510.65 260.699 1524.92 259.376 1539.82 259.943C1569.41 261.455 1597.96 258.997 1625.87 256.162C1632.16 255.595 1648.74 255.217 1653.99 252.004C1656.09 250.681 1657.35 249.358 1657.77 247.657C1658.19 247.657 1657.77 247.846 1657.35 247.846Z" fill="url(#paint21_linear_100_2)"/>
  <path d="M1628.41 197.094C1633.66 191.143 1644.18 187.281 1652.01 187.281C1655.59 200.339 1663.03 226.647 1660.63 226.25C1657.63 225.754 1639.63 222.283 1630.63 218.316C1621.63 214.349 1624.78 201.216 1628.41 197.094Z" fill="#386B1A"/>
  <path d="M1640.07 201.773C1643.05 201.365 1646.91 203.357 1648.82 205.273C1650.74 211.107 1655.5 221.95 1653.7 221.75C1651.45 221.5 1634.38 214.102 1632.45 208.875C1631.03 205.059 1635.7 202.375 1640.07 201.773Z" fill="#305C09"/>
  <defs>
    <linearGradient id="paint0_linear_100_2" x1="1069.08" y1="372.085" x2="786.278" y2="-171.804" gradientUnits="userSpaceOnUse">
      <stop stop-color="#AAD201"/>
      <stop offset="0.1494" stop-color="#AFD407"/>
      <stop offset="0.3576" stop-color="#BCD81A"/>
      <stop offset="0.6005" stop-color="#D1DF37"/>
      <stop offset="0.8673" stop-color="#EFE960"/>
      <stop offset="0.9926" stop-color="#FFEE76"/>
    </linearGradient>
    <linearGradient id="paint1_linear_100_2" x1="23.875" y1="161" x2="783.839" y2="65.3009" gradientUnits="userSpaceOnUse">
      <stop stop-color="#55A773"/>
      <stop offset="0.1633" stop-color="#5BBE5F"/>
      <stop offset="0.4013" stop-color="#6BC24C"/>
      <stop offset="0.6847" stop-color="#86C92C"/>
      <stop offset="0.9926" stop-color="#AAD201"/>
    </linearGradient>
    <linearGradient id="paint2_linear_100_2" x1="6.39453" y1="155.635" x2="378.895" y2="155.635" gradientUnits="userSpaceOnUse">
      <stop stop-color="#55A873"/>
      <stop offset="1" stop-color="#2D5601"/>
    </linearGradient>
    <linearGradient id="paint3_linear_100_2" x1="538.002" y1="183.813" x2="1724.59" y2="183.813" gradientUnits="userSpaceOnUse">
      <stop stop-color="#57A100"/>
      <stop offset="0.1291" stop-color="#5EA706"/>
      <stop offset="0.312" stop-color="#70B616"/>
      <stop offset="0.4777" stop-color="#87C92A"/>
      <stop offset="0.6951" stop-color="#6BB752"/>
      <stop offset="0.8893" stop-color="#57A96F"/>
      <stop offset="1" stop-color="#4FA47A"/>
    </linearGradient>
    <linearGradient id="paint4_linear_100_2" x1="869.025" y1="148.841" x2="869.025" y2="265.426" gradientUnits="userSpaceOnUse">
      <stop stop-color="white"/>
      <stop offset="0.0912106" stop-color="#FAFDF1"/>
      <stop offset="0.2623" stop-color="#EEF6CE"/>
      <stop offset="0.4949" stop-color="#DBEC94"/>
      <stop offset="0.7766" stop-color="#C1DE45"/>
      <stop offset="1" stop-color="#AAD201"/>
    </linearGradient>
    <linearGradient id="paint5_linear_100_2" x1="724.564" y1="79.2895" x2="1172.33" y2="213.633" gradientUnits="userSpaceOnUse">
      <stop stop-color="white"/>
      <stop offset="0.3052" stop-color="#FCFDEA"/>
      <stop offset="0.7348" stop-color="#F8FAD2"/>
      <stop offset="1" stop-color="#F7F9C9"/>
    </linearGradient>
    <linearGradient id="paint6_linear_100_2" x1="713.564" y1="115.865" x2="1161.33" y2="250.209" gradientUnits="userSpaceOnUse">
      <stop stop-color="white"/>
      <stop offset="0.3052" stop-color="#FCFDEA"/>
      <stop offset="0.7348" stop-color="#F8FAD2"/>
      <stop offset="1" stop-color="#F7F9C9"/>
    </linearGradient>
    <linearGradient id="paint7_linear_100_2" x1="710.939" y1="124.589" x2="1158.72" y2="258.934" gradientUnits="userSpaceOnUse">
      <stop stop-color="white"/>
      <stop offset="0.3052" stop-color="#FCFDEA"/>
      <stop offset="0.7348" stop-color="#F8FAD2"/>
      <stop offset="1" stop-color="#F7F9C9"/>
    </linearGradient>
    <linearGradient id="paint8_linear_100_2" x1="727.738" y1="68.7749" x2="1175.48" y2="203.11" gradientUnits="userSpaceOnUse">
      <stop stop-color="white"/>
      <stop offset="0.3052" stop-color="#FCFDEA"/>
      <stop offset="0.7348" stop-color="#F8FAD2"/>
      <stop offset="1" stop-color="#F7F9C9"/>
    </linearGradient>
    <linearGradient id="paint9_linear_100_2" x1="720.497" y1="92.8092" x2="1168.24" y2="227.143" gradientUnits="userSpaceOnUse">
      <stop stop-color="white"/>
      <stop offset="0.3052" stop-color="#FCFDEA"/>
      <stop offset="0.7348" stop-color="#F8FAD2"/>
      <stop offset="1" stop-color="#F7F9C9"/>
    </linearGradient>
    <linearGradient id="paint10_linear_100_2" x1="717.532" y1="102.66" x2="1165.29" y2="237" gradientUnits="userSpaceOnUse">
      <stop stop-color="white"/>
      <stop offset="0.3052" stop-color="#FCFDEA"/>
      <stop offset="0.7348" stop-color="#F8FAD2"/>
      <stop offset="1" stop-color="#F7F9C9"/>
    </linearGradient>
    <linearGradient id="paint11_linear_100_2" x1="705.915" y1="141.385" x2="1153.73" y2="275.743" gradientUnits="userSpaceOnUse">
      <stop stop-color="white"/>
      <stop offset="0.3052" stop-color="#FCFDEA"/>
      <stop offset="0.7348" stop-color="#F8FAD2"/>
      <stop offset="1" stop-color="#F7F9C9"/>
    </linearGradient>
    <linearGradient id="paint12_linear_100_2" x1="740.562" y1="25.6591" x2="1188.55" y2="160.067" gradientUnits="userSpaceOnUse">
      <stop stop-color="white"/>
      <stop offset="0.3052" stop-color="#FCFDEA"/>
      <stop offset="0.7348" stop-color="#F8FAD2"/>
      <stop offset="1" stop-color="#F7F9C9"/>
    </linearGradient>
    <linearGradient id="paint13_linear_100_2" x1="736.949" y1="37.7087" x2="1184.96" y2="172.125" gradientUnits="userSpaceOnUse">
      <stop stop-color="white"/>
      <stop offset="0.3052" stop-color="#FCFDEA"/>
      <stop offset="0.7348" stop-color="#F8FAD2"/>
      <stop offset="1" stop-color="#F7F9C9"/>
    </linearGradient>
    <linearGradient id="paint14_linear_100_2" x1="732.779" y1="52.0631" x2="1180.5" y2="186.393" gradientUnits="userSpaceOnUse">
      <stop stop-color="white"/>
      <stop offset="0.3052" stop-color="#FCFDEA"/>
      <stop offset="0.7348" stop-color="#F8FAD2"/>
      <stop offset="1" stop-color="#F7F9C9"/>
    </linearGradient>
    <linearGradient id="paint15_linear_100_2" x1="730.012" y1="61.2593" x2="1177.72" y2="195.585" gradientUnits="userSpaceOnUse">
      <stop stop-color="white"/>
      <stop offset="0.3052" stop-color="#FCFDEA"/>
      <stop offset="0.7348" stop-color="#F8FAD2"/>
      <stop offset="1" stop-color="#F7F9C9"/>
    </linearGradient>
    <linearGradient id="paint16_linear_100_2" x1="744.726" y1="11.8411" x2="1192.67" y2="146.236" gradientUnits="userSpaceOnUse">
      <stop stop-color="white"/>
      <stop offset="0.3052" stop-color="#FCFDEA"/>
      <stop offset="0.7348" stop-color="#F8FAD2"/>
      <stop offset="1" stop-color="#F7F9C9"/>
    </linearGradient>
    <linearGradient id="paint17_linear_100_2" x1="751.245" y1="-9.71379" x2="1199.11" y2="124.658" gradientUnits="userSpaceOnUse">
      <stop stop-color="white"/>
      <stop offset="0.3052" stop-color="#FCFDEA"/>
      <stop offset="0.7348" stop-color="#F8FAD2"/>
      <stop offset="1" stop-color="#F7F9C9"/>
    </linearGradient>
    <linearGradient id="paint18_linear_100_2" x1="400.167" y1="85.5014" x2="400.167" y2="158.376" gradientUnits="userSpaceOnUse">
      <stop stop-color="white"/>
      <stop offset="0.0912106" stop-color="#FAFDF1"/>
      <stop offset="0.2623" stop-color="#EEF6CE"/>
      <stop offset="0.4949" stop-color="#DBEC94"/>
      <stop offset="0.7766" stop-color="#C1DE45"/>
      <stop offset="1" stop-color="#AAD201"/>
    </linearGradient>
    <linearGradient id="paint19_linear_100_2" x1="120.894" y1="27.5469" x2="108.06" y2="146.494" gradientUnits="userSpaceOnUse">
      <stop stop-color="white"/>
      <stop offset="0.0912106" stop-color="#FAFDF1"/>
      <stop offset="0.2623" stop-color="#EEF6CE"/>
      <stop offset="0.4949" stop-color="#DBEC94"/>
      <stop offset="0.7766" stop-color="#C1DE45"/>
      <stop offset="1" stop-color="#AAD201"/>
    </linearGradient>
    <linearGradient id="paint20_linear_100_2" x1="479.158" y1="142.712" x2="409.72" y2="332.498" gradientUnits="userSpaceOnUse">
      <stop stop-color="#FFEE76"/>
      <stop offset="0.1715" stop-color="#F5EB68"/>
      <stop offset="0.4929" stop-color="#DBE245"/>
      <stop offset="0.9264" stop-color="#B2D40B"/>
      <stop offset="1" stop-color="#AAD201"/>
    </linearGradient>
    <linearGradient id="paint21_linear_100_2" x1="-5.35898" y1="245.511" x2="1658.7" y2="245.511" gradientUnits="userSpaceOnUse">
      <stop stop-color="#4A8401"/>
      <stop offset="0.2214" stop-color="#529600"/>
      <stop offset="0.6441" stop-color="#4C8800"/>
      <stop offset="1" stop-color="#4A8300"/>
    </linearGradient>
  </defs>
</svg>
