<svg width="1648" height="264" viewBox="0 0 1648 264" fill="none" xmlns="http://www.w3.org/2000/svg">
  <path d="M320.15 83.8867C332.532 95.6056 340.088 81.9966 350.791 80.1064C356.458 79.1613 380.594 86.9109 375.557 71.9788C371.149 71.0337 367.162 70.2777 362.544 69.8996C364.433 58.3697 346.804 54.5895 339.248 61.772C334.002 44.9497 299.582 54.2114 305.459 70.0886C294.965 68.1985 288.879 80.1064 295.385 86.9109C301.891 94.0935 315.743 91.6363 320.15 83.8867Z" fill="url(#paint0_linear_100_2)"/>
  <path d="M894.363 185.199C898.56 173.858 885.338 175.748 877.993 175.181C880.091 160.06 867.709 160.627 855.326 163.462C858.894 140.78 833.289 140.024 822.796 158.547C816.29 145.883 808.315 144.938 795.512 151.554C793.623 137.378 776.414 144.56 769.278 149.853C764.031 133.976 741.785 116.586 722.476 124.903C705.477 132.085 698.341 155.334 698.97 170.644C686.168 160.627 656.786 164.218 659.095 183.497C644.194 179.528 636.848 189.168 633.7 200.887C629.502 199.753 629.922 196.161 626.564 194.271C622.367 191.814 618.169 194.082 615.021 192.759C605.577 189.168 603.688 179.906 590.256 185.388C592.355 173.102 575.775 177.449 568.849 178.961C570.108 168.943 556.676 167.998 549.121 172.156C554.997 166.486 551.639 154.956 544.084 152.499C532.121 148.53 519.319 157.98 514.702 166.864C514.492 146.072 484.9 149.475 470.208 153.444C483.43 139.835 457.826 112.428 447.752 129.439C442.295 115.452 425.295 122.257 422.357 133.03C418.999 112.806 381.432 116.586 383.531 137.378C378.284 112.995 355.198 102.599 328.544 107.325C303.569 111.861 288.038 123.958 286.779 147.396C279.643 141.725 265.372 142.859 258.236 147.396C249.421 153.255 250.891 161.383 253.199 169.51C246.063 169.699 238.928 171.211 236.199 175.559C226.545 171.967 214.163 178.205 215.842 188.79C208.076 183.119 190.447 182.363 186.669 192.381C179.324 182.93 160.225 185.766 164.423 198.619C146.374 198.051 134.621 212.228 135.46 227.916C161.065 228.105 187.299 233.586 212.903 236.043C245.854 239.257 279.643 240.013 312.803 239.824C399.481 239.635 485.529 230.94 571.787 225.648C675.045 219.788 778.303 216.197 880.721 204.856C888.486 203.911 904.856 204.856 911.362 200.32C915.14 197.673 916.399 197.673 915.35 191.814C913.461 181.607 903.177 184.442 894.363 185.199ZM239.348 177.26C239.138 177.26 239.138 177.26 239.348 177.26C239.348 176.693 239.557 175.937 239.348 177.26Z" fill="url(#paint1_linear_100_2)"/>
  <path d="M1015.04 105.434C1024.28 108.459 1050.3 111.483 1049.67 97.3068C1052.61 104.867 1073.6 106.001 1075.07 94.6606C1076.95 80.8626 1054.29 75.3811 1042.74 74.4361C1043.79 58.5588 1025.33 52.3214 1010.21 56.2907C1033.3 45.7059 997.832 28.8836 986.079 29.6396C965.301 30.7737 962.363 45.8949 962.363 61.7721L961.314 44.3827C948.931 26.0483 907.796 49.6752 921.648 68.9546C911.364 68.5766 902.759 71.7899 904.228 82.5637C892.895 73.491 864.562 87.1 874.216 100.142C882.611 111.672 902.549 101.843 911.364 98.6299C914.722 106.38 925.006 109.026 934.03 107.703C938.228 107.136 942.425 102.788 946.203 102.599C950.4 102.41 953.129 106.001 957.326 107.892C967.19 112.239 982.511 112.239 990.906 105.812C995.313 102.41 994.894 98.2519 1001.61 98.4409C1004.97 98.4409 1011.05 104.111 1015.04 105.434Z" fill="url(#paint2_linear_100_2)"/>
  <path d="M83.5856 125.067C98.8186 130.056 141.748 135.044 140.709 111.66C145.556 124.132 180.177 126.002 182.6 107.295C185.716 84.5335 148.326 75.4915 129.285 73.9325C131.016 47.7417 100.55 37.4524 75.623 44.0001C113.705 26.5396 55.1969 -1.21021 35.8095 0.0369691C1.53531 1.90774 -3.31161 26.8514 -3.31161 53.0422L-5.04263 24.357C-25.4687 -5.88716 -93.3247 33.0873 -70.4752 64.8904C-87.4392 64.2668 -101.634 69.5674 -99.2101 87.3397C-117.905 72.3735 -164.643 94.8228 -148.717 116.337C-134.869 135.356 -101.98 119.143 -87.4392 113.842C-81.8999 126.626 -64.936 130.991 -50.0492 128.809C-43.1251 127.873 -36.2009 120.702 -29.9693 120.39C-23.0452 120.078 -18.5446 126.002 -11.6205 129.12C4.65111 136.292 29.924 136.292 43.7722 125.691C51.0424 120.078 50.3501 113.219 61.4286 113.531C66.9679 113.531 77.0078 122.884 83.5856 125.067Z" fill="url(#paint3_linear_100_2)"/>
  <path d="M1734.71 125.067C1749.95 130.056 1792.88 135.044 1791.84 111.66C1796.69 124.132 1831.31 126.002 1833.73 107.295C1836.84 84.5335 1799.45 75.4915 1780.41 73.9325C1782.14 47.7417 1751.68 37.4524 1726.75 44.0001C1764.83 26.5396 1706.33 -1.21021 1686.94 0.0369691C1652.66 1.90774 1647.82 26.8514 1647.82 53.0422L1646.09 24.357C1625.66 -5.88716 1557.8 33.0873 1580.65 64.8904C1563.69 64.2668 1549.5 69.5674 1551.92 87.3397C1533.22 72.3735 1486.49 94.8228 1502.41 116.337C1516.26 135.356 1549.15 119.143 1563.69 113.842C1569.23 126.626 1586.19 130.991 1601.08 128.809C1608 127.873 1614.93 120.702 1621.16 120.39C1628.08 120.078 1632.58 126.002 1639.51 129.12C1655.78 136.292 1681.05 136.292 1694.9 125.691C1702.17 120.078 1701.48 113.219 1712.56 113.531C1718.1 113.531 1728.14 122.884 1734.71 125.067Z" fill="url(#paint4_linear_100_2)"/>
  <path d="M1508.45 170.645C1506.35 147.774 1480.12 159.304 1465.64 161.572C1464.59 145.317 1436.26 131.897 1423.87 145.695C1424.5 135.11 1420.52 121.312 1408.13 117.532C1396.38 113.94 1382.53 118.855 1372.24 121.879C1372.87 113.94 1366.37 106.191 1358.18 103.733C1347.48 100.709 1341.81 106.758 1334.68 111.672C1323.97 98.8191 1297.11 121.312 1299 133.598C1294.8 126.226 1289.97 122.824 1281.79 128.305C1280.53 113.184 1253.25 114.129 1251.15 128.683C1251.36 117.91 1235.83 115.074 1226.17 118.288C1215.68 121.879 1212.32 134.543 1213.37 143.616C1211.48 135.677 1198.47 132.086 1192.8 138.89C1189.02 134.165 1181.26 137.189 1178.74 141.725C1173.7 133.22 1159.01 141.158 1160.48 150.042C1153.77 138.512 1142.85 131.519 1128.16 135.488C1108.64 140.591 1110.53 149.664 1109.48 164.974C1097.31 151.176 1073.8 169.7 1081.57 182.174C1074.64 175.559 1058.06 181.229 1053.03 188.79C1053.87 186.333 1052.19 187.656 1050.3 189.168C1049.25 178.016 1030.36 175.37 1030.15 182.364C1028.05 175.937 1015.67 181.607 1012.94 185.955C998.25 175.559 996.151 203.911 1014.2 200.131C1013.78 226.215 1064.78 213.74 1080.52 221.111C1087.45 224.325 1092.9 229.617 1099.62 233.208C1115.15 241.714 1130.47 246.628 1148.31 249.464C1191.54 256.646 1233.31 262.128 1277.59 263.262C1313.48 264.207 1349.37 260.427 1385.26 261.75C1401.63 262.317 1413.17 261.561 1428.7 257.591C1438.98 254.945 1450.32 256.268 1461.65 254.378C1466.9 253.433 1474.24 252.11 1478.44 248.708C1481.8 245.872 1482.01 241.336 1484.74 238.879C1488.51 235.477 1490.61 235.099 1497.12 233.397C1509.71 229.806 1524.19 212.606 1504.88 206.935C1516.85 205.99 1536.37 198.619 1537.41 185.766C1538.04 168.376 1521.04 168.943 1508.45 170.645Z" fill="url(#paint5_linear_100_2)"/>
  <path d="M1161.95 29.4506C1162.58 42.8706 1186.93 36.6331 1190.91 27.7494C1195.53 35.6881 1203.3 31.7187 1210.01 31.3407C1212.95 31.1517 1213.58 30.5847 1217.15 30.9627C1220.09 31.1517 1223.65 33.6089 1227.22 33.9869C1247.37 35.688 1243.17 17.5427 1225.33 18.2987C1227.22 9.22602 1213.58 7.14685 1210.01 13.0063C1212.74 0.34233 1189.86 -0.413728 1189.44 10.1711C1181.68 9.60404 1161.74 6.3908 1163 18.4877C1156.49 17.3536 1130.47 16.4086 1131.52 27.3714C1132.57 35.8771 1156.49 31.5297 1161.95 29.4506Z" fill="url(#paint6_linear_100_2)"/>
  <g opacity="0.1">
    <path d="M457.617 156.09C458.457 154.011 458.247 152.499 457.197 151.554C457.617 153.066 457.827 154.578 457.617 156.09Z" fill="#81E3F0"/>
    <path d="M444.814 145.694C444.394 140.591 439.777 134.732 433.901 133.787C430.543 133.22 421.938 135.488 422.358 139.646C422.567 131.896 412.494 130.951 406.407 133.22C396.963 136.622 398.222 146.829 398.222 154.389C398.432 148.341 394.234 143.237 388.358 140.78C386.049 139.835 377.235 137.567 376.605 141.158C376.605 135.866 376.605 129.25 372.618 124.903C363.593 115.074 349.741 109.782 335.68 110.538C321.408 111.294 305.248 121.123 304.199 135.11C290.557 135.11 293.495 145.127 293.285 152.688C294.335 140.78 315.532 133.598 320.569 147.396C325.816 145.127 330.433 143.804 336.1 146.451C342.396 149.475 344.914 157.224 344.914 163.084C354.359 163.273 365.062 160.249 370.729 169.51C374.506 175.748 372.408 181.985 371.988 188.601C376.395 181.418 407.037 160.06 413.963 174.047C413.963 167.998 415.851 160.438 420.049 155.523C424.037 150.798 432.222 149.097 436.419 155.145C442.086 151.554 444.394 148.341 451.95 149.286C454.468 149.664 456.357 150.231 457.406 151.365C456.357 146.073 452.579 142.292 444.814 145.694Z" fill="#81E3F0"/>
    <path d="M848.4 157.98C849.24 158.548 850.289 159.115 851.129 159.871C850.499 159.115 849.66 158.548 848.4 157.98Z" fill="#81E3F0"/>
    <path d="M820.276 166.297C814.19 153.633 794.042 160.06 787.536 168.376C787.536 161.383 785.647 156.657 777.882 153.822C773.684 152.31 764.66 150.987 762.141 154.767C759.833 149.286 756.894 145.128 751.647 140.969C742.833 134.165 727.092 127.171 717.018 135.488C705.895 144.561 711.981 159.493 714.29 170.267C716.179 152.121 739.055 151.932 738.845 170.078C745.351 153.633 772.425 163.462 774.524 177.827C782.919 172.913 794.881 171.401 796.98 182.93C800.968 177.071 815.029 164.974 821.955 175.181C823.424 169.699 825.733 162.706 831.609 159.493C834.967 157.603 843.362 156.279 847.979 158.17C838.955 152.31 825.313 157.414 820.276 166.297Z" fill="#81E3F0"/>
    <path d="M1001.82 44.3828C1003.5 45.7059 1004.76 47.5961 1004.97 50.0532C1005.39 47.407 1004.13 45.5169 1001.82 44.3828Z" fill="#81E3F0"/>
    <path d="M985.869 41.5475C976.215 41.9255 971.807 49.4861 963.832 52.8883C960.054 43.8156 943.055 40.9804 934.24 44.9497C923.956 49.6751 921.438 63.2841 924.376 72.5459C914.932 72.3568 912.413 73.3019 910.314 81.9966C914.722 76.1371 930.252 73.4909 934.66 80.4845C933.82 77.8383 934.24 74.625 932.771 71.6008C917.24 61.205 948.511 39.8463 951.869 57.6137C956.906 49.2971 968.03 57.8027 967.82 64.9853C966.141 49.6751 992.375 40.0354 1001.61 44.7607C998.042 41.5475 991.326 41.1694 985.869 41.5475Z" fill="#81E3F0"/>
    <path d="M35.4597 19.6803C19.5343 20.3039 12.264 32.7757 -0.891769 38.388C-7.12344 23.4218 -35.166 18.7449 -49.7066 25.2926C-66.6706 33.0875 -70.8251 55.5368 -65.9782 70.8147C-81.5574 70.5029 -85.7118 72.0619 -89.1738 86.4045C-81.9035 76.7389 -56.2844 72.3737 -49.0141 83.9101C-50.3989 79.545 -49.7066 74.2445 -52.1301 69.2558C-77.7492 52.107 -26.1647 16.8741 -20.6255 46.1829C-12.3166 32.4639 6.03229 46.4947 5.68608 58.3429C2.91645 33.0875 46.192 17.1859 61.425 24.9808C55.5395 19.6803 44.461 19.0567 35.4597 19.6803Z" fill="#81E3F0"/>
    <path d="M1686.59 19.6803C1670.66 20.3039 1663.39 32.7757 1650.24 38.388C1644.01 23.4218 1615.96 18.7449 1601.42 25.2926C1584.46 33.0875 1580.3 55.5368 1585.15 70.8147C1569.57 70.5029 1565.42 72.0619 1561.96 86.4045C1569.23 76.7389 1594.84 72.3737 1602.11 83.9101C1600.73 79.545 1601.42 74.2445 1599 69.2558C1573.38 52.107 1624.96 16.8741 1630.5 46.1829C1638.81 32.4639 1657.16 46.4947 1656.81 58.3429C1654.05 33.0875 1697.32 17.1859 1712.55 24.9808C1706.67 19.6803 1695.59 19.0567 1686.59 19.6803Z" fill="#81E3F0"/>
    <path d="M1169.71 24.3472C1168.45 13.5734 1193.85 10.3601 1193.64 21.701C1195.74 17.7317 1203.92 16.5976 1207.07 20.3779C1207.7 14.3295 1199.31 13.9514 1194.48 14.1404C1193.22 8.65901 1184.19 9.79311 1185.24 11.6833C1177.69 5.8238 1165.31 12.0613 1165.52 20.3779C1158.59 19.6219 1152.29 18.2988 1150.2 26.0484C1153.34 20.5669 1164.68 23.5912 1169.71 24.3472Z" fill="#81E3F0"/>
    <path d="M1204.13 11.8724C1205.6 9.41517 1205.39 3.74472 1199.31 4.87881V2.42163C1195.74 3.17769 1193.64 5.82389 1192.17 8.47009C1196.16 3.3667 1203.3 6.95798 1204.13 11.8724Z" fill="#81E3F0"/>
    <path d="M1239.81 136.811C1240.23 128.116 1230.16 122.257 1222.18 126.604C1215.05 130.384 1214.84 141.158 1216.73 147.396C1212.53 137 1195.32 136.055 1192.8 147.585C1182.31 140.024 1177.27 146.261 1171.19 154.011C1157.33 138.323 1144.95 161.194 1144.32 171.4C1134.46 171.589 1130.68 174.047 1128.37 178.961C1132.99 174.992 1142.43 174.425 1151.46 174.047C1147.47 167.809 1165.1 163.084 1169.93 163.273C1177.06 163.651 1183.57 167.242 1188.39 171.4C1186.09 154.578 1219.67 164.407 1220.09 178.205C1221.55 169.699 1236.25 162.328 1242.54 171.211C1242.33 156.846 1249.47 144.749 1266.89 143.615C1261.22 133.219 1251.57 127.171 1239.81 136.811Z" fill="#81E3F0"/>
    <path d="M1125.64 187.278C1126.69 184.065 1127.53 181.418 1128.58 179.15C1126.27 181.04 1125.22 183.497 1125.64 187.278Z" fill="#81E3F0"/>
    <path d="M1100.25 176.882C1099.62 177.827 1098.99 178.961 1098.99 180.284C1099.41 178.961 1099.83 177.827 1100.25 176.882Z" fill="#81E3F0"/>
    <path d="M1137.4 157.603C1136.35 152.31 1140.34 149.664 1145.79 150.042C1144.53 145.884 1136.35 143.238 1135.3 141.347C1118.51 141.536 1109.27 153.633 1114.94 167.809C1106.76 167.431 1102.77 171.212 1100.25 176.882C1103.82 172.157 1114.1 173.669 1119.77 173.48C1119.14 162.895 1127.53 158.17 1137.4 157.603Z" fill="#81E3F0"/>
    <path d="M1329.22 119.044C1324.18 111.105 1310.54 120.178 1306.34 124.525C1300.68 130.195 1300.26 142.481 1303.82 148.908C1287.87 135.677 1274.02 164.029 1281.58 177.26C1279.48 162.517 1300.68 159.115 1310.96 164.974C1310.75 159.115 1309.28 150.231 1313.69 145.317C1318.1 140.213 1330.9 137.189 1337.4 140.402C1332.79 133.22 1332.16 123.391 1339.92 117.909C1348.11 112.239 1357.55 114.129 1362.59 121.501C1360.91 104.111 1337.4 110.16 1329.22 119.044Z" fill="#81E3F0"/>
    <path d="M1623.46 16.7865C1621.79 13.1952 1619.06 10.738 1615.7 9.03687C1618.22 11.8721 1620.32 14.8963 1623.46 16.7865Z" fill="#81E3F0"/>
  </g>
  <g opacity="0.25">
    <path d="M344.285 67.0645C341.977 65.3634 339.878 61.9611 336.52 61.5831C336.1 52.3214 316.162 52.8884 314.273 62.1501C315.533 59.5039 322.668 59.5039 321.829 59.6929C329.174 58.3698 337.989 61.9611 334.421 69.5217C337.989 68.1986 340.088 69.5217 340.298 72.7349C339.878 68.9547 349.322 65.5524 349.742 69.3327C349.322 66.4975 350.372 64.4183 352.89 62.9062C349.742 62.5282 346.174 65.1744 344.285 67.0645Z" fill="#81E3F0"/>
    <path d="M549.959 184.064C550.799 176.315 540.935 167.242 532.54 171.4C533.379 161.761 522.466 163.651 515.75 167.62C510.084 159.87 498.96 157.602 489.096 159.492C482.59 160.627 474.615 166.297 471.467 174.803C477.133 167.62 495.602 167.998 498.96 178.961C502.528 164.785 522.046 170.644 521.207 183.308C522.466 173.101 549.96 184.442 537.997 193.515C544.503 189.546 556.885 188.79 558.984 195.594C559.194 191.058 564.441 186.9 569.688 187.278C564.651 184.442 557.515 180.662 549.959 184.064Z" fill="#81E3F0"/>
    <path d="M469.999 181.04C470.209 178.772 470.629 176.693 471.468 174.803C469.999 176.504 469.369 178.583 469.999 181.04Z" fill="#81E3F0"/>
    <path d="M537.996 193.704C537.576 194.082 537.156 194.271 536.736 194.649C537.156 194.271 537.576 193.893 537.996 193.704Z" fill="#81E3F0"/>
    <path d="M672.316 184.821C675.045 176.504 698.131 175.559 706.106 181.985C701.279 168.565 668.958 167.431 672.316 184.821Z" fill="#81E3F0"/>
    <path d="M960.474 81.0515C960.474 81.6186 960.264 81.9966 960.474 82.5636C960.264 81.9966 960.264 81.4295 960.474 81.0515Z" fill="#81E3F0"/>
    <path d="M1025.53 79.3503C1026.16 68.5765 1011.89 63.2841 1002.03 62.339C990.483 61.2049 982.089 64.9852 974.743 72.3568C964.249 69.7106 960.891 74.0579 960.262 81.0514C961.521 74.4359 975.373 71.4117 979.78 76.7041C975.792 61.5829 1023.01 62.339 1020.29 84.8317C1026.16 83.1306 1031.2 82.1855 1036.24 86.3438C1035.82 82.5636 1029.52 80.2954 1025.53 79.3503Z" fill="#81E3F0"/>
    <path d="M100.892 82.039C101.931 64.2666 78.3889 55.5363 62.1173 53.9774C43.076 52.1066 29.2279 58.3425 17.1107 70.5025C-0.199486 66.1374 -5.73873 73.3087 -6.77734 84.8451C-4.70012 73.9323 18.1494 68.9435 25.4197 77.6738C18.8418 52.7302 96.7377 53.9774 92.2371 91.081C101.931 88.2749 110.24 86.7159 118.549 93.5754C117.856 87.3395 107.47 83.5979 100.892 82.039Z" fill="#81E3F0"/>
    <path d="M1752.02 82.039C1753.06 64.2666 1729.52 55.5363 1713.25 53.9774C1694.2 52.1066 1680.36 58.3425 1668.24 70.5025C1650.93 66.1374 1645.39 73.3087 1644.35 84.8451C1646.43 73.9323 1669.28 68.9435 1676.55 77.6738C1669.97 52.7302 1747.87 53.9774 1743.37 91.081C1753.06 88.2749 1761.37 86.7159 1769.68 93.5754C1768.99 87.3395 1758.6 83.5979 1752.02 82.039Z" fill="#81E3F0"/>
    <path d="M1423.87 153.633C1418.62 134.542 1395.96 116.964 1379.17 139.268C1369.72 135.676 1363.43 135.676 1361.54 146.261C1352.72 145.694 1345.8 155.523 1354.61 162.706C1352.72 151.932 1376.23 148.34 1377.49 158.736C1376.65 147.773 1391.97 141.536 1402.88 144.56C1411.07 146.828 1416.95 157.98 1415.9 165.352C1419.46 160.248 1431.22 160.059 1435.62 163.84C1435 158.547 1442.34 151.932 1447.59 153.633C1440.24 148.529 1432.48 148.151 1423.87 153.633Z" fill="#81E3F0"/>
    <path d="M1447.59 153.633C1448.64 154.2 1449.47 154.956 1450.52 155.712C1449.68 154.578 1448.64 153.822 1447.59 153.633Z" fill="#81E3F0"/>
    <path d="M1415.9 165.352C1415.27 166.297 1414.85 167.242 1414.85 168.565C1415.48 167.62 1415.69 166.486 1415.9 165.352Z" fill="#81E3F0"/>
    <path d="M1496.07 67.0643C1496.49 66.4972 1497.12 65.7412 1497.96 64.9851C1497.12 65.7412 1496.49 66.3082 1496.07 67.0643Z" fill="#81E3F0"/>
    <path d="M1643.19 47.9739C1642.98 47.9739 1642.56 47.9739 1642.35 47.9739C1642.77 48.3519 1643.4 48.7299 1643.82 49.108C1643.4 48.7299 1643.4 48.5409 1643.19 47.9739Z" fill="#81E3F0"/>
  </g>
  <defs>
    <linearGradient id="paint0_linear_100_2" x1="337.823" y1="307.756" x2="334.41" y2="17.1957" gradientUnits="userSpaceOnUse">
      <stop stop-color="white"/>
      <stop offset="1" stop-color="white"/>
    </linearGradient>
    <linearGradient id="paint1_linear_100_2" x1="528.384" y1="243.907" x2="519.313" y2="107.932" gradientUnits="userSpaceOnUse">
      <stop stop-color="#81E3F0"/>
      <stop offset="0.0184006" stop-color="#88E5F1"/>
      <stop offset="0.1398" stop-color="#B1EEF6"/>
      <stop offset="0.2584" stop-color="#D2F5FA"/>
      <stop offset="0.3719" stop-color="#E9FAFD"/>
      <stop offset="0.4781" stop-color="#F7FDFE"/>
      <stop offset="0.5697" stop-color="#FCFEFF"/>
      <stop offset="0.9926" stop-color="white"/>
    </linearGradient>
    <linearGradient id="paint2_linear_100_2" x1="974.474" y1="148.807" x2="973.072" y2="29.4638" gradientUnits="userSpaceOnUse">
      <stop stop-color="#81E3F0"/>
      <stop offset="0.0179902" stop-color="#87E4F1"/>
      <stop offset="0.1528" stop-color="#ABECF5"/>
      <stop offset="0.2945" stop-color="#CAF3F9"/>
      <stop offset="0.4426" stop-color="#E1F8FB"/>
      <stop offset="0.6" stop-color="#F2FCFD"/>
      <stop offset="0.7732" stop-color="#FCFEFF"/>
      <stop offset="0.9926" stop-color="white"/>
    </linearGradient>
    <linearGradient id="paint3_linear_100_2" x1="16.6664" y1="196.614" x2="14.3536" y2="-0.253092" gradientUnits="userSpaceOnUse">
      <stop stop-color="#81E3F0"/>
      <stop offset="0.0179902" stop-color="#87E4F1"/>
      <stop offset="0.1528" stop-color="#ABECF5"/>
      <stop offset="0.2945" stop-color="#CAF3F9"/>
      <stop offset="0.4426" stop-color="#E1F8FB"/>
      <stop offset="0.6" stop-color="#F2FCFD"/>
      <stop offset="0.7732" stop-color="#FCFEFF"/>
      <stop offset="0.9926" stop-color="white"/>
    </linearGradient>
    <linearGradient id="paint4_linear_100_2" x1="1667.8" y1="196.614" x2="1665.48" y2="-0.253092" gradientUnits="userSpaceOnUse">
      <stop stop-color="#81E3F0"/>
      <stop offset="0.0179902" stop-color="#87E4F1"/>
      <stop offset="0.1528" stop-color="#ABECF5"/>
      <stop offset="0.2945" stop-color="#CAF3F9"/>
      <stop offset="0.4426" stop-color="#E1F8FB"/>
      <stop offset="0.6" stop-color="#F2FCFD"/>
      <stop offset="0.7732" stop-color="#FCFEFF"/>
      <stop offset="0.9926" stop-color="white"/>
    </linearGradient>
    <linearGradient id="paint5_linear_100_2" x1="1270.57" y1="296.783" x2="1267.16" y2="6.22304" gradientUnits="userSpaceOnUse">
      <stop stop-color="#81E3F0"/>
      <stop offset="0.0749372" stop-color="#8EE6F2"/>
      <stop offset="0.2136" stop-color="#B0EDF6"/>
      <stop offset="0.3995" stop-color="#E7FAFC"/>
      <stop offset="0.4728" stop-color="white"/>
      <stop offset="0.5155" stop-color="white"/>
      <stop offset="0.8045" stop-color="white"/>
      <stop offset="0.8322" stop-color="white"/>
      <stop offset="1" stop-color="white"/>
    </linearGradient>
    <linearGradient id="paint6_linear_100_2" x1="1190.06" y1="297.733" x2="1186.64" y2="7.17209" gradientUnits="userSpaceOnUse">
      <stop stop-color="white"/>
      <stop offset="1" stop-color="white"/>
    </linearGradient>
  </defs>
</svg>
