<svg width="1648" height="397" viewBox="0 0 1648 397" fill="none" xmlns="http://www.w3.org/2000/svg">
  <path d="M1654.98 171.548H-2.75391V396.812H1654.98V171.548Z" fill="#7F3B0E"/>
  <path d="M1654.98 140.314H-2.75391V373.812H1654.98V140.314Z" fill="#DB7D3E"/>
  <path d="M999.454 39.4248H995.312V142.07H999.454V39.4248Z" fill="black"/>
  <path d="M998.111 17.9126H996.629V39.4246H998.111V17.9126Z" fill="black"/>
  <path d="M1000.84 4.29688H994.326V10.6135H1000.84V4.29688Z" fill="black"/>
  <path d="M1003.59 0.348145H991.557V4.29601H1003.59V0.348145Z" fill="black"/>
  <path d="M1000.77 10.6133H997.582H997.518H994.311L985.416 18.2835H997.518H997.582H1009.68L1000.77 10.6133Z" fill="black"/>
  <path d="M985.416 18.2832L993.28 37.6037L995.31 39.4246H996.647H997.372V18.2832H985.416Z" fill="#FFBF61"/>
  <path d="M1009.68 18.2832L1001.8 37.6037L999.79 39.4246H998.452H997.711V18.2832H1009.68Z" fill="#FFBF61"/>
  <path d="M995.31 39.4246L993.28 37.6037L985.416 18.2832H986.528L994.069 37.3459L995.664 38.7961H999.451L1001.21 37.1203L1008.59 18.2832H1009.68L1001.8 37.6037L999.79 39.4246H995.31Z" fill="black"/>
  <path d="M996.645 39.4248H995.42V142.07H996.645V39.4248Z" fill="#54313B"/>
  <path d="M996.373 4.29688H994.326V10.6135H996.373V4.29688Z" fill="#54313B"/>
  <path d="M1003.59 0.348145H991.557V1.47609H1003.59V0.348145Z" fill="#54313B"/>
  <path d="M1000.63 119.076H993.426V142.071H1000.63V119.076Z" fill="black"/>
  <path d="M994.908 119.076H993.426V142.071H994.908V119.076Z" fill="#54313B"/>
  <g style="mix-blend-mode:overlay">
    <path d="M1009.34 18.2832H997.372H985.415L921.83 156.637L962.389 166.547H997.372H1032.37L1072.93 156.637L1009.34 18.2832Z" fill="#FFCD8A"/>
  </g>
  <path d="M539.53 39.4248H535.389V142.07H539.53V39.4248Z" fill="black"/>
  <path d="M538.207 17.9126H536.725V39.4246H538.207V17.9126Z" fill="black"/>
  <path d="M540.914 4.29688H534.404V10.6135H540.914V4.29688Z" fill="black"/>
  <path d="M543.672 0.348145H531.635V4.29601H543.672V0.348145Z" fill="black"/>
  <path d="M540.851 10.6133H537.66H537.596H534.405L525.494 18.2835H537.596H537.66H549.762L540.851 10.6133Z" fill="black"/>
  <path d="M525.494 18.2832L533.358 37.6037L535.388 39.4246H536.726H537.467V18.2832H525.494Z" fill="#FFBF61"/>
  <path d="M549.76 18.2832L541.896 37.6037L539.866 39.4246H538.528H537.787V18.2832H549.76Z" fill="#FFBF61"/>
  <path d="M535.388 39.4246L533.358 37.6037L525.494 18.2832H526.606L534.147 37.3459L535.743 38.7961H539.529L541.302 37.1203L548.666 18.2832H549.762L541.898 37.6037L539.868 39.4246H535.388Z" fill="black"/>
  <path d="M536.725 39.4248H535.5V142.07H536.725V39.4248Z" fill="#54313B"/>
  <path d="M536.451 4.29688H534.404V10.6135H536.451V4.29688Z" fill="#54313B"/>
  <path d="M543.672 0.348145H531.635V1.47609H543.672V0.348145Z" fill="#54313B"/>
  <path d="M540.722 119.076H533.52V142.071H540.722V119.076Z" fill="black"/>
  <path d="M535.002 119.076H533.52V142.071H535.002V119.076Z" fill="#54313B"/>
  <g style="mix-blend-mode:overlay">
    <path d="M549.421 18.2832H537.464H525.492L461.906 156.637L502.465 166.547H537.464H572.447L613.006 156.637L549.421 18.2832Z" fill="#FFCD8A"/>
  </g>
  <path d="M192.516 39.4248H188.375V142.07H192.516V39.4248Z" fill="black"/>
  <path d="M191.195 17.9126H189.713V39.4246H191.195V17.9126Z" fill="black"/>
  <path d="M193.903 4.29688H187.393V10.6135H193.903V4.29688Z" fill="black"/>
  <path d="M196.674 0.348145H184.637V4.29601H196.674V0.348145Z" fill="black"/>
  <path d="M193.855 10.6133H190.648H190.584H187.393L178.482 18.2835H190.584H190.648H202.75L193.855 10.6133Z" fill="black"/>
  <path d="M178.482 18.2832L186.362 37.6037L188.376 39.4246H189.714H190.455V18.2832H178.482Z" fill="#FFBF61"/>
  <path d="M202.748 18.2832L194.884 37.6037L192.854 39.4246H191.532H190.791V18.2832H202.748Z" fill="#FFBF61"/>
  <path d="M188.376 39.4246L186.362 37.6037L178.482 18.2832H179.594L187.152 37.3459L188.747 38.7961H192.534L194.29 37.1203L201.654 18.2832H202.75L194.886 37.6037L192.856 39.4246H188.376Z" fill="black"/>
  <path d="M189.713 39.4248H188.488V142.07H189.713V39.4248Z" fill="#54313B"/>
  <path d="M189.439 4.29688H187.393V10.6135H189.439V4.29688Z" fill="#54313B"/>
  <path d="M196.674 0.348145H184.637V1.47609H196.674V0.348145Z" fill="#54313B"/>
  <path d="M193.709 119.076H186.506V142.071H193.709V119.076Z" fill="black"/>
  <path d="M187.988 119.076H186.506V142.071H187.988V119.076Z" fill="#54313B"/>
  <g style="mix-blend-mode:overlay">
    <path d="M202.425 18.2832H190.452H178.48L114.895 156.637L155.469 166.547H190.452H225.436L266.01 156.637L202.425 18.2832Z" fill="#FFCD8A"/>
  </g>
  <path d="M1339.79 39.4248H1335.65V142.07H1339.79V39.4248Z" fill="black"/>
  <path d="M1338.47 17.9126H1336.99V39.4246H1338.47V17.9126Z" fill="black"/>
  <path d="M1341.18 4.29688H1334.67V10.6135H1341.18V4.29688Z" fill="black"/>
  <path d="M1343.93 0.348145H1331.89V4.29601H1343.93V0.348145Z" fill="black"/>
  <path d="M1341.11 10.6133H1337.92H1337.86H1334.67L1325.76 18.2835H1337.86H1337.92H1350.02L1341.11 10.6133Z" fill="black"/>
  <path d="M1325.76 18.2832L1333.64 37.6037L1335.65 39.4246H1336.99H1337.73V18.2832H1325.76Z" fill="#FFBF61"/>
  <path d="M1350.02 18.2832L1342.16 37.6037L1340.13 39.4246H1338.79H1338.07V18.2832H1350.02Z" fill="#FFBF61"/>
  <path d="M1335.65 39.4246L1333.64 37.6037L1325.76 18.2832H1326.87L1334.43 37.3459L1336 38.7961H1339.79L1341.56 37.1203L1348.93 18.2832H1350.02L1342.16 37.6037L1340.13 39.4246H1335.65Z" fill="black"/>
  <path d="M1336.99 39.4248H1335.76V142.07H1336.99V39.4248Z" fill="#54313B"/>
  <path d="M1336.71 4.29688H1334.67V10.6135H1336.71V4.29688Z" fill="#54313B"/>
  <path d="M1343.93 0.348145H1331.89V1.47609H1343.93V0.348145Z" fill="#54313B"/>
  <path d="M1340.98 119.076H1333.78V142.071H1340.98V119.076Z" fill="black"/>
  <path d="M1335.26 119.076H1333.78V142.071H1335.26V119.076Z" fill="#54313B"/>
  <g style="mix-blend-mode:overlay">
    <path d="M1349.69 18.2832H1337.73H1325.76L1262.17 156.637L1302.75 166.547H1337.73H1372.71L1413.27 156.637L1349.69 18.2832Z" fill="#FFCD8A"/>
  </g>
  <path d="M171.891 265.243H0.294922L20.6285 258.033H183.793L171.891 265.243Z" fill="#FFA66A"/>
  <path d="M1001.24 265.243H829.648L849.982 258.033H1013.15L1001.24 265.243Z" fill="#FFA66A"/>
  <path d="M448.342 265.243H276.746L297.08 258.033H460.244L448.342 265.243Z" fill="#FFA66A"/>
  <path d="M1277.7 265.243H1106.1L1126.43 258.033H1289.6L1277.7 265.243Z" fill="#FFA66A"/>
  <path d="M724.793 265.243H553.197L573.531 258.033H736.696L724.793 265.243Z" fill="#FFA66A"/>
  <path d="M1554.15 265.243H1382.55L1402.88 258.033H1566.05L1554.15 265.243Z" fill="#FFA66A"/>
</svg>
