<svg width="26" height="39" viewBox="0 0 26 39" fill="none" xmlns="http://www.w3.org/2000/svg">
<mask id="path-1-outside-1_28576_25511" maskUnits="userSpaceOnUse" x="0" y="0" width="26" height="40" fill="black">
<rect fill="white" width="26" height="40"/>
<path fill-rule="evenodd" clip-rule="evenodd" d="M18.8977 4.62445C18.8977 5.344 18.6082 5.99591 18.1392 6.47001C20.4956 8.40355 21.5832 11.4855 22.0472 14.2695L22.1024 14.3015C22.658 14.6226 23.8712 15.3238 23.4907 17.3532C23.1825 18.9965 21.5534 20.278 18.5634 20.7574C20.1971 22.1184 21.8869 25.0625 22.3988 26.342C23.4485 28.9665 22.5806 29.8035 21.006 29.8035C21.1191 29.3509 21.1407 28.8459 21.0897 28.3104C20.8745 26.0513 19.3669 23.2496 17.9879 21.5524L17.8825 20.8499L17.8823 20.8499L17.9876 21.5524C19.3666 23.2496 20.8743 26.0513 21.0895 28.3104C21.1405 28.8459 21.1189 29.3509 21.0058 29.8035C20.8015 30.4025 20.284 31.0004 20.284 31.0004L19.7591 34.8715C20.6121 35.1124 20.8745 36.9711 19.7591 36.9711H15.6256C14.7727 36.9711 14.379 34.4778 14.379 32.9688C14.379 32.9688 13.5917 33.997 13.2636 34.85C14.379 35.3092 14.379 36.9711 12.9356 36.9711C12.4614 36.9711 12.1359 36.9781 11.8057 36.9853C11.1307 37 10.4359 37.0151 8.41086 36.9711C7.51489 36.9516 7.16359 35.2482 7.03069 33.666C6.84422 33.7246 6.64578 33.7562 6.43997 33.7562C5.35289 33.7562 4.47163 32.875 4.47163 31.7879C4.47163 31.679 4.48047 31.5722 4.49747 31.4682C3.43365 31.048 2.56669 30.1696 2.50658 28.5766C2.38117 25.2533 6.8376 21.5723 8.21195 21.0937C8.29237 21.0657 8.37282 21.0424 8.45279 21.0235C8.48541 20.9311 8.51264 20.8508 8.53369 20.7839C6.46626 20.5039 4.65249 19.857 3.35654 18.403C0.677284 15.3969 2.50231 11.6746 4.24568 8.66279C3.27802 8.10866 2.62603 7.06594 2.62603 5.87094C2.62603 4.09537 4.06542 2.65599 5.84099 2.65599C7.34421 2.65599 8.60647 3.68767 8.95833 5.08161C10.1118 4.6936 11.4415 4.47976 12.9273 4.55893C13.1741 4.57208 13.4145 4.59278 13.6488 4.6207C13.6509 3.17298 14.8251 2 16.2733 2C17.7227 2 18.8977 3.17501 18.8977 4.62445Z"/>
</mask>
<path fill-rule="evenodd" clip-rule="evenodd" d="M18.8977 4.62445C18.8977 5.344 18.6082 5.99591 18.1392 6.47001C20.4956 8.40355 21.5832 11.4855 22.0472 14.2695L22.1024 14.3015C22.658 14.6226 23.8712 15.3238 23.4907 17.3532C23.1825 18.9965 21.5534 20.278 18.5634 20.7574C20.1971 22.1184 21.8869 25.0625 22.3988 26.342C23.4485 28.9665 22.5806 29.8035 21.006 29.8035C21.1191 29.3509 21.1407 28.8459 21.0897 28.3104C20.8745 26.0513 19.3669 23.2496 17.9879 21.5524L17.8825 20.8499L17.8823 20.8499L17.9876 21.5524C19.3666 23.2496 20.8743 26.0513 21.0895 28.3104C21.1405 28.8459 21.1189 29.3509 21.0058 29.8035C20.8015 30.4025 20.284 31.0004 20.284 31.0004L19.7591 34.8715C20.6121 35.1124 20.8745 36.9711 19.7591 36.9711H15.6256C14.7727 36.9711 14.379 34.4778 14.379 32.9688C14.379 32.9688 13.5917 33.997 13.2636 34.85C14.379 35.3092 14.379 36.9711 12.9356 36.9711C12.4614 36.9711 12.1359 36.9781 11.8057 36.9853C11.1307 37 10.4359 37.0151 8.41086 36.9711C7.51489 36.9516 7.16359 35.2482 7.03069 33.666C6.84422 33.7246 6.64578 33.7562 6.43997 33.7562C5.35289 33.7562 4.47163 32.875 4.47163 31.7879C4.47163 31.679 4.48047 31.5722 4.49747 31.4682C3.43365 31.048 2.56669 30.1696 2.50658 28.5766C2.38117 25.2533 6.8376 21.5723 8.21195 21.0937C8.29237 21.0657 8.37282 21.0424 8.45279 21.0235C8.48541 20.9311 8.51264 20.8508 8.53369 20.7839C6.46626 20.5039 4.65249 19.857 3.35654 18.403C0.677284 15.3969 2.50231 11.6746 4.24568 8.66279C3.27802 8.10866 2.62603 7.06594 2.62603 5.87094C2.62603 4.09537 4.06542 2.65599 5.84099 2.65599C7.34421 2.65599 8.60647 3.68767 8.95833 5.08161C10.1118 4.6936 11.4415 4.47976 12.9273 4.55893C13.1741 4.57208 13.4145 4.59278 13.6488 4.6207C13.6509 3.17298 14.8251 2 16.2733 2C17.7227 2 18.8977 3.17501 18.8977 4.62445Z" fill="black"/>
<path d="M18.1392 6.47001L16.7173 5.06353L15.1738 6.6239L16.8705 8.01613L18.1392 6.47001ZM22.0472 14.2695L20.0744 14.5983L20.2293 15.5274L21.0442 15.9997L22.0472 14.2695ZM22.1024 14.3015L21.0994 16.0318L21.1015 16.033L22.1024 14.3015ZM23.4907 17.3532L21.5249 16.9846H21.5249L23.4907 17.3532ZM18.5634 20.7574L18.2468 18.7827L13.904 19.479L17.2833 22.2941L18.5634 20.7574ZM22.3988 26.342L24.2557 25.5993L22.3988 26.342ZM21.006 29.8035L19.0657 29.3184L18.4444 31.8035H21.006V29.8035ZM21.0897 28.3104L19.0987 28.5001L21.0897 28.3104ZM17.9879 21.5524L16.01 21.8491L16.091 22.3895L16.4356 22.8136L17.9879 21.5524ZM17.8825 20.8499L19.8603 20.5532L19.5758 18.6561L17.6685 18.8614L17.8825 20.8499ZM17.8823 20.8499L17.6683 18.8614L15.5951 19.0846L15.9044 21.1466L17.8823 20.8499ZM17.9876 21.5524L16.0098 21.8491L16.0908 22.3895L16.4354 22.8136L17.9876 21.5524ZM21.0895 28.3104L23.0805 28.1207V28.1207L21.0895 28.3104ZM21.0058 29.8035L22.8988 30.4489L22.9258 30.3697L22.946 30.2886L21.0058 29.8035ZM20.284 31.0004L18.7718 29.6915L18.3822 30.1417L18.3022 30.7317L20.284 31.0004ZM19.7591 34.8715L17.7773 34.6028L17.5439 36.324L19.2155 36.7962L19.7591 34.8715ZM14.379 32.9688H16.379V27.0669L12.791 31.7529L14.379 32.9688ZM13.2636 34.85L11.3969 34.132L10.6956 35.9555L12.5022 36.6993L13.2636 34.85ZM11.8057 36.9853L11.8492 38.9849H11.8492L11.8057 36.9853ZM8.41086 36.9711L8.45436 34.9715H8.45436L8.41086 36.9711ZM7.03069 33.666L9.02367 33.4986L8.81456 31.0091L6.43117 31.758L7.03069 33.666ZM4.49747 31.4682L6.47131 31.7906L6.73114 30.2L5.2321 29.608L4.49747 31.4682ZM2.50658 28.5766L4.50515 28.5012L2.50658 28.5766ZM8.21195 21.0937L8.86973 22.9824H8.86973L8.21195 21.0937ZM8.45279 21.0235L8.91098 22.9704L9.97485 22.72L10.3387 21.6894L8.45279 21.0235ZM8.53369 20.7839L10.4414 21.3846L11.1543 19.1206L8.80213 18.802L8.53369 20.7839ZM3.35654 18.403L4.84958 17.0722V17.0722L3.35654 18.403ZM4.24568 8.66279L5.9766 9.66474L6.98322 7.92573L5.23955 6.92722L4.24568 8.66279ZM8.95833 5.08161L7.01915 5.5711L7.54799 7.66616L9.596 6.97723L8.95833 5.08161ZM12.9273 4.55893L12.8209 6.5561L12.9273 4.55893ZM13.6488 4.6207L13.4122 6.60665L15.6457 6.87278L15.6488 4.6235L13.6488 4.6207ZM19.5611 7.8765C20.3854 7.04321 20.8977 5.89171 20.8977 4.62445H16.8977C16.8977 4.79629 16.831 4.94861 16.7173 5.06353L19.5611 7.8765ZM24.02 13.9407C23.5259 10.9759 22.3194 7.31295 19.4079 4.9239L16.8705 8.01613C18.6718 9.49414 19.6406 11.9952 20.0744 14.5983L24.02 13.9407ZM23.1055 12.5712L23.0503 12.5392L21.0442 15.9997L21.0994 16.0318L23.1055 12.5712ZM25.4564 17.7218C25.7347 16.2376 25.452 15.0006 24.7913 14.0474C24.1863 13.1745 23.3808 12.7303 23.1033 12.5699L21.1015 16.033C21.3796 16.1937 21.4585 16.2607 21.5038 16.3261C21.516 16.3437 21.5352 16.3749 21.5488 16.4453C21.5634 16.5209 21.5804 16.6889 21.5249 16.9846L25.4564 17.7218ZM18.88 22.7322C22.1646 22.2056 24.9117 20.6269 25.4564 17.7218L21.5249 16.9846C21.4534 17.3661 20.9422 18.3505 18.2468 18.7827L18.88 22.7322ZM24.2557 25.5993C23.9382 24.8055 23.3187 23.6325 22.5803 22.4928C21.8523 21.369 20.8916 20.0938 19.8435 19.2208L17.2833 22.2941C17.869 22.782 18.57 23.6594 19.2232 24.6677C19.8662 25.6602 20.3475 26.599 20.5418 27.0848L24.2557 25.5993ZM21.006 31.8035C22.02 31.8035 23.6407 31.5394 24.4567 29.9879C25.1779 28.6164 24.8162 27.0004 24.2557 25.5993L20.5418 27.0848C20.7611 27.6332 20.8361 27.9825 20.8541 28.1754C20.8717 28.3648 20.8258 28.2982 20.9164 28.126C20.962 28.0393 21.0263 27.9579 21.1019 27.892C21.1748 27.8286 21.237 27.7978 21.2655 27.7859C21.3063 27.7689 21.2436 27.8035 21.006 27.8035V31.8035ZM19.0987 28.5001C19.1343 28.8734 19.11 29.141 19.0657 29.3184L22.9463 30.2886C23.1282 29.5608 23.1472 28.8183 23.0807 28.1207L19.0987 28.5001ZM16.4356 22.8136C17.6831 24.3489 18.9353 26.7848 19.0987 28.5001L23.0807 28.1207C22.8137 25.3177 21.0506 22.1503 19.5401 20.2912L16.4356 22.8136ZM15.9046 21.1466L16.01 21.8491L19.9657 21.2557L19.8603 20.5532L15.9046 21.1466ZM18.0963 22.8385L18.0965 22.8384L17.6685 18.8614L17.6683 18.8614L18.0963 22.8385ZM19.9655 21.2557L19.8601 20.5532L15.9044 21.1466L16.0098 21.8491L19.9655 21.2557ZM23.0805 28.1207C22.8135 25.3178 21.0504 22.1503 19.5399 20.2912L16.4354 22.8136C17.6829 24.3489 18.9351 26.7848 19.0985 28.5001L23.0805 28.1207ZM22.946 30.2886C23.128 29.5608 23.1469 28.8183 23.0805 28.1207L19.0985 28.5001C19.1341 28.8734 19.1098 29.141 19.0655 29.3184L22.946 30.2886ZM20.284 31.0004C21.7963 32.3093 21.7965 32.3091 21.7966 32.3088C21.7967 32.3088 21.7969 32.3085 21.7971 32.3084C21.7973 32.3081 21.7976 32.3077 21.7979 32.3074C21.7985 32.3067 21.7991 32.306 21.7997 32.3053C21.801 32.3038 21.8024 32.3021 21.804 32.3003C21.8071 32.2967 21.8107 32.2924 21.8148 32.2876C21.8231 32.2779 21.8333 32.2658 21.8452 32.2513C21.8692 32.2226 21.9004 32.1843 21.9371 32.1379C22.0099 32.0458 22.1075 31.9173 22.2141 31.7629C22.4098 31.4795 22.7095 31.004 22.8988 30.4489L19.1127 29.1581C19.0978 29.202 19.0366 29.325 18.9225 29.4902C18.8742 29.5602 18.8297 29.6186 18.7991 29.6574C18.7841 29.6763 18.7733 29.6895 18.7681 29.6958C18.7655 29.6989 18.7644 29.7001 18.7649 29.6995C18.7652 29.6992 18.7659 29.6984 18.767 29.6971C18.7676 29.6964 18.7683 29.6956 18.7691 29.6947C18.7695 29.6942 18.7699 29.6937 18.7704 29.6932C18.7706 29.6929 18.7708 29.6927 18.7711 29.6924C18.7712 29.6923 18.7714 29.692 18.7714 29.692C18.7716 29.6917 18.7718 29.6915 20.284 31.0004ZM21.741 35.1402L22.2659 31.2691L18.3022 30.7317L17.7773 34.6028L21.741 35.1402ZM19.7591 38.9711C20.6806 38.9711 21.5088 38.5421 22.0127 37.7879C22.451 37.1318 22.5281 36.4106 22.4929 35.8793C22.4563 35.3279 22.2874 34.7576 21.9826 34.2587C21.6845 33.7705 21.1473 33.1853 20.3028 32.9468L19.2155 36.7962C18.7975 36.6781 18.6129 36.4156 18.569 36.3437C18.5185 36.261 18.5054 36.2006 18.5016 36.1439C18.4992 36.1074 18.4862 35.8659 18.6866 35.5659C18.797 35.4006 18.9633 35.2359 19.1862 35.1191C19.408 35.0029 19.6151 34.9711 19.7591 34.9711V38.9711ZM15.6256 38.9711H19.7591V34.9711H15.6256V38.9711ZM12.379 32.9688C12.379 33.856 12.4907 35.0248 12.7433 36.0255C12.8661 36.5116 13.0547 37.0927 13.3633 37.5989C13.6247 38.0278 14.3316 38.9711 15.6256 38.9711V34.9711C16.042 34.9711 16.3606 35.1326 16.5471 35.2761C16.7125 35.4035 16.7787 35.5169 16.7788 35.5169C16.784 35.5255 16.7637 35.493 16.7291 35.4005C16.6959 35.3121 16.659 35.1941 16.6216 35.0461C16.4642 34.4228 16.379 33.5905 16.379 32.9688H12.379ZM15.1303 35.5679C15.2167 35.3434 15.4017 35.0152 15.6182 34.6842C15.7175 34.5322 15.8088 34.4019 15.8744 34.3107C15.907 34.2655 15.9325 34.2307 15.9489 34.2088C15.957 34.1979 15.9628 34.1902 15.9659 34.186C15.9675 34.184 15.9684 34.1828 15.9686 34.1826C15.9687 34.1824 15.9686 34.1825 15.9683 34.1829C15.9682 34.1831 15.968 34.1833 15.9678 34.1836C15.9677 34.1837 15.9676 34.1839 15.9674 34.1841C15.9674 34.1841 15.9672 34.1843 15.9672 34.1843C15.9671 34.1845 15.967 34.1846 14.379 32.9688C12.791 31.7529 12.7909 31.753 12.7908 31.7532C12.7908 31.7533 12.7906 31.7534 12.7905 31.7535C12.7904 31.7538 12.7902 31.754 12.79 31.7543C12.7895 31.7548 12.7891 31.7555 12.7886 31.7561C12.7875 31.7575 12.7863 31.7591 12.7849 31.7609C12.7821 31.7646 12.7785 31.7693 12.7743 31.775C12.7657 31.7863 12.7542 31.8015 12.7402 31.8204C12.7122 31.858 12.6737 31.9103 12.6273 31.9748C12.5351 32.103 12.409 32.2831 12.2705 32.4949C12.0113 32.8912 11.6386 33.5036 11.3969 34.132L15.1303 35.5679ZM12.9356 38.9711C13.6875 38.9711 14.4566 38.7478 15.0724 38.2069C15.6848 37.6691 15.9914 36.9504 16.0517 36.2555C16.1683 34.9106 15.3895 33.5624 14.0251 33.0006L12.5022 36.6993C12.2532 36.5968 12.032 36.3092 12.0666 35.9099C12.0859 35.688 12.1916 35.4134 12.4328 35.2015C12.6776 34.9866 12.9054 34.9711 12.9356 34.9711V38.9711ZM11.8492 38.9849C12.1768 38.9777 12.4843 38.9711 12.9356 38.9711V34.9711C12.4386 34.9711 12.0951 34.9786 11.7622 34.9858L11.8492 38.9849ZM8.36735 38.9706C10.4219 39.0153 11.1457 39.0002 11.8492 38.9849L11.7622 34.9858C11.1156 34.9999 10.4498 35.0149 8.45436 34.9715L8.36735 38.9706ZM5.03771 33.8335C5.10811 34.6716 5.24509 35.6923 5.54439 36.558C5.69238 36.9861 5.92617 37.5158 6.31976 37.9733C6.74335 38.4656 7.42994 38.9502 8.36735 38.9706L8.45436 34.9715C8.94379 34.9822 9.25048 35.2465 9.35206 35.3646C9.42363 35.4478 9.3933 35.4491 9.32485 35.2511C9.19128 34.8647 9.08617 34.2427 9.02367 33.4986L5.03771 33.8335ZM6.43997 35.7562C6.8515 35.7562 7.252 35.6929 7.63021 35.5741L6.43117 31.758C6.4335 31.7573 6.4357 31.7568 6.43758 31.7565C6.4395 31.7562 6.4404 31.7562 6.43997 31.7562V35.7562ZM2.47163 31.7879C2.47163 33.9795 4.24832 35.7562 6.43997 35.7562V31.7562C6.43953 31.7562 6.44118 31.7562 6.44423 31.7568C6.44717 31.7574 6.45016 31.7584 6.45291 31.7595C6.45814 31.7618 6.46094 31.7641 6.46236 31.7655C6.46377 31.7669 6.46611 31.7697 6.46832 31.775C6.46948 31.7777 6.47042 31.7807 6.47102 31.7836C6.47164 31.7867 6.47163 31.7883 6.47163 31.7879H2.47163ZM2.52363 31.1457C2.48929 31.356 2.47163 31.5706 2.47163 31.7879H6.47163C6.47163 31.7874 6.47165 31.7885 6.47131 31.7906L2.52363 31.1457ZM0.507999 28.652C0.551853 29.8142 0.900972 30.8382 1.53182 31.6704C2.153 32.4898 2.96251 33.0123 3.76283 33.3283L5.2321 29.608C4.9686 29.5039 4.81273 29.3771 4.71944 29.254C4.63583 29.1437 4.52141 28.9321 4.50515 28.5012L0.507999 28.652ZM7.55417 19.2049C6.90314 19.4317 6.16269 19.9098 5.51054 20.4069C4.81016 20.9408 4.03815 21.6308 3.31782 22.4221C1.97265 23.8999 0.414093 26.1635 0.507999 28.652L4.50515 28.5012C4.47365 27.6664 5.0806 26.4278 6.27589 25.1147C6.82579 24.5105 7.41773 23.9828 7.93555 23.588C8.1938 23.3912 8.42045 23.2374 8.60135 23.1281C8.79805 23.0093 8.88384 22.9775 8.86973 22.9824L7.55417 19.2049ZM7.9946 19.0767C7.84733 19.1114 7.70025 19.1541 7.55416 19.2049L8.86973 22.9824C8.88448 22.9773 8.89832 22.9733 8.91098 22.9704L7.9946 19.0767ZM6.62603 20.1833C6.61451 20.2199 6.59553 20.2765 6.56687 20.3577L10.3387 21.6894C10.3753 21.5857 10.4108 21.4818 10.4414 21.3846L6.62603 20.1833ZM1.8635 19.7337C3.6117 21.6951 5.97452 22.4556 8.26526 22.7658L8.80213 18.802C6.95801 18.5523 5.69327 18.0188 4.84958 17.0722L1.8635 19.7337ZM2.51475 7.66084C1.64261 9.16752 0.592737 11.1028 0.18207 13.1398C-0.250679 15.2862 0.0111215 17.6554 1.8635 19.7337L4.84958 17.0722C4.0227 16.1445 3.85739 15.1494 4.10318 13.9303C4.37105 12.6016 5.10537 11.1698 5.9766 9.66474L2.51475 7.66084ZM5.23955 6.92722C4.86865 6.71482 4.62603 6.31999 4.62603 5.87094H0.626034C0.626034 7.8119 1.68739 9.5025 3.2518 10.3984L5.23955 6.92722ZM4.62603 5.87094C4.62603 5.19994 5.16999 4.65599 5.84099 4.65599V0.655988C2.96085 0.655988 0.626034 2.9908 0.626034 5.87094H4.62603ZM5.84099 4.65599C6.40636 4.65599 6.88611 5.04401 7.01915 5.5711L10.8975 4.59212C10.3268 2.33134 8.28207 0.655988 5.84099 0.655988V4.65599ZM13.0338 2.56176C11.289 2.4688 9.70709 2.71961 8.32066 3.18599L9.596 6.97723C10.5165 6.66759 11.594 6.49073 12.8209 6.5561L13.0338 2.56176ZM13.8855 2.63475C13.6069 2.60156 13.323 2.57718 13.0338 2.56176L12.8209 6.5561C13.0252 6.56698 13.2222 6.58401 13.4122 6.60665L13.8855 2.63475ZM16.2733 0C13.7215 0 11.6524 2.06686 11.6488 4.6179L15.6488 4.6235C15.6493 4.2791 15.9287 4 16.2733 4V0ZM20.8977 4.62445C20.8977 2.07044 18.8273 0 16.2733 0V4C16.6182 4 16.8977 4.27958 16.8977 4.62445H20.8977Z" fill="#D39924" mask="url(#path-1-outside-1_28576_25511)"/>
<path d="M15.4338 24.7991C14.9671 24.7991 14.6005 24.6458 14.3338 24.3391C14.0671 24.0191 13.9338 23.6258 13.9338 23.1591C13.9338 22.4124 14.1271 21.8258 14.5138 21.3991C14.6338 21.2791 14.8205 21.0991 15.0738 20.8591C15.3271 20.6324 15.5138 20.4458 15.6338 20.2991C15.7538 20.1524 15.8138 19.9991 15.8138 19.8391C15.8138 19.5858 15.7671 19.4058 15.6738 19.2991C15.5805 19.1791 15.4338 19.1191 15.2338 19.1191C15.0471 19.1191 14.8938 19.1858 14.7738 19.3191C14.6671 19.4391 14.6138 19.6258 14.6138 19.8791C14.6138 20.3324 14.4205 20.7124 14.0338 21.0191C13.6471 21.3124 13.1605 21.4591 12.5738 21.4591C11.9871 21.4591 11.5138 21.2591 11.1538 20.8591C10.8071 20.4458 10.6338 19.8724 10.6338 19.1391C10.6338 18.5258 10.8405 17.9124 11.2538 17.2991C11.6671 16.6858 12.2405 16.1791 12.9738 15.7791C13.7205 15.3791 14.5538 15.1791 15.4738 15.1791C16.4071 15.1791 17.2405 15.3658 17.9738 15.7391C18.7071 16.1124 19.2738 16.6124 19.6738 17.2391C20.0738 17.8524 20.2738 18.5058 20.2738 19.1991C20.2738 19.9058 20.1405 20.4991 19.8738 20.9791C19.6205 21.4458 19.3205 21.8058 18.9738 22.0591C18.6405 22.2991 18.2338 22.5458 17.7538 22.7991C17.4605 22.9458 17.2605 23.0591 17.1538 23.1391C17.0471 23.2058 16.9938 23.2858 16.9938 23.3791C16.9938 23.7391 16.8538 24.0658 16.5738 24.3591C16.2938 24.6524 15.9138 24.7991 15.4338 24.7991ZM15.4538 25.2191C14.8671 25.2191 14.3538 25.4391 13.9138 25.8791C13.4871 26.3058 13.2738 26.8124 13.2738 27.3991C13.2738 27.9858 13.4871 28.4991 13.9138 28.9391C14.3538 29.3658 14.8671 29.5791 15.4538 29.5791C16.0405 29.5791 16.5538 29.3658 16.9938 28.9391C17.4338 28.4991 17.6538 27.9858 17.6538 27.3991C17.6538 26.8124 17.4338 26.3058 16.9938 25.8791C16.5538 25.4391 16.0405 25.2191 15.4538 25.2191Z" fill="white"/>
</svg>
