<svg width="154" height="250" viewBox="0 0 154 250" fill="none" xmlns="http://www.w3.org/2000/svg">
<mask id="path-1-outside-1_28576_25212" maskUnits="userSpaceOnUse" x="0" y="0.0078125" width="154" height="250" fill="black">
<rect fill="white" y="0.0078125" width="154" height="250"/>
<path fill-rule="evenodd" clip-rule="evenodd" d="M114.759 33.5874C114.599 33.762 114.436 33.9334 114.27 34.1017C130.661 47.5519 138.227 68.991 141.454 88.3565C141.576 88.4277 141.705 88.5018 141.838 88.5791C145.703 90.8129 154.142 95.6911 151.495 109.808C149.397 121.001 138.488 129.781 118.51 133.273C119.814 134.404 121.113 135.664 122.393 137.016C125.72 140.53 128.972 144.717 131.941 149.015C137.873 157.603 142.731 166.721 144.829 171.966C148.498 181.139 148.972 187.534 146.787 191.689C144.555 195.933 139.802 197.417 134.212 197.417H133.83C132.243 201.207 129.217 204.712 129.191 204.741L129.191 204.742L125.54 231.67C131.473 233.346 133.299 246.275 125.54 246.275H96.7859C90.8526 246.275 88.1141 228.931 88.1141 218.434C88.1141 218.434 87.9495 218.649 87.6656 219.035L87.1809 221.438C86.7985 221.99 86.3734 222.617 85.9273 223.299C84.4465 225.564 82.7638 228.385 81.6388 231.017C85.3245 232.954 87.1848 236.728 86.8853 240.182C86.7228 242.056 85.9209 243.849 84.4167 245.17C82.9107 246.493 80.7788 247.275 78.073 247.275C74.8043 247.275 72.5484 247.324 70.2546 247.374C65.548 247.476 60.6814 247.582 46.576 247.275C44.7872 247.236 43.295 246.4 42.0844 245.099C40.8898 243.814 39.9392 242.049 39.171 240.035C37.6338 236.005 36.7306 230.716 36.1997 225.515C36.1672 225.196 36.136 224.876 36.1061 224.558C35.0704 224.789 33.9935 224.911 32.8881 224.911C24.7737 224.911 18.1957 218.333 18.1957 210.219C18.1957 209.681 18.2246 209.15 18.281 208.627C17.291 208.204 16.3262 207.722 15.3963 207.178C9.37152 203.656 4.88762 197.553 4.52405 187.918C4.07282 175.96 11.0343 164.399 19.6479 155.006C28.2848 145.588 38.7449 138.172 45.6533 134.488C45.8175 134.4 45.995 134.363 46.1683 134.371C46.2725 134.067 46.3659 133.787 46.4475 133.533C32.4824 131.512 20.2414 126.989 11.4365 117.11C-6.94462 96.4873 5.15058 71.0177 17.1205 50.2229C10.0911 46.1951 5.35526 38.6189 5.35526 29.9366C5.35526 17.0329 15.8158 6.57242 28.7194 6.57242C39.6187 6.57242 48.7749 14.0356 51.3564 24.1304C59.1571 21.6302 68.0841 20.2782 78.0138 20.8072C79.3812 20.8801 80.7207 20.9863 82.033 21.1247C82.108 10.5539 90.7004 2.00781 101.289 2.00781C111.924 2.00781 120.545 10.6292 120.545 21.2643C120.545 26.2735 118.631 30.8379 115.497 34.2626L114.759 33.5874Z"/>
</mask>
<path fill-rule="evenodd" clip-rule="evenodd" d="M114.759 33.5874C114.599 33.762 114.436 33.9334 114.27 34.1017C130.661 47.5519 138.227 68.991 141.454 88.3565C141.576 88.4277 141.705 88.5018 141.838 88.5791C145.703 90.8129 154.142 95.6911 151.495 109.808C149.397 121.001 138.488 129.781 118.51 133.273C119.814 134.404 121.113 135.664 122.393 137.016C125.72 140.53 128.972 144.717 131.941 149.015C137.873 157.603 142.731 166.721 144.829 171.966C148.498 181.139 148.972 187.534 146.787 191.689C144.555 195.933 139.802 197.417 134.212 197.417H133.83C132.243 201.207 129.217 204.712 129.191 204.741L129.191 204.742L125.54 231.67C131.473 233.346 133.299 246.275 125.54 246.275H96.7859C90.8526 246.275 88.1141 228.931 88.1141 218.434C88.1141 218.434 87.9495 218.649 87.6656 219.035L87.1809 221.438C86.7985 221.99 86.3734 222.617 85.9273 223.299C84.4465 225.564 82.7638 228.385 81.6388 231.017C85.3245 232.954 87.1848 236.728 86.8853 240.182C86.7228 242.056 85.9209 243.849 84.4167 245.17C82.9107 246.493 80.7788 247.275 78.073 247.275C74.8043 247.275 72.5484 247.324 70.2546 247.374C65.548 247.476 60.6814 247.582 46.576 247.275C44.7872 247.236 43.295 246.4 42.0844 245.099C40.8898 243.814 39.9392 242.049 39.171 240.035C37.6338 236.005 36.7306 230.716 36.1997 225.515C36.1672 225.196 36.136 224.876 36.1061 224.558C35.0704 224.789 33.9935 224.911 32.8881 224.911C24.7737 224.911 18.1957 218.333 18.1957 210.219C18.1957 209.681 18.2246 209.15 18.281 208.627C17.291 208.204 16.3262 207.722 15.3963 207.178C9.37152 203.656 4.88762 197.553 4.52405 187.918C4.07282 175.96 11.0343 164.399 19.6479 155.006C28.2848 145.588 38.7449 138.172 45.6533 134.488C45.8175 134.4 45.995 134.363 46.1683 134.371C46.2725 134.067 46.3659 133.787 46.4475 133.533C32.4824 131.512 20.2414 126.989 11.4365 117.11C-6.94462 96.4873 5.15058 71.0177 17.1205 50.2229C10.0911 46.1951 5.35526 38.6189 5.35526 29.9366C5.35526 17.0329 15.8158 6.57242 28.7194 6.57242C39.6187 6.57242 48.7749 14.0356 51.3564 24.1304C59.1571 21.6302 68.0841 20.2782 78.0138 20.8072C79.3812 20.8801 80.7207 20.9863 82.033 21.1247C82.108 10.5539 90.7004 2.00781 101.289 2.00781C111.924 2.00781 120.545 10.6292 120.545 21.2643C120.545 26.2735 118.631 30.8379 115.497 34.2626L114.759 33.5874Z" fill="black"/>
<path d="M114.27 34.1017L112.848 32.6953L111.304 34.2557L113.001 35.6478L114.27 34.1017ZM114.759 33.5874L116.109 32.1121L114.634 30.7617L113.284 32.237L114.759 33.5874ZM141.454 88.3565L139.481 88.6853L139.636 89.6112L140.447 90.0841L141.454 88.3565ZM141.838 88.5791L142.839 86.8476L142.839 86.8476L141.838 88.5791ZM151.495 109.808L153.461 110.176L151.495 109.808ZM118.51 133.273L118.165 131.303L114.021 132.027L117.199 134.784L118.51 133.273ZM122.393 137.016L123.845 135.641L122.393 137.016ZM131.941 149.015L133.587 147.879H133.587L131.941 149.015ZM144.829 171.966L146.686 171.223L144.829 171.966ZM146.787 191.689L145.017 190.758L146.787 191.689ZM133.83 197.417V195.417H132.5L131.986 196.644L133.83 197.417ZM129.191 204.741L130.696 206.058L130.705 206.049L129.191 204.741ZM129.191 204.742L127.686 203.425L127.29 203.877L127.209 204.473L129.191 204.742ZM125.54 231.67L123.558 231.401L123.325 233.122L124.996 233.595L125.54 231.67ZM88.1141 218.434H90.1141L90.114 212.531L86.526 217.218L88.1141 218.434ZM87.6656 219.035L86.0542 217.85L85.7925 218.206L85.7051 218.639L87.6656 219.035ZM87.1809 221.438L88.825 222.576L89.0599 222.237L89.1414 221.833L87.1809 221.438ZM85.9273 223.299L87.6011 224.394V224.394L85.9273 223.299ZM81.6388 231.017L79.7997 230.231L79.0742 231.929L80.7084 232.788L81.6388 231.017ZM86.8853 240.182L84.8928 240.009L86.8853 240.182ZM84.4167 245.17L83.0969 243.668H83.0969L84.4167 245.17ZM70.2546 247.374L70.2112 245.374H70.2112L70.2546 247.374ZM46.576 247.275L46.6195 245.275H46.6195L46.576 247.275ZM42.0844 245.099L43.5489 243.737H43.5489L42.0844 245.099ZM39.171 240.035L37.3023 240.748L37.3023 240.748L39.171 240.035ZM36.1997 225.515L38.1894 225.312H38.1894L36.1997 225.515ZM36.1061 224.558L38.0974 224.371L37.8855 222.111L35.67 222.606L36.1061 224.558ZM18.281 208.627L20.2695 208.841L20.428 207.37L19.0675 206.788L18.281 208.627ZM15.3963 207.178L16.4059 205.452L16.4059 205.452L15.3963 207.178ZM4.52405 187.918L2.52547 187.993L4.52405 187.918ZM19.6479 155.006L18.1739 153.655L19.6479 155.006ZM45.6533 134.488L44.7123 132.723L44.7122 132.723L45.6533 134.488ZM46.1683 134.371L46.0777 136.369L47.5743 136.437L48.0602 135.02L46.1683 134.371ZM46.4475 133.533L48.3518 134.144L49.0746 131.892L46.7339 131.553L46.4475 133.533ZM11.4365 117.11L9.94345 118.441H9.94345L11.4365 117.11ZM17.1205 50.2229L18.8538 51.2207L19.8536 49.4839L18.1148 48.4876L17.1205 50.2229ZM51.3564 24.1304L49.4188 24.6259L49.9449 26.683L51.9669 26.0349L51.3564 24.1304ZM78.0138 20.8072L77.9074 22.8044L78.0138 20.8072ZM82.033 21.1247L81.8232 23.1136L84.0172 23.345L84.0329 21.1389L82.033 21.1247ZM115.497 34.2626L114.146 35.7379L115.622 37.0883L116.972 35.613L115.497 34.2626ZM115.692 35.5081C115.876 35.3215 116.057 35.1314 116.234 34.9378L113.284 32.237C113.141 32.3926 112.996 32.5454 112.848 32.6953L115.692 35.5081ZM143.427 88.0277C140.169 68.4813 132.485 46.4614 115.538 32.5556L113.001 35.6478C128.837 48.6425 136.284 69.5006 139.481 88.6853L143.427 88.0277ZM142.839 86.8476C142.705 86.7699 142.58 86.6978 142.462 86.6289L140.447 90.0841C140.573 90.1577 140.704 90.2338 140.837 90.3107L142.839 86.8476ZM153.461 110.176C154.873 102.649 153.35 97.3455 150.752 93.598C148.21 89.9309 144.771 87.9643 142.839 86.8476L140.837 90.3107C142.77 91.4277 145.483 93.0171 147.465 95.8767C149.391 98.656 150.765 102.85 149.53 109.439L153.461 110.176ZM118.854 135.243C139.141 131.697 151.131 122.603 153.461 110.176L149.53 109.439C147.662 119.398 137.835 127.865 118.165 131.303L118.854 135.243ZM123.845 135.641C122.528 134.25 121.182 132.944 119.82 131.762L117.199 134.784C118.446 135.865 119.697 137.078 120.941 138.392L123.845 135.641ZM133.587 147.879C130.579 143.524 127.263 139.251 123.845 135.641L120.941 138.392C124.177 141.809 127.365 145.909 130.296 150.152L133.587 147.879ZM146.686 171.223C144.52 165.809 139.583 156.559 133.587 147.879L130.295 150.152C136.163 158.647 140.942 167.633 142.972 172.709L146.686 171.223ZM148.557 192.62C151.181 187.63 150.39 180.485 146.686 171.223L142.972 172.709C146.606 181.793 146.764 187.437 145.017 190.758L148.557 192.62ZM134.212 199.417C140.025 199.417 145.791 197.88 148.557 192.62L145.017 190.758C143.319 193.986 139.579 195.417 134.212 195.417V199.417ZM133.83 199.417H134.212V195.417H133.83V199.417ZM130.705 206.049C130.739 206.009 133.955 202.298 135.675 198.189L131.986 196.644C130.532 200.116 127.695 203.414 127.678 203.434L130.705 206.049ZM130.696 206.059L130.696 206.058L127.686 203.424L127.686 203.425L130.696 206.059ZM127.522 231.939L131.173 205.01L127.209 204.473L123.558 231.401L127.522 231.939ZM125.54 248.275C128.122 248.275 130.098 247.154 131.311 245.34C132.457 243.623 132.803 241.473 132.67 239.469C132.536 237.444 131.903 235.355 130.841 233.616C129.786 231.889 128.198 230.342 126.083 229.745L124.996 233.595C125.848 233.835 126.714 234.534 127.427 235.701C128.134 236.858 128.585 238.316 128.679 239.733C128.774 241.17 128.492 242.357 127.984 243.118C127.542 243.78 126.837 244.275 125.54 244.275V248.275ZM96.7859 248.275H125.54V244.275H96.7859V248.275ZM86.1141 218.434C86.1141 223.815 86.8119 230.944 88.2859 236.781C89.0193 239.685 89.9773 242.403 91.2201 244.442C92.4158 246.404 94.2217 248.275 96.7859 248.275V244.275C96.3834 244.275 95.6221 243.979 94.6355 242.36C93.6961 240.819 92.857 238.545 92.1641 235.801C90.7855 230.342 90.1141 223.55 90.1141 218.434H86.1141ZM89.277 220.22C89.4146 220.032 89.5226 219.888 89.5954 219.791C89.6318 219.742 89.6593 219.706 89.6773 219.682C89.6863 219.67 89.693 219.662 89.6971 219.656C89.6992 219.653 89.7007 219.652 89.7015 219.65C89.7019 219.65 89.7022 219.65 89.7023 219.649C89.7023 219.649 89.7023 219.649 89.7023 219.649C89.7023 219.649 89.7023 219.649 89.7022 219.649C89.7022 219.65 89.7022 219.65 89.7022 219.65C89.7022 219.65 89.7021 219.65 89.7021 219.65C89.7021 219.65 89.7021 219.65 88.1141 218.434C86.526 217.218 86.526 217.218 86.526 217.218C86.526 217.218 86.5259 217.218 86.5259 217.218C86.5259 217.218 86.5259 217.218 86.5258 217.218C86.5257 217.218 86.5257 217.219 86.5256 217.219C86.5254 217.219 86.5252 217.219 86.5249 217.22C86.5243 217.22 86.5236 217.221 86.5228 217.222C86.5211 217.225 86.5187 217.228 86.5157 217.232C86.5098 217.239 86.5014 217.25 86.4905 217.265C86.4688 217.293 86.4375 217.335 86.3972 217.388C86.3167 217.496 86.2005 217.651 86.0542 217.85L89.277 220.22ZM89.1414 221.833L89.6261 219.43L85.7051 218.639L85.2204 221.042L89.1414 221.833ZM87.6011 224.394C88.0363 223.729 88.4514 223.116 88.825 222.576L85.5368 220.299C85.1456 220.863 84.7104 221.506 84.2534 222.205L87.6011 224.394ZM83.4779 231.803C84.5352 229.33 86.1445 226.621 87.6011 224.394L84.2534 222.205C82.7486 224.506 80.9924 227.441 79.7997 230.231L83.4779 231.803ZM88.8778 240.355C89.2475 236.092 86.9621 231.556 82.5693 229.247L80.7084 232.788C83.687 234.353 85.1222 237.365 84.8928 240.009L88.8778 240.355ZM85.7365 246.673C87.6678 244.977 88.6756 242.687 88.8778 240.355L84.8928 240.009C84.77 241.425 84.174 242.722 83.0969 243.668L85.7365 246.673ZM78.073 249.275C81.1693 249.275 83.7999 248.374 85.7365 246.673L83.0969 243.668C82.0215 244.612 80.3882 245.275 78.073 245.275V249.275ZM70.2981 249.373C72.5893 249.324 74.8271 249.275 78.073 249.275V245.275C74.7814 245.275 72.5075 245.325 70.2112 245.374L70.2981 249.373ZM46.5325 249.274C60.6676 249.582 65.5631 249.476 70.2981 249.373L70.2112 245.374C65.5329 245.476 60.6953 245.582 46.6195 245.275L46.5325 249.274ZM40.6199 246.461C42.1059 248.058 44.081 249.221 46.5325 249.274L46.6195 245.275C45.4934 245.251 44.484 244.742 43.5489 243.737L40.6199 246.461ZM37.3023 240.748C38.1174 242.884 39.181 244.914 40.6199 246.461L43.5489 243.737C42.5987 242.715 41.7611 241.213 41.0397 239.322L37.3023 240.748ZM34.2101 225.718C34.7462 230.971 35.6701 236.468 37.3023 240.748L41.0397 239.322C39.5974 235.541 38.715 230.462 38.1894 225.312L34.2101 225.718ZM34.1148 224.744C34.1452 225.068 34.1769 225.393 34.2101 225.718L38.1894 225.312C38.1574 224.998 38.1268 224.685 38.0974 224.371L34.1148 224.744ZM32.8881 226.911C34.1412 226.911 35.3644 226.773 36.5422 226.51L35.67 222.606C34.7765 222.806 33.8458 222.911 32.8881 222.911V226.911ZM16.1957 210.219C16.1957 219.438 23.6692 226.911 32.8881 226.911V222.911C25.8783 222.911 20.1957 217.229 20.1957 210.219H16.1957ZM16.2925 208.413C16.2285 209.007 16.1957 209.609 16.1957 210.219H20.1957C20.1957 209.753 20.2208 209.293 20.2695 208.841L16.2925 208.413ZM14.3868 208.905C15.393 209.493 16.4327 210.012 17.4945 210.466L19.0675 206.788C18.1494 206.395 17.2595 205.951 16.4059 205.452L14.3868 208.905ZM2.52547 187.993C2.91536 198.325 7.78417 205.044 14.3868 208.905L16.4059 205.452C10.9589 202.267 6.85987 196.78 6.52262 187.842L2.52547 187.993ZM18.1739 153.655C9.44373 163.174 2.04415 175.238 2.52547 187.993L6.52262 187.842C6.10149 176.682 12.6248 165.624 21.122 156.358L18.1739 153.655ZM44.7122 132.723C37.6176 136.507 26.9738 144.059 18.1739 153.655L21.122 156.358C29.5958 147.118 39.8722 139.838 46.5945 136.253L44.7122 132.723ZM46.2589 132.373C45.7369 132.349 45.2017 132.462 44.7123 132.723L46.5944 136.253C46.4332 136.339 46.2531 136.377 46.0777 136.369L46.2589 132.373ZM44.5432 132.922C44.4664 133.161 44.3774 133.428 44.2764 133.722L48.0602 135.02C48.1676 134.706 48.2653 134.414 48.3518 134.144L44.5432 132.922ZM9.94345 118.441C19.1901 128.816 31.9655 133.458 46.1611 135.512L46.7339 131.553C32.9993 129.566 21.2926 125.163 12.9295 115.78L9.94345 118.441ZM15.3871 49.2252C9.3976 59.6305 3.22428 71.4501 0.932913 83.353C-1.37934 95.3644 0.249003 107.564 9.94345 118.441L12.9295 115.78C4.24286 106.033 2.72825 95.187 4.86079 84.1091C7.01423 72.9227 12.8735 61.6101 18.8538 51.2207L15.3871 49.2252ZM3.35526 29.9366C3.35526 39.3647 8.50025 47.5886 16.1262 51.9582L18.1148 48.4876C11.6819 44.8016 7.35526 37.8731 7.35526 29.9366H3.35526ZM28.7194 4.57242C14.7112 4.57242 3.35526 15.9283 3.35526 29.9366H7.35526C7.35526 18.1375 16.9203 8.57242 28.7194 8.57242V4.57242ZM53.2941 23.6349C50.4917 12.6763 40.5544 4.57242 28.7194 4.57242V8.57242C38.683 8.57242 47.0581 15.3948 49.4188 24.6259L53.2941 23.6349ZM78.1202 18.81C67.9421 18.2678 58.7724 19.6532 50.746 22.2258L51.9669 26.0349C59.5419 23.6071 68.2261 22.2886 77.9074 22.8044L78.1202 18.81ZM82.2427 19.1357C80.8954 18.9936 79.5214 18.8847 78.1202 18.81L77.9074 22.8044C79.2409 22.8754 80.546 22.979 81.8232 23.1136L82.2427 19.1357ZM101.289 0.0078125C89.6006 0.0078125 80.1159 9.44145 80.033 21.1105L84.0329 21.1389C84.1002 11.6663 91.8003 4.00781 101.289 4.00781V0.0078125ZM122.545 21.2643C122.545 9.52466 113.029 0.0078125 101.289 0.0078125V4.00781C110.819 4.00781 118.545 11.7338 118.545 21.2643H122.545ZM116.972 35.613C120.431 31.8341 122.545 26.7927 122.545 21.2643H118.545C118.545 25.7542 116.832 29.8417 114.021 32.9122L116.972 35.613ZM113.409 35.0627L114.146 35.7379L116.847 32.7873L116.109 32.1121L113.409 35.0627Z" fill="#D39924" mask="url(#path-1-outside-1_28576_25212)"/>
<path d="M81.1892 115.32C78.3892 115.32 76.1892 114.4 74.5892 112.56C72.9892 110.64 72.1892 108.28 72.1892 105.48C72.1892 101 73.3492 97.48 75.6692 94.92C76.3892 94.2 77.5092 93.12 79.0292 91.68C80.5492 90.32 81.6692 89.2 82.3892 88.32C83.1092 87.44 83.4692 86.52 83.4692 85.56C83.4692 84.04 83.1892 82.96 82.6292 82.32C82.0692 81.6 81.1892 81.24 79.9892 81.24C78.8692 81.24 77.9492 81.64 77.2292 82.44C76.5892 83.16 76.2692 84.28 76.2692 85.8C76.2692 88.52 75.1092 90.8 72.7892 92.64C70.4692 94.4 67.5492 95.28 64.0292 95.28C60.5092 95.28 57.6692 94.08 55.5092 91.68C53.4292 89.2 52.3892 85.76 52.3892 81.36C52.3892 77.68 53.6292 74 56.1092 70.32C58.5892 66.64 62.0292 63.6 66.4292 61.2C70.9092 58.8 75.9092 57.6 81.4292 57.6C87.0292 57.6 92.0292 58.72 96.4292 60.96C100.829 63.2 104.229 66.2 106.629 69.96C109.029 73.64 110.229 77.56 110.229 81.72C110.229 85.96 109.429 89.52 107.829 92.4C106.309 95.2 104.509 97.36 102.429 98.88C100.429 100.32 97.9892 101.8 95.1092 103.32C93.3492 104.2 92.1492 104.88 91.5092 105.36C90.8692 105.76 90.5492 106.24 90.5492 106.8C90.5492 108.96 89.7092 110.92 88.0292 112.68C86.3492 114.44 84.0692 115.32 81.1892 115.32ZM81.3092 117.84C77.7892 117.84 74.7092 119.16 72.0692 121.8C69.5092 124.36 68.2292 127.4 68.2292 130.92C68.2292 134.44 69.5092 137.52 72.0692 140.16C74.7092 142.72 77.7892 144 81.3092 144C84.8292 144 87.9092 142.72 90.5492 140.16C93.1892 137.52 94.5092 134.44 94.5092 130.92C94.5092 127.4 93.1892 124.36 90.5492 121.8C87.9092 119.16 84.8292 117.84 81.3092 117.84Z" fill="white"/>
</svg>
