<svg xmlns="http://www.w3.org/2000/svg" width="53" height="53" viewBox="0 0 53 53" fill="none">
  <circle cx="26.5" cy="26.5" r="25.5" fill="#FFB050" stroke="#4B371F" stroke-width="2"/>
  <circle cx="26.5" cy="26.5" r="18.587" fill="#FFCF23" stroke="#AF7026" stroke-width="2"/>
  <path d="M32.658 16.3409C31.632 15.9724 30.518 15.926 29.465 16.208L29.4645 16.2081C28.5789 16.4449 27.7691 16.9054 27.1129 17.5455C26.6205 18.0257 26.227 18.595 25.9518 19.2207C25.1939 19.3308 24.4515 19.5297 23.74 19.8134C23.3041 19.494 22.8211 19.2416 22.3071 19.066C21.5768 18.8164 20.801 18.7279 20.0332 18.8063C19.2653 18.8848 18.5236 19.1284 17.8587 19.5205C17.1939 19.9125 16.6218 20.4438 16.1815 21.0778L17.0029 21.6481L16.1815 21.0778C15.7413 21.7118 15.4435 22.4335 15.3084 23.1934C15.1733 23.9534 15.2043 24.7335 15.399 25.4804C15.5938 26.2273 15.9479 26.9231 16.4369 27.5203C16.7809 27.9405 17.1861 28.3048 17.6377 28.6017C17.6074 29.9412 17.8548 31.2749 18.367 32.5181C18.9621 33.9623 19.897 35.2415 21.0923 36.247C22.2876 37.2526 23.7079 37.9547 25.2327 38.2937C26.7574 38.6327 28.3415 38.5987 29.8503 38.1944C31.359 37.7901 32.7479 37.0276 33.8988 35.9716C35.0498 34.9156 35.9288 33.5974 36.4612 32.1289C36.9936 30.6605 37.1637 29.0852 36.9569 27.5369C36.7789 26.2042 36.3263 24.9255 35.6303 23.7807C36.0141 23.0171 36.211 22.1695 36.1999 21.3084C36.1859 20.2182 35.8392 19.1582 35.2062 18.2705C34.5732 17.3827 33.6841 16.7095 32.658 16.3409Z" fill="#FFB050" stroke="#AF7026" stroke-width="2"/>
  <path d="M12.6738 21.8914C13.0579 20.3552 14.9782 16.5914 19.5869 13.8262" stroke="white" stroke-width="2" stroke-linecap="round" stroke-linejoin="round"/>
</svg>