<svg width="334" height="362" viewBox="0 0 334 362" fill="none" xmlns="http://www.w3.org/2000/svg">
<mask id="mask0_28576_27203" style="mask-type:alpha" maskUnits="userSpaceOnUse" x="0" y="0" width="334" height="362">
<path d="M21 0.5C9.67816 0.5 0.5 9.67817 0.5 21V341C0.5 352.322 9.67817 361.5 21 361.5H313C324.322 361.5 333.5 352.322 333.5 341V21C333.5 9.67816 324.322 0.5 313 0.5H21Z" fill="#FF79A4" stroke="black"/>
</mask>
<g mask="url(#mask0_28576_27203)">
<path fill-rule="evenodd" clip-rule="evenodd" d="M164.613 188.604L320.339 88.5909L298.034 57.7949L164.613 188.604L185.047 -3H148.196L164.613 188.604L109.447 8.05332L75.8597 23.9702L164.613 188.604L-5.90452 125.943L-14.1657 163.646L164.613 188.604L-15 213.172L-6.12129 250.72L164.613 188.604L63.9655 346.905L96.3414 365.383L164.613 188.604L137.353 376.923L174.15 379L164.613 188.604L223.142 366.631L256.748 350.759L164.613 188.604L294.842 321.529L317.974 291.413L164.613 188.604L347.107 161.676L338.273 124.117L164.613 188.604ZM234.56 6.82034L267.306 24.5637L164.613 188.604L234.56 6.82034ZM349.894 214.497L341.336 252.126L164.613 188.604L349.894 214.497ZM32.9657 323.902L9.57825 294.004L164.613 188.604L32.9657 323.902ZM14.3129 77.4868L38.1247 47.9607L164.613 188.604L14.3129 77.4868Z" fill="url(#paint0_radial_28576_27203)"/>
</g>
<defs>
<radialGradient id="paint0_radial_28576_27203" cx="0" cy="0" r="1" gradientUnits="userSpaceOnUse" gradientTransform="translate(167.447 188) rotate(90) scale(191 182.447)">
<stop stop-color="#FA427D"/>
<stop offset="1" stop-color="white" stop-opacity="0"/>
</radialGradient>
</defs>
</svg>
