<svg width="38" height="32" viewBox="0 0 38 32" fill="none" xmlns="http://www.w3.org/2000/svg">
<mask id="path-1-outside-1_26316_292165" maskUnits="userSpaceOnUse" x="0.357178" y="-1" width="38" height="33" fill="black">
<rect fill="white" x="0.357178" y="-1" width="38" height="33"/>
<path fill-rule="evenodd" clip-rule="evenodd" d="M29.9478 6.54815C27.4118 3.71165 19.6928 -0.718986 9.08098 4.22941C-4.18826 10.417 5.50723 28.5233 10.0235 29.1903C14.0695 29.7878 22.7013 29.5564 24.4552 27.1239C27.581 25.935 30.3272 24.156 30.6062 22.1542C31.0649 18.8632 29.7987 16.7285 28.3428 14.2742L28.3428 14.2741C28.024 13.7366 27.6961 13.1838 27.3752 12.6001C30.5716 11.3778 33.7735 9.70067 35.201 7.65139C37.2457 4.7162 32.6471 5.5271 30.0921 6.29944C30.0557 6.37289 30.0077 6.45619 29.9478 6.54815Z"/>
</mask>
<path fill-rule="evenodd" clip-rule="evenodd" d="M29.9478 6.54815C27.4118 3.71165 19.6928 -0.718986 9.08098 4.22941C-4.18826 10.417 5.50723 28.5233 10.0235 29.1903C14.0695 29.7878 22.7013 29.5564 24.4552 27.1239C27.581 25.935 30.3272 24.156 30.6062 22.1542C31.0649 18.8632 29.7987 16.7285 28.3428 14.2742L28.3428 14.2741C28.024 13.7366 27.6961 13.1838 27.3752 12.6001C30.5716 11.3778 33.7735 9.70067 35.201 7.65139C37.2457 4.7162 32.6471 5.5271 30.0921 6.29944C30.0557 6.37289 30.0077 6.45619 29.9478 6.54815Z" fill="black"/>
<path d="M29.9478 6.54815L28.4569 7.88118L30.1978 9.82842L31.6236 7.63987L29.9478 6.54815ZM9.08098 4.22941L9.92622 6.04203L9.08098 4.22941ZM10.0235 29.1903L9.73136 31.1689H9.73136L10.0235 29.1903ZM24.4552 27.1239L23.7442 25.2545L23.1836 25.4677L22.8329 25.9542L24.4552 27.1239ZM30.6062 22.1542L32.587 22.4303L32.587 22.4303L30.6062 22.1542ZM28.3428 14.2742L26.5978 15.2514L26.61 15.2731L26.6227 15.2945L28.3428 14.2742ZM28.3428 14.2741L30.0878 13.2969L30.0756 13.2752L30.0629 13.2538L28.3428 14.2741ZM27.3752 12.6001L26.6608 10.732L24.5166 11.552L25.6226 13.5636L27.3752 12.6001ZM35.201 7.65139L33.56 6.50821V6.50821L35.201 7.65139ZM30.0921 6.29944L29.5134 4.38501L28.6858 4.63521L28.301 5.40956L30.0921 6.29944ZM31.4388 5.21512C28.3813 1.79536 19.7336 -2.94476 8.23574 2.4168L9.92622 6.04203C19.652 1.50679 26.4423 5.62793 28.4569 7.88118L31.4388 5.21512ZM8.23574 2.4168C4.44815 4.18298 2.17449 6.88225 1.10388 9.9958C0.0553079 13.0452 0.215531 16.3225 0.941036 19.2597C1.6682 22.2035 2.9972 24.9507 4.47268 27.0346C5.2107 28.077 6.0169 28.9981 6.84643 29.7036C7.63747 30.3764 8.62797 31.0059 9.73136 31.1689L10.3157 27.2118C10.3233 27.2129 10.2449 27.201 10.0741 27.1087C9.90748 27.0186 9.69295 26.8735 9.43782 26.6565C8.92451 26.22 8.33596 25.5688 7.73724 24.7232C6.53927 23.0312 5.42692 20.74 4.82432 18.3005C4.22007 15.8542 4.16213 13.4031 4.8865 11.2965C5.58882 9.25399 7.07919 7.36962 9.92622 6.04203L8.23574 2.4168ZM9.73136 31.1689C11.9332 31.494 15.2683 31.5853 18.2972 31.2835C19.8142 31.1324 21.3335 30.8753 22.6331 30.4637C23.8459 30.0795 25.2456 29.4473 26.0774 28.2936L22.8329 25.9542C22.8343 25.9522 22.8163 25.9775 22.7604 26.0245C22.7044 26.0717 22.6195 26.133 22.4968 26.2039C22.2464 26.3486 21.8927 26.5023 21.4254 26.6503C20.4868 26.9476 19.2665 27.1671 17.9006 27.3032C15.1636 27.5759 12.1599 27.4841 10.3157 27.2118L9.73136 31.1689ZM25.1661 28.9932C26.8356 28.3583 28.492 27.5348 29.8069 26.5374C31.0633 25.5844 32.3375 24.2207 32.587 22.4303L28.6253 21.8782C28.5959 22.0895 28.3575 22.6163 27.3896 23.3504C26.4802 24.0402 25.2005 24.7006 23.7442 25.2545L25.1661 28.9932ZM32.587 22.4303C33.1519 18.3771 31.508 15.6899 30.063 13.2538L26.6227 15.2945C28.0893 17.7671 28.9778 19.3493 28.6253 21.8782L32.587 22.4303ZM30.0878 13.297L30.0878 13.2969L26.5978 15.2513L26.5978 15.2514L30.0878 13.297ZM30.0629 13.2538C29.7419 12.7125 29.4304 12.1871 29.1278 11.6366L25.6226 13.5636C25.9617 14.1804 26.306 14.7607 26.6226 15.2944L30.0629 13.2538ZM33.56 6.50821C33.0775 7.20081 32.192 7.95808 30.9214 8.72149C29.6761 9.46975 28.1919 10.1465 26.6608 10.732L28.0895 14.4682C29.7549 13.8313 31.4699 13.0584 32.9815 12.1502C34.4678 11.2572 35.8971 10.1512 36.8421 8.79456L33.56 6.50821ZM30.6709 8.21388C31.9138 7.83815 33.4179 7.53505 34.2601 7.58199C34.4499 7.59256 34.4913 7.61693 34.4409 7.59761C34.3872 7.57701 34.0948 7.45118 33.8835 7.07739C33.6575 6.67741 33.7098 6.32605 33.7342 6.2293C33.751 6.16274 33.7428 6.24576 33.56 6.50821L36.8421 8.79456C37.1705 8.32322 37.4658 7.7895 37.6125 7.2085C37.7668 6.5973 37.7754 5.83377 37.3658 5.10912C36.971 4.41065 36.3554 4.04764 35.8726 3.86259C35.3931 3.67881 34.8997 3.61143 34.4827 3.58819C32.8981 3.49987 30.8254 3.98839 29.5134 4.38501L30.6709 8.21388ZM31.6236 7.63987C31.7173 7.49595 31.806 7.34489 31.8833 7.18933L28.301 5.40956C28.3037 5.40421 28.3031 5.40588 28.2979 5.41474C28.2929 5.42343 28.2845 5.43734 28.2721 5.45644L31.6236 7.63987Z" fill="#709D27" mask="url(#path-1-outside-1_26316_292165)"/>
<path d="M13.9792 17.0105H11.5694C10.7919 17.0105 10.3184 16.218 10.568 15.5333L13.9792 17.0105ZM13.9792 17.0105L12.6199 22.3778C12.6199 22.3778 12.6199 22.3778 12.6199 22.3778C12.4827 22.9197 12.7491 23.3944 13.1437 23.6141C13.5428 23.8363 14.0952 23.8061 14.4647 23.3661C14.4647 23.3661 14.4647 23.366 14.4647 23.366L22.6156 13.6577L13.9792 17.0105ZM13.601 7.21166L10.568 15.5333L22.6156 13.6576C23.1832 12.9816 22.7621 11.8496 21.8053 11.8496H19.2123L20.7126 8.00026C20.9808 7.3123 20.5083 6.5 19.7201 6.5H14.6021H14.6021C14.3803 6.50004 14.1658 6.57063 13.9872 6.69934C13.8088 6.82782 13.6754 7.00735 13.601 7.21165C13.601 7.21165 13.601 7.21166 13.601 7.21166Z" fill="#9CD1FF" stroke="#4B371F"/>
</svg>
