<svg width="40" height="33" viewBox="0 0 40 33" fill="none" xmlns="http://www.w3.org/2000/svg">
  <path d="M32.6541 29.5254C32.9153 30.4907 32.915 30.4907 32.9146 30.4908L32.9137 30.4911L32.911 30.4918L32.9023 30.4941L32.8715 30.5022C32.8451 30.5091 32.807 30.519 32.7576 30.5315C32.6587 30.5564 32.5143 30.5919 32.3272 30.6354C31.9529 30.7225 31.4072 30.842 30.7113 30.9743C29.32 31.2389 27.3261 31.5551 24.9002 31.7658C20.0536 32.1868 13.4543 32.1891 6.48031 30.4972C6.03186 30.3884 5.71609 29.9869 5.71607 29.5254L5.71604 28.9232C5.64643 28.9008 5.57828 28.8772 5.51206 28.853C5.12611 28.712 4.72654 28.5203 4.35516 28.307C3.98434 28.094 3.62093 27.8476 3.31332 27.5888C3.02634 27.3473 2.70593 27.0276 2.51951 26.6529C2.45067 26.5145 2.41484 26.362 2.41483 26.2075L2.41483 25.9564C2.1169 25.795 1.83283 25.5628 1.59653 25.229C1.17322 24.6312 1 23.8414 1 22.8895C1 22.1303 1.31051 20.7258 1.8027 19.1162C2.30902 17.4605 3.04755 15.4612 3.98263 13.4603C4.91601 11.4631 6.0581 9.43648 7.37936 7.74353C8.5682 6.22025 9.95378 4.90023 11.5243 4.15609L11.8764 2.7406C11.9084 2.61166 11.9659 2.4904 12.0453 2.38391C12.2091 2.16449 12.4226 2.03953 12.5387 1.97769C12.6786 1.90318 12.832 1.84167 12.9814 1.78994C13.2821 1.68579 13.6556 1.59102 14.07 1.5063C14.9044 1.33575 15.9946 1.188 17.196 1.09685C19.5807 0.915933 22.5329 0.948197 24.8799 1.53803C24.88 1.53805 24.8801 1.53807 24.8802 1.53809C24.8803 1.53812 24.8804 1.53816 24.8806 1.53819L24.8807 1.53821L24.8813 1.53837L24.9217 1.54853C25.3585 1.65828 25.751 1.75692 26.0681 1.86895C26.4086 1.98924 26.7583 2.156 27.0554 2.45467C27.3522 2.75299 27.5175 3.10351 27.6367 3.44457C27.6905 3.59848 27.7412 3.7701 27.7916 3.95602C28.255 4.07158 28.6952 4.29899 29.1073 4.58784C29.773 5.05438 30.4522 5.74103 31.1612 6.59902C32.5801 8.3161 34.264 10.901 36.338 14.3122C38.4683 17.8158 39.1289 20.4392 38.98 22.3282C38.8803 23.5938 38.3981 24.576 37.7362 25.1722L37.7938 25.288C38.0177 25.7381 37.8727 26.2844 37.4551 26.5642C36.9433 26.9071 36.0936 27.4091 35.1651 27.8294C34.6377 28.0682 34.0386 28.3024 33.4356 28.4551C33.4633 28.5675 33.488 28.6709 33.5098 28.7642C33.5506 28.9384 33.5814 29.0776 33.6022 29.1743C33.6126 29.2227 33.6205 29.2605 33.626 29.2868L33.6323 29.3175L33.634 29.3261L33.6345 29.3287L33.6347 29.3296L33.6348 29.3299L33.6348 29.3301C33.6348 29.3301 33.6348 29.3302 32.6541 29.5254ZM32.6541 29.5254L32.9153 30.4907C33.423 30.3533 33.7375 29.8461 33.6348 29.3302L32.6541 29.5254Z" fill="black" stroke="#709D27" stroke-width="2" stroke-linecap="round" stroke-linejoin="round"/>
  <path d="M16.9792 18.0105H14.5694C13.7919 18.0105 13.3184 17.218 13.568 16.5333L16.9792 18.0105ZM16.9792 18.0105L15.6199 23.3778C15.6199 23.3778 15.6199 23.3778 15.6199 23.3778C15.4827 23.9197 15.7491 24.3944 16.1437 24.6141C16.5428 24.8363 17.0952 24.8061 17.4647 24.3661C17.4647 24.3661 17.4647 24.366 17.4647 24.366L25.6156 14.6577L16.9792 18.0105ZM16.601 8.21166L13.568 16.5333L25.6156 14.6576C26.1832 13.9816 25.7621 12.8496 24.8053 12.8496H22.2123L23.7126 9.00026C23.9808 8.3123 23.5083 7.5 22.7201 7.5H17.6021H17.6021C17.3803 7.50004 17.1658 7.57063 16.9872 7.69934C16.8088 7.82782 16.6754 8.00735 16.601 8.21165C16.601 8.21165 16.601 8.21166 16.601 8.21166Z" fill="#9CD1FF" stroke="#4B371F"/>
</svg>
