<svg width="38" height="32" viewBox="0 0 38 32" fill="none" xmlns="http://www.w3.org/2000/svg">
  <mask id="path-1-outside-1_26316_292165" maskUnits="userSpaceOnUse" x="0" y="-1" width="38" height="33" fill="black">
    <rect fill="white" y="-1" width="38" height="33"/>
    <path fill-rule="evenodd" clip-rule="evenodd" d="M29.5907 6.54815C27.0546 3.71164 19.3356 -0.718985 8.7238 4.22941C-4.54544 10.417 5.15005 28.5233 9.66637 29.1903C13.7124 29.7878 22.3441 29.5564 24.098 27.1239C27.2238 25.935 29.97 24.156 30.249 22.1542C30.7077 18.8632 29.4415 16.7285 27.9857 14.2742L27.9856 14.2741C27.6668 13.7366 27.3389 13.1838 27.018 12.6001C30.2145 11.3778 33.4163 9.70067 34.8439 7.65139C36.8885 4.7162 32.2899 5.5271 29.735 6.29944C29.6985 6.37289 29.6506 6.45619 29.5907 6.54815Z"/>
  </mask>
  <path fill-rule="evenodd" clip-rule="evenodd" d="M29.5907 6.54815C27.0546 3.71164 19.3356 -0.718985 8.7238 4.22941C-4.54544 10.417 5.15005 28.5233 9.66637 29.1903C13.7124 29.7878 22.3441 29.5564 24.098 27.1239C27.2238 25.935 29.97 24.156 30.249 22.1542C30.7077 18.8632 29.4415 16.7285 27.9857 14.2742L27.9856 14.2741C27.6668 13.7366 27.3389 13.1838 27.018 12.6001C30.2145 11.3778 33.4163 9.70067 34.8439 7.65139C36.8885 4.7162 32.2899 5.5271 29.735 6.29944C29.6985 6.37289 29.6506 6.45619 29.5907 6.54815Z" fill="black"/>
  <path d="M29.5907 6.54815L28.0997 7.88118L29.8406 9.82841L31.2664 7.63987L29.5907 6.54815ZM8.7238 4.22941L9.56904 6.04203L8.7238 4.22941ZM9.66637 29.1903L9.95856 27.2118H9.95856L9.66637 29.1903ZM24.098 27.1239L23.387 25.2545L22.8265 25.4677L22.4757 25.9542L24.098 27.1239ZM30.249 22.1542L32.2299 22.4303H32.2299L30.249 22.1542ZM27.9857 14.2742L26.2406 15.2514L26.2528 15.2731L26.2655 15.2945L27.9857 14.2742ZM27.9856 14.2741L29.7306 13.2969L29.7185 13.2752L29.7058 13.2538L27.9856 14.2741ZM27.018 12.6001L26.3036 10.732L24.1594 11.552L25.2654 13.5636L27.018 12.6001ZM34.8439 7.65139L33.2028 6.50821V6.50821L34.8439 7.65139ZM29.735 6.29944L29.1562 4.38501L28.3286 4.63521L27.9439 5.40955L29.735 6.29944ZM31.0816 5.21512C28.0242 1.79536 19.3764 -2.94476 7.87856 2.4168L9.56904 6.04203C19.2948 1.50679 26.0851 5.62793 28.0997 7.88118L31.0816 5.21512ZM7.87856 2.4168C4.09097 4.18298 1.81731 6.88225 0.746698 9.9958C-0.30187 13.0452 -0.141647 16.3225 0.583858 19.2597C1.31102 22.2035 2.64002 24.9507 4.11551 27.0346C4.85352 28.077 5.65972 28.9981 6.48925 29.7036C7.28029 30.3764 8.27079 31.0059 9.37418 31.1689L9.95856 27.2118C9.96615 27.2129 9.88768 27.201 9.71689 27.1087C9.55031 27.0186 9.33577 26.8735 9.08064 26.6565C8.56733 26.22 7.97878 25.5688 7.38007 24.7232C6.1821 23.0312 5.06974 20.74 4.46714 18.3005C3.86289 15.8542 3.80495 13.4031 4.52932 11.2965C5.23164 9.25399 6.72201 7.36962 9.56904 6.04203L7.87856 2.4168ZM9.37418 31.1689C11.576 31.494 14.9112 31.5853 17.94 31.2835C19.457 31.1324 20.9764 30.8753 22.276 30.4636C23.4887 30.0795 24.8884 29.4473 25.7203 28.2936L22.4757 25.9542C22.4771 25.9522 22.4591 25.9775 22.4032 26.0245C22.3473 26.0717 22.2623 26.133 22.1396 26.2039C21.8892 26.3486 21.5355 26.5023 21.0682 26.6503C20.1296 26.9476 18.9093 27.1671 17.5434 27.3032C14.8064 27.5759 11.8027 27.4841 9.95856 27.2118L9.37418 31.1689ZM24.809 28.9932C26.4785 28.3583 28.1348 27.5348 29.4497 26.5374C30.7061 25.5844 31.9803 24.2207 32.2299 22.4303L28.2682 21.8782C28.2387 22.0895 28.0003 22.6163 27.0324 23.3504C26.123 24.0402 24.8433 24.7006 23.387 25.2545L24.809 28.9932ZM32.2299 22.4303C32.7948 18.3771 31.1508 15.6899 29.7058 13.2538L26.2655 15.2945C27.7322 17.7671 28.6206 19.3493 28.2682 21.8782L32.2299 22.4303ZM29.7307 13.297L29.7306 13.2969L26.2406 15.2513L26.2406 15.2514L29.7307 13.297ZM29.7058 13.2538C29.3847 12.7125 29.0733 12.1871 28.7706 11.6366L25.2654 13.5636C25.6045 14.1804 25.9489 14.7607 26.2655 15.2944L29.7058 13.2538ZM33.2028 6.50821C32.7203 7.20081 31.8348 7.95808 30.5642 8.72149C29.3189 9.46975 27.8347 10.1465 26.3036 10.732L27.7323 14.4682C29.3977 13.8313 31.1128 13.0584 32.6243 12.1502C34.1107 11.2572 35.5399 10.1512 36.485 8.79456L33.2028 6.50821ZM30.3137 8.21388C31.5566 7.83815 33.0607 7.53505 33.903 7.58199C34.0927 7.59256 34.1341 7.61693 34.0837 7.59761C34.03 7.57701 33.7376 7.45118 33.5264 7.07739C33.3003 6.67741 33.3526 6.32605 33.377 6.2293C33.3938 6.16274 33.3856 6.24576 33.2028 6.50821L36.485 8.79456C36.8133 8.32321 37.1086 7.7895 37.2553 7.2085C37.4096 6.5973 37.4182 5.83377 37.0086 5.10912C36.6138 4.41065 35.9982 4.04764 35.5154 3.86259C35.0359 3.67881 34.5425 3.61143 34.1255 3.58819C32.5409 3.49987 30.4682 3.98839 29.1562 4.38501L30.3137 8.21388ZM31.2664 7.63987C31.3602 7.49595 31.4488 7.34489 31.5261 7.18934L27.9439 5.40955C27.9465 5.4042 27.9459 5.40588 27.9408 5.41473C27.9357 5.42342 27.9273 5.43734 27.9149 5.45643L31.2664 7.63987Z" fill="#709D27" mask="url(#path-1-outside-1_26316_292165)"/>
  <path d="M23.8041 11.8H21.2041L22.7041 8C23.0041 7.3 22.5041 6.5 21.7041 6.5H16.6041C16.4041 6.5 16.2041 6.6 16.0041 6.7C15.8041 6.8 15.6041 7 15.6041 7.2L12.5041 15.5C12.2041 16.2 12.8041 17 13.6041 17H15.9041L14.5041 22.4C14.4041 22.9 14.6041 23.4 15.0041 23.6C15.4041 23.8 16.0041 23.8 16.3041 23.4L24.6041 13.6C25.1041 13 24.7041 11.8 23.8041 11.8Z" fill="#9CD1FF"/>
  <path d="M15.6041 24.2C15.3041 24.2 15.1041 24.1 14.8041 24C14.2041 23.6 13.9041 22.9 14.0041 22.2L15.2041 17.5H13.6041C13.1041 17.5 12.6041 17.2 12.3041 16.8C12.0041 16.4 11.9041 15.8 12.1041 15.3L15.1041 7C15.2041 6.7 15.4041 6.4 15.7041 6.3C16.0041 6.1 16.3041 6 16.6041 6H21.7041C22.2041 6 22.7041 6.2 23.0041 6.7C23.3041 7.1 23.4041 7.7 23.2041 8.2L22.0041 11.4H23.9041C24.5041 11.4 25.0041 11.7 25.3041 12.3C25.6041 12.9 25.5041 13.6 25.1041 14L16.9041 23.7C16.5041 24 16.1041 24.2 15.6041 24.2ZM16.6041 7.2C16.4041 7.2 16.1042 7.39961 16.0042 7.59961L13.0041 15.7C12.9041 15.9 13.0041 16.1 13.1041 16.3C13.2041 16.5 13.4041 16.6 13.6041 16.6H16.6041L15.1041 22.6C15.0041 22.9 15.2041 23.2 15.4041 23.3C15.6041 23.4 15.9041 23.4 16.1041 23.2L24.3041 13.5C24.5041 13.3 24.5041 13 24.4041 12.8C24.3041 12.7 24.2041 12.5 23.9041 12.5H20.4041L22.2041 8C22.3041 7.8 22.2041 7.6 22.1041 7.4C22.0041 7.3 21.9041 7.2 21.6041 7.2H16.6041Z" fill="#4B371F"/>
</svg>
