<svg width="51" height="20" viewBox="0 0 51 20" fill="none" xmlns="http://www.w3.org/2000/svg">
  <path d="M4.12023 16.3595C4.29271 16.6894 4.63415 16.8961 5.0064 16.8961H6.20896C6.33905 16.8961 6.46639 16.8708 6.58447 16.8229C6.75122 17.0619 6.9382 17.2863 7.14344 17.4929C8.05232 18.4584 9.42289 19 10.7687 19C12.1404 19 13.4458 18.4408 14.3818 17.505C14.5929 17.294 14.785 17.0665 14.9561 16.8242C15.0733 16.8713 15.1995 16.8961 15.3284 16.8961H35.1706C35.2775 16.8961 35.3826 16.879 35.4822 16.8463C35.662 17.0891 35.8624 17.3135 36.0791 17.5171C37.0092 18.441 38.258 19 39.6802 19C41.0519 19 42.3573 18.4408 43.2934 17.505L42.5864 16.7978L43.2934 17.505C43.4275 17.3709 43.5539 17.2302 43.6722 17.0833C43.8423 17.2171 44.0568 17.2969 44.29 17.2969H48.1983C48.6721 17.2969 49.0809 16.9643 49.1774 16.5004L49.9791 12.6432C50.0203 12.4448 50.0003 12.2384 49.9216 12.0516L49.5207 11.0998C49.4013 10.8162 49.1639 10.6133 48.8859 10.5299C48.3908 9.31369 47.6157 8.25389 46.5495 7.327C46.439 7.23097 46.3088 7.16036 46.168 7.12015C43.6982 6.41469 40.7209 5.91407 36.7424 5.65354C34.9628 4.02108 32.6792 2.3627 30.1917 1.16904C30.1253 1.13718 30.0556 1.11275 29.9839 1.0962C29.0869 0.889273 28.299 1.03125 27.6083 1.3765C27.2952 1.53303 27.0867 1.84192 27.0587 2.19089C27.0306 2.53985 27.1871 2.87807 27.4712 3.08259C28.1831 3.59501 28.9481 4.38404 29.5331 5.20665C27.5502 5.12223 25.3323 5.0183 23.2497 4.9125L22.4278 2.72124C22.2935 2.36327 21.9669 2.1132 21.5863 2.07696L21.4915 3.07246L21.5862 2.07695L21.5861 2.07694L21.5858 2.07691L21.5849 2.07683L21.5821 2.07657L21.5721 2.07563L21.5357 2.0723C21.5046 2.06949 21.4604 2.06559 21.4068 2.06109C21.3 2.05212 21.1536 2.0406 20.9977 2.03065C20.8437 2.02082 20.6714 2.01195 20.5155 2.00921C20.427 2.00766 20.287 2.00611 20.1462 2.01974C20.0207 1.90976 19.8671 1.8306 19.6967 1.79409C19.3828 1.72685 19.1982 1.67258 18.9926 1.61214L18.9922 1.61202C18.772 1.54726 18.5308 1.47634 18.1434 1.39335C18.0588 1.37523 17.9723 1.36816 17.8859 1.37232C14.2431 1.5474 12.7126 2.0917 10.8252 2.76293C9.96629 3.06839 9.03345 3.40015 7.79397 3.73535C7.69535 3.74275 7.59688 3.75015 7.49856 3.75753C5.62824 3.89799 3.81046 4.0345 1.95008 4.12749C1.65126 4.14243 1.37483 4.29038 1.19666 4.53072C1.01849 4.77107 0.957292 5.07857 1.02987 5.36883L1.02989 5.36891L1.0299 5.36893L1.03056 5.37157C1.31607 6.51329 1.60293 7.66041 1.89008 8.76541C1.64663 11.701 2.79561 13.8635 3.83078 15.8118C3.9287 15.9961 4.02561 16.1785 4.12023 16.3595Z" fill="black" stroke="#709D27" stroke-width="2" stroke-linecap="round" stroke-linejoin="round"/>
  <path d="M22.9792 12.0105H20.5694C19.7919 12.0105 19.3184 11.218 19.568 10.5333L22.9792 12.0105ZM22.9792 12.0105L21.6199 17.3778C21.6199 17.3778 21.6199 17.3778 21.6199 17.3778C21.4827 17.9197 21.7491 18.3944 22.1437 18.6141C22.5428 18.8363 23.0952 18.8061 23.4647 18.3661C23.4647 18.3661 23.4647 18.366 23.4647 18.366L31.6156 8.65767L22.9792 12.0105ZM22.601 2.21166L19.568 10.5333L31.6156 8.65765C32.1832 7.98165 31.7621 6.84965 30.8053 6.84965H28.2123L29.7126 3.00026C29.9808 2.3123 29.5083 1.5 28.7201 1.5H23.6021H23.6021C23.3803 1.50004 23.1658 1.57063 22.9872 1.69934C22.8088 1.82782 22.6754 2.00735 22.601 2.21165C22.601 2.21165 22.601 2.21166 22.601 2.21166Z" fill="#9CD1FF" stroke="#4B371F"/>
</svg>
