<svg width="51" height="20" viewBox="0 0 51 20" fill="none" xmlns="http://www.w3.org/2000/svg">
  <path d="M4.12023 16.3595C4.29271 16.6894 4.63415 16.8961 5.0064 16.8961H6.20896C6.33905 16.8961 6.46639 16.8708 6.58447 16.8229C6.75122 17.0619 6.9382 17.2863 7.14344 17.4929C8.05232 18.4584 9.42289 19 10.7687 19C12.1404 19 13.4458 18.4408 14.3818 17.505C14.5929 17.294 14.785 17.0665 14.9561 16.8242C15.0733 16.8713 15.1995 16.8961 15.3284 16.8961H35.1706C35.2775 16.8961 35.3826 16.879 35.4822 16.8463C35.662 17.0891 35.8624 17.3135 36.0791 17.5171C37.0092 18.441 38.258 19 39.6802 19C41.0519 19 42.3573 18.4408 43.2934 17.505L42.5864 16.7978L43.2934 17.505C43.4275 17.3709 43.5539 17.2302 43.6722 17.0833C43.8423 17.2171 44.0568 17.2969 44.29 17.2969H48.1983C48.6721 17.2969 49.0809 16.9643 49.1774 16.5004L49.9791 12.6432C50.0203 12.4448 50.0003 12.2384 49.9216 12.0516L49.5207 11.0998C49.4013 10.8162 49.1639 10.6133 48.8859 10.5299C48.3908 9.31369 47.6157 8.25389 46.5495 7.327C46.439 7.23097 46.3088 7.16036 46.168 7.12015C43.6982 6.41469 40.7209 5.91407 36.7424 5.65354C34.9628 4.02108 32.6792 2.3627 30.1917 1.16904C30.1253 1.13718 30.0556 1.11275 29.9839 1.0962C29.0869 0.889273 28.299 1.03125 27.6083 1.3765C27.2952 1.53303 27.0867 1.84192 27.0587 2.19089C27.0306 2.53985 27.1871 2.87807 27.4712 3.08259C28.1831 3.59501 28.9481 4.38404 29.5331 5.20665C27.5502 5.12223 25.3323 5.0183 23.2497 4.9125L22.4278 2.72124C22.2935 2.36327 21.9669 2.1132 21.5863 2.07696L21.4915 3.07246L21.5862 2.07695L21.5861 2.07694L21.5858 2.07691L21.5849 2.07683L21.5821 2.07657L21.5721 2.07563L21.5357 2.0723C21.5046 2.06949 21.4604 2.06559 21.4068 2.06109C21.3 2.05212 21.1536 2.0406 20.9977 2.03065C20.8437 2.02082 20.6714 2.01195 20.5155 2.00921C20.427 2.00766 20.287 2.00611 20.1462 2.01974C20.0207 1.90976 19.8671 1.8306 19.6967 1.79409C19.3828 1.72685 19.1982 1.67258 18.9926 1.61214L18.9922 1.61202C18.772 1.54726 18.5308 1.47634 18.1434 1.39335C18.0588 1.37523 17.9723 1.36816 17.8859 1.37232C14.2431 1.5474 12.7126 2.0917 10.8252 2.76293C9.96629 3.06839 9.03345 3.40015 7.79397 3.73535C7.69535 3.74275 7.59688 3.75015 7.49856 3.75753C5.62824 3.89799 3.81046 4.0345 1.95008 4.12749C1.65126 4.14243 1.37483 4.29038 1.19666 4.53072C1.01849 4.77107 0.957292 5.07857 1.02987 5.36883L1.02989 5.36891L1.0299 5.36893L1.03056 5.37157C1.31607 6.51329 1.60293 7.66041 1.89008 8.76541C1.64663 11.701 2.79561 13.8635 3.83078 15.8118C3.9287 15.9961 4.02561 16.1785 4.12023 16.3595Z" fill="black" stroke="#709D27" stroke-width="2" stroke-linecap="round" stroke-linejoin="round"/>
  <path d="M30.8041 6.8H28.2041L29.7041 3C30.0041 2.3 29.5041 1.5 28.7041 1.5H23.6041C23.4041 1.5 23.2041 1.6 23.0041 1.7C22.8041 1.8 22.6041 2 22.6041 2.2L19.5041 10.5C19.2041 11.2 19.8041 12 20.6041 12H22.9041L21.5041 17.4C21.4041 17.9 21.6041 18.4 22.0041 18.6C22.4041 18.8 23.0041 18.8 23.3041 18.4L31.6041 8.6C32.1041 8 31.7041 6.8 30.8041 6.8Z" fill="#9CD1FF"/>
  <path d="M22.6041 19.2C22.3041 19.2 22.1041 19.1 21.8041 19C21.2041 18.6 20.9041 17.9 21.0041 17.2L22.2041 12.5H20.6041C20.1041 12.5 19.6041 12.2 19.3041 11.8C19.0041 11.4 18.9041 10.8 19.1041 10.3L22.1041 2C22.2041 1.7 22.4041 1.4 22.7041 1.3C23.0041 1.1 23.3041 1 23.6041 1H28.7041C29.2041 1 29.7041 1.2 30.0041 1.7C30.3041 2.1 30.4041 2.7 30.2041 3.2L29.0041 6.4H30.9041C31.5041 6.4 32.0041 6.7 32.3041 7.3C32.6041 7.9 32.5041 8.6 32.1041 9L23.9041 18.7C23.5041 19 23.1041 19.2 22.6041 19.2ZM23.6041 2.2C23.4041 2.2 23.1042 2.39961 23.0042 2.59961L20.0041 10.7C19.9041 10.9 20.0041 11.1 20.1041 11.3C20.2041 11.5 20.4041 11.6 20.6041 11.6H23.6041L22.1041 17.6C22.0041 17.9 22.2041 18.2 22.4041 18.3C22.6041 18.4 22.9041 18.4 23.1041 18.2L31.3041 8.5C31.5041 8.3 31.5041 8 31.4041 7.8C31.3041 7.7 31.2041 7.5 30.9041 7.5H27.4041L29.2041 3C29.3041 2.8 29.2041 2.6 29.1041 2.4C29.0041 2.3 28.9041 2.2 28.6041 2.2H23.6041Z" fill="#4B371F"/>
</svg>
