<svg xmlns="http://www.w3.org/2000/svg" width="87" height="76" viewBox="0 0 87 76" fill="none">
  <path d="M10.6485 41.8865L28.9343 60.3789C36.5359 68.0663 48.8705 68.3214 56.7834 60.9548L76.4564 42.64C84.3007 34.4899 83.8778 19.4448 77.3721 12.6023C67.9317 2.67304 53.6342 2.23687 44.5254 10.3482C35.8888 2.94862 21.6305 1.2615 11.6025 10.5972C0.783439 20.6693 3.2767 34.5252 10.6485 41.8865Z" fill="#FFB5DD"/>
  <path d="M44.5254 10.3482C35.8888 2.94862 21.6305 1.2615 11.6025 10.5972C0.783439 20.6693 3.2767 34.5252 10.6485 41.8865L28.9343 60.3789C36.5359 68.0663 48.8705 68.3214 56.7834 60.9548L76.4564 42.64C84.3007 34.4899 83.8778 19.4448 77.3721 12.6023C67.9317 2.67304 53.6342 2.23687 44.5254 10.3482ZM44.5254 10.3482L34.0899 20.4318" stroke="white" stroke-width="8" stroke-linecap="round" stroke-linejoin="round"/>
  <path d="M10.6485 41.8865L28.9343 60.3789C36.5359 68.0663 48.8705 68.3214 56.7834 60.9548L76.4564 42.64C84.3007 34.4899 83.8778 19.4448 77.3721 12.6023C67.9317 2.67304 53.6342 2.23687 44.5254 10.3482C35.8888 2.94862 21.6305 1.2615 11.6025 10.5972C0.783439 20.6693 3.2767 34.5252 10.6485 41.8865Z" fill="#FFB5DD"/>
  <path d="M44.5254 10.3482C35.8888 2.94862 21.6305 1.2615 11.6025 10.5972C0.783439 20.6693 3.2767 34.5252 10.6485 41.8865L28.9343 60.3789C36.5359 68.0663 48.8705 68.3214 56.7834 60.9548L76.4564 42.64C84.3007 34.4899 83.8778 19.4448 77.3721 12.6023C67.9317 2.67304 53.6342 2.23687 44.5254 10.3482ZM44.5254 10.3482L34.0899 20.4318" stroke="#4B371F" stroke-width="2" stroke-linecap="round" stroke-linejoin="round"/>
  <ellipse cx="14.2864" cy="16.3725" rx="14.2864" ry="16.3725" transform="matrix(0.730402 0.683018 -0.690612 0.723225 47.5452 19.0068)" fill="#4B371F"/>
  <ellipse cx="3.9462" cy="5.37991" rx="3.9462" ry="5.37991" transform="matrix(0.940664 0.339338 -0.345224 0.93852 49.7266 9.63379)" fill="#4B371F"/>
  <ellipse cx="3.91014" cy="5.07656" rx="3.91014" ry="5.07656" transform="matrix(0.144488 0.989507 -0.990018 0.140943 74.5815 33.1973)" fill="#4B371F"/>
  <ellipse cx="4.51465" cy="6.78222" rx="4.51465" ry="6.78222" transform="matrix(0.810183 0.586177 -0.594099 0.804392 63.0293 9.78125)" fill="#4B371F"/>
  <ellipse cx="4.3913" cy="6.64401" rx="4.3913" ry="6.64401" transform="matrix(0.564361 0.825528 -0.831122 0.55609 72.8418 20.1006)" fill="#4B371F"/>
</svg>