<svg width="32" height="32" viewBox="0 0 32 32" fill="none" xmlns="http://www.w3.org/2000/svg">
  <circle cx="16" cy="16" r="16" fill="white" fill-opacity="0.14"/>
  <path d="M17.7328 16L21.7359 11.997C22.0368 11.696 22.0882 11.2593 21.8507 11.0219L20.9779 10.1491C20.7404 9.91159 20.3043 9.96369 20.0028 10.2645L16.0001 14.2674L11.9972 10.2646C11.6962 9.96329 11.2595 9.91159 11.022 10.1494L10.1492 11.0223C9.91177 11.2594 9.96317 11.6961 10.2646 11.9971L14.2676 16L10.2646 20.0032C9.96367 20.304 9.91157 20.7404 10.1492 20.9778L11.022 21.8507C11.2595 22.0882 11.6962 22.0367 11.9972 21.7358L16.0003 17.7327L20.0029 21.7352C20.3044 22.0368 20.7405 22.0882 20.978 21.8507L21.8508 20.9778C22.0882 20.7404 22.0368 20.304 21.736 20.0028L17.7328 16Z" fill="black"/>
</svg>
