<svg xmlns="http://www.w3.org/2000/svg" width="15" height="19" viewBox="0 0 15 19" fill="none">
  <path fill-rule="evenodd" clip-rule="evenodd" d="M3.6 5.3C3.6 3.25655 5.25655 1.6 7.3 1.6C9.34345 1.6 11 3.25655 11 5.3C11 7.34345 9.34345 9 7.3 9C5.25655 9 3.6 7.34345 3.6 5.3ZM7.3 10.6C10.2271 10.6 12.6 8.22711 12.6 5.3C12.6 2.37289 10.2271 0 7.3 0C4.37289 0 2 2.37289 2 5.3C2 7.10329 2.9006 8.69623 4.27655 9.65359C1.75371 10.8031 0 13.3467 0 16.3C0 16.7418 0.358172 17.1 0.8 17.1C1.24183 17.1 1.6 16.7418 1.6 16.3C1.6 13.152 4.15198 10.6 7.3 10.6ZM7 14.3C7 13.8582 7.35817 13.5 7.8 13.5H10V11.3C10 10.8582 10.3582 10.5 10.8 10.5C11.2418 10.5 11.6 10.8582 11.6 11.3V13.5H13.8C14.2418 13.5 14.6 13.8582 14.6 14.3C14.6 14.7418 14.2418 15.1 13.8 15.1H11.6V17.3C11.6 17.7418 11.2418 18.1 10.8 18.1C10.3582 18.1 10 17.7418 10 17.3V15.1H7.8C7.35817 15.1 7 14.7418 7 14.3Z" fill="black"/>
</svg>