<svg width="42" height="42" viewBox="0 0 42 42" fill="none" xmlns="http://www.w3.org/2000/svg">
  <g filter="url(#filter0_b_26316_292165)">
    <circle cx="21" cy="21" r="19" fill="#C7FF6E" />
    <circle cx="21" cy="21" r="20" stroke="#709D27" stroke-width="2" />
  </g>
  <mask id="mask0_26316_292165" style="mask-type:alpha" maskUnits="userSpaceOnUse" x="2" y="2"
    width="38" height="38">
    <circle cx="21" cy="21" r="18" fill="#C7FF6E" stroke="#709D27" stroke-width="2" />
  </mask>
  <g mask="url(#mask0_26316_292165)">
    <path
      d="M2.50697 23.4514H0.51738C0.257621 23.4514 0.0784347 23.2017 0.17087 22.9688L2.14785 17.9851C2.1746 17.9177 2.22204 17.8597 2.2839 17.8187C2.34576 17.7778 2.41911 17.7559 2.49424 17.7559H5.83032C6.09354 17.7559 6.27297 18.012 6.17362 18.2461L5.0225 20.9596H7.18954C7.50825 20.9596 7.67829 21.3204 7.46808 21.5504L2.15502 27.3645C1.89674 27.6472 1.41788 27.4023 1.51811 27.0388L2.50697 23.4514Z"
      fill="#9CD1FF" fill-opacity="0.3" />
    <path
      d="M2.49417 17.2559H2.49424H5.83032C6.41978 17.2559 6.8854 17.8486 6.63391 18.4414C6.63391 18.4414 6.6339 18.4414 6.63389 18.4414L5.77774 20.4596H7.18954C7.90081 20.4596 8.36872 21.3061 7.83718 21.8877L2.49417 17.2559ZM2.49417 17.2559C2.32224 17.2559 2.1527 17.306 2.00791 17.4018C1.86291 17.4978 1.74842 17.6361 1.68309 17.8008C1.68309 17.8008 1.68308 17.8008 1.68308 17.8008L-0.293884 22.7844C-0.527848 23.374 -0.0643541 23.9514 0.51738 23.9514H1.85049L1.03609 26.9059C1.03609 26.9059 1.03609 26.9059 1.03608 26.9059C0.912063 27.3558 1.16261 27.7296 1.47443 27.8891C1.78359 28.0473 2.22089 28.0337 2.52412 27.7018C2.52413 27.7018 2.52415 27.7018 2.52416 27.7018L7.83716 21.8877L2.49417 17.2559Z"
      stroke="#4B371F" stroke-opacity="0.3" />
    <path
      d="M11.3119 7.69557H9.32231C9.06255 7.69557 8.88337 7.44587 8.9758 7.2129L10.9528 2.22929C10.9795 2.16187 11.027 2.10384 11.0888 2.06289C11.1507 2.02194 11.224 2.00001 11.2992 2H14.6353C14.8985 2 15.0779 2.25611 14.9785 2.49027L13.8274 5.20377H15.9945C16.3132 5.20377 16.4832 5.56455 16.273 5.79455L10.96 11.6087C10.7017 11.8914 10.2228 11.6464 10.323 11.2829L11.3119 7.69557Z"
      fill="#9CD1FF" fill-opacity="0.3" />
    <path
      d="M11.2991 1.5H11.2992H14.6353C15.2247 1.5 15.6903 2.09278 15.4388 2.68553C15.4388 2.68555 15.4388 2.68556 15.4388 2.68557L14.5827 4.70377H15.9945C16.7057 4.70377 17.1736 5.55022 16.6421 6.13185L11.2991 1.5ZM11.2991 1.5C11.1272 1.50003 10.9576 1.55012 10.8128 1.64596C10.6678 1.74194 10.5533 1.88023 10.488 2.04492C10.488 2.04492 10.488 2.04492 10.488 2.04493L8.51105 7.0285C8.27708 7.61817 8.74058 8.19557 9.32231 8.19557H10.6554L9.84102 11.15C9.84102 11.15 9.84102 11.15 9.84101 11.15C9.71699 11.5999 9.96754 11.9738 10.2794 12.1333C10.5885 12.2914 11.0258 12.2778 11.3291 11.946C11.3291 11.946 11.3291 11.9459 11.3291 11.9459L16.6421 6.13187L11.2991 1.5Z"
      stroke="#4B371F" stroke-opacity="0.3" />
    <path
      d="M11.3119 38.2805H9.32231C9.06255 38.2805 8.88337 38.0308 8.9758 37.7979L10.9528 32.8143C10.9795 32.7468 11.027 32.6888 11.0888 32.6479C11.1507 32.6069 11.224 32.585 11.2992 32.585H14.6353C14.8985 32.585 15.0779 32.8411 14.9785 33.0752L13.8274 35.7887H15.9945C16.3132 35.7887 16.4832 36.1495 16.273 36.3795L10.96 42.1936C10.7017 42.4763 10.2228 42.2314 10.323 41.8679L11.3119 38.2805Z"
      fill="#9CD1FF" fill-opacity="0.3" />
    <path
      d="M11.2991 32.085H11.2992H14.6353C15.2247 32.085 15.6903 32.6777 15.4388 33.2705C15.4388 33.2705 15.4388 33.2705 15.4388 33.2705L14.5827 35.2887H15.9945C16.7057 35.2887 17.1736 36.1352 16.6421 36.7168L11.2991 32.085ZM11.2991 32.085C11.1272 32.085 10.9576 32.1351 10.8128 32.2309C10.6678 32.3269 10.5533 32.4652 10.488 32.6299C10.488 32.6299 10.488 32.6299 10.488 32.6299L8.51105 37.6135C8.27708 38.2031 8.74058 38.7805 9.32231 38.7805H10.6554L9.84102 41.735C9.84102 41.735 9.84102 41.735 9.84101 41.735C9.71699 42.1849 9.96754 42.5587 10.2794 42.7182C10.5885 42.8764 11.0258 42.8628 11.3291 42.5309C11.3291 42.5309 11.3291 42.5309 11.3291 42.5309L16.6421 36.7168L11.2991 32.085Z"
      stroke="#4B371F" stroke-opacity="0.3" />
    <path
      d="M18.6432 24.0839H15.1615C14.7069 24.0839 14.3933 23.6439 14.5551 23.2335L18.0148 14.4528C18.0616 14.334 18.1446 14.2318 18.2529 14.1596C18.3611 14.0875 18.4895 14.0488 18.621 14.0488H24.4591C24.9197 14.0488 25.2337 14.5001 25.0599 14.9126L23.0454 19.6936H26.8377C27.3955 19.6936 27.693 20.3292 27.3252 20.7345L18.0273 30.9784C17.5753 31.4765 16.7373 31.0449 16.9127 30.4044L18.6432 24.0839Z"
      fill="#9CD1FF" fill-opacity="0.3" />
    <path
      d="M17.9879 24.5839H15.1615C14.3801 24.5839 13.7895 23.8124 14.0899 23.0502C14.0899 23.0502 14.0899 23.0501 14.0899 23.0501L17.5496 14.2695L17.5496 14.2695L18.0148 14.4528L17.9879 24.5839ZM17.9879 24.5839L16.4305 30.2724C16.4305 30.2724 16.4305 30.2724 16.4305 30.2724C16.27 30.8583 16.5886 31.348 17.0058 31.5629C17.4208 31.7766 17.9977 31.7551 18.3976 31.3144L27.6954 21.0705C27.6954 21.0705 27.6954 21.0705 27.6954 21.0705C28.3781 20.3185 27.7945 19.1936 26.8377 19.1936H23.7987L25.5206 15.1068L17.9879 24.5839Z"
      stroke="#4B371F" stroke-opacity="0.3" />
    <path
      d="M28.4581 7.69557H26.4686C26.2088 7.69557 26.0296 7.44587 26.122 7.2129L28.099 2.22929C28.1258 2.16187 28.1732 2.10384 28.2351 2.06289C28.2969 2.02194 28.3703 2.00001 28.4454 2H31.7815C32.0447 2 32.2241 2.25611 32.1248 2.49027L30.9737 5.20377H33.1407C33.4594 5.20377 33.6295 5.56455 33.4193 5.79455L28.1062 11.6087C27.8479 11.8914 27.3691 11.6464 27.4693 11.2829L28.4581 7.69557Z"
      fill="#9CD1FF" fill-opacity="0.3" />
    <path
      d="M28.4453 1.5H28.4454H31.7815C32.371 1.5 32.8366 2.09278 32.5851 2.68553C32.5851 2.68555 32.5851 2.68556 32.5851 2.68557L31.7289 4.70377H33.1407C33.852 4.70377 34.3199 5.55022 33.7884 6.13185L28.4453 1.5ZM28.4453 1.5C28.2734 1.50003 28.1039 1.55012 27.9591 1.64596C27.8141 1.74194 27.6996 1.88023 27.6343 2.04492C27.6343 2.04492 27.6343 2.04492 27.6343 2.04493L25.6573 7.0285C25.4233 7.61817 25.8868 8.19557 26.4686 8.19557H27.8017L26.9873 11.15C26.9873 11.15 26.9873 11.15 26.9873 11.15C26.8632 11.5999 27.1138 11.9738 27.4256 12.1333C27.7348 12.2914 28.1721 12.2778 28.4753 11.946C28.4753 11.946 28.4753 11.9459 28.4753 11.9459L33.7883 6.13187L28.4453 1.5Z"
      stroke="#4B371F" stroke-opacity="0.3" />
    <path
      d="M28.4581 38.2805H26.4686C26.2088 38.2805 26.0296 38.0308 26.122 37.7979L28.099 32.8143C28.1258 32.7468 28.1732 32.6888 28.2351 32.6479C28.2969 32.6069 28.3703 32.585 28.4454 32.585H31.7815C32.0447 32.585 32.2241 32.8411 32.1248 33.0752L30.9737 35.7887H33.1407C33.4594 35.7887 33.6295 36.1495 33.4193 36.3795L28.1062 42.1936C27.8479 42.4763 27.3691 42.2314 27.4693 41.8679L28.4581 38.2805Z"
      fill="#9CD1FF" fill-opacity="0.3" />
    <path
      d="M28.4453 32.085H28.4454H31.7815C32.371 32.085 32.8366 32.6777 32.5851 33.2705C32.5851 33.2705 32.5851 33.2705 32.5851 33.2705L31.7289 35.2887H33.1407C33.852 35.2887 34.3199 36.1352 33.7884 36.7168L28.4453 32.085ZM28.4453 32.085C28.2734 32.085 28.1039 32.1351 27.9591 32.2309C27.8141 32.3269 27.6996 32.4652 27.6343 32.6299C27.6343 32.6299 27.6343 32.6299 27.6343 32.6299L25.6573 37.6135C25.4233 38.2031 25.8868 38.7805 26.4686 38.7805H27.8017L26.9873 41.735C26.9873 41.735 26.9873 41.735 26.9873 41.735C26.8632 42.1849 27.1138 42.5587 27.4256 42.7182C27.7348 42.8764 28.1721 42.8628 28.4753 42.5309C28.4753 42.5309 28.4753 42.5309 28.4753 42.5309L33.7883 36.7168L28.4453 32.085Z"
      stroke="#4B371F" stroke-opacity="0.3" />
    <path
      d="M36.7999 23.4514H34.8103C34.5506 23.4514 34.3714 23.2017 34.4638 22.9688L36.4408 17.9851C36.4676 17.9177 36.515 17.8597 36.5769 17.8187C36.6387 17.7778 36.7121 17.7559 36.7872 17.7559H40.1233C40.3865 17.7559 40.5659 18.012 40.4666 18.2461L39.3155 20.9596H41.4825C41.8012 20.9596 41.9713 21.3204 41.7611 21.5504L36.448 27.3645C36.1897 27.6472 35.7109 27.4023 35.8111 27.0388L36.7999 23.4514Z"
      fill="#9CD1FF" fill-opacity="0.3" />
    <path
      d="M36.7871 17.2559H36.7872H40.1233C40.7128 17.2559 41.1784 17.8486 40.9269 18.4414C40.9269 18.4414 40.9269 18.4414 40.9269 18.4414L40.0707 20.4596H41.4825C42.1938 20.4596 42.6617 21.3061 42.1302 21.8877L36.7871 17.2559ZM36.7871 17.2559C36.6152 17.2559 36.4457 17.306 36.3009 17.4018C36.1559 17.4978 36.0414 17.6361 35.9761 17.8008C35.9761 17.8008 35.9761 17.8008 35.9761 17.8008L33.9991 22.7844C33.7651 23.374 34.2286 23.9514 34.8103 23.9514H36.1435L35.3291 26.9059C35.3291 26.9059 35.3291 26.9059 35.3291 26.9059C35.205 27.3558 35.4556 27.7296 35.7674 27.8891C36.0766 28.0473 36.5139 28.0337 36.8171 27.7018C36.8171 27.7018 36.8171 27.7018 36.8171 27.7018L42.1301 21.8877L36.7871 17.2559Z"
      stroke="#4B371F" stroke-opacity="0.3" />
  </g>
  <defs>
    <filter id="filter0_b_26316_292165" x="-10" y="-10" width="62" height="62"
      filterUnits="userSpaceOnUse" color-interpolation-filters="sRGB">
      <feFlood flood-opacity="0" result="BackgroundImageFix" />
      <feGaussianBlur in="BackgroundImageFix" stdDeviation="5" />
      <feComposite in2="SourceAlpha" operator="in" result="effect1_backgroundBlur_26316_292165" />
      <feBlend mode="normal" in="SourceGraphic" in2="effect1_backgroundBlur_26316_292165"
        result="shape" />
    </filter>
  </defs>
</svg>