<svg xmlns="http://www.w3.org/2000/svg" width="19" height="17" viewBox="0 0 19 17" fill="none">
  <path d="M3.19453 11.4248L3.20598 11.4234L3.21736 11.4215C3.60286 11.3574 3.97503 11.5307 4.15593 11.844C4.33453 12.1533 4.30167 12.5559 4.06187 12.8565C3.74935 13.1957 3.6655 13.7384 3.92816 14.1933L4.68271 15.5002C5.19805 16.3928 6.34717 16.7007 7.23978 16.1854L17.3387 10.3548C18.2313 9.83943 18.5392 8.69031 18.0238 7.79771L17.2693 6.49079C17.0067 6.03606 16.4845 5.88462 16.0822 5.9326L16.0708 5.93396L16.0594 5.93586C15.6739 5.99998 15.3017 5.82672 15.1208 5.5134C14.94 5.20007 14.976 4.79113 15.2243 4.48934C15.5335 4.11352 15.5972 3.5947 15.3486 3.1641L14.5941 1.85718C14.0787 0.964577 12.9296 0.65667 12.037 1.17202L1.93811 7.00262C1.0455 7.51796 0.737595 8.66708 1.25294 9.55969L2.00749 10.8666C2.27003 11.3213 2.79227 11.4728 3.19453 11.4248Z" fill="#8F65FF" stroke="#4B371F"/>
  <path d="M12.8371 5.644L5.41142 9.93121C5.1738 10.0684 4.84584 9.98052 4.70865 9.7429C4.57146 9.50528 4.65933 9.17732 4.89696 9.04013L12.3226 4.75292C12.5602 4.61573 12.8882 4.70361 13.0254 4.94123C13.1626 5.17885 13.0747 5.50681 12.8371 5.644ZM14.3805 8.31724L6.95481 12.6044C6.71719 12.7416 6.38923 12.6538 6.25204 12.4161C6.11485 12.1785 6.20273 11.8506 6.44035 11.7134L13.866 7.42616C14.1036 7.28897 14.4316 7.37685 14.5688 7.61447C14.706 7.85209 14.6181 8.18005 14.3805 8.31724Z" fill="#C7B2FF"/>
</svg>