<svg xmlns="http://www.w3.org/2000/svg" width="36" height="33" viewBox="0 0 36 33" fill="none">
  <path d="M4.46797 21.1626L4.47942 21.1612L4.4908 21.1593C5.49184 20.9928 6.48574 21.4396 6.97703 22.2905C7.46551 23.1366 7.35952 24.2132 6.72456 24.9958C6.22563 25.5264 6.07944 26.401 6.50675 27.1411L8.06466 29.8395C8.98168 31.4278 11.0287 31.9763 12.617 31.0593L33.4681 19.0209C35.0564 18.1039 35.6049 16.0569 34.6879 14.4686L33.13 11.7702C32.7214 11.0625 31.8816 10.7992 31.2032 10.8801L31.1917 10.8815L31.1804 10.8834C30.1793 11.0499 29.1854 10.6031 28.6941 9.75218C28.2028 8.90125 28.3129 7.81711 28.9576 7.03344C29.465 6.41668 29.5591 5.58521 29.1644 4.90161L27.6065 2.20323C26.6895 0.6149 24.6425 0.0664074 23.0541 0.983432L2.20307 13.0218C0.614734 13.9388 0.0662418 15.9858 0.983266 17.5742L2.54117 20.2725C2.94978 20.9803 3.78957 21.2435 4.46797 21.1626Z" fill="#8F65FF" stroke="#4B371F"/>
  <path d="M24.4398 9.75578L9.10809 18.6075C8.61747 18.8908 7.94034 18.7093 7.65708 18.2187C7.37383 17.7281 7.55526 17.051 8.04588 16.7677L23.3775 7.91598C23.8682 7.63272 24.5453 7.81416 24.8285 8.30478C25.1118 8.79539 24.9304 9.47253 24.4398 9.75578ZM27.6264 15.2752L12.2947 24.1269C11.8041 24.4102 11.127 24.2287 10.8437 23.7381C10.5605 23.2475 10.7419 22.5704 11.2325 22.2871L26.5642 13.4354C27.0548 13.1521 27.7319 13.3336 28.0152 13.8242C28.2984 14.3148 28.117 14.9919 27.6264 15.2752Z" fill="#C7B2FF"/>
</svg>